M48
;GenerationSoftware,Autodesk,EAGLE,9.0.0*%
;CreationDate,2018-05-04T20:30:47Z*%
FMAT,2
ICI,OFF
METRIC,TZ,000.000
T8C0.002
T7C0.500
T6C0.750
T5C0.800
T4C1.016
T3C1.050
T2C1.200
T1C1.600
%
G90
M71
T1
X78740Y19630
X78740Y28630
X29210Y19630
X29210Y28630
X62230Y15820
X62230Y24820
X45720Y15820
X45720Y24820
T2
X84990Y21630
X72490Y21630
X84990Y26630
X72490Y26630
X35460Y21630
X22960Y21630
X35460Y26630
X22960Y26630
X68480Y17820
X55980Y17820
X68480Y22820
X55980Y22820
X51970Y17820
X39470Y17820
X51970Y22820
X39470Y22820
T3
X10086Y51996
T4
X90279Y45230
X74930Y90170
X92075Y43434
X93871Y45194
X92075Y46990
X54610Y72390
X52070Y72390
X27940Y55245
X44450Y72390
X49530Y72390
X41910Y72390
X39370Y72390
X36830Y72390
X34290Y72390
X31750Y72390
X31750Y90170
X34290Y90170
X36830Y90170
X39370Y90170
X46990Y72390
X46990Y90170
X41910Y90170
X44450Y90170
X74930Y72390
X72390Y72390
X49530Y90170
X52070Y90170
X27940Y40005
X27940Y42545
X27940Y45085
X27940Y47625
X27940Y50165
X27940Y52705
X69850Y72390
X27940Y57785
X27940Y60325
X27940Y62865
X67310Y72390
X64770Y72390
X62230Y72390
X59690Y72390
X54610Y90170
X57150Y90170
X87630Y64770
X90170Y64770
X92710Y64770
X57150Y72390
X72390Y90170
X69850Y90170
X67310Y90170
X64770Y90170
X62230Y90170
X59690Y90170
T5
X29210Y17380
X29210Y30880
X62230Y13570
X62230Y27070
X45720Y13570
X45720Y27070
X78740Y30880
X78740Y17380
T6
X12773Y54683
T7
X22098Y84328
X12700Y48260
X82550Y67310
X74930Y76962
X11430Y40640
X11430Y69850
X39370Y63500
X31750Y52324
X31750Y62230
X42291Y86106
X17780Y37846
X40640Y67310
X33020Y38100
X12700Y38100
X43180Y64770
X34290Y38100
X17780Y46990
X91440Y34290
X19050Y40640
X52578Y94234
X55245Y94996
X22860Y80010
X15240Y71120
X21590Y81280
X20320Y85090
X17399Y52959
T8
X27940Y36830
X78740Y66040
X78740Y36830
X27940Y66040
M30