G04 EAGLE Gerber X2 export*
%TF.Part,Single*%
%TF.FileFunction,Profile,NP*%
%TF.FilePolarity,Positive*%
%TF.GenerationSoftware,Autodesk,EAGLE,9.0.0*%
%TF.CreationDate,2018-05-04T20:30:49Z*%
G75*
%MOMM*%
%FSLAX34Y34*%
%LPD*%
%AMOC8*
5,1,8,0,0,1.08239X$1,22.5*%
G01*
%ADD10C,0.254000*%


D10*
X1041400Y565266D02*
X1041400Y577734D01*
X1041094Y590199D01*
X1040482Y602653D01*
X1039565Y615088D01*
X1038343Y627497D01*
X1036816Y639872D01*
X1034987Y652206D01*
X1032855Y664491D01*
X1030423Y676721D01*
X1027691Y688886D01*
X1024661Y700982D01*
X1021335Y712999D01*
X1017716Y724931D01*
X1013805Y736770D01*
X1009604Y748510D01*
X1005117Y760143D01*
X1000345Y771663D01*
X995292Y783062D01*
X989961Y794334D01*
X984355Y805471D01*
X978477Y816468D01*
X972331Y827317D01*
X965921Y838012D01*
X959250Y848546D01*
X952323Y858913D01*
X945143Y869108D01*
X937716Y879123D01*
X930044Y888953D01*
X922134Y898591D01*
X913990Y908033D01*
X905616Y917271D01*
X897019Y926302D01*
X888202Y935119D01*
X879171Y943716D01*
X869933Y952090D01*
X860491Y960234D01*
X850853Y968144D01*
X841023Y975816D01*
X831008Y983243D01*
X820813Y990423D01*
X810446Y997350D01*
X799912Y1004021D01*
X789217Y1010431D01*
X778368Y1016577D01*
X767371Y1022455D01*
X756234Y1028061D01*
X744962Y1033392D01*
X733563Y1038445D01*
X722043Y1043217D01*
X710410Y1047704D01*
X698670Y1051905D01*
X686831Y1055816D01*
X674899Y1059435D01*
X662882Y1062761D01*
X650786Y1065791D01*
X638621Y1068523D01*
X626391Y1070955D01*
X614106Y1073087D01*
X601772Y1074916D01*
X589397Y1076443D01*
X576988Y1077665D01*
X564553Y1078582D01*
X552099Y1079194D01*
X539634Y1079500D01*
X527166Y1079500D01*
X514701Y1079194D01*
X502247Y1078582D01*
X489812Y1077665D01*
X477403Y1076443D01*
X465028Y1074916D01*
X452694Y1073087D01*
X440409Y1070955D01*
X428180Y1068523D01*
X416014Y1065791D01*
X403919Y1062761D01*
X391901Y1059435D01*
X379969Y1055816D01*
X368130Y1051905D01*
X356390Y1047704D01*
X344757Y1043217D01*
X333237Y1038445D01*
X321838Y1033392D01*
X310566Y1028061D01*
X299429Y1022455D01*
X288432Y1016577D01*
X277583Y1010431D01*
X266888Y1004021D01*
X256354Y997350D01*
X245987Y990423D01*
X235792Y983243D01*
X225777Y975816D01*
X215947Y968144D01*
X206309Y960234D01*
X196867Y952090D01*
X187629Y943716D01*
X178598Y935119D01*
X169781Y926302D01*
X161184Y917271D01*
X152810Y908033D01*
X144666Y898591D01*
X136756Y888953D01*
X129084Y879123D01*
X121657Y869108D01*
X114477Y858913D01*
X107550Y848546D01*
X100879Y838012D01*
X94469Y827317D01*
X88323Y816468D01*
X82445Y805471D01*
X76839Y794334D01*
X71508Y783062D01*
X66455Y771663D01*
X61683Y760143D01*
X57196Y748510D01*
X52995Y736770D01*
X49084Y724931D01*
X45465Y712999D01*
X42139Y700982D01*
X39109Y688886D01*
X36377Y676721D01*
X33945Y664491D01*
X31813Y652206D01*
X29984Y639872D01*
X28457Y627497D01*
X27235Y615088D01*
X26318Y602653D01*
X25706Y590199D01*
X25400Y577734D01*
X25400Y565266D01*
X25706Y552801D01*
X26318Y540347D01*
X27235Y527912D01*
X28457Y515503D01*
X29984Y503128D01*
X31813Y490794D01*
X33945Y478509D01*
X36377Y466280D01*
X39109Y454114D01*
X42139Y442019D01*
X45465Y430001D01*
X49084Y418069D01*
X52995Y406230D01*
X57196Y394490D01*
X61683Y382857D01*
X66455Y371337D01*
X71508Y359938D01*
X76839Y348666D01*
X82445Y337529D01*
X88323Y326532D01*
X94469Y315683D01*
X100879Y304988D01*
X107550Y294454D01*
X114477Y284087D01*
X121657Y273892D01*
X129084Y263877D01*
X136756Y254047D01*
X144666Y244409D01*
X152810Y234967D01*
X161184Y225729D01*
X169781Y216698D01*
X178598Y207881D01*
X187629Y199284D01*
X196867Y190910D01*
X206309Y182766D01*
X215947Y174856D01*
X225777Y167184D01*
X235792Y159757D01*
X245987Y152577D01*
X256354Y145650D01*
X266888Y138979D01*
X277583Y132569D01*
X288432Y126423D01*
X299429Y120545D01*
X310566Y114939D01*
X321838Y109608D01*
X333237Y104555D01*
X344757Y99783D01*
X356390Y95296D01*
X368130Y91095D01*
X379969Y87184D01*
X391901Y83565D01*
X403919Y80239D01*
X416014Y77209D01*
X428180Y74477D01*
X440409Y72045D01*
X452694Y69913D01*
X465028Y68084D01*
X477403Y66557D01*
X489812Y65335D01*
X502247Y64418D01*
X514701Y63806D01*
X527166Y63500D01*
X539634Y63500D01*
X552099Y63806D01*
X564553Y64418D01*
X576988Y65335D01*
X589397Y66557D01*
X601772Y68084D01*
X614106Y69913D01*
X626391Y72045D01*
X638621Y74477D01*
X650786Y77209D01*
X662882Y80239D01*
X674899Y83565D01*
X686831Y87184D01*
X698670Y91095D01*
X710410Y95296D01*
X722043Y99783D01*
X733563Y104555D01*
X744962Y109608D01*
X756234Y114939D01*
X767371Y120545D01*
X778368Y126423D01*
X789217Y132569D01*
X799912Y138979D01*
X810446Y145650D01*
X820813Y152577D01*
X831008Y159757D01*
X841023Y167184D01*
X850853Y174856D01*
X860491Y182766D01*
X869933Y190910D01*
X879171Y199284D01*
X888202Y207881D01*
X897019Y216698D01*
X905616Y225729D01*
X913990Y234967D01*
X922134Y244409D01*
X930044Y254047D01*
X937716Y263877D01*
X945143Y273892D01*
X952323Y284087D01*
X959250Y294454D01*
X965921Y304988D01*
X972331Y315683D01*
X978477Y326532D01*
X984355Y337529D01*
X989961Y348666D01*
X995292Y359938D01*
X1000345Y371337D01*
X1005117Y382857D01*
X1009604Y394490D01*
X1013805Y406230D01*
X1017716Y418069D01*
X1021335Y430001D01*
X1024661Y442019D01*
X1027691Y454114D01*
X1030423Y466280D01*
X1032855Y478509D01*
X1034987Y490794D01*
X1036816Y503128D01*
X1038343Y515503D01*
X1039565Y527912D01*
X1040482Y540347D01*
X1041094Y552801D01*
X1041400Y565266D01*
X516890Y784860D02*
X640080Y784860D01*
X640080Y830580D01*
X516890Y830580D01*
X516890Y784860D01*
X579191Y1015053D02*
X579191Y1016947D01*
X579112Y1018838D01*
X578956Y1020725D01*
X578722Y1022603D01*
X578410Y1024471D01*
X578022Y1026323D01*
X577557Y1028159D01*
X577017Y1029973D01*
X576402Y1031763D01*
X575714Y1033527D01*
X574954Y1035261D01*
X574122Y1036961D01*
X573221Y1038626D01*
X572252Y1040253D01*
X571217Y1041837D01*
X570117Y1043378D01*
X568954Y1044872D01*
X567730Y1046317D01*
X566448Y1047709D01*
X565109Y1049048D01*
X563717Y1050330D01*
X562272Y1051554D01*
X560778Y1052717D01*
X559237Y1053817D01*
X557653Y1054852D01*
X556026Y1055821D01*
X554361Y1056722D01*
X552661Y1057554D01*
X550927Y1058314D01*
X549163Y1059002D01*
X547373Y1059617D01*
X545559Y1060157D01*
X543723Y1060622D01*
X541871Y1061010D01*
X540003Y1061322D01*
X538125Y1061556D01*
X536238Y1061712D01*
X534347Y1061791D01*
X532453Y1061791D01*
X530562Y1061712D01*
X528675Y1061556D01*
X526797Y1061322D01*
X524930Y1061010D01*
X523077Y1060622D01*
X521242Y1060157D01*
X519427Y1059617D01*
X517637Y1059002D01*
X515873Y1058314D01*
X514139Y1057554D01*
X512439Y1056722D01*
X510774Y1055821D01*
X509147Y1054852D01*
X507563Y1053817D01*
X506022Y1052717D01*
X504528Y1051554D01*
X503083Y1050330D01*
X501691Y1049048D01*
X500352Y1047709D01*
X499070Y1046317D01*
X497846Y1044872D01*
X496683Y1043378D01*
X495583Y1041837D01*
X494548Y1040253D01*
X493579Y1038626D01*
X492678Y1036961D01*
X491847Y1035261D01*
X491086Y1033527D01*
X490398Y1031763D01*
X489783Y1029973D01*
X489243Y1028159D01*
X488778Y1026323D01*
X488390Y1024471D01*
X488078Y1022603D01*
X487844Y1020725D01*
X487688Y1018838D01*
X487610Y1016947D01*
X487610Y1015053D01*
X487688Y1013162D01*
X487844Y1011275D01*
X488078Y1009397D01*
X488390Y1007530D01*
X488778Y1005677D01*
X489243Y1003842D01*
X489783Y1002027D01*
X490398Y1000237D01*
X491086Y998473D01*
X491847Y996739D01*
X492678Y995039D01*
X493579Y993374D01*
X494548Y991747D01*
X495583Y990163D01*
X496683Y988622D01*
X497846Y987128D01*
X499070Y985683D01*
X500352Y984291D01*
X501691Y982952D01*
X503083Y981670D01*
X504528Y980446D01*
X506022Y979283D01*
X507563Y978183D01*
X509147Y977148D01*
X510774Y976179D01*
X512439Y975278D01*
X514139Y974447D01*
X515873Y973686D01*
X517637Y972998D01*
X519427Y972383D01*
X521242Y971843D01*
X523077Y971378D01*
X524930Y970990D01*
X526797Y970678D01*
X528675Y970444D01*
X530562Y970288D01*
X532453Y970210D01*
X534347Y970210D01*
X536238Y970288D01*
X538125Y970444D01*
X540003Y970678D01*
X541871Y970990D01*
X543723Y971378D01*
X545559Y971843D01*
X547373Y972383D01*
X549163Y972998D01*
X550927Y973686D01*
X552661Y974447D01*
X554361Y975278D01*
X556026Y976179D01*
X557653Y977148D01*
X559237Y978183D01*
X560778Y979283D01*
X562272Y980446D01*
X563717Y981670D01*
X565109Y982952D01*
X566448Y984291D01*
X567730Y985683D01*
X568954Y987128D01*
X570117Y988622D01*
X571217Y990163D01*
X572252Y991747D01*
X573221Y993374D01*
X574122Y995039D01*
X574954Y996739D01*
X575714Y998473D01*
X576402Y1000237D01*
X577017Y1002027D01*
X577557Y1003842D01*
X578022Y1005677D01*
X578410Y1007530D01*
X578722Y1009397D01*
X578956Y1011275D01*
X579112Y1013162D01*
X579191Y1015053D01*
X562610Y807079D02*
X562610Y808361D01*
X562538Y809642D01*
X562394Y810917D01*
X562180Y812182D01*
X561894Y813432D01*
X561539Y814665D01*
X561115Y815876D01*
X560624Y817061D01*
X560068Y818216D01*
X559447Y819339D01*
X558765Y820425D01*
X558023Y821472D01*
X557223Y822474D01*
X556368Y823431D01*
X555461Y824338D01*
X554504Y825193D01*
X553502Y825993D01*
X552455Y826735D01*
X551369Y827417D01*
X550246Y828038D01*
X549091Y828594D01*
X547906Y829085D01*
X546695Y829509D01*
X545462Y829864D01*
X544212Y830150D01*
X542947Y830364D01*
X541672Y830508D01*
X540391Y830580D01*
X539109Y830580D01*
X537828Y830508D01*
X536553Y830364D01*
X535288Y830150D01*
X534038Y829864D01*
X532805Y829509D01*
X531594Y829085D01*
X530409Y828594D01*
X529254Y828038D01*
X528131Y827417D01*
X527045Y826735D01*
X525998Y825993D01*
X524996Y825193D01*
X524039Y824338D01*
X523132Y823431D01*
X522277Y822474D01*
X521477Y821472D01*
X520735Y820425D01*
X520053Y819339D01*
X519432Y818216D01*
X518876Y817061D01*
X518385Y815876D01*
X517961Y814665D01*
X517606Y813432D01*
X517320Y812182D01*
X517106Y810917D01*
X516962Y809642D01*
X516890Y808361D01*
X516890Y807079D01*
X516962Y805798D01*
X517106Y804523D01*
X517320Y803258D01*
X517606Y802008D01*
X517961Y800775D01*
X518385Y799564D01*
X518876Y798379D01*
X519432Y797224D01*
X520053Y796101D01*
X520735Y795015D01*
X521477Y793968D01*
X522277Y792966D01*
X523132Y792009D01*
X524039Y791102D01*
X524996Y790247D01*
X525998Y789447D01*
X527045Y788705D01*
X528131Y788023D01*
X529254Y787402D01*
X530409Y786846D01*
X531594Y786355D01*
X532805Y785931D01*
X534038Y785576D01*
X535288Y785290D01*
X536553Y785076D01*
X537828Y784932D01*
X539109Y784860D01*
X540391Y784860D01*
X541672Y784932D01*
X542947Y785076D01*
X544212Y785290D01*
X545462Y785576D01*
X546695Y785931D01*
X547906Y786355D01*
X549091Y786846D01*
X550246Y787402D01*
X551369Y788023D01*
X552455Y788705D01*
X553502Y789447D01*
X554504Y790247D01*
X555461Y791102D01*
X556368Y792009D01*
X557223Y792966D01*
X558023Y793968D01*
X558765Y795015D01*
X559447Y796101D01*
X560068Y797224D01*
X560624Y798379D01*
X561115Y799564D01*
X561539Y800775D01*
X561894Y802008D01*
X562180Y803258D01*
X562394Y804523D01*
X562538Y805798D01*
X562610Y807079D01*
X640080Y807079D02*
X640080Y808361D01*
X640008Y809642D01*
X639864Y810917D01*
X639650Y812182D01*
X639364Y813432D01*
X639009Y814665D01*
X638585Y815876D01*
X638094Y817061D01*
X637538Y818216D01*
X636917Y819339D01*
X636235Y820425D01*
X635493Y821472D01*
X634693Y822474D01*
X633838Y823431D01*
X632931Y824338D01*
X631974Y825193D01*
X630972Y825993D01*
X629925Y826735D01*
X628839Y827417D01*
X627716Y828038D01*
X626561Y828594D01*
X625376Y829085D01*
X624165Y829509D01*
X622932Y829864D01*
X621682Y830150D01*
X620417Y830364D01*
X619142Y830508D01*
X617861Y830580D01*
X616579Y830580D01*
X615298Y830508D01*
X614023Y830364D01*
X612758Y830150D01*
X611508Y829864D01*
X610275Y829509D01*
X609064Y829085D01*
X607879Y828594D01*
X606724Y828038D01*
X605601Y827417D01*
X604515Y826735D01*
X603468Y825993D01*
X602466Y825193D01*
X601509Y824338D01*
X600602Y823431D01*
X599747Y822474D01*
X598947Y821472D01*
X598205Y820425D01*
X597523Y819339D01*
X596902Y818216D01*
X596346Y817061D01*
X595855Y815876D01*
X595431Y814665D01*
X595076Y813432D01*
X594790Y812182D01*
X594576Y810917D01*
X594432Y809642D01*
X594360Y808361D01*
X594360Y807079D01*
X594432Y805798D01*
X594576Y804523D01*
X594790Y803258D01*
X595076Y802008D01*
X595431Y800775D01*
X595855Y799564D01*
X596346Y798379D01*
X596902Y797224D01*
X597523Y796101D01*
X598205Y795015D01*
X598947Y793968D01*
X599747Y792966D01*
X600602Y792009D01*
X601509Y791102D01*
X602466Y790247D01*
X603468Y789447D01*
X604515Y788705D01*
X605601Y788023D01*
X606724Y787402D01*
X607879Y786846D01*
X609064Y786355D01*
X610275Y785931D01*
X611508Y785576D01*
X612758Y785290D01*
X614023Y785076D01*
X615298Y784932D01*
X616579Y784860D01*
X617861Y784860D01*
X619142Y784932D01*
X620417Y785076D01*
X621682Y785290D01*
X622932Y785576D01*
X624165Y785931D01*
X625376Y786355D01*
X626561Y786846D01*
X627716Y787402D01*
X628839Y788023D01*
X629925Y788705D01*
X630972Y789447D01*
X631974Y790247D01*
X632931Y791102D01*
X633838Y792009D01*
X634693Y792966D01*
X635493Y793968D01*
X636235Y795015D01*
X636917Y796101D01*
X637538Y797224D01*
X638094Y798379D01*
X638585Y799564D01*
X639009Y800775D01*
X639364Y802008D01*
X639650Y803258D01*
X639864Y804523D01*
X640008Y805798D01*
X640080Y807079D01*
X279411Y660395D02*
X279405Y660389D01*
X279395Y660389D01*
X279389Y660395D01*
X279389Y660405D01*
X279395Y660411D01*
X279405Y660411D01*
X279411Y660405D01*
X279411Y660395D01*
X787411Y368295D02*
X787405Y368289D01*
X787395Y368289D01*
X787389Y368295D01*
X787389Y368305D01*
X787395Y368311D01*
X787405Y368311D01*
X787411Y368305D01*
X787411Y368295D01*
X787411Y660395D02*
X787405Y660389D01*
X787395Y660389D01*
X787389Y660395D01*
X787389Y660405D01*
X787395Y660411D01*
X787405Y660411D01*
X787411Y660405D01*
X787411Y660395D01*
X279411Y368295D02*
X279405Y368289D01*
X279395Y368289D01*
X279389Y368295D01*
X279389Y368305D01*
X279395Y368311D01*
X279405Y368311D01*
X279411Y368305D01*
X279411Y368295D01*
X279411Y660395D02*
X279405Y660389D01*
X279395Y660389D01*
X279389Y660395D01*
X279389Y660405D01*
X279395Y660411D01*
X279405Y660411D01*
X279411Y660405D01*
X279411Y660395D01*
X787411Y368295D02*
X787405Y368289D01*
X787395Y368289D01*
X787389Y368295D01*
X787389Y368305D01*
X787395Y368311D01*
X787405Y368311D01*
X787411Y368305D01*
X787411Y368295D01*
X787411Y660395D02*
X787405Y660389D01*
X787395Y660389D01*
X787389Y660395D01*
X787389Y660405D01*
X787395Y660411D01*
X787405Y660411D01*
X787411Y660405D01*
X787411Y660395D01*
X279411Y368295D02*
X279405Y368289D01*
X279395Y368289D01*
X279389Y368295D01*
X279389Y368305D01*
X279395Y368311D01*
X279405Y368311D01*
X279411Y368305D01*
X279411Y368295D01*
X465200Y247807D02*
X465123Y247025D01*
X464970Y246254D01*
X464741Y245502D01*
X464441Y244775D01*
X464070Y244082D01*
X463633Y243429D01*
X463135Y242821D01*
X462579Y242265D01*
X461971Y241767D01*
X461318Y241330D01*
X460625Y240959D01*
X459898Y240659D01*
X459146Y240430D01*
X458375Y240277D01*
X457593Y240200D01*
X456807Y240200D01*
X456025Y240277D01*
X455254Y240430D01*
X454502Y240659D01*
X453775Y240959D01*
X453082Y241330D01*
X452429Y241767D01*
X451821Y242265D01*
X451265Y242821D01*
X450767Y243429D01*
X450330Y244082D01*
X449959Y244775D01*
X449659Y245502D01*
X449430Y246254D01*
X449277Y247025D01*
X449200Y247807D01*
X449200Y248593D01*
X449277Y249375D01*
X449430Y250146D01*
X449659Y250898D01*
X449959Y251625D01*
X450330Y252318D01*
X450767Y252971D01*
X451265Y253579D01*
X451821Y254135D01*
X452429Y254633D01*
X453082Y255070D01*
X453775Y255441D01*
X454502Y255741D01*
X455254Y255970D01*
X456025Y256123D01*
X456807Y256200D01*
X457593Y256200D01*
X458375Y256123D01*
X459146Y255970D01*
X459898Y255741D01*
X460625Y255441D01*
X461318Y255070D01*
X461971Y254633D01*
X462579Y254135D01*
X463135Y253579D01*
X463633Y252971D01*
X464070Y252318D01*
X464441Y251625D01*
X464741Y250898D01*
X464970Y250146D01*
X465123Y249375D01*
X465200Y248593D01*
X465200Y247807D01*
X465200Y157807D02*
X465123Y157025D01*
X464970Y156254D01*
X464741Y155502D01*
X464441Y154775D01*
X464070Y154082D01*
X463633Y153429D01*
X463135Y152821D01*
X462579Y152265D01*
X461971Y151767D01*
X461318Y151330D01*
X460625Y150959D01*
X459898Y150659D01*
X459146Y150430D01*
X458375Y150277D01*
X457593Y150200D01*
X456807Y150200D01*
X456025Y150277D01*
X455254Y150430D01*
X454502Y150659D01*
X453775Y150959D01*
X453082Y151330D01*
X452429Y151767D01*
X451821Y152265D01*
X451265Y152821D01*
X450767Y153429D01*
X450330Y154082D01*
X449959Y154775D01*
X449659Y155502D01*
X449430Y156254D01*
X449277Y157025D01*
X449200Y157807D01*
X449200Y158593D01*
X449277Y159375D01*
X449430Y160146D01*
X449659Y160898D01*
X449959Y161625D01*
X450330Y162318D01*
X450767Y162971D01*
X451265Y163579D01*
X451821Y164135D01*
X452429Y164633D01*
X453082Y165070D01*
X453775Y165441D01*
X454502Y165741D01*
X455254Y165970D01*
X456025Y166123D01*
X456807Y166200D01*
X457593Y166200D01*
X458375Y166123D01*
X459146Y165970D01*
X459898Y165741D01*
X460625Y165441D01*
X461318Y165070D01*
X461971Y164633D01*
X462579Y164135D01*
X463135Y163579D01*
X463633Y162971D01*
X464070Y162318D01*
X464441Y161625D01*
X464741Y160898D01*
X464970Y160146D01*
X465123Y159375D01*
X465200Y158593D01*
X465200Y157807D01*
X630300Y247807D02*
X630223Y247025D01*
X630070Y246254D01*
X629841Y245502D01*
X629541Y244775D01*
X629170Y244082D01*
X628733Y243429D01*
X628235Y242821D01*
X627679Y242265D01*
X627071Y241767D01*
X626418Y241330D01*
X625725Y240959D01*
X624998Y240659D01*
X624246Y240430D01*
X623475Y240277D01*
X622693Y240200D01*
X621907Y240200D01*
X621125Y240277D01*
X620354Y240430D01*
X619602Y240659D01*
X618875Y240959D01*
X618182Y241330D01*
X617529Y241767D01*
X616921Y242265D01*
X616365Y242821D01*
X615867Y243429D01*
X615430Y244082D01*
X615059Y244775D01*
X614759Y245502D01*
X614530Y246254D01*
X614377Y247025D01*
X614300Y247807D01*
X614300Y248593D01*
X614377Y249375D01*
X614530Y250146D01*
X614759Y250898D01*
X615059Y251625D01*
X615430Y252318D01*
X615867Y252971D01*
X616365Y253579D01*
X616921Y254135D01*
X617529Y254633D01*
X618182Y255070D01*
X618875Y255441D01*
X619602Y255741D01*
X620354Y255970D01*
X621125Y256123D01*
X621907Y256200D01*
X622693Y256200D01*
X623475Y256123D01*
X624246Y255970D01*
X624998Y255741D01*
X625725Y255441D01*
X626418Y255070D01*
X627071Y254633D01*
X627679Y254135D01*
X628235Y253579D01*
X628733Y252971D01*
X629170Y252318D01*
X629541Y251625D01*
X629841Y250898D01*
X630070Y250146D01*
X630223Y249375D01*
X630300Y248593D01*
X630300Y247807D01*
X630300Y157807D02*
X630223Y157025D01*
X630070Y156254D01*
X629841Y155502D01*
X629541Y154775D01*
X629170Y154082D01*
X628733Y153429D01*
X628235Y152821D01*
X627679Y152265D01*
X627071Y151767D01*
X626418Y151330D01*
X625725Y150959D01*
X624998Y150659D01*
X624246Y150430D01*
X623475Y150277D01*
X622693Y150200D01*
X621907Y150200D01*
X621125Y150277D01*
X620354Y150430D01*
X619602Y150659D01*
X618875Y150959D01*
X618182Y151330D01*
X617529Y151767D01*
X616921Y152265D01*
X616365Y152821D01*
X615867Y153429D01*
X615430Y154082D01*
X615059Y154775D01*
X614759Y155502D01*
X614530Y156254D01*
X614377Y157025D01*
X614300Y157807D01*
X614300Y158593D01*
X614377Y159375D01*
X614530Y160146D01*
X614759Y160898D01*
X615059Y161625D01*
X615430Y162318D01*
X615867Y162971D01*
X616365Y163579D01*
X616921Y164135D01*
X617529Y164633D01*
X618182Y165070D01*
X618875Y165441D01*
X619602Y165741D01*
X620354Y165970D01*
X621125Y166123D01*
X621907Y166200D01*
X622693Y166200D01*
X623475Y166123D01*
X624246Y165970D01*
X624998Y165741D01*
X625725Y165441D01*
X626418Y165070D01*
X627071Y164633D01*
X627679Y164135D01*
X628235Y163579D01*
X628733Y162971D01*
X629170Y162318D01*
X629541Y161625D01*
X629841Y160898D01*
X630070Y160146D01*
X630223Y159375D01*
X630300Y158593D01*
X630300Y157807D01*
X300100Y285907D02*
X300023Y285125D01*
X299870Y284354D01*
X299641Y283602D01*
X299341Y282875D01*
X298970Y282182D01*
X298533Y281529D01*
X298035Y280921D01*
X297479Y280365D01*
X296871Y279867D01*
X296218Y279430D01*
X295525Y279059D01*
X294798Y278759D01*
X294046Y278530D01*
X293275Y278377D01*
X292493Y278300D01*
X291707Y278300D01*
X290925Y278377D01*
X290154Y278530D01*
X289402Y278759D01*
X288675Y279059D01*
X287982Y279430D01*
X287329Y279867D01*
X286721Y280365D01*
X286165Y280921D01*
X285667Y281529D01*
X285230Y282182D01*
X284859Y282875D01*
X284559Y283602D01*
X284330Y284354D01*
X284177Y285125D01*
X284100Y285907D01*
X284100Y286693D01*
X284177Y287475D01*
X284330Y288246D01*
X284559Y288998D01*
X284859Y289725D01*
X285230Y290418D01*
X285667Y291071D01*
X286165Y291679D01*
X286721Y292235D01*
X287329Y292733D01*
X287982Y293170D01*
X288675Y293541D01*
X289402Y293841D01*
X290154Y294070D01*
X290925Y294223D01*
X291707Y294300D01*
X292493Y294300D01*
X293275Y294223D01*
X294046Y294070D01*
X294798Y293841D01*
X295525Y293541D01*
X296218Y293170D01*
X296871Y292733D01*
X297479Y292235D01*
X298035Y291679D01*
X298533Y291071D01*
X298970Y290418D01*
X299341Y289725D01*
X299641Y288998D01*
X299870Y288246D01*
X300023Y287475D01*
X300100Y286693D01*
X300100Y285907D01*
X300100Y195907D02*
X300023Y195125D01*
X299870Y194354D01*
X299641Y193602D01*
X299341Y192875D01*
X298970Y192182D01*
X298533Y191529D01*
X298035Y190921D01*
X297479Y190365D01*
X296871Y189867D01*
X296218Y189430D01*
X295525Y189059D01*
X294798Y188759D01*
X294046Y188530D01*
X293275Y188377D01*
X292493Y188300D01*
X291707Y188300D01*
X290925Y188377D01*
X290154Y188530D01*
X289402Y188759D01*
X288675Y189059D01*
X287982Y189430D01*
X287329Y189867D01*
X286721Y190365D01*
X286165Y190921D01*
X285667Y191529D01*
X285230Y192182D01*
X284859Y192875D01*
X284559Y193602D01*
X284330Y194354D01*
X284177Y195125D01*
X284100Y195907D01*
X284100Y196693D01*
X284177Y197475D01*
X284330Y198246D01*
X284559Y198998D01*
X284859Y199725D01*
X285230Y200418D01*
X285667Y201071D01*
X286165Y201679D01*
X286721Y202235D01*
X287329Y202733D01*
X287982Y203170D01*
X288675Y203541D01*
X289402Y203841D01*
X290154Y204070D01*
X290925Y204223D01*
X291707Y204300D01*
X292493Y204300D01*
X293275Y204223D01*
X294046Y204070D01*
X294798Y203841D01*
X295525Y203541D01*
X296218Y203170D01*
X296871Y202733D01*
X297479Y202235D01*
X298035Y201679D01*
X298533Y201071D01*
X298970Y200418D01*
X299341Y199725D01*
X299641Y198998D01*
X299870Y198246D01*
X300023Y197475D01*
X300100Y196693D01*
X300100Y195907D01*
X795400Y285907D02*
X795323Y285125D01*
X795170Y284354D01*
X794941Y283602D01*
X794641Y282875D01*
X794270Y282182D01*
X793833Y281529D01*
X793335Y280921D01*
X792779Y280365D01*
X792171Y279867D01*
X791518Y279430D01*
X790825Y279059D01*
X790098Y278759D01*
X789346Y278530D01*
X788575Y278377D01*
X787793Y278300D01*
X787007Y278300D01*
X786225Y278377D01*
X785454Y278530D01*
X784702Y278759D01*
X783975Y279059D01*
X783282Y279430D01*
X782629Y279867D01*
X782021Y280365D01*
X781465Y280921D01*
X780967Y281529D01*
X780530Y282182D01*
X780159Y282875D01*
X779859Y283602D01*
X779630Y284354D01*
X779477Y285125D01*
X779400Y285907D01*
X779400Y286693D01*
X779477Y287475D01*
X779630Y288246D01*
X779859Y288998D01*
X780159Y289725D01*
X780530Y290418D01*
X780967Y291071D01*
X781465Y291679D01*
X782021Y292235D01*
X782629Y292733D01*
X783282Y293170D01*
X783975Y293541D01*
X784702Y293841D01*
X785454Y294070D01*
X786225Y294223D01*
X787007Y294300D01*
X787793Y294300D01*
X788575Y294223D01*
X789346Y294070D01*
X790098Y293841D01*
X790825Y293541D01*
X791518Y293170D01*
X792171Y292733D01*
X792779Y292235D01*
X793335Y291679D01*
X793833Y291071D01*
X794270Y290418D01*
X794641Y289725D01*
X794941Y288998D01*
X795170Y288246D01*
X795323Y287475D01*
X795400Y286693D01*
X795400Y285907D01*
X795400Y195907D02*
X795323Y195125D01*
X795170Y194354D01*
X794941Y193602D01*
X794641Y192875D01*
X794270Y192182D01*
X793833Y191529D01*
X793335Y190921D01*
X792779Y190365D01*
X792171Y189867D01*
X791518Y189430D01*
X790825Y189059D01*
X790098Y188759D01*
X789346Y188530D01*
X788575Y188377D01*
X787793Y188300D01*
X787007Y188300D01*
X786225Y188377D01*
X785454Y188530D01*
X784702Y188759D01*
X783975Y189059D01*
X783282Y189430D01*
X782629Y189867D01*
X782021Y190365D01*
X781465Y190921D01*
X780967Y191529D01*
X780530Y192182D01*
X780159Y192875D01*
X779859Y193602D01*
X779630Y194354D01*
X779477Y195125D01*
X779400Y195907D01*
X779400Y196693D01*
X779477Y197475D01*
X779630Y198246D01*
X779859Y198998D01*
X780159Y199725D01*
X780530Y200418D01*
X780967Y201071D01*
X781465Y201679D01*
X782021Y202235D01*
X782629Y202733D01*
X783282Y203170D01*
X783975Y203541D01*
X784702Y203841D01*
X785454Y204070D01*
X786225Y204223D01*
X787007Y204300D01*
X787793Y204300D01*
X788575Y204223D01*
X789346Y204070D01*
X790098Y203841D01*
X790825Y203541D01*
X791518Y203170D01*
X792171Y202733D01*
X792779Y202235D01*
X793335Y201679D01*
X793833Y201071D01*
X794270Y200418D01*
X794641Y199725D01*
X794941Y198998D01*
X795170Y198246D01*
X795323Y197475D01*
X795400Y196693D01*
X795400Y195907D01*
X130213Y544010D02*
X129823Y543710D01*
X129397Y543465D01*
X128943Y543276D01*
X128468Y543149D01*
X127981Y543085D01*
X127489Y543085D01*
X127002Y543149D01*
X126527Y543276D01*
X126073Y543465D01*
X125647Y543710D01*
X125257Y544010D01*
X124910Y544357D01*
X124610Y544747D01*
X124365Y545173D01*
X124176Y545627D01*
X124049Y546102D01*
X123985Y546589D01*
X123985Y547081D01*
X124049Y547568D01*
X124176Y548043D01*
X124365Y548497D01*
X124610Y548923D01*
X124910Y549313D01*
X125257Y549660D01*
X125647Y549960D01*
X126073Y550206D01*
X126527Y550394D01*
X127002Y550521D01*
X127489Y550585D01*
X127981Y550585D01*
X128468Y550521D01*
X128943Y550394D01*
X129397Y550206D01*
X129823Y549960D01*
X130213Y549660D01*
X130560Y549313D01*
X130860Y548923D01*
X131106Y548497D01*
X131294Y548043D01*
X131421Y547568D01*
X131485Y547081D01*
X131485Y546589D01*
X131421Y546102D01*
X131294Y545627D01*
X131106Y545173D01*
X130860Y544747D01*
X130560Y544357D01*
X130213Y544010D01*
X104369Y516044D02*
X103908Y515677D01*
X103408Y515363D01*
X102877Y515107D01*
X102321Y514912D01*
X101746Y514781D01*
X101160Y514715D01*
X100570Y514715D01*
X99984Y514781D01*
X99409Y514912D01*
X98853Y515107D01*
X98321Y515363D01*
X97822Y515677D01*
X97361Y516044D01*
X96944Y516461D01*
X96577Y516922D01*
X96263Y517421D01*
X96007Y517953D01*
X95812Y518509D01*
X95681Y519084D01*
X95615Y519670D01*
X95615Y520260D01*
X95681Y520846D01*
X95812Y521421D01*
X96007Y521977D01*
X96263Y522508D01*
X96577Y523008D01*
X96944Y523469D01*
X97361Y523886D01*
X97822Y524253D01*
X98321Y524567D01*
X98853Y524823D01*
X99409Y525018D01*
X99984Y525149D01*
X100570Y525215D01*
X101160Y525215D01*
X101746Y525149D01*
X102321Y525018D01*
X102877Y524823D01*
X103408Y524567D01*
X103908Y524253D01*
X104369Y523886D01*
X104786Y523469D01*
X105153Y523008D01*
X105467Y522508D01*
X105723Y521977D01*
X105918Y521421D01*
X106049Y520846D01*
X106115Y520260D01*
X106115Y519670D01*
X106049Y519084D01*
X105918Y518509D01*
X105723Y517953D01*
X105467Y517421D01*
X105153Y516922D01*
X104786Y516461D01*
X104369Y516044D01*
M02*
