G04 EAGLE Gerber X2 export*
%TF.Part,Single*%
%TF.FileFunction,Legend,Bot,1*%
%TF.FilePolarity,Positive*%
%TF.GenerationSoftware,Autodesk,EAGLE,9.0.0*%
%TF.CreationDate,2018-05-04T20:30:49Z*%
G75*
%MOMM*%
%FSLAX34Y34*%
%LPD*%
%AMOC8*
5,1,8,0,0,1.08239X$1,22.5*%
G01*
%ADD10C,0.685800*%
%ADD11C,0.152400*%
%ADD12C,0.127000*%
%ADD13C,0.300000*%
%ADD14C,0.228600*%
%ADD15C,0.076200*%
%ADD16R,0.050000X0.060000*%
%ADD17R,0.060000X0.060000*%
%ADD18R,0.050000X0.110000*%
%ADD19R,0.060000X0.160000*%
%ADD20R,0.050000X0.160000*%
%ADD21R,0.050000X0.280000*%
%ADD22R,0.060000X0.280000*%
%ADD23R,0.060000X0.380000*%
%ADD24R,0.050000X0.380000*%
%ADD25R,0.050000X0.430000*%
%ADD26R,0.060000X0.480000*%
%ADD27R,0.050000X0.480000*%
%ADD28R,0.060000X0.600000*%
%ADD29R,0.050000X0.600000*%
%ADD30R,0.060000X0.700000*%
%ADD31R,0.050000X0.700000*%
%ADD32R,0.050000X0.760000*%
%ADD33R,0.060000X0.820000*%
%ADD34R,0.050000X0.820000*%
%ADD35R,0.060000X0.870000*%
%ADD36R,0.050000X0.920000*%
%ADD37R,0.060000X0.920000*%
%ADD38R,0.050000X0.980000*%
%ADD39R,0.060000X1.040000*%
%ADD40R,0.050000X1.040000*%
%ADD41R,0.050000X1.090000*%
%ADD42R,0.060000X1.140000*%
%ADD43R,0.050000X1.140000*%
%ADD44R,0.060000X1.190000*%
%ADD45R,0.050000X1.240000*%
%ADD46R,0.060000X1.240000*%
%ADD47R,0.060000X1.300000*%
%ADD48R,0.050000X1.360000*%
%ADD49R,0.060000X1.360000*%
%ADD50R,0.060000X0.050000*%
%ADD51R,0.060000X1.410000*%
%ADD52R,0.050000X0.220000*%
%ADD53R,0.050000X1.460000*%
%ADD54R,0.050000X0.210000*%
%ADD55R,0.050000X0.270000*%
%ADD56R,0.060000X0.320000*%
%ADD57R,0.060000X1.460000*%
%ADD58R,0.060000X0.270000*%
%ADD59R,0.060000X1.580000*%
%ADD60R,0.060000X0.440000*%
%ADD61R,0.050000X0.490000*%
%ADD62R,0.050000X1.580000*%
%ADD63R,0.060000X0.490000*%
%ADD64R,0.060000X0.540000*%
%ADD65R,0.050000X0.550000*%
%ADD66R,0.050000X1.680000*%
%ADD67R,0.050000X0.590000*%
%ADD68R,0.060000X0.650000*%
%ADD69R,0.060000X1.680000*%
%ADD70R,0.050000X0.710000*%
%ADD71R,0.060000X0.760000*%
%ADD72R,0.050000X1.740000*%
%ADD73R,0.050000X0.810000*%
%ADD74R,0.060000X0.860000*%
%ADD75R,0.060000X1.800000*%
%ADD76R,0.060000X0.810000*%
%ADD77R,0.050000X0.870000*%
%ADD78R,0.050000X1.800000*%
%ADD79R,0.050000X0.930000*%
%ADD80R,0.060000X1.850000*%
%ADD81R,0.060000X0.980000*%
%ADD82R,0.050000X1.030000*%
%ADD83R,0.050000X1.850000*%
%ADD84R,0.060000X1.900000*%
%ADD85R,0.060000X1.090000*%
%ADD86R,0.050000X1.900000*%
%ADD87R,0.050000X1.080000*%
%ADD88R,0.050000X1.200000*%
%ADD89R,0.050000X1.950000*%
%ADD90R,0.050000X1.250000*%
%ADD91R,0.050000X1.310000*%
%ADD92R,0.060000X2.000000*%
%ADD93R,0.060000X1.350000*%
%ADD94R,0.050000X2.000000*%
%ADD95R,0.060000X1.420000*%
%ADD96R,0.050000X1.470000*%
%ADD97R,0.050000X2.060000*%
%ADD98R,0.060000X2.120000*%
%ADD99R,0.060000X1.520000*%
%ADD100R,0.050000X1.570000*%
%ADD101R,0.050000X2.120000*%
%ADD102R,0.050000X1.520000*%
%ADD103R,0.050000X1.630000*%
%ADD104R,0.060000X1.740000*%
%ADD105R,0.060000X2.170000*%
%ADD106R,0.050000X2.170000*%
%ADD107R,0.050000X1.690000*%
%ADD108R,0.060000X1.790000*%
%ADD109R,0.060000X2.220000*%
%ADD110R,0.050000X2.220000*%
%ADD111R,0.050000X1.790000*%
%ADD112R,0.050000X2.280000*%
%ADD113R,0.050000X1.960000*%
%ADD114R,0.060000X2.010000*%
%ADD115R,0.060000X2.280000*%
%ADD116R,0.060000X1.960000*%
%ADD117R,0.050000X2.010000*%
%ADD118R,0.050000X2.340000*%
%ADD119R,0.060000X2.340000*%
%ADD120R,0.050000X2.180000*%
%ADD121R,0.050000X2.390000*%
%ADD122R,0.060000X2.390000*%
%ADD123R,0.050000X2.440000*%
%ADD124R,0.050000X2.230000*%
%ADD125R,0.060000X2.440000*%
%ADD126R,0.050000X2.500000*%
%ADD127R,0.050000X2.330000*%
%ADD128R,0.050000X2.550000*%
%ADD129R,0.060000X2.560000*%
%ADD130R,0.050000X2.670000*%
%ADD131R,0.050000X2.610000*%
%ADD132R,0.060000X2.660000*%
%ADD133R,0.060000X2.610000*%
%ADD134R,0.050000X2.720000*%
%ADD135R,0.050000X2.770000*%
%ADD136R,0.050000X1.190000*%
%ADD137R,0.060000X2.820000*%
%ADD138R,0.060000X2.770000*%
%ADD139R,0.050000X2.880000*%
%ADD140R,0.060000X2.880000*%
%ADD141R,0.050000X2.980000*%
%ADD142R,0.060000X2.990000*%
%ADD143R,0.050000X3.100000*%
%ADD144R,0.050000X3.040000*%
%ADD145R,0.050000X3.090000*%
%ADD146R,0.060000X3.150000*%
%ADD147R,0.050000X3.200000*%
%ADD148R,0.050000X3.150000*%
%ADD149R,0.060000X3.260000*%
%ADD150R,0.050000X3.310000*%
%ADD151R,0.060000X3.370000*%
%ADD152R,0.060000X3.320000*%
%ADD153R,0.050000X3.420000*%
%ADD154R,0.060000X3.470000*%
%ADD155R,0.060000X3.480000*%
%ADD156R,0.050000X3.530000*%
%ADD157R,0.050000X3.470000*%
%ADD158R,0.060000X3.580000*%
%ADD159R,0.050000X3.630000*%
%ADD160R,0.050000X3.580000*%
%ADD161R,0.060000X3.690000*%
%ADD162R,0.050000X3.700000*%
%ADD163R,0.050000X3.810000*%
%ADD164R,0.050000X3.750000*%
%ADD165R,0.060000X3.800000*%
%ADD166R,0.050000X3.910000*%
%ADD167R,0.050000X3.860000*%
%ADD168R,0.060000X3.910000*%
%ADD169R,0.060000X3.850000*%
%ADD170R,0.050000X3.960000*%
%ADD171R,0.060000X4.020000*%
%ADD172R,0.060000X3.970000*%
%ADD173R,0.050000X4.080000*%
%ADD174R,0.060000X4.120000*%
%ADD175R,0.050000X4.180000*%
%ADD176R,0.050000X4.240000*%
%ADD177R,0.060000X4.240000*%
%ADD178R,0.060000X4.300000*%
%ADD179R,0.050000X4.350000*%
%ADD180R,0.050000X4.290000*%
%ADD181R,0.060000X4.400000*%
%ADD182R,0.050000X4.450000*%
%ADD183R,0.050000X4.400000*%
%ADD184R,0.060000X8.800000*%
%ADD185R,0.050000X8.740000*%
%ADD186R,0.050000X8.690000*%
%ADD187R,0.060000X8.580000*%
%ADD188R,0.050000X8.520000*%
%ADD189R,0.060000X8.470000*%
%ADD190R,0.050000X8.420000*%
%ADD191R,0.060000X8.320000*%
%ADD192R,0.050000X8.260000*%
%ADD193R,0.050000X8.200000*%
%ADD194R,0.060000X8.100000*%
%ADD195R,0.050000X8.040000*%
%ADD196R,0.060000X7.980000*%
%ADD197R,0.050000X7.930000*%
%ADD198R,0.060000X7.820000*%
%ADD199R,0.050000X7.760000*%
%ADD200R,0.050000X7.710000*%
%ADD201R,0.060000X7.610000*%
%ADD202R,0.050000X7.560000*%
%ADD203R,0.060000X7.440000*%
%ADD204R,0.050000X7.440000*%
%ADD205R,0.060000X7.340000*%
%ADD206R,0.050000X7.280000*%
%ADD207R,0.050000X7.170000*%
%ADD208R,0.060000X7.120000*%
%ADD209R,0.050000X7.060000*%
%ADD210R,0.060000X7.000000*%
%ADD211R,0.050000X0.320000*%
%ADD212R,0.050000X6.900000*%
%ADD213R,0.060000X0.590000*%
%ADD214R,0.060000X6.850000*%
%ADD215R,0.050000X6.800000*%
%ADD216R,0.060000X6.680000*%
%ADD217R,0.050000X6.630000*%
%ADD218R,0.050000X6.580000*%
%ADD219R,0.060000X6.460000*%
%ADD220R,0.060000X2.060000*%
%ADD221R,0.050000X6.410000*%
%ADD222R,0.060000X6.360000*%
%ADD223R,0.050000X2.830000*%
%ADD224R,0.050000X6.240000*%
%ADD225R,0.060000X3.100000*%
%ADD226R,0.060000X6.190000*%
%ADD227R,0.050000X6.140000*%
%ADD228R,0.050000X3.690000*%
%ADD229R,0.050000X6.080000*%
%ADD230R,0.060000X6.020000*%
%ADD231R,0.050000X5.920000*%
%ADD232R,0.060000X4.560000*%
%ADD233R,0.060000X5.870000*%
%ADD234R,0.050000X4.840000*%
%ADD235R,0.050000X5.820000*%
%ADD236R,0.060000X5.110000*%
%ADD237R,0.060000X5.700000*%
%ADD238R,0.060000X5.160000*%
%ADD239R,0.050000X5.430000*%
%ADD240R,0.050000X5.650000*%
%ADD241R,0.050000X5.710000*%
%ADD242R,0.050000X5.600000*%
%ADD243R,0.060000X5.980000*%
%ADD244R,0.060000X5.540000*%
%ADD245R,0.060000X6.030000*%
%ADD246R,0.050000X6.250000*%
%ADD247R,0.050000X5.480000*%
%ADD248R,0.050000X6.300000*%
%ADD249R,0.060000X5.380000*%
%ADD250R,0.060000X6.510000*%
%ADD251R,0.050000X5.380000*%
%ADD252R,0.060000X5.760000*%
%ADD253R,0.060000X5.100000*%
%ADD254R,0.060000X4.510000*%
%ADD255R,0.050000X5.970000*%
%ADD256R,0.050000X4.230000*%
%ADD257R,0.050000X3.640000*%
%ADD258R,0.050000X3.360000*%
%ADD259R,0.060000X3.040000*%
%ADD260R,0.060000X1.950000*%
%ADD261R,0.060000X1.080000*%
%ADD262R,0.050000X7.220000*%
%ADD263R,0.060000X7.500000*%
%ADD264R,0.060000X7.660000*%
%ADD265R,0.060000X7.880000*%
%ADD266R,0.060000X8.640000*%
%ADD267R,0.060000X8.860000*%
%ADD268R,0.060000X4.340000*%
%ADD269R,0.050000X4.300000*%
%ADD270R,0.060000X4.290000*%
%ADD271R,0.050000X4.130000*%
%ADD272R,0.060000X4.070000*%
%ADD273R,0.050000X4.020000*%
%ADD274R,0.060000X3.640000*%
%ADD275R,0.060000X3.530000*%
%ADD276R,0.060000X3.420000*%
%ADD277R,0.050000X3.370000*%
%ADD278R,0.060000X3.310000*%
%ADD279R,0.050000X3.320000*%
%ADD280R,0.050000X3.260000*%
%ADD281R,0.060000X3.210000*%
%ADD282R,0.060000X2.980000*%
%ADD283R,0.050000X2.930000*%
%ADD284R,0.050000X2.710000*%
%ADD285R,0.050000X1.410000*%
%ADD286R,0.060000X2.500000*%
%ADD287R,0.060000X2.230000*%
%ADD288R,0.050000X2.070000*%
%ADD289R,0.060000X1.910000*%
%ADD290R,0.060000X1.840000*%
%ADD291R,0.060000X1.690000*%
%ADD292R,0.060000X1.630000*%
%ADD293R,0.060000X1.530000*%
%ADD294R,0.060000X1.470000*%
%ADD295R,0.050000X1.420000*%
%ADD296R,0.050000X1.350000*%
%ADD297R,0.060000X1.030000*%
%ADD298R,0.060000X0.710000*%
%ADD299R,0.050000X0.650000*%
%ADD300R,0.050000X0.540000*%
%ADD301R,0.060000X0.430000*%
%ADD302R,0.050000X0.440000*%
%ADD303R,0.050000X0.330000*%


D10*
X681069Y592709D02*
X681069Y623951D01*
X672391Y623951D01*
X672178Y623948D01*
X671965Y623941D01*
X671753Y623927D01*
X671540Y623909D01*
X671329Y623886D01*
X671118Y623857D01*
X670907Y623823D01*
X670698Y623784D01*
X670490Y623740D01*
X670282Y623691D01*
X670076Y623637D01*
X669872Y623577D01*
X669669Y623513D01*
X669467Y623444D01*
X669268Y623370D01*
X669070Y623290D01*
X668874Y623207D01*
X668681Y623118D01*
X668489Y623024D01*
X668300Y622926D01*
X668114Y622824D01*
X667930Y622716D01*
X667748Y622605D01*
X667570Y622488D01*
X667394Y622368D01*
X667222Y622243D01*
X667052Y622114D01*
X666886Y621981D01*
X666723Y621844D01*
X666563Y621703D01*
X666407Y621558D01*
X666255Y621409D01*
X666106Y621257D01*
X665961Y621101D01*
X665820Y620941D01*
X665683Y620778D01*
X665550Y620612D01*
X665421Y620442D01*
X665296Y620270D01*
X665176Y620094D01*
X665059Y619916D01*
X664948Y619734D01*
X664840Y619550D01*
X664738Y619364D01*
X664640Y619175D01*
X664546Y618983D01*
X664457Y618790D01*
X664374Y618594D01*
X664294Y618396D01*
X664220Y618197D01*
X664151Y617995D01*
X664087Y617792D01*
X664027Y617588D01*
X663973Y617382D01*
X663924Y617174D01*
X663880Y616966D01*
X663841Y616757D01*
X663807Y616546D01*
X663778Y616335D01*
X663755Y616124D01*
X663737Y615911D01*
X663723Y615699D01*
X663716Y615486D01*
X663713Y615273D01*
X663713Y601387D01*
X663716Y601177D01*
X663723Y600968D01*
X663736Y600758D01*
X663754Y600549D01*
X663776Y600341D01*
X663804Y600133D01*
X663837Y599926D01*
X663875Y599720D01*
X663917Y599514D01*
X663965Y599310D01*
X664018Y599107D01*
X664075Y598906D01*
X664138Y598705D01*
X664205Y598507D01*
X664277Y598310D01*
X664354Y598115D01*
X664435Y597921D01*
X664521Y597730D01*
X664612Y597541D01*
X664707Y597354D01*
X664807Y597170D01*
X664911Y596988D01*
X665019Y596808D01*
X665132Y596631D01*
X665249Y596457D01*
X665370Y596286D01*
X665496Y596118D01*
X665625Y595953D01*
X665758Y595791D01*
X665895Y595632D01*
X666036Y595477D01*
X666181Y595325D01*
X666329Y595177D01*
X666481Y595032D01*
X666636Y594891D01*
X666795Y594754D01*
X666957Y594621D01*
X667122Y594492D01*
X667290Y594366D01*
X667461Y594245D01*
X667635Y594128D01*
X667812Y594015D01*
X667992Y593907D01*
X668174Y593803D01*
X668358Y593703D01*
X668545Y593608D01*
X668734Y593517D01*
X668925Y593431D01*
X669119Y593350D01*
X669314Y593273D01*
X669511Y593201D01*
X669709Y593134D01*
X669910Y593071D01*
X670111Y593014D01*
X670314Y592961D01*
X670518Y592913D01*
X670724Y592871D01*
X670930Y592833D01*
X671137Y592800D01*
X671345Y592772D01*
X671553Y592750D01*
X671762Y592732D01*
X671972Y592719D01*
X672181Y592712D01*
X672391Y592709D01*
X681069Y592709D01*
X646504Y592709D02*
X637826Y592709D01*
X646504Y592709D02*
X646647Y592711D01*
X646791Y592717D01*
X646934Y592727D01*
X647077Y592741D01*
X647219Y592758D01*
X647361Y592780D01*
X647502Y592806D01*
X647643Y592835D01*
X647782Y592868D01*
X647921Y592905D01*
X648058Y592946D01*
X648195Y592991D01*
X648330Y593040D01*
X648463Y593092D01*
X648596Y593148D01*
X648726Y593207D01*
X648855Y593270D01*
X648982Y593337D01*
X649108Y593407D01*
X649231Y593480D01*
X649352Y593557D01*
X649471Y593637D01*
X649588Y593720D01*
X649702Y593807D01*
X649814Y593897D01*
X649924Y593989D01*
X650031Y594085D01*
X650135Y594184D01*
X650236Y594285D01*
X650335Y594389D01*
X650431Y594496D01*
X650523Y594606D01*
X650613Y594718D01*
X650700Y594832D01*
X650783Y594949D01*
X650863Y595068D01*
X650940Y595189D01*
X651013Y595313D01*
X651083Y595438D01*
X651150Y595565D01*
X651213Y595694D01*
X651272Y595824D01*
X651328Y595957D01*
X651380Y596090D01*
X651429Y596225D01*
X651474Y596362D01*
X651515Y596499D01*
X651552Y596638D01*
X651585Y596777D01*
X651614Y596918D01*
X651640Y597059D01*
X651662Y597201D01*
X651679Y597343D01*
X651693Y597486D01*
X651703Y597629D01*
X651709Y597773D01*
X651711Y597916D01*
X651711Y606594D01*
X651709Y606763D01*
X651703Y606932D01*
X651692Y607101D01*
X651678Y607269D01*
X651660Y607437D01*
X651637Y607605D01*
X651610Y607772D01*
X651580Y607938D01*
X651545Y608104D01*
X651506Y608268D01*
X651463Y608432D01*
X651417Y608594D01*
X651366Y608756D01*
X651311Y608916D01*
X651253Y609074D01*
X651191Y609231D01*
X651124Y609387D01*
X651055Y609541D01*
X650981Y609693D01*
X650904Y609844D01*
X650823Y609992D01*
X650738Y610138D01*
X650650Y610283D01*
X650558Y610425D01*
X650463Y610565D01*
X650365Y610702D01*
X650263Y610837D01*
X650158Y610970D01*
X650050Y611100D01*
X649939Y611227D01*
X649825Y611352D01*
X649707Y611473D01*
X649587Y611592D01*
X649464Y611708D01*
X649338Y611821D01*
X649209Y611931D01*
X649078Y612037D01*
X648944Y612141D01*
X648808Y612241D01*
X648669Y612337D01*
X648528Y612431D01*
X648385Y612520D01*
X648240Y612607D01*
X648092Y612690D01*
X647943Y612769D01*
X647791Y612844D01*
X647638Y612916D01*
X647483Y612984D01*
X647327Y613048D01*
X647169Y613109D01*
X647010Y613165D01*
X646849Y613218D01*
X646687Y613266D01*
X646524Y613311D01*
X646360Y613352D01*
X646195Y613389D01*
X646029Y613422D01*
X645862Y613450D01*
X645695Y613475D01*
X645527Y613495D01*
X645359Y613512D01*
X645190Y613524D01*
X645022Y613532D01*
X644853Y613536D01*
X644683Y613536D01*
X644514Y613532D01*
X644346Y613524D01*
X644177Y613512D01*
X644009Y613495D01*
X643841Y613475D01*
X643674Y613450D01*
X643507Y613422D01*
X643341Y613389D01*
X643176Y613352D01*
X643012Y613311D01*
X642849Y613266D01*
X642687Y613218D01*
X642526Y613165D01*
X642367Y613109D01*
X642209Y613048D01*
X642053Y612984D01*
X641898Y612916D01*
X641745Y612844D01*
X641593Y612769D01*
X641444Y612690D01*
X641297Y612607D01*
X641151Y612520D01*
X641008Y612431D01*
X640867Y612337D01*
X640728Y612241D01*
X640592Y612141D01*
X640458Y612037D01*
X640327Y611931D01*
X640198Y611821D01*
X640072Y611708D01*
X639949Y611592D01*
X639829Y611473D01*
X639711Y611352D01*
X639597Y611227D01*
X639486Y611100D01*
X639378Y610970D01*
X639273Y610837D01*
X639171Y610702D01*
X639073Y610565D01*
X638978Y610425D01*
X638886Y610283D01*
X638798Y610138D01*
X638713Y609992D01*
X638632Y609844D01*
X638555Y609693D01*
X638481Y609541D01*
X638412Y609387D01*
X638345Y609231D01*
X638283Y609074D01*
X638225Y608916D01*
X638170Y608756D01*
X638119Y608594D01*
X638073Y608432D01*
X638030Y608268D01*
X637991Y608104D01*
X637956Y607938D01*
X637926Y607772D01*
X637899Y607605D01*
X637876Y607437D01*
X637858Y607269D01*
X637844Y607101D01*
X637833Y606932D01*
X637827Y606763D01*
X637825Y606594D01*
X637826Y606594D02*
X637826Y603123D01*
X651711Y603123D01*
X624343Y604859D02*
X615664Y601387D01*
X624342Y604859D02*
X624465Y604910D01*
X624586Y604965D01*
X624705Y605023D01*
X624823Y605085D01*
X624939Y605150D01*
X625052Y605219D01*
X625164Y605291D01*
X625274Y605366D01*
X625381Y605444D01*
X625486Y605526D01*
X625588Y605611D01*
X625688Y605698D01*
X625785Y605789D01*
X625880Y605882D01*
X625972Y605978D01*
X626060Y606077D01*
X626146Y606178D01*
X626229Y606282D01*
X626309Y606388D01*
X626386Y606497D01*
X626459Y606608D01*
X626529Y606721D01*
X626596Y606835D01*
X626659Y606952D01*
X626719Y607071D01*
X626775Y607191D01*
X626828Y607313D01*
X626877Y607437D01*
X626922Y607562D01*
X626964Y607688D01*
X627002Y607815D01*
X627036Y607943D01*
X627066Y608073D01*
X627093Y608203D01*
X627116Y608334D01*
X627135Y608465D01*
X627149Y608597D01*
X627160Y608730D01*
X627168Y608862D01*
X627171Y608995D01*
X627170Y609128D01*
X627165Y609261D01*
X627157Y609393D01*
X627144Y609526D01*
X627128Y609658D01*
X627108Y609789D01*
X627084Y609920D01*
X627056Y610049D01*
X627024Y610178D01*
X626988Y610306D01*
X626949Y610433D01*
X626906Y610559D01*
X626859Y610683D01*
X626809Y610806D01*
X626755Y610928D01*
X626697Y611047D01*
X626636Y611165D01*
X626571Y611281D01*
X626503Y611396D01*
X626432Y611508D01*
X626357Y611618D01*
X626280Y611725D01*
X626199Y611831D01*
X626115Y611934D01*
X626028Y612034D01*
X625938Y612132D01*
X625845Y612227D01*
X625749Y612319D01*
X625651Y612409D01*
X625550Y612495D01*
X625447Y612579D01*
X625341Y612659D01*
X625233Y612736D01*
X625123Y612810D01*
X625010Y612881D01*
X624896Y612949D01*
X624779Y613012D01*
X624661Y613073D01*
X624541Y613130D01*
X624419Y613183D01*
X624296Y613233D01*
X624172Y613279D01*
X624046Y613322D01*
X623919Y613361D01*
X623791Y613396D01*
X623661Y613427D01*
X623531Y613454D01*
X623401Y613477D01*
X623269Y613497D01*
X623137Y613513D01*
X623005Y613525D01*
X622872Y613532D01*
X622740Y613536D01*
X622607Y613537D01*
X622134Y613525D01*
X621660Y613501D01*
X621188Y613465D01*
X620716Y613419D01*
X620246Y613361D01*
X619777Y613292D01*
X619310Y613211D01*
X618845Y613120D01*
X618382Y613017D01*
X617922Y612903D01*
X617465Y612778D01*
X617011Y612642D01*
X616560Y612495D01*
X616113Y612338D01*
X615670Y612170D01*
X615231Y611991D01*
X614797Y611801D01*
X615665Y601387D02*
X615542Y601336D01*
X615421Y601281D01*
X615302Y601223D01*
X615184Y601161D01*
X615068Y601096D01*
X614955Y601027D01*
X614843Y600955D01*
X614733Y600880D01*
X614626Y600802D01*
X614521Y600720D01*
X614419Y600635D01*
X614319Y600548D01*
X614222Y600457D01*
X614127Y600364D01*
X614035Y600268D01*
X613947Y600169D01*
X613861Y600068D01*
X613778Y599964D01*
X613698Y599858D01*
X613621Y599749D01*
X613548Y599638D01*
X613478Y599525D01*
X613411Y599411D01*
X613348Y599294D01*
X613288Y599175D01*
X613232Y599055D01*
X613179Y598933D01*
X613130Y598809D01*
X613085Y598684D01*
X613043Y598558D01*
X613005Y598431D01*
X612971Y598303D01*
X612941Y598173D01*
X612914Y598043D01*
X612891Y597912D01*
X612872Y597781D01*
X612858Y597649D01*
X612847Y597516D01*
X612839Y597384D01*
X612836Y597251D01*
X612837Y597118D01*
X612842Y596985D01*
X612850Y596853D01*
X612863Y596720D01*
X612879Y596588D01*
X612899Y596457D01*
X612923Y596326D01*
X612951Y596197D01*
X612983Y596068D01*
X613019Y595940D01*
X613058Y595813D01*
X613101Y595687D01*
X613148Y595563D01*
X613198Y595440D01*
X613252Y595318D01*
X613310Y595199D01*
X613371Y595081D01*
X613436Y594965D01*
X613504Y594850D01*
X613575Y594738D01*
X613650Y594628D01*
X613727Y594521D01*
X613808Y594415D01*
X613892Y594312D01*
X613979Y594212D01*
X614069Y594114D01*
X614162Y594019D01*
X614258Y593927D01*
X614356Y593837D01*
X614457Y593751D01*
X614560Y593667D01*
X614666Y593587D01*
X614774Y593510D01*
X614884Y593436D01*
X614997Y593365D01*
X615111Y593298D01*
X615228Y593234D01*
X615346Y593173D01*
X615466Y593116D01*
X615587Y593063D01*
X615711Y593013D01*
X615835Y592967D01*
X615961Y592924D01*
X616088Y592885D01*
X616216Y592851D01*
X616346Y592819D01*
X616476Y592792D01*
X616606Y592769D01*
X616738Y592749D01*
X616870Y592733D01*
X617002Y592721D01*
X617135Y592714D01*
X617267Y592710D01*
X617400Y592709D01*
X617399Y592709D02*
X618095Y592727D01*
X618791Y592762D01*
X619485Y592813D01*
X620178Y592880D01*
X620869Y592964D01*
X621558Y593064D01*
X622245Y593181D01*
X622928Y593313D01*
X623608Y593462D01*
X624285Y593627D01*
X624957Y593808D01*
X625625Y594004D01*
X626288Y594217D01*
X626946Y594445D01*
X601906Y592709D02*
X601906Y613537D01*
X602774Y622215D02*
X602774Y623951D01*
X601038Y623951D01*
X601038Y622215D01*
X602774Y622215D01*
X585641Y592709D02*
X576963Y592709D01*
X585641Y592709D02*
X585784Y592711D01*
X585928Y592717D01*
X586071Y592727D01*
X586214Y592741D01*
X586356Y592758D01*
X586498Y592780D01*
X586639Y592806D01*
X586780Y592835D01*
X586919Y592868D01*
X587058Y592905D01*
X587195Y592946D01*
X587332Y592991D01*
X587467Y593040D01*
X587600Y593092D01*
X587733Y593148D01*
X587863Y593207D01*
X587992Y593270D01*
X588119Y593337D01*
X588245Y593407D01*
X588368Y593480D01*
X588489Y593557D01*
X588608Y593637D01*
X588725Y593720D01*
X588839Y593807D01*
X588951Y593897D01*
X589061Y593989D01*
X589168Y594085D01*
X589272Y594184D01*
X589373Y594285D01*
X589472Y594389D01*
X589568Y594496D01*
X589660Y594606D01*
X589750Y594718D01*
X589837Y594832D01*
X589920Y594949D01*
X590000Y595068D01*
X590077Y595189D01*
X590150Y595313D01*
X590220Y595438D01*
X590287Y595565D01*
X590350Y595694D01*
X590409Y595824D01*
X590465Y595957D01*
X590517Y596090D01*
X590566Y596225D01*
X590611Y596362D01*
X590652Y596499D01*
X590689Y596638D01*
X590722Y596777D01*
X590751Y596918D01*
X590777Y597059D01*
X590799Y597201D01*
X590816Y597343D01*
X590830Y597486D01*
X590840Y597629D01*
X590846Y597773D01*
X590848Y597916D01*
X590848Y608330D01*
X590846Y608473D01*
X590840Y608617D01*
X590830Y608760D01*
X590816Y608903D01*
X590799Y609045D01*
X590777Y609187D01*
X590751Y609328D01*
X590722Y609469D01*
X590689Y609608D01*
X590652Y609747D01*
X590611Y609884D01*
X590566Y610021D01*
X590517Y610156D01*
X590465Y610289D01*
X590409Y610422D01*
X590350Y610552D01*
X590287Y610681D01*
X590220Y610808D01*
X590150Y610934D01*
X590077Y611057D01*
X590000Y611178D01*
X589920Y611297D01*
X589837Y611414D01*
X589750Y611528D01*
X589660Y611640D01*
X589568Y611750D01*
X589472Y611857D01*
X589373Y611961D01*
X589272Y612062D01*
X589168Y612161D01*
X589061Y612257D01*
X588951Y612349D01*
X588839Y612439D01*
X588725Y612526D01*
X588608Y612609D01*
X588489Y612689D01*
X588368Y612766D01*
X588245Y612839D01*
X588119Y612909D01*
X587992Y612976D01*
X587863Y613039D01*
X587733Y613098D01*
X587600Y613154D01*
X587467Y613206D01*
X587332Y613255D01*
X587195Y613300D01*
X587058Y613341D01*
X586919Y613378D01*
X586780Y613411D01*
X586639Y613440D01*
X586498Y613466D01*
X586356Y613488D01*
X586214Y613505D01*
X586071Y613519D01*
X585928Y613529D01*
X585784Y613535D01*
X585641Y613537D01*
X576963Y613537D01*
X576963Y587502D01*
X576965Y587359D01*
X576971Y587215D01*
X576981Y587072D01*
X576995Y586929D01*
X577012Y586787D01*
X577034Y586645D01*
X577060Y586504D01*
X577089Y586363D01*
X577122Y586224D01*
X577159Y586085D01*
X577200Y585948D01*
X577245Y585811D01*
X577294Y585676D01*
X577346Y585543D01*
X577402Y585410D01*
X577461Y585280D01*
X577524Y585151D01*
X577591Y585024D01*
X577661Y584899D01*
X577734Y584775D01*
X577811Y584654D01*
X577891Y584535D01*
X577974Y584418D01*
X578061Y584304D01*
X578151Y584192D01*
X578243Y584082D01*
X578339Y583975D01*
X578438Y583871D01*
X578539Y583770D01*
X578643Y583671D01*
X578750Y583575D01*
X578860Y583483D01*
X578972Y583393D01*
X579086Y583306D01*
X579203Y583223D01*
X579322Y583143D01*
X579443Y583066D01*
X579567Y582993D01*
X579692Y582923D01*
X579819Y582856D01*
X579948Y582793D01*
X580078Y582734D01*
X580211Y582678D01*
X580344Y582626D01*
X580479Y582577D01*
X580616Y582532D01*
X580753Y582491D01*
X580892Y582454D01*
X581031Y582421D01*
X581172Y582392D01*
X581313Y582366D01*
X581455Y582344D01*
X581597Y582327D01*
X581740Y582313D01*
X581883Y582303D01*
X582027Y582297D01*
X582170Y582295D01*
X589112Y582295D01*
X564081Y592709D02*
X564081Y613537D01*
X555403Y613537D01*
X555260Y613535D01*
X555116Y613529D01*
X554973Y613519D01*
X554830Y613505D01*
X554688Y613488D01*
X554546Y613466D01*
X554405Y613440D01*
X554264Y613411D01*
X554125Y613378D01*
X553986Y613341D01*
X553849Y613300D01*
X553712Y613255D01*
X553577Y613206D01*
X553444Y613154D01*
X553311Y613098D01*
X553181Y613039D01*
X553052Y612976D01*
X552925Y612909D01*
X552800Y612839D01*
X552676Y612766D01*
X552555Y612689D01*
X552436Y612609D01*
X552319Y612526D01*
X552205Y612439D01*
X552093Y612349D01*
X551983Y612257D01*
X551876Y612161D01*
X551772Y612062D01*
X551671Y611961D01*
X551572Y611857D01*
X551476Y611750D01*
X551384Y611640D01*
X551294Y611528D01*
X551207Y611414D01*
X551124Y611297D01*
X551044Y611178D01*
X550967Y611057D01*
X550894Y610934D01*
X550824Y610808D01*
X550757Y610681D01*
X550694Y610552D01*
X550635Y610422D01*
X550579Y610289D01*
X550527Y610156D01*
X550478Y610021D01*
X550433Y609884D01*
X550392Y609747D01*
X550355Y609608D01*
X550322Y609469D01*
X550293Y609328D01*
X550267Y609187D01*
X550245Y609045D01*
X550228Y608903D01*
X550214Y608760D01*
X550204Y608617D01*
X550198Y608473D01*
X550196Y608330D01*
X550196Y592709D01*
X533157Y592709D02*
X524478Y592709D01*
X533157Y592709D02*
X533300Y592711D01*
X533444Y592717D01*
X533587Y592727D01*
X533730Y592741D01*
X533872Y592758D01*
X534014Y592780D01*
X534155Y592806D01*
X534296Y592835D01*
X534435Y592868D01*
X534574Y592905D01*
X534711Y592946D01*
X534848Y592991D01*
X534983Y593040D01*
X535116Y593092D01*
X535249Y593148D01*
X535379Y593207D01*
X535508Y593270D01*
X535635Y593337D01*
X535761Y593407D01*
X535884Y593480D01*
X536005Y593557D01*
X536124Y593637D01*
X536241Y593720D01*
X536355Y593807D01*
X536467Y593897D01*
X536577Y593989D01*
X536684Y594085D01*
X536788Y594184D01*
X536889Y594285D01*
X536988Y594389D01*
X537084Y594496D01*
X537176Y594606D01*
X537266Y594718D01*
X537353Y594832D01*
X537436Y594949D01*
X537516Y595068D01*
X537593Y595189D01*
X537666Y595313D01*
X537736Y595438D01*
X537803Y595565D01*
X537866Y595694D01*
X537925Y595824D01*
X537981Y595957D01*
X538033Y596090D01*
X538082Y596225D01*
X538127Y596362D01*
X538168Y596499D01*
X538205Y596638D01*
X538238Y596777D01*
X538267Y596918D01*
X538293Y597059D01*
X538315Y597201D01*
X538332Y597343D01*
X538346Y597486D01*
X538356Y597629D01*
X538362Y597773D01*
X538364Y597916D01*
X538364Y606594D01*
X538362Y606763D01*
X538356Y606932D01*
X538345Y607101D01*
X538331Y607269D01*
X538313Y607437D01*
X538290Y607605D01*
X538263Y607772D01*
X538233Y607938D01*
X538198Y608104D01*
X538159Y608268D01*
X538116Y608432D01*
X538070Y608594D01*
X538019Y608756D01*
X537964Y608916D01*
X537906Y609074D01*
X537844Y609231D01*
X537777Y609387D01*
X537708Y609541D01*
X537634Y609693D01*
X537557Y609844D01*
X537476Y609992D01*
X537391Y610138D01*
X537303Y610283D01*
X537211Y610425D01*
X537116Y610565D01*
X537018Y610702D01*
X536916Y610837D01*
X536811Y610970D01*
X536703Y611100D01*
X536592Y611227D01*
X536478Y611352D01*
X536360Y611473D01*
X536240Y611592D01*
X536117Y611708D01*
X535991Y611821D01*
X535862Y611931D01*
X535731Y612037D01*
X535597Y612141D01*
X535461Y612241D01*
X535322Y612337D01*
X535181Y612431D01*
X535038Y612520D01*
X534893Y612607D01*
X534745Y612690D01*
X534596Y612769D01*
X534444Y612844D01*
X534291Y612916D01*
X534136Y612984D01*
X533980Y613048D01*
X533822Y613109D01*
X533663Y613165D01*
X533502Y613218D01*
X533340Y613266D01*
X533177Y613311D01*
X533013Y613352D01*
X532848Y613389D01*
X532682Y613422D01*
X532515Y613450D01*
X532348Y613475D01*
X532180Y613495D01*
X532012Y613512D01*
X531843Y613524D01*
X531675Y613532D01*
X531506Y613536D01*
X531336Y613536D01*
X531167Y613532D01*
X530999Y613524D01*
X530830Y613512D01*
X530662Y613495D01*
X530494Y613475D01*
X530327Y613450D01*
X530160Y613422D01*
X529994Y613389D01*
X529829Y613352D01*
X529665Y613311D01*
X529502Y613266D01*
X529340Y613218D01*
X529179Y613165D01*
X529020Y613109D01*
X528862Y613048D01*
X528706Y612984D01*
X528551Y612916D01*
X528398Y612844D01*
X528246Y612769D01*
X528097Y612690D01*
X527950Y612607D01*
X527804Y612520D01*
X527661Y612431D01*
X527520Y612337D01*
X527381Y612241D01*
X527245Y612141D01*
X527111Y612037D01*
X526980Y611931D01*
X526851Y611821D01*
X526725Y611708D01*
X526602Y611592D01*
X526482Y611473D01*
X526364Y611352D01*
X526250Y611227D01*
X526139Y611100D01*
X526031Y610970D01*
X525926Y610837D01*
X525824Y610702D01*
X525726Y610565D01*
X525631Y610425D01*
X525539Y610283D01*
X525451Y610138D01*
X525366Y609992D01*
X525285Y609844D01*
X525208Y609693D01*
X525134Y609541D01*
X525065Y609387D01*
X524998Y609231D01*
X524936Y609074D01*
X524878Y608916D01*
X524823Y608756D01*
X524772Y608594D01*
X524726Y608432D01*
X524683Y608268D01*
X524644Y608104D01*
X524609Y607938D01*
X524579Y607772D01*
X524552Y607605D01*
X524529Y607437D01*
X524511Y607269D01*
X524497Y607101D01*
X524486Y606932D01*
X524480Y606763D01*
X524478Y606594D01*
X524478Y603123D01*
X538364Y603123D01*
X499810Y592709D02*
X499810Y623951D01*
X499810Y592709D02*
X508488Y592709D01*
X508631Y592711D01*
X508775Y592717D01*
X508918Y592727D01*
X509061Y592741D01*
X509203Y592758D01*
X509345Y592780D01*
X509486Y592806D01*
X509627Y592835D01*
X509766Y592868D01*
X509905Y592905D01*
X510042Y592946D01*
X510179Y592991D01*
X510314Y593040D01*
X510447Y593092D01*
X510580Y593148D01*
X510710Y593207D01*
X510839Y593270D01*
X510966Y593337D01*
X511092Y593407D01*
X511215Y593480D01*
X511336Y593557D01*
X511455Y593637D01*
X511572Y593720D01*
X511686Y593807D01*
X511798Y593897D01*
X511908Y593989D01*
X512015Y594085D01*
X512119Y594184D01*
X512220Y594285D01*
X512319Y594389D01*
X512415Y594496D01*
X512507Y594606D01*
X512597Y594718D01*
X512684Y594832D01*
X512767Y594949D01*
X512847Y595068D01*
X512924Y595189D01*
X512997Y595313D01*
X513067Y595438D01*
X513134Y595565D01*
X513197Y595694D01*
X513256Y595824D01*
X513312Y595957D01*
X513364Y596090D01*
X513413Y596225D01*
X513458Y596362D01*
X513499Y596499D01*
X513536Y596638D01*
X513569Y596777D01*
X513598Y596918D01*
X513624Y597059D01*
X513646Y597201D01*
X513663Y597343D01*
X513677Y597486D01*
X513687Y597629D01*
X513693Y597773D01*
X513695Y597916D01*
X513695Y608330D01*
X513693Y608473D01*
X513687Y608617D01*
X513677Y608760D01*
X513663Y608903D01*
X513646Y609045D01*
X513624Y609187D01*
X513598Y609328D01*
X513569Y609469D01*
X513536Y609608D01*
X513499Y609747D01*
X513458Y609884D01*
X513413Y610021D01*
X513364Y610156D01*
X513312Y610289D01*
X513256Y610422D01*
X513197Y610552D01*
X513134Y610681D01*
X513067Y610808D01*
X512997Y610934D01*
X512924Y611057D01*
X512847Y611178D01*
X512767Y611297D01*
X512684Y611414D01*
X512597Y611528D01*
X512507Y611640D01*
X512415Y611750D01*
X512319Y611857D01*
X512220Y611961D01*
X512119Y612062D01*
X512015Y612161D01*
X511908Y612257D01*
X511798Y612349D01*
X511686Y612439D01*
X511572Y612526D01*
X511455Y612609D01*
X511336Y612689D01*
X511215Y612766D01*
X511092Y612839D01*
X510966Y612909D01*
X510839Y612976D01*
X510710Y613039D01*
X510580Y613098D01*
X510447Y613154D01*
X510314Y613206D01*
X510179Y613255D01*
X510042Y613300D01*
X509905Y613341D01*
X509766Y613378D01*
X509627Y613411D01*
X509486Y613440D01*
X509345Y613466D01*
X509203Y613488D01*
X509061Y613505D01*
X508918Y613519D01*
X508775Y613529D01*
X508631Y613535D01*
X508488Y613537D01*
X499810Y613537D01*
X471592Y623951D02*
X471592Y592709D01*
X462914Y592709D01*
X462771Y592711D01*
X462627Y592717D01*
X462484Y592727D01*
X462341Y592741D01*
X462199Y592758D01*
X462057Y592780D01*
X461916Y592806D01*
X461775Y592835D01*
X461636Y592868D01*
X461497Y592905D01*
X461360Y592946D01*
X461223Y592991D01*
X461088Y593040D01*
X460955Y593092D01*
X460822Y593148D01*
X460692Y593207D01*
X460563Y593270D01*
X460436Y593337D01*
X460310Y593407D01*
X460187Y593480D01*
X460066Y593557D01*
X459947Y593637D01*
X459830Y593720D01*
X459716Y593807D01*
X459604Y593897D01*
X459494Y593989D01*
X459387Y594085D01*
X459283Y594184D01*
X459182Y594285D01*
X459083Y594389D01*
X458987Y594496D01*
X458895Y594606D01*
X458805Y594718D01*
X458718Y594832D01*
X458635Y594949D01*
X458555Y595068D01*
X458478Y595189D01*
X458405Y595313D01*
X458335Y595438D01*
X458268Y595565D01*
X458205Y595694D01*
X458146Y595824D01*
X458090Y595957D01*
X458038Y596090D01*
X457989Y596225D01*
X457944Y596362D01*
X457903Y596499D01*
X457866Y596638D01*
X457833Y596777D01*
X457804Y596918D01*
X457778Y597059D01*
X457756Y597201D01*
X457739Y597343D01*
X457725Y597486D01*
X457715Y597629D01*
X457709Y597773D01*
X457707Y597916D01*
X457707Y608330D01*
X457709Y608473D01*
X457715Y608617D01*
X457725Y608760D01*
X457739Y608903D01*
X457756Y609045D01*
X457778Y609187D01*
X457804Y609328D01*
X457833Y609469D01*
X457866Y609608D01*
X457903Y609747D01*
X457944Y609884D01*
X457989Y610021D01*
X458038Y610156D01*
X458090Y610289D01*
X458146Y610422D01*
X458205Y610552D01*
X458268Y610681D01*
X458335Y610808D01*
X458405Y610934D01*
X458478Y611057D01*
X458555Y611178D01*
X458635Y611297D01*
X458718Y611414D01*
X458805Y611528D01*
X458895Y611640D01*
X458987Y611750D01*
X459083Y611857D01*
X459182Y611961D01*
X459283Y612062D01*
X459387Y612161D01*
X459494Y612257D01*
X459604Y612349D01*
X459716Y612439D01*
X459830Y612526D01*
X459947Y612609D01*
X460066Y612689D01*
X460187Y612766D01*
X460311Y612839D01*
X460436Y612909D01*
X460563Y612976D01*
X460692Y613039D01*
X460822Y613098D01*
X460955Y613154D01*
X461088Y613206D01*
X461223Y613255D01*
X461360Y613300D01*
X461497Y613341D01*
X461636Y613378D01*
X461775Y613411D01*
X461916Y613440D01*
X462057Y613466D01*
X462199Y613488D01*
X462341Y613505D01*
X462484Y613519D01*
X462627Y613529D01*
X462771Y613535D01*
X462914Y613537D01*
X471592Y613537D01*
X447876Y582295D02*
X444405Y582295D01*
X433991Y613537D01*
X447876Y613537D02*
X440933Y592709D01*
X734610Y566801D02*
X734610Y535559D01*
X725932Y566801D02*
X743289Y566801D01*
X715835Y566801D02*
X715835Y535559D01*
X715835Y556387D02*
X707157Y556387D01*
X707014Y556385D01*
X706870Y556379D01*
X706727Y556369D01*
X706584Y556355D01*
X706442Y556338D01*
X706300Y556316D01*
X706159Y556290D01*
X706018Y556261D01*
X705879Y556228D01*
X705740Y556191D01*
X705603Y556150D01*
X705466Y556105D01*
X705331Y556056D01*
X705198Y556004D01*
X705065Y555948D01*
X704935Y555889D01*
X704806Y555826D01*
X704679Y555759D01*
X704554Y555689D01*
X704430Y555616D01*
X704309Y555539D01*
X704190Y555459D01*
X704073Y555376D01*
X703959Y555289D01*
X703847Y555199D01*
X703737Y555107D01*
X703630Y555011D01*
X703526Y554912D01*
X703425Y554811D01*
X703326Y554707D01*
X703230Y554600D01*
X703138Y554490D01*
X703048Y554378D01*
X702961Y554264D01*
X702878Y554147D01*
X702798Y554028D01*
X702721Y553907D01*
X702648Y553784D01*
X702578Y553658D01*
X702511Y553531D01*
X702448Y553402D01*
X702389Y553272D01*
X702333Y553139D01*
X702281Y553006D01*
X702232Y552871D01*
X702187Y552734D01*
X702146Y552597D01*
X702109Y552458D01*
X702076Y552319D01*
X702047Y552178D01*
X702021Y552037D01*
X701999Y551895D01*
X701982Y551753D01*
X701968Y551610D01*
X701958Y551467D01*
X701952Y551323D01*
X701950Y551180D01*
X701950Y535559D01*
X684911Y535559D02*
X676233Y535559D01*
X684911Y535559D02*
X685054Y535561D01*
X685198Y535567D01*
X685341Y535577D01*
X685484Y535591D01*
X685626Y535608D01*
X685768Y535630D01*
X685909Y535656D01*
X686050Y535685D01*
X686189Y535718D01*
X686328Y535755D01*
X686465Y535796D01*
X686602Y535841D01*
X686737Y535890D01*
X686870Y535942D01*
X687003Y535998D01*
X687133Y536057D01*
X687262Y536120D01*
X687389Y536187D01*
X687515Y536257D01*
X687638Y536330D01*
X687759Y536407D01*
X687878Y536487D01*
X687995Y536570D01*
X688109Y536657D01*
X688221Y536747D01*
X688331Y536839D01*
X688438Y536935D01*
X688542Y537034D01*
X688643Y537135D01*
X688742Y537239D01*
X688838Y537346D01*
X688930Y537456D01*
X689020Y537568D01*
X689107Y537682D01*
X689190Y537799D01*
X689270Y537918D01*
X689347Y538039D01*
X689420Y538163D01*
X689490Y538288D01*
X689557Y538415D01*
X689620Y538544D01*
X689679Y538674D01*
X689735Y538807D01*
X689787Y538940D01*
X689836Y539075D01*
X689881Y539212D01*
X689922Y539349D01*
X689959Y539488D01*
X689992Y539627D01*
X690021Y539768D01*
X690047Y539909D01*
X690069Y540051D01*
X690086Y540193D01*
X690100Y540336D01*
X690110Y540479D01*
X690116Y540623D01*
X690118Y540766D01*
X690118Y549444D01*
X690116Y549613D01*
X690110Y549782D01*
X690099Y549951D01*
X690085Y550119D01*
X690067Y550287D01*
X690044Y550455D01*
X690017Y550622D01*
X689987Y550788D01*
X689952Y550954D01*
X689913Y551118D01*
X689870Y551282D01*
X689824Y551444D01*
X689773Y551606D01*
X689718Y551766D01*
X689660Y551924D01*
X689598Y552081D01*
X689531Y552237D01*
X689462Y552391D01*
X689388Y552543D01*
X689311Y552694D01*
X689230Y552842D01*
X689145Y552988D01*
X689057Y553133D01*
X688965Y553275D01*
X688870Y553415D01*
X688772Y553552D01*
X688670Y553687D01*
X688565Y553820D01*
X688457Y553950D01*
X688346Y554077D01*
X688232Y554202D01*
X688114Y554323D01*
X687994Y554442D01*
X687871Y554558D01*
X687745Y554671D01*
X687616Y554781D01*
X687485Y554887D01*
X687351Y554991D01*
X687215Y555091D01*
X687076Y555187D01*
X686935Y555281D01*
X686792Y555370D01*
X686647Y555457D01*
X686499Y555540D01*
X686350Y555619D01*
X686198Y555694D01*
X686045Y555766D01*
X685890Y555834D01*
X685734Y555898D01*
X685576Y555959D01*
X685417Y556015D01*
X685256Y556068D01*
X685094Y556116D01*
X684931Y556161D01*
X684767Y556202D01*
X684602Y556239D01*
X684436Y556272D01*
X684269Y556300D01*
X684102Y556325D01*
X683934Y556345D01*
X683766Y556362D01*
X683597Y556374D01*
X683429Y556382D01*
X683260Y556386D01*
X683090Y556386D01*
X682921Y556382D01*
X682753Y556374D01*
X682584Y556362D01*
X682416Y556345D01*
X682248Y556325D01*
X682081Y556300D01*
X681914Y556272D01*
X681748Y556239D01*
X681583Y556202D01*
X681419Y556161D01*
X681256Y556116D01*
X681094Y556068D01*
X680933Y556015D01*
X680774Y555959D01*
X680616Y555898D01*
X680460Y555834D01*
X680305Y555766D01*
X680152Y555694D01*
X680000Y555619D01*
X679851Y555540D01*
X679704Y555457D01*
X679558Y555370D01*
X679415Y555281D01*
X679274Y555187D01*
X679135Y555091D01*
X678999Y554991D01*
X678865Y554887D01*
X678734Y554781D01*
X678605Y554671D01*
X678479Y554558D01*
X678356Y554442D01*
X678236Y554323D01*
X678118Y554202D01*
X678004Y554077D01*
X677893Y553950D01*
X677785Y553820D01*
X677680Y553687D01*
X677578Y553552D01*
X677480Y553415D01*
X677385Y553275D01*
X677293Y553133D01*
X677205Y552988D01*
X677120Y552842D01*
X677039Y552694D01*
X676962Y552543D01*
X676888Y552391D01*
X676819Y552237D01*
X676752Y552081D01*
X676690Y551924D01*
X676632Y551766D01*
X676577Y551606D01*
X676526Y551444D01*
X676480Y551282D01*
X676437Y551118D01*
X676398Y550954D01*
X676363Y550788D01*
X676333Y550622D01*
X676306Y550455D01*
X676283Y550287D01*
X676265Y550119D01*
X676251Y549951D01*
X676240Y549782D01*
X676234Y549613D01*
X676232Y549444D01*
X676233Y549444D02*
X676233Y545973D01*
X690118Y545973D01*
X648709Y535559D02*
X648709Y566801D01*
X640031Y566801D01*
X639820Y566798D01*
X639608Y566791D01*
X639398Y566778D01*
X639187Y566760D01*
X638977Y566737D01*
X638767Y566709D01*
X638559Y566675D01*
X638351Y566637D01*
X638144Y566593D01*
X637938Y566545D01*
X637734Y566491D01*
X637531Y566433D01*
X637329Y566370D01*
X637129Y566301D01*
X636931Y566228D01*
X636734Y566150D01*
X636540Y566068D01*
X636348Y565980D01*
X636157Y565888D01*
X635969Y565792D01*
X635784Y565691D01*
X635601Y565585D01*
X635420Y565475D01*
X635243Y565360D01*
X635068Y565242D01*
X634896Y565119D01*
X634727Y564992D01*
X634562Y564860D01*
X634399Y564725D01*
X634240Y564586D01*
X634084Y564443D01*
X633932Y564297D01*
X633784Y564146D01*
X633639Y563992D01*
X633498Y563835D01*
X633361Y563674D01*
X633227Y563510D01*
X633098Y563343D01*
X632973Y563172D01*
X632852Y562999D01*
X632736Y562823D01*
X632624Y562644D01*
X632516Y562462D01*
X632412Y562278D01*
X632313Y562091D01*
X632219Y561902D01*
X632129Y561710D01*
X632044Y561517D01*
X631964Y561322D01*
X631888Y561124D01*
X631818Y560925D01*
X631752Y560724D01*
X631691Y560522D01*
X631635Y560318D01*
X631584Y560113D01*
X631538Y559907D01*
X631497Y559699D01*
X631461Y559491D01*
X631431Y559282D01*
X631405Y559072D01*
X631385Y558862D01*
X631369Y558651D01*
X631359Y558440D01*
X631354Y558229D01*
X631354Y558017D01*
X631359Y557806D01*
X631369Y557595D01*
X631385Y557384D01*
X631405Y557174D01*
X631431Y556964D01*
X631461Y556755D01*
X631497Y556547D01*
X631538Y556339D01*
X631584Y556133D01*
X631635Y555928D01*
X631691Y555724D01*
X631752Y555522D01*
X631818Y555321D01*
X631888Y555122D01*
X631964Y554924D01*
X632044Y554729D01*
X632129Y554536D01*
X632219Y554344D01*
X632313Y554155D01*
X632412Y553968D01*
X632516Y553784D01*
X632624Y553602D01*
X632736Y553423D01*
X632852Y553247D01*
X632973Y553074D01*
X633098Y552903D01*
X633227Y552736D01*
X633361Y552572D01*
X633498Y552411D01*
X633639Y552254D01*
X633784Y552100D01*
X633932Y551949D01*
X634084Y551803D01*
X634240Y551660D01*
X634399Y551521D01*
X634562Y551386D01*
X634727Y551254D01*
X634896Y551127D01*
X635068Y551004D01*
X635243Y550886D01*
X635420Y550771D01*
X635601Y550661D01*
X635784Y550555D01*
X635969Y550454D01*
X636157Y550358D01*
X636348Y550266D01*
X636540Y550178D01*
X636734Y550096D01*
X636931Y550018D01*
X637129Y549945D01*
X637329Y549876D01*
X637531Y549813D01*
X637734Y549755D01*
X637938Y549701D01*
X638144Y549653D01*
X638351Y549609D01*
X638559Y549571D01*
X638767Y549537D01*
X638977Y549509D01*
X639187Y549486D01*
X639398Y549468D01*
X639608Y549455D01*
X639820Y549448D01*
X640031Y549445D01*
X640031Y549444D02*
X648709Y549444D01*
X615560Y547709D02*
X607749Y547709D01*
X615560Y547709D02*
X615715Y547707D01*
X615870Y547701D01*
X616025Y547691D01*
X616180Y547677D01*
X616334Y547660D01*
X616487Y547638D01*
X616640Y547612D01*
X616793Y547583D01*
X616944Y547549D01*
X617095Y547512D01*
X617244Y547471D01*
X617393Y547426D01*
X617540Y547377D01*
X617686Y547325D01*
X617831Y547269D01*
X617974Y547209D01*
X618116Y547145D01*
X618256Y547078D01*
X618394Y547008D01*
X618530Y546933D01*
X618664Y546856D01*
X618797Y546775D01*
X618927Y546691D01*
X619055Y546603D01*
X619181Y546512D01*
X619304Y546418D01*
X619425Y546321D01*
X619544Y546221D01*
X619659Y546117D01*
X619773Y546011D01*
X619883Y545902D01*
X619991Y545790D01*
X620095Y545676D01*
X620197Y545559D01*
X620296Y545439D01*
X620391Y545317D01*
X620484Y545192D01*
X620573Y545065D01*
X620659Y544936D01*
X620742Y544805D01*
X620821Y544672D01*
X620897Y544536D01*
X620969Y544399D01*
X621038Y544260D01*
X621103Y544119D01*
X621165Y543977D01*
X621223Y543833D01*
X621277Y543687D01*
X621328Y543541D01*
X621375Y543393D01*
X621418Y543244D01*
X621457Y543094D01*
X621492Y542943D01*
X621524Y542791D01*
X621551Y542638D01*
X621575Y542485D01*
X621595Y542331D01*
X621611Y542176D01*
X621623Y542022D01*
X621631Y541867D01*
X621635Y541712D01*
X621635Y541556D01*
X621631Y541401D01*
X621623Y541246D01*
X621611Y541092D01*
X621595Y540937D01*
X621575Y540783D01*
X621551Y540630D01*
X621524Y540477D01*
X621492Y540325D01*
X621457Y540174D01*
X621418Y540024D01*
X621375Y539875D01*
X621328Y539727D01*
X621277Y539581D01*
X621223Y539435D01*
X621165Y539291D01*
X621103Y539149D01*
X621038Y539008D01*
X620969Y538869D01*
X620897Y538732D01*
X620821Y538597D01*
X620742Y538463D01*
X620659Y538332D01*
X620573Y538203D01*
X620484Y538076D01*
X620391Y537951D01*
X620296Y537829D01*
X620197Y537709D01*
X620095Y537592D01*
X619991Y537478D01*
X619883Y537366D01*
X619773Y537257D01*
X619659Y537151D01*
X619544Y537047D01*
X619425Y536947D01*
X619304Y536850D01*
X619181Y536756D01*
X619055Y536665D01*
X618927Y536577D01*
X618797Y536493D01*
X618664Y536412D01*
X618530Y536335D01*
X618394Y536260D01*
X618256Y536190D01*
X618116Y536123D01*
X617974Y536059D01*
X617831Y535999D01*
X617686Y535943D01*
X617540Y535891D01*
X617393Y535842D01*
X617244Y535797D01*
X617095Y535756D01*
X616944Y535719D01*
X616793Y535685D01*
X616640Y535656D01*
X616487Y535630D01*
X616334Y535608D01*
X616180Y535591D01*
X616025Y535577D01*
X615870Y535567D01*
X615715Y535561D01*
X615560Y535559D01*
X607749Y535559D01*
X607749Y551180D01*
X607751Y551323D01*
X607757Y551467D01*
X607767Y551610D01*
X607781Y551753D01*
X607798Y551895D01*
X607820Y552037D01*
X607846Y552178D01*
X607875Y552319D01*
X607908Y552458D01*
X607945Y552597D01*
X607986Y552734D01*
X608031Y552871D01*
X608080Y553006D01*
X608132Y553139D01*
X608188Y553272D01*
X608247Y553402D01*
X608310Y553531D01*
X608377Y553658D01*
X608447Y553784D01*
X608520Y553907D01*
X608597Y554028D01*
X608677Y554147D01*
X608760Y554264D01*
X608847Y554378D01*
X608937Y554490D01*
X609029Y554600D01*
X609125Y554707D01*
X609224Y554811D01*
X609325Y554912D01*
X609429Y555011D01*
X609536Y555107D01*
X609646Y555199D01*
X609758Y555289D01*
X609872Y555376D01*
X609989Y555459D01*
X610108Y555539D01*
X610229Y555616D01*
X610353Y555689D01*
X610478Y555759D01*
X610605Y555826D01*
X610734Y555889D01*
X610864Y555948D01*
X610997Y556004D01*
X611130Y556056D01*
X611265Y556105D01*
X611402Y556150D01*
X611539Y556191D01*
X611678Y556228D01*
X611817Y556261D01*
X611958Y556290D01*
X612099Y556316D01*
X612241Y556338D01*
X612383Y556355D01*
X612526Y556369D01*
X612669Y556379D01*
X612813Y556385D01*
X612956Y556387D01*
X619899Y556387D01*
X594732Y556387D02*
X594732Y535559D01*
X594732Y556387D02*
X584318Y556387D01*
X584318Y552916D01*
X578062Y556387D02*
X567648Y556387D01*
X574590Y566801D02*
X574590Y540766D01*
X574588Y540623D01*
X574582Y540479D01*
X574572Y540336D01*
X574558Y540193D01*
X574541Y540051D01*
X574519Y539909D01*
X574493Y539768D01*
X574464Y539627D01*
X574431Y539488D01*
X574394Y539349D01*
X574353Y539212D01*
X574308Y539075D01*
X574259Y538940D01*
X574207Y538807D01*
X574151Y538674D01*
X574092Y538544D01*
X574029Y538415D01*
X573962Y538288D01*
X573892Y538163D01*
X573819Y538039D01*
X573742Y537918D01*
X573662Y537799D01*
X573579Y537682D01*
X573492Y537568D01*
X573402Y537456D01*
X573310Y537346D01*
X573214Y537239D01*
X573115Y537135D01*
X573014Y537034D01*
X572910Y536935D01*
X572803Y536839D01*
X572693Y536747D01*
X572581Y536657D01*
X572467Y536570D01*
X572350Y536487D01*
X572231Y536407D01*
X572110Y536330D01*
X571987Y536257D01*
X571861Y536187D01*
X571734Y536120D01*
X571605Y536057D01*
X571475Y535998D01*
X571342Y535942D01*
X571209Y535890D01*
X571074Y535841D01*
X570937Y535796D01*
X570800Y535755D01*
X570661Y535718D01*
X570522Y535685D01*
X570381Y535656D01*
X570240Y535630D01*
X570098Y535608D01*
X569956Y535591D01*
X569813Y535577D01*
X569670Y535567D01*
X569526Y535561D01*
X569383Y535559D01*
X567648Y535559D01*
X557445Y535559D02*
X557445Y556387D01*
X558313Y565065D02*
X558313Y566801D01*
X556578Y566801D01*
X556578Y565065D01*
X558313Y565065D01*
X541050Y535559D02*
X534107Y535559D01*
X541050Y535559D02*
X541193Y535561D01*
X541337Y535567D01*
X541480Y535577D01*
X541623Y535591D01*
X541765Y535608D01*
X541907Y535630D01*
X542048Y535656D01*
X542189Y535685D01*
X542328Y535718D01*
X542467Y535755D01*
X542604Y535796D01*
X542741Y535841D01*
X542876Y535890D01*
X543009Y535942D01*
X543142Y535998D01*
X543272Y536057D01*
X543401Y536120D01*
X543528Y536187D01*
X543654Y536257D01*
X543777Y536330D01*
X543898Y536407D01*
X544017Y536487D01*
X544134Y536570D01*
X544248Y536657D01*
X544360Y536747D01*
X544470Y536839D01*
X544577Y536935D01*
X544681Y537034D01*
X544782Y537135D01*
X544881Y537239D01*
X544977Y537346D01*
X545069Y537456D01*
X545159Y537568D01*
X545246Y537682D01*
X545329Y537799D01*
X545409Y537918D01*
X545486Y538039D01*
X545559Y538163D01*
X545629Y538288D01*
X545696Y538415D01*
X545759Y538544D01*
X545818Y538674D01*
X545874Y538807D01*
X545926Y538940D01*
X545975Y539075D01*
X546020Y539212D01*
X546061Y539349D01*
X546098Y539488D01*
X546131Y539627D01*
X546160Y539768D01*
X546186Y539909D01*
X546208Y540051D01*
X546225Y540193D01*
X546239Y540336D01*
X546249Y540479D01*
X546255Y540623D01*
X546257Y540766D01*
X546257Y551180D01*
X546255Y551323D01*
X546249Y551467D01*
X546239Y551610D01*
X546225Y551753D01*
X546208Y551895D01*
X546186Y552037D01*
X546160Y552178D01*
X546131Y552319D01*
X546098Y552458D01*
X546061Y552597D01*
X546020Y552734D01*
X545975Y552871D01*
X545926Y553006D01*
X545874Y553139D01*
X545818Y553272D01*
X545759Y553402D01*
X545696Y553531D01*
X545629Y553658D01*
X545559Y553784D01*
X545486Y553907D01*
X545409Y554028D01*
X545329Y554147D01*
X545246Y554264D01*
X545159Y554378D01*
X545069Y554490D01*
X544977Y554600D01*
X544881Y554707D01*
X544782Y554811D01*
X544681Y554912D01*
X544577Y555011D01*
X544470Y555107D01*
X544360Y555199D01*
X544248Y555289D01*
X544134Y555376D01*
X544017Y555459D01*
X543898Y555539D01*
X543777Y555616D01*
X543654Y555689D01*
X543528Y555759D01*
X543401Y555826D01*
X543272Y555889D01*
X543142Y555948D01*
X543009Y556004D01*
X542876Y556056D01*
X542741Y556105D01*
X542604Y556150D01*
X542467Y556191D01*
X542328Y556228D01*
X542189Y556261D01*
X542048Y556290D01*
X541907Y556316D01*
X541765Y556338D01*
X541623Y556355D01*
X541480Y556369D01*
X541337Y556379D01*
X541193Y556385D01*
X541050Y556387D01*
X534107Y556387D01*
X523769Y566801D02*
X523769Y540766D01*
X523767Y540623D01*
X523761Y540479D01*
X523751Y540336D01*
X523737Y540193D01*
X523720Y540051D01*
X523698Y539909D01*
X523672Y539768D01*
X523643Y539627D01*
X523610Y539488D01*
X523573Y539349D01*
X523532Y539212D01*
X523487Y539075D01*
X523438Y538940D01*
X523386Y538807D01*
X523330Y538674D01*
X523271Y538544D01*
X523208Y538415D01*
X523141Y538288D01*
X523071Y538163D01*
X522998Y538039D01*
X522921Y537918D01*
X522841Y537799D01*
X522758Y537682D01*
X522671Y537568D01*
X522581Y537456D01*
X522489Y537346D01*
X522393Y537239D01*
X522294Y537135D01*
X522193Y537034D01*
X522089Y536935D01*
X521982Y536839D01*
X521872Y536747D01*
X521760Y536657D01*
X521646Y536570D01*
X521529Y536487D01*
X521410Y536407D01*
X521289Y536330D01*
X521166Y536257D01*
X521040Y536187D01*
X520913Y536120D01*
X520784Y536057D01*
X520654Y535998D01*
X520521Y535942D01*
X520388Y535890D01*
X520253Y535841D01*
X520116Y535796D01*
X519979Y535755D01*
X519840Y535718D01*
X519701Y535685D01*
X519560Y535656D01*
X519419Y535630D01*
X519277Y535608D01*
X519135Y535591D01*
X518992Y535577D01*
X518849Y535567D01*
X518705Y535561D01*
X518562Y535559D01*
X503936Y535559D02*
X495258Y535559D01*
X503936Y535559D02*
X504079Y535561D01*
X504223Y535567D01*
X504366Y535577D01*
X504509Y535591D01*
X504651Y535608D01*
X504793Y535630D01*
X504934Y535656D01*
X505075Y535685D01*
X505214Y535718D01*
X505353Y535755D01*
X505490Y535796D01*
X505627Y535841D01*
X505762Y535890D01*
X505895Y535942D01*
X506028Y535998D01*
X506158Y536057D01*
X506287Y536120D01*
X506414Y536187D01*
X506540Y536257D01*
X506663Y536330D01*
X506784Y536407D01*
X506903Y536487D01*
X507020Y536570D01*
X507134Y536657D01*
X507246Y536747D01*
X507356Y536839D01*
X507463Y536935D01*
X507567Y537034D01*
X507668Y537135D01*
X507767Y537239D01*
X507863Y537346D01*
X507955Y537456D01*
X508045Y537568D01*
X508132Y537682D01*
X508215Y537799D01*
X508295Y537918D01*
X508372Y538039D01*
X508445Y538163D01*
X508515Y538288D01*
X508582Y538415D01*
X508645Y538544D01*
X508704Y538674D01*
X508760Y538807D01*
X508812Y538940D01*
X508861Y539075D01*
X508906Y539212D01*
X508947Y539349D01*
X508984Y539488D01*
X509017Y539627D01*
X509046Y539768D01*
X509072Y539909D01*
X509094Y540051D01*
X509111Y540193D01*
X509125Y540336D01*
X509135Y540479D01*
X509141Y540623D01*
X509143Y540766D01*
X509143Y549444D01*
X509141Y549613D01*
X509135Y549782D01*
X509124Y549951D01*
X509110Y550119D01*
X509092Y550287D01*
X509069Y550455D01*
X509042Y550622D01*
X509012Y550788D01*
X508977Y550954D01*
X508938Y551118D01*
X508895Y551282D01*
X508849Y551444D01*
X508798Y551606D01*
X508743Y551766D01*
X508685Y551924D01*
X508623Y552081D01*
X508556Y552237D01*
X508487Y552391D01*
X508413Y552543D01*
X508336Y552694D01*
X508255Y552842D01*
X508170Y552988D01*
X508082Y553133D01*
X507990Y553275D01*
X507895Y553415D01*
X507797Y553552D01*
X507695Y553687D01*
X507590Y553820D01*
X507482Y553950D01*
X507371Y554077D01*
X507257Y554202D01*
X507139Y554323D01*
X507019Y554442D01*
X506896Y554558D01*
X506770Y554671D01*
X506641Y554781D01*
X506510Y554887D01*
X506376Y554991D01*
X506240Y555091D01*
X506101Y555187D01*
X505960Y555281D01*
X505817Y555370D01*
X505672Y555457D01*
X505524Y555540D01*
X505375Y555619D01*
X505223Y555694D01*
X505070Y555766D01*
X504915Y555834D01*
X504759Y555898D01*
X504601Y555959D01*
X504442Y556015D01*
X504281Y556068D01*
X504119Y556116D01*
X503956Y556161D01*
X503792Y556202D01*
X503627Y556239D01*
X503461Y556272D01*
X503294Y556300D01*
X503127Y556325D01*
X502959Y556345D01*
X502791Y556362D01*
X502622Y556374D01*
X502454Y556382D01*
X502285Y556386D01*
X502115Y556386D01*
X501946Y556382D01*
X501778Y556374D01*
X501609Y556362D01*
X501441Y556345D01*
X501273Y556325D01*
X501106Y556300D01*
X500939Y556272D01*
X500773Y556239D01*
X500608Y556202D01*
X500444Y556161D01*
X500281Y556116D01*
X500119Y556068D01*
X499958Y556015D01*
X499799Y555959D01*
X499641Y555898D01*
X499485Y555834D01*
X499330Y555766D01*
X499177Y555694D01*
X499025Y555619D01*
X498876Y555540D01*
X498729Y555457D01*
X498583Y555370D01*
X498440Y555281D01*
X498299Y555187D01*
X498160Y555091D01*
X498024Y554991D01*
X497890Y554887D01*
X497759Y554781D01*
X497630Y554671D01*
X497504Y554558D01*
X497381Y554442D01*
X497261Y554323D01*
X497143Y554202D01*
X497029Y554077D01*
X496918Y553950D01*
X496810Y553820D01*
X496705Y553687D01*
X496603Y553552D01*
X496505Y553415D01*
X496410Y553275D01*
X496318Y553133D01*
X496230Y552988D01*
X496145Y552842D01*
X496064Y552694D01*
X495987Y552543D01*
X495913Y552391D01*
X495844Y552237D01*
X495777Y552081D01*
X495715Y551924D01*
X495657Y551766D01*
X495602Y551606D01*
X495551Y551444D01*
X495505Y551282D01*
X495462Y551118D01*
X495423Y550954D01*
X495388Y550788D01*
X495358Y550622D01*
X495331Y550455D01*
X495308Y550287D01*
X495290Y550119D01*
X495276Y549951D01*
X495265Y549782D01*
X495259Y549613D01*
X495257Y549444D01*
X495258Y549444D02*
X495258Y545973D01*
X509143Y545973D01*
X462195Y535559D02*
X462195Y566801D01*
X453517Y566801D02*
X470874Y566801D01*
X439166Y535559D02*
X430488Y535559D01*
X439166Y535559D02*
X439309Y535561D01*
X439453Y535567D01*
X439596Y535577D01*
X439739Y535591D01*
X439881Y535608D01*
X440023Y535630D01*
X440164Y535656D01*
X440305Y535685D01*
X440444Y535718D01*
X440583Y535755D01*
X440720Y535796D01*
X440857Y535841D01*
X440992Y535890D01*
X441125Y535942D01*
X441258Y535998D01*
X441388Y536057D01*
X441517Y536120D01*
X441644Y536187D01*
X441770Y536257D01*
X441893Y536330D01*
X442014Y536407D01*
X442133Y536487D01*
X442250Y536570D01*
X442364Y536657D01*
X442476Y536747D01*
X442586Y536839D01*
X442693Y536935D01*
X442797Y537034D01*
X442898Y537135D01*
X442997Y537239D01*
X443093Y537346D01*
X443185Y537456D01*
X443275Y537568D01*
X443362Y537682D01*
X443445Y537799D01*
X443525Y537918D01*
X443602Y538039D01*
X443675Y538163D01*
X443745Y538288D01*
X443812Y538415D01*
X443875Y538544D01*
X443934Y538674D01*
X443990Y538807D01*
X444042Y538940D01*
X444091Y539075D01*
X444136Y539212D01*
X444177Y539349D01*
X444214Y539488D01*
X444247Y539627D01*
X444276Y539768D01*
X444302Y539909D01*
X444324Y540051D01*
X444341Y540193D01*
X444355Y540336D01*
X444365Y540479D01*
X444371Y540623D01*
X444373Y540766D01*
X444373Y549444D01*
X444371Y549613D01*
X444365Y549782D01*
X444354Y549951D01*
X444340Y550119D01*
X444322Y550287D01*
X444299Y550455D01*
X444272Y550622D01*
X444242Y550788D01*
X444207Y550954D01*
X444168Y551118D01*
X444125Y551282D01*
X444079Y551444D01*
X444028Y551606D01*
X443973Y551766D01*
X443915Y551924D01*
X443853Y552081D01*
X443786Y552237D01*
X443717Y552391D01*
X443643Y552543D01*
X443566Y552694D01*
X443485Y552842D01*
X443400Y552988D01*
X443312Y553133D01*
X443220Y553275D01*
X443125Y553415D01*
X443027Y553552D01*
X442925Y553687D01*
X442820Y553820D01*
X442712Y553950D01*
X442601Y554077D01*
X442487Y554202D01*
X442369Y554323D01*
X442249Y554442D01*
X442126Y554558D01*
X442000Y554671D01*
X441871Y554781D01*
X441740Y554887D01*
X441606Y554991D01*
X441470Y555091D01*
X441331Y555187D01*
X441190Y555281D01*
X441047Y555370D01*
X440902Y555457D01*
X440754Y555540D01*
X440605Y555619D01*
X440453Y555694D01*
X440300Y555766D01*
X440145Y555834D01*
X439989Y555898D01*
X439831Y555959D01*
X439672Y556015D01*
X439511Y556068D01*
X439349Y556116D01*
X439186Y556161D01*
X439022Y556202D01*
X438857Y556239D01*
X438691Y556272D01*
X438524Y556300D01*
X438357Y556325D01*
X438189Y556345D01*
X438021Y556362D01*
X437852Y556374D01*
X437684Y556382D01*
X437515Y556386D01*
X437345Y556386D01*
X437176Y556382D01*
X437008Y556374D01*
X436839Y556362D01*
X436671Y556345D01*
X436503Y556325D01*
X436336Y556300D01*
X436169Y556272D01*
X436003Y556239D01*
X435838Y556202D01*
X435674Y556161D01*
X435511Y556116D01*
X435349Y556068D01*
X435188Y556015D01*
X435029Y555959D01*
X434871Y555898D01*
X434715Y555834D01*
X434560Y555766D01*
X434407Y555694D01*
X434255Y555619D01*
X434106Y555540D01*
X433959Y555457D01*
X433813Y555370D01*
X433670Y555281D01*
X433529Y555187D01*
X433390Y555091D01*
X433254Y554991D01*
X433120Y554887D01*
X432989Y554781D01*
X432860Y554671D01*
X432734Y554558D01*
X432611Y554442D01*
X432491Y554323D01*
X432373Y554202D01*
X432259Y554077D01*
X432148Y553950D01*
X432040Y553820D01*
X431935Y553687D01*
X431833Y553552D01*
X431735Y553415D01*
X431640Y553275D01*
X431548Y553133D01*
X431460Y552988D01*
X431375Y552842D01*
X431294Y552694D01*
X431217Y552543D01*
X431143Y552391D01*
X431074Y552237D01*
X431007Y552081D01*
X430945Y551924D01*
X430887Y551766D01*
X430832Y551606D01*
X430781Y551444D01*
X430735Y551282D01*
X430692Y551118D01*
X430653Y550954D01*
X430618Y550788D01*
X430588Y550622D01*
X430561Y550455D01*
X430538Y550287D01*
X430520Y550119D01*
X430506Y549951D01*
X430495Y549782D01*
X430489Y549613D01*
X430487Y549444D01*
X430488Y549444D02*
X430488Y545973D01*
X444373Y545973D01*
X413630Y547709D02*
X405820Y547709D01*
X413630Y547709D02*
X413785Y547707D01*
X413940Y547701D01*
X414095Y547691D01*
X414250Y547677D01*
X414404Y547660D01*
X414557Y547638D01*
X414710Y547612D01*
X414863Y547583D01*
X415014Y547549D01*
X415165Y547512D01*
X415314Y547471D01*
X415463Y547426D01*
X415610Y547377D01*
X415756Y547325D01*
X415901Y547269D01*
X416044Y547209D01*
X416186Y547145D01*
X416326Y547078D01*
X416464Y547008D01*
X416600Y546933D01*
X416734Y546856D01*
X416867Y546775D01*
X416997Y546691D01*
X417125Y546603D01*
X417251Y546512D01*
X417374Y546418D01*
X417495Y546321D01*
X417614Y546221D01*
X417729Y546117D01*
X417843Y546011D01*
X417953Y545902D01*
X418061Y545790D01*
X418165Y545676D01*
X418267Y545559D01*
X418366Y545439D01*
X418461Y545317D01*
X418554Y545192D01*
X418643Y545065D01*
X418729Y544936D01*
X418812Y544805D01*
X418891Y544672D01*
X418967Y544536D01*
X419039Y544399D01*
X419108Y544260D01*
X419173Y544119D01*
X419235Y543977D01*
X419293Y543833D01*
X419347Y543687D01*
X419398Y543541D01*
X419445Y543393D01*
X419488Y543244D01*
X419527Y543094D01*
X419562Y542943D01*
X419594Y542791D01*
X419621Y542638D01*
X419645Y542485D01*
X419665Y542331D01*
X419681Y542176D01*
X419693Y542022D01*
X419701Y541867D01*
X419705Y541712D01*
X419705Y541556D01*
X419701Y541401D01*
X419693Y541246D01*
X419681Y541092D01*
X419665Y540937D01*
X419645Y540783D01*
X419621Y540630D01*
X419594Y540477D01*
X419562Y540325D01*
X419527Y540174D01*
X419488Y540024D01*
X419445Y539875D01*
X419398Y539727D01*
X419347Y539581D01*
X419293Y539435D01*
X419235Y539291D01*
X419173Y539149D01*
X419108Y539008D01*
X419039Y538869D01*
X418967Y538732D01*
X418891Y538597D01*
X418812Y538463D01*
X418729Y538332D01*
X418643Y538203D01*
X418554Y538076D01*
X418461Y537951D01*
X418366Y537829D01*
X418267Y537709D01*
X418165Y537592D01*
X418061Y537478D01*
X417953Y537366D01*
X417843Y537257D01*
X417729Y537151D01*
X417614Y537047D01*
X417495Y536947D01*
X417374Y536850D01*
X417251Y536756D01*
X417125Y536665D01*
X416997Y536577D01*
X416867Y536493D01*
X416734Y536412D01*
X416600Y536335D01*
X416464Y536260D01*
X416326Y536190D01*
X416186Y536123D01*
X416044Y536059D01*
X415901Y535999D01*
X415756Y535943D01*
X415610Y535891D01*
X415463Y535842D01*
X415314Y535797D01*
X415165Y535756D01*
X415014Y535719D01*
X414863Y535685D01*
X414710Y535656D01*
X414557Y535630D01*
X414404Y535608D01*
X414250Y535591D01*
X414095Y535577D01*
X413940Y535567D01*
X413785Y535561D01*
X413630Y535559D01*
X405820Y535559D01*
X405820Y551180D01*
X405822Y551323D01*
X405828Y551467D01*
X405838Y551610D01*
X405852Y551753D01*
X405869Y551895D01*
X405891Y552037D01*
X405917Y552178D01*
X405946Y552319D01*
X405979Y552458D01*
X406016Y552597D01*
X406057Y552734D01*
X406102Y552871D01*
X406151Y553006D01*
X406203Y553139D01*
X406259Y553272D01*
X406318Y553402D01*
X406381Y553531D01*
X406448Y553658D01*
X406518Y553784D01*
X406591Y553907D01*
X406668Y554028D01*
X406748Y554147D01*
X406831Y554264D01*
X406918Y554378D01*
X407008Y554490D01*
X407100Y554600D01*
X407196Y554707D01*
X407295Y554811D01*
X407396Y554912D01*
X407500Y555011D01*
X407607Y555107D01*
X407717Y555199D01*
X407829Y555289D01*
X407943Y555376D01*
X408060Y555459D01*
X408179Y555539D01*
X408300Y555616D01*
X408424Y555689D01*
X408549Y555759D01*
X408676Y555826D01*
X408805Y555889D01*
X408935Y555948D01*
X409068Y556004D01*
X409201Y556056D01*
X409336Y556105D01*
X409473Y556150D01*
X409610Y556191D01*
X409749Y556228D01*
X409888Y556261D01*
X410029Y556290D01*
X410170Y556316D01*
X410312Y556338D01*
X410454Y556355D01*
X410597Y556369D01*
X410740Y556379D01*
X410884Y556385D01*
X411027Y556387D01*
X417969Y556387D01*
X392599Y556387D02*
X392599Y535559D01*
X392599Y556387D02*
X376978Y556387D01*
X376835Y556385D01*
X376691Y556379D01*
X376548Y556369D01*
X376405Y556355D01*
X376263Y556338D01*
X376121Y556316D01*
X375980Y556290D01*
X375839Y556261D01*
X375700Y556228D01*
X375561Y556191D01*
X375424Y556150D01*
X375287Y556105D01*
X375152Y556056D01*
X375019Y556004D01*
X374886Y555948D01*
X374756Y555889D01*
X374627Y555826D01*
X374500Y555759D01*
X374375Y555689D01*
X374251Y555616D01*
X374130Y555539D01*
X374011Y555459D01*
X373894Y555376D01*
X373780Y555289D01*
X373668Y555199D01*
X373558Y555107D01*
X373451Y555011D01*
X373347Y554912D01*
X373246Y554811D01*
X373147Y554707D01*
X373051Y554600D01*
X372959Y554490D01*
X372869Y554378D01*
X372782Y554264D01*
X372699Y554147D01*
X372619Y554028D01*
X372542Y553907D01*
X372469Y553784D01*
X372399Y553658D01*
X372332Y553531D01*
X372269Y553402D01*
X372210Y553272D01*
X372154Y553139D01*
X372102Y553006D01*
X372053Y552871D01*
X372008Y552734D01*
X371967Y552597D01*
X371930Y552458D01*
X371897Y552319D01*
X371868Y552178D01*
X371842Y552037D01*
X371820Y551895D01*
X371803Y551753D01*
X371789Y551610D01*
X371779Y551467D01*
X371773Y551323D01*
X371771Y551180D01*
X371771Y535559D01*
X382185Y535559D02*
X382185Y556387D01*
X732112Y509651D02*
X732112Y478409D01*
X732112Y499237D02*
X723434Y499237D01*
X723291Y499235D01*
X723147Y499229D01*
X723004Y499219D01*
X722861Y499205D01*
X722719Y499188D01*
X722577Y499166D01*
X722436Y499140D01*
X722295Y499111D01*
X722156Y499078D01*
X722017Y499041D01*
X721880Y499000D01*
X721743Y498955D01*
X721608Y498906D01*
X721475Y498854D01*
X721342Y498798D01*
X721212Y498739D01*
X721083Y498676D01*
X720956Y498609D01*
X720831Y498539D01*
X720707Y498466D01*
X720586Y498389D01*
X720467Y498309D01*
X720350Y498226D01*
X720236Y498139D01*
X720124Y498049D01*
X720014Y497957D01*
X719907Y497861D01*
X719803Y497762D01*
X719702Y497661D01*
X719603Y497557D01*
X719507Y497450D01*
X719415Y497340D01*
X719325Y497228D01*
X719238Y497114D01*
X719155Y496997D01*
X719075Y496878D01*
X718998Y496757D01*
X718925Y496634D01*
X718855Y496508D01*
X718788Y496381D01*
X718725Y496252D01*
X718666Y496122D01*
X718610Y495989D01*
X718558Y495856D01*
X718509Y495721D01*
X718464Y495584D01*
X718423Y495447D01*
X718386Y495308D01*
X718353Y495169D01*
X718324Y495028D01*
X718298Y494887D01*
X718276Y494745D01*
X718259Y494603D01*
X718245Y494460D01*
X718235Y494317D01*
X718229Y494173D01*
X718227Y494030D01*
X718227Y478409D01*
X708639Y499237D02*
X698225Y499237D01*
X705167Y509651D02*
X705167Y483616D01*
X705165Y483473D01*
X705159Y483329D01*
X705149Y483186D01*
X705135Y483043D01*
X705118Y482901D01*
X705096Y482759D01*
X705070Y482618D01*
X705041Y482477D01*
X705008Y482338D01*
X704971Y482199D01*
X704930Y482062D01*
X704885Y481925D01*
X704836Y481790D01*
X704784Y481657D01*
X704728Y481524D01*
X704669Y481394D01*
X704606Y481265D01*
X704539Y481138D01*
X704469Y481012D01*
X704396Y480889D01*
X704319Y480768D01*
X704239Y480649D01*
X704156Y480532D01*
X704069Y480418D01*
X703979Y480306D01*
X703887Y480196D01*
X703791Y480089D01*
X703692Y479985D01*
X703591Y479884D01*
X703487Y479785D01*
X703380Y479689D01*
X703270Y479597D01*
X703158Y479507D01*
X703044Y479420D01*
X702927Y479337D01*
X702808Y479257D01*
X702687Y479180D01*
X702564Y479107D01*
X702438Y479037D01*
X702311Y478970D01*
X702182Y478907D01*
X702052Y478848D01*
X701919Y478792D01*
X701786Y478740D01*
X701651Y478691D01*
X701514Y478646D01*
X701377Y478605D01*
X701238Y478568D01*
X701099Y478535D01*
X700958Y478506D01*
X700817Y478480D01*
X700675Y478458D01*
X700533Y478441D01*
X700390Y478427D01*
X700247Y478417D01*
X700103Y478411D01*
X699960Y478409D01*
X698225Y478409D01*
X690541Y499237D02*
X680127Y499237D01*
X687070Y509651D02*
X687070Y483616D01*
X687068Y483473D01*
X687062Y483329D01*
X687052Y483186D01*
X687038Y483043D01*
X687021Y482901D01*
X686999Y482759D01*
X686973Y482618D01*
X686944Y482477D01*
X686911Y482338D01*
X686874Y482199D01*
X686833Y482062D01*
X686788Y481925D01*
X686739Y481790D01*
X686687Y481657D01*
X686631Y481524D01*
X686572Y481394D01*
X686509Y481265D01*
X686442Y481138D01*
X686372Y481012D01*
X686299Y480889D01*
X686222Y480768D01*
X686142Y480649D01*
X686059Y480532D01*
X685972Y480418D01*
X685882Y480306D01*
X685790Y480196D01*
X685694Y480089D01*
X685595Y479985D01*
X685494Y479884D01*
X685390Y479785D01*
X685283Y479689D01*
X685173Y479597D01*
X685061Y479507D01*
X684947Y479420D01*
X684830Y479337D01*
X684711Y479257D01*
X684590Y479180D01*
X684467Y479107D01*
X684341Y479037D01*
X684214Y478970D01*
X684085Y478907D01*
X683955Y478848D01*
X683822Y478792D01*
X683689Y478740D01*
X683554Y478691D01*
X683417Y478646D01*
X683280Y478605D01*
X683141Y478568D01*
X683002Y478535D01*
X682861Y478506D01*
X682720Y478480D01*
X682578Y478458D01*
X682436Y478441D01*
X682293Y478427D01*
X682150Y478417D01*
X682006Y478411D01*
X681863Y478409D01*
X680127Y478409D01*
X669151Y467995D02*
X669151Y499237D01*
X660472Y499237D01*
X660329Y499235D01*
X660185Y499229D01*
X660042Y499219D01*
X659899Y499205D01*
X659757Y499188D01*
X659615Y499166D01*
X659474Y499140D01*
X659333Y499111D01*
X659194Y499078D01*
X659055Y499041D01*
X658918Y499000D01*
X658781Y498955D01*
X658646Y498906D01*
X658513Y498854D01*
X658380Y498798D01*
X658250Y498739D01*
X658121Y498676D01*
X657994Y498609D01*
X657869Y498539D01*
X657745Y498466D01*
X657624Y498389D01*
X657505Y498309D01*
X657388Y498226D01*
X657274Y498139D01*
X657162Y498049D01*
X657052Y497957D01*
X656945Y497861D01*
X656841Y497762D01*
X656740Y497661D01*
X656641Y497557D01*
X656545Y497450D01*
X656453Y497340D01*
X656363Y497228D01*
X656276Y497114D01*
X656193Y496997D01*
X656113Y496878D01*
X656036Y496757D01*
X655963Y496634D01*
X655893Y496508D01*
X655826Y496381D01*
X655763Y496252D01*
X655704Y496122D01*
X655648Y495989D01*
X655596Y495856D01*
X655547Y495721D01*
X655502Y495584D01*
X655461Y495447D01*
X655424Y495308D01*
X655391Y495169D01*
X655362Y495028D01*
X655336Y494887D01*
X655314Y494745D01*
X655297Y494603D01*
X655283Y494460D01*
X655273Y494317D01*
X655267Y494173D01*
X655265Y494030D01*
X655265Y483616D01*
X655267Y483473D01*
X655273Y483329D01*
X655283Y483186D01*
X655297Y483043D01*
X655314Y482901D01*
X655336Y482759D01*
X655362Y482618D01*
X655391Y482477D01*
X655424Y482338D01*
X655461Y482199D01*
X655502Y482062D01*
X655547Y481925D01*
X655596Y481790D01*
X655648Y481657D01*
X655704Y481524D01*
X655763Y481394D01*
X655826Y481265D01*
X655893Y481138D01*
X655963Y481013D01*
X656036Y480889D01*
X656113Y480768D01*
X656193Y480649D01*
X656276Y480532D01*
X656363Y480418D01*
X656453Y480306D01*
X656545Y480196D01*
X656641Y480089D01*
X656740Y479985D01*
X656841Y479884D01*
X656945Y479785D01*
X657052Y479689D01*
X657162Y479597D01*
X657274Y479507D01*
X657388Y479420D01*
X657505Y479337D01*
X657624Y479257D01*
X657745Y479180D01*
X657869Y479107D01*
X657994Y479037D01*
X658121Y478970D01*
X658250Y478907D01*
X658380Y478848D01*
X658513Y478792D01*
X658646Y478740D01*
X658781Y478691D01*
X658918Y478646D01*
X659055Y478605D01*
X659194Y478568D01*
X659333Y478535D01*
X659474Y478506D01*
X659615Y478480D01*
X659757Y478458D01*
X659899Y478441D01*
X660042Y478427D01*
X660185Y478417D01*
X660329Y478411D01*
X660472Y478409D01*
X669151Y478409D01*
X644123Y481013D02*
X644123Y482748D01*
X642387Y482748D01*
X642387Y481013D01*
X644123Y481013D01*
X644123Y494898D02*
X644123Y496634D01*
X642387Y496634D01*
X642387Y494898D01*
X644123Y494898D01*
X632100Y474938D02*
X618215Y513122D01*
X595355Y513122D02*
X609240Y474938D01*
X584024Y478409D02*
X584024Y509651D01*
X575345Y509651D01*
X575134Y509648D01*
X574922Y509641D01*
X574712Y509628D01*
X574501Y509610D01*
X574291Y509587D01*
X574081Y509559D01*
X573873Y509525D01*
X573665Y509487D01*
X573458Y509443D01*
X573252Y509395D01*
X573048Y509341D01*
X572845Y509283D01*
X572643Y509220D01*
X572443Y509151D01*
X572245Y509078D01*
X572048Y509000D01*
X571854Y508918D01*
X571662Y508830D01*
X571471Y508738D01*
X571283Y508642D01*
X571098Y508541D01*
X570915Y508435D01*
X570734Y508325D01*
X570557Y508210D01*
X570382Y508092D01*
X570210Y507969D01*
X570041Y507842D01*
X569876Y507710D01*
X569713Y507575D01*
X569554Y507436D01*
X569398Y507293D01*
X569246Y507147D01*
X569098Y506996D01*
X568953Y506842D01*
X568812Y506685D01*
X568675Y506524D01*
X568541Y506360D01*
X568412Y506193D01*
X568287Y506022D01*
X568166Y505849D01*
X568050Y505673D01*
X567938Y505494D01*
X567830Y505312D01*
X567726Y505128D01*
X567627Y504941D01*
X567533Y504752D01*
X567443Y504560D01*
X567358Y504367D01*
X567278Y504172D01*
X567202Y503974D01*
X567132Y503775D01*
X567066Y503574D01*
X567005Y503372D01*
X566949Y503168D01*
X566898Y502963D01*
X566852Y502757D01*
X566811Y502549D01*
X566775Y502341D01*
X566745Y502132D01*
X566719Y501922D01*
X566699Y501712D01*
X566683Y501501D01*
X566673Y501290D01*
X566668Y501079D01*
X566668Y500867D01*
X566673Y500656D01*
X566683Y500445D01*
X566699Y500234D01*
X566719Y500024D01*
X566745Y499814D01*
X566775Y499605D01*
X566811Y499397D01*
X566852Y499189D01*
X566898Y498983D01*
X566949Y498778D01*
X567005Y498574D01*
X567066Y498372D01*
X567132Y498171D01*
X567202Y497972D01*
X567278Y497774D01*
X567358Y497579D01*
X567443Y497386D01*
X567533Y497194D01*
X567627Y497005D01*
X567726Y496818D01*
X567830Y496634D01*
X567938Y496452D01*
X568050Y496273D01*
X568166Y496097D01*
X568287Y495924D01*
X568412Y495753D01*
X568541Y495586D01*
X568675Y495422D01*
X568812Y495261D01*
X568953Y495104D01*
X569098Y494950D01*
X569246Y494799D01*
X569398Y494653D01*
X569554Y494510D01*
X569713Y494371D01*
X569876Y494236D01*
X570041Y494104D01*
X570210Y493977D01*
X570382Y493854D01*
X570557Y493736D01*
X570734Y493621D01*
X570915Y493511D01*
X571098Y493405D01*
X571283Y493304D01*
X571471Y493208D01*
X571662Y493116D01*
X571854Y493028D01*
X572048Y492946D01*
X572245Y492868D01*
X572443Y492795D01*
X572643Y492726D01*
X572845Y492663D01*
X573048Y492605D01*
X573252Y492551D01*
X573458Y492503D01*
X573665Y492459D01*
X573873Y492421D01*
X574081Y492387D01*
X574291Y492359D01*
X574501Y492336D01*
X574712Y492318D01*
X574922Y492305D01*
X575134Y492298D01*
X575345Y492295D01*
X575345Y492294D02*
X584024Y492294D01*
X550875Y490559D02*
X543064Y490559D01*
X550875Y490559D02*
X551030Y490557D01*
X551185Y490551D01*
X551340Y490541D01*
X551495Y490527D01*
X551649Y490510D01*
X551802Y490488D01*
X551955Y490462D01*
X552108Y490433D01*
X552259Y490399D01*
X552410Y490362D01*
X552559Y490321D01*
X552708Y490276D01*
X552855Y490227D01*
X553001Y490175D01*
X553146Y490119D01*
X553289Y490059D01*
X553431Y489995D01*
X553571Y489928D01*
X553709Y489858D01*
X553845Y489783D01*
X553979Y489706D01*
X554112Y489625D01*
X554242Y489541D01*
X554370Y489453D01*
X554496Y489362D01*
X554619Y489268D01*
X554740Y489171D01*
X554859Y489071D01*
X554974Y488967D01*
X555088Y488861D01*
X555198Y488752D01*
X555306Y488640D01*
X555410Y488526D01*
X555512Y488409D01*
X555611Y488289D01*
X555706Y488167D01*
X555799Y488042D01*
X555888Y487915D01*
X555974Y487786D01*
X556057Y487655D01*
X556136Y487522D01*
X556212Y487386D01*
X556284Y487249D01*
X556353Y487110D01*
X556418Y486969D01*
X556480Y486827D01*
X556538Y486683D01*
X556592Y486537D01*
X556643Y486391D01*
X556690Y486243D01*
X556733Y486094D01*
X556772Y485944D01*
X556807Y485793D01*
X556839Y485641D01*
X556866Y485488D01*
X556890Y485335D01*
X556910Y485181D01*
X556926Y485026D01*
X556938Y484872D01*
X556946Y484717D01*
X556950Y484562D01*
X556950Y484406D01*
X556946Y484251D01*
X556938Y484096D01*
X556926Y483942D01*
X556910Y483787D01*
X556890Y483633D01*
X556866Y483480D01*
X556839Y483327D01*
X556807Y483175D01*
X556772Y483024D01*
X556733Y482874D01*
X556690Y482725D01*
X556643Y482577D01*
X556592Y482431D01*
X556538Y482285D01*
X556480Y482141D01*
X556418Y481999D01*
X556353Y481858D01*
X556284Y481719D01*
X556212Y481582D01*
X556136Y481447D01*
X556057Y481313D01*
X555974Y481182D01*
X555888Y481053D01*
X555799Y480926D01*
X555706Y480801D01*
X555611Y480679D01*
X555512Y480559D01*
X555410Y480442D01*
X555306Y480328D01*
X555198Y480216D01*
X555088Y480107D01*
X554974Y480001D01*
X554859Y479897D01*
X554740Y479797D01*
X554619Y479700D01*
X554496Y479606D01*
X554370Y479515D01*
X554242Y479427D01*
X554112Y479343D01*
X553979Y479262D01*
X553845Y479185D01*
X553709Y479110D01*
X553571Y479040D01*
X553431Y478973D01*
X553289Y478909D01*
X553146Y478849D01*
X553001Y478793D01*
X552855Y478741D01*
X552708Y478692D01*
X552559Y478647D01*
X552410Y478606D01*
X552259Y478569D01*
X552108Y478535D01*
X551955Y478506D01*
X551802Y478480D01*
X551649Y478458D01*
X551495Y478441D01*
X551340Y478427D01*
X551185Y478417D01*
X551030Y478411D01*
X550875Y478409D01*
X543064Y478409D01*
X543064Y494030D01*
X543066Y494173D01*
X543072Y494317D01*
X543082Y494460D01*
X543096Y494603D01*
X543113Y494745D01*
X543135Y494887D01*
X543161Y495028D01*
X543190Y495169D01*
X543223Y495308D01*
X543260Y495447D01*
X543301Y495584D01*
X543346Y495721D01*
X543395Y495856D01*
X543447Y495989D01*
X543503Y496122D01*
X543562Y496252D01*
X543625Y496381D01*
X543692Y496508D01*
X543762Y496634D01*
X543835Y496757D01*
X543912Y496878D01*
X543992Y496997D01*
X544075Y497114D01*
X544162Y497228D01*
X544252Y497340D01*
X544344Y497450D01*
X544440Y497557D01*
X544539Y497661D01*
X544640Y497762D01*
X544744Y497861D01*
X544851Y497957D01*
X544961Y498049D01*
X545073Y498139D01*
X545187Y498226D01*
X545304Y498309D01*
X545423Y498389D01*
X545544Y498466D01*
X545668Y498539D01*
X545793Y498609D01*
X545920Y498676D01*
X546049Y498739D01*
X546179Y498798D01*
X546312Y498854D01*
X546445Y498906D01*
X546580Y498955D01*
X546717Y499000D01*
X546854Y499041D01*
X546993Y499078D01*
X547132Y499111D01*
X547273Y499140D01*
X547414Y499166D01*
X547556Y499188D01*
X547698Y499205D01*
X547841Y499219D01*
X547984Y499229D01*
X548128Y499235D01*
X548271Y499237D01*
X555214Y499237D01*
X530047Y499237D02*
X530047Y478409D01*
X530047Y499237D02*
X519633Y499237D01*
X519633Y495766D01*
X513376Y499237D02*
X502962Y499237D01*
X509905Y509651D02*
X509905Y483616D01*
X509903Y483473D01*
X509897Y483329D01*
X509887Y483186D01*
X509873Y483043D01*
X509856Y482901D01*
X509834Y482759D01*
X509808Y482618D01*
X509779Y482477D01*
X509746Y482338D01*
X509709Y482199D01*
X509668Y482062D01*
X509623Y481925D01*
X509574Y481790D01*
X509522Y481657D01*
X509466Y481524D01*
X509407Y481394D01*
X509344Y481265D01*
X509277Y481138D01*
X509207Y481012D01*
X509134Y480889D01*
X509057Y480768D01*
X508977Y480649D01*
X508894Y480532D01*
X508807Y480418D01*
X508717Y480306D01*
X508625Y480196D01*
X508529Y480089D01*
X508430Y479985D01*
X508329Y479884D01*
X508225Y479785D01*
X508118Y479689D01*
X508008Y479597D01*
X507896Y479507D01*
X507782Y479420D01*
X507665Y479337D01*
X507546Y479257D01*
X507425Y479180D01*
X507302Y479107D01*
X507176Y479037D01*
X507049Y478970D01*
X506920Y478907D01*
X506790Y478848D01*
X506657Y478792D01*
X506524Y478740D01*
X506389Y478691D01*
X506252Y478646D01*
X506115Y478605D01*
X505976Y478568D01*
X505837Y478535D01*
X505696Y478506D01*
X505555Y478480D01*
X505413Y478458D01*
X505271Y478441D01*
X505128Y478427D01*
X504985Y478417D01*
X504841Y478411D01*
X504698Y478409D01*
X502962Y478409D01*
X492760Y478409D02*
X492760Y499237D01*
X493628Y507915D02*
X493628Y509651D01*
X491892Y509651D01*
X491892Y507915D01*
X493628Y507915D01*
X476364Y478409D02*
X469422Y478409D01*
X476364Y478409D02*
X476507Y478411D01*
X476651Y478417D01*
X476794Y478427D01*
X476937Y478441D01*
X477079Y478458D01*
X477221Y478480D01*
X477362Y478506D01*
X477503Y478535D01*
X477642Y478568D01*
X477781Y478605D01*
X477918Y478646D01*
X478055Y478691D01*
X478190Y478740D01*
X478323Y478792D01*
X478456Y478848D01*
X478586Y478907D01*
X478715Y478970D01*
X478842Y479037D01*
X478968Y479107D01*
X479091Y479180D01*
X479212Y479257D01*
X479331Y479337D01*
X479448Y479420D01*
X479562Y479507D01*
X479674Y479597D01*
X479784Y479689D01*
X479891Y479785D01*
X479995Y479884D01*
X480096Y479985D01*
X480195Y480089D01*
X480291Y480196D01*
X480383Y480306D01*
X480473Y480418D01*
X480560Y480532D01*
X480643Y480649D01*
X480723Y480768D01*
X480800Y480889D01*
X480873Y481012D01*
X480943Y481138D01*
X481010Y481265D01*
X481073Y481394D01*
X481132Y481524D01*
X481188Y481657D01*
X481240Y481790D01*
X481289Y481925D01*
X481334Y482062D01*
X481375Y482199D01*
X481412Y482338D01*
X481445Y482477D01*
X481474Y482618D01*
X481500Y482759D01*
X481522Y482901D01*
X481539Y483043D01*
X481553Y483186D01*
X481563Y483329D01*
X481569Y483473D01*
X481571Y483616D01*
X481571Y494030D01*
X481569Y494173D01*
X481563Y494317D01*
X481553Y494460D01*
X481539Y494603D01*
X481522Y494745D01*
X481500Y494887D01*
X481474Y495028D01*
X481445Y495169D01*
X481412Y495308D01*
X481375Y495447D01*
X481334Y495584D01*
X481289Y495721D01*
X481240Y495856D01*
X481188Y495989D01*
X481132Y496122D01*
X481073Y496252D01*
X481010Y496381D01*
X480943Y496508D01*
X480873Y496634D01*
X480800Y496757D01*
X480723Y496878D01*
X480643Y496997D01*
X480560Y497114D01*
X480473Y497228D01*
X480383Y497340D01*
X480291Y497450D01*
X480195Y497557D01*
X480096Y497661D01*
X479995Y497762D01*
X479891Y497861D01*
X479784Y497957D01*
X479674Y498049D01*
X479562Y498139D01*
X479448Y498226D01*
X479331Y498309D01*
X479212Y498389D01*
X479091Y498466D01*
X478968Y498539D01*
X478842Y498609D01*
X478715Y498676D01*
X478586Y498739D01*
X478456Y498798D01*
X478323Y498854D01*
X478190Y498906D01*
X478055Y498955D01*
X477918Y499000D01*
X477781Y499041D01*
X477642Y499078D01*
X477503Y499111D01*
X477362Y499140D01*
X477221Y499166D01*
X477079Y499188D01*
X476937Y499205D01*
X476794Y499219D01*
X476651Y499229D01*
X476507Y499235D01*
X476364Y499237D01*
X469422Y499237D01*
X459084Y509651D02*
X459084Y483616D01*
X459082Y483473D01*
X459076Y483329D01*
X459066Y483186D01*
X459052Y483043D01*
X459035Y482901D01*
X459013Y482759D01*
X458987Y482618D01*
X458958Y482477D01*
X458925Y482338D01*
X458888Y482199D01*
X458847Y482062D01*
X458802Y481925D01*
X458753Y481790D01*
X458701Y481657D01*
X458645Y481524D01*
X458586Y481394D01*
X458523Y481265D01*
X458456Y481138D01*
X458386Y481012D01*
X458313Y480889D01*
X458236Y480768D01*
X458156Y480649D01*
X458073Y480532D01*
X457986Y480418D01*
X457896Y480306D01*
X457804Y480196D01*
X457708Y480089D01*
X457609Y479985D01*
X457508Y479884D01*
X457404Y479785D01*
X457297Y479689D01*
X457187Y479597D01*
X457075Y479507D01*
X456961Y479420D01*
X456844Y479337D01*
X456725Y479257D01*
X456604Y479180D01*
X456481Y479107D01*
X456355Y479037D01*
X456228Y478970D01*
X456099Y478907D01*
X455969Y478848D01*
X455836Y478792D01*
X455703Y478740D01*
X455568Y478691D01*
X455431Y478646D01*
X455294Y478605D01*
X455155Y478568D01*
X455016Y478535D01*
X454875Y478506D01*
X454734Y478480D01*
X454592Y478458D01*
X454450Y478441D01*
X454307Y478427D01*
X454164Y478417D01*
X454020Y478411D01*
X453877Y478409D01*
X439251Y478409D02*
X430572Y478409D01*
X439251Y478409D02*
X439394Y478411D01*
X439538Y478417D01*
X439681Y478427D01*
X439824Y478441D01*
X439966Y478458D01*
X440108Y478480D01*
X440249Y478506D01*
X440390Y478535D01*
X440529Y478568D01*
X440668Y478605D01*
X440805Y478646D01*
X440942Y478691D01*
X441077Y478740D01*
X441210Y478792D01*
X441343Y478848D01*
X441473Y478907D01*
X441602Y478970D01*
X441729Y479037D01*
X441855Y479107D01*
X441978Y479180D01*
X442099Y479257D01*
X442218Y479337D01*
X442335Y479420D01*
X442449Y479507D01*
X442561Y479597D01*
X442671Y479689D01*
X442778Y479785D01*
X442882Y479884D01*
X442983Y479985D01*
X443082Y480089D01*
X443178Y480196D01*
X443270Y480306D01*
X443360Y480418D01*
X443447Y480532D01*
X443530Y480649D01*
X443610Y480768D01*
X443687Y480889D01*
X443760Y481012D01*
X443830Y481138D01*
X443897Y481265D01*
X443960Y481394D01*
X444019Y481524D01*
X444075Y481657D01*
X444127Y481790D01*
X444176Y481925D01*
X444221Y482062D01*
X444262Y482199D01*
X444299Y482338D01*
X444332Y482477D01*
X444361Y482618D01*
X444387Y482759D01*
X444409Y482901D01*
X444426Y483043D01*
X444440Y483186D01*
X444450Y483329D01*
X444456Y483473D01*
X444458Y483616D01*
X444458Y492294D01*
X444456Y492463D01*
X444450Y492632D01*
X444439Y492801D01*
X444425Y492969D01*
X444407Y493137D01*
X444384Y493305D01*
X444357Y493472D01*
X444327Y493638D01*
X444292Y493804D01*
X444253Y493968D01*
X444210Y494132D01*
X444164Y494294D01*
X444113Y494456D01*
X444058Y494616D01*
X444000Y494774D01*
X443938Y494931D01*
X443871Y495087D01*
X443802Y495241D01*
X443728Y495393D01*
X443651Y495544D01*
X443570Y495692D01*
X443485Y495838D01*
X443397Y495983D01*
X443305Y496125D01*
X443210Y496265D01*
X443112Y496402D01*
X443010Y496537D01*
X442905Y496670D01*
X442797Y496800D01*
X442686Y496927D01*
X442572Y497052D01*
X442454Y497173D01*
X442334Y497292D01*
X442211Y497408D01*
X442085Y497521D01*
X441956Y497631D01*
X441825Y497737D01*
X441691Y497841D01*
X441555Y497941D01*
X441416Y498037D01*
X441275Y498131D01*
X441132Y498220D01*
X440987Y498307D01*
X440839Y498390D01*
X440690Y498469D01*
X440538Y498544D01*
X440385Y498616D01*
X440230Y498684D01*
X440074Y498748D01*
X439916Y498809D01*
X439757Y498865D01*
X439596Y498918D01*
X439434Y498966D01*
X439271Y499011D01*
X439107Y499052D01*
X438942Y499089D01*
X438776Y499122D01*
X438609Y499150D01*
X438442Y499175D01*
X438274Y499195D01*
X438106Y499212D01*
X437937Y499224D01*
X437769Y499232D01*
X437600Y499236D01*
X437430Y499236D01*
X437261Y499232D01*
X437093Y499224D01*
X436924Y499212D01*
X436756Y499195D01*
X436588Y499175D01*
X436421Y499150D01*
X436254Y499122D01*
X436088Y499089D01*
X435923Y499052D01*
X435759Y499011D01*
X435596Y498966D01*
X435434Y498918D01*
X435273Y498865D01*
X435114Y498809D01*
X434956Y498748D01*
X434800Y498684D01*
X434645Y498616D01*
X434492Y498544D01*
X434340Y498469D01*
X434191Y498390D01*
X434044Y498307D01*
X433898Y498220D01*
X433755Y498131D01*
X433614Y498037D01*
X433475Y497941D01*
X433339Y497841D01*
X433205Y497737D01*
X433074Y497631D01*
X432945Y497521D01*
X432819Y497408D01*
X432696Y497292D01*
X432576Y497173D01*
X432458Y497052D01*
X432344Y496927D01*
X432233Y496800D01*
X432125Y496670D01*
X432020Y496537D01*
X431918Y496402D01*
X431820Y496265D01*
X431725Y496125D01*
X431633Y495983D01*
X431545Y495838D01*
X431460Y495692D01*
X431379Y495544D01*
X431302Y495393D01*
X431228Y495241D01*
X431159Y495087D01*
X431092Y494931D01*
X431030Y494774D01*
X430972Y494616D01*
X430917Y494456D01*
X430866Y494294D01*
X430820Y494132D01*
X430777Y493968D01*
X430738Y493804D01*
X430703Y493638D01*
X430673Y493472D01*
X430646Y493305D01*
X430623Y493137D01*
X430605Y492969D01*
X430591Y492801D01*
X430580Y492632D01*
X430574Y492463D01*
X430572Y492294D01*
X430572Y488823D01*
X444458Y488823D01*
X420285Y480145D02*
X420285Y478409D01*
X420285Y480145D02*
X418550Y480145D01*
X418550Y478409D01*
X420285Y478409D01*
X407988Y478409D02*
X407988Y499237D01*
X408856Y507915D02*
X408856Y509651D01*
X407120Y509651D01*
X407120Y507915D01*
X408856Y507915D01*
X396833Y492294D02*
X396833Y485352D01*
X396833Y492294D02*
X396831Y492463D01*
X396825Y492632D01*
X396814Y492801D01*
X396800Y492969D01*
X396782Y493137D01*
X396759Y493305D01*
X396732Y493472D01*
X396702Y493638D01*
X396667Y493804D01*
X396628Y493968D01*
X396585Y494132D01*
X396539Y494294D01*
X396488Y494456D01*
X396433Y494616D01*
X396375Y494774D01*
X396313Y494931D01*
X396246Y495087D01*
X396177Y495241D01*
X396103Y495393D01*
X396026Y495544D01*
X395945Y495692D01*
X395860Y495838D01*
X395772Y495983D01*
X395680Y496125D01*
X395585Y496265D01*
X395487Y496402D01*
X395385Y496537D01*
X395280Y496670D01*
X395172Y496800D01*
X395061Y496927D01*
X394947Y497052D01*
X394829Y497173D01*
X394709Y497292D01*
X394586Y497408D01*
X394460Y497521D01*
X394331Y497631D01*
X394200Y497737D01*
X394066Y497841D01*
X393930Y497941D01*
X393791Y498037D01*
X393650Y498131D01*
X393507Y498220D01*
X393362Y498307D01*
X393214Y498390D01*
X393065Y498469D01*
X392913Y498544D01*
X392760Y498616D01*
X392605Y498684D01*
X392449Y498748D01*
X392291Y498809D01*
X392132Y498865D01*
X391971Y498918D01*
X391809Y498966D01*
X391646Y499011D01*
X391482Y499052D01*
X391317Y499089D01*
X391151Y499122D01*
X390984Y499150D01*
X390817Y499175D01*
X390649Y499195D01*
X390481Y499212D01*
X390312Y499224D01*
X390144Y499232D01*
X389975Y499236D01*
X389805Y499236D01*
X389636Y499232D01*
X389468Y499224D01*
X389299Y499212D01*
X389131Y499195D01*
X388963Y499175D01*
X388796Y499150D01*
X388629Y499122D01*
X388463Y499089D01*
X388298Y499052D01*
X388134Y499011D01*
X387971Y498966D01*
X387809Y498918D01*
X387648Y498865D01*
X387489Y498809D01*
X387331Y498748D01*
X387175Y498684D01*
X387020Y498616D01*
X386867Y498544D01*
X386715Y498469D01*
X386566Y498390D01*
X386419Y498307D01*
X386273Y498220D01*
X386130Y498131D01*
X385989Y498037D01*
X385850Y497941D01*
X385714Y497841D01*
X385580Y497737D01*
X385449Y497631D01*
X385320Y497521D01*
X385194Y497408D01*
X385071Y497292D01*
X384951Y497173D01*
X384833Y497052D01*
X384719Y496927D01*
X384608Y496800D01*
X384500Y496670D01*
X384395Y496537D01*
X384293Y496402D01*
X384195Y496265D01*
X384100Y496125D01*
X384008Y495983D01*
X383920Y495838D01*
X383835Y495692D01*
X383754Y495544D01*
X383677Y495393D01*
X383603Y495241D01*
X383534Y495087D01*
X383467Y494931D01*
X383405Y494774D01*
X383347Y494616D01*
X383292Y494456D01*
X383241Y494294D01*
X383195Y494132D01*
X383152Y493968D01*
X383113Y493804D01*
X383078Y493638D01*
X383048Y493472D01*
X383021Y493305D01*
X382998Y493137D01*
X382980Y492969D01*
X382966Y492801D01*
X382955Y492632D01*
X382949Y492463D01*
X382947Y492294D01*
X382948Y492294D02*
X382948Y485352D01*
X382947Y485352D02*
X382949Y485183D01*
X382955Y485014D01*
X382966Y484845D01*
X382980Y484677D01*
X382998Y484509D01*
X383021Y484341D01*
X383048Y484174D01*
X383078Y484008D01*
X383113Y483842D01*
X383152Y483678D01*
X383195Y483514D01*
X383241Y483352D01*
X383292Y483190D01*
X383347Y483030D01*
X383405Y482872D01*
X383467Y482715D01*
X383534Y482559D01*
X383603Y482405D01*
X383677Y482253D01*
X383754Y482102D01*
X383835Y481954D01*
X383920Y481808D01*
X384008Y481663D01*
X384100Y481521D01*
X384195Y481381D01*
X384293Y481244D01*
X384395Y481109D01*
X384500Y480976D01*
X384608Y480846D01*
X384719Y480719D01*
X384833Y480594D01*
X384951Y480473D01*
X385071Y480354D01*
X385194Y480238D01*
X385320Y480125D01*
X385449Y480015D01*
X385580Y479909D01*
X385714Y479805D01*
X385850Y479705D01*
X385989Y479609D01*
X386130Y479515D01*
X386273Y479426D01*
X386419Y479339D01*
X386566Y479256D01*
X386715Y479177D01*
X386867Y479102D01*
X387020Y479030D01*
X387175Y478962D01*
X387331Y478898D01*
X387489Y478837D01*
X387648Y478781D01*
X387809Y478728D01*
X387971Y478680D01*
X388134Y478635D01*
X388298Y478594D01*
X388463Y478557D01*
X388629Y478524D01*
X388796Y478496D01*
X388963Y478471D01*
X389131Y478451D01*
X389299Y478434D01*
X389468Y478422D01*
X389636Y478414D01*
X389805Y478410D01*
X389975Y478410D01*
X390144Y478414D01*
X390312Y478422D01*
X390481Y478434D01*
X390649Y478451D01*
X390817Y478471D01*
X390984Y478496D01*
X391151Y478524D01*
X391317Y478557D01*
X391482Y478594D01*
X391646Y478635D01*
X391809Y478680D01*
X391971Y478728D01*
X392132Y478781D01*
X392291Y478837D01*
X392449Y478898D01*
X392605Y478962D01*
X392760Y479030D01*
X392913Y479102D01*
X393065Y479177D01*
X393214Y479256D01*
X393362Y479339D01*
X393507Y479426D01*
X393650Y479515D01*
X393791Y479609D01*
X393930Y479705D01*
X394066Y479805D01*
X394200Y479909D01*
X394331Y480015D01*
X394460Y480125D01*
X394586Y480238D01*
X394709Y480354D01*
X394829Y480473D01*
X394947Y480594D01*
X395061Y480719D01*
X395172Y480846D01*
X395280Y480976D01*
X395385Y481109D01*
X395487Y481244D01*
X395585Y481381D01*
X395680Y481521D01*
X395772Y481663D01*
X395860Y481808D01*
X395945Y481954D01*
X396026Y482102D01*
X396103Y482253D01*
X396177Y482405D01*
X396246Y482559D01*
X396313Y482715D01*
X396375Y482872D01*
X396433Y483030D01*
X396488Y483190D01*
X396539Y483352D01*
X396585Y483514D01*
X396628Y483678D01*
X396667Y483842D01*
X396702Y484008D01*
X396732Y484174D01*
X396759Y484341D01*
X396782Y484509D01*
X396800Y484677D01*
X396814Y484845D01*
X396825Y485014D01*
X396831Y485183D01*
X396833Y485352D01*
D11*
X174752Y446345D02*
X174752Y444877D01*
X174754Y444803D01*
X174760Y444728D01*
X174769Y444655D01*
X174782Y444581D01*
X174799Y444509D01*
X174819Y444438D01*
X174843Y444367D01*
X174871Y444298D01*
X174902Y444231D01*
X174936Y444165D01*
X174974Y444100D01*
X175015Y444038D01*
X175059Y443978D01*
X175106Y443921D01*
X175156Y443866D01*
X175209Y443813D01*
X175264Y443763D01*
X175321Y443716D01*
X175381Y443672D01*
X175443Y443631D01*
X175508Y443593D01*
X175574Y443559D01*
X175641Y443528D01*
X175710Y443500D01*
X175781Y443476D01*
X175852Y443456D01*
X175924Y443439D01*
X175998Y443426D01*
X176071Y443417D01*
X176146Y443411D01*
X176220Y443409D01*
X176220Y443410D02*
X179888Y443410D01*
X179888Y443409D02*
X179962Y443411D01*
X180037Y443417D01*
X180110Y443426D01*
X180184Y443439D01*
X180256Y443456D01*
X180327Y443476D01*
X180398Y443500D01*
X180467Y443528D01*
X180534Y443559D01*
X180600Y443593D01*
X180665Y443631D01*
X180727Y443672D01*
X180787Y443716D01*
X180844Y443763D01*
X180899Y443813D01*
X180952Y443866D01*
X181002Y443921D01*
X181049Y443978D01*
X181093Y444038D01*
X181134Y444100D01*
X181172Y444165D01*
X181206Y444230D01*
X181237Y444298D01*
X181265Y444367D01*
X181289Y444438D01*
X181309Y444509D01*
X181326Y444581D01*
X181339Y444655D01*
X181348Y444728D01*
X181354Y444803D01*
X181356Y444877D01*
X181356Y446345D01*
X179888Y449541D02*
X181356Y451376D01*
X174752Y451376D01*
X174752Y453210D02*
X174752Y449541D01*
D12*
X844000Y807000D02*
X869000Y807000D01*
X844000Y807000D02*
X844000Y717000D01*
X869000Y717000D01*
X909000Y717000D02*
X934000Y717000D01*
X934000Y807000D01*
X909000Y807000D01*
D13*
X862500Y813000D02*
X862502Y813077D01*
X862508Y813154D01*
X862518Y813231D01*
X862532Y813307D01*
X862549Y813382D01*
X862571Y813456D01*
X862596Y813529D01*
X862626Y813601D01*
X862658Y813671D01*
X862695Y813739D01*
X862734Y813805D01*
X862777Y813869D01*
X862824Y813931D01*
X862873Y813990D01*
X862926Y814047D01*
X862981Y814101D01*
X863039Y814152D01*
X863100Y814200D01*
X863163Y814245D01*
X863228Y814286D01*
X863295Y814324D01*
X863364Y814359D01*
X863435Y814389D01*
X863507Y814417D01*
X863581Y814440D01*
X863655Y814460D01*
X863731Y814476D01*
X863807Y814488D01*
X863884Y814496D01*
X863961Y814500D01*
X864039Y814500D01*
X864116Y814496D01*
X864193Y814488D01*
X864269Y814476D01*
X864345Y814460D01*
X864419Y814440D01*
X864493Y814417D01*
X864565Y814389D01*
X864636Y814359D01*
X864705Y814324D01*
X864772Y814286D01*
X864837Y814245D01*
X864900Y814200D01*
X864961Y814152D01*
X865019Y814101D01*
X865074Y814047D01*
X865127Y813990D01*
X865176Y813931D01*
X865223Y813869D01*
X865266Y813805D01*
X865305Y813739D01*
X865342Y813671D01*
X865374Y813601D01*
X865404Y813529D01*
X865429Y813456D01*
X865451Y813382D01*
X865468Y813307D01*
X865482Y813231D01*
X865492Y813154D01*
X865498Y813077D01*
X865500Y813000D01*
X865498Y812923D01*
X865492Y812846D01*
X865482Y812769D01*
X865468Y812693D01*
X865451Y812618D01*
X865429Y812544D01*
X865404Y812471D01*
X865374Y812399D01*
X865342Y812329D01*
X865305Y812261D01*
X865266Y812195D01*
X865223Y812131D01*
X865176Y812069D01*
X865127Y812010D01*
X865074Y811953D01*
X865019Y811899D01*
X864961Y811848D01*
X864900Y811800D01*
X864837Y811755D01*
X864772Y811714D01*
X864705Y811676D01*
X864636Y811641D01*
X864565Y811611D01*
X864493Y811583D01*
X864419Y811560D01*
X864345Y811540D01*
X864269Y811524D01*
X864193Y811512D01*
X864116Y811504D01*
X864039Y811500D01*
X863961Y811500D01*
X863884Y811504D01*
X863807Y811512D01*
X863731Y811524D01*
X863655Y811540D01*
X863581Y811560D01*
X863507Y811583D01*
X863435Y811611D01*
X863364Y811641D01*
X863295Y811676D01*
X863228Y811714D01*
X863163Y811755D01*
X863100Y811800D01*
X863039Y811848D01*
X862981Y811899D01*
X862926Y811953D01*
X862873Y812010D01*
X862824Y812069D01*
X862777Y812131D01*
X862734Y812195D01*
X862695Y812261D01*
X862658Y812329D01*
X862626Y812399D01*
X862596Y812471D01*
X862571Y812544D01*
X862549Y812618D01*
X862532Y812693D01*
X862518Y812769D01*
X862508Y812846D01*
X862502Y812923D01*
X862500Y813000D01*
D14*
X941590Y739835D02*
X952032Y739835D01*
X952032Y742735D01*
X952030Y742841D01*
X952024Y742947D01*
X952015Y743052D01*
X952001Y743157D01*
X951984Y743262D01*
X951963Y743366D01*
X951938Y743469D01*
X951909Y743571D01*
X951877Y743672D01*
X951841Y743771D01*
X951801Y743870D01*
X951758Y743966D01*
X951711Y744061D01*
X951661Y744155D01*
X951607Y744246D01*
X951550Y744336D01*
X951490Y744423D01*
X951427Y744508D01*
X951361Y744591D01*
X951292Y744671D01*
X951219Y744749D01*
X951145Y744823D01*
X951067Y744896D01*
X950987Y744965D01*
X950904Y745031D01*
X950819Y745094D01*
X950732Y745154D01*
X950642Y745211D01*
X950551Y745265D01*
X950457Y745315D01*
X950362Y745362D01*
X950266Y745405D01*
X950167Y745445D01*
X950068Y745481D01*
X949967Y745513D01*
X949865Y745542D01*
X949762Y745567D01*
X949658Y745588D01*
X949553Y745605D01*
X949448Y745619D01*
X949343Y745628D01*
X949237Y745634D01*
X949131Y745636D01*
X949025Y745634D01*
X948919Y745628D01*
X948814Y745619D01*
X948709Y745605D01*
X948604Y745588D01*
X948500Y745567D01*
X948397Y745542D01*
X948295Y745513D01*
X948194Y745481D01*
X948095Y745445D01*
X947996Y745405D01*
X947900Y745362D01*
X947805Y745315D01*
X947711Y745265D01*
X947620Y745211D01*
X947530Y745154D01*
X947443Y745094D01*
X947358Y745031D01*
X947275Y744965D01*
X947195Y744896D01*
X947117Y744823D01*
X947043Y744749D01*
X946970Y744671D01*
X946901Y744591D01*
X946835Y744508D01*
X946772Y744423D01*
X946712Y744336D01*
X946655Y744246D01*
X946601Y744155D01*
X946551Y744061D01*
X946504Y743966D01*
X946461Y743870D01*
X946421Y743771D01*
X946385Y743672D01*
X946353Y743571D01*
X946324Y743469D01*
X946299Y743366D01*
X946278Y743262D01*
X946261Y743157D01*
X946247Y743052D01*
X946238Y742947D01*
X946232Y742841D01*
X946230Y742735D01*
X946231Y742735D02*
X946231Y739835D01*
X941590Y751242D02*
X952032Y751242D01*
X941590Y750082D02*
X941590Y752402D01*
X952032Y752402D02*
X952032Y750082D01*
X941590Y757924D02*
X941590Y762565D01*
X941590Y757924D02*
X952032Y757924D01*
X952032Y762565D01*
X947391Y761405D02*
X947391Y757924D01*
X952032Y767052D02*
X952032Y772853D01*
X941590Y767052D01*
X941590Y772853D01*
X944490Y778125D02*
X949131Y778125D01*
X949131Y778124D02*
X949237Y778126D01*
X949343Y778132D01*
X949448Y778141D01*
X949553Y778155D01*
X949658Y778172D01*
X949762Y778193D01*
X949865Y778218D01*
X949967Y778247D01*
X950068Y778279D01*
X950167Y778315D01*
X950266Y778355D01*
X950362Y778398D01*
X950457Y778445D01*
X950551Y778495D01*
X950642Y778549D01*
X950732Y778606D01*
X950819Y778666D01*
X950904Y778729D01*
X950987Y778795D01*
X951067Y778864D01*
X951145Y778937D01*
X951219Y779011D01*
X951292Y779089D01*
X951361Y779169D01*
X951427Y779252D01*
X951490Y779337D01*
X951550Y779424D01*
X951607Y779514D01*
X951661Y779605D01*
X951711Y779699D01*
X951758Y779794D01*
X951801Y779890D01*
X951841Y779989D01*
X951877Y780088D01*
X951909Y780189D01*
X951938Y780291D01*
X951963Y780394D01*
X951984Y780498D01*
X952001Y780603D01*
X952015Y780708D01*
X952024Y780813D01*
X952030Y780919D01*
X952032Y781025D01*
X952030Y781131D01*
X952024Y781237D01*
X952015Y781342D01*
X952001Y781447D01*
X951984Y781552D01*
X951963Y781656D01*
X951938Y781759D01*
X951909Y781861D01*
X951877Y781962D01*
X951841Y782061D01*
X951801Y782160D01*
X951758Y782256D01*
X951711Y782351D01*
X951661Y782445D01*
X951607Y782536D01*
X951550Y782626D01*
X951490Y782713D01*
X951427Y782798D01*
X951361Y782881D01*
X951292Y782961D01*
X951219Y783039D01*
X951145Y783113D01*
X951067Y783186D01*
X950987Y783255D01*
X950904Y783321D01*
X950819Y783384D01*
X950732Y783444D01*
X950642Y783501D01*
X950551Y783555D01*
X950457Y783605D01*
X950362Y783652D01*
X950266Y783695D01*
X950167Y783735D01*
X950068Y783771D01*
X949967Y783803D01*
X949865Y783832D01*
X949762Y783857D01*
X949658Y783878D01*
X949553Y783895D01*
X949448Y783909D01*
X949343Y783918D01*
X949237Y783924D01*
X949131Y783926D01*
X944490Y783926D01*
X944384Y783924D01*
X944278Y783918D01*
X944173Y783909D01*
X944068Y783895D01*
X943963Y783878D01*
X943859Y783857D01*
X943756Y783832D01*
X943654Y783803D01*
X943553Y783771D01*
X943454Y783735D01*
X943355Y783695D01*
X943259Y783652D01*
X943164Y783605D01*
X943070Y783555D01*
X942979Y783501D01*
X942889Y783444D01*
X942802Y783384D01*
X942717Y783321D01*
X942634Y783255D01*
X942554Y783186D01*
X942476Y783113D01*
X942402Y783039D01*
X942329Y782961D01*
X942260Y782881D01*
X942194Y782798D01*
X942131Y782713D01*
X942071Y782626D01*
X942014Y782536D01*
X941960Y782445D01*
X941910Y782351D01*
X941863Y782256D01*
X941820Y782160D01*
X941780Y782061D01*
X941744Y781962D01*
X941712Y781861D01*
X941683Y781759D01*
X941658Y781656D01*
X941637Y781552D01*
X941620Y781447D01*
X941606Y781342D01*
X941597Y781237D01*
X941591Y781131D01*
X941589Y781025D01*
X941591Y780919D01*
X941597Y780813D01*
X941606Y780708D01*
X941620Y780603D01*
X941637Y780498D01*
X941658Y780394D01*
X941683Y780291D01*
X941712Y780189D01*
X941744Y780088D01*
X941780Y779989D01*
X941820Y779890D01*
X941863Y779794D01*
X941910Y779699D01*
X941960Y779605D01*
X942014Y779514D01*
X942071Y779424D01*
X942131Y779337D01*
X942194Y779252D01*
X942260Y779169D01*
X942329Y779089D01*
X942402Y779011D01*
X942476Y778937D01*
X942554Y778864D01*
X942634Y778795D01*
X942717Y778729D01*
X942802Y778666D01*
X942889Y778606D01*
X942979Y778549D01*
X943070Y778495D01*
X943164Y778445D01*
X943259Y778398D01*
X943355Y778355D01*
X943454Y778315D01*
X943553Y778279D01*
X943654Y778247D01*
X943756Y778218D01*
X943859Y778193D01*
X943963Y778172D01*
X944068Y778155D01*
X944173Y778141D01*
X944278Y778132D01*
X944384Y778126D01*
X944490Y778124D01*
D11*
X208026Y350147D02*
X201422Y350147D01*
X208026Y350147D02*
X208026Y351982D01*
X208024Y352067D01*
X208018Y352151D01*
X208008Y352235D01*
X207995Y352319D01*
X207977Y352402D01*
X207956Y352484D01*
X207931Y352565D01*
X207902Y352645D01*
X207870Y352723D01*
X207834Y352799D01*
X207794Y352874D01*
X207751Y352947D01*
X207705Y353018D01*
X207656Y353087D01*
X207603Y353154D01*
X207547Y353218D01*
X207489Y353279D01*
X207428Y353337D01*
X207364Y353393D01*
X207297Y353446D01*
X207228Y353495D01*
X207157Y353541D01*
X207084Y353584D01*
X207009Y353624D01*
X206933Y353660D01*
X206855Y353692D01*
X206775Y353721D01*
X206694Y353746D01*
X206612Y353767D01*
X206529Y353785D01*
X206445Y353798D01*
X206361Y353808D01*
X206277Y353814D01*
X206192Y353816D01*
X206107Y353814D01*
X206023Y353808D01*
X205939Y353798D01*
X205855Y353785D01*
X205772Y353767D01*
X205690Y353746D01*
X205609Y353721D01*
X205529Y353692D01*
X205451Y353660D01*
X205375Y353624D01*
X205300Y353584D01*
X205227Y353541D01*
X205156Y353495D01*
X205087Y353446D01*
X205020Y353393D01*
X204956Y353337D01*
X204895Y353279D01*
X204837Y353218D01*
X204781Y353154D01*
X204728Y353087D01*
X204679Y353018D01*
X204633Y352947D01*
X204590Y352874D01*
X204550Y352799D01*
X204514Y352723D01*
X204482Y352645D01*
X204453Y352565D01*
X204428Y352484D01*
X204407Y352402D01*
X204389Y352319D01*
X204376Y352235D01*
X204366Y352151D01*
X204360Y352067D01*
X204358Y351982D01*
X204357Y351982D02*
X204357Y350147D01*
X204357Y352349D02*
X201422Y353816D01*
X201422Y357384D02*
X201422Y359585D01*
X201424Y359659D01*
X201430Y359734D01*
X201439Y359807D01*
X201452Y359881D01*
X201469Y359953D01*
X201489Y360024D01*
X201513Y360095D01*
X201541Y360164D01*
X201572Y360231D01*
X201606Y360297D01*
X201644Y360362D01*
X201685Y360424D01*
X201729Y360484D01*
X201776Y360541D01*
X201826Y360596D01*
X201879Y360649D01*
X201934Y360699D01*
X201991Y360746D01*
X202051Y360790D01*
X202113Y360831D01*
X202178Y360869D01*
X202243Y360903D01*
X202311Y360934D01*
X202380Y360962D01*
X202451Y360986D01*
X202522Y361006D01*
X202594Y361023D01*
X202668Y361036D01*
X202741Y361045D01*
X202816Y361051D01*
X202890Y361053D01*
X203623Y361053D01*
X203697Y361051D01*
X203772Y361045D01*
X203845Y361036D01*
X203919Y361023D01*
X203991Y361006D01*
X204062Y360986D01*
X204133Y360962D01*
X204202Y360934D01*
X204269Y360903D01*
X204335Y360869D01*
X204400Y360831D01*
X204462Y360790D01*
X204522Y360746D01*
X204579Y360699D01*
X204634Y360649D01*
X204687Y360596D01*
X204737Y360541D01*
X204784Y360484D01*
X204828Y360424D01*
X204869Y360362D01*
X204907Y360297D01*
X204941Y360231D01*
X204972Y360164D01*
X205000Y360095D01*
X205024Y360024D01*
X205044Y359953D01*
X205061Y359881D01*
X205074Y359807D01*
X205083Y359734D01*
X205089Y359659D01*
X205091Y359585D01*
X205091Y357384D01*
X208026Y357384D01*
X208026Y361053D01*
X153416Y351417D02*
X146812Y351417D01*
X153416Y351417D02*
X153416Y353252D01*
X153414Y353337D01*
X153408Y353421D01*
X153398Y353505D01*
X153385Y353589D01*
X153367Y353672D01*
X153346Y353754D01*
X153321Y353835D01*
X153292Y353915D01*
X153260Y353993D01*
X153224Y354069D01*
X153184Y354144D01*
X153141Y354217D01*
X153095Y354288D01*
X153046Y354357D01*
X152993Y354424D01*
X152937Y354488D01*
X152879Y354549D01*
X152818Y354607D01*
X152754Y354663D01*
X152687Y354716D01*
X152618Y354765D01*
X152547Y354811D01*
X152474Y354854D01*
X152399Y354894D01*
X152323Y354930D01*
X152245Y354962D01*
X152165Y354991D01*
X152084Y355016D01*
X152002Y355037D01*
X151919Y355055D01*
X151835Y355068D01*
X151751Y355078D01*
X151667Y355084D01*
X151582Y355086D01*
X151497Y355084D01*
X151413Y355078D01*
X151329Y355068D01*
X151245Y355055D01*
X151162Y355037D01*
X151080Y355016D01*
X150999Y354991D01*
X150919Y354962D01*
X150841Y354930D01*
X150765Y354894D01*
X150690Y354854D01*
X150617Y354811D01*
X150546Y354765D01*
X150477Y354716D01*
X150410Y354663D01*
X150346Y354607D01*
X150285Y354549D01*
X150227Y354488D01*
X150171Y354424D01*
X150118Y354357D01*
X150069Y354288D01*
X150023Y354217D01*
X149980Y354144D01*
X149940Y354069D01*
X149904Y353993D01*
X149872Y353915D01*
X149843Y353835D01*
X149818Y353754D01*
X149797Y353672D01*
X149779Y353589D01*
X149766Y353505D01*
X149756Y353421D01*
X149750Y353337D01*
X149748Y353252D01*
X149747Y353252D02*
X149747Y351417D01*
X149747Y353619D02*
X146812Y355086D01*
X150481Y358654D02*
X150481Y360855D01*
X150479Y360929D01*
X150473Y361004D01*
X150464Y361077D01*
X150451Y361151D01*
X150434Y361223D01*
X150414Y361294D01*
X150390Y361365D01*
X150362Y361434D01*
X150331Y361501D01*
X150297Y361567D01*
X150259Y361632D01*
X150218Y361694D01*
X150174Y361754D01*
X150127Y361811D01*
X150077Y361866D01*
X150024Y361919D01*
X149969Y361969D01*
X149912Y362016D01*
X149852Y362060D01*
X149790Y362101D01*
X149725Y362139D01*
X149659Y362173D01*
X149592Y362204D01*
X149523Y362232D01*
X149452Y362256D01*
X149381Y362276D01*
X149309Y362293D01*
X149235Y362306D01*
X149162Y362315D01*
X149087Y362321D01*
X149013Y362323D01*
X148646Y362323D01*
X148646Y362322D02*
X148561Y362320D01*
X148477Y362314D01*
X148393Y362304D01*
X148309Y362291D01*
X148226Y362273D01*
X148144Y362252D01*
X148063Y362227D01*
X147983Y362198D01*
X147905Y362166D01*
X147829Y362130D01*
X147754Y362090D01*
X147681Y362047D01*
X147610Y362001D01*
X147541Y361952D01*
X147474Y361899D01*
X147410Y361843D01*
X147349Y361785D01*
X147291Y361724D01*
X147235Y361660D01*
X147182Y361593D01*
X147133Y361524D01*
X147087Y361453D01*
X147044Y361380D01*
X147004Y361305D01*
X146968Y361229D01*
X146936Y361151D01*
X146907Y361071D01*
X146882Y360990D01*
X146861Y360908D01*
X146843Y360825D01*
X146830Y360741D01*
X146820Y360657D01*
X146814Y360573D01*
X146812Y360488D01*
X146814Y360403D01*
X146820Y360319D01*
X146830Y360235D01*
X146843Y360151D01*
X146861Y360068D01*
X146882Y359986D01*
X146907Y359905D01*
X146936Y359825D01*
X146968Y359747D01*
X147004Y359671D01*
X147044Y359596D01*
X147087Y359523D01*
X147133Y359452D01*
X147182Y359383D01*
X147235Y359316D01*
X147291Y359252D01*
X147349Y359191D01*
X147410Y359133D01*
X147474Y359077D01*
X147541Y359024D01*
X147610Y358975D01*
X147681Y358929D01*
X147754Y358886D01*
X147829Y358846D01*
X147905Y358810D01*
X147983Y358778D01*
X148063Y358749D01*
X148144Y358724D01*
X148226Y358703D01*
X148309Y358685D01*
X148393Y358672D01*
X148477Y358662D01*
X148561Y358656D01*
X148646Y358654D01*
X150481Y358654D01*
X150588Y358656D01*
X150695Y358662D01*
X150802Y358672D01*
X150908Y358685D01*
X151014Y358703D01*
X151119Y358724D01*
X151223Y358749D01*
X151327Y358778D01*
X151429Y358811D01*
X151529Y358848D01*
X151629Y358888D01*
X151727Y358932D01*
X151823Y358979D01*
X151917Y359030D01*
X152010Y359084D01*
X152100Y359141D01*
X152189Y359202D01*
X152275Y359266D01*
X152358Y359333D01*
X152440Y359403D01*
X152518Y359476D01*
X152594Y359552D01*
X152667Y359630D01*
X152737Y359712D01*
X152804Y359795D01*
X152868Y359881D01*
X152929Y359970D01*
X152986Y360060D01*
X153040Y360153D01*
X153091Y360247D01*
X153138Y360343D01*
X153182Y360441D01*
X153222Y360541D01*
X153259Y360641D01*
X153292Y360743D01*
X153321Y360847D01*
X153346Y360951D01*
X153367Y361056D01*
X153385Y361162D01*
X153398Y361268D01*
X153408Y361375D01*
X153414Y361482D01*
X153416Y361589D01*
X132080Y331470D02*
X175260Y331470D01*
X177800Y313690D02*
X177798Y313590D01*
X177792Y313491D01*
X177782Y313391D01*
X177769Y313293D01*
X177751Y313194D01*
X177730Y313097D01*
X177705Y313001D01*
X177676Y312905D01*
X177643Y312811D01*
X177607Y312718D01*
X177567Y312627D01*
X177523Y312537D01*
X177476Y312449D01*
X177426Y312363D01*
X177372Y312279D01*
X177315Y312197D01*
X177255Y312118D01*
X177191Y312040D01*
X177125Y311966D01*
X177056Y311894D01*
X176984Y311825D01*
X176910Y311759D01*
X176832Y311695D01*
X176753Y311635D01*
X176671Y311578D01*
X176587Y311524D01*
X176501Y311474D01*
X176413Y311427D01*
X176323Y311383D01*
X176232Y311343D01*
X176139Y311307D01*
X176045Y311274D01*
X175949Y311245D01*
X175853Y311220D01*
X175756Y311199D01*
X175657Y311181D01*
X175559Y311168D01*
X175459Y311158D01*
X175360Y311152D01*
X175260Y311150D01*
X132080Y311150D02*
X131980Y311152D01*
X131881Y311158D01*
X131781Y311168D01*
X131683Y311181D01*
X131584Y311199D01*
X131487Y311220D01*
X131391Y311245D01*
X131295Y311274D01*
X131201Y311307D01*
X131108Y311343D01*
X131017Y311383D01*
X130927Y311427D01*
X130839Y311474D01*
X130753Y311524D01*
X130669Y311578D01*
X130587Y311635D01*
X130508Y311695D01*
X130430Y311759D01*
X130356Y311825D01*
X130284Y311894D01*
X130215Y311966D01*
X130149Y312040D01*
X130085Y312118D01*
X130025Y312197D01*
X129968Y312279D01*
X129914Y312363D01*
X129864Y312449D01*
X129817Y312537D01*
X129773Y312627D01*
X129733Y312718D01*
X129697Y312811D01*
X129664Y312905D01*
X129635Y313001D01*
X129610Y313097D01*
X129589Y313194D01*
X129571Y313293D01*
X129558Y313391D01*
X129548Y313491D01*
X129542Y313590D01*
X129540Y313690D01*
X129540Y328930D02*
X129542Y329030D01*
X129548Y329129D01*
X129558Y329229D01*
X129571Y329327D01*
X129589Y329426D01*
X129610Y329523D01*
X129635Y329619D01*
X129664Y329715D01*
X129697Y329809D01*
X129733Y329902D01*
X129773Y329993D01*
X129817Y330083D01*
X129864Y330171D01*
X129914Y330257D01*
X129968Y330341D01*
X130025Y330423D01*
X130085Y330502D01*
X130149Y330580D01*
X130215Y330654D01*
X130284Y330726D01*
X130356Y330795D01*
X130430Y330861D01*
X130508Y330925D01*
X130587Y330985D01*
X130669Y331042D01*
X130753Y331096D01*
X130839Y331146D01*
X130927Y331193D01*
X131017Y331237D01*
X131108Y331277D01*
X131201Y331313D01*
X131295Y331346D01*
X131391Y331375D01*
X131487Y331400D01*
X131584Y331421D01*
X131683Y331439D01*
X131781Y331452D01*
X131881Y331462D01*
X131980Y331468D01*
X132080Y331470D01*
X175260Y331470D02*
X175360Y331468D01*
X175459Y331462D01*
X175559Y331452D01*
X175657Y331439D01*
X175756Y331421D01*
X175853Y331400D01*
X175949Y331375D01*
X176045Y331346D01*
X176139Y331313D01*
X176232Y331277D01*
X176323Y331237D01*
X176413Y331193D01*
X176501Y331146D01*
X176587Y331096D01*
X176671Y331042D01*
X176753Y330985D01*
X176832Y330925D01*
X176910Y330861D01*
X176984Y330795D01*
X177056Y330726D01*
X177125Y330654D01*
X177191Y330580D01*
X177255Y330502D01*
X177315Y330423D01*
X177372Y330341D01*
X177426Y330257D01*
X177476Y330171D01*
X177523Y330083D01*
X177567Y329993D01*
X177607Y329902D01*
X177643Y329809D01*
X177676Y329715D01*
X177705Y329619D01*
X177730Y329523D01*
X177751Y329426D01*
X177769Y329327D01*
X177782Y329229D01*
X177792Y329129D01*
X177798Y329030D01*
X177800Y328930D01*
X177800Y313690D01*
X129540Y313690D02*
X129540Y328930D01*
X132080Y311150D02*
X175260Y311150D01*
D15*
X181991Y316526D02*
X181993Y316604D01*
X181998Y316682D01*
X182008Y316759D01*
X182021Y316836D01*
X182037Y316912D01*
X182057Y316987D01*
X182081Y317061D01*
X182108Y317134D01*
X182139Y317206D01*
X182173Y317276D01*
X182210Y317345D01*
X182251Y317411D01*
X182295Y317476D01*
X182341Y317538D01*
X182391Y317598D01*
X182443Y317656D01*
X182498Y317711D01*
X182556Y317763D01*
X182616Y317813D01*
X182678Y317859D01*
X182743Y317903D01*
X182810Y317944D01*
X182878Y317981D01*
X182948Y318015D01*
X183020Y318046D01*
X183093Y318073D01*
X183167Y318097D01*
X183242Y318117D01*
X183318Y318133D01*
X183395Y318146D01*
X183472Y318156D01*
X183550Y318161D01*
X183628Y318163D01*
X181991Y316526D02*
X181993Y316412D01*
X181998Y316299D01*
X182008Y316185D01*
X182021Y316072D01*
X182038Y315960D01*
X182058Y315848D01*
X182082Y315737D01*
X182110Y315626D01*
X182141Y315517D01*
X182176Y315409D01*
X182215Y315302D01*
X182257Y315196D01*
X182302Y315092D01*
X182351Y314989D01*
X182404Y314888D01*
X182459Y314789D01*
X182518Y314691D01*
X182580Y314596D01*
X182645Y314503D01*
X182713Y314411D01*
X182784Y314323D01*
X182858Y314236D01*
X182935Y314152D01*
X183014Y314071D01*
X187720Y314275D02*
X187798Y314277D01*
X187876Y314282D01*
X187953Y314292D01*
X188030Y314305D01*
X188106Y314321D01*
X188181Y314341D01*
X188255Y314365D01*
X188328Y314392D01*
X188400Y314423D01*
X188470Y314457D01*
X188539Y314494D01*
X188605Y314535D01*
X188670Y314579D01*
X188732Y314625D01*
X188792Y314675D01*
X188850Y314727D01*
X188905Y314782D01*
X188957Y314840D01*
X189007Y314900D01*
X189053Y314962D01*
X189097Y315027D01*
X189138Y315094D01*
X189175Y315162D01*
X189209Y315232D01*
X189240Y315304D01*
X189267Y315377D01*
X189291Y315451D01*
X189311Y315526D01*
X189327Y315602D01*
X189340Y315679D01*
X189350Y315756D01*
X189355Y315834D01*
X189357Y315912D01*
X189355Y316022D01*
X189349Y316131D01*
X189339Y316241D01*
X189326Y316349D01*
X189308Y316458D01*
X189287Y316565D01*
X189261Y316672D01*
X189232Y316778D01*
X189200Y316883D01*
X189163Y316986D01*
X189123Y317088D01*
X189079Y317189D01*
X189031Y317288D01*
X188981Y317385D01*
X188926Y317480D01*
X188868Y317573D01*
X188807Y317664D01*
X188743Y317753D01*
X186287Y315094D02*
X186329Y315027D01*
X186373Y314962D01*
X186421Y314900D01*
X186471Y314840D01*
X186524Y314782D01*
X186580Y314727D01*
X186639Y314675D01*
X186699Y314625D01*
X186763Y314578D01*
X186828Y314535D01*
X186895Y314494D01*
X186964Y314457D01*
X187035Y314423D01*
X187107Y314392D01*
X187181Y314365D01*
X187255Y314341D01*
X187331Y314321D01*
X187408Y314305D01*
X187485Y314292D01*
X187563Y314282D01*
X187642Y314277D01*
X187720Y314275D01*
X185060Y317345D02*
X185018Y317411D01*
X184974Y317476D01*
X184927Y317538D01*
X184876Y317598D01*
X184823Y317656D01*
X184767Y317711D01*
X184709Y317764D01*
X184648Y317813D01*
X184585Y317860D01*
X184520Y317903D01*
X184453Y317944D01*
X184384Y317981D01*
X184313Y318015D01*
X184241Y318046D01*
X184167Y318073D01*
X184092Y318097D01*
X184017Y318117D01*
X183940Y318133D01*
X183863Y318146D01*
X183785Y318156D01*
X183706Y318161D01*
X183628Y318163D01*
X185060Y317345D02*
X186288Y315094D01*
X183628Y322828D02*
X189357Y322828D01*
X183628Y322829D02*
X183550Y322827D01*
X183472Y322822D01*
X183395Y322812D01*
X183318Y322799D01*
X183242Y322783D01*
X183167Y322763D01*
X183093Y322739D01*
X183020Y322712D01*
X182948Y322681D01*
X182878Y322647D01*
X182810Y322610D01*
X182743Y322569D01*
X182678Y322525D01*
X182616Y322479D01*
X182556Y322429D01*
X182498Y322377D01*
X182443Y322322D01*
X182391Y322264D01*
X182341Y322204D01*
X182295Y322142D01*
X182251Y322077D01*
X182210Y322011D01*
X182173Y321942D01*
X182139Y321872D01*
X182108Y321800D01*
X182081Y321727D01*
X182057Y321653D01*
X182037Y321578D01*
X182021Y321502D01*
X182008Y321425D01*
X181998Y321348D01*
X181993Y321270D01*
X181991Y321192D01*
X181991Y320373D01*
X187720Y326263D02*
X189357Y328309D01*
X181991Y328309D01*
X181991Y326263D02*
X181991Y330355D01*
X897001Y857631D02*
X904367Y857631D01*
X904367Y859677D01*
X904365Y859766D01*
X904359Y859855D01*
X904349Y859944D01*
X904336Y860032D01*
X904319Y860120D01*
X904297Y860207D01*
X904272Y860292D01*
X904244Y860377D01*
X904211Y860460D01*
X904175Y860542D01*
X904136Y860622D01*
X904093Y860700D01*
X904047Y860776D01*
X903997Y860851D01*
X903944Y860923D01*
X903888Y860992D01*
X903829Y861059D01*
X903768Y861124D01*
X903703Y861185D01*
X903636Y861244D01*
X903567Y861300D01*
X903495Y861353D01*
X903420Y861403D01*
X903344Y861449D01*
X903266Y861492D01*
X903186Y861531D01*
X903104Y861567D01*
X903021Y861600D01*
X902936Y861628D01*
X902851Y861653D01*
X902764Y861675D01*
X902676Y861692D01*
X902588Y861705D01*
X902499Y861715D01*
X902410Y861721D01*
X902321Y861723D01*
X902232Y861721D01*
X902143Y861715D01*
X902054Y861705D01*
X901966Y861692D01*
X901878Y861675D01*
X901791Y861653D01*
X901706Y861628D01*
X901621Y861600D01*
X901538Y861567D01*
X901456Y861531D01*
X901376Y861492D01*
X901298Y861449D01*
X901222Y861403D01*
X901147Y861353D01*
X901075Y861300D01*
X901006Y861244D01*
X900939Y861185D01*
X900874Y861124D01*
X900813Y861059D01*
X900754Y860992D01*
X900698Y860923D01*
X900645Y860851D01*
X900595Y860776D01*
X900549Y860700D01*
X900506Y860622D01*
X900467Y860542D01*
X900431Y860460D01*
X900398Y860377D01*
X900370Y860292D01*
X900345Y860207D01*
X900323Y860120D01*
X900306Y860032D01*
X900293Y859944D01*
X900283Y859855D01*
X900277Y859766D01*
X900275Y859677D01*
X900275Y857631D01*
X900275Y860086D02*
X897001Y861723D01*
X903549Y864895D02*
X904367Y864895D01*
X904367Y868987D01*
X897001Y866941D01*
D16*
X655090Y360680D03*
X654590Y360680D03*
D17*
X654040Y360680D03*
D18*
X653490Y360930D03*
D19*
X652940Y360680D03*
D20*
X652390Y360680D03*
D19*
X651840Y360680D03*
D20*
X651290Y360680D03*
D21*
X650790Y360680D03*
D22*
X650240Y360680D03*
D21*
X649690Y360680D03*
D22*
X649140Y360680D03*
D21*
X648590Y360680D03*
D23*
X648040Y360680D03*
D24*
X647490Y360680D03*
D23*
X646940Y360680D03*
D24*
X646390Y360680D03*
D25*
X645890Y360430D03*
D26*
X645340Y360680D03*
D27*
X644790Y360680D03*
D26*
X644240Y360680D03*
D27*
X643690Y360680D03*
D28*
X643140Y360680D03*
D29*
X642590Y360680D03*
X642090Y360680D03*
D28*
X641540Y360680D03*
D29*
X640990Y360680D03*
D30*
X640440Y360680D03*
D31*
X639890Y360680D03*
D30*
X639340Y360680D03*
D31*
X638790Y360680D03*
D32*
X638290Y360380D03*
D33*
X637740Y360680D03*
D34*
X637190Y360680D03*
D33*
X636640Y360680D03*
D34*
X636090Y360680D03*
D35*
X635540Y360430D03*
D36*
X634990Y360680D03*
X634490Y360680D03*
D37*
X633940Y360680D03*
D38*
X633390Y360380D03*
D39*
X632840Y360680D03*
D40*
X632290Y360680D03*
D39*
X631740Y360680D03*
D40*
X631190Y360680D03*
D41*
X630690Y360430D03*
D42*
X630140Y360680D03*
D43*
X629590Y360680D03*
D42*
X629040Y360680D03*
D43*
X628490Y360680D03*
D44*
X627940Y360430D03*
D45*
X627390Y360680D03*
X626890Y360680D03*
D46*
X626340Y360680D03*
D45*
X625790Y360680D03*
D47*
X625240Y360380D03*
D48*
X624690Y360680D03*
D17*
X624140Y285180D03*
D49*
X624140Y360680D03*
D50*
X624140Y435630D03*
D18*
X623590Y286030D03*
D48*
X623590Y360680D03*
D18*
X623590Y435330D03*
D19*
X623040Y286280D03*
D51*
X623040Y360430D03*
D19*
X623040Y434580D03*
D52*
X622490Y287080D03*
D53*
X622490Y360680D03*
D52*
X622490Y434280D03*
D54*
X621990Y287630D03*
D53*
X621990Y360680D03*
D55*
X621990Y433430D03*
D56*
X621440Y288180D03*
D57*
X621440Y360680D03*
D58*
X621440Y432930D03*
D24*
X620890Y288980D03*
D53*
X620890Y360680D03*
D24*
X620890Y432380D03*
D23*
X620340Y289480D03*
D59*
X620340Y360680D03*
D60*
X620340Y431580D03*
D61*
X619790Y290030D03*
D62*
X619790Y360680D03*
D25*
X619790Y431030D03*
D63*
X619240Y290630D03*
D59*
X619240Y360680D03*
D64*
X619240Y430480D03*
D29*
X618690Y291180D03*
D62*
X618690Y360680D03*
D65*
X618690Y429930D03*
D29*
X618190Y291680D03*
D66*
X618190Y360680D03*
D67*
X618190Y429130D03*
D68*
X617640Y292530D03*
D69*
X617640Y360680D03*
D68*
X617640Y428830D03*
D32*
X617090Y293080D03*
D66*
X617090Y360680D03*
D70*
X617090Y428030D03*
D71*
X616540Y293580D03*
D69*
X616540Y360680D03*
D30*
X616540Y427480D03*
D32*
X615990Y294180D03*
D72*
X615990Y360380D03*
D73*
X615990Y426930D03*
D74*
X615440Y294680D03*
D75*
X615440Y360680D03*
D76*
X615440Y426430D03*
D77*
X614890Y295230D03*
D78*
X614890Y360680D03*
D36*
X614890Y425880D03*
D79*
X614390Y296030D03*
D78*
X614390Y360680D03*
D79*
X614390Y425330D03*
D39*
X613840Y296580D03*
D80*
X613840Y360430D03*
D81*
X613840Y424480D03*
D82*
X613290Y297130D03*
D83*
X613290Y360430D03*
D82*
X613290Y424230D03*
D42*
X612740Y297680D03*
D84*
X612740Y360680D03*
D85*
X612740Y423430D03*
D43*
X612190Y298180D03*
D86*
X612190Y360680D03*
D87*
X612190Y422880D03*
D44*
X611640Y299030D03*
D84*
X611640Y360680D03*
D44*
X611640Y422330D03*
D88*
X611090Y299580D03*
D89*
X611090Y360430D03*
D90*
X611090Y421530D03*
D91*
X610590Y300130D03*
D89*
X610590Y360430D03*
D91*
X610590Y421230D03*
D47*
X610040Y300680D03*
D92*
X610040Y360680D03*
D93*
X610040Y420430D03*
D48*
X609490Y301480D03*
D94*
X609490Y360680D03*
D48*
X609490Y419880D03*
D51*
X608940Y301730D03*
D92*
X608940Y360680D03*
D95*
X608940Y419080D03*
D96*
X608390Y302530D03*
D97*
X608390Y360380D03*
D96*
X608390Y418830D03*
D59*
X607840Y303080D03*
D98*
X607840Y360680D03*
D99*
X607840Y417980D03*
D100*
X607290Y303630D03*
D101*
X607290Y360680D03*
D102*
X607290Y417480D03*
D103*
X606790Y304430D03*
D101*
X606790Y360680D03*
D103*
X606790Y416930D03*
D104*
X606240Y304980D03*
D105*
X606240Y360430D03*
D69*
X606240Y416080D03*
D72*
X605690Y305580D03*
D106*
X605690Y360430D03*
D107*
X605690Y415530D03*
D108*
X605140Y306330D03*
D109*
X605140Y360680D03*
D108*
X605140Y415030D03*
D83*
X604590Y306630D03*
D110*
X604590Y360680D03*
D111*
X604590Y414430D03*
D84*
X604040Y307480D03*
D109*
X604040Y360680D03*
D84*
X604040Y413880D03*
D86*
X603490Y307980D03*
D112*
X603490Y360380D03*
D113*
X603490Y413080D03*
D114*
X602940Y308530D03*
D115*
X602940Y360380D03*
D116*
X602940Y412580D03*
D117*
X602390Y309030D03*
D118*
X602390Y360680D03*
D117*
X602390Y412330D03*
D97*
X601890Y309880D03*
D118*
X601890Y360680D03*
D97*
X601890Y411480D03*
D98*
X601340Y310180D03*
D119*
X601340Y360680D03*
D98*
X601340Y410680D03*
D120*
X600790Y310980D03*
D121*
X600790Y360430D03*
D120*
X600790Y410380D03*
D105*
X600240Y311530D03*
D122*
X600240Y360430D03*
D105*
X600240Y409830D03*
D112*
X599690Y312080D03*
D123*
X599690Y360680D03*
D124*
X599690Y409030D03*
D115*
X599140Y312580D03*
D125*
X599140Y360680D03*
D115*
X599140Y408780D03*
D121*
X598590Y313130D03*
D126*
X598590Y360380D03*
D127*
X598590Y407930D03*
D121*
X598090Y313730D03*
X598090Y360430D03*
D123*
X598090Y407380D03*
D125*
X597540Y314480D03*
D109*
X597540Y360680D03*
D125*
X597540Y406880D03*
D128*
X596990Y315030D03*
D97*
X596990Y360380D03*
D126*
X596990Y406080D03*
D129*
X596440Y315580D03*
D84*
X596440Y360680D03*
D129*
X596440Y405780D03*
D130*
X595890Y316130D03*
D66*
X595890Y360680D03*
D131*
X595890Y404930D03*
D132*
X595340Y316680D03*
D59*
X595340Y360680D03*
D133*
X595340Y404430D03*
D134*
X594790Y317480D03*
D48*
X594790Y360680D03*
D134*
X594790Y403880D03*
D135*
X594290Y317730D03*
D136*
X594290Y360430D03*
D135*
X594290Y403030D03*
D137*
X593740Y318580D03*
D39*
X593740Y360680D03*
D138*
X593740Y402530D03*
D139*
X593190Y319380D03*
D34*
X593190Y360680D03*
D139*
X593190Y401980D03*
D140*
X592640Y319980D03*
D30*
X592640Y360680D03*
D140*
X592640Y401380D03*
D141*
X592090Y320480D03*
D27*
X592090Y360680D03*
D141*
X592090Y400880D03*
D142*
X591540Y321030D03*
D23*
X591540Y360680D03*
D142*
X591540Y400330D03*
D143*
X590990Y321580D03*
D20*
X590990Y360680D03*
D144*
X590990Y399480D03*
D145*
X590490Y322130D03*
X590490Y399230D03*
D146*
X589940Y322930D03*
X589940Y398430D03*
D147*
X589390Y323180D03*
D148*
X589390Y397930D03*
D149*
X588840Y323980D03*
X588840Y397380D03*
D150*
X588290Y324830D03*
X588290Y396530D03*
D151*
X587740Y325130D03*
D152*
X587740Y395980D03*
D153*
X587190Y325880D03*
X587190Y395480D03*
X586690Y326480D03*
X586690Y394880D03*
D154*
X586140Y326730D03*
D155*
X586140Y394080D03*
D156*
X585590Y327530D03*
D157*
X585590Y393530D03*
D158*
X585040Y328380D03*
X585040Y392980D03*
D159*
X584490Y328630D03*
D160*
X584490Y392480D03*
D161*
X583940Y329430D03*
X583940Y391930D03*
D162*
X583390Y329980D03*
X583390Y391380D03*
D163*
X582890Y330530D03*
D164*
X582890Y390530D03*
D165*
X582340Y331080D03*
X582340Y390280D03*
D166*
X581790Y331630D03*
D167*
X581790Y389480D03*
D168*
X581240Y332130D03*
D169*
X581240Y388930D03*
D170*
X580690Y332980D03*
X580690Y388380D03*
D171*
X580140Y333280D03*
D172*
X580140Y387830D03*
D173*
X579590Y334080D03*
X579590Y387280D03*
D174*
X579040Y334880D03*
X579040Y386480D03*
D175*
X578490Y335180D03*
X578490Y385680D03*
D176*
X577990Y335980D03*
X577990Y385380D03*
D177*
X577440Y336480D03*
D178*
X577440Y384580D03*
D179*
X576890Y337030D03*
D180*
X576890Y384030D03*
D181*
X576340Y337880D03*
X576340Y383480D03*
D182*
X575790Y338130D03*
D183*
X575790Y382980D03*
D184*
X575240Y360380D03*
D185*
X574690Y360680D03*
D186*
X574190Y360430D03*
D187*
X573640Y360380D03*
D188*
X573090Y360680D03*
D189*
X572540Y360430D03*
D190*
X571990Y360680D03*
D191*
X571440Y360680D03*
D192*
X570890Y360380D03*
D193*
X570390Y360680D03*
D194*
X569840Y360680D03*
D195*
X569290Y360380D03*
D196*
X568740Y360680D03*
D197*
X568190Y360430D03*
D198*
X567640Y360380D03*
D199*
X567090Y360680D03*
D200*
X566590Y360430D03*
D201*
X566040Y360430D03*
D202*
X565490Y360680D03*
D203*
X564940Y360680D03*
D204*
X564390Y360680D03*
D205*
X563840Y360680D03*
D206*
X563290Y360380D03*
D207*
X562790Y360430D03*
D208*
X562240Y360680D03*
D209*
X561690Y360380D03*
D50*
X561140Y310730D03*
D210*
X561140Y360680D03*
D211*
X560590Y309880D03*
D212*
X560590Y360680D03*
D211*
X560590Y411480D03*
D213*
X560040Y308530D03*
D214*
X560040Y360430D03*
D28*
X560040Y412280D03*
D79*
X559490Y307430D03*
D215*
X559490Y360680D03*
D77*
X559490Y413630D03*
D44*
X558940Y306630D03*
D216*
X558940Y360680D03*
D44*
X558940Y414730D03*
D53*
X558390Y305280D03*
D217*
X558390Y360430D03*
D102*
X558390Y415780D03*
D78*
X557890Y304180D03*
D218*
X557890Y360680D03*
D72*
X557890Y416880D03*
D114*
X557340Y303130D03*
D219*
X557340Y360680D03*
D220*
X557340Y417980D03*
D112*
X556790Y302280D03*
D221*
X556790Y360430D03*
D124*
X556790Y418830D03*
D129*
X556240Y301480D03*
D222*
X556240Y360680D03*
D129*
X556240Y419880D03*
D223*
X555690Y300130D03*
D224*
X555690Y360680D03*
D139*
X555690Y420980D03*
D225*
X555140Y299280D03*
D226*
X555140Y360430D03*
D225*
X555140Y422080D03*
D153*
X554590Y298180D03*
D227*
X554590Y360680D03*
D153*
X554590Y423180D03*
D228*
X554090Y296830D03*
D229*
X554090Y360380D03*
D164*
X554090Y424230D03*
D171*
X553540Y295780D03*
D230*
X553540Y360680D03*
D172*
X553540Y425330D03*
D176*
X552990Y294680D03*
D231*
X552990Y360680D03*
D180*
X552990Y426430D03*
D232*
X552440Y293580D03*
D233*
X552440Y360430D03*
D232*
X552440Y427780D03*
D234*
X551890Y292780D03*
D235*
X551890Y360680D03*
D234*
X551890Y428580D03*
D236*
X551340Y291430D03*
D237*
X551340Y360680D03*
D238*
X551340Y429680D03*
D239*
X550790Y290330D03*
D240*
X550790Y360430D03*
D239*
X550790Y431030D03*
D241*
X550290Y289530D03*
D242*
X550290Y360680D03*
D241*
X550290Y431830D03*
D243*
X549740Y288180D03*
D244*
X549740Y360380D03*
D245*
X549740Y432930D03*
D246*
X549190Y287330D03*
D247*
X549190Y360680D03*
D248*
X549190Y434280D03*
D219*
X548640Y286280D03*
D249*
X548640Y360680D03*
D250*
X548640Y434830D03*
D248*
X548090Y287080D03*
D239*
X548090Y360430D03*
D248*
X548090Y434280D03*
D243*
X547540Y288180D03*
D244*
X547540Y360380D03*
D245*
X547540Y432930D03*
D241*
X546990Y289530D03*
D242*
X546990Y360680D03*
D241*
X546990Y431830D03*
D251*
X546490Y290580D03*
D240*
X546490Y360430D03*
D251*
X546490Y430780D03*
D236*
X545940Y291430D03*
D252*
X545940Y360380D03*
D253*
X545940Y429380D03*
D234*
X545390Y292780D03*
D235*
X545390Y360680D03*
D234*
X545390Y428580D03*
D254*
X544840Y293830D03*
D233*
X544840Y360430D03*
D254*
X544840Y427530D03*
D175*
X544290Y294980D03*
D255*
X544290Y360430D03*
D256*
X544290Y426130D03*
D172*
X543740Y296030D03*
D230*
X543740Y360680D03*
D168*
X543740Y425030D03*
D257*
X543190Y297080D03*
D229*
X543190Y360380D03*
D257*
X543190Y424280D03*
D150*
X542690Y298230D03*
D227*
X542690Y360680D03*
D258*
X542690Y422880D03*
D259*
X542140Y299580D03*
D226*
X542140Y360430D03*
D259*
X542140Y421780D03*
D135*
X541590Y300430D03*
D224*
X541590Y360680D03*
D134*
X541590Y420680D03*
D129*
X541040Y301480D03*
D222*
X541040Y360680D03*
D129*
X541040Y419880D03*
D112*
X540490Y302280D03*
D221*
X540490Y360430D03*
D124*
X540490Y418830D03*
D116*
X539940Y303380D03*
D219*
X539940Y360680D03*
D260*
X539940Y417430D03*
D107*
X539390Y304730D03*
D218*
X539390Y360680D03*
D107*
X539390Y416630D03*
D48*
X538890Y305780D03*
D217*
X538890Y360430D03*
D48*
X538890Y415580D03*
D85*
X538340Y306630D03*
D216*
X538340Y360680D03*
D261*
X538340Y414180D03*
D34*
X537790Y307980D03*
D215*
X537790Y360680D03*
D34*
X537790Y413380D03*
D26*
X537240Y309080D03*
D214*
X537240Y360430D03*
D26*
X537240Y412280D03*
D20*
X536690Y310180D03*
D212*
X536690Y360680D03*
D54*
X536690Y410930D03*
D210*
X536140Y360680D03*
D209*
X535590Y360380D03*
D208*
X535040Y360680D03*
D262*
X534490Y360680D03*
D206*
X533990Y360380D03*
D205*
X533440Y360680D03*
D204*
X532890Y360680D03*
D263*
X532340Y360380D03*
D202*
X531790Y360680D03*
D264*
X531240Y360680D03*
D200*
X530690Y360430D03*
D199*
X530190Y360680D03*
D265*
X529640Y360680D03*
D197*
X529090Y360430D03*
D196*
X528540Y360680D03*
D195*
X527990Y360380D03*
D194*
X527440Y360680D03*
D193*
X526890Y360680D03*
D192*
X526390Y360380D03*
D191*
X525840Y360680D03*
D190*
X525290Y360680D03*
D189*
X524740Y360430D03*
D188*
X524190Y360680D03*
D266*
X523640Y360680D03*
D186*
X523090Y360430D03*
D185*
X522590Y360680D03*
D267*
X522040Y360680D03*
D182*
X521490Y338130D03*
D179*
X521490Y383230D03*
D268*
X520940Y337580D03*
X520940Y383780D03*
D269*
X520390Y336780D03*
D176*
X520390Y384280D03*
D270*
X519840Y336230D03*
D177*
X519840Y384880D03*
D175*
X519290Y335680D03*
X519290Y385680D03*
X518790Y335180D03*
D271*
X518790Y385930D03*
D272*
X518240Y334630D03*
X518240Y386730D03*
D273*
X517690Y333780D03*
X517690Y387580D03*
D171*
X517140Y333280D03*
D172*
X517140Y387830D03*
D166*
X516590Y332730D03*
X516590Y388630D03*
D168*
X516040Y332130D03*
X516040Y389230D03*
D167*
X515490Y331380D03*
D163*
X515490Y389730D03*
D165*
X514940Y331080D03*
X514940Y390280D03*
D164*
X514390Y330230D03*
D228*
X514390Y390830D03*
D164*
X513890Y329730D03*
D162*
X513890Y391380D03*
D274*
X513340Y329180D03*
X513340Y392180D03*
D160*
X512790Y328380D03*
X512790Y392480D03*
D275*
X512240Y328130D03*
X512240Y393230D03*
D156*
X511690Y327530D03*
X511690Y393830D03*
D154*
X511140Y326730D03*
D276*
X511140Y394380D03*
D258*
X510590Y326180D03*
D153*
X510590Y394880D03*
D277*
X510090Y325630D03*
X510090Y395730D03*
D278*
X509540Y324830D03*
D152*
X509540Y395980D03*
D279*
X508990Y324280D03*
D280*
X508990Y396780D03*
D281*
X508440Y323730D03*
X508440Y397630D03*
D147*
X507890Y323180D03*
D148*
X507890Y397930D03*
D225*
X507340Y322680D03*
X507340Y398680D03*
D145*
X506790Y322130D03*
D16*
X506790Y360680D03*
D145*
X506790Y399230D03*
D144*
X506290Y321280D03*
D21*
X506290Y360680D03*
D141*
X506290Y399780D03*
D282*
X505740Y320480D03*
D23*
X505740Y360680D03*
D142*
X505740Y400330D03*
D283*
X505190Y320230D03*
D29*
X505190Y360680D03*
D283*
X505190Y401130D03*
D140*
X504640Y319380D03*
D30*
X504640Y360680D03*
D137*
X504640Y401680D03*
D223*
X504090Y319130D03*
D36*
X504090Y360680D03*
D223*
X504090Y402230D03*
D138*
X503540Y318330D03*
D85*
X503540Y360430D03*
D138*
X503540Y403030D03*
D135*
X502990Y317730D03*
D45*
X502990Y360680D03*
D284*
X502990Y403330D03*
D130*
X502490Y317230D03*
D285*
X502490Y360430D03*
D130*
X502490Y404130D03*
D132*
X501940Y316680D03*
D59*
X501940Y360680D03*
D132*
X501940Y404680D03*
D131*
X501390Y315830D03*
D78*
X501390Y360680D03*
D128*
X501390Y405230D03*
D286*
X500840Y315280D03*
D260*
X500840Y360430D03*
D129*
X500840Y405780D03*
D126*
X500290Y314780D03*
D101*
X500290Y360680D03*
D126*
X500290Y406580D03*
D125*
X499740Y313980D03*
D115*
X499740Y360380D03*
D122*
X499740Y407130D03*
D121*
X499190Y313730D03*
D123*
X499190Y360680D03*
D121*
X499190Y407630D03*
D118*
X498690Y312880D03*
D123*
X498690Y360680D03*
D112*
X498690Y408180D03*
D287*
X498140Y312330D03*
D125*
X498140Y360680D03*
D115*
X498140Y408780D03*
D110*
X497590Y311780D03*
D123*
X497590Y360680D03*
D110*
X497590Y409580D03*
D287*
X497040Y311230D03*
D122*
X497040Y360430D03*
D105*
X497040Y409830D03*
D101*
X496490Y310680D03*
D121*
X496490Y360430D03*
D101*
X496490Y410680D03*
D98*
X495940Y310180D03*
D119*
X495940Y360680D03*
D98*
X495940Y411180D03*
D288*
X495390Y309330D03*
D118*
X495390Y360680D03*
D117*
X495390Y411730D03*
X494890Y309030D03*
D118*
X494890Y360680D03*
D117*
X494890Y412330D03*
D116*
X494340Y308280D03*
D115*
X494340Y360380D03*
D289*
X494340Y412830D03*
D89*
X493790Y307730D03*
D110*
X493790Y360680D03*
D86*
X493790Y413380D03*
D290*
X493240Y307180D03*
D109*
X493240Y360680D03*
D290*
X493240Y414180D03*
D111*
X492690Y306330D03*
D110*
X492690Y360680D03*
D111*
X492690Y414430D03*
D104*
X492140Y306080D03*
D109*
X492140Y360680D03*
D104*
X492140Y415280D03*
D66*
X491590Y305280D03*
D106*
X491590Y360430D03*
D72*
X491590Y415780D03*
D291*
X491040Y304730D03*
D98*
X491040Y360680D03*
D292*
X491040Y416330D03*
D62*
X490490Y304180D03*
D101*
X490490Y360680D03*
D103*
X490490Y416930D03*
D100*
X489990Y303630D03*
D101*
X489990Y360680D03*
D100*
X489990Y417730D03*
D293*
X489440Y302830D03*
D220*
X489440Y360380D03*
D294*
X489440Y418230D03*
D295*
X488890Y302280D03*
D97*
X488890Y360380D03*
D96*
X488890Y418830D03*
D51*
X488340Y301730D03*
D92*
X488340Y360680D03*
D51*
X488340Y419630D03*
D296*
X487790Y300930D03*
D94*
X487790Y360680D03*
D48*
X487790Y419880D03*
D47*
X487240Y300680D03*
D92*
X487240Y360680D03*
D47*
X487240Y420680D03*
D90*
X486690Y299830D03*
D89*
X486690Y360430D03*
D90*
X486690Y421530D03*
X486190Y299330D03*
D89*
X486190Y360430D03*
D88*
X486190Y421780D03*
D42*
X485640Y298780D03*
D84*
X485640Y360680D03*
D42*
X485640Y422580D03*
D41*
X485090Y297930D03*
D86*
X485090Y360680D03*
D43*
X485090Y423180D03*
D261*
X484540Y297380D03*
D84*
X484540Y360680D03*
D297*
X484540Y423730D03*
D38*
X483990Y296880D03*
D83*
X483990Y360430D03*
D82*
X483990Y424230D03*
D81*
X483440Y296280D03*
D75*
X483440Y360680D03*
D37*
X483440Y424780D03*
D36*
X482890Y295480D03*
D78*
X482890Y360680D03*
D79*
X482890Y425330D03*
D77*
X482390Y295230D03*
D78*
X482390Y360680D03*
D77*
X482390Y426130D03*
D74*
X481840Y294680D03*
D104*
X481840Y360380D03*
D76*
X481840Y426430D03*
D34*
X481290Y293880D03*
D72*
X481290Y360380D03*
D32*
X481290Y427180D03*
D298*
X480740Y293330D03*
D69*
X480740Y360680D03*
D71*
X480740Y427780D03*
D31*
X480190Y292780D03*
D66*
X480190Y360680D03*
D299*
X480190Y428330D03*
D68*
X479640Y291930D03*
D69*
X479640Y360680D03*
D213*
X479640Y429130D03*
D29*
X479090Y291680D03*
D62*
X479090Y360680D03*
D29*
X479090Y429680D03*
D300*
X478590Y290880D03*
D62*
X478590Y360680D03*
D61*
X478590Y430230D03*
D301*
X478040Y290330D03*
D59*
X478040Y360680D03*
D63*
X478040Y430730D03*
D302*
X477490Y289780D03*
D62*
X477490Y360680D03*
D302*
X477490Y431580D03*
D23*
X476940Y288980D03*
D59*
X476940Y360680D03*
D23*
X476940Y431880D03*
D303*
X476390Y288730D03*
D53*
X476390Y360680D03*
D303*
X476390Y432630D03*
D58*
X475840Y287930D03*
D57*
X475840Y360680D03*
D56*
X475840Y433180D03*
D55*
X475290Y287330D03*
D53*
X475290Y360680D03*
D54*
X475290Y433730D03*
D20*
X474790Y286780D03*
D285*
X474790Y360430D03*
D52*
X474790Y434280D03*
D19*
X474240Y286280D03*
D51*
X474240Y360430D03*
D19*
X474240Y435080D03*
D18*
X473690Y285430D03*
D48*
X473690Y360680D03*
D18*
X473690Y435330D03*
D49*
X473140Y360680D03*
D48*
X472590Y360680D03*
D47*
X472040Y360380D03*
D45*
X471490Y360680D03*
D46*
X470940Y360680D03*
D45*
X470390Y360680D03*
X469890Y360680D03*
D44*
X469340Y360430D03*
D43*
X468790Y360680D03*
D42*
X468240Y360680D03*
D43*
X467690Y360680D03*
D42*
X467140Y360680D03*
D41*
X466590Y360430D03*
D40*
X466090Y360680D03*
D39*
X465540Y360680D03*
D40*
X464990Y360680D03*
D81*
X464440Y360380D03*
D36*
X463890Y360680D03*
D37*
X463340Y360680D03*
D36*
X462790Y360680D03*
X462290Y360680D03*
D35*
X461740Y360430D03*
D34*
X461190Y360680D03*
D33*
X460640Y360680D03*
D34*
X460090Y360680D03*
D33*
X459540Y360680D03*
D32*
X458990Y360380D03*
D31*
X458490Y360680D03*
D30*
X457940Y360680D03*
D31*
X457390Y360680D03*
D30*
X456840Y360680D03*
D29*
X456290Y360680D03*
D28*
X455740Y360680D03*
D29*
X455190Y360680D03*
X454690Y360680D03*
D64*
X454140Y360380D03*
D27*
X453590Y360680D03*
D26*
X453040Y360680D03*
D27*
X452490Y360680D03*
D26*
X451940Y360680D03*
D25*
X451390Y360430D03*
D24*
X450890Y360680D03*
D23*
X450340Y360680D03*
D24*
X449790Y360680D03*
D23*
X449240Y360680D03*
D21*
X448690Y360680D03*
D22*
X448140Y360680D03*
D21*
X447590Y360680D03*
D22*
X447040Y360680D03*
D21*
X446490Y360680D03*
D20*
X445990Y360680D03*
D19*
X445440Y360680D03*
D20*
X444890Y360680D03*
D19*
X444340Y360680D03*
D20*
X443790Y360680D03*
D17*
X443240Y360680D03*
D16*
X442690Y360680D03*
X442190Y360680D03*
M02*
