G04 EAGLE Gerber X2 export*
%TF.Part,Single*%
%TF.FileFunction,Paste,Top*%
%TF.FilePolarity,Positive*%
%TF.GenerationSoftware,Autodesk,EAGLE,9.0.0*%
%TF.CreationDate,2018-05-04T20:30:49Z*%
G75*
%MOMM*%
%FSLAX34Y34*%
%LPD*%
%AMOC8*
5,1,8,0,0,1.08239X$1,22.5*%
G01*
%ADD10R,1.200000X2.100000*%
%ADD11R,0.800000X0.400000*%
%ADD12R,1.600000X1.800000*%
%ADD13R,1.850000X1.100000*%
%ADD14R,1.900000X2.000000*%
%ADD15R,1.300000X1.600000*%


D10*
X154940Y398780D03*
D11*
X140440Y388780D03*
X140440Y398780D03*
X140440Y408780D03*
X169440Y388780D03*
X169440Y398780D03*
X169440Y408780D03*
D12*
X407700Y317500D03*
X379700Y317500D03*
X595600Y317500D03*
X623600Y317500D03*
X483900Y317500D03*
X455900Y317500D03*
X697200Y317500D03*
X725200Y317500D03*
D13*
G36*
X103339Y556382D02*
X90259Y569462D01*
X98037Y577240D01*
X111117Y564160D01*
X103339Y556382D01*
G37*
G36*
X150362Y509359D02*
X137282Y522439D01*
X145060Y530217D01*
X158140Y517137D01*
X150362Y509359D01*
G37*
G36*
X83540Y536583D02*
X70460Y549663D01*
X78238Y557441D01*
X91318Y544361D01*
X83540Y536583D01*
G37*
G36*
X93440Y546482D02*
X80360Y559562D01*
X88138Y567340D01*
X101218Y554260D01*
X93440Y546482D01*
G37*
G36*
X130563Y489560D02*
X117483Y502640D01*
X125261Y510418D01*
X138341Y497338D01*
X130563Y489560D01*
G37*
G36*
X140462Y499460D02*
X127382Y512540D01*
X135160Y520318D01*
X148240Y507238D01*
X140462Y499460D01*
G37*
D14*
G36*
X143151Y548816D02*
X129716Y562251D01*
X143857Y576392D01*
X157292Y562957D01*
X143151Y548816D01*
G37*
G36*
X84743Y490408D02*
X71308Y503843D01*
X85449Y517984D01*
X98884Y504549D01*
X84743Y490408D01*
G37*
D15*
X869290Y689610D03*
X850290Y689610D03*
M02*
