G04 EAGLE Gerber X2 export*
%TF.Part,Single*%
%TF.FileFunction,Copper,L1,Top,Mixed*%
%TF.FilePolarity,Positive*%
%TF.GenerationSoftware,Autodesk,EAGLE,9.1.3*%
%TF.CreationDate,2018-08-24T15:03:00Z*%
G75*
%MOMM*%
%FSLAX34Y34*%
%LPD*%
%AMOC8*
5,1,8,0,0,1.08239X$1,22.5*%
G01*
%ADD10C,2.159000*%
%ADD11C,1.676400*%
%ADD12C,1.879600*%
%ADD13R,1.850000X1.100000*%
%ADD14R,1.900000X2.000000*%
%ADD15R,0.850000X0.450000*%
%ADD16R,1.600000X2.500000*%
%ADD17C,1.778000*%
%ADD18R,2.540000X1.524000*%
%ADD19R,3.048000X1.524000*%
%ADD20C,0.304800*%
%ADD21C,0.906400*%
%ADD22C,0.756400*%
%ADD23C,0.508000*%
%ADD24C,0.508000*%
%ADD25C,0.203200*%
%ADD26C,0.706400*%

G36*
X554177Y36340D02*
X554177Y36340D01*
X554324Y36351D01*
X554350Y36359D01*
X554377Y36363D01*
X554516Y36412D01*
X554656Y36457D01*
X554679Y36471D01*
X554705Y36480D01*
X554829Y36560D01*
X554955Y36635D01*
X554975Y36654D01*
X554998Y36669D01*
X555101Y36775D01*
X555206Y36877D01*
X555225Y36904D01*
X555240Y36920D01*
X555265Y36962D01*
X555346Y37078D01*
X721012Y320718D01*
X721030Y320758D01*
X721104Y320903D01*
X721293Y321360D01*
X721380Y321447D01*
X721426Y321504D01*
X721479Y321555D01*
X721569Y321685D01*
X721597Y321720D01*
X721604Y321735D01*
X721618Y321756D01*
X721680Y321862D01*
X722074Y322161D01*
X722105Y322191D01*
X722230Y322297D01*
X722580Y322647D01*
X722693Y322693D01*
X722757Y322729D01*
X722825Y322756D01*
X722958Y322841D01*
X722998Y322863D01*
X723010Y322874D01*
X723031Y322888D01*
X723129Y322962D01*
X723607Y323087D01*
X723648Y323103D01*
X723803Y323153D01*
X724260Y323343D01*
X724383Y323343D01*
X724456Y323351D01*
X724529Y323350D01*
X724684Y323377D01*
X724729Y323383D01*
X724745Y323388D01*
X724770Y323393D01*
X724888Y323424D01*
X725379Y323357D01*
X725422Y323356D01*
X725585Y323343D01*
X1056944Y323343D01*
X1057091Y323360D01*
X1057240Y323372D01*
X1057265Y323380D01*
X1057291Y323383D01*
X1057430Y323433D01*
X1057572Y323478D01*
X1057594Y323491D01*
X1057619Y323500D01*
X1057744Y323581D01*
X1057871Y323657D01*
X1057889Y323675D01*
X1057911Y323689D01*
X1058015Y323796D01*
X1058121Y323899D01*
X1058139Y323925D01*
X1058154Y323940D01*
X1058178Y323981D01*
X1058261Y324100D01*
X1227121Y614288D01*
X1227162Y614384D01*
X1227213Y614475D01*
X1227232Y614543D01*
X1227260Y614608D01*
X1227279Y614710D01*
X1227308Y614811D01*
X1227315Y614904D01*
X1227324Y614950D01*
X1227322Y614988D01*
X1227327Y615055D01*
X1227327Y623173D01*
X1227315Y623281D01*
X1227312Y623391D01*
X1227295Y623454D01*
X1227287Y623519D01*
X1227250Y623622D01*
X1227222Y623728D01*
X1227185Y623805D01*
X1227170Y623847D01*
X1227148Y623881D01*
X1227115Y623948D01*
X1057014Y911619D01*
X1056927Y911734D01*
X1056846Y911851D01*
X1056822Y911872D01*
X1056803Y911897D01*
X1056693Y911988D01*
X1056587Y912084D01*
X1056559Y912100D01*
X1056535Y912120D01*
X1056407Y912184D01*
X1056282Y912253D01*
X1056252Y912261D01*
X1056223Y912275D01*
X1056084Y912309D01*
X1055946Y912348D01*
X1055908Y912351D01*
X1055884Y912356D01*
X1055835Y912357D01*
X1055703Y912367D01*
X726851Y912367D01*
X726808Y912362D01*
X726647Y912353D01*
X726153Y912287D01*
X726038Y912317D01*
X725965Y912327D01*
X725893Y912348D01*
X725738Y912360D01*
X725693Y912367D01*
X725676Y912365D01*
X725650Y912367D01*
X725530Y912367D01*
X725070Y912558D01*
X725028Y912570D01*
X724876Y912623D01*
X724394Y912750D01*
X724300Y912823D01*
X724236Y912861D01*
X724178Y912906D01*
X724040Y912977D01*
X724000Y913001D01*
X723983Y913006D01*
X723960Y913018D01*
X723850Y913063D01*
X723498Y913416D01*
X723463Y913443D01*
X723343Y913551D01*
X722947Y913852D01*
X722887Y913955D01*
X722842Y914014D01*
X722806Y914079D01*
X722706Y914198D01*
X722678Y914234D01*
X722665Y914245D01*
X722648Y914265D01*
X722563Y914350D01*
X722373Y914810D01*
X722351Y914848D01*
X722282Y914994D01*
X554073Y1203711D01*
X553984Y1203830D01*
X553899Y1203951D01*
X553880Y1203969D01*
X553864Y1203990D01*
X553750Y1204085D01*
X553641Y1204184D01*
X553617Y1204197D01*
X553597Y1204214D01*
X553466Y1204281D01*
X553336Y1204353D01*
X553310Y1204360D01*
X553286Y1204372D01*
X553143Y1204407D01*
X553000Y1204448D01*
X552968Y1204450D01*
X552948Y1204455D01*
X552900Y1204456D01*
X552756Y1204467D01*
X219424Y1204467D01*
X219274Y1204450D01*
X219122Y1204437D01*
X219101Y1204430D01*
X219078Y1204427D01*
X218935Y1204376D01*
X218791Y1204329D01*
X218771Y1204318D01*
X218750Y1204310D01*
X218622Y1204227D01*
X218492Y1204149D01*
X218476Y1204133D01*
X218457Y1204121D01*
X218351Y1204011D01*
X218243Y1203906D01*
X218228Y1203883D01*
X218215Y1203870D01*
X218191Y1203830D01*
X218104Y1203704D01*
X51766Y914801D01*
X51726Y914708D01*
X51677Y914620D01*
X51657Y914549D01*
X51628Y914481D01*
X51610Y914381D01*
X51582Y914284D01*
X51574Y914185D01*
X51566Y914138D01*
X51568Y914102D01*
X51563Y914041D01*
X51563Y904586D01*
X51570Y904525D01*
X51570Y904523D01*
X51571Y904513D01*
X51574Y904489D01*
X51575Y904391D01*
X51594Y904316D01*
X51603Y904239D01*
X51619Y904194D01*
X51621Y904178D01*
X51639Y904134D01*
X51659Y904053D01*
X51704Y903958D01*
X51720Y903911D01*
X51739Y903883D01*
X51740Y903880D01*
X51750Y903854D01*
X51755Y903847D01*
X51763Y903831D01*
X210577Y625277D01*
X210625Y625211D01*
X210664Y625140D01*
X210754Y625035D01*
X210783Y624996D01*
X210800Y624981D01*
X210823Y624954D01*
X210887Y624890D01*
X211088Y624404D01*
X211112Y624361D01*
X211172Y624232D01*
X211433Y623775D01*
X211444Y623685D01*
X211464Y623606D01*
X211473Y623526D01*
X211515Y623394D01*
X211527Y623347D01*
X211537Y623327D01*
X211548Y623293D01*
X211583Y623210D01*
X211583Y622683D01*
X211588Y622635D01*
X211595Y622492D01*
X211661Y621970D01*
X211637Y621883D01*
X211624Y621803D01*
X211602Y621724D01*
X211591Y621587D01*
X211584Y621538D01*
X211586Y621516D01*
X211583Y621481D01*
X211583Y616744D01*
X211591Y616669D01*
X211590Y616594D01*
X211617Y616444D01*
X211623Y616398D01*
X211629Y616381D01*
X211634Y616354D01*
X211663Y616242D01*
X211596Y615745D01*
X211595Y615700D01*
X211583Y615542D01*
X211583Y615040D01*
X211538Y614934D01*
X211518Y614861D01*
X211488Y614793D01*
X211456Y614643D01*
X211443Y614598D01*
X211442Y614580D01*
X211436Y614554D01*
X211421Y614439D01*
X211169Y614005D01*
X211151Y613964D01*
X211078Y613823D01*
X210887Y613360D01*
X210805Y613278D01*
X210758Y613219D01*
X210704Y613167D01*
X210617Y613041D01*
X210588Y613005D01*
X210580Y612989D01*
X210565Y612966D01*
X47959Y333133D01*
X47917Y333038D01*
X47867Y332947D01*
X47848Y332878D01*
X47819Y332813D01*
X47801Y332711D01*
X47772Y332611D01*
X47765Y332517D01*
X47756Y332471D01*
X47758Y332433D01*
X47753Y332367D01*
X47753Y325517D01*
X47765Y325409D01*
X47768Y325299D01*
X47785Y325236D01*
X47793Y325171D01*
X47830Y325068D01*
X47858Y324962D01*
X47895Y324885D01*
X47910Y324843D01*
X47932Y324809D01*
X47965Y324742D01*
X218066Y37071D01*
X218153Y36956D01*
X218234Y36839D01*
X218258Y36818D01*
X218277Y36793D01*
X218387Y36702D01*
X218493Y36606D01*
X218521Y36590D01*
X218545Y36570D01*
X218673Y36506D01*
X218798Y36437D01*
X218828Y36429D01*
X218857Y36415D01*
X218996Y36381D01*
X219134Y36342D01*
X219172Y36339D01*
X219196Y36334D01*
X219245Y36333D01*
X219377Y36323D01*
X554031Y36323D01*
X554177Y36340D01*
G37*
%LPC*%
G36*
X383628Y166755D02*
X383628Y166755D01*
X382974Y169195D01*
X399477Y197779D01*
X401917Y198432D01*
X408741Y194492D01*
X408742Y194492D01*
X408744Y194491D01*
X408907Y194420D01*
X409061Y194354D01*
X409062Y194353D01*
X409064Y194353D01*
X409236Y194322D01*
X409404Y194291D01*
X409405Y194291D01*
X409407Y194291D01*
X409577Y194300D01*
X409752Y194309D01*
X409753Y194309D01*
X409755Y194309D01*
X409921Y194357D01*
X410087Y194405D01*
X410088Y194405D01*
X410090Y194406D01*
X410244Y194492D01*
X410392Y194574D01*
X410393Y194575D01*
X410394Y194576D01*
X410580Y194734D01*
X413183Y197338D01*
X413215Y197377D01*
X413253Y197412D01*
X413323Y197514D01*
X413400Y197611D01*
X413422Y197657D01*
X413451Y197699D01*
X413496Y197814D01*
X413549Y197926D01*
X413560Y197976D01*
X413578Y198023D01*
X413596Y198145D01*
X413622Y198266D01*
X413621Y198317D01*
X413629Y198368D01*
X413618Y198491D01*
X413616Y198615D01*
X413604Y198664D01*
X413599Y198715D01*
X413561Y198833D01*
X413531Y198953D01*
X413508Y198998D01*
X413492Y199047D01*
X413428Y199152D01*
X413372Y199263D01*
X413338Y199301D01*
X413312Y199345D01*
X413226Y199434D01*
X413146Y199528D01*
X413105Y199558D01*
X413069Y199595D01*
X412868Y199734D01*
X405218Y204150D01*
X404425Y207111D01*
X404397Y207181D01*
X404378Y207255D01*
X404333Y207343D01*
X404297Y207435D01*
X404254Y207497D01*
X404219Y207565D01*
X404155Y207640D01*
X404098Y207722D01*
X404042Y207772D01*
X403993Y207830D01*
X403913Y207889D01*
X403840Y207956D01*
X403774Y207992D01*
X403713Y208037D01*
X403622Y208077D01*
X403535Y208125D01*
X403462Y208145D01*
X403393Y208175D01*
X403295Y208193D01*
X403200Y208220D01*
X403124Y208224D01*
X403050Y208237D01*
X402951Y208232D01*
X402852Y208237D01*
X402777Y208223D01*
X402702Y208219D01*
X402606Y208192D01*
X402509Y208174D01*
X402440Y208144D01*
X402367Y208123D01*
X402280Y208074D01*
X402189Y208035D01*
X402129Y207989D01*
X402063Y207952D01*
X401947Y207854D01*
X401910Y207826D01*
X401898Y207812D01*
X401876Y207794D01*
X396144Y202062D01*
X396050Y201944D01*
X395953Y201828D01*
X395942Y201807D01*
X395927Y201789D01*
X395863Y201652D01*
X395794Y201518D01*
X395789Y201495D01*
X395778Y201474D01*
X395747Y201326D01*
X395710Y201179D01*
X395710Y201156D01*
X395705Y201133D01*
X395708Y200982D01*
X395706Y200831D01*
X395711Y200803D01*
X395711Y200784D01*
X395723Y200739D01*
X395750Y200590D01*
X395959Y199810D01*
X379456Y171226D01*
X377016Y170573D01*
X361631Y179455D01*
X360977Y181895D01*
X377480Y210479D01*
X379920Y211132D01*
X386744Y207192D01*
X386745Y207192D01*
X386747Y207191D01*
X386910Y207120D01*
X387064Y207054D01*
X387065Y207053D01*
X387067Y207053D01*
X387239Y207022D01*
X387407Y206991D01*
X387408Y206991D01*
X387410Y206991D01*
X387580Y207000D01*
X387755Y207009D01*
X387756Y207009D01*
X387758Y207009D01*
X387918Y207055D01*
X388090Y207105D01*
X388091Y207105D01*
X388093Y207106D01*
X388245Y207191D01*
X388395Y207274D01*
X388396Y207275D01*
X388397Y207276D01*
X388583Y207434D01*
X391186Y210037D01*
X391218Y210077D01*
X391256Y210112D01*
X391326Y210214D01*
X391403Y210310D01*
X391425Y210357D01*
X391454Y210399D01*
X391499Y210514D01*
X391552Y210626D01*
X391563Y210676D01*
X391581Y210723D01*
X391599Y210845D01*
X391625Y210966D01*
X391624Y211017D01*
X391632Y211068D01*
X391621Y211191D01*
X391619Y211315D01*
X391607Y211364D01*
X391602Y211415D01*
X391564Y211533D01*
X391534Y211653D01*
X391511Y211698D01*
X391495Y211747D01*
X391431Y211852D01*
X391375Y211963D01*
X391341Y212001D01*
X391315Y212045D01*
X391229Y212134D01*
X391149Y212228D01*
X391108Y212258D01*
X391072Y212295D01*
X390871Y212434D01*
X383221Y216850D01*
X382428Y219811D01*
X382400Y219881D01*
X382381Y219955D01*
X382336Y220043D01*
X382300Y220135D01*
X382256Y220197D01*
X382222Y220265D01*
X382158Y220340D01*
X382101Y220422D01*
X382045Y220473D01*
X381996Y220530D01*
X381916Y220589D01*
X381843Y220656D01*
X381777Y220692D01*
X381716Y220737D01*
X381625Y220777D01*
X381538Y220825D01*
X381465Y220845D01*
X381396Y220875D01*
X381298Y220893D01*
X381203Y220920D01*
X381127Y220924D01*
X381053Y220937D01*
X380954Y220932D01*
X380855Y220937D01*
X380780Y220923D01*
X380705Y220919D01*
X380609Y220892D01*
X380512Y220874D01*
X380442Y220844D01*
X380370Y220823D01*
X380283Y220774D01*
X380192Y220735D01*
X380132Y220689D01*
X380065Y220652D01*
X379950Y220555D01*
X379913Y220527D01*
X379901Y220512D01*
X379879Y220494D01*
X374147Y214762D01*
X374053Y214644D01*
X373956Y214528D01*
X373945Y214507D01*
X373930Y214489D01*
X373866Y214352D01*
X373797Y214218D01*
X373791Y214195D01*
X373781Y214174D01*
X373750Y214026D01*
X373713Y213879D01*
X373713Y213856D01*
X373708Y213833D01*
X373711Y213682D01*
X373709Y213531D01*
X373714Y213503D01*
X373714Y213484D01*
X373725Y213439D01*
X373753Y213290D01*
X373962Y212510D01*
X357459Y183926D01*
X355019Y183273D01*
X339634Y192155D01*
X338980Y194595D01*
X355483Y223179D01*
X357923Y223832D01*
X364747Y219892D01*
X364748Y219892D01*
X364750Y219891D01*
X364913Y219820D01*
X365067Y219754D01*
X365068Y219753D01*
X365070Y219753D01*
X365242Y219722D01*
X365410Y219691D01*
X365411Y219691D01*
X365413Y219691D01*
X365583Y219700D01*
X365758Y219709D01*
X365759Y219709D01*
X365761Y219709D01*
X365927Y219757D01*
X366093Y219805D01*
X366094Y219805D01*
X366096Y219806D01*
X366250Y219892D01*
X366397Y219974D01*
X366398Y219975D01*
X366400Y219976D01*
X366586Y220134D01*
X369189Y222738D01*
X369221Y222777D01*
X369259Y222812D01*
X369329Y222914D01*
X369406Y223011D01*
X369428Y223057D01*
X369457Y223099D01*
X369502Y223214D01*
X369555Y223326D01*
X369565Y223376D01*
X369584Y223423D01*
X369602Y223545D01*
X369628Y223666D01*
X369627Y223717D01*
X369635Y223768D01*
X369624Y223891D01*
X369622Y224015D01*
X369610Y224064D01*
X369605Y224115D01*
X369567Y224233D01*
X369537Y224353D01*
X369514Y224398D01*
X369498Y224447D01*
X369434Y224552D01*
X369377Y224663D01*
X369344Y224701D01*
X369318Y224745D01*
X369232Y224834D01*
X369152Y224928D01*
X369111Y224958D01*
X369075Y224995D01*
X368874Y225134D01*
X361224Y229550D01*
X360431Y232511D01*
X360403Y232581D01*
X360384Y232655D01*
X360339Y232743D01*
X360302Y232835D01*
X360259Y232897D01*
X360225Y232965D01*
X360160Y233040D01*
X360104Y233122D01*
X360048Y233172D01*
X359999Y233230D01*
X359919Y233289D01*
X359846Y233356D01*
X359780Y233392D01*
X359719Y233437D01*
X359628Y233477D01*
X359541Y233525D01*
X359468Y233545D01*
X359399Y233575D01*
X359301Y233593D01*
X359206Y233620D01*
X359130Y233624D01*
X359056Y233637D01*
X358956Y233632D01*
X358858Y233637D01*
X358783Y233623D01*
X358707Y233619D01*
X358612Y233592D01*
X358515Y233574D01*
X358445Y233544D01*
X358373Y233523D01*
X358286Y233474D01*
X358195Y233435D01*
X358135Y233389D01*
X358068Y233352D01*
X357953Y233254D01*
X357916Y233226D01*
X357904Y233212D01*
X357882Y233194D01*
X352150Y227462D01*
X352056Y227344D01*
X351959Y227228D01*
X351948Y227207D01*
X351933Y227189D01*
X351869Y227052D01*
X351800Y226918D01*
X351794Y226895D01*
X351784Y226874D01*
X351753Y226726D01*
X351716Y226579D01*
X351716Y226556D01*
X351711Y226533D01*
X351714Y226382D01*
X351712Y226231D01*
X351717Y226203D01*
X351717Y226184D01*
X351728Y226139D01*
X351756Y225990D01*
X351965Y225210D01*
X335462Y196626D01*
X333022Y195973D01*
X317637Y204855D01*
X316983Y207295D01*
X333486Y235879D01*
X335926Y236532D01*
X342750Y232592D01*
X342751Y232592D01*
X342753Y232591D01*
X342916Y232520D01*
X343070Y232454D01*
X343071Y232453D01*
X343073Y232453D01*
X343245Y232422D01*
X343413Y232391D01*
X343414Y232391D01*
X343416Y232391D01*
X343586Y232400D01*
X343761Y232409D01*
X343762Y232409D01*
X343764Y232409D01*
X343930Y232457D01*
X344096Y232505D01*
X344097Y232505D01*
X344099Y232506D01*
X344253Y232592D01*
X344400Y232674D01*
X344401Y232675D01*
X344403Y232676D01*
X344589Y232834D01*
X347192Y235438D01*
X347224Y235477D01*
X347262Y235512D01*
X347332Y235614D01*
X347409Y235711D01*
X347431Y235757D01*
X347460Y235799D01*
X347505Y235914D01*
X347558Y236026D01*
X347568Y236076D01*
X347587Y236123D01*
X347605Y236245D01*
X347631Y236366D01*
X347630Y236417D01*
X347638Y236468D01*
X347627Y236591D01*
X347625Y236715D01*
X347613Y236764D01*
X347608Y236815D01*
X347570Y236933D01*
X347540Y237053D01*
X347517Y237098D01*
X347501Y237147D01*
X347437Y237252D01*
X347380Y237363D01*
X347347Y237401D01*
X347321Y237445D01*
X347235Y237534D01*
X347155Y237628D01*
X347114Y237658D01*
X347078Y237695D01*
X346877Y237834D01*
X339227Y242250D01*
X338434Y245211D01*
X338406Y245281D01*
X338387Y245355D01*
X338342Y245443D01*
X338305Y245535D01*
X338262Y245597D01*
X338228Y245665D01*
X338163Y245740D01*
X338107Y245822D01*
X338051Y245873D01*
X338002Y245930D01*
X337922Y245989D01*
X337849Y246056D01*
X337782Y246092D01*
X337722Y246137D01*
X337631Y246177D01*
X337544Y246225D01*
X337471Y246245D01*
X337401Y246275D01*
X337304Y246293D01*
X337209Y246320D01*
X337133Y246324D01*
X337058Y246337D01*
X336959Y246332D01*
X336861Y246337D01*
X336786Y246323D01*
X336710Y246319D01*
X336615Y246292D01*
X336518Y246274D01*
X336448Y246244D01*
X336376Y246223D01*
X336289Y246174D01*
X336198Y246135D01*
X336138Y246089D01*
X336071Y246052D01*
X335956Y245955D01*
X335919Y245927D01*
X335907Y245912D01*
X335885Y245894D01*
X330153Y240162D01*
X330059Y240044D01*
X329962Y239928D01*
X329951Y239907D01*
X329936Y239889D01*
X329872Y239752D01*
X329803Y239618D01*
X329797Y239595D01*
X329787Y239574D01*
X329756Y239426D01*
X329719Y239279D01*
X329719Y239256D01*
X329714Y239233D01*
X329717Y239082D01*
X329714Y238931D01*
X329720Y238903D01*
X329720Y238884D01*
X329731Y238839D01*
X329759Y238690D01*
X329968Y237910D01*
X313465Y209326D01*
X311025Y208673D01*
X295640Y217555D01*
X294986Y219995D01*
X311489Y248579D01*
X313929Y249232D01*
X320753Y245292D01*
X320754Y245292D01*
X320755Y245291D01*
X320919Y245220D01*
X321073Y245154D01*
X321074Y245153D01*
X321076Y245153D01*
X321248Y245122D01*
X321416Y245091D01*
X321417Y245091D01*
X321419Y245091D01*
X321589Y245100D01*
X321764Y245109D01*
X321765Y245109D01*
X321767Y245109D01*
X321933Y245157D01*
X322099Y245205D01*
X322100Y245205D01*
X322101Y245206D01*
X322254Y245291D01*
X322403Y245374D01*
X322404Y245375D01*
X322406Y245376D01*
X322592Y245534D01*
X325195Y248138D01*
X325227Y248177D01*
X325265Y248212D01*
X325335Y248314D01*
X325412Y248411D01*
X325433Y248457D01*
X325462Y248499D01*
X325508Y248614D01*
X325561Y248726D01*
X325571Y248776D01*
X325590Y248823D01*
X325608Y248945D01*
X325634Y249066D01*
X325633Y249117D01*
X325641Y249168D01*
X325630Y249291D01*
X325628Y249415D01*
X325616Y249464D01*
X325611Y249515D01*
X325573Y249633D01*
X325543Y249753D01*
X325520Y249798D01*
X325504Y249847D01*
X325440Y249952D01*
X325383Y250063D01*
X325350Y250101D01*
X325324Y250145D01*
X325238Y250234D01*
X325158Y250328D01*
X325117Y250358D01*
X325081Y250395D01*
X324880Y250534D01*
X317230Y254950D01*
X316437Y257911D01*
X316409Y257981D01*
X316390Y258055D01*
X316345Y258143D01*
X316308Y258235D01*
X316265Y258297D01*
X316231Y258365D01*
X316166Y258440D01*
X316110Y258522D01*
X316054Y258572D01*
X316005Y258630D01*
X315925Y258689D01*
X315852Y258756D01*
X315785Y258792D01*
X315724Y258837D01*
X315633Y258877D01*
X315547Y258925D01*
X315474Y258945D01*
X315404Y258975D01*
X315307Y258993D01*
X315212Y259020D01*
X315136Y259024D01*
X315061Y259037D01*
X314962Y259032D01*
X314864Y259037D01*
X314789Y259023D01*
X314713Y259019D01*
X314618Y258992D01*
X314521Y258974D01*
X314451Y258944D01*
X314378Y258923D01*
X314292Y258874D01*
X314201Y258835D01*
X314140Y258789D01*
X314074Y258752D01*
X313959Y258654D01*
X313922Y258626D01*
X313910Y258612D01*
X313888Y258594D01*
X308156Y252862D01*
X308062Y252744D01*
X307965Y252628D01*
X307954Y252607D01*
X307939Y252589D01*
X307875Y252452D01*
X307806Y252318D01*
X307800Y252295D01*
X307790Y252274D01*
X307759Y252126D01*
X307722Y251979D01*
X307722Y251956D01*
X307717Y251933D01*
X307720Y251782D01*
X307717Y251631D01*
X307723Y251603D01*
X307723Y251584D01*
X307734Y251539D01*
X307762Y251390D01*
X307971Y250610D01*
X291468Y222026D01*
X289028Y221373D01*
X273643Y230255D01*
X272989Y232695D01*
X289492Y261279D01*
X291932Y261932D01*
X298756Y257992D01*
X298757Y257992D01*
X298758Y257991D01*
X298923Y257920D01*
X299076Y257854D01*
X299077Y257853D01*
X299078Y257853D01*
X299251Y257822D01*
X299419Y257791D01*
X299420Y257791D01*
X299421Y257791D01*
X299592Y257800D01*
X299767Y257809D01*
X299768Y257809D01*
X299770Y257809D01*
X299936Y257857D01*
X300102Y257905D01*
X300103Y257905D01*
X300104Y257906D01*
X300259Y257992D01*
X300406Y258074D01*
X300407Y258075D01*
X300409Y258076D01*
X300595Y258234D01*
X303198Y260838D01*
X303230Y260877D01*
X303268Y260912D01*
X303338Y261014D01*
X303415Y261111D01*
X303436Y261157D01*
X303465Y261199D01*
X303511Y261314D01*
X303564Y261426D01*
X303574Y261476D01*
X303593Y261523D01*
X303611Y261645D01*
X303637Y261766D01*
X303636Y261817D01*
X303643Y261868D01*
X303633Y261991D01*
X303631Y262115D01*
X303619Y262164D01*
X303614Y262215D01*
X303576Y262333D01*
X303546Y262453D01*
X303523Y262498D01*
X303507Y262547D01*
X303443Y262652D01*
X303386Y262763D01*
X303353Y262801D01*
X303327Y262845D01*
X303241Y262934D01*
X303160Y263028D01*
X303120Y263058D01*
X303084Y263095D01*
X302883Y263234D01*
X295233Y267650D01*
X294439Y270611D01*
X294412Y270681D01*
X294393Y270755D01*
X294348Y270843D01*
X294311Y270935D01*
X294268Y270997D01*
X294234Y271065D01*
X294169Y271140D01*
X294113Y271222D01*
X294057Y271273D01*
X294008Y271330D01*
X293928Y271389D01*
X293855Y271456D01*
X293788Y271492D01*
X293727Y271537D01*
X293636Y271577D01*
X293550Y271625D01*
X293477Y271645D01*
X293407Y271675D01*
X293310Y271693D01*
X293215Y271720D01*
X293139Y271724D01*
X293064Y271737D01*
X292965Y271732D01*
X292867Y271737D01*
X292792Y271723D01*
X292716Y271719D01*
X292621Y271692D01*
X292524Y271674D01*
X292454Y271644D01*
X292381Y271623D01*
X292295Y271574D01*
X292204Y271535D01*
X292143Y271489D01*
X292077Y271452D01*
X291962Y271355D01*
X291925Y271327D01*
X291913Y271312D01*
X291891Y271294D01*
X286159Y265562D01*
X286065Y265444D01*
X285967Y265328D01*
X285957Y265307D01*
X285942Y265289D01*
X285878Y265152D01*
X285809Y265018D01*
X285803Y264995D01*
X285793Y264974D01*
X285761Y264826D01*
X285725Y264679D01*
X285725Y264656D01*
X285720Y264633D01*
X285722Y264482D01*
X285720Y264331D01*
X285726Y264303D01*
X285726Y264284D01*
X285737Y264239D01*
X285765Y264090D01*
X285974Y263310D01*
X269471Y234726D01*
X267031Y234073D01*
X251646Y242955D01*
X250992Y245395D01*
X267495Y273979D01*
X269934Y274632D01*
X276759Y270692D01*
X276760Y270692D01*
X276761Y270691D01*
X276925Y270620D01*
X277079Y270554D01*
X277080Y270553D01*
X277081Y270553D01*
X277254Y270522D01*
X277422Y270491D01*
X277423Y270491D01*
X277424Y270491D01*
X277595Y270500D01*
X277770Y270509D01*
X277771Y270509D01*
X277772Y270509D01*
X277938Y270557D01*
X278105Y270605D01*
X278106Y270605D01*
X278107Y270606D01*
X278262Y270692D01*
X278409Y270774D01*
X278410Y270775D01*
X278412Y270776D01*
X278598Y270934D01*
X281201Y273538D01*
X281233Y273577D01*
X281270Y273612D01*
X281341Y273714D01*
X281418Y273811D01*
X281439Y273857D01*
X281468Y273899D01*
X281514Y274014D01*
X281567Y274126D01*
X281577Y274176D01*
X281596Y274223D01*
X281614Y274345D01*
X281640Y274466D01*
X281639Y274517D01*
X281646Y274568D01*
X281636Y274691D01*
X281634Y274815D01*
X281621Y274864D01*
X281617Y274915D01*
X281579Y275033D01*
X281549Y275153D01*
X281526Y275198D01*
X281510Y275247D01*
X281446Y275352D01*
X281389Y275463D01*
X281356Y275501D01*
X281330Y275545D01*
X281244Y275634D01*
X281163Y275728D01*
X281122Y275758D01*
X281087Y275795D01*
X280886Y275934D01*
X273236Y280350D01*
X272442Y283311D01*
X272415Y283381D01*
X272396Y283455D01*
X272351Y283543D01*
X272314Y283635D01*
X272271Y283697D01*
X272236Y283765D01*
X272172Y283840D01*
X272116Y283922D01*
X272060Y283972D01*
X272011Y284030D01*
X271931Y284089D01*
X271858Y284156D01*
X271791Y284192D01*
X271730Y284237D01*
X271639Y284277D01*
X271553Y284325D01*
X271480Y284345D01*
X271410Y284375D01*
X271313Y284393D01*
X271218Y284420D01*
X271142Y284424D01*
X271067Y284437D01*
X270968Y284432D01*
X270869Y284437D01*
X270795Y284423D01*
X270719Y284419D01*
X270624Y284392D01*
X270527Y284374D01*
X270457Y284344D01*
X270384Y284323D01*
X270298Y284274D01*
X270207Y284235D01*
X270146Y284189D01*
X270080Y284152D01*
X269965Y284054D01*
X269928Y284026D01*
X269916Y284012D01*
X269894Y283994D01*
X264162Y278262D01*
X264068Y278144D01*
X263970Y278028D01*
X263960Y278007D01*
X263945Y277989D01*
X263881Y277852D01*
X263812Y277718D01*
X263806Y277695D01*
X263796Y277674D01*
X263764Y277526D01*
X263728Y277379D01*
X263728Y277356D01*
X263723Y277333D01*
X263725Y277182D01*
X263723Y277031D01*
X263728Y277003D01*
X263729Y276984D01*
X263740Y276939D01*
X263767Y276790D01*
X263977Y276010D01*
X247474Y247426D01*
X245034Y246773D01*
X229649Y255655D01*
X228995Y258095D01*
X245498Y286679D01*
X247937Y287332D01*
X254762Y283392D01*
X254763Y283392D01*
X254764Y283391D01*
X254928Y283320D01*
X255082Y283254D01*
X255083Y283253D01*
X255084Y283253D01*
X255257Y283222D01*
X255425Y283191D01*
X255426Y283191D01*
X255427Y283191D01*
X255598Y283200D01*
X255773Y283209D01*
X255774Y283209D01*
X255775Y283209D01*
X255936Y283255D01*
X256108Y283305D01*
X256109Y283305D01*
X256110Y283306D01*
X256263Y283391D01*
X256412Y283474D01*
X256413Y283475D01*
X256414Y283476D01*
X256601Y283634D01*
X259204Y286238D01*
X259236Y286277D01*
X259273Y286312D01*
X259344Y286414D01*
X259421Y286511D01*
X259442Y286557D01*
X259471Y286599D01*
X259517Y286714D01*
X259570Y286826D01*
X259580Y286876D01*
X259599Y286923D01*
X259617Y287045D01*
X259643Y287166D01*
X259642Y287217D01*
X259649Y287268D01*
X259639Y287391D01*
X259637Y287515D01*
X259624Y287564D01*
X259620Y287615D01*
X259582Y287733D01*
X259552Y287853D01*
X259529Y287898D01*
X259513Y287947D01*
X259449Y288053D01*
X259392Y288163D01*
X259359Y288201D01*
X259333Y288245D01*
X259247Y288334D01*
X259166Y288428D01*
X259125Y288458D01*
X259090Y288495D01*
X258889Y288634D01*
X251239Y293050D01*
X250585Y295490D01*
X267088Y324074D01*
X269527Y324727D01*
X272542Y322987D01*
X272612Y322957D01*
X272677Y322918D01*
X272771Y322887D01*
X272862Y322848D01*
X272937Y322835D01*
X273009Y322811D01*
X273108Y322803D01*
X273205Y322786D01*
X273281Y322790D01*
X273356Y322783D01*
X273454Y322798D01*
X273553Y322803D01*
X273626Y322824D01*
X273701Y322835D01*
X273793Y322872D01*
X273888Y322899D01*
X273954Y322936D01*
X274025Y322964D01*
X274106Y323020D01*
X274193Y323069D01*
X274249Y323120D01*
X274311Y323163D01*
X274377Y323236D01*
X274451Y323303D01*
X274494Y323365D01*
X274544Y323422D01*
X274592Y323508D01*
X274649Y323590D01*
X274676Y323660D01*
X274713Y323727D01*
X274740Y323822D01*
X274776Y323914D01*
X274787Y323989D01*
X274808Y324062D01*
X274820Y324213D01*
X274827Y324259D01*
X274825Y324278D01*
X274827Y324306D01*
X274827Y324482D01*
X274813Y324607D01*
X274806Y324733D01*
X274793Y324780D01*
X274787Y324828D01*
X274745Y324947D01*
X274710Y325068D01*
X274686Y325110D01*
X274670Y325156D01*
X274601Y325262D01*
X274540Y325372D01*
X274500Y325419D01*
X274481Y325449D01*
X274446Y325482D01*
X274381Y325559D01*
X273609Y326331D01*
X272569Y328841D01*
X272569Y331559D01*
X273609Y334069D01*
X275531Y335991D01*
X278041Y337031D01*
X280759Y337031D01*
X283269Y335991D01*
X285191Y334069D01*
X285581Y333127D01*
X285654Y332995D01*
X285723Y332862D01*
X285739Y332843D01*
X285751Y332822D01*
X285852Y332711D01*
X285949Y332596D01*
X285968Y332582D01*
X285985Y332564D01*
X286108Y332478D01*
X286229Y332389D01*
X286252Y332379D01*
X286271Y332366D01*
X286411Y332311D01*
X286549Y332251D01*
X286573Y332247D01*
X286596Y332238D01*
X286744Y332216D01*
X286892Y332189D01*
X286916Y332191D01*
X286940Y332187D01*
X287091Y332200D01*
X287240Y332207D01*
X287264Y332214D01*
X287288Y332216D01*
X287431Y332262D01*
X287575Y332304D01*
X287596Y332316D01*
X287619Y332323D01*
X287748Y332401D01*
X287879Y332474D01*
X287902Y332493D01*
X287918Y332503D01*
X287952Y332536D01*
X288066Y332632D01*
X297523Y342090D01*
X297602Y342189D01*
X297686Y342283D01*
X297710Y342325D01*
X297740Y342363D01*
X297794Y342477D01*
X297855Y342588D01*
X297868Y342634D01*
X297889Y342678D01*
X297915Y342801D01*
X297950Y342923D01*
X297955Y342984D01*
X297962Y343019D01*
X297961Y343067D01*
X297969Y343167D01*
X297969Y344259D01*
X299009Y346769D01*
X300931Y348691D01*
X303441Y349731D01*
X306159Y349731D01*
X308669Y348691D01*
X310591Y346769D01*
X311631Y344259D01*
X311631Y341541D01*
X310591Y339031D01*
X308669Y337109D01*
X306159Y336069D01*
X305067Y336069D01*
X304941Y336055D01*
X304815Y336048D01*
X304769Y336035D01*
X304721Y336029D01*
X304602Y335987D01*
X304480Y335952D01*
X304438Y335928D01*
X304393Y335912D01*
X304286Y335843D01*
X304176Y335782D01*
X304130Y335742D01*
X304100Y335723D01*
X304066Y335688D01*
X303990Y335623D01*
X295092Y326725D01*
X295013Y326626D01*
X294928Y326532D01*
X294905Y326490D01*
X294875Y326452D01*
X294821Y326338D01*
X294760Y326227D01*
X294747Y326180D01*
X294726Y326137D01*
X294700Y326013D01*
X294665Y325892D01*
X294660Y325831D01*
X294653Y325796D01*
X294654Y325748D01*
X294646Y325648D01*
X294646Y311105D01*
X294663Y310955D01*
X294675Y310804D01*
X294683Y310782D01*
X294685Y310759D01*
X294737Y310616D01*
X294783Y310473D01*
X294795Y310453D01*
X294803Y310431D01*
X294885Y310303D01*
X294963Y310174D01*
X294979Y310157D01*
X294992Y310138D01*
X295101Y310033D01*
X295206Y309925D01*
X295229Y309908D01*
X295243Y309896D01*
X295283Y309872D01*
X295407Y309786D01*
X306910Y303145D01*
X307564Y300705D01*
X294850Y278684D01*
X294809Y278590D01*
X294760Y278501D01*
X294740Y278431D01*
X294711Y278364D01*
X294693Y278264D01*
X294665Y278166D01*
X294657Y278068D01*
X294649Y278021D01*
X294651Y277985D01*
X294646Y277922D01*
X294646Y275890D01*
X294660Y275766D01*
X294666Y275641D01*
X294680Y275593D01*
X294685Y275544D01*
X294728Y275426D01*
X294762Y275306D01*
X294786Y275262D01*
X294803Y275216D01*
X294871Y275110D01*
X294932Y275001D01*
X294965Y274965D01*
X294992Y274923D01*
X295082Y274836D01*
X295166Y274743D01*
X295207Y274715D01*
X295243Y274681D01*
X295350Y274616D01*
X295453Y274545D01*
X295499Y274527D01*
X295542Y274502D01*
X295661Y274464D01*
X295777Y274418D01*
X295826Y274411D01*
X295874Y274396D01*
X295998Y274385D01*
X296122Y274367D01*
X296172Y274372D01*
X296221Y274368D01*
X296345Y274386D01*
X296469Y274397D01*
X296516Y274412D01*
X296566Y274419D01*
X296682Y274465D01*
X296801Y274504D01*
X296843Y274530D01*
X296890Y274548D01*
X296992Y274619D01*
X297099Y274684D01*
X297135Y274719D01*
X297176Y274747D01*
X297259Y274840D01*
X297349Y274927D01*
X297385Y274979D01*
X297409Y275006D01*
X297432Y275047D01*
X297488Y275128D01*
X311082Y298674D01*
X313522Y299327D01*
X320346Y295387D01*
X320347Y295387D01*
X320348Y295386D01*
X320513Y295315D01*
X320666Y295249D01*
X320667Y295248D01*
X320669Y295248D01*
X320846Y295216D01*
X321009Y295186D01*
X321010Y295186D01*
X321012Y295186D01*
X321183Y295195D01*
X321357Y295204D01*
X321358Y295204D01*
X321360Y295204D01*
X321522Y295251D01*
X321692Y295300D01*
X321693Y295300D01*
X321694Y295301D01*
X321849Y295387D01*
X321996Y295469D01*
X321997Y295470D01*
X321999Y295471D01*
X322185Y295629D01*
X322532Y295977D01*
X324213Y296673D01*
X337182Y296673D01*
X337307Y296687D01*
X337433Y296694D01*
X337480Y296707D01*
X337528Y296713D01*
X337647Y296755D01*
X337768Y296790D01*
X337810Y296814D01*
X337856Y296830D01*
X337962Y296899D01*
X338072Y296960D01*
X338119Y297000D01*
X338149Y297019D01*
X338182Y297054D01*
X338259Y297119D01*
X339031Y297891D01*
X341541Y298931D01*
X344259Y298931D01*
X346769Y297891D01*
X348427Y296233D01*
X348506Y296171D01*
X348578Y296101D01*
X348642Y296063D01*
X348700Y296017D01*
X348791Y295974D01*
X348877Y295922D01*
X348948Y295899D01*
X349015Y295868D01*
X349113Y295847D01*
X349209Y295816D01*
X349283Y295810D01*
X349356Y295794D01*
X349456Y295796D01*
X349556Y295788D01*
X349630Y295799D01*
X349704Y295800D01*
X349801Y295825D01*
X349901Y295840D01*
X349970Y295867D01*
X350042Y295885D01*
X350131Y295931D01*
X350225Y295968D01*
X350286Y296011D01*
X350352Y296045D01*
X350428Y296110D01*
X350511Y296167D01*
X350561Y296222D01*
X350617Y296271D01*
X350677Y296352D01*
X350744Y296426D01*
X350780Y296491D01*
X350825Y296551D01*
X350864Y296643D01*
X350913Y296731D01*
X350933Y296803D01*
X350963Y296871D01*
X350980Y296970D01*
X351008Y297067D01*
X351016Y297167D01*
X351024Y297214D01*
X351022Y297250D01*
X351027Y297310D01*
X351027Y299082D01*
X351013Y299207D01*
X351006Y299333D01*
X350993Y299380D01*
X350987Y299428D01*
X350945Y299547D01*
X350910Y299668D01*
X350886Y299710D01*
X350870Y299756D01*
X350801Y299862D01*
X350740Y299972D01*
X350700Y300019D01*
X350681Y300049D01*
X350646Y300082D01*
X350581Y300159D01*
X349809Y300931D01*
X348769Y303441D01*
X348769Y306159D01*
X349809Y308669D01*
X351731Y310591D01*
X354241Y311631D01*
X356959Y311631D01*
X359469Y310591D01*
X361391Y308669D01*
X362431Y306159D01*
X362431Y303441D01*
X361391Y300931D01*
X360619Y300159D01*
X360540Y300060D01*
X360456Y299966D01*
X360432Y299924D01*
X360402Y299886D01*
X360348Y299772D01*
X360287Y299661D01*
X360274Y299614D01*
X360253Y299571D01*
X360227Y299447D01*
X360192Y299325D01*
X360187Y299265D01*
X360180Y299230D01*
X360181Y299182D01*
X360173Y299082D01*
X360173Y286971D01*
X359477Y285290D01*
X351743Y277557D01*
X351649Y277439D01*
X351552Y277323D01*
X351541Y277302D01*
X351526Y277284D01*
X351462Y277147D01*
X351393Y277013D01*
X351387Y276990D01*
X351377Y276968D01*
X351346Y276821D01*
X351309Y276674D01*
X351309Y276651D01*
X351304Y276628D01*
X351307Y276477D01*
X351304Y276326D01*
X351310Y276298D01*
X351310Y276279D01*
X351321Y276234D01*
X351349Y276085D01*
X351558Y275305D01*
X338844Y253284D01*
X338803Y253190D01*
X338754Y253101D01*
X338734Y253031D01*
X338705Y252964D01*
X338687Y252864D01*
X338659Y252766D01*
X338651Y252668D01*
X338643Y252621D01*
X338645Y252584D01*
X338640Y252522D01*
X338640Y250490D01*
X338654Y250366D01*
X338660Y250241D01*
X338674Y250193D01*
X338680Y250144D01*
X338722Y250026D01*
X338756Y249906D01*
X338780Y249862D01*
X338797Y249816D01*
X338865Y249710D01*
X338926Y249601D01*
X338959Y249565D01*
X338986Y249523D01*
X339076Y249436D01*
X339160Y249343D01*
X339201Y249315D01*
X339237Y249281D01*
X339344Y249216D01*
X339447Y249145D01*
X339493Y249127D01*
X339536Y249102D01*
X339655Y249064D01*
X339771Y249018D01*
X339820Y249011D01*
X339868Y248996D01*
X339992Y248985D01*
X340116Y248967D01*
X340166Y248972D01*
X340215Y248968D01*
X340339Y248986D01*
X340463Y248997D01*
X340511Y249012D01*
X340560Y249019D01*
X340676Y249065D01*
X340795Y249104D01*
X340837Y249130D01*
X340884Y249148D01*
X340986Y249219D01*
X341093Y249284D01*
X341129Y249319D01*
X341170Y249347D01*
X341253Y249440D01*
X341343Y249527D01*
X341379Y249579D01*
X341403Y249606D01*
X341426Y249647D01*
X341482Y249728D01*
X355076Y273274D01*
X357516Y273927D01*
X364340Y269987D01*
X364341Y269987D01*
X364343Y269986D01*
X364508Y269914D01*
X364660Y269849D01*
X364661Y269848D01*
X364663Y269848D01*
X364836Y269817D01*
X365003Y269786D01*
X365004Y269786D01*
X365006Y269786D01*
X365178Y269795D01*
X365351Y269804D01*
X365352Y269804D01*
X365354Y269804D01*
X365521Y269852D01*
X365686Y269900D01*
X365687Y269900D01*
X365689Y269901D01*
X365843Y269987D01*
X365990Y270069D01*
X365991Y270070D01*
X365993Y270071D01*
X366179Y270229D01*
X366445Y270495D01*
X366538Y270613D01*
X366635Y270728D01*
X366646Y270749D01*
X366662Y270768D01*
X366726Y270904D01*
X366794Y271038D01*
X366800Y271062D01*
X366810Y271083D01*
X366842Y271230D01*
X366878Y271376D01*
X366879Y271400D01*
X366884Y271424D01*
X366881Y271574D01*
X366883Y271725D01*
X366878Y271748D01*
X366878Y271773D01*
X366841Y271918D01*
X366809Y272065D01*
X366799Y272087D01*
X366793Y272111D01*
X366724Y272244D01*
X366659Y272380D01*
X366644Y272399D01*
X366633Y272420D01*
X366536Y272535D01*
X366442Y272652D01*
X366423Y272667D01*
X366407Y272686D01*
X366286Y272775D01*
X366168Y272868D01*
X366142Y272881D01*
X366127Y272893D01*
X366084Y272912D01*
X365951Y272980D01*
X364431Y273609D01*
X362509Y275531D01*
X361469Y278041D01*
X361469Y280759D01*
X362509Y283269D01*
X364431Y285191D01*
X366941Y286231D01*
X368033Y286231D01*
X368159Y286245D01*
X368285Y286252D01*
X368331Y286265D01*
X368379Y286271D01*
X368498Y286313D01*
X368620Y286348D01*
X368662Y286372D01*
X368707Y286388D01*
X368814Y286457D01*
X368924Y286518D01*
X368970Y286558D01*
X369000Y286577D01*
X369034Y286612D01*
X369110Y286677D01*
X375981Y293548D01*
X376060Y293647D01*
X376144Y293741D01*
X376168Y293783D01*
X376198Y293821D01*
X376252Y293935D01*
X376313Y294046D01*
X376326Y294092D01*
X376347Y294136D01*
X376373Y294259D01*
X376408Y294381D01*
X376413Y294442D01*
X376420Y294477D01*
X376419Y294525D01*
X376427Y294625D01*
X376427Y312290D01*
X376416Y312390D01*
X376414Y312490D01*
X376396Y312562D01*
X376387Y312636D01*
X376354Y312730D01*
X376329Y312828D01*
X376295Y312894D01*
X376270Y312964D01*
X376215Y313048D01*
X376169Y313138D01*
X376121Y313194D01*
X376081Y313257D01*
X376009Y313327D01*
X375944Y313403D01*
X375884Y313447D01*
X375830Y313499D01*
X375744Y313551D01*
X375663Y313610D01*
X375595Y313640D01*
X375531Y313678D01*
X375435Y313708D01*
X375343Y313748D01*
X375270Y313761D01*
X375199Y313784D01*
X375099Y313792D01*
X375000Y313810D01*
X374926Y313806D01*
X374852Y313812D01*
X374752Y313797D01*
X374652Y313792D01*
X374581Y313771D01*
X374507Y313760D01*
X374414Y313723D01*
X374317Y313695D01*
X374252Y313659D01*
X374183Y313632D01*
X374101Y313574D01*
X374013Y313525D01*
X373937Y313460D01*
X373897Y313433D01*
X373873Y313406D01*
X373827Y313367D01*
X372169Y311709D01*
X369659Y310669D01*
X366941Y310669D01*
X364431Y311709D01*
X362509Y313631D01*
X361469Y316141D01*
X361469Y318859D01*
X362509Y321369D01*
X364431Y323291D01*
X366941Y324331D01*
X369659Y324331D01*
X372169Y323291D01*
X373827Y321633D01*
X373906Y321571D01*
X373978Y321501D01*
X374042Y321463D01*
X374100Y321417D01*
X374191Y321374D01*
X374277Y321322D01*
X374348Y321299D01*
X374415Y321268D01*
X374513Y321247D01*
X374609Y321216D01*
X374683Y321210D01*
X374756Y321194D01*
X374856Y321196D01*
X374956Y321188D01*
X375030Y321199D01*
X375104Y321200D01*
X375201Y321225D01*
X375301Y321240D01*
X375370Y321267D01*
X375442Y321285D01*
X375531Y321331D01*
X375625Y321368D01*
X375686Y321411D01*
X375752Y321445D01*
X375828Y321510D01*
X375911Y321567D01*
X375961Y321622D01*
X376017Y321671D01*
X376077Y321752D01*
X376144Y321826D01*
X376180Y321891D01*
X376225Y321951D01*
X376264Y322043D01*
X376313Y322131D01*
X376333Y322203D01*
X376363Y322271D01*
X376380Y322370D01*
X376408Y322467D01*
X376416Y322567D01*
X376424Y322614D01*
X376422Y322650D01*
X376427Y322710D01*
X376427Y347361D01*
X377123Y349042D01*
X431098Y403017D01*
X431192Y403135D01*
X431289Y403250D01*
X431300Y403271D01*
X431315Y403290D01*
X431379Y403426D01*
X431448Y403561D01*
X431453Y403584D01*
X431464Y403605D01*
X431495Y403752D01*
X431532Y403899D01*
X431532Y403923D01*
X431537Y403946D01*
X431534Y404096D01*
X431536Y404248D01*
X431531Y404275D01*
X431531Y404294D01*
X431520Y404339D01*
X431492Y404488D01*
X431283Y405268D01*
X443997Y427290D01*
X444038Y427383D01*
X444087Y427472D01*
X444107Y427543D01*
X444136Y427609D01*
X444154Y427709D01*
X444182Y427808D01*
X444189Y427905D01*
X444198Y427952D01*
X444196Y427989D01*
X444201Y428051D01*
X444201Y430083D01*
X444187Y430208D01*
X444181Y430333D01*
X444167Y430380D01*
X444161Y430430D01*
X444119Y430547D01*
X444085Y430668D01*
X444061Y430711D01*
X444044Y430758D01*
X443976Y430863D01*
X443915Y430972D01*
X443882Y431009D01*
X443855Y431051D01*
X443765Y431138D01*
X443681Y431230D01*
X443640Y431258D01*
X443604Y431293D01*
X443497Y431357D01*
X443394Y431428D01*
X443348Y431446D01*
X443305Y431472D01*
X443186Y431510D01*
X443070Y431556D01*
X443021Y431563D01*
X442973Y431578D01*
X442848Y431588D01*
X442725Y431606D01*
X442675Y431602D01*
X442626Y431606D01*
X442502Y431587D01*
X442377Y431577D01*
X442330Y431562D01*
X442281Y431554D01*
X442165Y431508D01*
X442046Y431469D01*
X442003Y431444D01*
X441957Y431425D01*
X441855Y431354D01*
X441747Y431289D01*
X441712Y431255D01*
X441671Y431226D01*
X441587Y431134D01*
X441498Y431046D01*
X441462Y430995D01*
X441438Y430968D01*
X441415Y430926D01*
X441359Y430845D01*
X427765Y407300D01*
X425325Y406646D01*
X409940Y415529D01*
X409286Y417968D01*
X422000Y439990D01*
X422041Y440083D01*
X422090Y440172D01*
X422110Y440243D01*
X422139Y440309D01*
X422157Y440409D01*
X422185Y440508D01*
X422192Y440605D01*
X422201Y440652D01*
X422199Y440689D01*
X422204Y440751D01*
X422204Y442783D01*
X422190Y442908D01*
X422184Y443033D01*
X422170Y443080D01*
X422164Y443130D01*
X422122Y443247D01*
X422088Y443368D01*
X422064Y443411D01*
X422047Y443458D01*
X421979Y443563D01*
X421918Y443672D01*
X421885Y443709D01*
X421858Y443751D01*
X421768Y443837D01*
X421684Y443930D01*
X421643Y443958D01*
X421607Y443993D01*
X421500Y444057D01*
X421397Y444128D01*
X421351Y444146D01*
X421308Y444172D01*
X421189Y444210D01*
X421073Y444255D01*
X421023Y444263D01*
X420976Y444278D01*
X420851Y444288D01*
X420728Y444306D01*
X420678Y444302D01*
X420629Y444306D01*
X420505Y444287D01*
X420380Y444277D01*
X420333Y444261D01*
X420284Y444254D01*
X420168Y444208D01*
X420049Y444169D01*
X420006Y444144D01*
X419960Y444125D01*
X419858Y444054D01*
X419750Y443989D01*
X419715Y443955D01*
X419674Y443926D01*
X419590Y443834D01*
X419501Y443746D01*
X419465Y443695D01*
X419441Y443668D01*
X419418Y443626D01*
X419362Y443545D01*
X405768Y420000D01*
X403328Y419346D01*
X387943Y428229D01*
X387289Y430668D01*
X403792Y459252D01*
X406231Y459906D01*
X421617Y451023D01*
X422410Y448062D01*
X422438Y447992D01*
X422457Y447918D01*
X422502Y447830D01*
X422538Y447738D01*
X422581Y447676D01*
X422616Y447609D01*
X422680Y447533D01*
X422737Y447452D01*
X422793Y447401D01*
X422842Y447343D01*
X422922Y447284D01*
X422995Y447218D01*
X423061Y447181D01*
X423122Y447136D01*
X423213Y447097D01*
X423300Y447049D01*
X423373Y447028D01*
X423442Y446998D01*
X423540Y446981D01*
X423635Y446953D01*
X423711Y446950D01*
X423785Y446936D01*
X423884Y446941D01*
X423983Y446937D01*
X424058Y446950D01*
X424133Y446954D01*
X424229Y446982D01*
X424326Y447000D01*
X424395Y447030D01*
X424468Y447051D01*
X424555Y447099D01*
X424646Y447139D01*
X424706Y447184D01*
X424772Y447221D01*
X424887Y447319D01*
X424925Y447347D01*
X424937Y447361D01*
X424959Y447379D01*
X430691Y453112D01*
X430785Y453230D01*
X430882Y453345D01*
X430893Y453366D01*
X430908Y453385D01*
X430972Y453521D01*
X431041Y453656D01*
X431046Y453679D01*
X431056Y453700D01*
X431088Y453847D01*
X431125Y453994D01*
X431125Y454018D01*
X431130Y454041D01*
X431127Y454191D01*
X431129Y454343D01*
X431124Y454370D01*
X431124Y454389D01*
X431112Y454434D01*
X431085Y454583D01*
X430876Y455363D01*
X444098Y478265D01*
X444139Y478358D01*
X444188Y478447D01*
X444208Y478517D01*
X444237Y478584D01*
X444255Y478684D01*
X444283Y478782D01*
X444290Y478880D01*
X444299Y478927D01*
X444297Y478964D01*
X444302Y479026D01*
X444302Y481058D01*
X444288Y481182D01*
X444282Y481307D01*
X444268Y481355D01*
X444262Y481404D01*
X444220Y481522D01*
X444186Y481642D01*
X444162Y481686D01*
X444145Y481733D01*
X444077Y481838D01*
X444016Y481947D01*
X443983Y481984D01*
X443956Y482025D01*
X443866Y482112D01*
X443782Y482205D01*
X443741Y482233D01*
X443705Y482268D01*
X443598Y482332D01*
X443495Y482403D01*
X443449Y482421D01*
X443406Y482446D01*
X443287Y482485D01*
X443171Y482530D01*
X443121Y482537D01*
X443074Y482553D01*
X442949Y482563D01*
X442826Y482581D01*
X442776Y482577D01*
X442727Y482581D01*
X442603Y482562D01*
X442478Y482552D01*
X442431Y482536D01*
X442382Y482529D01*
X442266Y482483D01*
X442147Y482444D01*
X442104Y482419D01*
X442058Y482400D01*
X441956Y482329D01*
X441848Y482264D01*
X441813Y482230D01*
X441772Y482201D01*
X441688Y482109D01*
X441599Y482021D01*
X441563Y481970D01*
X441539Y481942D01*
X441516Y481901D01*
X441460Y481820D01*
X427358Y457395D01*
X424918Y456741D01*
X409533Y465624D01*
X408879Y468063D01*
X425382Y496647D01*
X427821Y497301D01*
X438928Y490888D01*
X439066Y490829D01*
X439201Y490765D01*
X439225Y490759D01*
X439248Y490750D01*
X439396Y490723D01*
X439542Y490691D01*
X439567Y490692D01*
X439591Y490687D01*
X439741Y490695D01*
X439890Y490697D01*
X439914Y490703D01*
X439939Y490705D01*
X440083Y490746D01*
X440228Y490782D01*
X440250Y490794D01*
X440274Y490801D01*
X440405Y490873D01*
X440538Y490942D01*
X440557Y490958D01*
X440579Y490970D01*
X440689Y491071D01*
X440803Y491168D01*
X440818Y491188D01*
X440837Y491205D01*
X440921Y491327D01*
X441011Y491448D01*
X441020Y491471D01*
X441035Y491491D01*
X441089Y491631D01*
X441149Y491768D01*
X441153Y491793D01*
X441162Y491816D01*
X441184Y491964D01*
X441210Y492111D01*
X441209Y492136D01*
X441213Y492161D01*
X441200Y492310D01*
X441192Y492459D01*
X441185Y492483D01*
X441183Y492508D01*
X441137Y492650D01*
X441096Y492794D01*
X441084Y492816D01*
X441076Y492839D01*
X440999Y492967D01*
X440926Y493098D01*
X440906Y493121D01*
X440896Y493138D01*
X440863Y493172D01*
X440767Y493284D01*
X423770Y510282D01*
X423671Y510360D01*
X423577Y510445D01*
X423535Y510468D01*
X423497Y510498D01*
X423383Y510552D01*
X423272Y510614D01*
X423225Y510627D01*
X423182Y510647D01*
X423058Y510674D01*
X422936Y510708D01*
X422876Y510713D01*
X422841Y510721D01*
X422793Y510720D01*
X422693Y510728D01*
X410250Y510728D01*
X410126Y510714D01*
X410001Y510707D01*
X409953Y510694D01*
X409904Y510688D01*
X409786Y510646D01*
X409666Y510611D01*
X409622Y510587D01*
X409575Y510571D01*
X409470Y510503D01*
X409361Y510442D01*
X409324Y510409D01*
X409283Y510382D01*
X409196Y510291D01*
X409103Y510208D01*
X409075Y510167D01*
X409040Y510131D01*
X409023Y510101D01*
X409036Y510136D01*
X409096Y510274D01*
X409100Y510298D01*
X409109Y510321D01*
X409131Y510469D01*
X409157Y510617D01*
X409156Y510642D01*
X409160Y510666D01*
X409147Y510815D01*
X409139Y510965D01*
X409133Y510989D01*
X409131Y511014D01*
X409084Y511156D01*
X409043Y511300D01*
X409031Y511321D01*
X409023Y511345D01*
X408946Y511473D01*
X408873Y511604D01*
X408853Y511627D01*
X408843Y511644D01*
X408810Y511678D01*
X408714Y511790D01*
X318802Y601702D01*
X315975Y604529D01*
X315975Y654174D01*
X315961Y654299D01*
X315954Y654425D01*
X315941Y654472D01*
X315935Y654520D01*
X315893Y654639D01*
X315858Y654760D01*
X315834Y654802D01*
X315818Y654848D01*
X315749Y654954D01*
X315688Y655064D01*
X315648Y655111D01*
X315629Y655141D01*
X315594Y655174D01*
X315529Y655251D01*
X314183Y656597D01*
X314166Y656627D01*
X314132Y656665D01*
X314105Y656707D01*
X314016Y656793D01*
X313932Y656885D01*
X313891Y656914D01*
X313854Y656949D01*
X313748Y657013D01*
X313646Y657084D01*
X313599Y657102D01*
X313555Y657128D01*
X313437Y657166D01*
X313321Y657212D01*
X313271Y657219D01*
X313223Y657234D01*
X313100Y657244D01*
X312977Y657262D01*
X312926Y657258D01*
X312876Y657262D01*
X312753Y657244D01*
X312629Y657234D01*
X312581Y657218D01*
X312531Y657211D01*
X312416Y657165D01*
X312298Y657127D01*
X312254Y657101D01*
X312207Y657082D01*
X312106Y657011D01*
X311999Y656947D01*
X311963Y656912D01*
X311921Y656883D01*
X311838Y656791D01*
X311749Y656704D01*
X311722Y656662D01*
X311688Y656624D01*
X311628Y656516D01*
X311561Y656411D01*
X311544Y656363D01*
X311519Y656319D01*
X311485Y656200D01*
X311444Y656083D01*
X311438Y656033D01*
X311424Y655984D01*
X311405Y655740D01*
X311405Y469675D01*
X311419Y469549D01*
X311426Y469423D01*
X311439Y469376D01*
X311445Y469328D01*
X311487Y469209D01*
X311522Y469088D01*
X311546Y469046D01*
X311562Y469000D01*
X311631Y468894D01*
X311692Y468784D01*
X311732Y468737D01*
X311751Y468707D01*
X311786Y468674D01*
X311851Y468598D01*
X379472Y400977D01*
X379571Y400898D01*
X379664Y400814D01*
X379707Y400790D01*
X379745Y400760D01*
X379859Y400706D01*
X379969Y400645D01*
X380016Y400632D01*
X380060Y400611D01*
X380183Y400585D01*
X380305Y400550D01*
X380366Y400545D01*
X380400Y400538D01*
X380448Y400539D01*
X380549Y400531D01*
X382359Y400531D01*
X384869Y399491D01*
X386791Y397569D01*
X387831Y395059D01*
X387831Y392341D01*
X386791Y389831D01*
X384869Y387909D01*
X382359Y386869D01*
X379641Y386869D01*
X377131Y387909D01*
X375727Y389313D01*
X375707Y389329D01*
X375690Y389349D01*
X375583Y389428D01*
X375576Y389434D01*
X375570Y389437D01*
X375454Y389529D01*
X375430Y389541D01*
X375409Y389556D01*
X375273Y389615D01*
X375139Y389678D01*
X375113Y389684D01*
X375089Y389694D01*
X374943Y389721D01*
X374798Y389752D01*
X374772Y389751D01*
X374746Y389756D01*
X374598Y389748D01*
X374450Y389746D01*
X374424Y389739D01*
X374398Y389738D01*
X374256Y389697D01*
X374112Y389661D01*
X374089Y389649D01*
X374063Y389641D01*
X373934Y389569D01*
X373802Y389501D01*
X373782Y389484D01*
X373759Y389471D01*
X373573Y389313D01*
X372169Y387909D01*
X369659Y386869D01*
X366941Y386869D01*
X364431Y387909D01*
X362509Y389831D01*
X361469Y392341D01*
X361469Y394151D01*
X361455Y394277D01*
X361448Y394403D01*
X361435Y394450D01*
X361429Y394498D01*
X361387Y394617D01*
X361352Y394738D01*
X361328Y394780D01*
X361312Y394826D01*
X361243Y394932D01*
X361182Y395042D01*
X361142Y395089D01*
X361123Y395119D01*
X361088Y395152D01*
X361023Y395228D01*
X290862Y465389D01*
X288035Y468216D01*
X288035Y654174D01*
X288021Y654299D01*
X288014Y654425D01*
X288001Y654472D01*
X287995Y654520D01*
X287953Y654639D01*
X287918Y654760D01*
X287894Y654802D01*
X287878Y654848D01*
X287809Y654954D01*
X287748Y655064D01*
X287708Y655111D01*
X287689Y655141D01*
X287654Y655174D01*
X287589Y655251D01*
X286309Y656531D01*
X285269Y659041D01*
X285269Y661759D01*
X286309Y664269D01*
X288231Y666191D01*
X290741Y667231D01*
X293459Y667231D01*
X295969Y666191D01*
X297891Y664269D01*
X298931Y661759D01*
X298931Y659041D01*
X297891Y656531D01*
X296611Y655251D01*
X296532Y655152D01*
X296448Y655058D01*
X296424Y655016D01*
X296394Y654978D01*
X296340Y654864D01*
X296279Y654753D01*
X296266Y654706D01*
X296245Y654663D01*
X296219Y654539D01*
X296184Y654417D01*
X296179Y654357D01*
X296172Y654322D01*
X296173Y654274D01*
X296165Y654174D01*
X296165Y472215D01*
X296179Y472089D01*
X296186Y471963D01*
X296199Y471916D01*
X296205Y471868D01*
X296247Y471749D01*
X296282Y471628D01*
X296306Y471586D01*
X296322Y471540D01*
X296391Y471434D01*
X296452Y471324D01*
X296492Y471277D01*
X296511Y471247D01*
X296546Y471214D01*
X296611Y471138D01*
X300675Y467073D01*
X300753Y467011D01*
X300826Y466941D01*
X300890Y466903D01*
X300948Y466857D01*
X301039Y466814D01*
X301125Y466762D01*
X301196Y466740D01*
X301263Y466708D01*
X301361Y466687D01*
X301457Y466656D01*
X301531Y466650D01*
X301604Y466635D01*
X301704Y466636D01*
X301804Y466628D01*
X301878Y466639D01*
X301952Y466641D01*
X302049Y466665D01*
X302149Y466680D01*
X302218Y466707D01*
X302290Y466726D01*
X302380Y466772D01*
X302473Y466809D01*
X302534Y466851D01*
X302600Y466885D01*
X302677Y466950D01*
X302759Y467008D01*
X302809Y467063D01*
X302865Y467111D01*
X302925Y467192D01*
X302992Y467266D01*
X303028Y467331D01*
X303073Y467391D01*
X303112Y467483D01*
X303161Y467571D01*
X303181Y467643D01*
X303211Y467711D01*
X303228Y467810D01*
X303256Y467907D01*
X303264Y468007D01*
X303272Y468054D01*
X303270Y468090D01*
X303275Y468151D01*
X303275Y721585D01*
X303261Y721711D01*
X303254Y721837D01*
X303241Y721884D01*
X303235Y721932D01*
X303193Y722051D01*
X303158Y722172D01*
X303134Y722214D01*
X303118Y722260D01*
X303049Y722366D01*
X302988Y722476D01*
X302948Y722522D01*
X302929Y722552D01*
X302894Y722586D01*
X302829Y722662D01*
X217202Y808289D01*
X217103Y808368D01*
X217010Y808452D01*
X216967Y808476D01*
X216929Y808506D01*
X216815Y808560D01*
X216705Y808621D01*
X216658Y808634D01*
X216614Y808655D01*
X216491Y808681D01*
X216369Y808716D01*
X216308Y808721D01*
X216274Y808728D01*
X216226Y808727D01*
X216125Y808735D01*
X194797Y808735D01*
X126625Y876907D01*
X126625Y879901D01*
X126614Y880001D01*
X126612Y880101D01*
X126594Y880173D01*
X126585Y880247D01*
X126551Y880342D01*
X126527Y880439D01*
X126493Y880505D01*
X126468Y880575D01*
X126413Y880660D01*
X126367Y880749D01*
X126319Y880806D01*
X126279Y880868D01*
X126207Y880938D01*
X126142Y881015D01*
X126082Y881059D01*
X126028Y881110D01*
X125942Y881162D01*
X125861Y881222D01*
X125793Y881251D01*
X125729Y881289D01*
X125633Y881320D01*
X125541Y881360D01*
X125468Y881373D01*
X125397Y881396D01*
X125297Y881404D01*
X125198Y881421D01*
X125124Y881418D01*
X125050Y881424D01*
X124950Y881409D01*
X124850Y881403D01*
X124779Y881383D01*
X124705Y881372D01*
X124612Y881335D01*
X124515Y881307D01*
X124450Y881271D01*
X124381Y881243D01*
X124299Y881186D01*
X124211Y881137D01*
X124135Y881072D01*
X124095Y881044D01*
X124071Y881018D01*
X124025Y880978D01*
X114095Y871048D01*
X114078Y871028D01*
X114058Y871011D01*
X113970Y870891D01*
X113878Y870775D01*
X113867Y870752D01*
X113851Y870730D01*
X113793Y870594D01*
X113729Y870460D01*
X113724Y870434D01*
X113713Y870410D01*
X113687Y870264D01*
X113656Y870119D01*
X113656Y870093D01*
X113652Y870067D01*
X113659Y869919D01*
X113662Y869771D01*
X113668Y869745D01*
X113670Y869719D01*
X113711Y869577D01*
X113747Y869433D01*
X113759Y869410D01*
X113766Y869384D01*
X113838Y869255D01*
X113906Y869123D01*
X113923Y869103D01*
X113936Y869080D01*
X114095Y868894D01*
X143765Y839224D01*
X143765Y805973D01*
X143779Y805847D01*
X143786Y805721D01*
X143799Y805675D01*
X143805Y805627D01*
X143847Y805508D01*
X143882Y805386D01*
X143906Y805344D01*
X143922Y805298D01*
X143991Y805192D01*
X144052Y805082D01*
X144092Y805036D01*
X144111Y805006D01*
X144146Y804972D01*
X144211Y804896D01*
X145279Y803828D01*
X146281Y801409D01*
X146281Y798791D01*
X145279Y796372D01*
X143428Y794521D01*
X141009Y793519D01*
X138391Y793519D01*
X135972Y794521D01*
X134121Y796372D01*
X133119Y798791D01*
X133119Y801409D01*
X134121Y803828D01*
X135189Y804896D01*
X135268Y804995D01*
X135352Y805089D01*
X135376Y805131D01*
X135406Y805169D01*
X135460Y805283D01*
X135521Y805394D01*
X135534Y805440D01*
X135555Y805484D01*
X135581Y805607D01*
X135616Y805729D01*
X135621Y805790D01*
X135628Y805825D01*
X135627Y805873D01*
X135635Y805973D01*
X135635Y835226D01*
X135621Y835351D01*
X135614Y835477D01*
X135601Y835524D01*
X135595Y835572D01*
X135553Y835691D01*
X135518Y835812D01*
X135494Y835854D01*
X135478Y835900D01*
X135409Y836006D01*
X135348Y836117D01*
X135308Y836163D01*
X135289Y836193D01*
X135254Y836226D01*
X135189Y836303D01*
X89595Y881897D01*
X89595Y913054D01*
X89581Y913180D01*
X89574Y913306D01*
X89561Y913353D01*
X89555Y913401D01*
X89513Y913520D01*
X89478Y913641D01*
X89454Y913683D01*
X89438Y913729D01*
X89369Y913835D01*
X89308Y913945D01*
X89268Y913992D01*
X89249Y914022D01*
X89214Y914055D01*
X89149Y914131D01*
X87002Y916279D01*
X84175Y919106D01*
X84175Y935504D01*
X118596Y969925D01*
X327885Y969925D01*
X328011Y969940D01*
X328137Y969946D01*
X328184Y969960D01*
X328232Y969965D01*
X328351Y970008D01*
X328472Y970043D01*
X328514Y970066D01*
X328560Y970083D01*
X328666Y970151D01*
X328776Y970213D01*
X328822Y970252D01*
X328852Y970272D01*
X328886Y970307D01*
X328962Y970372D01*
X387605Y1029014D01*
X387698Y1029131D01*
X387795Y1029246D01*
X387806Y1029268D01*
X387821Y1029287D01*
X387886Y1029423D01*
X387954Y1029556D01*
X387960Y1029580D01*
X387970Y1029602D01*
X388002Y1029749D01*
X388038Y1029895D01*
X388038Y1029919D01*
X388044Y1029942D01*
X388041Y1030092D01*
X388043Y1030243D01*
X388038Y1030267D01*
X388038Y1030291D01*
X388001Y1030437D01*
X387969Y1030584D01*
X387958Y1030605D01*
X387953Y1030629D01*
X387883Y1030763D01*
X387819Y1030898D01*
X387804Y1030917D01*
X387793Y1030939D01*
X387695Y1031054D01*
X387602Y1031171D01*
X387583Y1031186D01*
X387567Y1031204D01*
X387446Y1031294D01*
X387328Y1031387D01*
X387302Y1031400D01*
X387287Y1031411D01*
X387243Y1031430D01*
X387110Y1031498D01*
X385877Y1032009D01*
X382519Y1035367D01*
X380741Y1039659D01*
X380664Y1039798D01*
X380589Y1039940D01*
X380579Y1039951D01*
X380572Y1039963D01*
X380465Y1040082D01*
X380359Y1040202D01*
X380348Y1040210D01*
X380338Y1040221D01*
X380206Y1040312D01*
X380077Y1040406D01*
X380063Y1040411D01*
X380051Y1040419D01*
X379902Y1040478D01*
X379755Y1040540D01*
X379741Y1040542D01*
X379727Y1040547D01*
X379569Y1040571D01*
X379411Y1040597D01*
X379397Y1040596D01*
X379382Y1040598D01*
X379223Y1040585D01*
X379063Y1040575D01*
X379049Y1040570D01*
X379035Y1040569D01*
X378883Y1040520D01*
X378730Y1040474D01*
X378717Y1040467D01*
X378703Y1040462D01*
X378566Y1040380D01*
X378428Y1040300D01*
X378417Y1040290D01*
X378405Y1040282D01*
X378290Y1040171D01*
X378173Y1040062D01*
X378165Y1040050D01*
X378155Y1040040D01*
X378068Y1039905D01*
X377979Y1039772D01*
X377973Y1039756D01*
X377966Y1039746D01*
X377953Y1039710D01*
X377885Y1039546D01*
X377362Y1037937D01*
X376582Y1036405D01*
X375571Y1035014D01*
X374356Y1033799D01*
X372965Y1032788D01*
X371433Y1032008D01*
X369798Y1031476D01*
X369739Y1031467D01*
X369739Y1041154D01*
X369736Y1041180D01*
X369738Y1041206D01*
X369716Y1041353D01*
X369699Y1041500D01*
X369691Y1041525D01*
X369687Y1041551D01*
X369632Y1041688D01*
X369582Y1041828D01*
X369568Y1041850D01*
X369558Y1041875D01*
X369473Y1041996D01*
X369393Y1042121D01*
X369380Y1042133D01*
X369425Y1042180D01*
X369439Y1042203D01*
X369456Y1042222D01*
X369528Y1042352D01*
X369604Y1042479D01*
X369612Y1042504D01*
X369625Y1042527D01*
X369665Y1042670D01*
X369710Y1042811D01*
X369712Y1042837D01*
X369720Y1042862D01*
X369739Y1043106D01*
X369739Y1052793D01*
X369798Y1052784D01*
X371433Y1052252D01*
X372965Y1051472D01*
X374356Y1050461D01*
X375571Y1049246D01*
X376582Y1047855D01*
X377362Y1046323D01*
X377885Y1044714D01*
X377951Y1044569D01*
X378016Y1044422D01*
X378024Y1044410D01*
X378030Y1044397D01*
X378128Y1044271D01*
X378223Y1044142D01*
X378235Y1044132D01*
X378243Y1044121D01*
X378367Y1044020D01*
X378489Y1043917D01*
X378502Y1043910D01*
X378514Y1043901D01*
X378658Y1043830D01*
X378800Y1043758D01*
X378814Y1043754D01*
X378827Y1043748D01*
X378984Y1043712D01*
X379138Y1043674D01*
X379152Y1043674D01*
X379167Y1043670D01*
X379326Y1043671D01*
X379486Y1043669D01*
X379501Y1043672D01*
X379515Y1043672D01*
X379670Y1043709D01*
X379827Y1043743D01*
X379840Y1043749D01*
X379854Y1043753D01*
X379998Y1043824D01*
X380142Y1043893D01*
X380153Y1043902D01*
X380166Y1043908D01*
X380290Y1044011D01*
X380414Y1044110D01*
X380423Y1044122D01*
X380434Y1044131D01*
X380531Y1044258D01*
X380630Y1044384D01*
X380638Y1044399D01*
X380645Y1044408D01*
X380660Y1044443D01*
X380741Y1044601D01*
X382519Y1048893D01*
X385877Y1052251D01*
X390265Y1054069D01*
X395015Y1054069D01*
X399403Y1052251D01*
X402761Y1048893D01*
X403933Y1046064D01*
X403981Y1045977D01*
X404022Y1045884D01*
X404066Y1045825D01*
X404102Y1045760D01*
X404169Y1045685D01*
X404229Y1045605D01*
X404286Y1045557D01*
X404336Y1045502D01*
X404419Y1045444D01*
X404495Y1045380D01*
X404562Y1045346D01*
X404623Y1045303D01*
X404716Y1045267D01*
X404806Y1045221D01*
X404878Y1045203D01*
X404947Y1045176D01*
X405046Y1045161D01*
X405144Y1045137D01*
X405218Y1045136D01*
X405292Y1045125D01*
X405392Y1045133D01*
X405492Y1045132D01*
X405565Y1045148D01*
X405639Y1045154D01*
X405735Y1045185D01*
X405833Y1045206D01*
X405900Y1045238D01*
X405971Y1045261D01*
X406057Y1045313D01*
X406148Y1045356D01*
X406206Y1045402D01*
X406269Y1045440D01*
X406342Y1045511D01*
X406420Y1045573D01*
X406466Y1045631D01*
X406519Y1045683D01*
X406574Y1045768D01*
X406636Y1045847D01*
X406682Y1045936D01*
X406708Y1045977D01*
X406720Y1046010D01*
X406747Y1046064D01*
X407919Y1048893D01*
X411277Y1052251D01*
X415665Y1054069D01*
X420415Y1054069D01*
X424803Y1052251D01*
X428161Y1048893D01*
X429979Y1044505D01*
X429979Y1039755D01*
X428161Y1035367D01*
X424803Y1032009D01*
X420415Y1030191D01*
X415665Y1030191D01*
X413908Y1030919D01*
X413834Y1030940D01*
X413764Y1030971D01*
X413667Y1030988D01*
X413572Y1031015D01*
X413496Y1031019D01*
X413421Y1031032D01*
X413323Y1031027D01*
X413224Y1031032D01*
X413149Y1031018D01*
X413073Y1031014D01*
X412978Y1030987D01*
X412882Y1030969D01*
X412811Y1030939D01*
X412738Y1030918D01*
X412652Y1030870D01*
X412562Y1030831D01*
X412501Y1030785D01*
X412434Y1030748D01*
X412335Y1030664D01*
X412327Y1030659D01*
X412319Y1030650D01*
X412282Y1030623D01*
X412270Y1030608D01*
X412248Y1030589D01*
X341709Y960051D01*
X338882Y957224D01*
X177414Y957224D01*
X177314Y957212D01*
X177214Y957211D01*
X177142Y957192D01*
X177068Y957184D01*
X176974Y957150D01*
X176876Y957126D01*
X176810Y957092D01*
X176740Y957066D01*
X176656Y957012D01*
X176566Y956966D01*
X176510Y956918D01*
X176447Y956877D01*
X176377Y956805D01*
X176301Y956740D01*
X176257Y956680D01*
X176205Y956627D01*
X176153Y956541D01*
X176094Y956460D01*
X176064Y956392D01*
X176026Y956328D01*
X175995Y956232D01*
X175956Y956140D01*
X175943Y956067D01*
X175920Y955996D01*
X175912Y955896D01*
X175894Y955797D01*
X175898Y955722D01*
X175892Y955648D01*
X175907Y955549D01*
X175912Y955449D01*
X175933Y955377D01*
X175944Y955304D01*
X175981Y955210D01*
X176009Y955114D01*
X176045Y955049D01*
X176072Y954980D01*
X176130Y954897D01*
X176179Y954810D01*
X176244Y954733D01*
X176271Y954694D01*
X176298Y954670D01*
X176337Y954623D01*
X185741Y945220D01*
X185741Y942694D01*
X169813Y926766D01*
X167287Y926766D01*
X161861Y932192D01*
X161822Y932224D01*
X161788Y932261D01*
X161686Y932332D01*
X161588Y932409D01*
X161542Y932430D01*
X161501Y932459D01*
X161385Y932505D01*
X161273Y932558D01*
X161224Y932568D01*
X161177Y932587D01*
X161054Y932605D01*
X160932Y932631D01*
X160882Y932630D01*
X160832Y932638D01*
X160708Y932627D01*
X160584Y932625D01*
X160535Y932613D01*
X160485Y932609D01*
X160366Y932571D01*
X160246Y932540D01*
X160201Y932517D01*
X160153Y932502D01*
X160046Y932438D01*
X159936Y932381D01*
X159898Y932348D01*
X159854Y932322D01*
X159765Y932235D01*
X159671Y932155D01*
X159641Y932114D01*
X159604Y932079D01*
X159537Y931975D01*
X159463Y931874D01*
X159443Y931828D01*
X159416Y931786D01*
X159375Y931669D01*
X159325Y931554D01*
X159316Y931505D01*
X159300Y931457D01*
X159286Y931334D01*
X159264Y931211D01*
X159266Y931161D01*
X159261Y931111D01*
X159275Y930988D01*
X159282Y930863D01*
X159296Y930815D01*
X159301Y930765D01*
X159377Y930532D01*
X159934Y929187D01*
X159934Y926483D01*
X158899Y923984D01*
X157087Y922172D01*
X157071Y922151D01*
X157050Y922134D01*
X156962Y922015D01*
X156870Y921899D01*
X156859Y921875D01*
X156843Y921854D01*
X156785Y921718D01*
X156721Y921584D01*
X156716Y921558D01*
X156705Y921534D01*
X156679Y921388D01*
X156648Y921243D01*
X156648Y921217D01*
X156644Y921191D01*
X156651Y921043D01*
X156654Y920895D01*
X156660Y920869D01*
X156662Y920843D01*
X156703Y920700D01*
X156739Y920557D01*
X156751Y920533D01*
X156758Y920508D01*
X156831Y920378D01*
X156898Y920247D01*
X156915Y920227D01*
X156928Y920204D01*
X157087Y920018D01*
X158328Y918777D01*
X158427Y918698D01*
X158521Y918614D01*
X158563Y918590D01*
X158601Y918560D01*
X158715Y918506D01*
X158826Y918445D01*
X158872Y918432D01*
X158916Y918411D01*
X159039Y918385D01*
X159161Y918350D01*
X159222Y918345D01*
X159257Y918338D01*
X159305Y918339D01*
X159405Y918331D01*
X173405Y918331D01*
X233567Y858169D01*
X233567Y844325D01*
X233581Y844199D01*
X233588Y844073D01*
X233601Y844026D01*
X233607Y843978D01*
X233649Y843859D01*
X233684Y843738D01*
X233708Y843696D01*
X233724Y843650D01*
X233793Y843544D01*
X233854Y843434D01*
X233894Y843388D01*
X233913Y843358D01*
X233948Y843324D01*
X234013Y843248D01*
X254080Y823181D01*
X254179Y823102D01*
X254272Y823018D01*
X254315Y822994D01*
X254353Y822964D01*
X254467Y822910D01*
X254577Y822849D01*
X254624Y822836D01*
X254668Y822815D01*
X254791Y822789D01*
X254913Y822754D01*
X254974Y822749D01*
X255008Y822742D01*
X255056Y822743D01*
X255157Y822735D01*
X283718Y822735D01*
X296165Y810288D01*
X296165Y779555D01*
X296179Y779429D01*
X296186Y779303D01*
X296199Y779256D01*
X296205Y779208D01*
X296247Y779089D01*
X296282Y778968D01*
X296306Y778926D01*
X296322Y778880D01*
X296391Y778774D01*
X296452Y778664D01*
X296492Y778618D01*
X296511Y778588D01*
X296546Y778554D01*
X296611Y778478D01*
X333978Y741111D01*
X334077Y741032D01*
X334170Y740948D01*
X334213Y740924D01*
X334251Y740894D01*
X334365Y740840D01*
X334475Y740779D01*
X334522Y740766D01*
X334566Y740745D01*
X334689Y740719D01*
X334811Y740684D01*
X334872Y740679D01*
X334906Y740672D01*
X334954Y740673D01*
X335055Y740665D01*
X337027Y740665D01*
X337153Y740679D01*
X337279Y740686D01*
X337325Y740699D01*
X337373Y740705D01*
X337492Y740747D01*
X337614Y740782D01*
X337656Y740806D01*
X337702Y740822D01*
X337808Y740891D01*
X337918Y740952D01*
X337964Y740992D01*
X337994Y741011D01*
X338028Y741046D01*
X338104Y741111D01*
X339172Y742179D01*
X341591Y743181D01*
X344209Y743181D01*
X346628Y742179D01*
X348479Y740328D01*
X349481Y737909D01*
X349481Y735291D01*
X348479Y732872D01*
X346628Y731021D01*
X344209Y730019D01*
X342538Y730019D01*
X342438Y730008D01*
X342338Y730006D01*
X342266Y729988D01*
X342192Y729979D01*
X342097Y729946D01*
X342000Y729921D01*
X341934Y729887D01*
X341864Y729862D01*
X341779Y729807D01*
X341690Y729761D01*
X341633Y729713D01*
X341571Y729673D01*
X341501Y729601D01*
X341425Y729536D01*
X341380Y729476D01*
X341329Y729422D01*
X341277Y729336D01*
X341218Y729255D01*
X341188Y729187D01*
X341150Y729123D01*
X341119Y729027D01*
X341080Y728935D01*
X341066Y728862D01*
X341044Y728791D01*
X341036Y728691D01*
X341018Y728592D01*
X341022Y728518D01*
X341016Y728444D01*
X341031Y728344D01*
X341036Y728244D01*
X341056Y728173D01*
X341067Y728099D01*
X341105Y728006D01*
X341132Y727909D01*
X341169Y727844D01*
X341196Y727775D01*
X341253Y727693D01*
X341302Y727605D01*
X341368Y727529D01*
X341395Y727489D01*
X341422Y727465D01*
X341461Y727419D01*
X369538Y699342D01*
X372365Y696515D01*
X372365Y692026D01*
X372379Y691901D01*
X372386Y691775D01*
X372399Y691728D01*
X372405Y691680D01*
X372447Y691561D01*
X372482Y691440D01*
X372506Y691398D01*
X372522Y691352D01*
X372591Y691246D01*
X372652Y691136D01*
X372692Y691089D01*
X372711Y691059D01*
X372746Y691026D01*
X372811Y690949D01*
X374091Y689669D01*
X375131Y687159D01*
X375131Y684441D01*
X374091Y681931D01*
X372169Y680009D01*
X372021Y679948D01*
X371890Y679875D01*
X371756Y679806D01*
X371738Y679790D01*
X371717Y679779D01*
X371605Y679678D01*
X371491Y679580D01*
X371476Y679561D01*
X371458Y679544D01*
X371373Y679421D01*
X371284Y679300D01*
X371274Y679278D01*
X371260Y679258D01*
X371205Y679117D01*
X371146Y678980D01*
X371141Y678956D01*
X371132Y678934D01*
X371110Y678785D01*
X371084Y678637D01*
X371085Y678613D01*
X371082Y678589D01*
X371094Y678439D01*
X371102Y678289D01*
X371108Y678266D01*
X371110Y678241D01*
X371157Y678098D01*
X371198Y677954D01*
X371210Y677933D01*
X371218Y677910D01*
X371295Y677781D01*
X371368Y677650D01*
X371387Y677627D01*
X371397Y677611D01*
X371430Y677577D01*
X371527Y677463D01*
X584414Y464576D01*
X584414Y407772D01*
X584431Y407622D01*
X584444Y407471D01*
X584451Y407449D01*
X584454Y407425D01*
X584505Y407283D01*
X584551Y407139D01*
X584563Y407119D01*
X584571Y407097D01*
X584653Y406970D01*
X584731Y406841D01*
X584748Y406824D01*
X584760Y406804D01*
X584869Y406699D01*
X584974Y406591D01*
X584998Y406575D01*
X585011Y406562D01*
X585051Y406538D01*
X585176Y406452D01*
X597186Y399518D01*
X597840Y397078D01*
X585126Y375057D01*
X585086Y374964D01*
X585036Y374875D01*
X585016Y374804D01*
X584987Y374737D01*
X584969Y374637D01*
X584942Y374539D01*
X584934Y374441D01*
X584925Y374394D01*
X584927Y374358D01*
X584922Y374295D01*
X584922Y372263D01*
X584936Y372139D01*
X584942Y372014D01*
X584956Y371966D01*
X584962Y371917D01*
X585004Y371800D01*
X585038Y371679D01*
X585063Y371636D01*
X585079Y371589D01*
X585147Y371484D01*
X585208Y371375D01*
X585241Y371338D01*
X585268Y371296D01*
X585358Y371209D01*
X585442Y371117D01*
X585483Y371089D01*
X585519Y371054D01*
X585626Y370990D01*
X585729Y370919D01*
X585775Y370901D01*
X585818Y370875D01*
X585937Y370837D01*
X586054Y370791D01*
X586103Y370784D01*
X586150Y370769D01*
X586275Y370759D01*
X586398Y370741D01*
X586448Y370745D01*
X586497Y370741D01*
X586621Y370760D01*
X586746Y370770D01*
X586793Y370785D01*
X586842Y370793D01*
X586958Y370839D01*
X587077Y370877D01*
X587120Y370903D01*
X587166Y370921D01*
X587269Y370993D01*
X587376Y371057D01*
X587411Y371092D01*
X587452Y371120D01*
X587536Y371213D01*
X587625Y371300D01*
X587661Y371352D01*
X587686Y371379D01*
X587709Y371421D01*
X587764Y371502D01*
X601358Y395047D01*
X603798Y395701D01*
X619183Y386818D01*
X619837Y384378D01*
X607602Y363186D01*
X607552Y363071D01*
X607494Y362959D01*
X607483Y362911D01*
X607463Y362866D01*
X607441Y362743D01*
X607410Y362621D01*
X607410Y362572D01*
X607401Y362524D01*
X607407Y362398D01*
X607405Y362272D01*
X607416Y362224D01*
X607418Y362175D01*
X607453Y362054D01*
X607480Y361932D01*
X607501Y361888D01*
X607514Y361840D01*
X607575Y361731D01*
X607629Y361617D01*
X607660Y361579D01*
X607684Y361536D01*
X607768Y361443D01*
X607847Y361345D01*
X607885Y361314D01*
X607918Y361278D01*
X608021Y361207D01*
X608120Y361129D01*
X608175Y361101D01*
X608205Y361080D01*
X608250Y361063D01*
X608338Y361017D01*
X608647Y360889D01*
X609285Y360625D01*
X609382Y360597D01*
X609476Y360560D01*
X609549Y360550D01*
X609620Y360529D01*
X609721Y360524D01*
X609821Y360510D01*
X609894Y360516D01*
X609968Y360512D01*
X610067Y360531D01*
X610168Y360539D01*
X610238Y360562D01*
X610311Y360575D01*
X610404Y360615D01*
X610500Y360646D01*
X610563Y360685D01*
X610631Y360714D01*
X610712Y360774D01*
X610798Y360826D01*
X610851Y360878D01*
X610910Y360922D01*
X610976Y360999D01*
X611048Y361069D01*
X611104Y361151D01*
X611135Y361188D01*
X611152Y361220D01*
X611187Y361271D01*
X623355Y382347D01*
X625795Y383001D01*
X641180Y374118D01*
X641834Y371678D01*
X630390Y351857D01*
X630350Y351763D01*
X630300Y351674D01*
X630281Y351604D01*
X630252Y351537D01*
X630233Y351437D01*
X630206Y351339D01*
X630198Y351241D01*
X630189Y351194D01*
X630191Y351158D01*
X630186Y351095D01*
X630186Y346347D01*
X629490Y344666D01*
X627989Y343166D01*
X627989Y343165D01*
X617693Y332869D01*
X617624Y332782D01*
X617602Y332759D01*
X617591Y332742D01*
X617501Y332635D01*
X617491Y332614D01*
X617476Y332596D01*
X617412Y332459D01*
X617343Y332325D01*
X617337Y332302D01*
X617327Y332281D01*
X617296Y332134D01*
X617259Y331987D01*
X617259Y331963D01*
X617254Y331940D01*
X617256Y331789D01*
X617254Y331638D01*
X617259Y331610D01*
X617260Y331592D01*
X617271Y331546D01*
X617298Y331397D01*
X617704Y329884D01*
X603741Y305700D01*
X601302Y305046D01*
X585916Y313929D01*
X585824Y314272D01*
X585796Y314342D01*
X585778Y314416D01*
X585733Y314504D01*
X585696Y314596D01*
X585653Y314658D01*
X585618Y314726D01*
X585554Y314801D01*
X585498Y314883D01*
X585442Y314934D01*
X585392Y314991D01*
X585313Y315050D01*
X585239Y315117D01*
X585173Y315153D01*
X585112Y315198D01*
X585021Y315238D01*
X584935Y315286D01*
X584862Y315306D01*
X584792Y315336D01*
X584695Y315354D01*
X584599Y315381D01*
X584524Y315385D01*
X584449Y315398D01*
X584350Y315393D01*
X584251Y315398D01*
X584177Y315384D01*
X584101Y315380D01*
X584006Y315353D01*
X583908Y315335D01*
X583839Y315305D01*
X583766Y315284D01*
X583680Y315235D01*
X583589Y315196D01*
X583528Y315150D01*
X583462Y315113D01*
X583347Y315016D01*
X583309Y314988D01*
X583297Y314973D01*
X583276Y314955D01*
X578200Y309879D01*
X572950Y309879D01*
X572784Y309860D01*
X572619Y309843D01*
X572612Y309840D01*
X572604Y309839D01*
X572447Y309783D01*
X572290Y309729D01*
X572283Y309725D01*
X572276Y309722D01*
X572136Y309632D01*
X571995Y309543D01*
X571990Y309537D01*
X571983Y309533D01*
X571867Y309413D01*
X571750Y309295D01*
X571746Y309288D01*
X571741Y309282D01*
X571656Y309140D01*
X571568Y308997D01*
X571566Y308990D01*
X571562Y308983D01*
X571512Y308826D01*
X571459Y308666D01*
X571458Y308659D01*
X571456Y308651D01*
X571442Y308486D01*
X571427Y308319D01*
X571428Y308312D01*
X571428Y308304D01*
X571452Y308139D01*
X571475Y307974D01*
X571478Y307967D01*
X571479Y307959D01*
X571541Y307804D01*
X571601Y307649D01*
X571605Y307643D01*
X571608Y307635D01*
X571703Y307499D01*
X571797Y307361D01*
X571803Y307354D01*
X571807Y307349D01*
X571827Y307332D01*
X571971Y307189D01*
X576512Y303379D01*
X581103Y295427D01*
X582697Y286385D01*
X581103Y277343D01*
X576512Y269391D01*
X569479Y263490D01*
X560851Y260349D01*
X471659Y260349D01*
X463031Y263490D01*
X455998Y269391D01*
X451407Y277343D01*
X449813Y286385D01*
X451407Y295427D01*
X455998Y303379D01*
X463031Y309280D01*
X467632Y310955D01*
X467640Y310959D01*
X467649Y310961D01*
X467797Y311038D01*
X467944Y311111D01*
X467951Y311117D01*
X467959Y311121D01*
X468085Y311228D01*
X468212Y311333D01*
X468217Y311341D01*
X468224Y311347D01*
X468322Y311479D01*
X468422Y311611D01*
X468426Y311620D01*
X468432Y311627D01*
X468497Y311778D01*
X468564Y311930D01*
X468566Y311939D01*
X468570Y311947D01*
X468599Y312110D01*
X468630Y312272D01*
X468630Y312281D01*
X468631Y312290D01*
X468623Y312455D01*
X468616Y312620D01*
X468614Y312629D01*
X468613Y312638D01*
X468568Y312797D01*
X468524Y312956D01*
X468519Y312964D01*
X468517Y312973D01*
X468436Y313118D01*
X468357Y313262D01*
X468351Y313269D01*
X468347Y313277D01*
X468188Y313463D01*
X420628Y361023D01*
X420529Y361102D01*
X420436Y361186D01*
X420393Y361210D01*
X420355Y361240D01*
X420241Y361294D01*
X420131Y361355D01*
X420084Y361368D01*
X420040Y361389D01*
X419917Y361415D01*
X419795Y361450D01*
X419734Y361455D01*
X419700Y361462D01*
X419652Y361461D01*
X419551Y361469D01*
X417741Y361469D01*
X415231Y362509D01*
X413309Y364431D01*
X412269Y366941D01*
X412269Y367577D01*
X412258Y367677D01*
X412256Y367777D01*
X412238Y367849D01*
X412229Y367923D01*
X412196Y368018D01*
X412171Y368115D01*
X412137Y368181D01*
X412112Y368251D01*
X412057Y368336D01*
X412011Y368425D01*
X411963Y368482D01*
X411923Y368544D01*
X411851Y368614D01*
X411786Y368690D01*
X411726Y368735D01*
X411672Y368786D01*
X411586Y368838D01*
X411505Y368897D01*
X411437Y368927D01*
X411373Y368965D01*
X411277Y368996D01*
X411185Y369035D01*
X411112Y369049D01*
X411041Y369071D01*
X410941Y369079D01*
X410842Y369097D01*
X410768Y369093D01*
X410694Y369099D01*
X410594Y369084D01*
X410494Y369079D01*
X410423Y369059D01*
X410349Y369048D01*
X410256Y369011D01*
X410159Y368983D01*
X410094Y368946D01*
X410025Y368919D01*
X409943Y368862D01*
X409855Y368813D01*
X409779Y368747D01*
X409739Y368720D01*
X409715Y368693D01*
X409669Y368654D01*
X386019Y345004D01*
X385940Y344905D01*
X385856Y344811D01*
X385832Y344769D01*
X385802Y344731D01*
X385748Y344617D01*
X385687Y344506D01*
X385674Y344460D01*
X385653Y344416D01*
X385627Y344293D01*
X385592Y344171D01*
X385587Y344110D01*
X385580Y344075D01*
X385581Y344027D01*
X385573Y343927D01*
X385573Y310010D01*
X385584Y309910D01*
X385586Y309810D01*
X385604Y309738D01*
X385613Y309664D01*
X385647Y309569D01*
X385671Y309472D01*
X385705Y309406D01*
X385730Y309336D01*
X385785Y309252D01*
X385831Y309162D01*
X385879Y309106D01*
X385919Y309043D01*
X385991Y308973D01*
X386056Y308897D01*
X386116Y308853D01*
X386170Y308801D01*
X386256Y308749D01*
X386337Y308690D01*
X386405Y308660D01*
X386469Y308622D01*
X386565Y308592D01*
X386657Y308552D01*
X386730Y308539D01*
X386801Y308516D01*
X386901Y308508D01*
X387000Y308490D01*
X387074Y308494D01*
X387148Y308488D01*
X387248Y308503D01*
X387348Y308508D01*
X387419Y308529D01*
X387493Y308540D01*
X387586Y308577D01*
X387683Y308605D01*
X387748Y308641D01*
X387817Y308668D01*
X387899Y308726D01*
X387987Y308775D01*
X388063Y308840D01*
X388103Y308867D01*
X388127Y308894D01*
X388173Y308933D01*
X389831Y310591D01*
X392341Y311631D01*
X395059Y311631D01*
X397569Y310591D01*
X399491Y308669D01*
X400531Y306159D01*
X400531Y303441D01*
X399491Y300931D01*
X397569Y299009D01*
X395059Y297969D01*
X392341Y297969D01*
X389831Y299009D01*
X388173Y300667D01*
X388094Y300729D01*
X388022Y300799D01*
X387958Y300837D01*
X387900Y300883D01*
X387809Y300926D01*
X387723Y300978D01*
X387652Y301001D01*
X387585Y301032D01*
X387487Y301053D01*
X387391Y301084D01*
X387317Y301090D01*
X387244Y301106D01*
X387144Y301104D01*
X387044Y301112D01*
X386970Y301101D01*
X386896Y301100D01*
X386799Y301075D01*
X386699Y301060D01*
X386630Y301033D01*
X386558Y301015D01*
X386469Y300969D01*
X386375Y300932D01*
X386314Y300889D01*
X386248Y300855D01*
X386172Y300790D01*
X386089Y300733D01*
X386039Y300678D01*
X385983Y300629D01*
X385923Y300548D01*
X385856Y300474D01*
X385820Y300409D01*
X385775Y300349D01*
X385736Y300257D01*
X385687Y300169D01*
X385667Y300097D01*
X385637Y300029D01*
X385620Y299930D01*
X385592Y299833D01*
X385584Y299733D01*
X385576Y299686D01*
X385578Y299650D01*
X385573Y299590D01*
X385573Y291190D01*
X384877Y289510D01*
X375577Y280210D01*
X375498Y280111D01*
X375414Y280017D01*
X375390Y279975D01*
X375360Y279937D01*
X375306Y279823D01*
X375245Y279712D01*
X375232Y279666D01*
X375211Y279622D01*
X375185Y279499D01*
X375150Y279377D01*
X375145Y279316D01*
X375138Y279281D01*
X375139Y279233D01*
X375131Y279133D01*
X375131Y278041D01*
X374091Y275531D01*
X372433Y273873D01*
X372371Y273794D01*
X372301Y273722D01*
X372263Y273658D01*
X372217Y273600D01*
X372174Y273509D01*
X372122Y273423D01*
X372099Y273352D01*
X372068Y273285D01*
X372047Y273187D01*
X372016Y273091D01*
X372010Y273017D01*
X371994Y272944D01*
X371996Y272844D01*
X371988Y272744D01*
X371999Y272670D01*
X372000Y272596D01*
X372025Y272498D01*
X372040Y272399D01*
X372067Y272330D01*
X372085Y272258D01*
X372131Y272169D01*
X372168Y272075D01*
X372211Y272014D01*
X372245Y271948D01*
X372310Y271872D01*
X372367Y271789D01*
X372422Y271739D01*
X372471Y271683D01*
X372552Y271623D01*
X372626Y271556D01*
X372691Y271520D01*
X372751Y271475D01*
X372843Y271436D01*
X372931Y271387D01*
X373003Y271367D01*
X373071Y271337D01*
X373170Y271320D01*
X373267Y271292D01*
X373367Y271284D01*
X373414Y271276D01*
X373450Y271278D01*
X373510Y271273D01*
X375282Y271273D01*
X375407Y271287D01*
X375533Y271294D01*
X375580Y271307D01*
X375628Y271313D01*
X375747Y271355D01*
X375868Y271390D01*
X375910Y271414D01*
X375956Y271430D01*
X376062Y271499D01*
X376172Y271560D01*
X376219Y271600D01*
X376249Y271619D01*
X376282Y271654D01*
X376359Y271719D01*
X377131Y272491D01*
X379641Y273531D01*
X382359Y273531D01*
X384869Y272491D01*
X386791Y270569D01*
X387831Y268059D01*
X387831Y265341D01*
X386791Y262831D01*
X384852Y260892D01*
X384766Y260844D01*
X384620Y260763D01*
X384620Y260762D01*
X384619Y260762D01*
X384492Y260646D01*
X384362Y260529D01*
X384362Y260528D01*
X384361Y260528D01*
X384265Y260388D01*
X384164Y260242D01*
X384163Y260241D01*
X384097Y260072D01*
X384036Y259918D01*
X384036Y259917D01*
X384011Y259746D01*
X383985Y259573D01*
X383985Y259572D01*
X383999Y259405D01*
X384014Y259226D01*
X384014Y259225D01*
X384015Y259224D01*
X384073Y259044D01*
X384121Y258894D01*
X384122Y258894D01*
X384122Y258893D01*
X384209Y258749D01*
X384301Y258596D01*
X384301Y258595D01*
X384302Y258594D01*
X384429Y258463D01*
X384544Y258346D01*
X384544Y258345D01*
X384545Y258345D01*
X384746Y258206D01*
X386337Y257287D01*
X386338Y257287D01*
X386340Y257286D01*
X386500Y257217D01*
X386657Y257149D01*
X386658Y257148D01*
X386660Y257148D01*
X386831Y257117D01*
X387000Y257086D01*
X387001Y257086D01*
X387003Y257086D01*
X387173Y257095D01*
X387348Y257104D01*
X387349Y257104D01*
X387351Y257104D01*
X387514Y257151D01*
X387683Y257200D01*
X387684Y257200D01*
X387686Y257201D01*
X387838Y257286D01*
X387987Y257369D01*
X387988Y257370D01*
X387990Y257371D01*
X388176Y257529D01*
X401381Y270734D01*
X401460Y270833D01*
X401544Y270927D01*
X401568Y270970D01*
X401598Y271007D01*
X401652Y271122D01*
X401713Y271232D01*
X401726Y271279D01*
X401747Y271323D01*
X401773Y271446D01*
X401808Y271568D01*
X401813Y271628D01*
X401820Y271663D01*
X401819Y271711D01*
X401827Y271812D01*
X401827Y273682D01*
X401813Y273807D01*
X401806Y273933D01*
X401793Y273980D01*
X401787Y274028D01*
X401745Y274147D01*
X401710Y274268D01*
X401686Y274310D01*
X401670Y274356D01*
X401601Y274462D01*
X401540Y274572D01*
X401500Y274619D01*
X401481Y274649D01*
X401446Y274682D01*
X401381Y274759D01*
X400609Y275531D01*
X399569Y278041D01*
X399569Y280759D01*
X400609Y283269D01*
X402531Y285191D01*
X405041Y286231D01*
X407759Y286231D01*
X410269Y285191D01*
X412191Y283269D01*
X413231Y280759D01*
X413231Y278041D01*
X412191Y275531D01*
X411419Y274759D01*
X411340Y274660D01*
X411256Y274566D01*
X411232Y274524D01*
X411202Y274486D01*
X411148Y274372D01*
X411087Y274261D01*
X411074Y274214D01*
X411053Y274171D01*
X411027Y274047D01*
X410992Y273925D01*
X410987Y273865D01*
X410980Y273830D01*
X410981Y273782D01*
X410973Y273682D01*
X410973Y268377D01*
X410277Y266696D01*
X395737Y252157D01*
X395671Y252074D01*
X395626Y252027D01*
X395608Y251997D01*
X395546Y251923D01*
X395535Y251902D01*
X395520Y251884D01*
X395456Y251747D01*
X395387Y251613D01*
X395381Y251590D01*
X395371Y251569D01*
X395340Y251421D01*
X395303Y251274D01*
X395303Y251251D01*
X395298Y251228D01*
X395301Y251077D01*
X395299Y250926D01*
X395304Y250898D01*
X395304Y250879D01*
X395315Y250834D01*
X395343Y250685D01*
X395552Y249905D01*
X384484Y230734D01*
X384443Y230641D01*
X384394Y230552D01*
X384374Y230481D01*
X384345Y230414D01*
X384327Y230314D01*
X384299Y230216D01*
X384291Y230118D01*
X384283Y230072D01*
X384285Y230035D01*
X384279Y229973D01*
X384279Y227940D01*
X384294Y227816D01*
X384300Y227691D01*
X384314Y227643D01*
X384319Y227594D01*
X384361Y227477D01*
X384396Y227356D01*
X384420Y227313D01*
X384437Y227266D01*
X384505Y227161D01*
X384566Y227052D01*
X384599Y227015D01*
X384626Y226973D01*
X384716Y226886D01*
X384800Y226794D01*
X384841Y226766D01*
X384877Y226731D01*
X384984Y226667D01*
X385087Y226596D01*
X385133Y226578D01*
X385176Y226552D01*
X385295Y226514D01*
X385411Y226468D01*
X385460Y226461D01*
X385508Y226446D01*
X385632Y226436D01*
X385756Y226418D01*
X385806Y226422D01*
X385855Y226418D01*
X385979Y226437D01*
X386103Y226447D01*
X386150Y226462D01*
X386200Y226470D01*
X386316Y226516D01*
X386435Y226554D01*
X386477Y226580D01*
X386523Y226598D01*
X386626Y226670D01*
X386733Y226734D01*
X386769Y226769D01*
X386810Y226797D01*
X386893Y226890D01*
X386983Y226977D01*
X387019Y227029D01*
X387043Y227056D01*
X387066Y227098D01*
X387122Y227179D01*
X399070Y247874D01*
X401510Y248527D01*
X410650Y243250D01*
X410766Y243200D01*
X410878Y243143D01*
X410925Y243131D01*
X410970Y243111D01*
X411094Y243089D01*
X411216Y243059D01*
X411265Y243058D01*
X411313Y243049D01*
X411438Y243055D01*
X411564Y243054D01*
X411612Y243064D01*
X411661Y243066D01*
X411782Y243101D01*
X411905Y243128D01*
X411949Y243149D01*
X411996Y243162D01*
X412106Y243224D01*
X412219Y243278D01*
X412258Y243308D01*
X412301Y243332D01*
X412393Y243416D01*
X412492Y243495D01*
X412522Y243534D01*
X412558Y243566D01*
X412630Y243670D01*
X412708Y243769D01*
X412736Y243824D01*
X412756Y243853D01*
X412774Y243898D01*
X412819Y243986D01*
X413309Y245169D01*
X415231Y247091D01*
X417741Y248131D01*
X420459Y248131D01*
X422969Y247091D01*
X424627Y245433D01*
X424706Y245371D01*
X424778Y245301D01*
X424842Y245263D01*
X424900Y245217D01*
X424991Y245174D01*
X425077Y245122D01*
X425148Y245099D01*
X425215Y245068D01*
X425313Y245047D01*
X425409Y245016D01*
X425483Y245010D01*
X425556Y244994D01*
X425656Y244996D01*
X425756Y244988D01*
X425830Y244999D01*
X425904Y245000D01*
X426001Y245025D01*
X426101Y245040D01*
X426170Y245067D01*
X426242Y245085D01*
X426331Y245131D01*
X426425Y245168D01*
X426486Y245211D01*
X426552Y245245D01*
X426628Y245310D01*
X426711Y245367D01*
X426761Y245422D01*
X426817Y245471D01*
X426877Y245552D01*
X426944Y245626D01*
X426980Y245691D01*
X427025Y245751D01*
X427064Y245843D01*
X427113Y245931D01*
X427133Y246003D01*
X427163Y246071D01*
X427180Y246170D01*
X427208Y246267D01*
X427216Y246367D01*
X427224Y246414D01*
X427222Y246450D01*
X427227Y246510D01*
X427227Y260982D01*
X427213Y261107D01*
X427206Y261233D01*
X427193Y261280D01*
X427187Y261328D01*
X427145Y261447D01*
X427110Y261568D01*
X427086Y261610D01*
X427070Y261656D01*
X427001Y261762D01*
X426940Y261872D01*
X426900Y261919D01*
X426881Y261949D01*
X426846Y261982D01*
X426781Y262059D01*
X426009Y262831D01*
X424969Y265341D01*
X424969Y268059D01*
X426009Y270569D01*
X427931Y272491D01*
X430441Y273531D01*
X433159Y273531D01*
X435669Y272491D01*
X437591Y270569D01*
X438631Y268059D01*
X438631Y265341D01*
X437591Y262831D01*
X436819Y262059D01*
X436740Y261960D01*
X436656Y261866D01*
X436632Y261824D01*
X436602Y261786D01*
X436548Y261672D01*
X436487Y261561D01*
X436474Y261514D01*
X436453Y261471D01*
X436427Y261347D01*
X436392Y261225D01*
X436387Y261165D01*
X436380Y261130D01*
X436381Y261082D01*
X436373Y260982D01*
X436373Y229279D01*
X436390Y229129D01*
X436403Y228978D01*
X436410Y228956D01*
X436413Y228932D01*
X436463Y228790D01*
X436510Y228647D01*
X436522Y228626D01*
X436530Y228604D01*
X436612Y228478D01*
X436690Y228348D01*
X436706Y228331D01*
X436719Y228311D01*
X436828Y228207D01*
X436933Y228098D01*
X436956Y228082D01*
X436970Y228069D01*
X437010Y228045D01*
X437134Y227959D01*
X438892Y226945D01*
X439546Y224505D01*
X426832Y202484D01*
X426791Y202390D01*
X426742Y202301D01*
X426722Y202231D01*
X426693Y202164D01*
X426675Y202064D01*
X426647Y201966D01*
X426640Y201868D01*
X426631Y201821D01*
X426633Y201785D01*
X426628Y201722D01*
X426628Y199690D01*
X426642Y199566D01*
X426648Y199441D01*
X426662Y199393D01*
X426668Y199344D01*
X426710Y199226D01*
X426744Y199106D01*
X426768Y199062D01*
X426785Y199016D01*
X426853Y198911D01*
X426914Y198801D01*
X426947Y198765D01*
X426974Y198723D01*
X427064Y198636D01*
X427148Y198543D01*
X427189Y198515D01*
X427225Y198481D01*
X427332Y198416D01*
X427435Y198345D01*
X427481Y198327D01*
X427524Y198302D01*
X427643Y198264D01*
X427759Y198218D01*
X427809Y198211D01*
X427856Y198196D01*
X427981Y198186D01*
X428104Y198167D01*
X428154Y198172D01*
X428203Y198168D01*
X428327Y198186D01*
X428452Y198197D01*
X428499Y198212D01*
X428548Y198219D01*
X428664Y198265D01*
X428783Y198304D01*
X428826Y198330D01*
X428872Y198348D01*
X428974Y198419D01*
X429082Y198484D01*
X429117Y198519D01*
X429158Y198547D01*
X429242Y198640D01*
X429331Y198727D01*
X429367Y198779D01*
X429391Y198806D01*
X429414Y198847D01*
X429470Y198928D01*
X443064Y222474D01*
X445504Y223127D01*
X460889Y214245D01*
X461543Y211805D01*
X445040Y183221D01*
X442601Y182568D01*
X427215Y191450D01*
X426422Y194411D01*
X426394Y194481D01*
X426375Y194555D01*
X426330Y194643D01*
X426294Y194735D01*
X426251Y194797D01*
X426216Y194865D01*
X426152Y194940D01*
X426095Y195022D01*
X426039Y195072D01*
X425990Y195130D01*
X425910Y195189D01*
X425837Y195256D01*
X425771Y195292D01*
X425710Y195337D01*
X425619Y195377D01*
X425532Y195425D01*
X425459Y195445D01*
X425390Y195475D01*
X425292Y195493D01*
X425197Y195520D01*
X425121Y195524D01*
X425047Y195537D01*
X424948Y195532D01*
X424849Y195537D01*
X424774Y195523D01*
X424699Y195519D01*
X424603Y195492D01*
X424506Y195474D01*
X424437Y195444D01*
X424364Y195423D01*
X424277Y195374D01*
X424186Y195335D01*
X424126Y195289D01*
X424060Y195252D01*
X423945Y195154D01*
X423907Y195126D01*
X423895Y195112D01*
X423873Y195094D01*
X418141Y189362D01*
X418047Y189244D01*
X417950Y189128D01*
X417939Y189107D01*
X417924Y189089D01*
X417860Y188952D01*
X417791Y188818D01*
X417786Y188795D01*
X417776Y188774D01*
X417744Y188626D01*
X417707Y188479D01*
X417707Y188456D01*
X417702Y188433D01*
X417705Y188282D01*
X417703Y188131D01*
X417708Y188103D01*
X417708Y188084D01*
X417720Y188039D01*
X417747Y187890D01*
X417956Y187110D01*
X401453Y158526D01*
X399013Y157873D01*
X383628Y166755D01*
G37*
%LPD*%
%LPC*%
G36*
X1013189Y814069D02*
X1013189Y814069D01*
X940756Y886502D01*
X940657Y886581D01*
X940564Y886665D01*
X940521Y886689D01*
X940483Y886719D01*
X940369Y886773D01*
X940259Y886834D01*
X940212Y886847D01*
X940168Y886868D01*
X940045Y886894D01*
X939923Y886929D01*
X939862Y886934D01*
X939828Y886941D01*
X939780Y886940D01*
X939679Y886948D01*
X724833Y886948D01*
X724733Y886937D01*
X724633Y886935D01*
X724561Y886917D01*
X724487Y886908D01*
X724392Y886875D01*
X724295Y886850D01*
X724229Y886816D01*
X724159Y886791D01*
X724074Y886736D01*
X723985Y886690D01*
X723928Y886642D01*
X723866Y886602D01*
X723796Y886530D01*
X723719Y886465D01*
X723675Y886405D01*
X723624Y886351D01*
X723572Y886265D01*
X723512Y886184D01*
X723483Y886116D01*
X723445Y886052D01*
X723414Y885956D01*
X723374Y885864D01*
X723361Y885791D01*
X723338Y885720D01*
X723330Y885620D01*
X723313Y885521D01*
X723316Y885447D01*
X723310Y885373D01*
X723325Y885273D01*
X723331Y885173D01*
X723351Y885102D01*
X723362Y885028D01*
X723399Y884935D01*
X723427Y884838D01*
X723463Y884773D01*
X723491Y884704D01*
X723548Y884622D01*
X723597Y884534D01*
X723662Y884458D01*
X723690Y884418D01*
X723716Y884394D01*
X723756Y884348D01*
X728638Y879466D01*
X729489Y877412D01*
X729489Y869363D01*
X729503Y869237D01*
X729510Y869111D01*
X729523Y869065D01*
X729529Y869017D01*
X729571Y868898D01*
X729606Y868776D01*
X729630Y868734D01*
X729646Y868689D01*
X729715Y868583D01*
X729776Y868472D01*
X729816Y868426D01*
X729835Y868396D01*
X729870Y868362D01*
X729935Y868286D01*
X730327Y867894D01*
X731481Y865108D01*
X731481Y862092D01*
X730327Y859306D01*
X728194Y857173D01*
X725408Y856019D01*
X722392Y856019D01*
X719606Y857173D01*
X717473Y859306D01*
X716319Y862092D01*
X716319Y865108D01*
X717473Y867894D01*
X717865Y868286D01*
X717944Y868385D01*
X718028Y868479D01*
X718052Y868521D01*
X718082Y868559D01*
X718136Y868673D01*
X718197Y868784D01*
X718210Y868830D01*
X718231Y868874D01*
X718257Y868997D01*
X718292Y869119D01*
X718297Y869180D01*
X718304Y869215D01*
X718303Y869263D01*
X718311Y869363D01*
X718311Y873354D01*
X718297Y873480D01*
X718290Y873606D01*
X718277Y873652D01*
X718271Y873700D01*
X718229Y873819D01*
X718194Y873941D01*
X718170Y873983D01*
X718154Y874028D01*
X718085Y874135D01*
X718024Y874245D01*
X717984Y874291D01*
X717965Y874321D01*
X717930Y874355D01*
X717865Y874431D01*
X620431Y971865D01*
X620332Y971944D01*
X620238Y972028D01*
X620196Y972052D01*
X620158Y972082D01*
X620044Y972136D01*
X619933Y972197D01*
X619887Y972210D01*
X619843Y972231D01*
X619720Y972257D01*
X619598Y972292D01*
X619537Y972297D01*
X619502Y972304D01*
X619454Y972303D01*
X619354Y972311D01*
X583632Y972311D01*
X581578Y973162D01*
X579689Y975051D01*
X579611Y975113D01*
X579538Y975183D01*
X579474Y975221D01*
X579416Y975267D01*
X579325Y975310D01*
X579239Y975362D01*
X579168Y975384D01*
X579101Y975416D01*
X579003Y975437D01*
X578907Y975468D01*
X578833Y975474D01*
X578760Y975490D01*
X578660Y975488D01*
X578560Y975496D01*
X578486Y975485D01*
X578412Y975484D01*
X578315Y975459D01*
X578215Y975444D01*
X578146Y975417D01*
X578074Y975399D01*
X577985Y975353D01*
X577891Y975315D01*
X577830Y975273D01*
X577764Y975239D01*
X577688Y975174D01*
X577605Y975117D01*
X577555Y975061D01*
X577499Y975013D01*
X577439Y974932D01*
X577372Y974858D01*
X577336Y974793D01*
X577291Y974733D01*
X577252Y974641D01*
X577203Y974553D01*
X577183Y974481D01*
X577153Y974413D01*
X577136Y974314D01*
X577108Y974217D01*
X577100Y974117D01*
X577092Y974070D01*
X577094Y974034D01*
X577089Y973974D01*
X577089Y926575D01*
X577097Y926499D01*
X577096Y926423D01*
X577117Y926327D01*
X577129Y926229D01*
X577154Y926157D01*
X577171Y926082D01*
X577213Y925994D01*
X577246Y925901D01*
X577288Y925836D01*
X577320Y925768D01*
X577382Y925691D01*
X577435Y925608D01*
X577490Y925555D01*
X577538Y925495D01*
X577615Y925434D01*
X577686Y925366D01*
X577751Y925327D01*
X577811Y925279D01*
X577944Y925211D01*
X577985Y925187D01*
X578003Y925181D01*
X578029Y925168D01*
X578551Y924952D01*
X582052Y921451D01*
X582793Y919662D01*
X582841Y919574D01*
X582881Y919482D01*
X582926Y919422D01*
X582962Y919357D01*
X583029Y919283D01*
X583089Y919202D01*
X583146Y919154D01*
X583196Y919099D01*
X583279Y919042D01*
X583355Y918977D01*
X583422Y918943D01*
X583483Y918901D01*
X583576Y918864D01*
X583666Y918818D01*
X583738Y918800D01*
X583807Y918773D01*
X583906Y918758D01*
X584004Y918734D01*
X584078Y918733D01*
X584152Y918722D01*
X584252Y918731D01*
X584352Y918729D01*
X584425Y918745D01*
X584499Y918751D01*
X584595Y918782D01*
X584693Y918803D01*
X584760Y918835D01*
X584831Y918858D01*
X584917Y918910D01*
X585008Y918953D01*
X585066Y919000D01*
X585129Y919038D01*
X585201Y919108D01*
X585280Y919171D01*
X585326Y919229D01*
X585379Y919281D01*
X585434Y919365D01*
X585496Y919444D01*
X585542Y919533D01*
X585568Y919574D01*
X585580Y919608D01*
X585607Y919662D01*
X586348Y921451D01*
X589849Y924952D01*
X594424Y926847D01*
X599376Y926847D01*
X603951Y924952D01*
X607452Y921451D01*
X608193Y919662D01*
X608241Y919574D01*
X608281Y919482D01*
X608326Y919422D01*
X608362Y919357D01*
X608429Y919283D01*
X608489Y919202D01*
X608546Y919154D01*
X608596Y919099D01*
X608679Y919042D01*
X608755Y918977D01*
X608822Y918943D01*
X608883Y918901D01*
X608976Y918864D01*
X609066Y918818D01*
X609138Y918800D01*
X609207Y918773D01*
X609306Y918758D01*
X609404Y918734D01*
X609478Y918733D01*
X609552Y918722D01*
X609652Y918731D01*
X609752Y918729D01*
X609825Y918745D01*
X609899Y918751D01*
X609995Y918782D01*
X610093Y918803D01*
X610160Y918835D01*
X610231Y918858D01*
X610317Y918910D01*
X610408Y918953D01*
X610466Y919000D01*
X610529Y919038D01*
X610601Y919108D01*
X610680Y919171D01*
X610726Y919229D01*
X610779Y919281D01*
X610834Y919365D01*
X610896Y919444D01*
X610942Y919533D01*
X610968Y919574D01*
X610980Y919608D01*
X611007Y919662D01*
X611748Y921451D01*
X615249Y924952D01*
X619824Y926847D01*
X624776Y926847D01*
X629351Y924952D01*
X632852Y921451D01*
X634747Y916876D01*
X634747Y911924D01*
X632852Y907349D01*
X629351Y903848D01*
X624776Y901953D01*
X619824Y901953D01*
X615249Y903848D01*
X611748Y907349D01*
X611007Y909138D01*
X610959Y909226D01*
X610918Y909318D01*
X610874Y909378D01*
X610838Y909443D01*
X610771Y909517D01*
X610711Y909598D01*
X610654Y909646D01*
X610604Y909701D01*
X610521Y909758D01*
X610445Y909823D01*
X610378Y909857D01*
X610317Y909899D01*
X610224Y909936D01*
X610134Y909982D01*
X610062Y910000D01*
X609993Y910027D01*
X609894Y910042D01*
X609796Y910066D01*
X609722Y910067D01*
X609648Y910078D01*
X609548Y910069D01*
X609448Y910071D01*
X609375Y910055D01*
X609301Y910049D01*
X609205Y910018D01*
X609107Y909997D01*
X609040Y909965D01*
X608969Y909942D01*
X608883Y909890D01*
X608792Y909847D01*
X608734Y909800D01*
X608671Y909762D01*
X608599Y909692D01*
X608520Y909629D01*
X608474Y909571D01*
X608421Y909519D01*
X608366Y909435D01*
X608304Y909356D01*
X608258Y909266D01*
X608232Y909226D01*
X608220Y909192D01*
X608193Y909138D01*
X607452Y907349D01*
X603951Y903848D01*
X599376Y901953D01*
X594424Y901953D01*
X589849Y903848D01*
X586348Y907349D01*
X585607Y909138D01*
X585559Y909226D01*
X585518Y909318D01*
X585474Y909378D01*
X585438Y909443D01*
X585371Y909517D01*
X585311Y909598D01*
X585254Y909646D01*
X585204Y909701D01*
X585121Y909758D01*
X585045Y909823D01*
X584978Y909857D01*
X584917Y909899D01*
X584824Y909936D01*
X584734Y909982D01*
X584662Y910000D01*
X584593Y910027D01*
X584494Y910042D01*
X584396Y910066D01*
X584322Y910067D01*
X584248Y910078D01*
X584148Y910069D01*
X584048Y910071D01*
X583975Y910055D01*
X583901Y910049D01*
X583805Y910018D01*
X583707Y909997D01*
X583640Y909965D01*
X583569Y909942D01*
X583483Y909890D01*
X583392Y909847D01*
X583334Y909800D01*
X583271Y909762D01*
X583199Y909692D01*
X583120Y909629D01*
X583074Y909571D01*
X583021Y909519D01*
X582966Y909435D01*
X582904Y909356D01*
X582858Y909266D01*
X582832Y909226D01*
X582820Y909192D01*
X582793Y909138D01*
X582052Y907349D01*
X578551Y903848D01*
X573976Y901953D01*
X569024Y901953D01*
X564449Y903848D01*
X560948Y907349D01*
X559053Y911924D01*
X559053Y916876D01*
X560948Y921451D01*
X564449Y924952D01*
X564971Y925168D01*
X565038Y925205D01*
X565109Y925233D01*
X565190Y925289D01*
X565276Y925337D01*
X565332Y925389D01*
X565395Y925432D01*
X565461Y925505D01*
X565534Y925571D01*
X565577Y925634D01*
X565628Y925691D01*
X565676Y925777D01*
X565732Y925858D01*
X565760Y925929D01*
X565797Y925996D01*
X565824Y926091D01*
X565860Y926182D01*
X565871Y926258D01*
X565892Y926331D01*
X565904Y926480D01*
X565911Y926527D01*
X565909Y926546D01*
X565911Y926575D01*
X565911Y988197D01*
X565897Y988323D01*
X565890Y988449D01*
X565877Y988496D01*
X565871Y988544D01*
X565829Y988663D01*
X565794Y988784D01*
X565770Y988826D01*
X565754Y988872D01*
X565685Y988978D01*
X565624Y989088D01*
X565584Y989135D01*
X565565Y989165D01*
X565530Y989198D01*
X565465Y989275D01*
X494657Y1060083D01*
X494641Y1060112D01*
X494613Y1060183D01*
X494556Y1060263D01*
X494509Y1060350D01*
X494457Y1060406D01*
X494414Y1060469D01*
X494341Y1060535D01*
X494275Y1060608D01*
X494212Y1060651D01*
X494155Y1060702D01*
X494069Y1060750D01*
X493988Y1060806D01*
X493917Y1060834D01*
X493850Y1060871D01*
X493755Y1060898D01*
X493664Y1060934D01*
X493588Y1060945D01*
X493514Y1060966D01*
X493366Y1060978D01*
X493319Y1060985D01*
X493300Y1060983D01*
X493271Y1060985D01*
X462998Y1060985D01*
X460944Y1061836D01*
X460745Y1062035D01*
X460646Y1062114D01*
X460552Y1062198D01*
X460510Y1062222D01*
X460472Y1062252D01*
X460358Y1062306D01*
X460247Y1062367D01*
X460201Y1062380D01*
X460157Y1062401D01*
X460034Y1062427D01*
X459912Y1062462D01*
X459851Y1062467D01*
X459816Y1062474D01*
X459768Y1062473D01*
X459668Y1062481D01*
X426133Y1062481D01*
X426007Y1062467D01*
X425881Y1062460D01*
X425835Y1062447D01*
X425787Y1062441D01*
X425668Y1062399D01*
X425546Y1062364D01*
X425504Y1062340D01*
X425459Y1062324D01*
X425352Y1062255D01*
X425242Y1062194D01*
X425196Y1062154D01*
X425166Y1062135D01*
X425132Y1062100D01*
X425056Y1062035D01*
X424664Y1061643D01*
X421878Y1060489D01*
X418862Y1060489D01*
X416076Y1061643D01*
X413943Y1063776D01*
X412789Y1066562D01*
X412789Y1069578D01*
X413943Y1072364D01*
X416076Y1074497D01*
X418862Y1075651D01*
X421878Y1075651D01*
X424664Y1074497D01*
X425056Y1074105D01*
X425155Y1074026D01*
X425249Y1073942D01*
X425291Y1073918D01*
X425329Y1073888D01*
X425443Y1073834D01*
X425554Y1073773D01*
X425600Y1073760D01*
X425644Y1073739D01*
X425767Y1073713D01*
X425889Y1073678D01*
X425950Y1073673D01*
X425985Y1073666D01*
X426033Y1073667D01*
X426133Y1073659D01*
X463726Y1073659D01*
X465780Y1072808D01*
X465979Y1072609D01*
X466078Y1072530D01*
X466172Y1072446D01*
X466214Y1072422D01*
X466252Y1072392D01*
X466366Y1072338D01*
X466477Y1072277D01*
X466523Y1072264D01*
X466567Y1072243D01*
X466690Y1072217D01*
X466812Y1072182D01*
X466873Y1072177D01*
X466908Y1072170D01*
X466956Y1072171D01*
X467056Y1072163D01*
X492671Y1072163D01*
X492797Y1072177D01*
X492923Y1072184D01*
X492970Y1072197D01*
X493018Y1072203D01*
X493137Y1072245D01*
X493258Y1072280D01*
X493300Y1072304D01*
X493346Y1072320D01*
X493452Y1072389D01*
X493562Y1072450D01*
X493609Y1072490D01*
X493639Y1072509D01*
X493672Y1072544D01*
X493749Y1072609D01*
X494452Y1073312D01*
X504362Y1083222D01*
X504455Y1083340D01*
X504552Y1083455D01*
X504563Y1083476D01*
X504578Y1083495D01*
X504643Y1083631D01*
X504711Y1083765D01*
X504717Y1083788D01*
X504727Y1083810D01*
X504759Y1083957D01*
X504795Y1084103D01*
X504796Y1084127D01*
X504801Y1084151D01*
X504798Y1084301D01*
X504800Y1084452D01*
X504795Y1084475D01*
X504795Y1084499D01*
X504758Y1084645D01*
X504726Y1084792D01*
X504716Y1084814D01*
X504710Y1084837D01*
X504641Y1084971D01*
X504576Y1085107D01*
X504561Y1085126D01*
X504550Y1085147D01*
X504453Y1085262D01*
X504359Y1085379D01*
X504340Y1085394D01*
X504324Y1085412D01*
X504203Y1085502D01*
X504085Y1085595D01*
X504059Y1085608D01*
X504044Y1085620D01*
X504001Y1085638D01*
X503868Y1085706D01*
X503706Y1085773D01*
X501573Y1087906D01*
X500419Y1090692D01*
X500419Y1093708D01*
X501573Y1096494D01*
X503706Y1098627D01*
X506492Y1099781D01*
X509508Y1099781D01*
X512294Y1098627D01*
X514210Y1096711D01*
X514309Y1096632D01*
X514403Y1096548D01*
X514445Y1096524D01*
X514483Y1096494D01*
X514597Y1096440D01*
X514708Y1096379D01*
X514754Y1096366D01*
X514798Y1096345D01*
X514921Y1096319D01*
X515043Y1096284D01*
X515104Y1096279D01*
X515139Y1096272D01*
X515187Y1096273D01*
X515287Y1096265D01*
X573184Y1096265D01*
X588265Y1081184D01*
X588265Y1065116D01*
X575194Y1052045D01*
X574091Y1052045D01*
X573991Y1052034D01*
X573890Y1052032D01*
X573818Y1052014D01*
X573744Y1052005D01*
X573650Y1051972D01*
X573552Y1051947D01*
X573486Y1051913D01*
X573416Y1051888D01*
X573332Y1051833D01*
X573243Y1051787D01*
X573186Y1051739D01*
X573123Y1051699D01*
X573054Y1051627D01*
X572977Y1051562D01*
X572933Y1051502D01*
X572881Y1051448D01*
X572830Y1051362D01*
X572770Y1051281D01*
X572741Y1051213D01*
X572702Y1051149D01*
X572672Y1051053D01*
X572632Y1050961D01*
X572619Y1050888D01*
X572596Y1050817D01*
X572588Y1050717D01*
X572570Y1050618D01*
X572574Y1050544D01*
X572568Y1050470D01*
X572583Y1050370D01*
X572588Y1050270D01*
X572609Y1050199D01*
X572620Y1050125D01*
X572657Y1050032D01*
X572685Y1049935D01*
X572721Y1049870D01*
X572749Y1049801D01*
X572806Y1049719D01*
X572855Y1049631D01*
X572920Y1049555D01*
X572948Y1049515D01*
X572974Y1049491D01*
X573013Y1049445D01*
X721138Y901321D01*
X721237Y901242D01*
X721330Y901158D01*
X721373Y901134D01*
X721411Y901104D01*
X721525Y901050D01*
X721635Y900989D01*
X721682Y900976D01*
X721726Y900955D01*
X721849Y900929D01*
X721971Y900894D01*
X722032Y900889D01*
X722066Y900882D01*
X722114Y900883D01*
X722215Y900875D01*
X1034182Y900875D01*
X1041833Y893224D01*
X1041833Y875631D01*
X1041836Y875606D01*
X1041834Y875581D01*
X1041852Y875461D01*
X1041863Y875332D01*
X1041871Y875309D01*
X1041873Y875285D01*
X1041883Y875259D01*
X1041886Y875237D01*
X1041928Y875131D01*
X1041970Y875000D01*
X1041983Y874980D01*
X1041991Y874957D01*
X1042007Y874931D01*
X1042015Y874913D01*
X1042075Y874825D01*
X1042150Y874702D01*
X1042167Y874684D01*
X1042180Y874664D01*
X1042204Y874641D01*
X1042214Y874627D01*
X1042288Y874560D01*
X1042393Y874452D01*
X1042413Y874439D01*
X1042430Y874422D01*
X1042461Y874404D01*
X1042472Y874393D01*
X1042552Y874349D01*
X1042560Y874345D01*
X1042686Y874264D01*
X1042709Y874255D01*
X1042730Y874243D01*
X1042764Y874232D01*
X1042777Y874225D01*
X1042859Y874201D01*
X1042873Y874197D01*
X1043014Y874147D01*
X1043038Y874144D01*
X1043061Y874137D01*
X1043099Y874134D01*
X1043113Y874130D01*
X1043300Y874115D01*
X1043361Y874108D01*
X1043385Y874111D01*
X1043409Y874109D01*
X1043558Y874131D01*
X1043707Y874149D01*
X1043735Y874158D01*
X1043754Y874161D01*
X1043798Y874178D01*
X1043940Y874224D01*
X1045274Y874777D01*
X1050226Y874777D01*
X1054801Y872882D01*
X1058302Y869381D01*
X1060197Y864806D01*
X1060197Y859854D01*
X1058302Y855279D01*
X1054801Y851778D01*
X1053012Y851037D01*
X1052924Y850989D01*
X1052832Y850949D01*
X1052772Y850904D01*
X1052707Y850868D01*
X1052633Y850801D01*
X1052552Y850741D01*
X1052504Y850684D01*
X1052449Y850634D01*
X1052392Y850551D01*
X1052327Y850475D01*
X1052293Y850408D01*
X1052251Y850347D01*
X1052214Y850254D01*
X1052168Y850164D01*
X1052150Y850092D01*
X1052123Y850023D01*
X1052108Y849924D01*
X1052084Y849826D01*
X1052083Y849752D01*
X1052072Y849678D01*
X1052081Y849578D01*
X1052079Y849478D01*
X1052095Y849405D01*
X1052101Y849331D01*
X1052132Y849235D01*
X1052153Y849137D01*
X1052185Y849070D01*
X1052208Y848999D01*
X1052260Y848913D01*
X1052303Y848822D01*
X1052350Y848764D01*
X1052388Y848701D01*
X1052458Y848629D01*
X1052521Y848550D01*
X1052579Y848504D01*
X1052631Y848451D01*
X1052715Y848396D01*
X1052794Y848334D01*
X1052883Y848288D01*
X1052924Y848262D01*
X1052958Y848250D01*
X1053012Y848223D01*
X1054801Y847482D01*
X1058302Y843981D01*
X1060197Y839406D01*
X1060197Y834454D01*
X1058302Y829879D01*
X1054801Y826378D01*
X1052755Y825531D01*
X1052688Y825494D01*
X1052617Y825466D01*
X1052536Y825409D01*
X1052450Y825362D01*
X1052394Y825310D01*
X1052331Y825267D01*
X1052265Y825194D01*
X1052192Y825127D01*
X1052149Y825065D01*
X1052098Y825008D01*
X1052050Y824922D01*
X1051994Y824841D01*
X1051966Y824770D01*
X1051929Y824703D01*
X1051902Y824608D01*
X1051866Y824517D01*
X1051855Y824441D01*
X1051834Y824367D01*
X1051822Y824219D01*
X1051815Y824172D01*
X1051817Y824153D01*
X1051815Y824124D01*
X1051815Y822725D01*
X1048988Y819898D01*
X1045986Y816896D01*
X1043159Y814069D01*
X1013189Y814069D01*
G37*
%LPD*%
%LPC*%
G36*
X364843Y1097539D02*
X364843Y1097539D01*
X353177Y1103584D01*
X343575Y1112552D01*
X336748Y1123779D01*
X333203Y1136430D01*
X333203Y1149570D01*
X336748Y1162221D01*
X343575Y1173448D01*
X353177Y1182416D01*
X364843Y1188461D01*
X377708Y1191134D01*
X390816Y1190237D01*
X403197Y1185837D01*
X413931Y1178260D01*
X422223Y1168068D01*
X427457Y1156017D01*
X429246Y1143000D01*
X427457Y1129983D01*
X422223Y1117932D01*
X413931Y1107740D01*
X403197Y1100163D01*
X390816Y1095763D01*
X377708Y1094866D01*
X364843Y1097539D01*
G37*
%LPD*%
%LPC*%
G36*
X163658Y293755D02*
X163658Y293755D01*
X163004Y296195D01*
X175239Y317387D01*
X175268Y317453D01*
X175294Y317497D01*
X175307Y317536D01*
X175346Y317614D01*
X175358Y317662D01*
X175378Y317707D01*
X175400Y317827D01*
X175400Y317829D01*
X175400Y317831D01*
X175431Y317953D01*
X175431Y318002D01*
X175440Y318050D01*
X175434Y318175D01*
X175436Y318301D01*
X175425Y318349D01*
X175423Y318398D01*
X175388Y318519D01*
X175361Y318642D01*
X175340Y318686D01*
X175327Y318733D01*
X175266Y318843D01*
X175212Y318956D01*
X175181Y318995D01*
X175157Y319037D01*
X175073Y319130D01*
X174994Y319229D01*
X174956Y319259D01*
X174923Y319295D01*
X174820Y319367D01*
X174721Y319445D01*
X174666Y319473D01*
X174636Y319493D01*
X174591Y319511D01*
X174503Y319556D01*
X173556Y319948D01*
X173459Y319976D01*
X173365Y320013D01*
X173292Y320024D01*
X173221Y320044D01*
X173120Y320049D01*
X173020Y320064D01*
X172946Y320057D01*
X172873Y320061D01*
X172773Y320043D01*
X172673Y320034D01*
X172603Y320012D01*
X172530Y319998D01*
X172437Y319958D01*
X172341Y319927D01*
X172278Y319889D01*
X172210Y319859D01*
X172129Y319799D01*
X172043Y319747D01*
X171990Y319696D01*
X171931Y319652D01*
X171865Y319574D01*
X171793Y319504D01*
X171736Y319422D01*
X171705Y319386D01*
X171689Y319353D01*
X171654Y319303D01*
X159486Y298226D01*
X157046Y297573D01*
X141660Y306455D01*
X141007Y308895D01*
X154970Y333079D01*
X157409Y333733D01*
X165958Y328798D01*
X166027Y328768D01*
X166092Y328729D01*
X166186Y328698D01*
X166277Y328659D01*
X166352Y328645D01*
X166424Y328622D01*
X166523Y328614D01*
X166620Y328597D01*
X166696Y328600D01*
X166771Y328594D01*
X166869Y328609D01*
X166968Y328614D01*
X167041Y328635D01*
X167116Y328646D01*
X167208Y328683D01*
X167303Y328710D01*
X167369Y328747D01*
X167440Y328775D01*
X167521Y328831D01*
X167608Y328880D01*
X167664Y328931D01*
X167726Y328974D01*
X167792Y329047D01*
X167866Y329114D01*
X167909Y329176D01*
X167959Y329233D01*
X168007Y329319D01*
X168064Y329401D01*
X168091Y329471D01*
X168128Y329538D01*
X168155Y329633D01*
X168191Y329725D01*
X168202Y329800D01*
X168223Y329873D01*
X168235Y330024D01*
X168242Y330070D01*
X168240Y330088D01*
X168242Y330117D01*
X168242Y332597D01*
X170077Y337025D01*
X173466Y340414D01*
X174045Y340654D01*
X174046Y340655D01*
X174047Y340655D01*
X174196Y340738D01*
X174350Y340824D01*
X174351Y340824D01*
X174466Y340929D01*
X174608Y341058D01*
X174609Y341059D01*
X174704Y341196D01*
X174806Y341344D01*
X174806Y341345D01*
X174807Y341346D01*
X174863Y341490D01*
X174934Y341669D01*
X174934Y341670D01*
X174957Y341825D01*
X174985Y342013D01*
X174985Y342014D01*
X174985Y342015D01*
X174971Y342177D01*
X174956Y342361D01*
X174956Y342362D01*
X174904Y342521D01*
X174849Y342692D01*
X174848Y342693D01*
X174848Y342694D01*
X174759Y342842D01*
X174669Y342991D01*
X174668Y342992D01*
X174551Y343113D01*
X174426Y343241D01*
X174425Y343242D01*
X174224Y343381D01*
X165790Y348250D01*
X165137Y350689D01*
X179100Y374874D01*
X181539Y375527D01*
X196925Y366645D01*
X197578Y364205D01*
X185343Y343013D01*
X185293Y342897D01*
X185236Y342786D01*
X185224Y342738D01*
X185204Y342693D01*
X185182Y342569D01*
X185152Y342447D01*
X185151Y342398D01*
X185142Y342350D01*
X185148Y342225D01*
X185147Y342099D01*
X185157Y342051D01*
X185159Y342002D01*
X185194Y341881D01*
X185221Y341758D01*
X185242Y341714D01*
X185255Y341667D01*
X185317Y341557D01*
X185371Y341444D01*
X185401Y341405D01*
X185425Y341363D01*
X185509Y341270D01*
X185588Y341171D01*
X185627Y341141D01*
X185659Y341105D01*
X185763Y341033D01*
X185862Y340955D01*
X185916Y340927D01*
X185946Y340907D01*
X185991Y340889D01*
X186079Y340844D01*
X187026Y340452D01*
X187123Y340424D01*
X187217Y340387D01*
X187290Y340376D01*
X187361Y340356D01*
X187462Y340351D01*
X187562Y340336D01*
X187636Y340343D01*
X187709Y340339D01*
X187809Y340357D01*
X187910Y340366D01*
X187980Y340388D01*
X188052Y340402D01*
X188145Y340442D01*
X188241Y340473D01*
X188304Y340511D01*
X188372Y340540D01*
X188453Y340601D01*
X188540Y340653D01*
X188592Y340704D01*
X188652Y340748D01*
X188717Y340825D01*
X188789Y340896D01*
X188846Y340978D01*
X188877Y341014D01*
X188893Y341046D01*
X188928Y341097D01*
X201097Y362174D01*
X203536Y362827D01*
X208861Y359753D01*
X208862Y359753D01*
X208863Y359752D01*
X209023Y359683D01*
X209180Y359615D01*
X209182Y359615D01*
X209183Y359614D01*
X209354Y359583D01*
X209523Y359553D01*
X209525Y359553D01*
X209526Y359552D01*
X209697Y359561D01*
X209871Y359570D01*
X209873Y359570D01*
X209874Y359570D01*
X210038Y359617D01*
X210206Y359666D01*
X210207Y359666D01*
X210209Y359667D01*
X210357Y359750D01*
X210511Y359835D01*
X210512Y359836D01*
X210513Y359837D01*
X210699Y359995D01*
X260665Y409961D01*
X260744Y410060D01*
X260746Y410063D01*
X260797Y410116D01*
X260804Y410127D01*
X260828Y410154D01*
X260852Y410197D01*
X260882Y410234D01*
X260933Y410343D01*
X260976Y410415D01*
X260981Y410431D01*
X260997Y410459D01*
X261010Y410506D01*
X261031Y410549D01*
X261054Y410659D01*
X261082Y410747D01*
X261084Y410768D01*
X261092Y410795D01*
X261097Y410855D01*
X261104Y410890D01*
X261103Y410938D01*
X261111Y411038D01*
X261111Y439840D01*
X261111Y439842D01*
X261111Y439844D01*
X261090Y440020D01*
X261071Y440186D01*
X261071Y440188D01*
X261070Y440190D01*
X260995Y440423D01*
X259869Y443141D01*
X259869Y445859D01*
X260909Y448369D01*
X262831Y450291D01*
X265341Y451331D01*
X268059Y451331D01*
X270569Y450291D01*
X272491Y448369D01*
X273531Y445859D01*
X273531Y443141D01*
X272405Y440423D01*
X272404Y440421D01*
X272403Y440419D01*
X272357Y440255D01*
X272309Y440088D01*
X272309Y440086D01*
X272308Y440084D01*
X272289Y439840D01*
X272289Y406981D01*
X271438Y404927D01*
X269652Y403140D01*
X219868Y353357D01*
X219774Y353239D01*
X219676Y353123D01*
X219666Y353102D01*
X219651Y353084D01*
X219587Y352947D01*
X219518Y352813D01*
X219512Y352790D01*
X219502Y352769D01*
X219471Y352622D01*
X219434Y352474D01*
X219434Y352451D01*
X219429Y352428D01*
X219431Y352277D01*
X219429Y352126D01*
X219435Y352098D01*
X219435Y352079D01*
X219446Y352034D01*
X219474Y351885D01*
X219575Y351505D01*
X209147Y333443D01*
X209107Y333350D01*
X209058Y333261D01*
X209038Y333190D01*
X209009Y333123D01*
X208991Y333023D01*
X208963Y332925D01*
X208955Y332827D01*
X208947Y332781D01*
X208948Y332744D01*
X208943Y332682D01*
X208943Y330649D01*
X208958Y330525D01*
X208964Y330400D01*
X208978Y330352D01*
X208983Y330303D01*
X209025Y330186D01*
X209060Y330065D01*
X209084Y330022D01*
X209101Y329975D01*
X209169Y329870D01*
X209229Y329761D01*
X209263Y329724D01*
X209290Y329682D01*
X209380Y329595D01*
X209464Y329503D01*
X209505Y329475D01*
X209540Y329440D01*
X209648Y329376D01*
X209751Y329305D01*
X209797Y329287D01*
X209840Y329261D01*
X209959Y329223D01*
X210075Y329177D01*
X210124Y329170D01*
X210171Y329155D01*
X210296Y329145D01*
X210420Y329127D01*
X210469Y329131D01*
X210519Y329127D01*
X210643Y329146D01*
X210767Y329156D01*
X210814Y329171D01*
X210863Y329179D01*
X210980Y329225D01*
X211099Y329263D01*
X211141Y329289D01*
X211187Y329307D01*
X211290Y329379D01*
X211397Y329443D01*
X211433Y329478D01*
X211474Y329506D01*
X211557Y329599D01*
X211647Y329686D01*
X211683Y329738D01*
X211707Y329765D01*
X211730Y329807D01*
X211786Y329888D01*
X223094Y349474D01*
X225533Y350127D01*
X240919Y341245D01*
X241572Y338805D01*
X225070Y310221D01*
X222630Y309568D01*
X207245Y318450D01*
X206951Y319545D01*
X206924Y319615D01*
X206905Y319688D01*
X206860Y319777D01*
X206823Y319869D01*
X206780Y319931D01*
X206745Y319998D01*
X206681Y320074D01*
X206625Y320155D01*
X206569Y320206D01*
X206520Y320264D01*
X206440Y320323D01*
X206367Y320389D01*
X206300Y320426D01*
X206239Y320471D01*
X206148Y320510D01*
X206062Y320558D01*
X205989Y320579D01*
X205919Y320609D01*
X205822Y320626D01*
X205727Y320654D01*
X205651Y320657D01*
X205576Y320671D01*
X205477Y320665D01*
X205378Y320670D01*
X205304Y320657D01*
X205228Y320653D01*
X205133Y320625D01*
X205036Y320607D01*
X204966Y320577D01*
X204893Y320556D01*
X204807Y320508D01*
X204716Y320468D01*
X204655Y320423D01*
X204589Y320386D01*
X204474Y320288D01*
X204437Y320260D01*
X204425Y320246D01*
X204403Y320227D01*
X195738Y311562D01*
X195672Y311479D01*
X195628Y311434D01*
X195610Y311404D01*
X195546Y311329D01*
X195536Y311308D01*
X195521Y311289D01*
X195457Y311153D01*
X195388Y311018D01*
X195382Y310995D01*
X195372Y310974D01*
X195341Y310827D01*
X195304Y310680D01*
X195304Y310656D01*
X195299Y310633D01*
X195301Y310483D01*
X195299Y310331D01*
X195305Y310304D01*
X195305Y310285D01*
X195316Y310240D01*
X195344Y310091D01*
X195445Y309711D01*
X181483Y285526D01*
X179043Y284873D01*
X163658Y293755D01*
G37*
%LPD*%
%LPC*%
G36*
X365946Y440929D02*
X365946Y440929D01*
X365292Y443368D01*
X377527Y464561D01*
X377577Y464676D01*
X377635Y464788D01*
X377647Y464836D01*
X377666Y464880D01*
X377688Y465004D01*
X377719Y465126D01*
X377719Y465175D01*
X377728Y465223D01*
X377722Y465349D01*
X377724Y465475D01*
X377713Y465522D01*
X377711Y465571D01*
X377676Y465692D01*
X377650Y465815D01*
X377628Y465859D01*
X377615Y465906D01*
X377554Y466016D01*
X377500Y466130D01*
X377469Y466168D01*
X377445Y466211D01*
X377361Y466304D01*
X377282Y466402D01*
X377244Y466433D01*
X377211Y466469D01*
X377108Y466540D01*
X377009Y466618D01*
X376954Y466646D01*
X376924Y466667D01*
X376880Y466684D01*
X376791Y466730D01*
X375844Y467122D01*
X375747Y467149D01*
X375653Y467186D01*
X375580Y467197D01*
X375509Y467217D01*
X375408Y467222D01*
X375308Y467237D01*
X375235Y467231D01*
X375161Y467234D01*
X375062Y467216D01*
X374961Y467208D01*
X374891Y467185D01*
X374818Y467172D01*
X374725Y467131D01*
X374629Y467100D01*
X374566Y467062D01*
X374499Y467033D01*
X374417Y466973D01*
X374331Y466920D01*
X374278Y466869D01*
X374219Y466825D01*
X374154Y466748D01*
X374081Y466677D01*
X374025Y466595D01*
X373994Y466559D01*
X373977Y466527D01*
X373942Y466476D01*
X361774Y445400D01*
X359334Y444746D01*
X343949Y453629D01*
X343295Y456068D01*
X357258Y480253D01*
X359697Y480906D01*
X368246Y475971D01*
X368315Y475941D01*
X368380Y475902D01*
X368475Y475872D01*
X368565Y475832D01*
X368640Y475819D01*
X368712Y475796D01*
X368811Y475788D01*
X368908Y475770D01*
X368984Y475774D01*
X369060Y475768D01*
X369157Y475783D01*
X369256Y475787D01*
X369329Y475808D01*
X369404Y475820D01*
X369496Y475856D01*
X369591Y475883D01*
X369658Y475920D01*
X369728Y475948D01*
X369809Y476005D01*
X369896Y476053D01*
X369952Y476104D01*
X370014Y476147D01*
X370081Y476221D01*
X370154Y476287D01*
X370197Y476350D01*
X370248Y476406D01*
X370296Y476493D01*
X370352Y476574D01*
X370380Y476645D01*
X370416Y476711D01*
X370443Y476806D01*
X370479Y476899D01*
X370490Y476973D01*
X370511Y477046D01*
X370523Y477197D01*
X370530Y477243D01*
X370528Y477262D01*
X370531Y477290D01*
X370531Y479770D01*
X372365Y484199D01*
X375754Y487588D01*
X376333Y487828D01*
X376334Y487828D01*
X376335Y487828D01*
X376490Y487915D01*
X376638Y487997D01*
X376639Y487997D01*
X376639Y487998D01*
X376752Y488101D01*
X376896Y488231D01*
X376897Y488232D01*
X376987Y488362D01*
X377094Y488518D01*
X377095Y488519D01*
X377152Y488663D01*
X377222Y488842D01*
X377222Y488843D01*
X377223Y488843D01*
X377245Y488997D01*
X377273Y489187D01*
X377273Y489188D01*
X377260Y489349D01*
X377244Y489534D01*
X377244Y489535D01*
X377244Y489536D01*
X377201Y489669D01*
X377137Y489866D01*
X377136Y489867D01*
X377055Y490003D01*
X376957Y490164D01*
X376957Y490165D01*
X376956Y490166D01*
X376842Y490283D01*
X376714Y490414D01*
X376714Y490415D01*
X376713Y490415D01*
X376512Y490554D01*
X368079Y495423D01*
X367425Y497863D01*
X381388Y522047D01*
X383827Y522701D01*
X399213Y513818D01*
X399867Y511378D01*
X387631Y490186D01*
X387581Y490071D01*
X387524Y489959D01*
X387512Y489911D01*
X387493Y489866D01*
X387470Y489743D01*
X387440Y489621D01*
X387439Y489572D01*
X387430Y489524D01*
X387437Y489398D01*
X387435Y489272D01*
X387445Y489224D01*
X387448Y489175D01*
X387482Y489055D01*
X387509Y488932D01*
X387530Y488888D01*
X387544Y488840D01*
X387605Y488731D01*
X387659Y488617D01*
X387689Y488579D01*
X387713Y488536D01*
X387798Y488443D01*
X387876Y488345D01*
X387915Y488314D01*
X387948Y488278D01*
X388051Y488207D01*
X388150Y488129D01*
X388205Y488101D01*
X388234Y488080D01*
X388279Y488063D01*
X388368Y488017D01*
X389314Y487625D01*
X389412Y487597D01*
X389506Y487560D01*
X389578Y487550D01*
X389649Y487529D01*
X389751Y487525D01*
X389850Y487510D01*
X389924Y487516D01*
X389998Y487512D01*
X390097Y487531D01*
X390198Y487539D01*
X390268Y487562D01*
X390340Y487575D01*
X390433Y487615D01*
X390529Y487646D01*
X390592Y487684D01*
X390660Y487714D01*
X390741Y487774D01*
X390828Y487826D01*
X390881Y487878D01*
X390940Y487922D01*
X391005Y487999D01*
X391078Y488069D01*
X391134Y488151D01*
X391165Y488188D01*
X391181Y488220D01*
X391216Y488271D01*
X403385Y509347D01*
X405824Y510001D01*
X406876Y509394D01*
X407013Y509335D01*
X407148Y509270D01*
X407173Y509265D01*
X407195Y509255D01*
X407343Y509229D01*
X407489Y509197D01*
X407514Y509198D01*
X407538Y509193D01*
X407688Y509200D01*
X407837Y509203D01*
X407861Y509209D01*
X407886Y509210D01*
X408030Y509252D01*
X408175Y509288D01*
X408198Y509299D01*
X408221Y509306D01*
X408352Y509379D01*
X408485Y509448D01*
X408504Y509464D01*
X408526Y509476D01*
X408636Y509576D01*
X408751Y509674D01*
X408765Y509694D01*
X408784Y509710D01*
X408856Y509816D01*
X408823Y509713D01*
X408778Y509596D01*
X408771Y509547D01*
X408755Y509500D01*
X408745Y509375D01*
X408727Y509252D01*
X408731Y509202D01*
X408727Y509152D01*
X408746Y509029D01*
X408756Y508904D01*
X408772Y508857D01*
X408779Y508808D01*
X408825Y508692D01*
X408864Y508573D01*
X408889Y508530D01*
X408908Y508484D01*
X408979Y508381D01*
X409044Y508274D01*
X409078Y508239D01*
X409107Y508198D01*
X409199Y508114D01*
X409287Y508024D01*
X409338Y507989D01*
X409366Y507964D01*
X409407Y507941D01*
X409488Y507886D01*
X421210Y501118D01*
X421864Y498678D01*
X407901Y474494D01*
X405461Y473840D01*
X396913Y478776D01*
X396843Y478806D01*
X396778Y478845D01*
X396684Y478875D01*
X396593Y478914D01*
X396519Y478928D01*
X396446Y478951D01*
X396348Y478959D01*
X396250Y478977D01*
X396175Y478973D01*
X396099Y478979D01*
X396001Y478964D01*
X395902Y478959D01*
X395829Y478938D01*
X395754Y478927D01*
X395662Y478891D01*
X395567Y478863D01*
X395501Y478827D01*
X395431Y478799D01*
X395349Y478742D01*
X395263Y478694D01*
X395207Y478643D01*
X395144Y478600D01*
X395078Y478526D01*
X395005Y478459D01*
X394962Y478397D01*
X394911Y478341D01*
X394863Y478254D01*
X394807Y478173D01*
X394779Y478102D01*
X394742Y478036D01*
X394715Y477940D01*
X394679Y477848D01*
X394668Y477773D01*
X394648Y477700D01*
X394636Y477550D01*
X394629Y477503D01*
X394630Y477485D01*
X394628Y477457D01*
X394628Y474977D01*
X392794Y470548D01*
X389404Y467159D01*
X388825Y466919D01*
X388824Y466919D01*
X388667Y466831D01*
X388521Y466750D01*
X388520Y466749D01*
X388519Y466749D01*
X388394Y466635D01*
X388262Y466516D01*
X388262Y466515D01*
X388166Y466376D01*
X388064Y466229D01*
X388064Y466228D01*
X387999Y466063D01*
X387936Y465905D01*
X387936Y465904D01*
X387936Y465903D01*
X387912Y465737D01*
X387886Y465560D01*
X387886Y465559D01*
X387900Y465389D01*
X387914Y465213D01*
X387915Y465212D01*
X387915Y465211D01*
X387973Y465033D01*
X388022Y464881D01*
X388022Y464880D01*
X388113Y464729D01*
X388201Y464582D01*
X388202Y464582D01*
X388202Y464581D01*
X388332Y464448D01*
X388444Y464332D01*
X388445Y464332D01*
X388646Y464193D01*
X397080Y459324D01*
X397734Y456884D01*
X383771Y432700D01*
X381331Y432046D01*
X365946Y440929D01*
G37*
%LPD*%
%LPC*%
G36*
X471616Y115955D02*
X471616Y115955D01*
X470963Y118395D01*
X483198Y139587D01*
X483248Y139703D01*
X483305Y139814D01*
X483317Y139862D01*
X483336Y139907D01*
X483359Y140031D01*
X483389Y140153D01*
X483390Y140202D01*
X483399Y140250D01*
X483392Y140375D01*
X483394Y140501D01*
X483384Y140549D01*
X483381Y140598D01*
X483347Y140719D01*
X483320Y140842D01*
X483299Y140886D01*
X483285Y140933D01*
X483224Y141042D01*
X483170Y141156D01*
X483140Y141195D01*
X483116Y141237D01*
X483032Y141330D01*
X482953Y141429D01*
X482914Y141459D01*
X482881Y141495D01*
X482778Y141567D01*
X482679Y141645D01*
X482624Y141673D01*
X482595Y141693D01*
X482550Y141711D01*
X482462Y141756D01*
X481515Y142148D01*
X481417Y142176D01*
X481323Y142213D01*
X481251Y142224D01*
X481180Y142244D01*
X481078Y142249D01*
X480979Y142264D01*
X480905Y142257D01*
X480831Y142261D01*
X480732Y142243D01*
X480631Y142234D01*
X480561Y142212D01*
X480489Y142198D01*
X480396Y142158D01*
X480300Y142127D01*
X480237Y142089D01*
X480169Y142059D01*
X480088Y141999D01*
X480001Y141947D01*
X479948Y141896D01*
X479889Y141852D01*
X479824Y141774D01*
X479751Y141704D01*
X479695Y141622D01*
X479664Y141586D01*
X479648Y141553D01*
X479613Y141503D01*
X467444Y120426D01*
X465005Y119773D01*
X449619Y128655D01*
X448965Y131095D01*
X462928Y155279D01*
X465368Y155933D01*
X473916Y150998D01*
X473986Y150968D01*
X474051Y150929D01*
X474145Y150898D01*
X474236Y150859D01*
X474310Y150845D01*
X474383Y150822D01*
X474481Y150814D01*
X474579Y150797D01*
X474655Y150800D01*
X474730Y150794D01*
X474828Y150809D01*
X474927Y150814D01*
X475000Y150835D01*
X475075Y150846D01*
X475167Y150883D01*
X475262Y150910D01*
X475328Y150947D01*
X475399Y150975D01*
X475480Y151031D01*
X475566Y151080D01*
X475622Y151131D01*
X475685Y151174D01*
X475751Y151247D01*
X475824Y151314D01*
X475867Y151376D01*
X475918Y151433D01*
X475966Y151519D01*
X476022Y151601D01*
X476050Y151671D01*
X476087Y151738D01*
X476114Y151833D01*
X476150Y151925D01*
X476161Y152000D01*
X476181Y152073D01*
X476194Y152224D01*
X476200Y152270D01*
X476199Y152288D01*
X476201Y152317D01*
X476201Y154797D01*
X478035Y159225D01*
X481425Y162614D01*
X482004Y162854D01*
X482004Y162855D01*
X482005Y162855D01*
X482155Y162938D01*
X482308Y163024D01*
X482309Y163024D01*
X482310Y163024D01*
X482429Y163133D01*
X482567Y163258D01*
X482568Y163259D01*
X482651Y163380D01*
X482765Y163544D01*
X482765Y163545D01*
X482765Y163546D01*
X482827Y163703D01*
X482893Y163869D01*
X482893Y163870D01*
X482916Y164028D01*
X482943Y164213D01*
X482943Y164214D01*
X482943Y164215D01*
X482930Y164377D01*
X482915Y164561D01*
X482914Y164561D01*
X482914Y164562D01*
X482860Y164730D01*
X482807Y164892D01*
X482807Y164893D01*
X482807Y164894D01*
X482723Y165033D01*
X482628Y165191D01*
X482627Y165191D01*
X482627Y165192D01*
X482541Y165281D01*
X482539Y165283D01*
X482535Y165287D01*
X482509Y165313D01*
X482385Y165441D01*
X482384Y165441D01*
X482384Y165442D01*
X482295Y165503D01*
X482281Y165516D01*
X482259Y165528D01*
X482183Y165581D01*
X473749Y170450D01*
X473095Y172889D01*
X487058Y197074D01*
X489498Y197727D01*
X504883Y188845D01*
X505537Y186405D01*
X493302Y165213D01*
X493252Y165097D01*
X493194Y164986D01*
X493183Y164938D01*
X493163Y164893D01*
X493141Y164769D01*
X493110Y164647D01*
X493110Y164598D01*
X493101Y164550D01*
X493107Y164425D01*
X493105Y164299D01*
X493116Y164251D01*
X493118Y164202D01*
X493153Y164081D01*
X493180Y163958D01*
X493201Y163914D01*
X493214Y163867D01*
X493275Y163757D01*
X493329Y163644D01*
X493360Y163605D01*
X493384Y163563D01*
X493468Y163470D01*
X493547Y163371D01*
X493585Y163341D01*
X493618Y163305D01*
X493721Y163233D01*
X493820Y163155D01*
X493875Y163127D01*
X493905Y163107D01*
X493950Y163089D01*
X494038Y163044D01*
X494985Y162652D01*
X495082Y162624D01*
X495176Y162587D01*
X495249Y162576D01*
X495320Y162556D01*
X495421Y162551D01*
X495521Y162536D01*
X495594Y162543D01*
X495668Y162539D01*
X495767Y162557D01*
X495868Y162566D01*
X495938Y162588D01*
X496011Y162602D01*
X496104Y162642D01*
X496200Y162673D01*
X496263Y162711D01*
X496330Y162740D01*
X496412Y162801D01*
X496498Y162853D01*
X496551Y162904D01*
X496610Y162948D01*
X496676Y163025D01*
X496748Y163096D01*
X496804Y163178D01*
X496835Y163214D01*
X496852Y163246D01*
X496887Y163297D01*
X509055Y184374D01*
X511495Y185027D01*
X526880Y176145D01*
X527534Y173705D01*
X513571Y149521D01*
X511132Y148867D01*
X502583Y153802D01*
X502514Y153832D01*
X502449Y153871D01*
X502354Y153902D01*
X502264Y153941D01*
X502189Y153954D01*
X502117Y153978D01*
X502018Y153986D01*
X501921Y154003D01*
X501845Y153999D01*
X501770Y154006D01*
X501672Y153991D01*
X501573Y153986D01*
X501500Y153965D01*
X501425Y153954D01*
X501333Y153917D01*
X501238Y153890D01*
X501171Y153853D01*
X501101Y153825D01*
X501020Y153769D01*
X500933Y153720D01*
X500877Y153669D01*
X500815Y153626D01*
X500748Y153553D01*
X500675Y153486D01*
X500632Y153424D01*
X500581Y153367D01*
X500533Y153281D01*
X500477Y153199D01*
X500450Y153129D01*
X500413Y153062D01*
X500386Y152967D01*
X500350Y152875D01*
X500339Y152800D01*
X500318Y152727D01*
X500306Y152576D01*
X500299Y152530D01*
X500301Y152511D01*
X500298Y152483D01*
X500298Y150003D01*
X498464Y145575D01*
X495075Y142186D01*
X494496Y141946D01*
X494495Y141945D01*
X494494Y141945D01*
X494337Y141858D01*
X494191Y141776D01*
X494190Y141776D01*
X494069Y141665D01*
X493933Y141542D01*
X493932Y141542D01*
X493932Y141541D01*
X493840Y141407D01*
X493735Y141256D01*
X493734Y141255D01*
X493734Y141254D01*
X493674Y141100D01*
X493607Y140931D01*
X493607Y140930D01*
X493583Y140769D01*
X493556Y140587D01*
X493556Y140586D01*
X493556Y140585D01*
X493572Y140399D01*
X493585Y140239D01*
X493585Y140238D01*
X493636Y140080D01*
X493692Y139908D01*
X493692Y139907D01*
X493693Y139906D01*
X493774Y139771D01*
X493872Y139609D01*
X493872Y139608D01*
X493873Y139608D01*
X493990Y139487D01*
X494115Y139359D01*
X494116Y139358D01*
X494317Y139219D01*
X502750Y134350D01*
X503404Y131911D01*
X489441Y107726D01*
X487002Y107073D01*
X471616Y115955D01*
G37*
%LPD*%
G36*
X1039286Y822213D02*
X1039286Y822213D01*
X1039412Y822220D01*
X1039459Y822233D01*
X1039507Y822239D01*
X1039626Y822281D01*
X1039747Y822316D01*
X1039789Y822340D01*
X1039835Y822356D01*
X1039941Y822425D01*
X1040051Y822486D01*
X1040098Y822526D01*
X1040128Y822545D01*
X1040161Y822580D01*
X1040238Y822645D01*
X1041401Y823808D01*
X1041495Y823926D01*
X1041591Y824040D01*
X1041602Y824062D01*
X1041617Y824081D01*
X1041682Y824217D01*
X1041750Y824351D01*
X1041756Y824374D01*
X1041766Y824396D01*
X1041798Y824543D01*
X1041834Y824689D01*
X1041835Y824713D01*
X1041840Y824737D01*
X1041837Y824887D01*
X1041839Y825037D01*
X1041834Y825061D01*
X1041834Y825085D01*
X1041797Y825231D01*
X1041765Y825378D01*
X1041755Y825400D01*
X1041749Y825423D01*
X1041680Y825557D01*
X1041615Y825693D01*
X1041600Y825712D01*
X1041589Y825733D01*
X1041492Y825847D01*
X1041398Y825965D01*
X1041379Y825980D01*
X1041363Y825998D01*
X1041242Y826088D01*
X1041124Y826181D01*
X1041098Y826194D01*
X1041083Y826206D01*
X1041040Y826224D01*
X1040907Y826292D01*
X1040699Y826378D01*
X1037198Y829879D01*
X1035909Y832992D01*
X1035831Y833132D01*
X1035756Y833273D01*
X1035747Y833284D01*
X1035740Y833297D01*
X1035632Y833415D01*
X1035527Y833535D01*
X1035515Y833544D01*
X1035506Y833555D01*
X1035374Y833646D01*
X1035244Y833739D01*
X1035231Y833745D01*
X1035219Y833753D01*
X1035070Y833812D01*
X1034922Y833873D01*
X1034908Y833875D01*
X1034895Y833881D01*
X1034737Y833904D01*
X1034579Y833930D01*
X1034564Y833929D01*
X1034550Y833932D01*
X1034390Y833918D01*
X1034231Y833908D01*
X1034217Y833904D01*
X1034203Y833903D01*
X1034050Y833853D01*
X1033897Y833807D01*
X1033885Y833800D01*
X1033871Y833796D01*
X1033733Y833713D01*
X1033595Y833633D01*
X1033585Y833623D01*
X1033572Y833616D01*
X1033457Y833504D01*
X1033341Y833395D01*
X1033333Y833383D01*
X1033322Y833373D01*
X1033236Y833239D01*
X1033147Y833106D01*
X1033140Y833090D01*
X1033134Y833080D01*
X1033121Y833043D01*
X1033053Y832880D01*
X1032943Y832542D01*
X1032126Y830939D01*
X1031069Y829483D01*
X1029797Y828211D01*
X1028341Y827154D01*
X1026738Y826337D01*
X1025027Y825781D01*
X1024889Y825759D01*
X1024889Y835914D01*
X1024886Y835940D01*
X1024888Y835966D01*
X1024866Y836113D01*
X1024849Y836260D01*
X1024841Y836285D01*
X1024837Y836311D01*
X1024782Y836448D01*
X1024732Y836588D01*
X1024718Y836610D01*
X1024708Y836635D01*
X1024623Y836756D01*
X1024543Y836881D01*
X1024524Y836899D01*
X1024509Y836921D01*
X1024399Y837020D01*
X1024292Y837123D01*
X1024270Y837137D01*
X1024250Y837154D01*
X1024120Y837226D01*
X1023993Y837302D01*
X1023968Y837310D01*
X1023945Y837323D01*
X1023802Y837363D01*
X1023661Y837408D01*
X1023635Y837410D01*
X1023610Y837417D01*
X1023366Y837437D01*
X1022857Y837437D01*
X1022857Y837946D01*
X1022854Y837972D01*
X1022856Y837998D01*
X1022834Y838145D01*
X1022817Y838292D01*
X1022808Y838317D01*
X1022804Y838343D01*
X1022750Y838481D01*
X1022700Y838620D01*
X1022685Y838642D01*
X1022676Y838667D01*
X1022591Y838788D01*
X1022511Y838913D01*
X1022492Y838931D01*
X1022477Y838953D01*
X1022367Y839052D01*
X1022260Y839155D01*
X1022237Y839169D01*
X1022218Y839186D01*
X1022088Y839258D01*
X1021961Y839334D01*
X1021936Y839342D01*
X1021913Y839355D01*
X1021770Y839395D01*
X1021629Y839440D01*
X1021603Y839442D01*
X1021578Y839450D01*
X1021334Y839469D01*
X1011179Y839469D01*
X1011201Y839607D01*
X1011757Y841318D01*
X1012574Y842921D01*
X1013631Y844377D01*
X1014903Y845649D01*
X1016359Y846706D01*
X1017962Y847523D01*
X1018300Y847633D01*
X1018444Y847699D01*
X1018592Y847763D01*
X1018604Y847772D01*
X1018617Y847778D01*
X1018743Y847876D01*
X1018872Y847971D01*
X1018881Y847982D01*
X1018892Y847991D01*
X1018993Y848115D01*
X1019097Y848237D01*
X1019103Y848250D01*
X1019112Y848261D01*
X1019183Y848406D01*
X1019255Y848547D01*
X1019259Y848561D01*
X1019265Y848574D01*
X1019301Y848731D01*
X1019340Y848886D01*
X1019340Y848900D01*
X1019343Y848914D01*
X1019342Y849074D01*
X1019345Y849234D01*
X1019342Y849248D01*
X1019341Y849263D01*
X1019304Y849418D01*
X1019270Y849575D01*
X1019264Y849588D01*
X1019261Y849602D01*
X1019189Y849746D01*
X1019121Y849889D01*
X1019112Y849900D01*
X1019105Y849914D01*
X1019003Y850037D01*
X1018903Y850162D01*
X1018892Y850171D01*
X1018883Y850182D01*
X1018755Y850279D01*
X1018630Y850378D01*
X1018614Y850385D01*
X1018605Y850393D01*
X1018570Y850408D01*
X1018412Y850489D01*
X1015299Y851778D01*
X1011798Y855279D01*
X1009903Y859854D01*
X1009903Y864806D01*
X1011798Y869381D01*
X1015299Y872882D01*
X1019874Y874777D01*
X1024826Y874777D01*
X1029401Y872882D01*
X1031104Y871179D01*
X1031182Y871116D01*
X1031254Y871046D01*
X1031318Y871008D01*
X1031377Y870962D01*
X1031467Y870919D01*
X1031554Y870868D01*
X1031624Y870845D01*
X1031692Y870813D01*
X1031790Y870792D01*
X1031886Y870761D01*
X1031960Y870755D01*
X1032032Y870740D01*
X1032133Y870742D01*
X1032233Y870733D01*
X1032307Y870744D01*
X1032381Y870746D01*
X1032478Y870770D01*
X1032578Y870785D01*
X1032647Y870813D01*
X1032719Y870831D01*
X1032808Y870877D01*
X1032901Y870914D01*
X1032963Y870956D01*
X1033029Y870990D01*
X1033105Y871055D01*
X1033188Y871113D01*
X1033237Y871168D01*
X1033294Y871216D01*
X1033354Y871297D01*
X1033421Y871372D01*
X1033457Y871437D01*
X1033501Y871497D01*
X1033541Y871589D01*
X1033590Y871677D01*
X1033610Y871748D01*
X1033639Y871817D01*
X1033657Y871915D01*
X1033684Y872012D01*
X1033692Y872112D01*
X1033701Y872160D01*
X1033699Y872195D01*
X1033704Y872256D01*
X1033704Y889225D01*
X1033689Y889351D01*
X1033683Y889477D01*
X1033670Y889524D01*
X1033664Y889572D01*
X1033621Y889691D01*
X1033586Y889812D01*
X1033563Y889854D01*
X1033547Y889900D01*
X1033478Y890006D01*
X1033416Y890116D01*
X1033377Y890162D01*
X1033358Y890192D01*
X1033323Y890226D01*
X1033258Y890302D01*
X1031261Y892299D01*
X1031162Y892378D01*
X1031068Y892462D01*
X1031026Y892486D01*
X1030988Y892516D01*
X1030874Y892570D01*
X1030763Y892631D01*
X1030717Y892644D01*
X1030673Y892665D01*
X1030550Y892691D01*
X1030428Y892726D01*
X1030367Y892731D01*
X1030332Y892738D01*
X1030284Y892737D01*
X1030184Y892745D01*
X949688Y892745D01*
X949588Y892734D01*
X949487Y892732D01*
X949415Y892714D01*
X949341Y892705D01*
X949247Y892672D01*
X949149Y892647D01*
X949083Y892613D01*
X949013Y892588D01*
X948929Y892533D01*
X948840Y892487D01*
X948783Y892439D01*
X948720Y892399D01*
X948651Y892327D01*
X948574Y892262D01*
X948530Y892202D01*
X948478Y892148D01*
X948427Y892062D01*
X948367Y891981D01*
X948338Y891913D01*
X948299Y891849D01*
X948269Y891753D01*
X948229Y891661D01*
X948216Y891588D01*
X948193Y891517D01*
X948185Y891417D01*
X948167Y891318D01*
X948171Y891244D01*
X948165Y891170D01*
X948180Y891070D01*
X948185Y890970D01*
X948206Y890899D01*
X948217Y890825D01*
X948254Y890732D01*
X948282Y890635D01*
X948318Y890570D01*
X948346Y890501D01*
X948403Y890419D01*
X948452Y890331D01*
X948517Y890255D01*
X948545Y890215D01*
X948571Y890191D01*
X948610Y890145D01*
X1016111Y822645D01*
X1016210Y822566D01*
X1016303Y822482D01*
X1016346Y822458D01*
X1016384Y822428D01*
X1016498Y822374D01*
X1016608Y822313D01*
X1016655Y822300D01*
X1016699Y822279D01*
X1016822Y822253D01*
X1016944Y822218D01*
X1017005Y822213D01*
X1017039Y822206D01*
X1017087Y822207D01*
X1017188Y822199D01*
X1039161Y822199D01*
X1039286Y822213D01*
G37*
G36*
X222092Y831725D02*
X222092Y831725D01*
X222192Y831727D01*
X222264Y831745D01*
X222338Y831754D01*
X222432Y831788D01*
X222530Y831812D01*
X222596Y831846D01*
X222666Y831871D01*
X222750Y831926D01*
X222840Y831972D01*
X222896Y832020D01*
X222959Y832060D01*
X223029Y832133D01*
X223105Y832198D01*
X223149Y832257D01*
X223201Y832311D01*
X223253Y832397D01*
X223312Y832478D01*
X223342Y832546D01*
X223380Y832610D01*
X223411Y832706D01*
X223450Y832798D01*
X223463Y832871D01*
X223486Y832942D01*
X223494Y833042D01*
X223512Y833141D01*
X223508Y833215D01*
X223514Y833289D01*
X223499Y833389D01*
X223494Y833489D01*
X223473Y833560D01*
X223462Y833634D01*
X223425Y833727D01*
X223397Y833824D01*
X223361Y833889D01*
X223334Y833958D01*
X223276Y834040D01*
X223227Y834128D01*
X223162Y834205D01*
X223135Y834244D01*
X223108Y834268D01*
X223069Y834314D01*
X220865Y836518D01*
X220865Y846654D01*
X220851Y846780D01*
X220844Y846906D01*
X220831Y846953D01*
X220825Y847001D01*
X220783Y847120D01*
X220748Y847241D01*
X220724Y847283D01*
X220708Y847329D01*
X220639Y847435D01*
X220578Y847545D01*
X220538Y847591D01*
X220519Y847621D01*
X220484Y847655D01*
X220450Y847695D01*
X220448Y847699D01*
X220445Y847701D01*
X220419Y847731D01*
X180010Y888140D01*
X179990Y888157D01*
X179973Y888177D01*
X179853Y888265D01*
X179737Y888357D01*
X179713Y888368D01*
X179692Y888384D01*
X179556Y888442D01*
X179422Y888506D01*
X179396Y888511D01*
X179372Y888522D01*
X179226Y888548D01*
X179081Y888579D01*
X179055Y888579D01*
X179029Y888584D01*
X178881Y888576D01*
X178733Y888573D01*
X178707Y888567D01*
X178681Y888566D01*
X178539Y888525D01*
X178395Y888488D01*
X178372Y888476D01*
X178346Y888469D01*
X178217Y888397D01*
X178085Y888329D01*
X178065Y888312D01*
X178042Y888299D01*
X177856Y888140D01*
X177025Y887310D01*
X176219Y887310D01*
X176094Y887295D01*
X175968Y887289D01*
X175921Y887275D01*
X175873Y887270D01*
X175754Y887227D01*
X175633Y887192D01*
X175591Y887169D01*
X175545Y887152D01*
X175439Y887084D01*
X175329Y887022D01*
X175282Y886983D01*
X175252Y886963D01*
X175219Y886928D01*
X175142Y886863D01*
X173133Y884855D01*
X166022Y891966D01*
X166002Y891982D01*
X165985Y892002D01*
X165890Y892072D01*
X165852Y892106D01*
X165829Y892119D01*
X165749Y892182D01*
X165726Y892193D01*
X165705Y892209D01*
X165568Y892268D01*
X165434Y892331D01*
X165409Y892337D01*
X165384Y892347D01*
X165238Y892373D01*
X165094Y892405D01*
X165067Y892404D01*
X165041Y892409D01*
X164893Y892401D01*
X164745Y892399D01*
X164720Y892392D01*
X164709Y892392D01*
X164727Y892474D01*
X164727Y892500D01*
X164731Y892526D01*
X164724Y892675D01*
X164721Y892823D01*
X164715Y892848D01*
X164713Y892874D01*
X164672Y893017D01*
X164636Y893161D01*
X164624Y893184D01*
X164617Y893209D01*
X164544Y893339D01*
X164477Y893471D01*
X164460Y893491D01*
X164447Y893513D01*
X164288Y893700D01*
X157177Y900811D01*
X159186Y902820D01*
X159265Y902919D01*
X159349Y903013D01*
X159373Y903055D01*
X159403Y903093D01*
X159457Y903207D01*
X159518Y903318D01*
X159531Y903364D01*
X159552Y903408D01*
X159578Y903531D01*
X159613Y903653D01*
X159617Y903714D01*
X159625Y903748D01*
X159624Y903796D01*
X159632Y903897D01*
X159632Y904703D01*
X162530Y907601D01*
X162593Y907679D01*
X162663Y907752D01*
X162701Y907816D01*
X162747Y907874D01*
X162790Y907965D01*
X162842Y908051D01*
X162864Y908122D01*
X162896Y908189D01*
X162917Y908287D01*
X162948Y908383D01*
X162954Y908457D01*
X162969Y908530D01*
X162968Y908630D01*
X162976Y908730D01*
X162965Y908804D01*
X162963Y908878D01*
X162939Y908975D01*
X162924Y909075D01*
X162897Y909144D01*
X162878Y909216D01*
X162832Y909305D01*
X162795Y909399D01*
X162753Y909460D01*
X162719Y909526D01*
X162654Y909602D01*
X162596Y909685D01*
X162541Y909735D01*
X162493Y909791D01*
X162412Y909851D01*
X162338Y909918D01*
X162273Y909954D01*
X162213Y909999D01*
X162120Y910038D01*
X162033Y910087D01*
X161961Y910107D01*
X161893Y910137D01*
X161794Y910154D01*
X161697Y910182D01*
X161597Y910190D01*
X161550Y910198D01*
X161514Y910196D01*
X161453Y910201D01*
X155406Y910201D01*
X142272Y923335D01*
X142272Y925247D01*
X142258Y925373D01*
X142251Y925499D01*
X142238Y925546D01*
X142232Y925594D01*
X142190Y925713D01*
X142155Y925834D01*
X142131Y925876D01*
X142115Y925922D01*
X142046Y926028D01*
X141985Y926138D01*
X141945Y926184D01*
X141926Y926214D01*
X141891Y926248D01*
X141826Y926324D01*
X132988Y935163D01*
X132967Y935179D01*
X132950Y935199D01*
X132831Y935288D01*
X132715Y935380D01*
X132691Y935391D01*
X132670Y935406D01*
X132534Y935465D01*
X132399Y935529D01*
X132374Y935534D01*
X132350Y935544D01*
X132204Y935571D01*
X132059Y935602D01*
X132033Y935601D01*
X132007Y935606D01*
X131858Y935598D01*
X131710Y935596D01*
X131685Y935590D01*
X131659Y935588D01*
X131516Y935547D01*
X131372Y935511D01*
X131349Y935499D01*
X131324Y935492D01*
X131194Y935419D01*
X131063Y935351D01*
X131043Y935334D01*
X131020Y935321D01*
X130833Y935163D01*
X129556Y933886D01*
X124622Y928952D01*
X124606Y928931D01*
X124586Y928914D01*
X124498Y928795D01*
X124405Y928679D01*
X124394Y928655D01*
X124379Y928634D01*
X124320Y928498D01*
X124257Y928364D01*
X124251Y928338D01*
X124241Y928314D01*
X124214Y928168D01*
X124183Y928023D01*
X124184Y927997D01*
X124179Y927971D01*
X124187Y927822D01*
X124189Y927674D01*
X124196Y927649D01*
X124197Y927623D01*
X124238Y927480D01*
X124274Y927336D01*
X124286Y927313D01*
X124293Y927288D01*
X124366Y927159D01*
X124434Y927027D01*
X124451Y927007D01*
X124464Y926984D01*
X124622Y926798D01*
X142883Y908537D01*
X142883Y891631D01*
X142894Y891531D01*
X142896Y891430D01*
X142914Y891358D01*
X142923Y891284D01*
X142956Y891190D01*
X142981Y891092D01*
X143015Y891026D01*
X143040Y890956D01*
X143095Y890872D01*
X143141Y890783D01*
X143189Y890726D01*
X143229Y890663D01*
X143301Y890594D01*
X143366Y890517D01*
X143426Y890473D01*
X143480Y890421D01*
X143566Y890370D01*
X143647Y890310D01*
X143715Y890281D01*
X143779Y890242D01*
X143874Y890212D01*
X143967Y890172D01*
X144040Y890159D01*
X144111Y890136D01*
X144211Y890128D01*
X144310Y890110D01*
X144384Y890114D01*
X144458Y890108D01*
X144557Y890123D01*
X144658Y890128D01*
X144729Y890149D01*
X144803Y890160D01*
X144896Y890197D01*
X144993Y890225D01*
X145058Y890261D01*
X145127Y890289D01*
X145209Y890346D01*
X145297Y890395D01*
X145373Y890460D01*
X145413Y890488D01*
X145437Y890514D01*
X145483Y890553D01*
X149397Y894468D01*
X150203Y894468D01*
X150329Y894482D01*
X150455Y894489D01*
X150501Y894502D01*
X150549Y894508D01*
X150668Y894550D01*
X150790Y894585D01*
X150832Y894609D01*
X150878Y894625D01*
X150984Y894694D01*
X151094Y894755D01*
X151140Y894795D01*
X151170Y894814D01*
X151204Y894849D01*
X151280Y894914D01*
X153289Y896923D01*
X160400Y889812D01*
X160421Y889795D01*
X160438Y889775D01*
X160557Y889687D01*
X160673Y889595D01*
X160697Y889584D01*
X160718Y889568D01*
X160854Y889509D01*
X160988Y889446D01*
X161014Y889441D01*
X161038Y889430D01*
X161184Y889404D01*
X161329Y889373D01*
X161355Y889373D01*
X161381Y889369D01*
X161530Y889376D01*
X161677Y889379D01*
X161703Y889385D01*
X161713Y889386D01*
X161695Y889303D01*
X161696Y889277D01*
X161691Y889251D01*
X161699Y889102D01*
X161701Y888955D01*
X161708Y888929D01*
X161709Y888903D01*
X161750Y888760D01*
X161786Y888617D01*
X161798Y888593D01*
X161806Y888568D01*
X161878Y888439D01*
X161946Y888307D01*
X161963Y888287D01*
X161976Y888264D01*
X162134Y888078D01*
X169245Y880967D01*
X167236Y878958D01*
X167158Y878859D01*
X167073Y878765D01*
X167050Y878723D01*
X167020Y878685D01*
X166966Y878571D01*
X166905Y878460D01*
X166892Y878413D01*
X166871Y878370D01*
X166844Y878246D01*
X166810Y878124D01*
X166805Y878064D01*
X166798Y878029D01*
X166798Y877981D01*
X166790Y877881D01*
X166790Y877075D01*
X165960Y876244D01*
X165943Y876223D01*
X165923Y876206D01*
X165835Y876087D01*
X165743Y875971D01*
X165732Y875947D01*
X165716Y875926D01*
X165657Y875790D01*
X165594Y875656D01*
X165589Y875630D01*
X165578Y875606D01*
X165552Y875460D01*
X165521Y875315D01*
X165521Y875289D01*
X165516Y875263D01*
X165524Y875115D01*
X165527Y874967D01*
X165533Y874941D01*
X165534Y874915D01*
X165575Y874773D01*
X165612Y874629D01*
X165624Y874605D01*
X165631Y874580D01*
X165703Y874451D01*
X165771Y874319D01*
X165788Y874299D01*
X165801Y874276D01*
X165960Y874090D01*
X207889Y832160D01*
X207988Y832082D01*
X208082Y831997D01*
X208125Y831973D01*
X208162Y831943D01*
X208277Y831889D01*
X208387Y831828D01*
X208434Y831815D01*
X208477Y831795D01*
X208601Y831768D01*
X208723Y831734D01*
X208783Y831729D01*
X208818Y831721D01*
X208866Y831722D01*
X208966Y831714D01*
X221992Y831714D01*
X222092Y831725D01*
G37*
G36*
X619831Y987564D02*
X619831Y987564D01*
X619932Y987566D01*
X620004Y987584D01*
X620078Y987593D01*
X620172Y987626D01*
X620270Y987651D01*
X620336Y987685D01*
X620406Y987710D01*
X620490Y987765D01*
X620579Y987811D01*
X620636Y987859D01*
X620699Y987899D01*
X620768Y987971D01*
X620845Y988036D01*
X620889Y988096D01*
X620941Y988150D01*
X620992Y988236D01*
X621052Y988317D01*
X621081Y988385D01*
X621120Y988449D01*
X621150Y988545D01*
X621190Y988637D01*
X621203Y988710D01*
X621226Y988781D01*
X621234Y988881D01*
X621252Y988980D01*
X621248Y989054D01*
X621254Y989128D01*
X621239Y989228D01*
X621234Y989328D01*
X621213Y989399D01*
X621202Y989473D01*
X621165Y989566D01*
X621137Y989663D01*
X621101Y989728D01*
X621073Y989797D01*
X621016Y989879D01*
X620967Y989967D01*
X620902Y990043D01*
X620874Y990083D01*
X620848Y990107D01*
X620809Y990153D01*
X559906Y1051055D01*
X559807Y1051134D01*
X559714Y1051218D01*
X559671Y1051242D01*
X559633Y1051272D01*
X559519Y1051326D01*
X559409Y1051387D01*
X559362Y1051400D01*
X559318Y1051421D01*
X559195Y1051447D01*
X559073Y1051482D01*
X559012Y1051487D01*
X558978Y1051494D01*
X558930Y1051493D01*
X558829Y1051501D01*
X556244Y1051501D01*
X556118Y1051487D01*
X555992Y1051480D01*
X555945Y1051467D01*
X555898Y1051461D01*
X555779Y1051419D01*
X555657Y1051384D01*
X555615Y1051360D01*
X555569Y1051344D01*
X555463Y1051275D01*
X555420Y1051251D01*
X537188Y1051251D01*
X537162Y1051248D01*
X537136Y1051250D01*
X536989Y1051228D01*
X536842Y1051211D01*
X536817Y1051203D01*
X536791Y1051199D01*
X536653Y1051144D01*
X536514Y1051094D01*
X536492Y1051080D01*
X536467Y1051070D01*
X536346Y1050985D01*
X536221Y1050905D01*
X536203Y1050886D01*
X536181Y1050871D01*
X536082Y1050761D01*
X535979Y1050654D01*
X535965Y1050632D01*
X535948Y1050612D01*
X535876Y1050482D01*
X535800Y1050355D01*
X535792Y1050330D01*
X535779Y1050307D01*
X535739Y1050164D01*
X535694Y1050023D01*
X535692Y1049997D01*
X535684Y1049972D01*
X535665Y1049728D01*
X535665Y1045515D01*
X535679Y1045389D01*
X535686Y1045263D01*
X535699Y1045216D01*
X535705Y1045168D01*
X535747Y1045049D01*
X535782Y1044928D01*
X535806Y1044886D01*
X535822Y1044840D01*
X535891Y1044734D01*
X535952Y1044624D01*
X535992Y1044578D01*
X536011Y1044548D01*
X536046Y1044514D01*
X536111Y1044438D01*
X592550Y987999D01*
X592649Y987920D01*
X592742Y987836D01*
X592785Y987812D01*
X592823Y987782D01*
X592937Y987728D01*
X593047Y987667D01*
X593094Y987654D01*
X593138Y987633D01*
X593261Y987607D01*
X593383Y987572D01*
X593444Y987567D01*
X593478Y987560D01*
X593526Y987561D01*
X593627Y987553D01*
X619731Y987553D01*
X619831Y987564D01*
G37*
%LPC*%
G36*
X696302Y656251D02*
X696302Y656251D01*
X692241Y657933D01*
X689133Y661041D01*
X687451Y665102D01*
X687451Y669498D01*
X689133Y673559D01*
X692241Y676667D01*
X692892Y676936D01*
X692979Y676985D01*
X693071Y677025D01*
X693131Y677069D01*
X693196Y677105D01*
X693271Y677173D01*
X693351Y677233D01*
X693399Y677289D01*
X693454Y677339D01*
X693511Y677422D01*
X693576Y677499D01*
X693610Y677565D01*
X693653Y677626D01*
X693689Y677720D01*
X693735Y677809D01*
X693753Y677881D01*
X693780Y677950D01*
X693795Y678050D01*
X693819Y678147D01*
X693820Y678221D01*
X693831Y678295D01*
X693823Y678395D01*
X693824Y678496D01*
X693808Y678568D01*
X693802Y678642D01*
X693771Y678738D01*
X693750Y678836D01*
X693718Y678903D01*
X693695Y678974D01*
X693643Y679060D01*
X693600Y679151D01*
X693554Y679209D01*
X693515Y679273D01*
X693445Y679345D01*
X693383Y679423D01*
X693325Y679469D01*
X693273Y679523D01*
X693188Y679577D01*
X693109Y679639D01*
X693020Y679685D01*
X692979Y679711D01*
X692946Y679723D01*
X692892Y679751D01*
X692025Y680110D01*
X688810Y683325D01*
X687069Y687526D01*
X687069Y692074D01*
X688810Y696275D01*
X692025Y699490D01*
X696226Y701231D01*
X700774Y701231D01*
X704975Y699490D01*
X708190Y696275D01*
X709931Y692074D01*
X709931Y687526D01*
X708190Y683325D01*
X704975Y680110D01*
X704108Y679751D01*
X704021Y679702D01*
X703929Y679662D01*
X703869Y679617D01*
X703804Y679581D01*
X703730Y679514D01*
X703649Y679454D01*
X703601Y679397D01*
X703546Y679347D01*
X703489Y679265D01*
X703424Y679188D01*
X703390Y679122D01*
X703348Y679060D01*
X703311Y678967D01*
X703265Y678878D01*
X703247Y678805D01*
X703220Y678736D01*
X703205Y678637D01*
X703181Y678539D01*
X703180Y678465D01*
X703169Y678391D01*
X703177Y678291D01*
X703176Y678191D01*
X703192Y678118D01*
X703198Y678044D01*
X703229Y677949D01*
X703250Y677850D01*
X703282Y677783D01*
X703305Y677712D01*
X703357Y677626D01*
X703400Y677536D01*
X703446Y677478D01*
X703485Y677414D01*
X703555Y677342D01*
X703617Y677263D01*
X703676Y677217D01*
X703727Y677164D01*
X703812Y677110D01*
X703891Y677047D01*
X703980Y677002D01*
X704021Y676976D01*
X704054Y676964D01*
X704108Y676936D01*
X704759Y676667D01*
X707867Y673559D01*
X709549Y669498D01*
X709549Y665102D01*
X707867Y661041D01*
X704759Y657933D01*
X700698Y656251D01*
X696302Y656251D01*
G37*
%LPD*%
%LPC*%
G36*
X1077302Y656251D02*
X1077302Y656251D01*
X1073241Y657933D01*
X1070133Y661041D01*
X1068451Y665102D01*
X1068451Y669498D01*
X1070133Y673559D01*
X1073241Y676667D01*
X1073892Y676936D01*
X1073979Y676985D01*
X1074071Y677025D01*
X1074131Y677069D01*
X1074196Y677105D01*
X1074271Y677173D01*
X1074351Y677233D01*
X1074399Y677289D01*
X1074454Y677339D01*
X1074511Y677422D01*
X1074576Y677499D01*
X1074610Y677565D01*
X1074653Y677626D01*
X1074689Y677720D01*
X1074735Y677809D01*
X1074753Y677881D01*
X1074780Y677950D01*
X1074795Y678050D01*
X1074819Y678147D01*
X1074820Y678221D01*
X1074831Y678295D01*
X1074823Y678395D01*
X1074824Y678496D01*
X1074808Y678568D01*
X1074802Y678642D01*
X1074771Y678738D01*
X1074750Y678836D01*
X1074718Y678903D01*
X1074695Y678974D01*
X1074643Y679060D01*
X1074600Y679151D01*
X1074554Y679209D01*
X1074515Y679273D01*
X1074445Y679345D01*
X1074383Y679423D01*
X1074325Y679469D01*
X1074273Y679523D01*
X1074188Y679577D01*
X1074109Y679639D01*
X1074020Y679685D01*
X1073979Y679711D01*
X1073946Y679723D01*
X1073892Y679751D01*
X1073025Y680110D01*
X1069810Y683325D01*
X1068069Y687526D01*
X1068069Y692074D01*
X1069810Y696275D01*
X1073025Y699490D01*
X1077226Y701231D01*
X1081774Y701231D01*
X1085975Y699490D01*
X1089190Y696275D01*
X1090931Y692074D01*
X1090931Y687526D01*
X1089190Y683325D01*
X1085975Y680110D01*
X1085108Y679751D01*
X1085021Y679702D01*
X1084929Y679662D01*
X1084869Y679617D01*
X1084804Y679581D01*
X1084730Y679514D01*
X1084649Y679454D01*
X1084601Y679397D01*
X1084546Y679347D01*
X1084489Y679265D01*
X1084424Y679188D01*
X1084390Y679122D01*
X1084348Y679060D01*
X1084311Y678967D01*
X1084265Y678878D01*
X1084247Y678805D01*
X1084220Y678736D01*
X1084205Y678637D01*
X1084181Y678539D01*
X1084180Y678465D01*
X1084169Y678391D01*
X1084177Y678291D01*
X1084176Y678191D01*
X1084192Y678118D01*
X1084198Y678044D01*
X1084229Y677949D01*
X1084250Y677850D01*
X1084282Y677783D01*
X1084305Y677712D01*
X1084357Y677626D01*
X1084400Y677536D01*
X1084446Y677478D01*
X1084485Y677414D01*
X1084555Y677342D01*
X1084617Y677263D01*
X1084676Y677217D01*
X1084727Y677164D01*
X1084812Y677110D01*
X1084891Y677047D01*
X1084980Y677002D01*
X1085021Y676976D01*
X1085054Y676964D01*
X1085108Y676936D01*
X1085759Y676667D01*
X1088867Y673559D01*
X1090549Y669498D01*
X1090549Y665102D01*
X1088867Y661041D01*
X1085759Y657933D01*
X1081698Y656251D01*
X1077302Y656251D01*
G37*
%LPD*%
%LPC*%
G36*
X891882Y832781D02*
X891882Y832781D01*
X887821Y834463D01*
X884713Y837571D01*
X883031Y841632D01*
X883031Y846028D01*
X884713Y850089D01*
X887821Y853197D01*
X888472Y853466D01*
X888559Y853515D01*
X888651Y853555D01*
X888711Y853599D01*
X888776Y853635D01*
X888851Y853703D01*
X888931Y853763D01*
X888979Y853819D01*
X889034Y853869D01*
X889091Y853952D01*
X889156Y854029D01*
X889190Y854095D01*
X889233Y854156D01*
X889269Y854250D01*
X889315Y854339D01*
X889333Y854411D01*
X889360Y854480D01*
X889375Y854580D01*
X889399Y854677D01*
X889400Y854751D01*
X889411Y854825D01*
X889403Y854925D01*
X889404Y855026D01*
X889388Y855098D01*
X889382Y855172D01*
X889351Y855268D01*
X889330Y855366D01*
X889298Y855433D01*
X889275Y855504D01*
X889223Y855590D01*
X889180Y855681D01*
X889134Y855739D01*
X889095Y855803D01*
X889025Y855875D01*
X888963Y855953D01*
X888905Y855999D01*
X888853Y856053D01*
X888768Y856107D01*
X888689Y856169D01*
X888600Y856215D01*
X888559Y856241D01*
X888526Y856253D01*
X888472Y856281D01*
X887605Y856640D01*
X884390Y859855D01*
X882649Y864056D01*
X882649Y868604D01*
X884390Y872805D01*
X887605Y876020D01*
X891806Y877761D01*
X896354Y877761D01*
X900555Y876020D01*
X903770Y872805D01*
X905511Y868604D01*
X905511Y864056D01*
X903770Y859855D01*
X900555Y856640D01*
X899688Y856281D01*
X899601Y856232D01*
X899509Y856192D01*
X899449Y856147D01*
X899384Y856111D01*
X899310Y856044D01*
X899229Y855984D01*
X899181Y855927D01*
X899126Y855877D01*
X899069Y855795D01*
X899004Y855718D01*
X898970Y855652D01*
X898928Y855590D01*
X898891Y855497D01*
X898845Y855408D01*
X898827Y855335D01*
X898800Y855266D01*
X898785Y855167D01*
X898761Y855069D01*
X898760Y854995D01*
X898749Y854921D01*
X898757Y854821D01*
X898756Y854721D01*
X898772Y854648D01*
X898778Y854574D01*
X898809Y854479D01*
X898830Y854380D01*
X898862Y854313D01*
X898885Y854242D01*
X898937Y854156D01*
X898980Y854066D01*
X899026Y854008D01*
X899065Y853944D01*
X899135Y853872D01*
X899197Y853793D01*
X899256Y853747D01*
X899307Y853694D01*
X899392Y853640D01*
X899471Y853577D01*
X899560Y853532D01*
X899601Y853506D01*
X899634Y853494D01*
X899688Y853466D01*
X900339Y853197D01*
X903447Y850089D01*
X905129Y846028D01*
X905129Y841632D01*
X903447Y837571D01*
X900339Y834463D01*
X896278Y832781D01*
X891882Y832781D01*
G37*
%LPD*%
%LPC*%
G36*
X895692Y491151D02*
X895692Y491151D01*
X891631Y492833D01*
X888523Y495941D01*
X886841Y500002D01*
X886841Y504398D01*
X888523Y508459D01*
X891631Y511567D01*
X892282Y511836D01*
X892369Y511885D01*
X892461Y511925D01*
X892521Y511969D01*
X892586Y512005D01*
X892661Y512073D01*
X892741Y512133D01*
X892789Y512189D01*
X892844Y512239D01*
X892901Y512322D01*
X892966Y512399D01*
X893000Y512465D01*
X893043Y512526D01*
X893079Y512620D01*
X893125Y512709D01*
X893143Y512781D01*
X893170Y512850D01*
X893185Y512950D01*
X893209Y513047D01*
X893210Y513121D01*
X893221Y513195D01*
X893213Y513295D01*
X893214Y513396D01*
X893198Y513468D01*
X893192Y513542D01*
X893161Y513638D01*
X893140Y513736D01*
X893108Y513803D01*
X893085Y513874D01*
X893033Y513960D01*
X892990Y514051D01*
X892944Y514109D01*
X892905Y514173D01*
X892835Y514245D01*
X892773Y514323D01*
X892715Y514369D01*
X892663Y514423D01*
X892578Y514477D01*
X892499Y514539D01*
X892410Y514585D01*
X892369Y514611D01*
X892336Y514623D01*
X892282Y514651D01*
X891415Y515010D01*
X888200Y518225D01*
X886459Y522426D01*
X886459Y526974D01*
X888200Y531175D01*
X891415Y534390D01*
X895616Y536131D01*
X900164Y536131D01*
X904365Y534390D01*
X907580Y531175D01*
X909321Y526974D01*
X909321Y522426D01*
X907580Y518225D01*
X904365Y515010D01*
X903498Y514651D01*
X903411Y514602D01*
X903319Y514562D01*
X903259Y514517D01*
X903194Y514481D01*
X903120Y514414D01*
X903039Y514354D01*
X902991Y514297D01*
X902936Y514247D01*
X902879Y514165D01*
X902814Y514088D01*
X902780Y514022D01*
X902738Y513960D01*
X902701Y513867D01*
X902655Y513778D01*
X902637Y513705D01*
X902610Y513636D01*
X902595Y513537D01*
X902571Y513439D01*
X902570Y513365D01*
X902559Y513291D01*
X902567Y513191D01*
X902566Y513091D01*
X902582Y513018D01*
X902588Y512944D01*
X902619Y512849D01*
X902640Y512750D01*
X902672Y512683D01*
X902695Y512612D01*
X902747Y512526D01*
X902790Y512436D01*
X902836Y512378D01*
X902875Y512314D01*
X902945Y512242D01*
X903007Y512163D01*
X903066Y512117D01*
X903117Y512064D01*
X903202Y512010D01*
X903281Y511947D01*
X903370Y511902D01*
X903411Y511876D01*
X903444Y511864D01*
X903498Y511836D01*
X904149Y511567D01*
X907257Y508459D01*
X908939Y504398D01*
X908939Y500002D01*
X907257Y495941D01*
X904149Y492833D01*
X900088Y491151D01*
X895692Y491151D01*
G37*
%LPD*%
%LPC*%
G36*
X427622Y141355D02*
X427622Y141355D01*
X426968Y143795D01*
X443471Y172379D01*
X445911Y173032D01*
X461296Y164150D01*
X461950Y161710D01*
X445447Y133126D01*
X443008Y132473D01*
X427622Y141355D01*
G37*
%LPD*%
%LPC*%
G36*
X185655Y281055D02*
X185655Y281055D01*
X185001Y283495D01*
X201504Y312079D01*
X203943Y312732D01*
X219329Y303850D01*
X219982Y301410D01*
X203480Y272826D01*
X201040Y272173D01*
X185655Y281055D01*
G37*
%LPD*%
%LPC*%
G36*
X405625Y154055D02*
X405625Y154055D01*
X404971Y156495D01*
X421474Y185079D01*
X423914Y185732D01*
X439299Y176850D01*
X439953Y174410D01*
X423450Y145826D01*
X421011Y145173D01*
X405625Y154055D01*
G37*
%LPD*%
%LPC*%
G36*
X449212Y178750D02*
X449212Y178750D01*
X448558Y181190D01*
X465061Y209774D01*
X467501Y210427D01*
X482886Y201545D01*
X483540Y199105D01*
X467037Y170521D01*
X464598Y169868D01*
X449212Y178750D01*
G37*
%LPD*%
G36*
X571321Y1060189D02*
X571321Y1060189D01*
X571447Y1060196D01*
X571494Y1060209D01*
X571542Y1060215D01*
X571661Y1060257D01*
X571782Y1060292D01*
X571824Y1060316D01*
X571870Y1060332D01*
X571976Y1060401D01*
X572086Y1060462D01*
X572132Y1060502D01*
X572162Y1060521D01*
X572196Y1060556D01*
X572272Y1060621D01*
X579689Y1068038D01*
X579756Y1068122D01*
X579793Y1068160D01*
X579801Y1068173D01*
X579852Y1068230D01*
X579876Y1068273D01*
X579906Y1068311D01*
X579960Y1068425D01*
X580021Y1068535D01*
X580034Y1068582D01*
X580055Y1068626D01*
X580081Y1068749D01*
X580116Y1068871D01*
X580121Y1068932D01*
X580128Y1068966D01*
X580127Y1069014D01*
X580135Y1069115D01*
X580135Y1077185D01*
X580121Y1077311D01*
X580114Y1077437D01*
X580101Y1077484D01*
X580095Y1077532D01*
X580053Y1077651D01*
X580018Y1077772D01*
X579994Y1077814D01*
X579978Y1077860D01*
X579909Y1077966D01*
X579848Y1078076D01*
X579808Y1078122D01*
X579789Y1078152D01*
X579754Y1078186D01*
X579689Y1078262D01*
X570262Y1087689D01*
X570163Y1087768D01*
X570070Y1087852D01*
X570027Y1087876D01*
X569989Y1087906D01*
X569875Y1087960D01*
X569765Y1088021D01*
X569718Y1088034D01*
X569674Y1088055D01*
X569551Y1088081D01*
X569429Y1088116D01*
X569368Y1088121D01*
X569334Y1088128D01*
X569286Y1088127D01*
X569185Y1088135D01*
X515287Y1088135D01*
X515161Y1088121D01*
X515035Y1088114D01*
X514989Y1088101D01*
X514941Y1088095D01*
X514822Y1088053D01*
X514700Y1088018D01*
X514658Y1087994D01*
X514613Y1087978D01*
X514506Y1087909D01*
X514396Y1087848D01*
X514350Y1087808D01*
X514320Y1087789D01*
X514286Y1087754D01*
X514210Y1087689D01*
X512223Y1085703D01*
X512213Y1085697D01*
X512101Y1085596D01*
X511986Y1085498D01*
X511972Y1085479D01*
X511954Y1085463D01*
X511869Y1085339D01*
X511779Y1085218D01*
X511770Y1085196D01*
X511756Y1085176D01*
X511701Y1085036D01*
X511641Y1084898D01*
X511637Y1084874D01*
X511628Y1084852D01*
X511606Y1084703D01*
X511579Y1084555D01*
X511581Y1084531D01*
X511577Y1084507D01*
X511590Y1084357D01*
X511597Y1084206D01*
X511604Y1084184D01*
X511606Y1084160D01*
X511652Y1084016D01*
X511694Y1083872D01*
X511706Y1083851D01*
X511713Y1083828D01*
X511790Y1083699D01*
X511864Y1083567D01*
X511883Y1083546D01*
X511892Y1083529D01*
X511925Y1083496D01*
X512022Y1083381D01*
X521701Y1073703D01*
X521779Y1073640D01*
X521852Y1073571D01*
X521916Y1073532D01*
X521974Y1073486D01*
X522065Y1073443D01*
X522151Y1073392D01*
X522222Y1073369D01*
X522289Y1073337D01*
X522387Y1073316D01*
X522483Y1073285D01*
X522557Y1073279D01*
X522630Y1073264D01*
X522730Y1073266D01*
X522830Y1073257D01*
X522904Y1073269D01*
X522978Y1073270D01*
X523075Y1073294D01*
X523175Y1073309D01*
X523244Y1073337D01*
X523316Y1073355D01*
X523406Y1073401D01*
X523499Y1073438D01*
X523560Y1073480D01*
X523626Y1073514D01*
X523703Y1073580D01*
X523785Y1073637D01*
X523835Y1073692D01*
X523891Y1073740D01*
X523951Y1073821D01*
X524018Y1073896D01*
X524054Y1073961D01*
X524099Y1074021D01*
X524138Y1074113D01*
X524187Y1074201D01*
X524207Y1074272D01*
X524237Y1074341D01*
X524254Y1074439D01*
X524282Y1074536D01*
X524290Y1074636D01*
X524298Y1074684D01*
X524296Y1074719D01*
X524301Y1074780D01*
X524301Y1080313D01*
X526087Y1082099D01*
X535956Y1082099D01*
X536082Y1082113D01*
X536208Y1082120D01*
X536255Y1082133D01*
X536302Y1082139D01*
X536421Y1082181D01*
X536543Y1082216D01*
X536585Y1082240D01*
X536631Y1082256D01*
X536737Y1082325D01*
X536780Y1082349D01*
X555414Y1082349D01*
X555440Y1082328D01*
X555554Y1082274D01*
X555665Y1082213D01*
X555711Y1082200D01*
X555755Y1082179D01*
X555878Y1082153D01*
X556000Y1082118D01*
X556061Y1082113D01*
X556096Y1082106D01*
X556144Y1082107D01*
X556244Y1082099D01*
X566113Y1082099D01*
X567899Y1080313D01*
X567899Y1073287D01*
X566730Y1072118D01*
X566729Y1072117D01*
X566728Y1072116D01*
X566622Y1071982D01*
X566513Y1071845D01*
X566512Y1071844D01*
X566511Y1071843D01*
X566438Y1071686D01*
X566364Y1071530D01*
X566364Y1071529D01*
X566363Y1071527D01*
X566326Y1071352D01*
X566291Y1071189D01*
X566291Y1071188D01*
X566290Y1071186D01*
X566294Y1071004D01*
X566297Y1070841D01*
X566297Y1070839D01*
X566297Y1070838D01*
X566342Y1070661D01*
X566382Y1070503D01*
X566382Y1070502D01*
X566383Y1070500D01*
X566487Y1070279D01*
X566744Y1069835D01*
X566883Y1069318D01*
X566883Y1068323D01*
X560600Y1068323D01*
X560574Y1068320D01*
X560548Y1068322D01*
X560401Y1068300D01*
X560254Y1068284D01*
X560229Y1068275D01*
X560203Y1068271D01*
X560066Y1068216D01*
X559926Y1068166D01*
X559904Y1068152D01*
X559880Y1068142D01*
X559758Y1068058D01*
X559633Y1067977D01*
X559615Y1067958D01*
X559593Y1067943D01*
X559494Y1067833D01*
X559391Y1067726D01*
X559378Y1067704D01*
X559360Y1067684D01*
X559288Y1067554D01*
X559212Y1067427D01*
X559204Y1067402D01*
X559191Y1067379D01*
X559151Y1067236D01*
X559106Y1067095D01*
X559104Y1067069D01*
X559097Y1067044D01*
X559077Y1066800D01*
X559080Y1066774D01*
X559078Y1066748D01*
X559100Y1066601D01*
X559117Y1066454D01*
X559126Y1066429D01*
X559130Y1066403D01*
X559184Y1066265D01*
X559234Y1066126D01*
X559249Y1066103D01*
X559258Y1066079D01*
X559343Y1065958D01*
X559423Y1065833D01*
X559442Y1065814D01*
X559457Y1065793D01*
X559567Y1065694D01*
X559674Y1065591D01*
X559697Y1065577D01*
X559716Y1065559D01*
X559846Y1065488D01*
X559973Y1065412D01*
X559998Y1065404D01*
X560021Y1065391D01*
X560164Y1065351D01*
X560305Y1065305D01*
X560331Y1065303D01*
X560357Y1065296D01*
X560600Y1065277D01*
X566883Y1065277D01*
X566883Y1064282D01*
X566744Y1063765D01*
X566487Y1063321D01*
X566487Y1063320D01*
X566486Y1063318D01*
X566421Y1063167D01*
X566349Y1063001D01*
X566349Y1063000D01*
X566348Y1062998D01*
X566318Y1062831D01*
X566287Y1062658D01*
X566287Y1062657D01*
X566286Y1062655D01*
X566296Y1062474D01*
X566304Y1062310D01*
X566304Y1062309D01*
X566304Y1062307D01*
X566351Y1062145D01*
X566400Y1061975D01*
X566401Y1061974D01*
X566401Y1061972D01*
X566483Y1061826D01*
X566569Y1061671D01*
X566570Y1061669D01*
X566571Y1061668D01*
X566730Y1061482D01*
X567591Y1060621D01*
X567690Y1060542D01*
X567784Y1060458D01*
X567826Y1060434D01*
X567864Y1060404D01*
X567978Y1060350D01*
X568089Y1060289D01*
X568135Y1060276D01*
X568179Y1060255D01*
X568302Y1060229D01*
X568424Y1060194D01*
X568485Y1060189D01*
X568520Y1060182D01*
X568568Y1060183D01*
X568668Y1060175D01*
X571195Y1060175D01*
X571321Y1060189D01*
G37*
%LPC*%
G36*
X953826Y809986D02*
X953826Y809986D01*
X948738Y812094D01*
X944844Y815988D01*
X942736Y821076D01*
X942736Y826584D01*
X944844Y831672D01*
X948738Y835566D01*
X953826Y837674D01*
X959334Y837674D01*
X964422Y835566D01*
X968316Y831672D01*
X970424Y826584D01*
X970424Y821076D01*
X968316Y815988D01*
X964422Y812094D01*
X959334Y809986D01*
X953826Y809986D01*
G37*
%LPD*%
%LPC*%
G36*
X828826Y759986D02*
X828826Y759986D01*
X823738Y762094D01*
X819844Y765988D01*
X817736Y771076D01*
X817736Y776584D01*
X819844Y781672D01*
X823738Y785566D01*
X828826Y787674D01*
X834334Y787674D01*
X839422Y785566D01*
X843316Y781672D01*
X845424Y776584D01*
X845424Y771076D01*
X843316Y765988D01*
X839422Y762094D01*
X834334Y759986D01*
X828826Y759986D01*
G37*
%LPD*%
%LPC*%
G36*
X1014246Y633456D02*
X1014246Y633456D01*
X1009158Y635564D01*
X1005264Y639458D01*
X1003156Y644546D01*
X1003156Y650054D01*
X1005264Y655142D01*
X1009158Y659036D01*
X1014246Y661144D01*
X1019754Y661144D01*
X1024842Y659036D01*
X1028736Y655142D01*
X1030844Y650054D01*
X1030844Y644546D01*
X1028736Y639458D01*
X1024842Y635564D01*
X1019754Y633456D01*
X1014246Y633456D01*
G37*
%LPD*%
%LPC*%
G36*
X633246Y583456D02*
X633246Y583456D01*
X628158Y585564D01*
X624264Y589458D01*
X622156Y594546D01*
X622156Y600054D01*
X624264Y605142D01*
X628158Y609036D01*
X633246Y611144D01*
X638754Y611144D01*
X643842Y609036D01*
X647736Y605142D01*
X649844Y600054D01*
X649844Y594546D01*
X647736Y589458D01*
X643842Y585564D01*
X638754Y583456D01*
X633246Y583456D01*
G37*
%LPD*%
%LPC*%
G36*
X832636Y418356D02*
X832636Y418356D01*
X827548Y420464D01*
X823654Y424358D01*
X821546Y429446D01*
X821546Y434954D01*
X823654Y440042D01*
X827548Y443936D01*
X832636Y446044D01*
X838144Y446044D01*
X843232Y443936D01*
X847126Y440042D01*
X849234Y434954D01*
X849234Y429446D01*
X847126Y424358D01*
X843232Y420464D01*
X838144Y418356D01*
X832636Y418356D01*
G37*
%LPD*%
%LPC*%
G36*
X828826Y809986D02*
X828826Y809986D01*
X823738Y812094D01*
X819844Y815988D01*
X817736Y821076D01*
X817736Y826584D01*
X819844Y831672D01*
X823738Y835566D01*
X828826Y837674D01*
X834334Y837674D01*
X839422Y835566D01*
X843316Y831672D01*
X845424Y826584D01*
X845424Y821076D01*
X843316Y815988D01*
X839422Y812094D01*
X834334Y809986D01*
X828826Y809986D01*
G37*
%LPD*%
%LPC*%
G36*
X832636Y468356D02*
X832636Y468356D01*
X827548Y470464D01*
X823654Y474358D01*
X821546Y479446D01*
X821546Y484954D01*
X823654Y490042D01*
X827548Y493936D01*
X832636Y496044D01*
X838144Y496044D01*
X843232Y493936D01*
X847126Y490042D01*
X849234Y484954D01*
X849234Y479446D01*
X847126Y474358D01*
X843232Y470464D01*
X838144Y468356D01*
X832636Y468356D01*
G37*
%LPD*%
%LPC*%
G36*
X1139246Y633456D02*
X1139246Y633456D01*
X1134158Y635564D01*
X1130264Y639458D01*
X1128156Y644546D01*
X1128156Y650054D01*
X1130264Y655142D01*
X1134158Y659036D01*
X1139246Y661144D01*
X1144754Y661144D01*
X1149842Y659036D01*
X1153736Y655142D01*
X1155844Y650054D01*
X1155844Y644546D01*
X1153736Y639458D01*
X1149842Y635564D01*
X1144754Y633456D01*
X1139246Y633456D01*
G37*
%LPD*%
%LPC*%
G36*
X957636Y468356D02*
X957636Y468356D01*
X952548Y470464D01*
X948654Y474358D01*
X946546Y479446D01*
X946546Y484954D01*
X948654Y490042D01*
X952548Y493936D01*
X957636Y496044D01*
X963144Y496044D01*
X968232Y493936D01*
X972126Y490042D01*
X974234Y484954D01*
X974234Y479446D01*
X972126Y474358D01*
X968232Y470464D01*
X963144Y468356D01*
X957636Y468356D01*
G37*
%LPD*%
%LPC*%
G36*
X758246Y633456D02*
X758246Y633456D01*
X753158Y635564D01*
X749264Y639458D01*
X747156Y644546D01*
X747156Y650054D01*
X749264Y655142D01*
X753158Y659036D01*
X758246Y661144D01*
X763754Y661144D01*
X768842Y659036D01*
X772736Y655142D01*
X774844Y650054D01*
X774844Y644546D01*
X772736Y639458D01*
X768842Y635564D01*
X763754Y633456D01*
X758246Y633456D01*
G37*
%LPD*%
%LPC*%
G36*
X633246Y633456D02*
X633246Y633456D01*
X628158Y635564D01*
X624264Y639458D01*
X622156Y644546D01*
X622156Y650054D01*
X624264Y655142D01*
X628158Y659036D01*
X633246Y661144D01*
X638754Y661144D01*
X643842Y659036D01*
X647736Y655142D01*
X649844Y650054D01*
X649844Y644546D01*
X647736Y639458D01*
X643842Y635564D01*
X638754Y633456D01*
X633246Y633456D01*
G37*
%LPD*%
%LPC*%
G36*
X1014246Y583456D02*
X1014246Y583456D01*
X1009158Y585564D01*
X1005264Y589458D01*
X1003156Y594546D01*
X1003156Y600054D01*
X1005264Y605142D01*
X1009158Y609036D01*
X1014246Y611144D01*
X1019754Y611144D01*
X1024842Y609036D01*
X1028736Y605142D01*
X1030844Y600054D01*
X1030844Y594546D01*
X1028736Y589458D01*
X1024842Y585564D01*
X1019754Y583456D01*
X1014246Y583456D01*
G37*
%LPD*%
%LPC*%
G36*
X339465Y1030191D02*
X339465Y1030191D01*
X335077Y1032009D01*
X331719Y1035367D01*
X329901Y1039755D01*
X329901Y1044505D01*
X331719Y1048893D01*
X335077Y1052251D01*
X339465Y1054069D01*
X344215Y1054069D01*
X348603Y1052251D01*
X351961Y1048893D01*
X353739Y1044601D01*
X353816Y1044462D01*
X353891Y1044320D01*
X353901Y1044309D01*
X353908Y1044297D01*
X354015Y1044178D01*
X354121Y1044058D01*
X354132Y1044050D01*
X354142Y1044039D01*
X354274Y1043948D01*
X354403Y1043854D01*
X354417Y1043849D01*
X354429Y1043841D01*
X354578Y1043782D01*
X354725Y1043720D01*
X354739Y1043718D01*
X354753Y1043713D01*
X354911Y1043689D01*
X355069Y1043663D01*
X355083Y1043664D01*
X355098Y1043662D01*
X355257Y1043675D01*
X355417Y1043685D01*
X355431Y1043690D01*
X355445Y1043691D01*
X355597Y1043740D01*
X355750Y1043786D01*
X355763Y1043793D01*
X355777Y1043798D01*
X355914Y1043880D01*
X356052Y1043960D01*
X356063Y1043970D01*
X356075Y1043978D01*
X356190Y1044089D01*
X356307Y1044198D01*
X356315Y1044210D01*
X356325Y1044220D01*
X356412Y1044355D01*
X356501Y1044488D01*
X356507Y1044504D01*
X356514Y1044514D01*
X356527Y1044550D01*
X356595Y1044714D01*
X357118Y1046323D01*
X357898Y1047855D01*
X358909Y1049246D01*
X360124Y1050461D01*
X361515Y1051472D01*
X363047Y1052252D01*
X364682Y1052784D01*
X364741Y1052793D01*
X364741Y1043106D01*
X364744Y1043080D01*
X364742Y1043054D01*
X364764Y1042907D01*
X364781Y1042760D01*
X364789Y1042735D01*
X364793Y1042709D01*
X364848Y1042572D01*
X364898Y1042432D01*
X364912Y1042410D01*
X364922Y1042385D01*
X365007Y1042264D01*
X365087Y1042139D01*
X365100Y1042127D01*
X365055Y1042080D01*
X365041Y1042057D01*
X365024Y1042038D01*
X364952Y1041908D01*
X364876Y1041781D01*
X364868Y1041756D01*
X364855Y1041733D01*
X364815Y1041590D01*
X364770Y1041449D01*
X364767Y1041423D01*
X364760Y1041398D01*
X364741Y1041154D01*
X364741Y1031467D01*
X364682Y1031476D01*
X363047Y1032008D01*
X361515Y1032788D01*
X360124Y1033799D01*
X358909Y1035014D01*
X357898Y1036405D01*
X357118Y1037937D01*
X356595Y1039546D01*
X356529Y1039691D01*
X356464Y1039838D01*
X356456Y1039850D01*
X356450Y1039863D01*
X356352Y1039989D01*
X356257Y1040118D01*
X356245Y1040128D01*
X356237Y1040139D01*
X356113Y1040240D01*
X355991Y1040343D01*
X355978Y1040350D01*
X355966Y1040359D01*
X355822Y1040430D01*
X355680Y1040502D01*
X355666Y1040506D01*
X355653Y1040512D01*
X355496Y1040548D01*
X355342Y1040586D01*
X355328Y1040586D01*
X355313Y1040590D01*
X355154Y1040589D01*
X354994Y1040591D01*
X354979Y1040588D01*
X354965Y1040588D01*
X354810Y1040551D01*
X354653Y1040517D01*
X354640Y1040511D01*
X354626Y1040507D01*
X354482Y1040436D01*
X354338Y1040367D01*
X354327Y1040358D01*
X354314Y1040352D01*
X354190Y1040249D01*
X354066Y1040150D01*
X354057Y1040138D01*
X354046Y1040129D01*
X353949Y1040002D01*
X353850Y1039876D01*
X353842Y1039861D01*
X353835Y1039852D01*
X353820Y1039817D01*
X353739Y1039659D01*
X351961Y1035367D01*
X348603Y1032009D01*
X344215Y1030191D01*
X339465Y1030191D01*
G37*
%LPD*%
%LPC*%
G36*
X481244Y1026081D02*
X481244Y1026081D01*
X476448Y1028068D01*
X472778Y1031738D01*
X470791Y1036534D01*
X470791Y1041726D01*
X472778Y1046522D01*
X476448Y1050192D01*
X481244Y1052179D01*
X486436Y1052179D01*
X491232Y1050192D01*
X494902Y1046522D01*
X496889Y1041726D01*
X496889Y1036534D01*
X494902Y1031738D01*
X491232Y1028068D01*
X486436Y1026081D01*
X481244Y1026081D01*
G37*
%LPD*%
%LPC*%
G36*
X481244Y793081D02*
X481244Y793081D01*
X476448Y795068D01*
X472778Y798738D01*
X470791Y803534D01*
X470791Y808726D01*
X472778Y813522D01*
X476448Y817192D01*
X481244Y819179D01*
X486436Y819179D01*
X491232Y817192D01*
X494902Y813522D01*
X496889Y808726D01*
X496889Y803534D01*
X494902Y798738D01*
X491232Y795068D01*
X486436Y793081D01*
X481244Y793081D01*
G37*
%LPD*%
%LPC*%
G36*
X274244Y1026081D02*
X274244Y1026081D01*
X269448Y1028068D01*
X265778Y1031738D01*
X263791Y1036534D01*
X263791Y1041726D01*
X265778Y1046522D01*
X269448Y1050192D01*
X274244Y1052179D01*
X279436Y1052179D01*
X284232Y1050192D01*
X287902Y1046522D01*
X289889Y1041726D01*
X289889Y1036534D01*
X287902Y1031738D01*
X284232Y1028068D01*
X279436Y1026081D01*
X274244Y1026081D01*
G37*
%LPD*%
%LPC*%
G36*
X897850Y391625D02*
X897850Y391625D01*
X897709Y391670D01*
X897683Y391672D01*
X897658Y391680D01*
X897414Y391699D01*
X887662Y391699D01*
X887732Y392139D01*
X888238Y393698D01*
X888982Y395158D01*
X889946Y396485D01*
X891105Y397644D01*
X892431Y398607D01*
X893703Y399256D01*
X893737Y399278D01*
X893775Y399294D01*
X893882Y399374D01*
X893994Y399448D01*
X894022Y399478D01*
X894054Y399502D01*
X894141Y399604D01*
X894233Y399702D01*
X894253Y399737D01*
X894280Y399768D01*
X894341Y399887D01*
X894408Y400003D01*
X894420Y400042D01*
X894438Y400078D01*
X894471Y400208D01*
X894510Y400336D01*
X894513Y400377D01*
X894522Y400417D01*
X894524Y400550D01*
X894533Y400684D01*
X894527Y400724D01*
X894527Y400765D01*
X894499Y400896D01*
X894477Y401028D01*
X894462Y401066D01*
X894453Y401106D01*
X894396Y401227D01*
X894345Y401350D01*
X894321Y401384D01*
X894303Y401420D01*
X894220Y401525D01*
X894142Y401634D01*
X894111Y401661D01*
X894086Y401693D01*
X893981Y401776D01*
X893880Y401864D01*
X893845Y401883D01*
X893813Y401909D01*
X893595Y402020D01*
X891631Y402833D01*
X888523Y405941D01*
X886841Y410002D01*
X886841Y414398D01*
X888523Y418459D01*
X891631Y421567D01*
X895692Y423249D01*
X900088Y423249D01*
X904149Y421567D01*
X907257Y418459D01*
X908939Y414398D01*
X908939Y410002D01*
X907257Y405941D01*
X904149Y402833D01*
X902185Y402020D01*
X902150Y402000D01*
X902111Y401987D01*
X901998Y401916D01*
X901881Y401851D01*
X901850Y401823D01*
X901816Y401802D01*
X901722Y401707D01*
X901622Y401617D01*
X901599Y401583D01*
X901571Y401554D01*
X901501Y401440D01*
X901424Y401330D01*
X901409Y401292D01*
X901388Y401257D01*
X901346Y401130D01*
X901296Y401006D01*
X901291Y400965D01*
X901278Y400927D01*
X901265Y400793D01*
X901246Y400661D01*
X901249Y400620D01*
X901245Y400580D01*
X901263Y400447D01*
X901275Y400314D01*
X901287Y400275D01*
X901293Y400235D01*
X901340Y400110D01*
X901382Y399982D01*
X901403Y399947D01*
X901417Y399909D01*
X901492Y399798D01*
X901561Y399683D01*
X901590Y399654D01*
X901613Y399620D01*
X901711Y399529D01*
X901804Y399433D01*
X901838Y399411D01*
X901868Y399384D01*
X902077Y399256D01*
X903349Y398607D01*
X904675Y397644D01*
X905834Y396485D01*
X906798Y395158D01*
X907542Y393698D01*
X908048Y392139D01*
X908118Y391699D01*
X898366Y391699D01*
X898340Y391696D01*
X898314Y391698D01*
X898167Y391676D01*
X898020Y391659D01*
X897995Y391651D01*
X897969Y391647D01*
X897888Y391614D01*
X897850Y391625D01*
G37*
%LPD*%
%LPC*%
G36*
X894040Y733255D02*
X894040Y733255D01*
X893899Y733300D01*
X893873Y733302D01*
X893848Y733310D01*
X893604Y733329D01*
X883852Y733329D01*
X883922Y733769D01*
X884428Y735328D01*
X885172Y736788D01*
X886136Y738115D01*
X887295Y739274D01*
X888622Y740237D01*
X889893Y740886D01*
X889927Y740908D01*
X889965Y740924D01*
X890072Y741004D01*
X890184Y741078D01*
X890212Y741108D01*
X890244Y741132D01*
X890331Y741234D01*
X890423Y741332D01*
X890443Y741367D01*
X890470Y741398D01*
X890531Y741517D01*
X890598Y741633D01*
X890610Y741672D01*
X890628Y741708D01*
X890661Y741838D01*
X890700Y741966D01*
X890703Y742007D01*
X890712Y742047D01*
X890714Y742181D01*
X890723Y742314D01*
X890717Y742354D01*
X890718Y742395D01*
X890689Y742526D01*
X890667Y742658D01*
X890652Y742696D01*
X890643Y742736D01*
X890586Y742856D01*
X890535Y742980D01*
X890511Y743014D01*
X890493Y743050D01*
X890410Y743155D01*
X890332Y743264D01*
X890301Y743291D01*
X890276Y743323D01*
X890171Y743406D01*
X890070Y743494D01*
X890035Y743513D01*
X890003Y743539D01*
X889785Y743650D01*
X887821Y744463D01*
X884713Y747571D01*
X883031Y751632D01*
X883031Y756028D01*
X884713Y760089D01*
X887821Y763197D01*
X891882Y764879D01*
X896278Y764879D01*
X900339Y763197D01*
X903447Y760089D01*
X905129Y756028D01*
X905129Y751632D01*
X903447Y747571D01*
X900339Y744463D01*
X898375Y743650D01*
X898340Y743630D01*
X898301Y743617D01*
X898188Y743546D01*
X898071Y743481D01*
X898040Y743453D01*
X898006Y743432D01*
X897912Y743337D01*
X897812Y743247D01*
X897789Y743213D01*
X897761Y743184D01*
X897690Y743070D01*
X897614Y742960D01*
X897599Y742922D01*
X897578Y742887D01*
X897535Y742760D01*
X897486Y742636D01*
X897480Y742595D01*
X897468Y742557D01*
X897455Y742423D01*
X897436Y742291D01*
X897439Y742250D01*
X897435Y742210D01*
X897453Y742077D01*
X897465Y741944D01*
X897477Y741905D01*
X897483Y741865D01*
X897530Y741740D01*
X897572Y741612D01*
X897593Y741577D01*
X897607Y741539D01*
X897682Y741428D01*
X897751Y741313D01*
X897780Y741284D01*
X897802Y741250D01*
X897901Y741160D01*
X897994Y741063D01*
X898028Y741041D01*
X898058Y741014D01*
X898267Y740886D01*
X899538Y740237D01*
X900865Y739274D01*
X902024Y738115D01*
X902988Y736788D01*
X903732Y735328D01*
X904238Y733769D01*
X904308Y733329D01*
X894556Y733329D01*
X894530Y733326D01*
X894504Y733328D01*
X894357Y733306D01*
X894210Y733289D01*
X894185Y733281D01*
X894159Y733277D01*
X894078Y733244D01*
X894040Y733255D01*
G37*
%LPD*%
%LPC*%
G36*
X698460Y556725D02*
X698460Y556725D01*
X698319Y556770D01*
X698293Y556772D01*
X698268Y556780D01*
X698024Y556799D01*
X688272Y556799D01*
X688342Y557239D01*
X688848Y558798D01*
X689592Y560258D01*
X690556Y561585D01*
X691715Y562744D01*
X693042Y563707D01*
X694313Y564356D01*
X694347Y564378D01*
X694385Y564394D01*
X694492Y564474D01*
X694604Y564548D01*
X694632Y564578D01*
X694664Y564602D01*
X694751Y564704D01*
X694843Y564802D01*
X694863Y564837D01*
X694890Y564868D01*
X694951Y564987D01*
X695018Y565103D01*
X695030Y565142D01*
X695048Y565178D01*
X695081Y565308D01*
X695120Y565436D01*
X695123Y565477D01*
X695132Y565517D01*
X695134Y565651D01*
X695143Y565784D01*
X695137Y565824D01*
X695138Y565865D01*
X695109Y565996D01*
X695087Y566128D01*
X695072Y566166D01*
X695063Y566206D01*
X695006Y566326D01*
X694955Y566450D01*
X694931Y566484D01*
X694913Y566520D01*
X694830Y566625D01*
X694752Y566734D01*
X694721Y566761D01*
X694696Y566793D01*
X694591Y566876D01*
X694490Y566964D01*
X694455Y566983D01*
X694423Y567009D01*
X694205Y567120D01*
X692241Y567933D01*
X689133Y571041D01*
X687451Y575102D01*
X687451Y579498D01*
X689133Y583559D01*
X692241Y586667D01*
X696302Y588349D01*
X700698Y588349D01*
X704759Y586667D01*
X707867Y583559D01*
X709549Y579498D01*
X709549Y575102D01*
X707867Y571041D01*
X704759Y567933D01*
X702795Y567120D01*
X702760Y567100D01*
X702721Y567087D01*
X702608Y567016D01*
X702491Y566951D01*
X702460Y566923D01*
X702426Y566902D01*
X702332Y566807D01*
X702232Y566717D01*
X702209Y566683D01*
X702181Y566654D01*
X702110Y566540D01*
X702034Y566430D01*
X702019Y566392D01*
X701998Y566357D01*
X701955Y566230D01*
X701906Y566106D01*
X701900Y566065D01*
X701888Y566027D01*
X701875Y565893D01*
X701856Y565761D01*
X701859Y565720D01*
X701855Y565680D01*
X701873Y565547D01*
X701885Y565414D01*
X701897Y565375D01*
X701903Y565335D01*
X701950Y565210D01*
X701992Y565082D01*
X702013Y565047D01*
X702027Y565009D01*
X702102Y564898D01*
X702171Y564783D01*
X702200Y564754D01*
X702222Y564720D01*
X702321Y564630D01*
X702414Y564533D01*
X702448Y564511D01*
X702478Y564484D01*
X702687Y564356D01*
X703958Y563707D01*
X705285Y562744D01*
X706444Y561585D01*
X707408Y560258D01*
X708152Y558798D01*
X708658Y557239D01*
X708728Y556799D01*
X698976Y556799D01*
X698950Y556796D01*
X698924Y556798D01*
X698777Y556776D01*
X698630Y556759D01*
X698605Y556751D01*
X698579Y556747D01*
X698498Y556714D01*
X698460Y556725D01*
G37*
%LPD*%
%LPC*%
G36*
X1079460Y556725D02*
X1079460Y556725D01*
X1079319Y556770D01*
X1079293Y556772D01*
X1079268Y556780D01*
X1079024Y556799D01*
X1069272Y556799D01*
X1069342Y557239D01*
X1069848Y558798D01*
X1070592Y560258D01*
X1071556Y561585D01*
X1072715Y562744D01*
X1074042Y563707D01*
X1075313Y564356D01*
X1075347Y564378D01*
X1075385Y564394D01*
X1075492Y564474D01*
X1075604Y564548D01*
X1075632Y564578D01*
X1075664Y564602D01*
X1075751Y564704D01*
X1075843Y564802D01*
X1075863Y564837D01*
X1075890Y564868D01*
X1075951Y564987D01*
X1076018Y565103D01*
X1076030Y565142D01*
X1076048Y565178D01*
X1076081Y565308D01*
X1076120Y565436D01*
X1076123Y565477D01*
X1076132Y565517D01*
X1076134Y565651D01*
X1076143Y565784D01*
X1076137Y565824D01*
X1076138Y565865D01*
X1076109Y565996D01*
X1076087Y566128D01*
X1076072Y566166D01*
X1076063Y566206D01*
X1076006Y566326D01*
X1075955Y566450D01*
X1075931Y566484D01*
X1075913Y566520D01*
X1075830Y566625D01*
X1075752Y566734D01*
X1075721Y566761D01*
X1075696Y566793D01*
X1075591Y566876D01*
X1075490Y566964D01*
X1075455Y566983D01*
X1075423Y567009D01*
X1075205Y567120D01*
X1073241Y567933D01*
X1070133Y571041D01*
X1068451Y575102D01*
X1068451Y579498D01*
X1070133Y583559D01*
X1073241Y586667D01*
X1077302Y588349D01*
X1081698Y588349D01*
X1085759Y586667D01*
X1088867Y583559D01*
X1090549Y579498D01*
X1090549Y575102D01*
X1088867Y571041D01*
X1085759Y567933D01*
X1083795Y567120D01*
X1083760Y567100D01*
X1083721Y567087D01*
X1083608Y567016D01*
X1083491Y566951D01*
X1083460Y566923D01*
X1083426Y566902D01*
X1083332Y566807D01*
X1083232Y566717D01*
X1083209Y566683D01*
X1083181Y566654D01*
X1083110Y566540D01*
X1083034Y566430D01*
X1083019Y566392D01*
X1082998Y566357D01*
X1082955Y566230D01*
X1082906Y566106D01*
X1082900Y566065D01*
X1082888Y566027D01*
X1082875Y565893D01*
X1082856Y565761D01*
X1082859Y565720D01*
X1082855Y565680D01*
X1082873Y565547D01*
X1082885Y565414D01*
X1082897Y565375D01*
X1082903Y565335D01*
X1082950Y565210D01*
X1082992Y565082D01*
X1083013Y565047D01*
X1083027Y565009D01*
X1083102Y564898D01*
X1083171Y564783D01*
X1083200Y564754D01*
X1083222Y564720D01*
X1083321Y564630D01*
X1083414Y564533D01*
X1083448Y564511D01*
X1083478Y564484D01*
X1083687Y564356D01*
X1084958Y563707D01*
X1086285Y562744D01*
X1087444Y561585D01*
X1088408Y560258D01*
X1089152Y558798D01*
X1089658Y557239D01*
X1089728Y556799D01*
X1079976Y556799D01*
X1079950Y556796D01*
X1079924Y556798D01*
X1079777Y556776D01*
X1079630Y556759D01*
X1079605Y556751D01*
X1079579Y556747D01*
X1079498Y556714D01*
X1079460Y556725D01*
G37*
%LPD*%
%LPC*%
G36*
X268034Y70103D02*
X268034Y70103D01*
X263459Y71998D01*
X259958Y75499D01*
X258063Y80074D01*
X258063Y85026D01*
X259958Y89601D01*
X263459Y93102D01*
X268034Y94997D01*
X272986Y94997D01*
X277561Y93102D01*
X281062Y89601D01*
X282957Y85026D01*
X282957Y80074D01*
X281062Y75499D01*
X277561Y71998D01*
X272986Y70103D01*
X268034Y70103D01*
G37*
%LPD*%
%LPC*%
G36*
X405041Y386869D02*
X405041Y386869D01*
X402531Y387909D01*
X400609Y389831D01*
X399569Y392341D01*
X399569Y395059D01*
X400609Y397569D01*
X402531Y399491D01*
X405041Y400531D01*
X407759Y400531D01*
X410269Y399491D01*
X412191Y397569D01*
X413231Y395059D01*
X413231Y392341D01*
X412191Y389831D01*
X410269Y387909D01*
X407759Y386869D01*
X405041Y386869D01*
G37*
%LPD*%
%LPC*%
G36*
X230612Y306133D02*
X230612Y306133D01*
X230233Y306511D01*
X229965Y306975D01*
X229827Y307492D01*
X229827Y308027D01*
X229965Y308544D01*
X236196Y319335D01*
X241916Y316032D01*
X234803Y303712D01*
X230612Y306133D01*
G37*
%LPD*%
%LPC*%
G36*
X209022Y268738D02*
X209022Y268738D01*
X208643Y269116D01*
X208375Y269580D01*
X208237Y270097D01*
X208237Y270632D01*
X208375Y271149D01*
X214606Y281940D01*
X220326Y278637D01*
X213213Y266317D01*
X209022Y268738D01*
G37*
%LPD*%
%LPC*%
G36*
X223200Y260712D02*
X223200Y260712D01*
X222683Y260850D01*
X218491Y263270D01*
X225604Y275590D01*
X231325Y272287D01*
X225094Y261496D01*
X224716Y261118D01*
X224252Y260850D01*
X223735Y260712D01*
X223200Y260712D01*
G37*
%LPD*%
%LPC*%
G36*
X244790Y298107D02*
X244790Y298107D01*
X244273Y298245D01*
X240081Y300665D01*
X247194Y312985D01*
X252915Y309682D01*
X246684Y298891D01*
X246306Y298513D01*
X245842Y298245D01*
X245325Y298107D01*
X244790Y298107D01*
G37*
%LPD*%
%LPC*%
G36*
X217653Y287218D02*
X217653Y287218D01*
X223883Y298009D01*
X224261Y298387D01*
X224725Y298655D01*
X225242Y298793D01*
X225777Y298793D01*
X226294Y298655D01*
X230486Y296235D01*
X223373Y283915D01*
X217653Y287218D01*
G37*
%LPD*%
%LPC*%
G36*
X239243Y324613D02*
X239243Y324613D01*
X245473Y335404D01*
X245851Y335782D01*
X246315Y336050D01*
X246832Y336188D01*
X247367Y336188D01*
X247884Y336050D01*
X252076Y333630D01*
X244963Y321310D01*
X239243Y324613D01*
G37*
%LPD*%
%LPC*%
G36*
X228651Y280868D02*
X228651Y280868D01*
X235764Y293187D01*
X239956Y290767D01*
X240334Y290389D01*
X240602Y289925D01*
X240741Y289408D01*
X240741Y288873D01*
X240602Y288356D01*
X234372Y277565D01*
X228651Y280868D01*
G37*
%LPD*%
%LPC*%
G36*
X250241Y318263D02*
X250241Y318263D01*
X257354Y330582D01*
X261546Y328162D01*
X261924Y327784D01*
X262192Y327320D01*
X262331Y326803D01*
X262331Y326268D01*
X262192Y325751D01*
X255962Y314960D01*
X250241Y318263D01*
G37*
%LPD*%
%LPC*%
G36*
X763999Y600299D02*
X763999Y600299D01*
X763999Y609813D01*
X764004Y609812D01*
X765924Y609188D01*
X767723Y608271D01*
X769357Y607084D01*
X770784Y605657D01*
X771971Y604023D01*
X772888Y602224D01*
X773512Y600304D01*
X773513Y600299D01*
X763999Y600299D01*
G37*
%LPD*%
%LPC*%
G36*
X1144999Y600299D02*
X1144999Y600299D01*
X1144999Y609813D01*
X1145004Y609812D01*
X1146924Y609188D01*
X1148723Y608271D01*
X1150357Y607084D01*
X1151784Y605657D01*
X1152971Y604023D01*
X1153888Y602224D01*
X1154512Y600304D01*
X1154513Y600299D01*
X1144999Y600299D01*
G37*
%LPD*%
%LPC*%
G36*
X959579Y776829D02*
X959579Y776829D01*
X959579Y786343D01*
X959584Y786342D01*
X961504Y785718D01*
X963303Y784801D01*
X964937Y783614D01*
X966364Y782187D01*
X967551Y780553D01*
X968468Y778754D01*
X969092Y776834D01*
X969093Y776829D01*
X959579Y776829D01*
G37*
%LPD*%
%LPC*%
G36*
X963389Y435199D02*
X963389Y435199D01*
X963389Y444713D01*
X963394Y444712D01*
X965314Y444088D01*
X967113Y443171D01*
X968747Y441984D01*
X970174Y440557D01*
X971361Y438923D01*
X972278Y437124D01*
X972902Y435204D01*
X972903Y435199D01*
X963389Y435199D01*
G37*
%LPD*%
%LPC*%
G36*
X947877Y435199D02*
X947877Y435199D01*
X947878Y435204D01*
X948502Y437124D01*
X949419Y438923D01*
X950606Y440557D01*
X952033Y441984D01*
X953667Y443171D01*
X955466Y444088D01*
X957386Y444712D01*
X957391Y444713D01*
X957391Y435199D01*
X947877Y435199D01*
G37*
%LPD*%
%LPC*%
G36*
X963389Y429201D02*
X963389Y429201D01*
X972903Y429201D01*
X972902Y429196D01*
X972278Y427276D01*
X971361Y425477D01*
X970174Y423843D01*
X968747Y422416D01*
X967113Y421229D01*
X965314Y420312D01*
X963394Y419688D01*
X963389Y419687D01*
X963389Y429201D01*
G37*
%LPD*%
%LPC*%
G36*
X1144999Y594301D02*
X1144999Y594301D01*
X1154513Y594301D01*
X1154512Y594296D01*
X1153888Y592376D01*
X1152971Y590577D01*
X1151784Y588943D01*
X1150357Y587516D01*
X1148723Y586329D01*
X1146924Y585412D01*
X1145004Y584788D01*
X1144999Y584787D01*
X1144999Y594301D01*
G37*
%LPD*%
%LPC*%
G36*
X944067Y776829D02*
X944067Y776829D01*
X944068Y776834D01*
X944692Y778754D01*
X945609Y780553D01*
X946796Y782187D01*
X948223Y783614D01*
X949857Y784801D01*
X951656Y785718D01*
X953576Y786342D01*
X953581Y786343D01*
X953581Y776829D01*
X944067Y776829D01*
G37*
%LPD*%
%LPC*%
G36*
X959579Y770831D02*
X959579Y770831D01*
X969093Y770831D01*
X969092Y770826D01*
X968468Y768906D01*
X967551Y767107D01*
X966364Y765473D01*
X964937Y764046D01*
X963303Y762859D01*
X961504Y761942D01*
X959584Y761318D01*
X959579Y761317D01*
X959579Y770831D01*
G37*
%LPD*%
%LPC*%
G36*
X763999Y594301D02*
X763999Y594301D01*
X773513Y594301D01*
X773512Y594296D01*
X772888Y592376D01*
X771971Y590577D01*
X770784Y588943D01*
X769357Y587516D01*
X767723Y586329D01*
X765924Y585412D01*
X764004Y584788D01*
X763999Y584787D01*
X763999Y594301D01*
G37*
%LPD*%
%LPC*%
G36*
X1129487Y600299D02*
X1129487Y600299D01*
X1129488Y600304D01*
X1130112Y602224D01*
X1131029Y604023D01*
X1132216Y605657D01*
X1133643Y607084D01*
X1135277Y608271D01*
X1137076Y609188D01*
X1138996Y609812D01*
X1139001Y609813D01*
X1139001Y600299D01*
X1129487Y600299D01*
G37*
%LPD*%
%LPC*%
G36*
X748487Y600299D02*
X748487Y600299D01*
X748488Y600304D01*
X749112Y602224D01*
X750029Y604023D01*
X751216Y605657D01*
X752643Y607084D01*
X754277Y608271D01*
X756076Y609188D01*
X757996Y609812D01*
X758001Y609813D01*
X758001Y600299D01*
X748487Y600299D01*
G37*
%LPD*%
%LPC*%
G36*
X953576Y761318D02*
X953576Y761318D01*
X951656Y761942D01*
X949857Y762859D01*
X948223Y764046D01*
X946796Y765473D01*
X945609Y767107D01*
X944692Y768906D01*
X944068Y770826D01*
X944067Y770831D01*
X953581Y770831D01*
X953581Y761317D01*
X953576Y761318D01*
G37*
%LPD*%
%LPC*%
G36*
X757996Y584788D02*
X757996Y584788D01*
X756076Y585412D01*
X754277Y586329D01*
X752643Y587516D01*
X751216Y588943D01*
X750029Y590577D01*
X749112Y592376D01*
X748488Y594296D01*
X748487Y594301D01*
X758001Y594301D01*
X758001Y584787D01*
X757996Y584788D01*
G37*
%LPD*%
%LPC*%
G36*
X1138996Y584788D02*
X1138996Y584788D01*
X1137076Y585412D01*
X1135277Y586329D01*
X1133643Y587516D01*
X1132216Y588943D01*
X1131029Y590577D01*
X1130112Y592376D01*
X1129488Y594296D01*
X1129487Y594301D01*
X1139001Y594301D01*
X1139001Y584787D01*
X1138996Y584788D01*
G37*
%LPD*%
%LPC*%
G36*
X957386Y419688D02*
X957386Y419688D01*
X955466Y420312D01*
X953667Y421229D01*
X952033Y422416D01*
X950606Y423843D01*
X949419Y425477D01*
X948502Y427276D01*
X947878Y429196D01*
X947877Y429201D01*
X957391Y429201D01*
X957391Y419687D01*
X957386Y419688D01*
G37*
%LPD*%
%LPC*%
G36*
X1019673Y825781D02*
X1019673Y825781D01*
X1017962Y826337D01*
X1016359Y827154D01*
X1014903Y828211D01*
X1013631Y829483D01*
X1012574Y830939D01*
X1011757Y832542D01*
X1011201Y834253D01*
X1011179Y834391D01*
X1019811Y834391D01*
X1019811Y825759D01*
X1019673Y825781D01*
G37*
%LPD*%
%LPC*%
G36*
X899889Y387701D02*
X899889Y387701D01*
X908118Y387701D01*
X908048Y387261D01*
X907542Y385702D01*
X906798Y384242D01*
X905834Y382915D01*
X904675Y381756D01*
X903348Y380792D01*
X901888Y380048D01*
X900329Y379542D01*
X899889Y379472D01*
X899889Y387701D01*
G37*
%LPD*%
%LPC*%
G36*
X700499Y552801D02*
X700499Y552801D01*
X708728Y552801D01*
X708658Y552361D01*
X708152Y550802D01*
X707408Y549342D01*
X706444Y548015D01*
X705285Y546856D01*
X703958Y545892D01*
X702498Y545148D01*
X700939Y544642D01*
X700499Y544572D01*
X700499Y552801D01*
G37*
%LPD*%
%LPC*%
G36*
X1081499Y552801D02*
X1081499Y552801D01*
X1089728Y552801D01*
X1089658Y552361D01*
X1089152Y550802D01*
X1088408Y549342D01*
X1087444Y548015D01*
X1086285Y546856D01*
X1084958Y545892D01*
X1083498Y545148D01*
X1081939Y544642D01*
X1081499Y544572D01*
X1081499Y552801D01*
G37*
%LPD*%
%LPC*%
G36*
X896079Y729331D02*
X896079Y729331D01*
X904308Y729331D01*
X904238Y728891D01*
X903732Y727332D01*
X902988Y725872D01*
X902024Y724545D01*
X900865Y723386D01*
X899538Y722422D01*
X898078Y721678D01*
X896519Y721172D01*
X896079Y721102D01*
X896079Y729331D01*
G37*
%LPD*%
%LPC*%
G36*
X895451Y379542D02*
X895451Y379542D01*
X893892Y380048D01*
X892432Y380792D01*
X891105Y381756D01*
X889946Y382915D01*
X888982Y384242D01*
X888238Y385702D01*
X887732Y387261D01*
X887662Y387701D01*
X895891Y387701D01*
X895891Y379472D01*
X895451Y379542D01*
G37*
%LPD*%
%LPC*%
G36*
X696061Y544642D02*
X696061Y544642D01*
X694502Y545148D01*
X693042Y545892D01*
X691715Y546856D01*
X690556Y548015D01*
X689592Y549342D01*
X688848Y550802D01*
X688342Y552361D01*
X688272Y552801D01*
X696501Y552801D01*
X696501Y544572D01*
X696061Y544642D01*
G37*
%LPD*%
%LPC*%
G36*
X891641Y721172D02*
X891641Y721172D01*
X890082Y721678D01*
X888622Y722422D01*
X887295Y723386D01*
X886136Y724545D01*
X885172Y725872D01*
X884428Y727332D01*
X883922Y728891D01*
X883852Y729331D01*
X892081Y729331D01*
X892081Y721102D01*
X891641Y721172D01*
G37*
%LPD*%
%LPC*%
G36*
X1077061Y544642D02*
X1077061Y544642D01*
X1075502Y545148D01*
X1074042Y545892D01*
X1072715Y546856D01*
X1071556Y548015D01*
X1070592Y549342D01*
X1069848Y550802D01*
X1069342Y552361D01*
X1069272Y552801D01*
X1077501Y552801D01*
X1077501Y544572D01*
X1077061Y544642D01*
G37*
%LPD*%
%LPC*%
G36*
X246078Y317147D02*
X246078Y317147D01*
X246078Y317149D01*
X246080Y317148D01*
X246079Y317146D01*
X246078Y317147D01*
G37*
%LPD*%
%LPC*%
G36*
X224488Y279752D02*
X224488Y279752D01*
X224488Y279754D01*
X224490Y279753D01*
X224489Y279751D01*
X224488Y279752D01*
G37*
%LPD*%
D10*
X831580Y823830D03*
X956580Y823830D03*
X831580Y773830D03*
X956580Y773830D03*
D11*
X894080Y866330D03*
X894080Y731330D03*
D10*
X1017000Y647300D03*
X1142000Y647300D03*
X1017000Y597300D03*
X1142000Y597300D03*
D11*
X1079500Y689800D03*
X1079500Y554800D03*
D12*
X1047750Y862330D03*
X1047750Y836930D03*
X1022350Y836930D03*
X1022350Y862330D03*
D13*
G36*
X128739Y937382D02*
X115659Y950462D01*
X123437Y958240D01*
X136517Y945160D01*
X128739Y937382D01*
G37*
G36*
X175762Y890359D02*
X162682Y903439D01*
X170460Y911217D01*
X183540Y898137D01*
X175762Y890359D01*
G37*
G36*
X108940Y917583D02*
X95860Y930663D01*
X103638Y938441D01*
X116718Y925361D01*
X108940Y917583D01*
G37*
G36*
X118840Y927482D02*
X105760Y940562D01*
X113538Y948340D01*
X126618Y935260D01*
X118840Y927482D01*
G37*
G36*
X155963Y870560D02*
X142883Y883640D01*
X150661Y891418D01*
X163741Y878338D01*
X155963Y870560D01*
G37*
G36*
X165862Y880460D02*
X152782Y893540D01*
X160560Y901318D01*
X173640Y888238D01*
X165862Y880460D01*
G37*
D14*
G36*
X168551Y929816D02*
X155116Y943251D01*
X169257Y957392D01*
X182692Y943957D01*
X168551Y929816D01*
G37*
G36*
X110143Y871408D02*
X96708Y884843D01*
X110849Y898984D01*
X124284Y885549D01*
X110143Y871408D01*
G37*
D10*
X636000Y647300D03*
X761000Y647300D03*
X636000Y597300D03*
X761000Y597300D03*
D11*
X698500Y689800D03*
X698500Y554800D03*
D12*
X571500Y914400D03*
X596900Y914400D03*
X622300Y914400D03*
D15*
X531600Y1076800D03*
X531600Y1066800D03*
X531600Y1056800D03*
X560600Y1056800D03*
X560600Y1066800D03*
X560600Y1076800D03*
D16*
X546100Y1066800D03*
D17*
X418040Y1042130D03*
X392640Y1042130D03*
X367240Y1042130D03*
X341840Y1042130D03*
D10*
X835390Y482200D03*
X960390Y482200D03*
X835390Y432200D03*
X960390Y432200D03*
D11*
X897890Y524700D03*
X897890Y389700D03*
D12*
X270510Y82550D03*
D18*
G36*
X194307Y364635D02*
X181607Y342639D01*
X168409Y350259D01*
X181109Y372255D01*
X194307Y364635D01*
G37*
G36*
X170177Y322841D02*
X157477Y300845D01*
X144279Y308465D01*
X156979Y330461D01*
X170177Y322841D01*
G37*
G36*
X190406Y337559D02*
X203106Y359555D01*
X216304Y351935D01*
X203604Y329939D01*
X190406Y337559D01*
G37*
G36*
X192174Y310141D02*
X179474Y288145D01*
X166276Y295765D01*
X178976Y317761D01*
X192174Y310141D01*
G37*
D19*
G36*
X209863Y320459D02*
X225102Y346855D01*
X238301Y339235D01*
X223062Y312839D01*
X209863Y320459D01*
G37*
G36*
X216711Y301841D02*
X201472Y275445D01*
X188273Y283065D01*
X203512Y309461D01*
X216711Y301841D01*
G37*
G36*
X231860Y307759D02*
X247099Y334155D01*
X260298Y326535D01*
X245059Y300139D01*
X231860Y307759D01*
G37*
G36*
X238708Y289141D02*
X223469Y262745D01*
X210270Y270365D01*
X225509Y296761D01*
X238708Y289141D01*
G37*
G36*
X253857Y295059D02*
X269096Y321455D01*
X282295Y313835D01*
X267056Y287439D01*
X253857Y295059D01*
G37*
G36*
X260705Y276441D02*
X245466Y250045D01*
X232267Y257665D01*
X247506Y284061D01*
X260705Y276441D01*
G37*
G36*
X275854Y282359D02*
X291093Y308755D01*
X304292Y301135D01*
X289053Y274739D01*
X275854Y282359D01*
G37*
G36*
X282702Y263741D02*
X267463Y237345D01*
X254264Y244965D01*
X269503Y271361D01*
X282702Y263741D01*
G37*
G36*
X297851Y269659D02*
X313090Y296055D01*
X326289Y288435D01*
X311050Y262039D01*
X297851Y269659D01*
G37*
G36*
X304699Y251041D02*
X289460Y224645D01*
X276261Y232265D01*
X291500Y258661D01*
X304699Y251041D01*
G37*
G36*
X319848Y256959D02*
X335087Y283355D01*
X348286Y275735D01*
X333047Y249339D01*
X319848Y256959D01*
G37*
G36*
X326696Y238341D02*
X311457Y211945D01*
X298258Y219565D01*
X313497Y245961D01*
X326696Y238341D01*
G37*
G36*
X341845Y244259D02*
X357084Y270655D01*
X370283Y263035D01*
X355044Y236639D01*
X341845Y244259D01*
G37*
G36*
X348693Y225641D02*
X333454Y199245D01*
X320255Y206865D01*
X335494Y233261D01*
X348693Y225641D01*
G37*
G36*
X363842Y231559D02*
X379081Y257955D01*
X392280Y250335D01*
X377041Y223939D01*
X363842Y231559D01*
G37*
G36*
X370690Y212941D02*
X355451Y186545D01*
X342252Y194165D01*
X357491Y220561D01*
X370690Y212941D01*
G37*
G36*
X385839Y218859D02*
X401078Y245255D01*
X414277Y237635D01*
X399038Y211239D01*
X385839Y218859D01*
G37*
G36*
X392687Y200241D02*
X377448Y173845D01*
X364249Y181465D01*
X379488Y207861D01*
X392687Y200241D01*
G37*
G36*
X407836Y206159D02*
X423075Y232555D01*
X436274Y224935D01*
X421035Y198539D01*
X407836Y206159D01*
G37*
G36*
X414684Y187541D02*
X399445Y161145D01*
X386246Y168765D01*
X401485Y195161D01*
X414684Y187541D01*
G37*
G36*
X429833Y193459D02*
X445072Y219855D01*
X458271Y212235D01*
X443032Y185839D01*
X429833Y193459D01*
G37*
G36*
X436681Y174841D02*
X421442Y148445D01*
X408243Y156065D01*
X423482Y182461D01*
X436681Y174841D01*
G37*
G36*
X451830Y180759D02*
X467069Y207155D01*
X480268Y199535D01*
X465029Y173139D01*
X451830Y180759D01*
G37*
G36*
X458678Y162141D02*
X443439Y135745D01*
X430240Y143365D01*
X445479Y169761D01*
X458678Y162141D01*
G37*
D18*
G36*
X476367Y172459D02*
X489067Y194455D01*
X502265Y186835D01*
X489565Y164839D01*
X476367Y172459D01*
G37*
G36*
X478135Y145041D02*
X465435Y123045D01*
X452237Y130665D01*
X464937Y152661D01*
X478135Y145041D01*
G37*
G36*
X498364Y159759D02*
X511064Y181755D01*
X524262Y174135D01*
X511562Y152139D01*
X498364Y159759D01*
G37*
G36*
X500132Y132341D02*
X487432Y110345D01*
X474234Y117965D01*
X486934Y139961D01*
X500132Y132341D01*
G37*
G36*
X614432Y330314D02*
X601732Y308318D01*
X588534Y315938D01*
X601234Y337934D01*
X614432Y330314D01*
G37*
G36*
X612664Y357733D02*
X625364Y379729D01*
X638562Y372109D01*
X625862Y350113D01*
X612664Y357733D01*
G37*
G36*
X592435Y343014D02*
X579735Y321018D01*
X566537Y328638D01*
X579237Y350634D01*
X592435Y343014D01*
G37*
G36*
X590667Y370433D02*
X603367Y392429D01*
X616565Y384809D01*
X603865Y362813D01*
X590667Y370433D01*
G37*
D19*
G36*
X572978Y360114D02*
X557739Y333718D01*
X544540Y341338D01*
X559779Y367734D01*
X572978Y360114D01*
G37*
G36*
X566130Y378733D02*
X581369Y405129D01*
X594568Y397509D01*
X579329Y371113D01*
X566130Y378733D01*
G37*
G36*
X550981Y372814D02*
X535742Y346418D01*
X522543Y354038D01*
X537782Y380434D01*
X550981Y372814D01*
G37*
G36*
X544133Y391433D02*
X559372Y417829D01*
X572571Y410209D01*
X557332Y383813D01*
X544133Y391433D01*
G37*
G36*
X528984Y385514D02*
X513745Y359118D01*
X500546Y366738D01*
X515785Y393134D01*
X528984Y385514D01*
G37*
G36*
X522136Y404133D02*
X537375Y430529D01*
X550574Y422909D01*
X535335Y396513D01*
X522136Y404133D01*
G37*
G36*
X506987Y398214D02*
X491748Y371818D01*
X478549Y379438D01*
X493788Y405834D01*
X506987Y398214D01*
G37*
G36*
X500139Y416833D02*
X515378Y443229D01*
X528577Y435609D01*
X513338Y409213D01*
X500139Y416833D01*
G37*
G36*
X484990Y410914D02*
X469751Y384518D01*
X456552Y392138D01*
X471791Y418534D01*
X484990Y410914D01*
G37*
G36*
X478142Y429533D02*
X493381Y455929D01*
X506580Y448309D01*
X491341Y421913D01*
X478142Y429533D01*
G37*
G36*
X462993Y423614D02*
X447754Y397218D01*
X434555Y404838D01*
X449794Y431234D01*
X462993Y423614D01*
G37*
G36*
X456145Y442233D02*
X471384Y468629D01*
X484583Y461009D01*
X469344Y434613D01*
X456145Y442233D01*
G37*
G36*
X440996Y436314D02*
X425757Y409918D01*
X412558Y417538D01*
X427797Y443934D01*
X440996Y436314D01*
G37*
G36*
X434148Y454933D02*
X449387Y481329D01*
X462586Y473709D01*
X447347Y447313D01*
X434148Y454933D01*
G37*
G36*
X418999Y449014D02*
X403760Y422618D01*
X390561Y430238D01*
X405800Y456634D01*
X418999Y449014D01*
G37*
G36*
X412151Y467633D02*
X427390Y494029D01*
X440589Y486409D01*
X425350Y460013D01*
X412151Y467633D01*
G37*
D18*
G36*
X394462Y457314D02*
X381762Y435318D01*
X368564Y442938D01*
X381264Y464934D01*
X394462Y457314D01*
G37*
G36*
X392694Y484733D02*
X405394Y506729D01*
X418592Y499109D01*
X405892Y477113D01*
X392694Y484733D01*
G37*
G36*
X372465Y470014D02*
X359765Y448018D01*
X346567Y455638D01*
X359267Y477634D01*
X372465Y470014D01*
G37*
G36*
X396595Y511809D02*
X383895Y489813D01*
X370697Y497433D01*
X383397Y519429D01*
X396595Y511809D01*
G37*
D20*
X177800Y876300D02*
X163211Y890889D01*
X177800Y876300D02*
X177800Y876300D01*
D21*
X177800Y876300D03*
D20*
X560600Y1066800D02*
X571500Y1066800D01*
D21*
X571500Y1066800D03*
D22*
X467360Y1074420D03*
D21*
X596900Y990600D03*
D23*
X531600Y1066800D02*
X520700Y1066800D01*
X508000Y1078957D02*
X499404Y1070361D01*
X499404Y1063239D02*
X571772Y990872D01*
X584743Y977900D01*
X622300Y977900D01*
D21*
X723900Y863600D03*
D23*
X508543Y1078957D02*
X508000Y1078957D01*
X508543Y1078957D02*
X520700Y1066800D01*
D21*
X420370Y1068070D03*
D23*
X499404Y1070361D02*
X499404Y1063239D01*
X462614Y1068070D02*
X420370Y1068070D01*
X462614Y1068070D02*
X464110Y1066574D01*
X495617Y1066574D01*
X499404Y1070361D01*
X723900Y876300D02*
X723900Y863600D01*
X723900Y876300D02*
X622300Y977900D01*
D24*
X584743Y977900D03*
D23*
X571500Y990600D02*
X571500Y914400D01*
X571500Y990600D02*
X571772Y990872D01*
D22*
X431800Y266700D03*
D20*
X431800Y225292D01*
X422055Y215547D01*
X422055Y199743D02*
X400465Y178153D01*
X422055Y199743D02*
X422055Y215547D01*
D22*
X355600Y304800D03*
D20*
X355600Y287881D01*
X334067Y266347D01*
X334067Y250543D02*
X312477Y228953D01*
X334067Y250543D02*
X334067Y266347D01*
D22*
X342900Y292100D03*
D20*
X325122Y292100D01*
X312070Y279047D01*
X312070Y263243D02*
X290480Y241653D01*
X312070Y263243D02*
X312070Y279047D01*
D22*
X304800Y342900D03*
D20*
X290073Y328173D01*
X290073Y291747D01*
X290073Y275943D02*
X268483Y254353D01*
X290073Y275943D02*
X290073Y291747D01*
D22*
X279400Y330200D03*
D20*
X279400Y315772D01*
X268076Y304447D01*
X268076Y288643D02*
X246486Y267053D01*
X268076Y288643D02*
X268076Y304447D01*
D22*
X381000Y266700D03*
D20*
X369117Y266700D01*
X356064Y253647D01*
X356064Y237843D02*
X334474Y216253D01*
X356064Y237843D02*
X356064Y253647D01*
D21*
X508000Y1092200D03*
D25*
X571500Y1092200D01*
X584200Y1079500D01*
X584200Y1066800D01*
X130690Y884805D02*
X130690Y878591D01*
X92811Y931926D02*
X122174Y961289D01*
X92811Y922683D02*
X130690Y884805D01*
X92811Y922683D02*
X92811Y931926D01*
X337199Y961289D02*
X418040Y1042130D01*
X337199Y961289D02*
X122174Y961289D01*
X1037769Y891540D02*
X1037769Y872311D01*
X1037769Y891540D02*
X1032499Y896810D01*
X719900Y896810D01*
X196481Y812800D02*
X130690Y878591D01*
X196481Y812800D02*
X218440Y812800D01*
X307340Y723900D01*
X1037769Y872311D02*
X1047750Y862330D01*
X719900Y896810D02*
X560600Y1056110D01*
D20*
X560600Y1056800D01*
D25*
X573510Y1056110D02*
X584200Y1066800D01*
X573510Y1056110D02*
X560600Y1056110D01*
X585699Y323126D02*
X601483Y323126D01*
X585699Y323126D02*
X576516Y313944D01*
X473456Y313944D01*
X419100Y368300D01*
D22*
X419100Y368300D03*
X381000Y393700D03*
D25*
X307340Y467360D01*
X307340Y723900D01*
D20*
X625613Y347256D02*
X601483Y323126D01*
X625613Y347256D02*
X625613Y364921D01*
D21*
X508000Y1066800D03*
D25*
X518000Y1056800D01*
X531600Y1056800D01*
X330200Y965861D02*
X120280Y965861D01*
X88239Y920790D02*
X93660Y915369D01*
X88239Y920790D02*
X88239Y933820D01*
X120280Y965861D01*
X330200Y965861D02*
X392640Y1028301D01*
X392640Y1042130D01*
X591312Y983488D02*
X624615Y983488D01*
X1041475Y818134D02*
X1047750Y824409D01*
X941994Y891013D02*
X717090Y891013D01*
X624615Y983488D01*
X1014873Y818134D02*
X1041475Y818134D01*
X1014873Y818134D02*
X941994Y891013D01*
X531600Y1043200D02*
X531600Y1056800D01*
X531600Y1043200D02*
X591312Y983488D01*
D26*
X139700Y800100D03*
D25*
X93660Y883580D02*
X93660Y915369D01*
X139700Y837540D02*
X139700Y800100D01*
X139700Y837540D02*
X93660Y883580D01*
X1047750Y836930D02*
X1047750Y824409D01*
D20*
X603616Y377621D02*
X603616Y368478D01*
X590502Y355364D01*
X590502Y346842D01*
X579486Y335826D01*
D25*
X577126Y335826D01*
X558800Y317500D01*
X495300Y317500D02*
X431800Y381000D01*
X495300Y317500D02*
X558800Y317500D01*
D22*
X431800Y381000D03*
X368300Y393700D03*
D25*
X292100Y469900D01*
X292100Y660400D01*
D22*
X292100Y660400D03*
D25*
X146337Y927562D02*
X126088Y947811D01*
X146337Y927562D02*
X146337Y925019D01*
X157090Y914266D01*
X171722Y914266D01*
X229502Y856486D01*
X229502Y842010D01*
X328930Y659130D02*
X328930Y604892D01*
X415473Y518349D01*
X487309Y443973D02*
X492361Y438921D01*
X487309Y443973D02*
X487309Y462138D01*
X431098Y518349D01*
X415473Y518349D01*
D22*
X330200Y660400D03*
D25*
X332740Y736600D02*
X342900Y736600D01*
D26*
X342900Y736600D03*
D25*
X252842Y818670D02*
X229502Y842010D01*
X252842Y818670D02*
X282034Y818670D01*
X292100Y808604D01*
X292100Y777240D01*
X332740Y736600D01*
D20*
X492361Y423116D02*
X470771Y401526D01*
X492361Y423116D02*
X492361Y438921D01*
D25*
X328930Y659130D02*
X330200Y660400D01*
X206652Y827649D02*
X153312Y880989D01*
X336550Y666750D02*
X336550Y605299D01*
X419944Y521905D01*
X509306Y431273D02*
X514358Y426221D01*
X509306Y431273D02*
X509306Y449438D01*
X436839Y521905D01*
X419944Y521905D01*
X336550Y666750D02*
X317500Y685800D01*
D22*
X317500Y685800D03*
D26*
X330200Y723900D03*
D25*
X226451Y827649D01*
X206652Y827649D01*
D20*
X514358Y410416D02*
X492768Y388826D01*
X514358Y410416D02*
X514358Y426221D01*
D25*
X125038Y909263D02*
X106289Y928012D01*
X125038Y909263D02*
X129702Y909263D01*
X135262Y903703D01*
X135262Y881755D01*
X199136Y817880D01*
X220980Y817880D01*
X312674Y726186D01*
X536355Y479645D02*
X536355Y413521D01*
X312674Y703326D02*
X312674Y726186D01*
X312674Y703326D02*
X536355Y479645D01*
D20*
X536355Y397716D02*
X514765Y376126D01*
X536355Y397716D02*
X536355Y413521D01*
D25*
X224930Y848969D02*
X173111Y900788D01*
X224930Y848969D02*
X224930Y838202D01*
X368300Y694832D01*
X558352Y470348D02*
X558352Y400821D01*
X558352Y470348D02*
X368300Y660400D01*
D22*
X368300Y660400D03*
D25*
X368300Y685800D02*
X368300Y694832D01*
D22*
X368300Y685800D03*
D20*
X558352Y385016D02*
X536762Y363426D01*
X558352Y385016D02*
X558352Y400821D01*
D25*
X116189Y929483D02*
X116189Y937911D01*
X138818Y906853D02*
X138818Y884113D01*
X138818Y906853D02*
X116189Y929483D01*
X138818Y884113D02*
X199971Y822960D01*
X222822Y822960D01*
X319056Y726726D01*
X580349Y462893D02*
X580349Y388121D01*
X580349Y462893D02*
X319056Y724186D01*
X319056Y726726D01*
D20*
X580349Y372316D02*
X558759Y350726D01*
X580349Y372316D02*
X580349Y388121D01*
D22*
X419100Y241300D03*
D20*
X406047Y228247D01*
X400058Y228247D01*
X400058Y212443D02*
X378468Y190853D01*
X400058Y212443D02*
X400058Y228247D01*
D22*
X406400Y279400D03*
D20*
X406400Y269286D01*
X379707Y242593D01*
X378061Y240947D01*
X379707Y226788D02*
X356471Y203553D01*
X379707Y226788D02*
X379707Y242593D01*
X448774Y430031D02*
X470364Y451621D01*
X448774Y430031D02*
X448774Y414226D01*
X381000Y346452D01*
X381000Y292100D01*
X368300Y279400D01*
D22*
X368300Y279400D03*
D23*
X266700Y408093D02*
X203355Y344747D01*
X266700Y408093D02*
X266700Y444500D01*
D22*
X266700Y444500D03*
D23*
X203355Y327083D02*
X179225Y302953D01*
X203355Y327083D02*
X203355Y344747D01*
D20*
X426777Y426926D02*
X426777Y442731D01*
X448367Y464321D01*
D25*
X448367Y491433D01*
X425007Y514793D02*
X411460Y514793D01*
X320040Y606213D01*
X425007Y514793D02*
X448367Y491433D01*
X320040Y606213D02*
X320040Y660400D01*
D22*
X320040Y660400D03*
X355600Y673100D03*
X345440Y659130D03*
X453390Y516890D03*
X469900Y499110D03*
X551180Y436880D03*
X572770Y422910D03*
X453390Y345440D03*
X466090Y359410D03*
X393700Y304800D03*
X368300Y317500D03*
X406400Y393700D03*
M02*
