G04 EAGLE Gerber X2 export*
%TF.Part,Single*%
%TF.FileFunction,Copper,L3,Inr,Mixed*%
%TF.FilePolarity,Positive*%
%TF.GenerationSoftware,Autodesk,EAGLE,9.1.3*%
%TF.CreationDate,2018-09-06T20:15:37Z*%
G75*
%MOMM*%
%FSLAX34Y34*%
%LPD*%
%AMOC8*
5,1,8,0,0,1.08239X$1,22.5*%
G01*
%ADD10C,1.800000*%
%ADD11C,1.308000*%
%ADD12C,1.524000*%
%ADD13C,1.508000*%
%ADD14C,0.906400*%
%ADD15C,0.756400*%
%ADD16C,0.706400*%


D10*
X826500Y839070D03*
X951500Y839070D03*
X826500Y789070D03*
X951500Y789070D03*
D11*
X889000Y881570D03*
X889000Y746570D03*
D10*
X1017000Y643490D03*
X1142000Y643490D03*
X1017000Y593490D03*
X1142000Y593490D03*
D11*
X1079500Y685990D03*
X1079500Y550990D03*
D12*
X1047750Y862330D03*
X1047750Y836930D03*
X1022350Y836930D03*
X1022350Y862330D03*
D10*
X636000Y644760D03*
X761000Y644760D03*
X636000Y594760D03*
X761000Y594760D03*
D11*
X698500Y687260D03*
X698500Y552260D03*
D12*
X571500Y914400D03*
X596900Y914400D03*
X622300Y914400D03*
D13*
X418040Y1042130D03*
X392640Y1042130D03*
X367240Y1042130D03*
X341840Y1042130D03*
D10*
X826500Y446640D03*
X951500Y446640D03*
X826500Y396640D03*
X951500Y396640D03*
D11*
X889000Y489140D03*
X889000Y354140D03*
D12*
X273050Y81280D03*
D14*
X177800Y876300D03*
X571500Y1066800D03*
D15*
X467360Y1074420D03*
D14*
X596900Y990600D03*
X741680Y878840D03*
X420370Y1068070D03*
D15*
X431800Y266700D03*
X355600Y304800D03*
X342900Y292100D03*
X304800Y342900D03*
X279400Y330200D03*
X381000Y266700D03*
D14*
X508000Y1092200D03*
D15*
X419100Y368300D03*
X381000Y393700D03*
D14*
X508000Y1066800D03*
D16*
X139700Y800100D03*
D15*
X431800Y381000D03*
X368300Y393700D03*
X292100Y660400D03*
X330200Y660400D03*
D16*
X342900Y736600D03*
D15*
X317500Y685800D03*
D16*
X330200Y723900D03*
D15*
X368300Y660400D03*
X368300Y685800D03*
X419100Y241300D03*
X406400Y279400D03*
X368300Y279400D03*
X266700Y444500D03*
X320040Y660400D03*
X355600Y673100D03*
X345440Y659130D03*
X453390Y516890D03*
X469900Y499110D03*
X551180Y436880D03*
X572770Y422910D03*
X453390Y345440D03*
X466090Y359410D03*
X393700Y304800D03*
X368300Y317500D03*
X406400Y393700D03*
M02*
