M48
;GenerationSoftware,Autodesk,EAGLE,9.1.3*%
;CreationDate,2018-08-24T15:02:59Z*%
FMAT,2
ICI,OFF
METRIC,TZ,000.000
T12C0.300
T11C0.350
T10C0.500
T9C0.750
T8C0.800
T7C1.000
T6C1.016
T5C1.050
T4C1.200
T3C1.600
T2C1.800
T1C2.000
%
G90
M71
T1
X27684Y80613
X48384Y80613
X48384Y103913
X27684Y103913
T2
X38258Y47737
X60255Y35037
X18029Y33020
X48825Y15240
T3
X89408Y84383
X89789Y41220
X89789Y50220
X69850Y66730
X69850Y57730
X107950Y57730
X107950Y66730
X89408Y75383
T4
X114200Y59730
X101700Y59730
X114200Y64730
X101700Y64730
X95658Y77383
X83158Y77383
X95658Y82383
X63600Y64730
X76100Y64730
X63600Y59730
X76100Y59730
X83539Y48220
X96039Y48220
X83539Y43220
X96039Y43220
X83158Y82383
T5
X12626Y90096
T6
X27051Y8255
X62230Y91440
X59690Y91440
X57150Y91440
X102235Y86233
X102235Y83693
X104775Y83693
X104775Y86233
T7
X34184Y104213
X36724Y104213
X39264Y104213
X41804Y104213
T8
X89408Y73133
X89789Y38970
X89789Y52470
X69850Y55480
X69850Y68980
X107950Y55480
X107950Y68980
X89408Y86633
T9
X15313Y92783
T10
X17780Y87630
X57150Y106680
X59690Y99060
X72390Y86360
X42037Y106807
X50800Y109220
X50800Y106680
T11
X46990Y49911
X38100Y39370
X41910Y36830
X55118Y43688
X31750Y68580
X43180Y38100
X38100Y26670
X27940Y33020
X30480Y34290
X36830Y66040
X36830Y68580
X41910Y24130
X40640Y27940
X45339Y51689
X57277Y42291
X34290Y29210
X35560Y30480
X43180Y26670
X36830Y39370
X26670Y44450
X32004Y66040
X35560Y67310
X34544Y65913
X40640Y39370
X36830Y31750
X39370Y30480
X46609Y35941
X45339Y34544
X29210Y66040
X33020Y66040
X46736Y107442
X36830Y27940
T12
X13970Y80010
X33020Y72390
X34290Y73660
M30