M48
;GenerationSoftware,Autodesk,EAGLE,9.1.3*%
;CreationDate,2018-09-06T20:15:36Z*%
FMAT,2
ICI,OFF
METRIC,TZ,000.000
T12C0.300
T11C0.350
T10C0.500
T9C0.750
T8C0.800
T7C1.000
T6C1.016
T5C1.050
T4C1.200
T3C1.600
T2C1.800
T1C2.000
%
G90
M71
T1
X27684Y80613
X48384Y80613
X48384Y103913
X27684Y103913
T2
X38258Y47737
X60255Y35037
X18029Y33020
X48825Y15240
T3
X88900Y85907
X88900Y37664
X88900Y46664
X69850Y66476
X69850Y57476
X107950Y57349
X107950Y66349
X88900Y76907
T4
X114200Y59349
X101700Y59349
X114200Y64349
X101700Y64349
X95150Y78907
X82650Y78907
X95150Y83907
X63600Y64476
X76100Y64476
X63600Y59476
X76100Y59476
X82650Y44664
X95150Y44664
X82650Y39664
X95150Y39664
X82650Y83907
T5
X12626Y90096
T6
X27305Y8128
X62230Y91440
X59690Y91440
X57150Y91440
X102235Y86233
X102235Y83693
X104775Y83693
X104775Y86233
T7
X34184Y104213
X36724Y104213
X39264Y104213
X41804Y104213
T8
X88900Y74657
X88900Y35414
X88900Y48914
X69850Y55226
X69850Y68726
X107950Y55099
X107950Y68599
X88900Y88157
T9
X15313Y92783
T10
X17780Y87630
X57150Y106680
X59690Y99060
X74168Y87884
X42037Y106807
X50800Y109220
X50800Y106680
T11
X46990Y49911
X38100Y39370
X41910Y36830
X55118Y43688
X31750Y68580
X43180Y38100
X38100Y26670
X27940Y33020
X30480Y34290
X36830Y66040
X36830Y68580
X41910Y24130
X40640Y27940
X45339Y51689
X57277Y42291
X34290Y29210
X35560Y30480
X43180Y26670
X36830Y39370
X26670Y44450
X32004Y66040
X35560Y67310
X34544Y65913
X40640Y39370
X36830Y31750
X39370Y30480
X46609Y35941
X45339Y34544
X29210Y66040
X33020Y66040
X46736Y107442
X36830Y27940
T12
X13970Y80010
X33020Y72390
X34290Y73660
M30