G04 EAGLE Gerber X2 export*
%TF.Part,Single*%
%TF.FileFunction,Soldermask,Top,1*%
%TF.FilePolarity,Negative*%
%TF.GenerationSoftware,Autodesk,EAGLE,9.1.3*%
%TF.CreationDate,2018-09-06T21:21:55Z*%
G75*
%MOMM*%
%FSLAX34Y34*%
%LPD*%
%AMOC8*
5,1,8,0,0,1.08239X$1,22.5*%
G01*
%ADD10C,1.803200*%
%ADD11C,2.082800*%
%ADD12R,2.053200X1.303200*%
%ADD13R,2.103200X2.203200*%
%ADD14C,0.953200*%
%ADD15C,1.253200*%
%ADD16R,1.700000X2.600000*%
%ADD17R,0.950000X0.550000*%
%ADD18C,1.981200*%
%ADD19C,2.203200*%
%ADD20R,2.743200X1.727200*%
%ADD21R,3.251200X1.727200*%
%ADD22C,2.003200*%

G36*
X535179Y63890D02*
X535179Y63890D01*
X535205Y63885D01*
X535225Y63899D01*
X535249Y63904D01*
X535264Y63926D01*
X535285Y63942D01*
X535289Y63966D01*
X535302Y63986D01*
X535297Y64015D01*
X535300Y64039D01*
X535289Y64056D01*
X535285Y64076D01*
X525167Y80011D01*
X534777Y95437D01*
X534781Y95460D01*
X534794Y95480D01*
X534788Y95507D01*
X534793Y95535D01*
X534778Y95553D01*
X534774Y95576D01*
X534750Y95591D01*
X534733Y95613D01*
X534710Y95616D01*
X534690Y95629D01*
X534661Y95622D01*
X534636Y95625D01*
X534620Y95614D01*
X534601Y95610D01*
X519429Y85748D01*
X504003Y95357D01*
X503980Y95361D01*
X503962Y95374D01*
X503934Y95368D01*
X503905Y95373D01*
X503887Y95359D01*
X503865Y95354D01*
X503850Y95330D01*
X503827Y95313D01*
X503824Y95291D01*
X503812Y95272D01*
X503818Y95241D01*
X503815Y95216D01*
X503826Y95201D01*
X503829Y95182D01*
X513439Y80009D01*
X503828Y64328D01*
X503825Y64305D01*
X503812Y64286D01*
X503818Y64258D01*
X503814Y64231D01*
X503828Y64212D01*
X503833Y64189D01*
X503857Y64175D01*
X503874Y64152D01*
X503897Y64150D01*
X503916Y64137D01*
X503946Y64144D01*
X503971Y64141D01*
X503987Y64152D01*
X504005Y64156D01*
X519430Y74271D01*
X535108Y63903D01*
X535132Y63898D01*
X535152Y63884D01*
X535179Y63890D01*
G37*
G36*
X951503Y833128D02*
X951503Y833128D01*
X951592Y833126D01*
X952782Y833283D01*
X952830Y833298D01*
X952920Y833317D01*
X954045Y833735D01*
X954089Y833761D01*
X954172Y833799D01*
X955176Y834457D01*
X955213Y834492D01*
X955286Y834548D01*
X956118Y835412D01*
X956146Y835454D01*
X956205Y835525D01*
X956824Y836553D01*
X956842Y836601D01*
X956883Y836682D01*
X957258Y837823D01*
X957265Y837873D01*
X957287Y837962D01*
X957399Y839157D01*
X957394Y839207D01*
X957396Y839296D01*
X957249Y840447D01*
X957234Y840495D01*
X957216Y840585D01*
X956817Y841675D01*
X956791Y841718D01*
X956753Y841802D01*
X956121Y842775D01*
X956087Y842812D01*
X956031Y842885D01*
X955199Y843693D01*
X955157Y843722D01*
X955086Y843780D01*
X954095Y844383D01*
X954048Y844401D01*
X953966Y844443D01*
X952865Y844810D01*
X952815Y844817D01*
X952726Y844840D01*
X951571Y844953D01*
X951521Y844949D01*
X951425Y844950D01*
X950227Y844789D01*
X950179Y844774D01*
X950089Y844755D01*
X948957Y844331D01*
X948913Y844306D01*
X948830Y844267D01*
X947820Y843602D01*
X947784Y843567D01*
X947711Y843511D01*
X946875Y842639D01*
X946847Y842597D01*
X946788Y842526D01*
X946167Y841489D01*
X946149Y841442D01*
X946108Y841360D01*
X945733Y840210D01*
X945726Y840160D01*
X945704Y840071D01*
X945595Y838867D01*
X945599Y838817D01*
X945598Y838725D01*
X945753Y837577D01*
X945768Y837529D01*
X945787Y837440D01*
X946194Y836356D01*
X946220Y836312D01*
X946258Y836229D01*
X946896Y835263D01*
X946930Y835226D01*
X946987Y835154D01*
X947823Y834353D01*
X947865Y834325D01*
X947936Y834267D01*
X948930Y833673D01*
X948977Y833655D01*
X949059Y833614D01*
X950160Y833256D01*
X950210Y833249D01*
X950299Y833227D01*
X951452Y833123D01*
X951503Y833128D01*
G37*
G36*
X826484Y833102D02*
X826484Y833102D01*
X826574Y833101D01*
X827764Y833258D01*
X827812Y833273D01*
X827901Y833292D01*
X829027Y833710D01*
X829070Y833736D01*
X829153Y833774D01*
X830158Y834432D01*
X830194Y834466D01*
X830267Y834522D01*
X831099Y835387D01*
X831127Y835429D01*
X831186Y835500D01*
X831805Y836528D01*
X831823Y836575D01*
X831864Y836657D01*
X832239Y837797D01*
X832246Y837847D01*
X832268Y837936D01*
X832380Y839132D01*
X832376Y839182D01*
X832378Y839271D01*
X832231Y840422D01*
X832216Y840470D01*
X832197Y840560D01*
X831798Y841649D01*
X831772Y841693D01*
X831734Y841777D01*
X831102Y842750D01*
X831068Y842787D01*
X831012Y842860D01*
X830180Y843668D01*
X830138Y843696D01*
X830067Y843755D01*
X829076Y844358D01*
X829029Y844376D01*
X828947Y844418D01*
X827846Y844785D01*
X827796Y844792D01*
X827707Y844814D01*
X826552Y844927D01*
X826502Y844923D01*
X826406Y844925D01*
X825208Y844764D01*
X825160Y844748D01*
X825070Y844729D01*
X823938Y844306D01*
X823895Y844280D01*
X823811Y844242D01*
X822802Y843577D01*
X822765Y843542D01*
X822692Y843486D01*
X821856Y842613D01*
X821828Y842571D01*
X821770Y842500D01*
X821148Y841463D01*
X821130Y841416D01*
X821089Y841334D01*
X820714Y840185D01*
X820707Y840135D01*
X820686Y840046D01*
X820576Y838842D01*
X820580Y838791D01*
X820579Y838699D01*
X820734Y837552D01*
X820749Y837504D01*
X820769Y837414D01*
X821175Y836330D01*
X821201Y836287D01*
X821239Y836204D01*
X821877Y835237D01*
X821912Y835201D01*
X821968Y835128D01*
X822804Y834328D01*
X822847Y834300D01*
X822917Y834242D01*
X823911Y833648D01*
X823958Y833630D01*
X824040Y833589D01*
X825141Y833231D01*
X825191Y833224D01*
X825280Y833202D01*
X826434Y833098D01*
X826484Y833102D01*
G37*
G36*
X826458Y783191D02*
X826458Y783191D01*
X826548Y783190D01*
X827738Y783347D01*
X827786Y783362D01*
X827876Y783381D01*
X829001Y783799D01*
X829045Y783825D01*
X829128Y783863D01*
X830132Y784521D01*
X830169Y784555D01*
X830241Y784611D01*
X831074Y785476D01*
X831102Y785518D01*
X831160Y785589D01*
X831780Y786617D01*
X831798Y786664D01*
X831839Y786746D01*
X832214Y787886D01*
X832221Y787936D01*
X832243Y788025D01*
X832355Y789221D01*
X832350Y789271D01*
X832352Y789360D01*
X832205Y790511D01*
X832190Y790559D01*
X832172Y790649D01*
X831772Y791738D01*
X831747Y791782D01*
X831709Y791866D01*
X831077Y792839D01*
X831042Y792876D01*
X830987Y792949D01*
X830154Y793757D01*
X830112Y793785D01*
X830042Y793844D01*
X829050Y794447D01*
X829003Y794465D01*
X828922Y794507D01*
X827821Y794874D01*
X827771Y794881D01*
X827682Y794903D01*
X826527Y795016D01*
X826477Y795012D01*
X826381Y795014D01*
X825183Y794853D01*
X825135Y794837D01*
X825045Y794818D01*
X823913Y794395D01*
X823869Y794369D01*
X823786Y794331D01*
X822776Y793666D01*
X822739Y793631D01*
X822667Y793575D01*
X821830Y792702D01*
X821803Y792660D01*
X821744Y792589D01*
X821123Y791552D01*
X821105Y791505D01*
X821064Y791423D01*
X820689Y790274D01*
X820682Y790224D01*
X820660Y790135D01*
X820550Y788931D01*
X820555Y788880D01*
X820553Y788788D01*
X820709Y787641D01*
X820724Y787593D01*
X820743Y787503D01*
X821150Y786419D01*
X821175Y786376D01*
X821214Y786293D01*
X821852Y785326D01*
X821886Y785290D01*
X821942Y785217D01*
X822779Y784417D01*
X822821Y784389D01*
X822892Y784331D01*
X823886Y783737D01*
X823933Y783719D01*
X824015Y783678D01*
X825116Y783320D01*
X825166Y783313D01*
X825255Y783291D01*
X826408Y783187D01*
X826458Y783191D01*
G37*
G36*
X951553Y783140D02*
X951553Y783140D01*
X951643Y783139D01*
X952833Y783296D01*
X952881Y783311D01*
X952971Y783330D01*
X954096Y783748D01*
X954140Y783774D01*
X954223Y783812D01*
X955227Y784470D01*
X955264Y784504D01*
X955336Y784560D01*
X956169Y785425D01*
X956197Y785467D01*
X956255Y785538D01*
X956875Y786566D01*
X956893Y786613D01*
X956934Y786695D01*
X957309Y787836D01*
X957316Y787886D01*
X957338Y787975D01*
X957450Y789170D01*
X957445Y789220D01*
X957447Y789309D01*
X957300Y790460D01*
X957285Y790508D01*
X957267Y790598D01*
X956867Y791688D01*
X956842Y791731D01*
X956804Y791815D01*
X956172Y792788D01*
X956137Y792825D01*
X956082Y792898D01*
X955249Y793706D01*
X955207Y793734D01*
X955137Y793793D01*
X954145Y794396D01*
X954098Y794414D01*
X954017Y794456D01*
X952916Y794823D01*
X952866Y794830D01*
X952777Y794852D01*
X951622Y794965D01*
X951572Y794961D01*
X951476Y794963D01*
X950278Y794802D01*
X950230Y794787D01*
X950140Y794768D01*
X949008Y794344D01*
X948964Y794318D01*
X948881Y794280D01*
X947871Y793615D01*
X947834Y793580D01*
X947762Y793524D01*
X946925Y792651D01*
X946898Y792609D01*
X946839Y792539D01*
X946218Y791502D01*
X946200Y791454D01*
X946159Y791372D01*
X945784Y790223D01*
X945777Y790173D01*
X945755Y790084D01*
X945645Y788880D01*
X945650Y788830D01*
X945648Y788737D01*
X945804Y787590D01*
X945819Y787542D01*
X945838Y787452D01*
X946245Y786368D01*
X946270Y786325D01*
X946309Y786242D01*
X946947Y785275D01*
X946981Y785239D01*
X947037Y785166D01*
X947874Y784366D01*
X947916Y784338D01*
X947987Y784280D01*
X948981Y783686D01*
X949028Y783668D01*
X949110Y783627D01*
X950211Y783269D01*
X950261Y783262D01*
X950350Y783240D01*
X951503Y783136D01*
X951553Y783140D01*
G37*
G36*
X1016958Y587611D02*
X1016958Y587611D01*
X1017048Y587610D01*
X1018238Y587767D01*
X1018286Y587782D01*
X1018376Y587801D01*
X1019501Y588219D01*
X1019545Y588245D01*
X1019628Y588283D01*
X1020632Y588941D01*
X1020669Y588975D01*
X1020741Y589031D01*
X1021574Y589896D01*
X1021602Y589938D01*
X1021660Y590009D01*
X1022280Y591037D01*
X1022298Y591084D01*
X1022339Y591166D01*
X1022714Y592306D01*
X1022721Y592356D01*
X1022743Y592445D01*
X1022855Y593641D01*
X1022850Y593691D01*
X1022852Y593780D01*
X1022705Y594931D01*
X1022690Y594979D01*
X1022672Y595069D01*
X1022272Y596158D01*
X1022247Y596202D01*
X1022209Y596286D01*
X1021577Y597259D01*
X1021542Y597296D01*
X1021487Y597369D01*
X1020654Y598177D01*
X1020612Y598205D01*
X1020542Y598264D01*
X1019550Y598867D01*
X1019503Y598885D01*
X1019422Y598927D01*
X1018321Y599294D01*
X1018271Y599301D01*
X1018182Y599323D01*
X1017027Y599436D01*
X1016977Y599432D01*
X1016881Y599434D01*
X1015683Y599273D01*
X1015635Y599257D01*
X1015545Y599238D01*
X1014413Y598815D01*
X1014369Y598789D01*
X1014286Y598751D01*
X1013276Y598086D01*
X1013239Y598051D01*
X1013167Y597995D01*
X1012330Y597122D01*
X1012303Y597080D01*
X1012244Y597009D01*
X1011623Y595972D01*
X1011605Y595925D01*
X1011564Y595843D01*
X1011189Y594694D01*
X1011182Y594644D01*
X1011160Y594555D01*
X1011050Y593351D01*
X1011055Y593300D01*
X1011053Y593208D01*
X1011209Y592061D01*
X1011224Y592013D01*
X1011243Y591923D01*
X1011650Y590839D01*
X1011675Y590796D01*
X1011714Y590713D01*
X1012352Y589746D01*
X1012386Y589710D01*
X1012442Y589637D01*
X1013279Y588837D01*
X1013321Y588809D01*
X1013392Y588751D01*
X1014386Y588157D01*
X1014433Y588139D01*
X1014515Y588098D01*
X1015616Y587740D01*
X1015666Y587733D01*
X1015755Y587711D01*
X1016908Y587607D01*
X1016958Y587611D01*
G37*
G36*
X951553Y390710D02*
X951553Y390710D01*
X951643Y390709D01*
X952833Y390866D01*
X952881Y390881D01*
X952971Y390900D01*
X954096Y391318D01*
X954140Y391344D01*
X954223Y391382D01*
X955227Y392040D01*
X955264Y392074D01*
X955336Y392130D01*
X956169Y392995D01*
X956197Y393037D01*
X956255Y393108D01*
X956875Y394136D01*
X956893Y394183D01*
X956934Y394265D01*
X957309Y395406D01*
X957316Y395456D01*
X957338Y395545D01*
X957450Y396740D01*
X957445Y396790D01*
X957447Y396879D01*
X957300Y398030D01*
X957285Y398078D01*
X957267Y398168D01*
X956867Y399258D01*
X956842Y399301D01*
X956804Y399385D01*
X956172Y400358D01*
X956137Y400395D01*
X956082Y400468D01*
X955249Y401276D01*
X955207Y401304D01*
X955137Y401363D01*
X954145Y401966D01*
X954098Y401984D01*
X954017Y402026D01*
X952916Y402393D01*
X952866Y402400D01*
X952777Y402422D01*
X951622Y402535D01*
X951572Y402531D01*
X951476Y402533D01*
X950278Y402372D01*
X950230Y402357D01*
X950140Y402338D01*
X949008Y401914D01*
X948964Y401888D01*
X948881Y401850D01*
X947871Y401185D01*
X947834Y401150D01*
X947762Y401094D01*
X946925Y400221D01*
X946898Y400179D01*
X946839Y400109D01*
X946218Y399072D01*
X946200Y399024D01*
X946159Y398942D01*
X945784Y397793D01*
X945777Y397743D01*
X945755Y397654D01*
X945645Y396450D01*
X945650Y396400D01*
X945648Y396307D01*
X945804Y395160D01*
X945819Y395112D01*
X945838Y395022D01*
X946245Y393938D01*
X946270Y393895D01*
X946309Y393812D01*
X946947Y392845D01*
X946981Y392809D01*
X947037Y392736D01*
X947874Y391936D01*
X947916Y391908D01*
X947987Y391850D01*
X948981Y391256D01*
X949028Y391238D01*
X949110Y391197D01*
X950211Y390839D01*
X950261Y390832D01*
X950350Y390810D01*
X951503Y390706D01*
X951553Y390710D01*
G37*
G36*
X826458Y390761D02*
X826458Y390761D01*
X826548Y390760D01*
X827738Y390917D01*
X827786Y390932D01*
X827876Y390951D01*
X829001Y391369D01*
X829045Y391395D01*
X829128Y391433D01*
X830132Y392091D01*
X830169Y392125D01*
X830241Y392181D01*
X831074Y393046D01*
X831102Y393088D01*
X831160Y393159D01*
X831780Y394187D01*
X831798Y394234D01*
X831839Y394316D01*
X832214Y395456D01*
X832221Y395506D01*
X832243Y395595D01*
X832355Y396791D01*
X832350Y396841D01*
X832352Y396930D01*
X832205Y398081D01*
X832190Y398129D01*
X832172Y398219D01*
X831772Y399308D01*
X831747Y399352D01*
X831709Y399436D01*
X831077Y400409D01*
X831042Y400446D01*
X830987Y400519D01*
X830154Y401327D01*
X830112Y401355D01*
X830042Y401414D01*
X829050Y402017D01*
X829003Y402035D01*
X828922Y402077D01*
X827821Y402444D01*
X827771Y402451D01*
X827682Y402473D01*
X826527Y402586D01*
X826477Y402582D01*
X826381Y402584D01*
X825183Y402423D01*
X825135Y402407D01*
X825045Y402388D01*
X823913Y401965D01*
X823869Y401939D01*
X823786Y401901D01*
X822776Y401236D01*
X822739Y401201D01*
X822667Y401145D01*
X821830Y400272D01*
X821803Y400230D01*
X821744Y400159D01*
X821123Y399122D01*
X821105Y399075D01*
X821064Y398993D01*
X820689Y397844D01*
X820682Y397794D01*
X820660Y397705D01*
X820550Y396501D01*
X820555Y396450D01*
X820553Y396358D01*
X820709Y395211D01*
X820724Y395163D01*
X820743Y395073D01*
X821150Y393989D01*
X821175Y393946D01*
X821214Y393863D01*
X821852Y392896D01*
X821886Y392860D01*
X821942Y392787D01*
X822779Y391987D01*
X822821Y391959D01*
X822892Y391901D01*
X823886Y391307D01*
X823933Y391289D01*
X824015Y391248D01*
X825116Y390890D01*
X825166Y390883D01*
X825255Y390861D01*
X826408Y390757D01*
X826458Y390761D01*
G37*
G36*
X761003Y638818D02*
X761003Y638818D01*
X761092Y638816D01*
X762282Y638973D01*
X762330Y638988D01*
X762420Y639007D01*
X763545Y639425D01*
X763589Y639451D01*
X763672Y639489D01*
X764676Y640147D01*
X764713Y640182D01*
X764786Y640238D01*
X765618Y641102D01*
X765646Y641144D01*
X765705Y641215D01*
X766324Y642243D01*
X766342Y642291D01*
X766383Y642372D01*
X766758Y643513D01*
X766765Y643563D01*
X766787Y643652D01*
X766899Y644847D01*
X766894Y644897D01*
X766896Y644986D01*
X766749Y646137D01*
X766734Y646185D01*
X766716Y646275D01*
X766317Y647365D01*
X766291Y647408D01*
X766253Y647492D01*
X765621Y648465D01*
X765587Y648502D01*
X765531Y648575D01*
X764699Y649383D01*
X764657Y649412D01*
X764586Y649470D01*
X763595Y650073D01*
X763548Y650091D01*
X763466Y650133D01*
X762365Y650500D01*
X762315Y650507D01*
X762226Y650530D01*
X761071Y650643D01*
X761021Y650639D01*
X760925Y650640D01*
X759727Y650479D01*
X759679Y650464D01*
X759589Y650445D01*
X758457Y650021D01*
X758413Y649996D01*
X758330Y649957D01*
X757320Y649292D01*
X757284Y649257D01*
X757211Y649201D01*
X756375Y648329D01*
X756347Y648287D01*
X756288Y648216D01*
X755667Y647179D01*
X755649Y647132D01*
X755608Y647050D01*
X755233Y645900D01*
X755226Y645850D01*
X755204Y645761D01*
X755095Y644557D01*
X755099Y644507D01*
X755098Y644415D01*
X755253Y643267D01*
X755268Y643219D01*
X755287Y643130D01*
X755694Y642046D01*
X755720Y642002D01*
X755758Y641919D01*
X756396Y640953D01*
X756430Y640916D01*
X756487Y640844D01*
X757323Y640043D01*
X757365Y640015D01*
X757436Y639957D01*
X758430Y639363D01*
X758477Y639345D01*
X758559Y639304D01*
X759660Y638946D01*
X759710Y638939D01*
X759799Y638917D01*
X760952Y638813D01*
X761003Y638818D01*
G37*
G36*
X635984Y638792D02*
X635984Y638792D01*
X636074Y638791D01*
X637264Y638948D01*
X637312Y638963D01*
X637401Y638982D01*
X638527Y639400D01*
X638570Y639426D01*
X638653Y639464D01*
X639658Y640122D01*
X639694Y640156D01*
X639767Y640212D01*
X640599Y641077D01*
X640627Y641119D01*
X640686Y641190D01*
X641305Y642218D01*
X641323Y642265D01*
X641364Y642347D01*
X641739Y643487D01*
X641746Y643537D01*
X641768Y643626D01*
X641880Y644822D01*
X641876Y644872D01*
X641878Y644961D01*
X641731Y646112D01*
X641716Y646160D01*
X641697Y646250D01*
X641298Y647339D01*
X641272Y647383D01*
X641234Y647467D01*
X640602Y648440D01*
X640568Y648477D01*
X640512Y648550D01*
X639680Y649358D01*
X639638Y649386D01*
X639567Y649445D01*
X638576Y650048D01*
X638529Y650066D01*
X638447Y650108D01*
X637346Y650475D01*
X637296Y650482D01*
X637207Y650504D01*
X636052Y650617D01*
X636002Y650613D01*
X635906Y650615D01*
X634708Y650454D01*
X634660Y650438D01*
X634570Y650419D01*
X633438Y649996D01*
X633395Y649970D01*
X633311Y649932D01*
X632302Y649267D01*
X632265Y649232D01*
X632192Y649176D01*
X631356Y648303D01*
X631328Y648261D01*
X631270Y648190D01*
X630648Y647153D01*
X630630Y647106D01*
X630589Y647024D01*
X630214Y645875D01*
X630207Y645825D01*
X630186Y645736D01*
X630076Y644532D01*
X630080Y644481D01*
X630079Y644389D01*
X630234Y643242D01*
X630249Y643194D01*
X630269Y643104D01*
X630675Y642020D01*
X630701Y641977D01*
X630739Y641894D01*
X631377Y640927D01*
X631412Y640891D01*
X631468Y640818D01*
X632304Y640018D01*
X632347Y639990D01*
X632417Y639932D01*
X633411Y639338D01*
X633458Y639320D01*
X633540Y639279D01*
X634641Y638921D01*
X634691Y638914D01*
X634780Y638892D01*
X635934Y638788D01*
X635984Y638792D01*
G37*
G36*
X1142003Y637548D02*
X1142003Y637548D01*
X1142092Y637546D01*
X1143282Y637703D01*
X1143330Y637718D01*
X1143420Y637737D01*
X1144545Y638155D01*
X1144589Y638181D01*
X1144672Y638219D01*
X1145676Y638877D01*
X1145713Y638912D01*
X1145786Y638968D01*
X1146618Y639832D01*
X1146646Y639874D01*
X1146705Y639945D01*
X1147324Y640973D01*
X1147342Y641021D01*
X1147383Y641102D01*
X1147758Y642243D01*
X1147765Y642293D01*
X1147787Y642382D01*
X1147899Y643577D01*
X1147894Y643627D01*
X1147896Y643716D01*
X1147749Y644867D01*
X1147734Y644915D01*
X1147716Y645005D01*
X1147317Y646095D01*
X1147291Y646138D01*
X1147253Y646222D01*
X1146621Y647195D01*
X1146587Y647232D01*
X1146531Y647305D01*
X1145699Y648113D01*
X1145657Y648142D01*
X1145586Y648200D01*
X1144595Y648803D01*
X1144548Y648821D01*
X1144466Y648863D01*
X1143365Y649230D01*
X1143315Y649237D01*
X1143226Y649260D01*
X1142071Y649373D01*
X1142021Y649369D01*
X1141925Y649370D01*
X1140727Y649209D01*
X1140679Y649194D01*
X1140589Y649175D01*
X1139457Y648751D01*
X1139413Y648726D01*
X1139330Y648687D01*
X1138320Y648022D01*
X1138284Y647987D01*
X1138211Y647931D01*
X1137375Y647059D01*
X1137347Y647017D01*
X1137288Y646946D01*
X1136667Y645909D01*
X1136649Y645862D01*
X1136608Y645780D01*
X1136233Y644630D01*
X1136226Y644580D01*
X1136204Y644491D01*
X1136095Y643287D01*
X1136099Y643237D01*
X1136098Y643145D01*
X1136253Y641997D01*
X1136268Y641949D01*
X1136287Y641860D01*
X1136694Y640776D01*
X1136720Y640732D01*
X1136758Y640649D01*
X1137396Y639683D01*
X1137430Y639646D01*
X1137487Y639574D01*
X1138323Y638773D01*
X1138365Y638745D01*
X1138436Y638687D01*
X1139430Y638093D01*
X1139477Y638075D01*
X1139559Y638034D01*
X1140660Y637676D01*
X1140710Y637669D01*
X1140799Y637647D01*
X1141952Y637543D01*
X1142003Y637548D01*
G37*
G36*
X1016984Y637522D02*
X1016984Y637522D01*
X1017074Y637521D01*
X1018264Y637678D01*
X1018312Y637693D01*
X1018401Y637712D01*
X1019527Y638130D01*
X1019570Y638156D01*
X1019653Y638194D01*
X1020658Y638852D01*
X1020694Y638886D01*
X1020767Y638942D01*
X1021599Y639807D01*
X1021627Y639849D01*
X1021686Y639920D01*
X1022305Y640948D01*
X1022323Y640995D01*
X1022364Y641077D01*
X1022739Y642217D01*
X1022746Y642267D01*
X1022768Y642356D01*
X1022880Y643552D01*
X1022876Y643602D01*
X1022878Y643691D01*
X1022731Y644842D01*
X1022716Y644890D01*
X1022697Y644980D01*
X1022298Y646069D01*
X1022272Y646113D01*
X1022234Y646197D01*
X1021602Y647170D01*
X1021568Y647207D01*
X1021512Y647280D01*
X1020680Y648088D01*
X1020638Y648116D01*
X1020567Y648175D01*
X1019576Y648778D01*
X1019529Y648796D01*
X1019447Y648838D01*
X1018346Y649205D01*
X1018296Y649212D01*
X1018207Y649234D01*
X1017052Y649347D01*
X1017002Y649343D01*
X1016906Y649345D01*
X1015708Y649184D01*
X1015660Y649168D01*
X1015570Y649149D01*
X1014438Y648726D01*
X1014395Y648700D01*
X1014311Y648662D01*
X1013302Y647997D01*
X1013265Y647962D01*
X1013192Y647906D01*
X1012356Y647033D01*
X1012328Y646991D01*
X1012270Y646920D01*
X1011648Y645883D01*
X1011630Y645836D01*
X1011589Y645754D01*
X1011214Y644605D01*
X1011207Y644555D01*
X1011186Y644466D01*
X1011076Y643262D01*
X1011080Y643211D01*
X1011079Y643119D01*
X1011234Y641972D01*
X1011249Y641924D01*
X1011269Y641834D01*
X1011675Y640750D01*
X1011701Y640707D01*
X1011739Y640624D01*
X1012377Y639657D01*
X1012412Y639621D01*
X1012468Y639548D01*
X1013304Y638748D01*
X1013347Y638720D01*
X1013417Y638662D01*
X1014411Y638068D01*
X1014458Y638050D01*
X1014540Y638009D01*
X1015641Y637651D01*
X1015691Y637644D01*
X1015780Y637622D01*
X1016934Y637518D01*
X1016984Y637522D01*
G37*
G36*
X635958Y588881D02*
X635958Y588881D01*
X636048Y588880D01*
X637238Y589037D01*
X637286Y589052D01*
X637376Y589071D01*
X638501Y589489D01*
X638545Y589515D01*
X638628Y589553D01*
X639632Y590211D01*
X639669Y590245D01*
X639741Y590301D01*
X640574Y591166D01*
X640602Y591208D01*
X640660Y591279D01*
X641280Y592307D01*
X641298Y592354D01*
X641339Y592436D01*
X641714Y593576D01*
X641721Y593626D01*
X641743Y593715D01*
X641855Y594911D01*
X641850Y594961D01*
X641852Y595050D01*
X641705Y596201D01*
X641690Y596249D01*
X641672Y596339D01*
X641272Y597428D01*
X641247Y597472D01*
X641209Y597556D01*
X640577Y598529D01*
X640542Y598566D01*
X640487Y598639D01*
X639654Y599447D01*
X639612Y599475D01*
X639542Y599534D01*
X638550Y600137D01*
X638503Y600155D01*
X638422Y600197D01*
X637321Y600564D01*
X637271Y600571D01*
X637182Y600593D01*
X636027Y600706D01*
X635977Y600702D01*
X635881Y600704D01*
X634683Y600543D01*
X634635Y600527D01*
X634545Y600508D01*
X633413Y600085D01*
X633369Y600059D01*
X633286Y600021D01*
X632276Y599356D01*
X632239Y599321D01*
X632167Y599265D01*
X631330Y598392D01*
X631303Y598350D01*
X631244Y598279D01*
X630623Y597242D01*
X630605Y597195D01*
X630564Y597113D01*
X630189Y595964D01*
X630182Y595914D01*
X630160Y595825D01*
X630050Y594621D01*
X630055Y594570D01*
X630053Y594478D01*
X630209Y593331D01*
X630224Y593283D01*
X630243Y593193D01*
X630650Y592109D01*
X630675Y592066D01*
X630714Y591983D01*
X631352Y591016D01*
X631386Y590980D01*
X631442Y590907D01*
X632279Y590107D01*
X632321Y590079D01*
X632392Y590021D01*
X633386Y589427D01*
X633433Y589409D01*
X633515Y589368D01*
X634616Y589010D01*
X634666Y589003D01*
X634755Y588981D01*
X635908Y588877D01*
X635958Y588881D01*
G37*
G36*
X761053Y588830D02*
X761053Y588830D01*
X761143Y588829D01*
X762333Y588986D01*
X762381Y589001D01*
X762471Y589020D01*
X763596Y589438D01*
X763640Y589464D01*
X763723Y589502D01*
X764727Y590160D01*
X764764Y590194D01*
X764836Y590250D01*
X765669Y591115D01*
X765697Y591157D01*
X765755Y591228D01*
X766375Y592256D01*
X766393Y592303D01*
X766434Y592385D01*
X766809Y593526D01*
X766816Y593576D01*
X766838Y593665D01*
X766950Y594860D01*
X766945Y594910D01*
X766947Y594999D01*
X766800Y596150D01*
X766785Y596198D01*
X766767Y596288D01*
X766367Y597378D01*
X766342Y597421D01*
X766304Y597505D01*
X765672Y598478D01*
X765637Y598515D01*
X765582Y598588D01*
X764749Y599396D01*
X764707Y599424D01*
X764637Y599483D01*
X763645Y600086D01*
X763598Y600104D01*
X763517Y600146D01*
X762416Y600513D01*
X762366Y600520D01*
X762277Y600542D01*
X761122Y600655D01*
X761072Y600651D01*
X760976Y600653D01*
X759778Y600492D01*
X759730Y600477D01*
X759640Y600458D01*
X758508Y600034D01*
X758464Y600008D01*
X758381Y599970D01*
X757371Y599305D01*
X757334Y599270D01*
X757262Y599214D01*
X756425Y598341D01*
X756398Y598299D01*
X756339Y598229D01*
X755718Y597192D01*
X755700Y597144D01*
X755659Y597062D01*
X755284Y595913D01*
X755277Y595863D01*
X755255Y595774D01*
X755145Y594570D01*
X755150Y594520D01*
X755148Y594427D01*
X755304Y593280D01*
X755319Y593232D01*
X755338Y593142D01*
X755745Y592058D01*
X755770Y592015D01*
X755809Y591932D01*
X756447Y590965D01*
X756481Y590929D01*
X756537Y590856D01*
X757374Y590056D01*
X757416Y590028D01*
X757487Y589970D01*
X758481Y589376D01*
X758528Y589358D01*
X758610Y589317D01*
X759711Y588959D01*
X759761Y588952D01*
X759850Y588930D01*
X761003Y588826D01*
X761053Y588830D01*
G37*
G36*
X826484Y440672D02*
X826484Y440672D01*
X826574Y440671D01*
X827764Y440828D01*
X827812Y440843D01*
X827901Y440862D01*
X829027Y441280D01*
X829070Y441306D01*
X829153Y441344D01*
X830158Y442002D01*
X830194Y442036D01*
X830267Y442092D01*
X831099Y442957D01*
X831127Y442999D01*
X831186Y443070D01*
X831805Y444098D01*
X831823Y444145D01*
X831864Y444227D01*
X832239Y445367D01*
X832246Y445417D01*
X832268Y445506D01*
X832380Y446702D01*
X832376Y446752D01*
X832378Y446841D01*
X832231Y447992D01*
X832216Y448040D01*
X832197Y448130D01*
X831798Y449219D01*
X831772Y449263D01*
X831734Y449347D01*
X831102Y450320D01*
X831068Y450357D01*
X831012Y450430D01*
X830180Y451238D01*
X830138Y451266D01*
X830067Y451325D01*
X829076Y451928D01*
X829029Y451946D01*
X828947Y451988D01*
X827846Y452355D01*
X827796Y452362D01*
X827707Y452384D01*
X826552Y452497D01*
X826502Y452493D01*
X826406Y452495D01*
X825208Y452334D01*
X825160Y452318D01*
X825070Y452299D01*
X823938Y451876D01*
X823895Y451850D01*
X823811Y451812D01*
X822802Y451147D01*
X822765Y451112D01*
X822692Y451056D01*
X821856Y450183D01*
X821828Y450141D01*
X821770Y450070D01*
X821148Y449033D01*
X821130Y448986D01*
X821089Y448904D01*
X820714Y447755D01*
X820707Y447705D01*
X820686Y447616D01*
X820576Y446412D01*
X820580Y446361D01*
X820579Y446269D01*
X820734Y445122D01*
X820749Y445074D01*
X820769Y444984D01*
X821175Y443900D01*
X821201Y443857D01*
X821239Y443774D01*
X821877Y442807D01*
X821912Y442771D01*
X821968Y442698D01*
X822804Y441898D01*
X822847Y441870D01*
X822917Y441812D01*
X823911Y441218D01*
X823958Y441200D01*
X824040Y441159D01*
X825141Y440801D01*
X825191Y440794D01*
X825280Y440772D01*
X826434Y440668D01*
X826484Y440672D01*
G37*
G36*
X1142053Y587560D02*
X1142053Y587560D01*
X1142143Y587559D01*
X1143333Y587716D01*
X1143381Y587731D01*
X1143471Y587750D01*
X1144596Y588168D01*
X1144640Y588194D01*
X1144723Y588232D01*
X1145727Y588890D01*
X1145764Y588924D01*
X1145836Y588980D01*
X1146669Y589845D01*
X1146697Y589887D01*
X1146755Y589958D01*
X1147375Y590986D01*
X1147393Y591033D01*
X1147434Y591115D01*
X1147809Y592256D01*
X1147816Y592306D01*
X1147838Y592395D01*
X1147950Y593590D01*
X1147945Y593640D01*
X1147947Y593729D01*
X1147800Y594880D01*
X1147785Y594928D01*
X1147767Y595018D01*
X1147367Y596108D01*
X1147342Y596151D01*
X1147304Y596235D01*
X1146672Y597208D01*
X1146637Y597245D01*
X1146582Y597318D01*
X1145749Y598126D01*
X1145707Y598154D01*
X1145637Y598213D01*
X1144645Y598816D01*
X1144598Y598834D01*
X1144517Y598876D01*
X1143416Y599243D01*
X1143366Y599250D01*
X1143277Y599272D01*
X1142122Y599385D01*
X1142072Y599381D01*
X1141976Y599383D01*
X1140778Y599222D01*
X1140730Y599207D01*
X1140640Y599188D01*
X1139508Y598764D01*
X1139464Y598738D01*
X1139381Y598700D01*
X1138371Y598035D01*
X1138334Y598000D01*
X1138262Y597944D01*
X1137425Y597071D01*
X1137398Y597029D01*
X1137339Y596959D01*
X1136718Y595922D01*
X1136700Y595874D01*
X1136659Y595792D01*
X1136284Y594643D01*
X1136277Y594593D01*
X1136255Y594504D01*
X1136145Y593300D01*
X1136150Y593250D01*
X1136148Y593157D01*
X1136304Y592010D01*
X1136319Y591962D01*
X1136338Y591872D01*
X1136745Y590788D01*
X1136770Y590745D01*
X1136809Y590662D01*
X1137447Y589695D01*
X1137481Y589659D01*
X1137537Y589586D01*
X1138374Y588786D01*
X1138416Y588758D01*
X1138487Y588700D01*
X1139481Y588106D01*
X1139528Y588088D01*
X1139610Y588047D01*
X1140711Y587689D01*
X1140761Y587682D01*
X1140850Y587660D01*
X1142003Y587556D01*
X1142053Y587560D01*
G37*
G36*
X951503Y440698D02*
X951503Y440698D01*
X951592Y440696D01*
X952782Y440853D01*
X952830Y440868D01*
X952920Y440887D01*
X954045Y441305D01*
X954089Y441331D01*
X954172Y441369D01*
X955176Y442027D01*
X955213Y442062D01*
X955286Y442118D01*
X956118Y442982D01*
X956146Y443024D01*
X956205Y443095D01*
X956824Y444123D01*
X956842Y444171D01*
X956883Y444252D01*
X957258Y445393D01*
X957265Y445443D01*
X957287Y445532D01*
X957399Y446727D01*
X957394Y446777D01*
X957396Y446866D01*
X957249Y448017D01*
X957234Y448065D01*
X957216Y448155D01*
X956817Y449245D01*
X956791Y449288D01*
X956753Y449372D01*
X956121Y450345D01*
X956087Y450382D01*
X956031Y450455D01*
X955199Y451263D01*
X955157Y451292D01*
X955086Y451350D01*
X954095Y451953D01*
X954048Y451971D01*
X953966Y452013D01*
X952865Y452380D01*
X952815Y452387D01*
X952726Y452410D01*
X951571Y452523D01*
X951521Y452519D01*
X951425Y452520D01*
X950227Y452359D01*
X950179Y452344D01*
X950089Y452325D01*
X948957Y451901D01*
X948913Y451876D01*
X948830Y451837D01*
X947820Y451172D01*
X947784Y451137D01*
X947711Y451081D01*
X946875Y450209D01*
X946847Y450167D01*
X946788Y450096D01*
X946167Y449059D01*
X946149Y449012D01*
X946108Y448930D01*
X945733Y447780D01*
X945726Y447730D01*
X945704Y447641D01*
X945595Y446437D01*
X945599Y446387D01*
X945598Y446295D01*
X945753Y445147D01*
X945768Y445099D01*
X945787Y445010D01*
X946194Y443926D01*
X946220Y443882D01*
X946258Y443799D01*
X946896Y442833D01*
X946930Y442796D01*
X946987Y442724D01*
X947823Y441923D01*
X947865Y441895D01*
X947936Y441837D01*
X948930Y441243D01*
X948977Y441225D01*
X949059Y441184D01*
X950160Y440826D01*
X950210Y440819D01*
X950299Y440797D01*
X951452Y440693D01*
X951503Y440698D01*
G37*
G36*
X1079491Y547073D02*
X1079491Y547073D01*
X1079571Y547070D01*
X1080306Y547153D01*
X1080354Y547167D01*
X1080444Y547184D01*
X1081142Y547429D01*
X1081186Y547453D01*
X1081270Y547490D01*
X1081896Y547884D01*
X1081934Y547918D01*
X1082007Y547972D01*
X1082530Y548495D01*
X1082559Y548536D01*
X1082619Y548606D01*
X1083012Y549232D01*
X1083031Y549279D01*
X1083037Y549290D01*
X1083042Y549297D01*
X1083045Y549306D01*
X1083074Y549360D01*
X1083318Y550058D01*
X1083326Y550108D01*
X1083333Y550136D01*
X1083336Y550143D01*
X1083336Y550145D01*
X1083349Y550196D01*
X1083432Y550931D01*
X1083429Y550981D01*
X1083431Y551085D01*
X1083318Y551940D01*
X1083305Y551982D01*
X1083275Y552100D01*
X1082946Y552896D01*
X1082921Y552934D01*
X1082863Y553039D01*
X1082338Y553723D01*
X1082305Y553753D01*
X1082221Y553840D01*
X1082127Y553912D01*
X1082127Y553913D01*
X1081537Y554365D01*
X1081497Y554386D01*
X1081394Y554448D01*
X1080597Y554778D01*
X1080553Y554787D01*
X1080437Y554821D01*
X1079583Y554933D01*
X1079551Y554932D01*
X1079406Y554931D01*
X1078646Y554817D01*
X1078598Y554801D01*
X1078509Y554780D01*
X1077793Y554500D01*
X1077750Y554474D01*
X1077668Y554434D01*
X1077033Y554001D01*
X1076997Y553966D01*
X1076925Y553908D01*
X1076402Y553345D01*
X1076375Y553303D01*
X1076318Y553231D01*
X1075933Y552566D01*
X1075916Y552518D01*
X1075876Y552436D01*
X1075650Y551702D01*
X1075644Y551652D01*
X1075640Y551635D01*
X1075628Y551599D01*
X1075628Y551584D01*
X1075623Y551562D01*
X1075566Y550796D01*
X1075571Y550747D01*
X1075573Y550640D01*
X1075714Y549823D01*
X1075729Y549781D01*
X1075763Y549665D01*
X1076111Y548912D01*
X1076137Y548875D01*
X1076200Y548772D01*
X1076730Y548134D01*
X1076765Y548106D01*
X1076852Y548022D01*
X1077530Y547544D01*
X1077571Y547525D01*
X1077676Y547467D01*
X1078455Y547180D01*
X1078499Y547173D01*
X1078616Y547144D01*
X1079442Y547069D01*
X1079491Y547073D01*
G37*
G36*
X888991Y485275D02*
X888991Y485275D01*
X889071Y485272D01*
X889806Y485355D01*
X889854Y485369D01*
X889944Y485386D01*
X890642Y485630D01*
X890686Y485655D01*
X890770Y485692D01*
X891396Y486085D01*
X891434Y486119D01*
X891507Y486174D01*
X892030Y486697D01*
X892059Y486738D01*
X892119Y486808D01*
X892512Y487434D01*
X892531Y487481D01*
X892537Y487492D01*
X892542Y487499D01*
X892545Y487508D01*
X892574Y487562D01*
X892818Y488260D01*
X892826Y488310D01*
X892833Y488338D01*
X892836Y488345D01*
X892836Y488347D01*
X892849Y488398D01*
X892932Y489133D01*
X892929Y489182D01*
X892931Y489287D01*
X892818Y490141D01*
X892805Y490184D01*
X892775Y490301D01*
X892446Y491098D01*
X892421Y491136D01*
X892363Y491241D01*
X891838Y491925D01*
X891805Y491955D01*
X891721Y492042D01*
X891627Y492114D01*
X891037Y492567D01*
X890997Y492587D01*
X890894Y492650D01*
X890097Y492979D01*
X890053Y492989D01*
X889937Y493022D01*
X889083Y493135D01*
X889051Y493133D01*
X888906Y493133D01*
X888146Y493019D01*
X888098Y493003D01*
X888009Y492982D01*
X887293Y492702D01*
X887250Y492675D01*
X887168Y492636D01*
X886533Y492203D01*
X886497Y492168D01*
X886425Y492110D01*
X885902Y491547D01*
X885875Y491505D01*
X885818Y491433D01*
X885433Y490768D01*
X885416Y490720D01*
X885376Y490638D01*
X885150Y489903D01*
X885144Y489853D01*
X885140Y489837D01*
X885128Y489801D01*
X885128Y489786D01*
X885123Y489764D01*
X885066Y488998D01*
X885071Y488949D01*
X885073Y488842D01*
X885214Y488025D01*
X885229Y487983D01*
X885263Y487867D01*
X885611Y487114D01*
X885637Y487077D01*
X885700Y486974D01*
X886230Y486336D01*
X886265Y486307D01*
X886352Y486224D01*
X887030Y485746D01*
X887071Y485727D01*
X887176Y485669D01*
X887955Y485382D01*
X887999Y485374D01*
X888116Y485346D01*
X888942Y485270D01*
X888991Y485275D01*
G37*
G36*
X698491Y548343D02*
X698491Y548343D01*
X698571Y548340D01*
X699306Y548423D01*
X699354Y548437D01*
X699444Y548454D01*
X700142Y548699D01*
X700186Y548723D01*
X700270Y548760D01*
X700896Y549154D01*
X700934Y549188D01*
X701007Y549242D01*
X701530Y549765D01*
X701559Y549806D01*
X701619Y549876D01*
X702012Y550502D01*
X702031Y550549D01*
X702037Y550560D01*
X702042Y550567D01*
X702045Y550576D01*
X702074Y550630D01*
X702318Y551328D01*
X702326Y551378D01*
X702333Y551406D01*
X702336Y551413D01*
X702336Y551415D01*
X702349Y551466D01*
X702432Y552201D01*
X702429Y552251D01*
X702431Y552355D01*
X702318Y553210D01*
X702305Y553252D01*
X702275Y553370D01*
X701946Y554166D01*
X701921Y554204D01*
X701863Y554309D01*
X701338Y554993D01*
X701305Y555023D01*
X701221Y555110D01*
X701127Y555182D01*
X701127Y555183D01*
X700537Y555635D01*
X700497Y555656D01*
X700394Y555718D01*
X699597Y556048D01*
X699553Y556057D01*
X699437Y556091D01*
X698583Y556203D01*
X698551Y556202D01*
X698406Y556201D01*
X697646Y556087D01*
X697598Y556071D01*
X697509Y556050D01*
X696793Y555770D01*
X696750Y555744D01*
X696668Y555704D01*
X696033Y555271D01*
X695997Y555236D01*
X695925Y555178D01*
X695402Y554615D01*
X695375Y554573D01*
X695318Y554501D01*
X694933Y553836D01*
X694916Y553788D01*
X694876Y553706D01*
X694650Y552972D01*
X694644Y552922D01*
X694640Y552905D01*
X694628Y552869D01*
X694628Y552854D01*
X694623Y552832D01*
X694566Y552066D01*
X694571Y552017D01*
X694573Y551910D01*
X694714Y551093D01*
X694729Y551051D01*
X694763Y550935D01*
X695111Y550182D01*
X695137Y550145D01*
X695200Y550042D01*
X695730Y549404D01*
X695765Y549376D01*
X695852Y549292D01*
X696530Y548814D01*
X696571Y548795D01*
X696676Y548737D01*
X697455Y548450D01*
X697499Y548443D01*
X697616Y548414D01*
X698442Y548339D01*
X698491Y548343D01*
G37*
G36*
X888991Y877705D02*
X888991Y877705D01*
X889071Y877702D01*
X889806Y877785D01*
X889854Y877799D01*
X889944Y877816D01*
X890642Y878060D01*
X890686Y878085D01*
X890770Y878122D01*
X891396Y878515D01*
X891434Y878549D01*
X891507Y878604D01*
X892030Y879127D01*
X892059Y879168D01*
X892119Y879238D01*
X892512Y879864D01*
X892531Y879911D01*
X892537Y879922D01*
X892542Y879929D01*
X892545Y879938D01*
X892574Y879992D01*
X892818Y880690D01*
X892826Y880740D01*
X892833Y880768D01*
X892836Y880775D01*
X892836Y880777D01*
X892849Y880828D01*
X892932Y881563D01*
X892929Y881612D01*
X892931Y881717D01*
X892818Y882571D01*
X892805Y882614D01*
X892775Y882731D01*
X892446Y883528D01*
X892421Y883566D01*
X892363Y883671D01*
X891838Y884355D01*
X891805Y884385D01*
X891721Y884472D01*
X891627Y884544D01*
X891037Y884997D01*
X890997Y885017D01*
X890894Y885080D01*
X890097Y885409D01*
X890053Y885419D01*
X889937Y885452D01*
X889083Y885565D01*
X889051Y885563D01*
X888906Y885563D01*
X888146Y885449D01*
X888098Y885433D01*
X888009Y885412D01*
X887293Y885132D01*
X887250Y885105D01*
X887168Y885066D01*
X886533Y884633D01*
X886497Y884598D01*
X886425Y884540D01*
X885902Y883977D01*
X885875Y883935D01*
X885818Y883863D01*
X885433Y883198D01*
X885416Y883150D01*
X885376Y883068D01*
X885150Y882333D01*
X885144Y882283D01*
X885140Y882267D01*
X885128Y882231D01*
X885128Y882216D01*
X885123Y882194D01*
X885066Y881428D01*
X885071Y881379D01*
X885073Y881272D01*
X885214Y880455D01*
X885229Y880413D01*
X885263Y880297D01*
X885611Y879544D01*
X885637Y879507D01*
X885700Y879404D01*
X886230Y878766D01*
X886265Y878737D01*
X886352Y878654D01*
X887030Y878176D01*
X887071Y878157D01*
X887176Y878099D01*
X887955Y877812D01*
X887999Y877804D01*
X888116Y877776D01*
X888942Y877700D01*
X888991Y877705D01*
G37*
G36*
X1079491Y682125D02*
X1079491Y682125D01*
X1079571Y682122D01*
X1080306Y682205D01*
X1080354Y682219D01*
X1080444Y682236D01*
X1081142Y682480D01*
X1081186Y682505D01*
X1081270Y682542D01*
X1081896Y682935D01*
X1081934Y682969D01*
X1082007Y683024D01*
X1082530Y683547D01*
X1082559Y683588D01*
X1082619Y683658D01*
X1083012Y684284D01*
X1083031Y684331D01*
X1083037Y684342D01*
X1083042Y684349D01*
X1083045Y684358D01*
X1083074Y684412D01*
X1083318Y685110D01*
X1083326Y685160D01*
X1083333Y685188D01*
X1083336Y685195D01*
X1083336Y685197D01*
X1083349Y685248D01*
X1083432Y685983D01*
X1083429Y686032D01*
X1083431Y686137D01*
X1083318Y686991D01*
X1083305Y687034D01*
X1083275Y687151D01*
X1082946Y687948D01*
X1082921Y687986D01*
X1082863Y688091D01*
X1082338Y688775D01*
X1082305Y688805D01*
X1082221Y688892D01*
X1082127Y688964D01*
X1081537Y689417D01*
X1081497Y689437D01*
X1081394Y689500D01*
X1080597Y689829D01*
X1080553Y689839D01*
X1080437Y689872D01*
X1079583Y689985D01*
X1079551Y689983D01*
X1079406Y689983D01*
X1078646Y689869D01*
X1078598Y689853D01*
X1078509Y689832D01*
X1077793Y689552D01*
X1077750Y689525D01*
X1077668Y689486D01*
X1077033Y689053D01*
X1076997Y689018D01*
X1076925Y688960D01*
X1076402Y688397D01*
X1076375Y688355D01*
X1076318Y688283D01*
X1075933Y687618D01*
X1075916Y687570D01*
X1075876Y687488D01*
X1075650Y686753D01*
X1075644Y686703D01*
X1075640Y686687D01*
X1075628Y686651D01*
X1075628Y686636D01*
X1075623Y686614D01*
X1075566Y685848D01*
X1075571Y685799D01*
X1075573Y685692D01*
X1075714Y684875D01*
X1075729Y684833D01*
X1075763Y684717D01*
X1076111Y683964D01*
X1076137Y683927D01*
X1076200Y683824D01*
X1076730Y683186D01*
X1076765Y683157D01*
X1076852Y683074D01*
X1077530Y682596D01*
X1077571Y682577D01*
X1077676Y682519D01*
X1078455Y682232D01*
X1078499Y682224D01*
X1078616Y682196D01*
X1079442Y682120D01*
X1079491Y682125D01*
G37*
G36*
X698491Y683395D02*
X698491Y683395D01*
X698571Y683392D01*
X699306Y683475D01*
X699354Y683489D01*
X699444Y683506D01*
X700142Y683750D01*
X700186Y683775D01*
X700270Y683812D01*
X700896Y684205D01*
X700934Y684239D01*
X701007Y684294D01*
X701530Y684817D01*
X701559Y684858D01*
X701619Y684928D01*
X702012Y685554D01*
X702031Y685601D01*
X702037Y685612D01*
X702042Y685619D01*
X702045Y685628D01*
X702074Y685682D01*
X702318Y686380D01*
X702326Y686430D01*
X702333Y686458D01*
X702336Y686465D01*
X702336Y686467D01*
X702349Y686518D01*
X702432Y687253D01*
X702429Y687302D01*
X702431Y687407D01*
X702318Y688261D01*
X702305Y688304D01*
X702275Y688421D01*
X701946Y689218D01*
X701921Y689256D01*
X701863Y689361D01*
X701338Y690045D01*
X701305Y690075D01*
X701221Y690162D01*
X701127Y690234D01*
X700537Y690687D01*
X700497Y690707D01*
X700394Y690770D01*
X699597Y691099D01*
X699553Y691109D01*
X699437Y691142D01*
X698583Y691255D01*
X698551Y691253D01*
X698406Y691253D01*
X697646Y691139D01*
X697598Y691123D01*
X697509Y691102D01*
X696793Y690822D01*
X696750Y690795D01*
X696668Y690756D01*
X696033Y690323D01*
X695997Y690288D01*
X695925Y690230D01*
X695402Y689667D01*
X695375Y689625D01*
X695318Y689553D01*
X694933Y688888D01*
X694916Y688840D01*
X694876Y688758D01*
X694650Y688023D01*
X694644Y687973D01*
X694640Y687957D01*
X694628Y687921D01*
X694628Y687906D01*
X694623Y687884D01*
X694566Y687118D01*
X694571Y687069D01*
X694573Y686962D01*
X694714Y686145D01*
X694729Y686103D01*
X694763Y685987D01*
X695111Y685234D01*
X695137Y685197D01*
X695200Y685094D01*
X695730Y684456D01*
X695765Y684427D01*
X695852Y684344D01*
X696530Y683866D01*
X696571Y683847D01*
X696676Y683789D01*
X697455Y683502D01*
X697499Y683494D01*
X697616Y683466D01*
X698442Y683390D01*
X698491Y683395D01*
G37*
G36*
X888991Y350223D02*
X888991Y350223D01*
X889071Y350220D01*
X889806Y350303D01*
X889854Y350317D01*
X889944Y350334D01*
X890642Y350579D01*
X890686Y350603D01*
X890770Y350640D01*
X891396Y351034D01*
X891434Y351068D01*
X891507Y351122D01*
X892030Y351645D01*
X892059Y351686D01*
X892119Y351756D01*
X892512Y352382D01*
X892531Y352429D01*
X892537Y352440D01*
X892542Y352447D01*
X892545Y352456D01*
X892574Y352510D01*
X892818Y353208D01*
X892826Y353258D01*
X892833Y353286D01*
X892836Y353293D01*
X892836Y353295D01*
X892849Y353346D01*
X892932Y354081D01*
X892929Y354131D01*
X892931Y354235D01*
X892818Y355090D01*
X892805Y355132D01*
X892775Y355250D01*
X892446Y356046D01*
X892421Y356084D01*
X892363Y356189D01*
X891838Y356873D01*
X891805Y356903D01*
X891721Y356990D01*
X891627Y357062D01*
X891627Y357063D01*
X891037Y357515D01*
X890997Y357536D01*
X890894Y357598D01*
X890097Y357928D01*
X890053Y357937D01*
X889937Y357971D01*
X889083Y358083D01*
X889051Y358082D01*
X888906Y358081D01*
X888146Y357967D01*
X888098Y357951D01*
X888009Y357930D01*
X887293Y357650D01*
X887250Y357624D01*
X887168Y357584D01*
X886533Y357151D01*
X886497Y357116D01*
X886425Y357058D01*
X885902Y356495D01*
X885875Y356453D01*
X885818Y356381D01*
X885433Y355716D01*
X885416Y355668D01*
X885376Y355586D01*
X885150Y354852D01*
X885144Y354802D01*
X885140Y354785D01*
X885128Y354749D01*
X885128Y354734D01*
X885123Y354712D01*
X885066Y353946D01*
X885071Y353897D01*
X885073Y353790D01*
X885214Y352973D01*
X885229Y352931D01*
X885263Y352815D01*
X885611Y352062D01*
X885637Y352025D01*
X885700Y351922D01*
X886230Y351284D01*
X886265Y351256D01*
X886352Y351172D01*
X887030Y350694D01*
X887071Y350675D01*
X887176Y350617D01*
X887955Y350330D01*
X887999Y350323D01*
X888116Y350294D01*
X888942Y350219D01*
X888991Y350223D01*
G37*
G36*
X888991Y742653D02*
X888991Y742653D01*
X889071Y742650D01*
X889806Y742733D01*
X889854Y742747D01*
X889944Y742764D01*
X890642Y743009D01*
X890686Y743033D01*
X890770Y743070D01*
X891396Y743464D01*
X891434Y743498D01*
X891507Y743552D01*
X892030Y744075D01*
X892059Y744116D01*
X892119Y744186D01*
X892512Y744812D01*
X892531Y744859D01*
X892537Y744870D01*
X892542Y744877D01*
X892545Y744886D01*
X892574Y744940D01*
X892818Y745638D01*
X892826Y745688D01*
X892833Y745716D01*
X892836Y745723D01*
X892836Y745725D01*
X892849Y745776D01*
X892932Y746511D01*
X892929Y746561D01*
X892931Y746665D01*
X892818Y747520D01*
X892805Y747562D01*
X892775Y747680D01*
X892446Y748476D01*
X892421Y748514D01*
X892363Y748619D01*
X891838Y749303D01*
X891805Y749333D01*
X891721Y749420D01*
X891627Y749492D01*
X891627Y749493D01*
X891037Y749945D01*
X890997Y749966D01*
X890894Y750028D01*
X890097Y750358D01*
X890053Y750367D01*
X889937Y750401D01*
X889083Y750513D01*
X889051Y750512D01*
X888906Y750511D01*
X888146Y750397D01*
X888098Y750381D01*
X888009Y750360D01*
X887293Y750080D01*
X887250Y750054D01*
X887168Y750014D01*
X886533Y749581D01*
X886497Y749546D01*
X886425Y749488D01*
X885902Y748925D01*
X885875Y748883D01*
X885818Y748811D01*
X885433Y748146D01*
X885416Y748098D01*
X885376Y748016D01*
X885150Y747282D01*
X885144Y747232D01*
X885140Y747215D01*
X885128Y747179D01*
X885128Y747164D01*
X885123Y747142D01*
X885066Y746376D01*
X885071Y746327D01*
X885073Y746220D01*
X885214Y745403D01*
X885229Y745361D01*
X885263Y745245D01*
X885611Y744492D01*
X885637Y744455D01*
X885700Y744352D01*
X886230Y743714D01*
X886265Y743686D01*
X886352Y743602D01*
X887030Y743124D01*
X887071Y743105D01*
X887176Y743047D01*
X887955Y742760D01*
X887999Y742753D01*
X888116Y742724D01*
X888942Y742649D01*
X888991Y742653D01*
G37*
G36*
X519437Y89036D02*
X519437Y89036D01*
X519463Y89032D01*
X519476Y89042D01*
X519495Y89046D01*
X522035Y90570D01*
X522042Y90580D01*
X522046Y90581D01*
X522048Y90588D01*
X522054Y90596D01*
X522079Y90615D01*
X522082Y90635D01*
X522093Y90649D01*
X522089Y90674D01*
X522093Y90705D01*
X519553Y102389D01*
X519540Y102408D01*
X519535Y102432D01*
X519512Y102447D01*
X519497Y102469D01*
X519473Y102473D01*
X519453Y102486D01*
X519426Y102480D01*
X519399Y102484D01*
X519380Y102470D01*
X519357Y102465D01*
X519340Y102440D01*
X519321Y102425D01*
X519318Y102405D01*
X519307Y102389D01*
X516767Y90705D01*
X516773Y90673D01*
X516769Y90642D01*
X516782Y90626D01*
X516785Y90608D01*
X516806Y90594D01*
X516820Y90577D01*
X516820Y90576D01*
X516821Y90575D01*
X516825Y90570D01*
X519365Y89046D01*
X519387Y89043D01*
X519405Y89030D01*
X519437Y89036D01*
G37*
G36*
X519434Y57540D02*
X519434Y57540D01*
X519462Y57536D01*
X519480Y57550D01*
X519502Y57555D01*
X519520Y57580D01*
X519540Y57596D01*
X519543Y57614D01*
X519553Y57630D01*
X522093Y68806D01*
X522088Y68834D01*
X522093Y68862D01*
X522079Y68882D01*
X522076Y68903D01*
X522057Y68916D01*
X522042Y68937D01*
X519502Y70715D01*
X519472Y70722D01*
X519446Y70737D01*
X519425Y70732D01*
X519406Y70736D01*
X519386Y70722D01*
X519358Y70715D01*
X516818Y68937D01*
X516803Y68913D01*
X516780Y68896D01*
X516777Y68872D01*
X516765Y68854D01*
X516771Y68832D01*
X516767Y68806D01*
X519307Y57630D01*
X519320Y57612D01*
X519324Y57589D01*
X519348Y57573D01*
X519364Y57550D01*
X519387Y57547D01*
X519406Y57534D01*
X519434Y57540D01*
G37*
G36*
X508765Y77606D02*
X508765Y77606D01*
X508793Y77602D01*
X508813Y77616D01*
X508834Y77620D01*
X508846Y77639D01*
X508867Y77654D01*
X510391Y79940D01*
X510396Y79967D01*
X510411Y79991D01*
X510405Y80016D01*
X510409Y80037D01*
X510397Y80055D01*
X510391Y80080D01*
X508867Y82366D01*
X508844Y82381D01*
X508827Y82404D01*
X508803Y82408D01*
X508785Y82420D01*
X508763Y82415D01*
X508738Y82420D01*
X497054Y80134D01*
X497032Y80119D01*
X497006Y80114D01*
X496993Y80093D01*
X496972Y80079D01*
X496968Y80053D01*
X496953Y80030D01*
X496959Y80006D01*
X496955Y79982D01*
X496970Y79960D01*
X496977Y79935D01*
X496999Y79920D01*
X497013Y79902D01*
X497035Y79898D01*
X497054Y79886D01*
X508738Y77600D01*
X508765Y77606D01*
G37*
G36*
X530097Y77605D02*
X530097Y77605D01*
X530123Y77600D01*
X541299Y79886D01*
X541320Y79901D01*
X541345Y79906D01*
X541359Y79928D01*
X541380Y79942D01*
X541385Y79967D01*
X541398Y79989D01*
X541393Y80014D01*
X541397Y80039D01*
X541382Y80060D01*
X541376Y80085D01*
X541352Y80100D01*
X541338Y80119D01*
X541317Y80122D01*
X541299Y80134D01*
X530123Y82420D01*
X530095Y82414D01*
X530067Y82418D01*
X530047Y82404D01*
X530027Y82400D01*
X530015Y82381D01*
X529993Y82366D01*
X528469Y80080D01*
X528464Y80053D01*
X528449Y80029D01*
X528455Y80004D01*
X528451Y79983D01*
X528463Y79965D01*
X528469Y79940D01*
X529993Y77654D01*
X530017Y77638D01*
X530034Y77615D01*
X530058Y77611D01*
X530075Y77600D01*
X530097Y77605D01*
G37*
D10*
X889000Y859070D03*
X889000Y769070D03*
X1079500Y663490D03*
X1079500Y573490D03*
D11*
X1047750Y862330D03*
X1047750Y836930D03*
X1022350Y836930D03*
X1022350Y862330D03*
D12*
G36*
X128739Y935945D02*
X114222Y950462D01*
X123437Y959677D01*
X137954Y945160D01*
X128739Y935945D01*
G37*
G36*
X175762Y888922D02*
X161245Y903439D01*
X170460Y912654D01*
X184977Y898137D01*
X175762Y888922D01*
G37*
G36*
X108940Y916146D02*
X94423Y930663D01*
X103638Y939878D01*
X118155Y925361D01*
X108940Y916146D01*
G37*
G36*
X118840Y926045D02*
X104323Y940562D01*
X113538Y949777D01*
X128055Y935260D01*
X118840Y926045D01*
G37*
G36*
X155963Y869123D02*
X141446Y883640D01*
X150661Y892855D01*
X165178Y878338D01*
X155963Y869123D01*
G37*
G36*
X165862Y879023D02*
X151345Y893540D01*
X160560Y902755D01*
X175077Y888238D01*
X165862Y879023D01*
G37*
D13*
G36*
X168551Y928379D02*
X153679Y943251D01*
X169257Y958829D01*
X184129Y943957D01*
X168551Y928379D01*
G37*
G36*
X110143Y869971D02*
X95271Y884843D01*
X110849Y900421D01*
X125721Y885549D01*
X110143Y869971D01*
G37*
D14*
X153135Y927835D03*
D15*
X126265Y900965D03*
D10*
X698500Y664760D03*
X698500Y574760D03*
D11*
X571500Y914400D03*
X596900Y914400D03*
X622300Y914400D03*
D16*
X546100Y1066800D03*
D17*
X531600Y1056800D03*
X531600Y1066800D03*
X531600Y1076800D03*
X560600Y1056800D03*
X560600Y1066800D03*
X560600Y1076800D03*
D18*
X418040Y1042130D03*
X392640Y1042130D03*
X367240Y1042130D03*
X341840Y1042130D03*
D19*
X276840Y806130D03*
X483840Y806130D03*
X483840Y1039130D03*
X276840Y1039130D03*
D10*
X889000Y466640D03*
X889000Y376640D03*
D11*
X273050Y81280D03*
D20*
G36*
X195694Y365007D02*
X181978Y341251D01*
X167022Y349887D01*
X180738Y373643D01*
X195694Y365007D01*
G37*
G36*
X171564Y323213D02*
X157848Y299457D01*
X142892Y308093D01*
X156608Y331849D01*
X171564Y323213D01*
G37*
G36*
X189019Y337187D02*
X202735Y360943D01*
X217691Y352307D01*
X203975Y328551D01*
X189019Y337187D01*
G37*
G36*
X193561Y310513D02*
X179845Y286757D01*
X164889Y295393D01*
X178605Y319149D01*
X193561Y310513D01*
G37*
D21*
G36*
X208476Y320087D02*
X224731Y348243D01*
X239688Y339607D01*
X223433Y311451D01*
X208476Y320087D01*
G37*
G36*
X218098Y302213D02*
X201843Y274057D01*
X186886Y282693D01*
X203141Y310849D01*
X218098Y302213D01*
G37*
G36*
X230473Y307387D02*
X246728Y335543D01*
X261685Y326907D01*
X245430Y298751D01*
X230473Y307387D01*
G37*
G36*
X240095Y289513D02*
X223840Y261357D01*
X208883Y269993D01*
X225138Y298149D01*
X240095Y289513D01*
G37*
G36*
X252470Y294687D02*
X268725Y322843D01*
X283682Y314207D01*
X267427Y286051D01*
X252470Y294687D01*
G37*
G36*
X262092Y276813D02*
X245837Y248657D01*
X230880Y257293D01*
X247135Y285449D01*
X262092Y276813D01*
G37*
G36*
X274467Y281987D02*
X290722Y310143D01*
X305679Y301507D01*
X289424Y273351D01*
X274467Y281987D01*
G37*
G36*
X284089Y264113D02*
X267834Y235957D01*
X252877Y244593D01*
X269132Y272749D01*
X284089Y264113D01*
G37*
G36*
X296464Y269287D02*
X312719Y297443D01*
X327676Y288807D01*
X311421Y260651D01*
X296464Y269287D01*
G37*
G36*
X306086Y251413D02*
X289831Y223257D01*
X274874Y231893D01*
X291129Y260049D01*
X306086Y251413D01*
G37*
G36*
X318461Y256587D02*
X334716Y284743D01*
X349673Y276107D01*
X333418Y247951D01*
X318461Y256587D01*
G37*
G36*
X328083Y238713D02*
X311828Y210557D01*
X296871Y219193D01*
X313126Y247349D01*
X328083Y238713D01*
G37*
G36*
X340458Y243887D02*
X356713Y272043D01*
X371670Y263407D01*
X355415Y235251D01*
X340458Y243887D01*
G37*
G36*
X350080Y226013D02*
X333825Y197857D01*
X318868Y206493D01*
X335123Y234649D01*
X350080Y226013D01*
G37*
G36*
X362455Y231187D02*
X378710Y259343D01*
X393667Y250707D01*
X377412Y222551D01*
X362455Y231187D01*
G37*
G36*
X372077Y213313D02*
X355822Y185157D01*
X340865Y193793D01*
X357120Y221949D01*
X372077Y213313D01*
G37*
G36*
X384452Y218487D02*
X400707Y246643D01*
X415664Y238007D01*
X399409Y209851D01*
X384452Y218487D01*
G37*
G36*
X394074Y200613D02*
X377819Y172457D01*
X362862Y181093D01*
X379117Y209249D01*
X394074Y200613D01*
G37*
G36*
X406449Y205787D02*
X422704Y233943D01*
X437661Y225307D01*
X421406Y197151D01*
X406449Y205787D01*
G37*
G36*
X416071Y187913D02*
X399816Y159757D01*
X384859Y168393D01*
X401114Y196549D01*
X416071Y187913D01*
G37*
G36*
X428446Y193087D02*
X444701Y221243D01*
X459658Y212607D01*
X443403Y184451D01*
X428446Y193087D01*
G37*
G36*
X438068Y175213D02*
X421813Y147057D01*
X406856Y155693D01*
X423111Y183849D01*
X438068Y175213D01*
G37*
G36*
X450443Y180387D02*
X466698Y208543D01*
X481655Y199907D01*
X465400Y171751D01*
X450443Y180387D01*
G37*
G36*
X460065Y162513D02*
X443810Y134357D01*
X428853Y142993D01*
X445108Y171149D01*
X460065Y162513D01*
G37*
D20*
G36*
X474980Y172087D02*
X488696Y195843D01*
X503652Y187207D01*
X489936Y163451D01*
X474980Y172087D01*
G37*
G36*
X479522Y145413D02*
X465806Y121657D01*
X450850Y130293D01*
X464566Y154049D01*
X479522Y145413D01*
G37*
G36*
X496977Y159387D02*
X510693Y183143D01*
X525649Y174507D01*
X511933Y150751D01*
X496977Y159387D01*
G37*
G36*
X501519Y132713D02*
X487803Y108957D01*
X472847Y117593D01*
X486563Y141349D01*
X501519Y132713D01*
G37*
G36*
X615819Y330686D02*
X602103Y306930D01*
X587147Y315566D01*
X600863Y339322D01*
X615819Y330686D01*
G37*
G36*
X611277Y357361D02*
X624993Y381117D01*
X639949Y372481D01*
X626233Y348725D01*
X611277Y357361D01*
G37*
G36*
X593822Y343386D02*
X580106Y319630D01*
X565150Y328266D01*
X578866Y352022D01*
X593822Y343386D01*
G37*
G36*
X589280Y370061D02*
X602996Y393817D01*
X617952Y385181D01*
X604236Y361425D01*
X589280Y370061D01*
G37*
D21*
G36*
X574365Y360486D02*
X558110Y332330D01*
X543153Y340966D01*
X559408Y369122D01*
X574365Y360486D01*
G37*
G36*
X564743Y378361D02*
X580998Y406517D01*
X595955Y397881D01*
X579700Y369725D01*
X564743Y378361D01*
G37*
G36*
X552368Y373186D02*
X536113Y345030D01*
X521156Y353666D01*
X537411Y381822D01*
X552368Y373186D01*
G37*
G36*
X542746Y391061D02*
X559001Y419217D01*
X573958Y410581D01*
X557703Y382425D01*
X542746Y391061D01*
G37*
G36*
X530371Y385886D02*
X514116Y357730D01*
X499159Y366366D01*
X515414Y394522D01*
X530371Y385886D01*
G37*
G36*
X520749Y403761D02*
X537004Y431917D01*
X551961Y423281D01*
X535706Y395125D01*
X520749Y403761D01*
G37*
G36*
X508374Y398586D02*
X492119Y370430D01*
X477162Y379066D01*
X493417Y407222D01*
X508374Y398586D01*
G37*
G36*
X498752Y416461D02*
X515007Y444617D01*
X529964Y435981D01*
X513709Y407825D01*
X498752Y416461D01*
G37*
G36*
X486377Y411286D02*
X470122Y383130D01*
X455165Y391766D01*
X471420Y419922D01*
X486377Y411286D01*
G37*
G36*
X476755Y429161D02*
X493010Y457317D01*
X507967Y448681D01*
X491712Y420525D01*
X476755Y429161D01*
G37*
G36*
X464380Y423986D02*
X448125Y395830D01*
X433168Y404466D01*
X449423Y432622D01*
X464380Y423986D01*
G37*
G36*
X454758Y441861D02*
X471013Y470017D01*
X485970Y461381D01*
X469715Y433225D01*
X454758Y441861D01*
G37*
G36*
X442383Y436686D02*
X426128Y408530D01*
X411171Y417166D01*
X427426Y445322D01*
X442383Y436686D01*
G37*
G36*
X432761Y454561D02*
X449016Y482717D01*
X463973Y474081D01*
X447718Y445925D01*
X432761Y454561D01*
G37*
G36*
X420386Y449386D02*
X404131Y421230D01*
X389174Y429866D01*
X405429Y458022D01*
X420386Y449386D01*
G37*
G36*
X410764Y467261D02*
X427019Y495417D01*
X441976Y486781D01*
X425721Y458625D01*
X410764Y467261D01*
G37*
D20*
G36*
X395849Y457686D02*
X382133Y433930D01*
X367177Y442566D01*
X380893Y466322D01*
X395849Y457686D01*
G37*
G36*
X391307Y484361D02*
X405023Y508117D01*
X419979Y499481D01*
X406263Y475725D01*
X391307Y484361D01*
G37*
G36*
X373852Y470386D02*
X360136Y446630D01*
X345180Y455266D01*
X358896Y479022D01*
X373852Y470386D01*
G37*
G36*
X397982Y512181D02*
X384266Y488425D01*
X369310Y497061D01*
X383026Y520817D01*
X397982Y512181D01*
G37*
D22*
X382579Y477373D03*
X602550Y350373D03*
X180291Y330200D03*
X488250Y152400D03*
M02*
