G04 EAGLE Gerber X2 export*
%TF.Part,Single*%
%TF.FileFunction,Paste,Top*%
%TF.FilePolarity,Positive*%
%TF.GenerationSoftware,Autodesk,EAGLE,9.1.3*%
%TF.CreationDate,2018-09-06T21:21:55Z*%
G75*
%MOMM*%
%FSLAX34Y34*%
%LPD*%
%AMOC8*
5,1,8,0,0,1.08239X$1,22.5*%
G01*
%ADD10R,1.850000X1.100000*%
%ADD11R,1.900000X2.000000*%
%ADD12R,1.200000X2.100000*%
%ADD13R,0.800000X0.400000*%
%ADD14R,2.540000X1.524000*%
%ADD15R,3.048000X1.524000*%


D10*
G36*
X128739Y937382D02*
X115659Y950462D01*
X123437Y958240D01*
X136517Y945160D01*
X128739Y937382D01*
G37*
G36*
X175762Y890359D02*
X162682Y903439D01*
X170460Y911217D01*
X183540Y898137D01*
X175762Y890359D01*
G37*
G36*
X108940Y917583D02*
X95860Y930663D01*
X103638Y938441D01*
X116718Y925361D01*
X108940Y917583D01*
G37*
G36*
X118840Y927482D02*
X105760Y940562D01*
X113538Y948340D01*
X126618Y935260D01*
X118840Y927482D01*
G37*
G36*
X155963Y870560D02*
X142883Y883640D01*
X150661Y891418D01*
X163741Y878338D01*
X155963Y870560D01*
G37*
G36*
X165862Y880460D02*
X152782Y893540D01*
X160560Y901318D01*
X173640Y888238D01*
X165862Y880460D01*
G37*
D11*
G36*
X168551Y929816D02*
X155116Y943251D01*
X169257Y957392D01*
X182692Y943957D01*
X168551Y929816D01*
G37*
G36*
X110143Y871408D02*
X96708Y884843D01*
X110849Y898984D01*
X124284Y885549D01*
X110143Y871408D01*
G37*
D12*
X546100Y1066800D03*
D13*
X531600Y1056800D03*
X531600Y1066800D03*
X531600Y1076800D03*
X560600Y1056800D03*
X560600Y1066800D03*
X560600Y1076800D03*
D14*
G36*
X194307Y364635D02*
X181607Y342639D01*
X168409Y350259D01*
X181109Y372255D01*
X194307Y364635D01*
G37*
G36*
X170177Y322841D02*
X157477Y300845D01*
X144279Y308465D01*
X156979Y330461D01*
X170177Y322841D01*
G37*
G36*
X190406Y337559D02*
X203106Y359555D01*
X216304Y351935D01*
X203604Y329939D01*
X190406Y337559D01*
G37*
G36*
X192174Y310141D02*
X179474Y288145D01*
X166276Y295765D01*
X178976Y317761D01*
X192174Y310141D01*
G37*
D15*
G36*
X209863Y320459D02*
X225102Y346855D01*
X238301Y339235D01*
X223062Y312839D01*
X209863Y320459D01*
G37*
G36*
X216711Y301841D02*
X201472Y275445D01*
X188273Y283065D01*
X203512Y309461D01*
X216711Y301841D01*
G37*
G36*
X231860Y307759D02*
X247099Y334155D01*
X260298Y326535D01*
X245059Y300139D01*
X231860Y307759D01*
G37*
G36*
X238708Y289141D02*
X223469Y262745D01*
X210270Y270365D01*
X225509Y296761D01*
X238708Y289141D01*
G37*
G36*
X253857Y295059D02*
X269096Y321455D01*
X282295Y313835D01*
X267056Y287439D01*
X253857Y295059D01*
G37*
G36*
X260705Y276441D02*
X245466Y250045D01*
X232267Y257665D01*
X247506Y284061D01*
X260705Y276441D01*
G37*
G36*
X275854Y282359D02*
X291093Y308755D01*
X304292Y301135D01*
X289053Y274739D01*
X275854Y282359D01*
G37*
G36*
X282702Y263741D02*
X267463Y237345D01*
X254264Y244965D01*
X269503Y271361D01*
X282702Y263741D01*
G37*
G36*
X297851Y269659D02*
X313090Y296055D01*
X326289Y288435D01*
X311050Y262039D01*
X297851Y269659D01*
G37*
G36*
X304699Y251041D02*
X289460Y224645D01*
X276261Y232265D01*
X291500Y258661D01*
X304699Y251041D01*
G37*
G36*
X319848Y256959D02*
X335087Y283355D01*
X348286Y275735D01*
X333047Y249339D01*
X319848Y256959D01*
G37*
G36*
X326696Y238341D02*
X311457Y211945D01*
X298258Y219565D01*
X313497Y245961D01*
X326696Y238341D01*
G37*
G36*
X341845Y244259D02*
X357084Y270655D01*
X370283Y263035D01*
X355044Y236639D01*
X341845Y244259D01*
G37*
G36*
X348693Y225641D02*
X333454Y199245D01*
X320255Y206865D01*
X335494Y233261D01*
X348693Y225641D01*
G37*
G36*
X363842Y231559D02*
X379081Y257955D01*
X392280Y250335D01*
X377041Y223939D01*
X363842Y231559D01*
G37*
G36*
X370690Y212941D02*
X355451Y186545D01*
X342252Y194165D01*
X357491Y220561D01*
X370690Y212941D01*
G37*
G36*
X385839Y218859D02*
X401078Y245255D01*
X414277Y237635D01*
X399038Y211239D01*
X385839Y218859D01*
G37*
G36*
X392687Y200241D02*
X377448Y173845D01*
X364249Y181465D01*
X379488Y207861D01*
X392687Y200241D01*
G37*
G36*
X407836Y206159D02*
X423075Y232555D01*
X436274Y224935D01*
X421035Y198539D01*
X407836Y206159D01*
G37*
G36*
X414684Y187541D02*
X399445Y161145D01*
X386246Y168765D01*
X401485Y195161D01*
X414684Y187541D01*
G37*
G36*
X429833Y193459D02*
X445072Y219855D01*
X458271Y212235D01*
X443032Y185839D01*
X429833Y193459D01*
G37*
G36*
X436681Y174841D02*
X421442Y148445D01*
X408243Y156065D01*
X423482Y182461D01*
X436681Y174841D01*
G37*
G36*
X451830Y180759D02*
X467069Y207155D01*
X480268Y199535D01*
X465029Y173139D01*
X451830Y180759D01*
G37*
G36*
X458678Y162141D02*
X443439Y135745D01*
X430240Y143365D01*
X445479Y169761D01*
X458678Y162141D01*
G37*
D14*
G36*
X476367Y172459D02*
X489067Y194455D01*
X502265Y186835D01*
X489565Y164839D01*
X476367Y172459D01*
G37*
G36*
X478135Y145041D02*
X465435Y123045D01*
X452237Y130665D01*
X464937Y152661D01*
X478135Y145041D01*
G37*
G36*
X498364Y159759D02*
X511064Y181755D01*
X524262Y174135D01*
X511562Y152139D01*
X498364Y159759D01*
G37*
G36*
X500132Y132341D02*
X487432Y110345D01*
X474234Y117965D01*
X486934Y139961D01*
X500132Y132341D01*
G37*
G36*
X614432Y330314D02*
X601732Y308318D01*
X588534Y315938D01*
X601234Y337934D01*
X614432Y330314D01*
G37*
G36*
X612664Y357733D02*
X625364Y379729D01*
X638562Y372109D01*
X625862Y350113D01*
X612664Y357733D01*
G37*
G36*
X592435Y343014D02*
X579735Y321018D01*
X566537Y328638D01*
X579237Y350634D01*
X592435Y343014D01*
G37*
G36*
X590667Y370433D02*
X603367Y392429D01*
X616565Y384809D01*
X603865Y362813D01*
X590667Y370433D01*
G37*
D15*
G36*
X572978Y360114D02*
X557739Y333718D01*
X544540Y341338D01*
X559779Y367734D01*
X572978Y360114D01*
G37*
G36*
X566130Y378733D02*
X581369Y405129D01*
X594568Y397509D01*
X579329Y371113D01*
X566130Y378733D01*
G37*
G36*
X550981Y372814D02*
X535742Y346418D01*
X522543Y354038D01*
X537782Y380434D01*
X550981Y372814D01*
G37*
G36*
X544133Y391433D02*
X559372Y417829D01*
X572571Y410209D01*
X557332Y383813D01*
X544133Y391433D01*
G37*
G36*
X528984Y385514D02*
X513745Y359118D01*
X500546Y366738D01*
X515785Y393134D01*
X528984Y385514D01*
G37*
G36*
X522136Y404133D02*
X537375Y430529D01*
X550574Y422909D01*
X535335Y396513D01*
X522136Y404133D01*
G37*
G36*
X506987Y398214D02*
X491748Y371818D01*
X478549Y379438D01*
X493788Y405834D01*
X506987Y398214D01*
G37*
G36*
X500139Y416833D02*
X515378Y443229D01*
X528577Y435609D01*
X513338Y409213D01*
X500139Y416833D01*
G37*
G36*
X484990Y410914D02*
X469751Y384518D01*
X456552Y392138D01*
X471791Y418534D01*
X484990Y410914D01*
G37*
G36*
X478142Y429533D02*
X493381Y455929D01*
X506580Y448309D01*
X491341Y421913D01*
X478142Y429533D01*
G37*
G36*
X462993Y423614D02*
X447754Y397218D01*
X434555Y404838D01*
X449794Y431234D01*
X462993Y423614D01*
G37*
G36*
X456145Y442233D02*
X471384Y468629D01*
X484583Y461009D01*
X469344Y434613D01*
X456145Y442233D01*
G37*
G36*
X440996Y436314D02*
X425757Y409918D01*
X412558Y417538D01*
X427797Y443934D01*
X440996Y436314D01*
G37*
G36*
X434148Y454933D02*
X449387Y481329D01*
X462586Y473709D01*
X447347Y447313D01*
X434148Y454933D01*
G37*
G36*
X418999Y449014D02*
X403760Y422618D01*
X390561Y430238D01*
X405800Y456634D01*
X418999Y449014D01*
G37*
G36*
X412151Y467633D02*
X427390Y494029D01*
X440589Y486409D01*
X425350Y460013D01*
X412151Y467633D01*
G37*
D14*
G36*
X394462Y457314D02*
X381762Y435318D01*
X368564Y442938D01*
X381264Y464934D01*
X394462Y457314D01*
G37*
G36*
X392694Y484733D02*
X405394Y506729D01*
X418592Y499109D01*
X405892Y477113D01*
X392694Y484733D01*
G37*
G36*
X372465Y470014D02*
X359765Y448018D01*
X346567Y455638D01*
X359267Y477634D01*
X372465Y470014D01*
G37*
G36*
X396595Y511809D02*
X383895Y489813D01*
X370697Y497433D01*
X383397Y519429D01*
X396595Y511809D01*
G37*
M02*
