G04 EAGLE Gerber X2 export*
%TF.Part,Single*%
%TF.FileFunction,Soldermask,Top,1*%
%TF.FilePolarity,Negative*%
%TF.GenerationSoftware,Autodesk,EAGLE,9.1.3*%
%TF.CreationDate,2018-08-24T15:03:00Z*%
G75*
%MOMM*%
%FSLAX34Y34*%
%LPD*%
%AMOC8*
5,1,8,0,0,1.08239X$1,22.5*%
G01*
%ADD10C,1.803200*%
%ADD11C,2.082800*%
%ADD12R,2.053200X1.303200*%
%ADD13R,2.103200X2.203200*%
%ADD14C,0.953200*%
%ADD15C,1.253200*%
%ADD16R,1.700000X2.600000*%
%ADD17R,0.950000X0.550000*%
%ADD18C,1.981200*%
%ADD19C,2.203200*%
%ADD20R,2.743200X1.727200*%
%ADD21R,3.251200X1.727200*%
%ADD22C,2.003200*%

G36*
X635958Y591421D02*
X635958Y591421D01*
X636048Y591420D01*
X637238Y591577D01*
X637286Y591592D01*
X637376Y591611D01*
X638501Y592029D01*
X638545Y592055D01*
X638628Y592093D01*
X639632Y592751D01*
X639669Y592785D01*
X639741Y592841D01*
X640574Y593706D01*
X640602Y593748D01*
X640660Y593819D01*
X641280Y594847D01*
X641298Y594894D01*
X641339Y594976D01*
X641714Y596116D01*
X641721Y596166D01*
X641743Y596255D01*
X641855Y597451D01*
X641850Y597501D01*
X641852Y597590D01*
X641705Y598741D01*
X641690Y598789D01*
X641672Y598879D01*
X641272Y599968D01*
X641247Y600012D01*
X641209Y600096D01*
X640577Y601069D01*
X640542Y601106D01*
X640487Y601179D01*
X639654Y601987D01*
X639612Y602015D01*
X639542Y602074D01*
X638550Y602677D01*
X638503Y602695D01*
X638422Y602737D01*
X637321Y603104D01*
X637271Y603111D01*
X637182Y603133D01*
X636027Y603246D01*
X635977Y603242D01*
X635881Y603244D01*
X634683Y603083D01*
X634635Y603067D01*
X634545Y603048D01*
X633413Y602625D01*
X633369Y602599D01*
X633286Y602561D01*
X632276Y601896D01*
X632239Y601861D01*
X632167Y601805D01*
X631330Y600932D01*
X631303Y600890D01*
X631244Y600819D01*
X630623Y599782D01*
X630605Y599735D01*
X630564Y599653D01*
X630189Y598504D01*
X630182Y598454D01*
X630160Y598365D01*
X630050Y597161D01*
X630055Y597110D01*
X630053Y597018D01*
X630209Y595871D01*
X630224Y595823D01*
X630243Y595733D01*
X630650Y594649D01*
X630675Y594606D01*
X630714Y594523D01*
X631352Y593556D01*
X631386Y593520D01*
X631442Y593447D01*
X632279Y592647D01*
X632321Y592619D01*
X632392Y592561D01*
X633386Y591967D01*
X633433Y591949D01*
X633515Y591908D01*
X634616Y591550D01*
X634666Y591543D01*
X634755Y591521D01*
X635908Y591417D01*
X635958Y591421D01*
G37*
G36*
X956583Y817888D02*
X956583Y817888D01*
X956672Y817886D01*
X957862Y818043D01*
X957910Y818058D01*
X958000Y818077D01*
X959125Y818495D01*
X959169Y818521D01*
X959252Y818559D01*
X960256Y819217D01*
X960293Y819252D01*
X960366Y819308D01*
X961198Y820172D01*
X961226Y820214D01*
X961285Y820285D01*
X961904Y821313D01*
X961922Y821361D01*
X961963Y821442D01*
X962338Y822583D01*
X962345Y822633D01*
X962367Y822722D01*
X962479Y823917D01*
X962474Y823967D01*
X962476Y824056D01*
X962329Y825207D01*
X962314Y825255D01*
X962296Y825345D01*
X961897Y826435D01*
X961871Y826478D01*
X961833Y826562D01*
X961201Y827535D01*
X961167Y827572D01*
X961111Y827645D01*
X960279Y828453D01*
X960237Y828482D01*
X960166Y828540D01*
X959175Y829143D01*
X959128Y829161D01*
X959046Y829203D01*
X957945Y829570D01*
X957895Y829577D01*
X957806Y829600D01*
X956651Y829713D01*
X956601Y829709D01*
X956505Y829710D01*
X955307Y829549D01*
X955259Y829534D01*
X955169Y829515D01*
X954037Y829091D01*
X953993Y829066D01*
X953910Y829027D01*
X952900Y828362D01*
X952864Y828327D01*
X952791Y828271D01*
X951955Y827399D01*
X951927Y827357D01*
X951868Y827286D01*
X951247Y826249D01*
X951229Y826202D01*
X951188Y826120D01*
X950813Y824970D01*
X950806Y824920D01*
X950784Y824831D01*
X950675Y823627D01*
X950679Y823577D01*
X950678Y823485D01*
X950833Y822337D01*
X950848Y822289D01*
X950867Y822200D01*
X951274Y821116D01*
X951300Y821072D01*
X951338Y820989D01*
X951976Y820023D01*
X952010Y819986D01*
X952067Y819914D01*
X952903Y819113D01*
X952945Y819085D01*
X953016Y819027D01*
X954010Y818433D01*
X954057Y818415D01*
X954139Y818374D01*
X955240Y818016D01*
X955290Y818009D01*
X955379Y817987D01*
X956532Y817883D01*
X956583Y817888D01*
G37*
G36*
X831564Y817862D02*
X831564Y817862D01*
X831654Y817861D01*
X832844Y818018D01*
X832892Y818033D01*
X832981Y818052D01*
X834107Y818470D01*
X834150Y818496D01*
X834233Y818534D01*
X835238Y819192D01*
X835274Y819226D01*
X835347Y819282D01*
X836179Y820147D01*
X836207Y820189D01*
X836266Y820260D01*
X836885Y821288D01*
X836903Y821335D01*
X836944Y821417D01*
X837319Y822557D01*
X837326Y822607D01*
X837348Y822696D01*
X837460Y823892D01*
X837456Y823942D01*
X837458Y824031D01*
X837311Y825182D01*
X837296Y825230D01*
X837277Y825320D01*
X836878Y826409D01*
X836852Y826453D01*
X836814Y826537D01*
X836182Y827510D01*
X836148Y827547D01*
X836092Y827620D01*
X835260Y828428D01*
X835218Y828456D01*
X835147Y828515D01*
X834156Y829118D01*
X834109Y829136D01*
X834027Y829178D01*
X832926Y829545D01*
X832876Y829552D01*
X832787Y829574D01*
X831632Y829687D01*
X831582Y829683D01*
X831486Y829685D01*
X830288Y829524D01*
X830240Y829508D01*
X830150Y829489D01*
X829018Y829066D01*
X828975Y829040D01*
X828891Y829002D01*
X827882Y828337D01*
X827845Y828302D01*
X827772Y828246D01*
X826936Y827373D01*
X826908Y827331D01*
X826850Y827260D01*
X826228Y826223D01*
X826210Y826176D01*
X826169Y826094D01*
X825794Y824945D01*
X825787Y824895D01*
X825766Y824806D01*
X825656Y823602D01*
X825660Y823551D01*
X825659Y823459D01*
X825814Y822312D01*
X825829Y822264D01*
X825849Y822174D01*
X826255Y821090D01*
X826281Y821047D01*
X826319Y820964D01*
X826957Y819997D01*
X826992Y819961D01*
X827048Y819888D01*
X827884Y819088D01*
X827927Y819060D01*
X827997Y819002D01*
X828991Y818408D01*
X829038Y818390D01*
X829120Y818349D01*
X830221Y817991D01*
X830271Y817984D01*
X830360Y817962D01*
X831514Y817858D01*
X831564Y817862D01*
G37*
G36*
X831538Y767951D02*
X831538Y767951D01*
X831628Y767950D01*
X832818Y768107D01*
X832866Y768122D01*
X832956Y768141D01*
X834081Y768559D01*
X834125Y768585D01*
X834208Y768623D01*
X835212Y769281D01*
X835249Y769315D01*
X835321Y769371D01*
X836154Y770236D01*
X836182Y770278D01*
X836240Y770349D01*
X836860Y771377D01*
X836878Y771424D01*
X836919Y771506D01*
X837294Y772646D01*
X837301Y772696D01*
X837323Y772785D01*
X837435Y773981D01*
X837430Y774031D01*
X837432Y774120D01*
X837285Y775271D01*
X837270Y775319D01*
X837252Y775409D01*
X836852Y776498D01*
X836827Y776542D01*
X836789Y776626D01*
X836157Y777599D01*
X836122Y777636D01*
X836067Y777709D01*
X835234Y778517D01*
X835192Y778545D01*
X835122Y778604D01*
X834130Y779207D01*
X834083Y779225D01*
X834002Y779267D01*
X832901Y779634D01*
X832851Y779641D01*
X832762Y779663D01*
X831607Y779776D01*
X831557Y779772D01*
X831461Y779774D01*
X830263Y779613D01*
X830215Y779597D01*
X830125Y779578D01*
X828993Y779155D01*
X828949Y779129D01*
X828866Y779091D01*
X827856Y778426D01*
X827819Y778391D01*
X827747Y778335D01*
X826910Y777462D01*
X826883Y777420D01*
X826824Y777349D01*
X826203Y776312D01*
X826185Y776265D01*
X826144Y776183D01*
X825769Y775034D01*
X825762Y774984D01*
X825740Y774895D01*
X825630Y773691D01*
X825635Y773640D01*
X825633Y773548D01*
X825789Y772401D01*
X825804Y772353D01*
X825823Y772263D01*
X826230Y771179D01*
X826255Y771136D01*
X826294Y771053D01*
X826932Y770086D01*
X826966Y770050D01*
X827022Y769977D01*
X827859Y769177D01*
X827901Y769149D01*
X827972Y769091D01*
X828966Y768497D01*
X829013Y768479D01*
X829095Y768438D01*
X830196Y768080D01*
X830246Y768073D01*
X830335Y768051D01*
X831488Y767947D01*
X831538Y767951D01*
G37*
G36*
X956633Y767900D02*
X956633Y767900D01*
X956723Y767899D01*
X957913Y768056D01*
X957961Y768071D01*
X958051Y768090D01*
X959176Y768508D01*
X959220Y768534D01*
X959303Y768572D01*
X960307Y769230D01*
X960344Y769264D01*
X960416Y769320D01*
X961249Y770185D01*
X961277Y770227D01*
X961335Y770298D01*
X961955Y771326D01*
X961973Y771373D01*
X962014Y771455D01*
X962389Y772596D01*
X962396Y772646D01*
X962418Y772735D01*
X962530Y773930D01*
X962525Y773980D01*
X962527Y774069D01*
X962380Y775220D01*
X962365Y775268D01*
X962347Y775358D01*
X961947Y776448D01*
X961922Y776491D01*
X961884Y776575D01*
X961252Y777548D01*
X961217Y777585D01*
X961162Y777658D01*
X960329Y778466D01*
X960287Y778494D01*
X960217Y778553D01*
X959225Y779156D01*
X959178Y779174D01*
X959097Y779216D01*
X957996Y779583D01*
X957946Y779590D01*
X957857Y779612D01*
X956702Y779725D01*
X956652Y779721D01*
X956556Y779723D01*
X955358Y779562D01*
X955310Y779547D01*
X955220Y779528D01*
X954088Y779104D01*
X954044Y779078D01*
X953961Y779040D01*
X952951Y778375D01*
X952914Y778340D01*
X952842Y778284D01*
X952005Y777411D01*
X951978Y777369D01*
X951919Y777299D01*
X951298Y776262D01*
X951280Y776214D01*
X951239Y776132D01*
X950864Y774983D01*
X950857Y774933D01*
X950835Y774844D01*
X950725Y773640D01*
X950730Y773590D01*
X950728Y773497D01*
X950884Y772350D01*
X950899Y772302D01*
X950918Y772212D01*
X951325Y771128D01*
X951350Y771085D01*
X951389Y771002D01*
X952027Y770035D01*
X952061Y769999D01*
X952117Y769926D01*
X952954Y769126D01*
X952996Y769098D01*
X953067Y769040D01*
X954061Y768446D01*
X954108Y768428D01*
X954190Y768387D01*
X955291Y768029D01*
X955341Y768022D01*
X955430Y768000D01*
X956583Y767896D01*
X956633Y767900D01*
G37*
G36*
X960443Y426270D02*
X960443Y426270D01*
X960533Y426269D01*
X961723Y426426D01*
X961771Y426441D01*
X961861Y426460D01*
X962986Y426878D01*
X963030Y426904D01*
X963113Y426942D01*
X964117Y427600D01*
X964154Y427634D01*
X964226Y427690D01*
X965059Y428555D01*
X965087Y428597D01*
X965145Y428668D01*
X965765Y429696D01*
X965783Y429743D01*
X965824Y429825D01*
X966199Y430966D01*
X966206Y431016D01*
X966228Y431105D01*
X966340Y432300D01*
X966335Y432350D01*
X966337Y432439D01*
X966190Y433590D01*
X966175Y433638D01*
X966157Y433728D01*
X965757Y434818D01*
X965732Y434861D01*
X965694Y434945D01*
X965062Y435918D01*
X965027Y435955D01*
X964972Y436028D01*
X964139Y436836D01*
X964097Y436864D01*
X964027Y436923D01*
X963035Y437526D01*
X962988Y437544D01*
X962907Y437586D01*
X961806Y437953D01*
X961756Y437960D01*
X961667Y437982D01*
X960512Y438095D01*
X960462Y438091D01*
X960366Y438093D01*
X959168Y437932D01*
X959120Y437917D01*
X959030Y437898D01*
X957898Y437474D01*
X957854Y437448D01*
X957771Y437410D01*
X956761Y436745D01*
X956724Y436710D01*
X956652Y436654D01*
X955815Y435781D01*
X955788Y435739D01*
X955729Y435669D01*
X955108Y434632D01*
X955090Y434584D01*
X955049Y434502D01*
X954674Y433353D01*
X954667Y433303D01*
X954645Y433214D01*
X954535Y432010D01*
X954540Y431960D01*
X954538Y431867D01*
X954694Y430720D01*
X954709Y430672D01*
X954728Y430582D01*
X955135Y429498D01*
X955160Y429455D01*
X955199Y429372D01*
X955837Y428405D01*
X955871Y428369D01*
X955927Y428296D01*
X956764Y427496D01*
X956806Y427468D01*
X956877Y427410D01*
X957871Y426816D01*
X957918Y426798D01*
X958000Y426757D01*
X959101Y426399D01*
X959151Y426392D01*
X959240Y426370D01*
X960393Y426266D01*
X960443Y426270D01*
G37*
G36*
X835348Y426321D02*
X835348Y426321D01*
X835438Y426320D01*
X836628Y426477D01*
X836676Y426492D01*
X836766Y426511D01*
X837891Y426929D01*
X837935Y426955D01*
X838018Y426993D01*
X839022Y427651D01*
X839059Y427685D01*
X839131Y427741D01*
X839964Y428606D01*
X839992Y428648D01*
X840050Y428719D01*
X840670Y429747D01*
X840688Y429794D01*
X840729Y429876D01*
X841104Y431016D01*
X841111Y431066D01*
X841133Y431155D01*
X841245Y432351D01*
X841240Y432401D01*
X841242Y432490D01*
X841095Y433641D01*
X841080Y433689D01*
X841062Y433779D01*
X840662Y434868D01*
X840637Y434912D01*
X840599Y434996D01*
X839967Y435969D01*
X839932Y436006D01*
X839877Y436079D01*
X839044Y436887D01*
X839002Y436915D01*
X838932Y436974D01*
X837940Y437577D01*
X837893Y437595D01*
X837812Y437637D01*
X836711Y438004D01*
X836661Y438011D01*
X836572Y438033D01*
X835417Y438146D01*
X835367Y438142D01*
X835271Y438144D01*
X834073Y437983D01*
X834025Y437967D01*
X833935Y437948D01*
X832803Y437525D01*
X832759Y437499D01*
X832676Y437461D01*
X831666Y436796D01*
X831629Y436761D01*
X831557Y436705D01*
X830720Y435832D01*
X830693Y435790D01*
X830634Y435719D01*
X830013Y434682D01*
X829995Y434635D01*
X829954Y434553D01*
X829579Y433404D01*
X829572Y433354D01*
X829550Y433265D01*
X829440Y432061D01*
X829445Y432010D01*
X829443Y431918D01*
X829599Y430771D01*
X829614Y430723D01*
X829633Y430633D01*
X830040Y429549D01*
X830065Y429506D01*
X830104Y429423D01*
X830742Y428456D01*
X830776Y428420D01*
X830832Y428347D01*
X831669Y427547D01*
X831711Y427519D01*
X831782Y427461D01*
X832776Y426867D01*
X832823Y426849D01*
X832905Y426808D01*
X834006Y426450D01*
X834056Y426443D01*
X834145Y426421D01*
X835298Y426317D01*
X835348Y426321D01*
G37*
G36*
X835374Y476232D02*
X835374Y476232D01*
X835464Y476231D01*
X836654Y476388D01*
X836702Y476403D01*
X836791Y476422D01*
X837917Y476840D01*
X837960Y476866D01*
X838043Y476904D01*
X839048Y477562D01*
X839084Y477596D01*
X839157Y477652D01*
X839989Y478517D01*
X840017Y478559D01*
X840076Y478630D01*
X840695Y479658D01*
X840713Y479705D01*
X840754Y479787D01*
X841129Y480927D01*
X841136Y480977D01*
X841158Y481066D01*
X841270Y482262D01*
X841266Y482312D01*
X841268Y482401D01*
X841121Y483552D01*
X841106Y483600D01*
X841087Y483690D01*
X840688Y484779D01*
X840662Y484823D01*
X840624Y484907D01*
X839992Y485880D01*
X839958Y485917D01*
X839902Y485990D01*
X839070Y486798D01*
X839028Y486826D01*
X838957Y486885D01*
X837966Y487488D01*
X837919Y487506D01*
X837837Y487548D01*
X836736Y487915D01*
X836686Y487922D01*
X836597Y487944D01*
X835442Y488057D01*
X835392Y488053D01*
X835296Y488055D01*
X834098Y487894D01*
X834050Y487878D01*
X833960Y487859D01*
X832828Y487436D01*
X832785Y487410D01*
X832701Y487372D01*
X831692Y486707D01*
X831655Y486672D01*
X831582Y486616D01*
X830746Y485743D01*
X830718Y485701D01*
X830660Y485630D01*
X830038Y484593D01*
X830020Y484546D01*
X829979Y484464D01*
X829604Y483315D01*
X829597Y483265D01*
X829576Y483176D01*
X829466Y481972D01*
X829470Y481921D01*
X829469Y481829D01*
X829624Y480682D01*
X829639Y480634D01*
X829659Y480544D01*
X830065Y479460D01*
X830091Y479417D01*
X830129Y479334D01*
X830767Y478367D01*
X830802Y478331D01*
X830858Y478258D01*
X831694Y477458D01*
X831737Y477430D01*
X831807Y477372D01*
X832801Y476778D01*
X832848Y476760D01*
X832930Y476719D01*
X834031Y476361D01*
X834081Y476354D01*
X834170Y476332D01*
X835324Y476228D01*
X835374Y476232D01*
G37*
G36*
X1142003Y641358D02*
X1142003Y641358D01*
X1142092Y641356D01*
X1143282Y641513D01*
X1143330Y641528D01*
X1143420Y641547D01*
X1144545Y641965D01*
X1144589Y641991D01*
X1144672Y642029D01*
X1145676Y642687D01*
X1145713Y642722D01*
X1145786Y642778D01*
X1146618Y643642D01*
X1146646Y643684D01*
X1146705Y643755D01*
X1147324Y644783D01*
X1147342Y644831D01*
X1147383Y644912D01*
X1147758Y646053D01*
X1147765Y646103D01*
X1147787Y646192D01*
X1147899Y647387D01*
X1147894Y647437D01*
X1147896Y647526D01*
X1147749Y648677D01*
X1147734Y648725D01*
X1147716Y648815D01*
X1147317Y649905D01*
X1147291Y649948D01*
X1147253Y650032D01*
X1146621Y651005D01*
X1146587Y651042D01*
X1146531Y651115D01*
X1145699Y651923D01*
X1145657Y651952D01*
X1145586Y652010D01*
X1144595Y652613D01*
X1144548Y652631D01*
X1144466Y652673D01*
X1143365Y653040D01*
X1143315Y653047D01*
X1143226Y653070D01*
X1142071Y653183D01*
X1142021Y653179D01*
X1141925Y653180D01*
X1140727Y653019D01*
X1140679Y653004D01*
X1140589Y652985D01*
X1139457Y652561D01*
X1139413Y652536D01*
X1139330Y652497D01*
X1138320Y651832D01*
X1138284Y651797D01*
X1138211Y651741D01*
X1137375Y650869D01*
X1137347Y650827D01*
X1137288Y650756D01*
X1136667Y649719D01*
X1136649Y649672D01*
X1136608Y649590D01*
X1136233Y648440D01*
X1136226Y648390D01*
X1136204Y648301D01*
X1136095Y647097D01*
X1136099Y647047D01*
X1136098Y646955D01*
X1136253Y645807D01*
X1136268Y645759D01*
X1136287Y645670D01*
X1136694Y644586D01*
X1136720Y644542D01*
X1136758Y644459D01*
X1137396Y643493D01*
X1137430Y643456D01*
X1137487Y643384D01*
X1138323Y642583D01*
X1138365Y642555D01*
X1138436Y642497D01*
X1139430Y641903D01*
X1139477Y641885D01*
X1139559Y641844D01*
X1140660Y641486D01*
X1140710Y641479D01*
X1140799Y641457D01*
X1141952Y641353D01*
X1142003Y641358D01*
G37*
G36*
X761003Y641358D02*
X761003Y641358D01*
X761092Y641356D01*
X762282Y641513D01*
X762330Y641528D01*
X762420Y641547D01*
X763545Y641965D01*
X763589Y641991D01*
X763672Y642029D01*
X764676Y642687D01*
X764713Y642722D01*
X764786Y642778D01*
X765618Y643642D01*
X765646Y643684D01*
X765705Y643755D01*
X766324Y644783D01*
X766342Y644831D01*
X766383Y644912D01*
X766758Y646053D01*
X766765Y646103D01*
X766787Y646192D01*
X766899Y647387D01*
X766894Y647437D01*
X766896Y647526D01*
X766749Y648677D01*
X766734Y648725D01*
X766716Y648815D01*
X766317Y649905D01*
X766291Y649948D01*
X766253Y650032D01*
X765621Y651005D01*
X765587Y651042D01*
X765531Y651115D01*
X764699Y651923D01*
X764657Y651952D01*
X764586Y652010D01*
X763595Y652613D01*
X763548Y652631D01*
X763466Y652673D01*
X762365Y653040D01*
X762315Y653047D01*
X762226Y653070D01*
X761071Y653183D01*
X761021Y653179D01*
X760925Y653180D01*
X759727Y653019D01*
X759679Y653004D01*
X759589Y652985D01*
X758457Y652561D01*
X758413Y652536D01*
X758330Y652497D01*
X757320Y651832D01*
X757284Y651797D01*
X757211Y651741D01*
X756375Y650869D01*
X756347Y650827D01*
X756288Y650756D01*
X755667Y649719D01*
X755649Y649672D01*
X755608Y649590D01*
X755233Y648440D01*
X755226Y648390D01*
X755204Y648301D01*
X755095Y647097D01*
X755099Y647047D01*
X755098Y646955D01*
X755253Y645807D01*
X755268Y645759D01*
X755287Y645670D01*
X755694Y644586D01*
X755720Y644542D01*
X755758Y644459D01*
X756396Y643493D01*
X756430Y643456D01*
X756487Y643384D01*
X757323Y642583D01*
X757365Y642555D01*
X757436Y642497D01*
X758430Y641903D01*
X758477Y641885D01*
X758559Y641844D01*
X759660Y641486D01*
X759710Y641479D01*
X759799Y641457D01*
X760952Y641353D01*
X761003Y641358D01*
G37*
G36*
X1016984Y641332D02*
X1016984Y641332D01*
X1017074Y641331D01*
X1018264Y641488D01*
X1018312Y641503D01*
X1018401Y641522D01*
X1019527Y641940D01*
X1019570Y641966D01*
X1019653Y642004D01*
X1020658Y642662D01*
X1020694Y642696D01*
X1020767Y642752D01*
X1021599Y643617D01*
X1021627Y643659D01*
X1021686Y643730D01*
X1022305Y644758D01*
X1022323Y644805D01*
X1022364Y644887D01*
X1022739Y646027D01*
X1022746Y646077D01*
X1022768Y646166D01*
X1022880Y647362D01*
X1022876Y647412D01*
X1022878Y647501D01*
X1022731Y648652D01*
X1022716Y648700D01*
X1022697Y648790D01*
X1022298Y649879D01*
X1022272Y649923D01*
X1022234Y650007D01*
X1021602Y650980D01*
X1021568Y651017D01*
X1021512Y651090D01*
X1020680Y651898D01*
X1020638Y651926D01*
X1020567Y651985D01*
X1019576Y652588D01*
X1019529Y652606D01*
X1019447Y652648D01*
X1018346Y653015D01*
X1018296Y653022D01*
X1018207Y653044D01*
X1017052Y653157D01*
X1017002Y653153D01*
X1016906Y653155D01*
X1015708Y652994D01*
X1015660Y652978D01*
X1015570Y652959D01*
X1014438Y652536D01*
X1014395Y652510D01*
X1014311Y652472D01*
X1013302Y651807D01*
X1013265Y651772D01*
X1013192Y651716D01*
X1012356Y650843D01*
X1012328Y650801D01*
X1012270Y650730D01*
X1011648Y649693D01*
X1011630Y649646D01*
X1011589Y649564D01*
X1011214Y648415D01*
X1011207Y648365D01*
X1011186Y648276D01*
X1011076Y647072D01*
X1011080Y647021D01*
X1011079Y646929D01*
X1011234Y645782D01*
X1011249Y645734D01*
X1011269Y645644D01*
X1011675Y644560D01*
X1011701Y644517D01*
X1011739Y644434D01*
X1012377Y643467D01*
X1012412Y643431D01*
X1012468Y643358D01*
X1013304Y642558D01*
X1013347Y642530D01*
X1013417Y642472D01*
X1014411Y641878D01*
X1014458Y641860D01*
X1014540Y641819D01*
X1015641Y641461D01*
X1015691Y641454D01*
X1015780Y641432D01*
X1016934Y641328D01*
X1016984Y641332D01*
G37*
G36*
X635984Y641332D02*
X635984Y641332D01*
X636074Y641331D01*
X637264Y641488D01*
X637312Y641503D01*
X637401Y641522D01*
X638527Y641940D01*
X638570Y641966D01*
X638653Y642004D01*
X639658Y642662D01*
X639694Y642696D01*
X639767Y642752D01*
X640599Y643617D01*
X640627Y643659D01*
X640686Y643730D01*
X641305Y644758D01*
X641323Y644805D01*
X641364Y644887D01*
X641739Y646027D01*
X641746Y646077D01*
X641768Y646166D01*
X641880Y647362D01*
X641876Y647412D01*
X641878Y647501D01*
X641731Y648652D01*
X641716Y648700D01*
X641697Y648790D01*
X641298Y649879D01*
X641272Y649923D01*
X641234Y650007D01*
X640602Y650980D01*
X640568Y651017D01*
X640512Y651090D01*
X639680Y651898D01*
X639638Y651926D01*
X639567Y651985D01*
X638576Y652588D01*
X638529Y652606D01*
X638447Y652648D01*
X637346Y653015D01*
X637296Y653022D01*
X637207Y653044D01*
X636052Y653157D01*
X636002Y653153D01*
X635906Y653155D01*
X634708Y652994D01*
X634660Y652978D01*
X634570Y652959D01*
X633438Y652536D01*
X633395Y652510D01*
X633311Y652472D01*
X632302Y651807D01*
X632265Y651772D01*
X632192Y651716D01*
X631356Y650843D01*
X631328Y650801D01*
X631270Y650730D01*
X630648Y649693D01*
X630630Y649646D01*
X630589Y649564D01*
X630214Y648415D01*
X630207Y648365D01*
X630186Y648276D01*
X630076Y647072D01*
X630080Y647021D01*
X630079Y646929D01*
X630234Y645782D01*
X630249Y645734D01*
X630269Y645644D01*
X630675Y644560D01*
X630701Y644517D01*
X630739Y644434D01*
X631377Y643467D01*
X631412Y643431D01*
X631468Y643358D01*
X632304Y642558D01*
X632347Y642530D01*
X632417Y642472D01*
X633411Y641878D01*
X633458Y641860D01*
X633540Y641819D01*
X634641Y641461D01*
X634691Y641454D01*
X634780Y641432D01*
X635934Y641328D01*
X635984Y641332D01*
G37*
G36*
X960393Y476258D02*
X960393Y476258D01*
X960482Y476256D01*
X961672Y476413D01*
X961720Y476428D01*
X961810Y476447D01*
X962935Y476865D01*
X962979Y476891D01*
X963062Y476929D01*
X964066Y477587D01*
X964103Y477622D01*
X964176Y477678D01*
X965008Y478542D01*
X965036Y478584D01*
X965095Y478655D01*
X965714Y479683D01*
X965732Y479731D01*
X965773Y479812D01*
X966148Y480953D01*
X966155Y481003D01*
X966177Y481092D01*
X966289Y482287D01*
X966284Y482337D01*
X966286Y482426D01*
X966139Y483577D01*
X966124Y483625D01*
X966106Y483715D01*
X965707Y484805D01*
X965681Y484848D01*
X965643Y484932D01*
X965011Y485905D01*
X964977Y485942D01*
X964921Y486015D01*
X964089Y486823D01*
X964047Y486852D01*
X963976Y486910D01*
X962985Y487513D01*
X962938Y487531D01*
X962856Y487573D01*
X961755Y487940D01*
X961705Y487947D01*
X961616Y487970D01*
X960461Y488083D01*
X960411Y488079D01*
X960315Y488080D01*
X959117Y487919D01*
X959069Y487904D01*
X958979Y487885D01*
X957847Y487461D01*
X957803Y487436D01*
X957720Y487397D01*
X956710Y486732D01*
X956674Y486697D01*
X956601Y486641D01*
X955765Y485769D01*
X955737Y485727D01*
X955678Y485656D01*
X955057Y484619D01*
X955039Y484572D01*
X954998Y484490D01*
X954623Y483340D01*
X954616Y483290D01*
X954594Y483201D01*
X954485Y481997D01*
X954489Y481947D01*
X954488Y481855D01*
X954643Y480707D01*
X954658Y480659D01*
X954677Y480570D01*
X955084Y479486D01*
X955110Y479442D01*
X955148Y479359D01*
X955786Y478393D01*
X955820Y478356D01*
X955877Y478284D01*
X956713Y477483D01*
X956755Y477455D01*
X956826Y477397D01*
X957820Y476803D01*
X957867Y476785D01*
X957949Y476744D01*
X959050Y476386D01*
X959100Y476379D01*
X959189Y476357D01*
X960342Y476253D01*
X960393Y476258D01*
G37*
G36*
X1016958Y591421D02*
X1016958Y591421D01*
X1017048Y591420D01*
X1018238Y591577D01*
X1018286Y591592D01*
X1018376Y591611D01*
X1019501Y592029D01*
X1019545Y592055D01*
X1019628Y592093D01*
X1020632Y592751D01*
X1020669Y592785D01*
X1020741Y592841D01*
X1021574Y593706D01*
X1021602Y593748D01*
X1021660Y593819D01*
X1022280Y594847D01*
X1022298Y594894D01*
X1022339Y594976D01*
X1022714Y596116D01*
X1022721Y596166D01*
X1022743Y596255D01*
X1022855Y597451D01*
X1022850Y597501D01*
X1022852Y597590D01*
X1022705Y598741D01*
X1022690Y598789D01*
X1022672Y598879D01*
X1022272Y599968D01*
X1022247Y600012D01*
X1022209Y600096D01*
X1021577Y601069D01*
X1021542Y601106D01*
X1021487Y601179D01*
X1020654Y601987D01*
X1020612Y602015D01*
X1020542Y602074D01*
X1019550Y602677D01*
X1019503Y602695D01*
X1019422Y602737D01*
X1018321Y603104D01*
X1018271Y603111D01*
X1018182Y603133D01*
X1017027Y603246D01*
X1016977Y603242D01*
X1016881Y603244D01*
X1015683Y603083D01*
X1015635Y603067D01*
X1015545Y603048D01*
X1014413Y602625D01*
X1014369Y602599D01*
X1014286Y602561D01*
X1013276Y601896D01*
X1013239Y601861D01*
X1013167Y601805D01*
X1012330Y600932D01*
X1012303Y600890D01*
X1012244Y600819D01*
X1011623Y599782D01*
X1011605Y599735D01*
X1011564Y599653D01*
X1011189Y598504D01*
X1011182Y598454D01*
X1011160Y598365D01*
X1011050Y597161D01*
X1011055Y597110D01*
X1011053Y597018D01*
X1011209Y595871D01*
X1011224Y595823D01*
X1011243Y595733D01*
X1011650Y594649D01*
X1011675Y594606D01*
X1011714Y594523D01*
X1012352Y593556D01*
X1012386Y593520D01*
X1012442Y593447D01*
X1013279Y592647D01*
X1013321Y592619D01*
X1013392Y592561D01*
X1014386Y591967D01*
X1014433Y591949D01*
X1014515Y591908D01*
X1015616Y591550D01*
X1015666Y591543D01*
X1015755Y591521D01*
X1016908Y591417D01*
X1016958Y591421D01*
G37*
G36*
X761053Y591370D02*
X761053Y591370D01*
X761143Y591369D01*
X762333Y591526D01*
X762381Y591541D01*
X762471Y591560D01*
X763596Y591978D01*
X763640Y592004D01*
X763723Y592042D01*
X764727Y592700D01*
X764764Y592734D01*
X764836Y592790D01*
X765669Y593655D01*
X765697Y593697D01*
X765755Y593768D01*
X766375Y594796D01*
X766393Y594843D01*
X766434Y594925D01*
X766809Y596066D01*
X766816Y596116D01*
X766838Y596205D01*
X766950Y597400D01*
X766945Y597450D01*
X766947Y597539D01*
X766800Y598690D01*
X766785Y598738D01*
X766767Y598828D01*
X766367Y599918D01*
X766342Y599961D01*
X766304Y600045D01*
X765672Y601018D01*
X765637Y601055D01*
X765582Y601128D01*
X764749Y601936D01*
X764707Y601964D01*
X764637Y602023D01*
X763645Y602626D01*
X763598Y602644D01*
X763517Y602686D01*
X762416Y603053D01*
X762366Y603060D01*
X762277Y603082D01*
X761122Y603195D01*
X761072Y603191D01*
X760976Y603193D01*
X759778Y603032D01*
X759730Y603017D01*
X759640Y602998D01*
X758508Y602574D01*
X758464Y602548D01*
X758381Y602510D01*
X757371Y601845D01*
X757334Y601810D01*
X757262Y601754D01*
X756425Y600881D01*
X756398Y600839D01*
X756339Y600769D01*
X755718Y599732D01*
X755700Y599684D01*
X755659Y599602D01*
X755284Y598453D01*
X755277Y598403D01*
X755255Y598314D01*
X755145Y597110D01*
X755150Y597060D01*
X755148Y596967D01*
X755304Y595820D01*
X755319Y595772D01*
X755338Y595682D01*
X755745Y594598D01*
X755770Y594555D01*
X755809Y594472D01*
X756447Y593505D01*
X756481Y593469D01*
X756537Y593396D01*
X757374Y592596D01*
X757416Y592568D01*
X757487Y592510D01*
X758481Y591916D01*
X758528Y591898D01*
X758610Y591857D01*
X759711Y591499D01*
X759761Y591492D01*
X759850Y591470D01*
X761003Y591366D01*
X761053Y591370D01*
G37*
G36*
X1142053Y591370D02*
X1142053Y591370D01*
X1142143Y591369D01*
X1143333Y591526D01*
X1143381Y591541D01*
X1143471Y591560D01*
X1144596Y591978D01*
X1144640Y592004D01*
X1144723Y592042D01*
X1145727Y592700D01*
X1145764Y592734D01*
X1145836Y592790D01*
X1146669Y593655D01*
X1146697Y593697D01*
X1146755Y593768D01*
X1147375Y594796D01*
X1147393Y594843D01*
X1147434Y594925D01*
X1147809Y596066D01*
X1147816Y596116D01*
X1147838Y596205D01*
X1147950Y597400D01*
X1147945Y597450D01*
X1147947Y597539D01*
X1147800Y598690D01*
X1147785Y598738D01*
X1147767Y598828D01*
X1147367Y599918D01*
X1147342Y599961D01*
X1147304Y600045D01*
X1146672Y601018D01*
X1146637Y601055D01*
X1146582Y601128D01*
X1145749Y601936D01*
X1145707Y601964D01*
X1145637Y602023D01*
X1144645Y602626D01*
X1144598Y602644D01*
X1144517Y602686D01*
X1143416Y603053D01*
X1143366Y603060D01*
X1143277Y603082D01*
X1142122Y603195D01*
X1142072Y603191D01*
X1141976Y603193D01*
X1140778Y603032D01*
X1140730Y603017D01*
X1140640Y602998D01*
X1139508Y602574D01*
X1139464Y602548D01*
X1139381Y602510D01*
X1138371Y601845D01*
X1138334Y601810D01*
X1138262Y601754D01*
X1137425Y600881D01*
X1137398Y600839D01*
X1137339Y600769D01*
X1136718Y599732D01*
X1136700Y599684D01*
X1136659Y599602D01*
X1136284Y598453D01*
X1136277Y598403D01*
X1136255Y598314D01*
X1136145Y597110D01*
X1136150Y597060D01*
X1136148Y596967D01*
X1136304Y595820D01*
X1136319Y595772D01*
X1136338Y595682D01*
X1136745Y594598D01*
X1136770Y594555D01*
X1136809Y594472D01*
X1137447Y593505D01*
X1137481Y593469D01*
X1137537Y593396D01*
X1138374Y592596D01*
X1138416Y592568D01*
X1138487Y592510D01*
X1139481Y591916D01*
X1139528Y591898D01*
X1139610Y591857D01*
X1140711Y591499D01*
X1140761Y591492D01*
X1140850Y591470D01*
X1142003Y591366D01*
X1142053Y591370D01*
G37*
G36*
X698491Y550883D02*
X698491Y550883D01*
X698571Y550880D01*
X699306Y550963D01*
X699354Y550977D01*
X699444Y550994D01*
X700142Y551239D01*
X700186Y551263D01*
X700270Y551300D01*
X700896Y551694D01*
X700934Y551728D01*
X701007Y551782D01*
X701530Y552305D01*
X701559Y552346D01*
X701619Y552416D01*
X702012Y553042D01*
X702031Y553089D01*
X702037Y553100D01*
X702042Y553107D01*
X702045Y553116D01*
X702074Y553170D01*
X702318Y553868D01*
X702326Y553918D01*
X702333Y553946D01*
X702336Y553953D01*
X702336Y553955D01*
X702349Y554006D01*
X702432Y554741D01*
X702429Y554791D01*
X702431Y554895D01*
X702318Y555750D01*
X702305Y555792D01*
X702275Y555910D01*
X701946Y556706D01*
X701921Y556744D01*
X701863Y556849D01*
X701338Y557533D01*
X701305Y557563D01*
X701221Y557650D01*
X701127Y557722D01*
X701127Y557723D01*
X700537Y558175D01*
X700497Y558196D01*
X700394Y558258D01*
X699597Y558588D01*
X699553Y558597D01*
X699437Y558631D01*
X698583Y558743D01*
X698551Y558742D01*
X698406Y558741D01*
X697646Y558627D01*
X697598Y558611D01*
X697509Y558590D01*
X696793Y558310D01*
X696750Y558284D01*
X696668Y558244D01*
X696033Y557811D01*
X695997Y557776D01*
X695925Y557718D01*
X695402Y557155D01*
X695375Y557113D01*
X695318Y557041D01*
X694933Y556376D01*
X694916Y556328D01*
X694876Y556246D01*
X694650Y555512D01*
X694644Y555462D01*
X694640Y555445D01*
X694628Y555409D01*
X694628Y555394D01*
X694623Y555372D01*
X694566Y554606D01*
X694571Y554557D01*
X694573Y554450D01*
X694714Y553633D01*
X694729Y553591D01*
X694763Y553475D01*
X695111Y552722D01*
X695137Y552685D01*
X695200Y552582D01*
X695730Y551944D01*
X695765Y551916D01*
X695852Y551832D01*
X696530Y551354D01*
X696571Y551335D01*
X696676Y551277D01*
X697455Y550990D01*
X697499Y550983D01*
X697616Y550954D01*
X698442Y550879D01*
X698491Y550883D01*
G37*
G36*
X1079491Y550883D02*
X1079491Y550883D01*
X1079571Y550880D01*
X1080306Y550963D01*
X1080354Y550977D01*
X1080444Y550994D01*
X1081142Y551239D01*
X1081186Y551263D01*
X1081270Y551300D01*
X1081896Y551694D01*
X1081934Y551728D01*
X1082007Y551782D01*
X1082530Y552305D01*
X1082559Y552346D01*
X1082619Y552416D01*
X1083012Y553042D01*
X1083031Y553089D01*
X1083037Y553100D01*
X1083042Y553107D01*
X1083045Y553116D01*
X1083074Y553170D01*
X1083318Y553868D01*
X1083326Y553918D01*
X1083333Y553946D01*
X1083336Y553953D01*
X1083336Y553955D01*
X1083349Y554006D01*
X1083432Y554741D01*
X1083429Y554791D01*
X1083431Y554895D01*
X1083318Y555750D01*
X1083305Y555792D01*
X1083275Y555910D01*
X1082946Y556706D01*
X1082921Y556744D01*
X1082863Y556849D01*
X1082338Y557533D01*
X1082305Y557563D01*
X1082221Y557650D01*
X1082127Y557722D01*
X1082127Y557723D01*
X1081537Y558175D01*
X1081497Y558196D01*
X1081394Y558258D01*
X1080597Y558588D01*
X1080553Y558597D01*
X1080437Y558631D01*
X1079583Y558743D01*
X1079551Y558742D01*
X1079406Y558741D01*
X1078646Y558627D01*
X1078598Y558611D01*
X1078509Y558590D01*
X1077793Y558310D01*
X1077750Y558284D01*
X1077668Y558244D01*
X1077033Y557811D01*
X1076997Y557776D01*
X1076925Y557718D01*
X1076402Y557155D01*
X1076375Y557113D01*
X1076318Y557041D01*
X1075933Y556376D01*
X1075916Y556328D01*
X1075876Y556246D01*
X1075650Y555512D01*
X1075644Y555462D01*
X1075640Y555445D01*
X1075628Y555409D01*
X1075628Y555394D01*
X1075623Y555372D01*
X1075566Y554606D01*
X1075571Y554557D01*
X1075573Y554450D01*
X1075714Y553633D01*
X1075729Y553591D01*
X1075763Y553475D01*
X1076111Y552722D01*
X1076137Y552685D01*
X1076200Y552582D01*
X1076730Y551944D01*
X1076765Y551916D01*
X1076852Y551832D01*
X1077530Y551354D01*
X1077571Y551335D01*
X1077676Y551277D01*
X1078455Y550990D01*
X1078499Y550983D01*
X1078616Y550954D01*
X1079442Y550879D01*
X1079491Y550883D01*
G37*
G36*
X897881Y520835D02*
X897881Y520835D01*
X897961Y520832D01*
X898696Y520915D01*
X898744Y520929D01*
X898834Y520946D01*
X899532Y521190D01*
X899576Y521215D01*
X899660Y521252D01*
X900286Y521645D01*
X900324Y521679D01*
X900397Y521734D01*
X900920Y522257D01*
X900949Y522298D01*
X901009Y522368D01*
X901402Y522994D01*
X901421Y523041D01*
X901427Y523052D01*
X901432Y523059D01*
X901435Y523068D01*
X901464Y523122D01*
X901708Y523820D01*
X901716Y523870D01*
X901723Y523898D01*
X901726Y523905D01*
X901726Y523907D01*
X901739Y523958D01*
X901822Y524693D01*
X901819Y524742D01*
X901821Y524847D01*
X901708Y525701D01*
X901695Y525744D01*
X901665Y525861D01*
X901336Y526658D01*
X901311Y526696D01*
X901253Y526801D01*
X900728Y527485D01*
X900695Y527515D01*
X900611Y527602D01*
X900517Y527674D01*
X899927Y528127D01*
X899887Y528147D01*
X899784Y528210D01*
X898987Y528539D01*
X898943Y528549D01*
X898827Y528582D01*
X897973Y528695D01*
X897941Y528693D01*
X897796Y528693D01*
X897036Y528579D01*
X896988Y528563D01*
X896899Y528542D01*
X896183Y528262D01*
X896140Y528235D01*
X896058Y528196D01*
X895423Y527763D01*
X895387Y527728D01*
X895315Y527670D01*
X894792Y527107D01*
X894765Y527065D01*
X894708Y526993D01*
X894323Y526328D01*
X894306Y526280D01*
X894266Y526198D01*
X894040Y525463D01*
X894034Y525413D01*
X894030Y525397D01*
X894018Y525361D01*
X894018Y525346D01*
X894013Y525324D01*
X893956Y524558D01*
X893961Y524509D01*
X893963Y524402D01*
X894104Y523585D01*
X894119Y523543D01*
X894153Y523427D01*
X894501Y522674D01*
X894527Y522637D01*
X894590Y522534D01*
X895120Y521896D01*
X895155Y521867D01*
X895242Y521784D01*
X895920Y521306D01*
X895961Y521287D01*
X896066Y521229D01*
X896845Y520942D01*
X896889Y520934D01*
X897006Y520906D01*
X897832Y520830D01*
X897881Y520835D01*
G37*
G36*
X897881Y385783D02*
X897881Y385783D01*
X897961Y385780D01*
X898696Y385863D01*
X898744Y385877D01*
X898834Y385894D01*
X899532Y386139D01*
X899576Y386163D01*
X899660Y386200D01*
X900286Y386594D01*
X900324Y386628D01*
X900397Y386682D01*
X900920Y387205D01*
X900949Y387246D01*
X901009Y387316D01*
X901402Y387942D01*
X901421Y387989D01*
X901427Y388000D01*
X901432Y388007D01*
X901435Y388016D01*
X901464Y388070D01*
X901708Y388768D01*
X901716Y388818D01*
X901723Y388846D01*
X901726Y388853D01*
X901726Y388855D01*
X901739Y388906D01*
X901822Y389641D01*
X901819Y389691D01*
X901821Y389795D01*
X901708Y390650D01*
X901695Y390692D01*
X901665Y390810D01*
X901336Y391606D01*
X901311Y391644D01*
X901253Y391749D01*
X900728Y392433D01*
X900695Y392463D01*
X900611Y392550D01*
X900517Y392622D01*
X900517Y392623D01*
X899927Y393075D01*
X899887Y393096D01*
X899784Y393158D01*
X898987Y393488D01*
X898943Y393497D01*
X898827Y393531D01*
X897973Y393643D01*
X897941Y393642D01*
X897796Y393641D01*
X897036Y393527D01*
X896988Y393511D01*
X896899Y393490D01*
X896183Y393210D01*
X896140Y393184D01*
X896058Y393144D01*
X895423Y392711D01*
X895387Y392676D01*
X895315Y392618D01*
X894792Y392055D01*
X894765Y392013D01*
X894708Y391941D01*
X894323Y391276D01*
X894306Y391228D01*
X894266Y391146D01*
X894040Y390412D01*
X894034Y390362D01*
X894030Y390345D01*
X894018Y390309D01*
X894018Y390294D01*
X894013Y390272D01*
X893956Y389506D01*
X893961Y389457D01*
X893963Y389350D01*
X894104Y388533D01*
X894119Y388491D01*
X894153Y388375D01*
X894501Y387622D01*
X894527Y387585D01*
X894590Y387482D01*
X895120Y386844D01*
X895155Y386816D01*
X895242Y386732D01*
X895920Y386254D01*
X895961Y386235D01*
X896066Y386177D01*
X896845Y385890D01*
X896889Y385883D01*
X897006Y385854D01*
X897832Y385779D01*
X897881Y385783D01*
G37*
G36*
X1079491Y685935D02*
X1079491Y685935D01*
X1079571Y685932D01*
X1080306Y686015D01*
X1080354Y686029D01*
X1080444Y686046D01*
X1081142Y686290D01*
X1081186Y686315D01*
X1081270Y686352D01*
X1081896Y686745D01*
X1081934Y686779D01*
X1082007Y686834D01*
X1082530Y687357D01*
X1082559Y687398D01*
X1082619Y687468D01*
X1083012Y688094D01*
X1083031Y688141D01*
X1083037Y688152D01*
X1083042Y688159D01*
X1083045Y688168D01*
X1083074Y688222D01*
X1083318Y688920D01*
X1083326Y688970D01*
X1083333Y688998D01*
X1083336Y689005D01*
X1083336Y689007D01*
X1083349Y689058D01*
X1083432Y689793D01*
X1083429Y689842D01*
X1083431Y689947D01*
X1083318Y690801D01*
X1083305Y690844D01*
X1083275Y690961D01*
X1082946Y691758D01*
X1082921Y691796D01*
X1082863Y691901D01*
X1082338Y692585D01*
X1082305Y692615D01*
X1082221Y692702D01*
X1082127Y692774D01*
X1081537Y693227D01*
X1081497Y693247D01*
X1081394Y693310D01*
X1080597Y693639D01*
X1080553Y693649D01*
X1080437Y693682D01*
X1079583Y693795D01*
X1079551Y693793D01*
X1079406Y693793D01*
X1078646Y693679D01*
X1078598Y693663D01*
X1078509Y693642D01*
X1077793Y693362D01*
X1077750Y693335D01*
X1077668Y693296D01*
X1077033Y692863D01*
X1076997Y692828D01*
X1076925Y692770D01*
X1076402Y692207D01*
X1076375Y692165D01*
X1076318Y692093D01*
X1075933Y691428D01*
X1075916Y691380D01*
X1075876Y691298D01*
X1075650Y690563D01*
X1075644Y690513D01*
X1075640Y690497D01*
X1075628Y690461D01*
X1075628Y690446D01*
X1075623Y690424D01*
X1075566Y689658D01*
X1075571Y689609D01*
X1075573Y689502D01*
X1075714Y688685D01*
X1075729Y688643D01*
X1075763Y688527D01*
X1076111Y687774D01*
X1076137Y687737D01*
X1076200Y687634D01*
X1076730Y686996D01*
X1076765Y686967D01*
X1076852Y686884D01*
X1077530Y686406D01*
X1077571Y686387D01*
X1077676Y686329D01*
X1078455Y686042D01*
X1078499Y686034D01*
X1078616Y686006D01*
X1079442Y685930D01*
X1079491Y685935D01*
G37*
G36*
X698491Y685935D02*
X698491Y685935D01*
X698571Y685932D01*
X699306Y686015D01*
X699354Y686029D01*
X699444Y686046D01*
X700142Y686290D01*
X700186Y686315D01*
X700270Y686352D01*
X700896Y686745D01*
X700934Y686779D01*
X701007Y686834D01*
X701530Y687357D01*
X701559Y687398D01*
X701619Y687468D01*
X702012Y688094D01*
X702031Y688141D01*
X702037Y688152D01*
X702042Y688159D01*
X702045Y688168D01*
X702074Y688222D01*
X702318Y688920D01*
X702326Y688970D01*
X702333Y688998D01*
X702336Y689005D01*
X702336Y689007D01*
X702349Y689058D01*
X702432Y689793D01*
X702429Y689842D01*
X702431Y689947D01*
X702318Y690801D01*
X702305Y690844D01*
X702275Y690961D01*
X701946Y691758D01*
X701921Y691796D01*
X701863Y691901D01*
X701338Y692585D01*
X701305Y692615D01*
X701221Y692702D01*
X701127Y692774D01*
X700537Y693227D01*
X700497Y693247D01*
X700394Y693310D01*
X699597Y693639D01*
X699553Y693649D01*
X699437Y693682D01*
X698583Y693795D01*
X698551Y693793D01*
X698406Y693793D01*
X697646Y693679D01*
X697598Y693663D01*
X697509Y693642D01*
X696793Y693362D01*
X696750Y693335D01*
X696668Y693296D01*
X696033Y692863D01*
X695997Y692828D01*
X695925Y692770D01*
X695402Y692207D01*
X695375Y692165D01*
X695318Y692093D01*
X694933Y691428D01*
X694916Y691380D01*
X694876Y691298D01*
X694650Y690563D01*
X694644Y690513D01*
X694640Y690497D01*
X694628Y690461D01*
X694628Y690446D01*
X694623Y690424D01*
X694566Y689658D01*
X694571Y689609D01*
X694573Y689502D01*
X694714Y688685D01*
X694729Y688643D01*
X694763Y688527D01*
X695111Y687774D01*
X695137Y687737D01*
X695200Y687634D01*
X695730Y686996D01*
X695765Y686967D01*
X695852Y686884D01*
X696530Y686406D01*
X696571Y686387D01*
X696676Y686329D01*
X697455Y686042D01*
X697499Y686034D01*
X697616Y686006D01*
X698442Y685930D01*
X698491Y685935D01*
G37*
G36*
X894071Y727413D02*
X894071Y727413D01*
X894151Y727410D01*
X894886Y727493D01*
X894934Y727507D01*
X895024Y727524D01*
X895722Y727769D01*
X895766Y727793D01*
X895850Y727830D01*
X896476Y728224D01*
X896514Y728258D01*
X896587Y728312D01*
X897110Y728835D01*
X897139Y728876D01*
X897199Y728946D01*
X897592Y729572D01*
X897611Y729619D01*
X897617Y729630D01*
X897622Y729637D01*
X897625Y729646D01*
X897654Y729700D01*
X897898Y730398D01*
X897906Y730448D01*
X897913Y730476D01*
X897916Y730483D01*
X897916Y730485D01*
X897929Y730536D01*
X898012Y731271D01*
X898009Y731321D01*
X898011Y731425D01*
X897898Y732280D01*
X897885Y732322D01*
X897855Y732440D01*
X897526Y733236D01*
X897501Y733274D01*
X897443Y733379D01*
X896918Y734063D01*
X896885Y734093D01*
X896801Y734180D01*
X896707Y734252D01*
X896707Y734253D01*
X896117Y734705D01*
X896077Y734726D01*
X895974Y734788D01*
X895177Y735118D01*
X895133Y735127D01*
X895017Y735161D01*
X894163Y735273D01*
X894131Y735272D01*
X893986Y735271D01*
X893226Y735157D01*
X893178Y735141D01*
X893089Y735120D01*
X892373Y734840D01*
X892330Y734814D01*
X892248Y734774D01*
X891613Y734341D01*
X891577Y734306D01*
X891505Y734248D01*
X890982Y733685D01*
X890955Y733643D01*
X890898Y733571D01*
X890513Y732906D01*
X890496Y732858D01*
X890456Y732776D01*
X890230Y732042D01*
X890224Y731992D01*
X890220Y731975D01*
X890208Y731939D01*
X890208Y731924D01*
X890203Y731902D01*
X890146Y731136D01*
X890151Y731087D01*
X890153Y730980D01*
X890294Y730163D01*
X890309Y730121D01*
X890343Y730005D01*
X890691Y729252D01*
X890717Y729215D01*
X890780Y729112D01*
X891310Y728474D01*
X891345Y728446D01*
X891432Y728362D01*
X892110Y727884D01*
X892151Y727865D01*
X892256Y727807D01*
X893035Y727520D01*
X893079Y727513D01*
X893196Y727484D01*
X894022Y727409D01*
X894071Y727413D01*
G37*
G36*
X894071Y862465D02*
X894071Y862465D01*
X894151Y862462D01*
X894886Y862545D01*
X894934Y862559D01*
X895024Y862576D01*
X895722Y862820D01*
X895766Y862845D01*
X895850Y862882D01*
X896476Y863275D01*
X896514Y863309D01*
X896587Y863364D01*
X897110Y863887D01*
X897139Y863928D01*
X897199Y863998D01*
X897592Y864624D01*
X897611Y864671D01*
X897617Y864682D01*
X897622Y864688D01*
X897625Y864698D01*
X897654Y864752D01*
X897898Y865450D01*
X897906Y865500D01*
X897913Y865528D01*
X897916Y865535D01*
X897916Y865537D01*
X897929Y865588D01*
X898012Y866323D01*
X898009Y866372D01*
X898011Y866477D01*
X897898Y867331D01*
X897885Y867374D01*
X897855Y867491D01*
X897526Y868288D01*
X897501Y868326D01*
X897443Y868431D01*
X896918Y869115D01*
X896885Y869145D01*
X896801Y869232D01*
X896707Y869304D01*
X896117Y869757D01*
X896077Y869777D01*
X895974Y869840D01*
X895177Y870169D01*
X895133Y870179D01*
X895017Y870212D01*
X894163Y870325D01*
X894131Y870323D01*
X893986Y870323D01*
X893226Y870209D01*
X893178Y870193D01*
X893089Y870172D01*
X892373Y869892D01*
X892330Y869865D01*
X892248Y869826D01*
X891613Y869393D01*
X891577Y869358D01*
X891505Y869300D01*
X890982Y868737D01*
X890955Y868695D01*
X890898Y868623D01*
X890513Y867958D01*
X890496Y867910D01*
X890456Y867828D01*
X890230Y867093D01*
X890224Y867043D01*
X890220Y867027D01*
X890208Y866991D01*
X890208Y866976D01*
X890203Y866954D01*
X890146Y866188D01*
X890151Y866139D01*
X890153Y866032D01*
X890294Y865215D01*
X890309Y865173D01*
X890343Y865057D01*
X890691Y864304D01*
X890717Y864267D01*
X890780Y864164D01*
X891310Y863526D01*
X891345Y863497D01*
X891432Y863414D01*
X892110Y862936D01*
X892151Y862917D01*
X892256Y862859D01*
X893035Y862572D01*
X893079Y862564D01*
X893196Y862536D01*
X894022Y862460D01*
X894071Y862465D01*
G37*
D10*
X894080Y843830D03*
X894080Y753830D03*
X1079500Y667300D03*
X1079500Y577300D03*
D11*
X1047750Y862330D03*
X1047750Y836930D03*
X1022350Y836930D03*
X1022350Y862330D03*
D12*
G36*
X128739Y935945D02*
X114222Y950462D01*
X123437Y959677D01*
X137954Y945160D01*
X128739Y935945D01*
G37*
G36*
X175762Y888922D02*
X161245Y903439D01*
X170460Y912654D01*
X184977Y898137D01*
X175762Y888922D01*
G37*
G36*
X108940Y916146D02*
X94423Y930663D01*
X103638Y939878D01*
X118155Y925361D01*
X108940Y916146D01*
G37*
G36*
X118840Y926045D02*
X104323Y940562D01*
X113538Y949777D01*
X128055Y935260D01*
X118840Y926045D01*
G37*
G36*
X155963Y869123D02*
X141446Y883640D01*
X150661Y892855D01*
X165178Y878338D01*
X155963Y869123D01*
G37*
G36*
X165862Y879023D02*
X151345Y893540D01*
X160560Y902755D01*
X175077Y888238D01*
X165862Y879023D01*
G37*
D13*
G36*
X168551Y928379D02*
X153679Y943251D01*
X169257Y958829D01*
X184129Y943957D01*
X168551Y928379D01*
G37*
G36*
X110143Y869971D02*
X95271Y884843D01*
X110849Y900421D01*
X125721Y885549D01*
X110143Y869971D01*
G37*
D14*
X153135Y927835D03*
D15*
X126265Y900965D03*
D10*
X698500Y667300D03*
X698500Y577300D03*
D11*
X571500Y914400D03*
X596900Y914400D03*
X622300Y914400D03*
D16*
X546100Y1066800D03*
D17*
X531600Y1056800D03*
X531600Y1066800D03*
X531600Y1076800D03*
X560600Y1056800D03*
X560600Y1066800D03*
X560600Y1076800D03*
D18*
X418040Y1042130D03*
X392640Y1042130D03*
X367240Y1042130D03*
X341840Y1042130D03*
D19*
X276840Y806130D03*
X483840Y806130D03*
X483840Y1039130D03*
X276840Y1039130D03*
D10*
X897890Y502200D03*
X897890Y412200D03*
D11*
X270510Y82550D03*
D20*
G36*
X195694Y365007D02*
X181978Y341251D01*
X167022Y349887D01*
X180738Y373643D01*
X195694Y365007D01*
G37*
G36*
X171564Y323213D02*
X157848Y299457D01*
X142892Y308093D01*
X156608Y331849D01*
X171564Y323213D01*
G37*
G36*
X189019Y337187D02*
X202735Y360943D01*
X217691Y352307D01*
X203975Y328551D01*
X189019Y337187D01*
G37*
G36*
X193561Y310513D02*
X179845Y286757D01*
X164889Y295393D01*
X178605Y319149D01*
X193561Y310513D01*
G37*
D21*
G36*
X208476Y320087D02*
X224731Y348243D01*
X239688Y339607D01*
X223433Y311451D01*
X208476Y320087D01*
G37*
G36*
X218098Y302213D02*
X201843Y274057D01*
X186886Y282693D01*
X203141Y310849D01*
X218098Y302213D01*
G37*
G36*
X230473Y307387D02*
X246728Y335543D01*
X261685Y326907D01*
X245430Y298751D01*
X230473Y307387D01*
G37*
G36*
X240095Y289513D02*
X223840Y261357D01*
X208883Y269993D01*
X225138Y298149D01*
X240095Y289513D01*
G37*
G36*
X252470Y294687D02*
X268725Y322843D01*
X283682Y314207D01*
X267427Y286051D01*
X252470Y294687D01*
G37*
G36*
X262092Y276813D02*
X245837Y248657D01*
X230880Y257293D01*
X247135Y285449D01*
X262092Y276813D01*
G37*
G36*
X274467Y281987D02*
X290722Y310143D01*
X305679Y301507D01*
X289424Y273351D01*
X274467Y281987D01*
G37*
G36*
X284089Y264113D02*
X267834Y235957D01*
X252877Y244593D01*
X269132Y272749D01*
X284089Y264113D01*
G37*
G36*
X296464Y269287D02*
X312719Y297443D01*
X327676Y288807D01*
X311421Y260651D01*
X296464Y269287D01*
G37*
G36*
X306086Y251413D02*
X289831Y223257D01*
X274874Y231893D01*
X291129Y260049D01*
X306086Y251413D01*
G37*
G36*
X318461Y256587D02*
X334716Y284743D01*
X349673Y276107D01*
X333418Y247951D01*
X318461Y256587D01*
G37*
G36*
X328083Y238713D02*
X311828Y210557D01*
X296871Y219193D01*
X313126Y247349D01*
X328083Y238713D01*
G37*
G36*
X340458Y243887D02*
X356713Y272043D01*
X371670Y263407D01*
X355415Y235251D01*
X340458Y243887D01*
G37*
G36*
X350080Y226013D02*
X333825Y197857D01*
X318868Y206493D01*
X335123Y234649D01*
X350080Y226013D01*
G37*
G36*
X362455Y231187D02*
X378710Y259343D01*
X393667Y250707D01*
X377412Y222551D01*
X362455Y231187D01*
G37*
G36*
X372077Y213313D02*
X355822Y185157D01*
X340865Y193793D01*
X357120Y221949D01*
X372077Y213313D01*
G37*
G36*
X384452Y218487D02*
X400707Y246643D01*
X415664Y238007D01*
X399409Y209851D01*
X384452Y218487D01*
G37*
G36*
X394074Y200613D02*
X377819Y172457D01*
X362862Y181093D01*
X379117Y209249D01*
X394074Y200613D01*
G37*
G36*
X406449Y205787D02*
X422704Y233943D01*
X437661Y225307D01*
X421406Y197151D01*
X406449Y205787D01*
G37*
G36*
X416071Y187913D02*
X399816Y159757D01*
X384859Y168393D01*
X401114Y196549D01*
X416071Y187913D01*
G37*
G36*
X428446Y193087D02*
X444701Y221243D01*
X459658Y212607D01*
X443403Y184451D01*
X428446Y193087D01*
G37*
G36*
X438068Y175213D02*
X421813Y147057D01*
X406856Y155693D01*
X423111Y183849D01*
X438068Y175213D01*
G37*
G36*
X450443Y180387D02*
X466698Y208543D01*
X481655Y199907D01*
X465400Y171751D01*
X450443Y180387D01*
G37*
G36*
X460065Y162513D02*
X443810Y134357D01*
X428853Y142993D01*
X445108Y171149D01*
X460065Y162513D01*
G37*
D20*
G36*
X474980Y172087D02*
X488696Y195843D01*
X503652Y187207D01*
X489936Y163451D01*
X474980Y172087D01*
G37*
G36*
X479522Y145413D02*
X465806Y121657D01*
X450850Y130293D01*
X464566Y154049D01*
X479522Y145413D01*
G37*
G36*
X496977Y159387D02*
X510693Y183143D01*
X525649Y174507D01*
X511933Y150751D01*
X496977Y159387D01*
G37*
G36*
X501519Y132713D02*
X487803Y108957D01*
X472847Y117593D01*
X486563Y141349D01*
X501519Y132713D01*
G37*
G36*
X615819Y330686D02*
X602103Y306930D01*
X587147Y315566D01*
X600863Y339322D01*
X615819Y330686D01*
G37*
G36*
X611277Y357361D02*
X624993Y381117D01*
X639949Y372481D01*
X626233Y348725D01*
X611277Y357361D01*
G37*
G36*
X593822Y343386D02*
X580106Y319630D01*
X565150Y328266D01*
X578866Y352022D01*
X593822Y343386D01*
G37*
G36*
X589280Y370061D02*
X602996Y393817D01*
X617952Y385181D01*
X604236Y361425D01*
X589280Y370061D01*
G37*
D21*
G36*
X574365Y360486D02*
X558110Y332330D01*
X543153Y340966D01*
X559408Y369122D01*
X574365Y360486D01*
G37*
G36*
X564743Y378361D02*
X580998Y406517D01*
X595955Y397881D01*
X579700Y369725D01*
X564743Y378361D01*
G37*
G36*
X552368Y373186D02*
X536113Y345030D01*
X521156Y353666D01*
X537411Y381822D01*
X552368Y373186D01*
G37*
G36*
X542746Y391061D02*
X559001Y419217D01*
X573958Y410581D01*
X557703Y382425D01*
X542746Y391061D01*
G37*
G36*
X530371Y385886D02*
X514116Y357730D01*
X499159Y366366D01*
X515414Y394522D01*
X530371Y385886D01*
G37*
G36*
X520749Y403761D02*
X537004Y431917D01*
X551961Y423281D01*
X535706Y395125D01*
X520749Y403761D01*
G37*
G36*
X508374Y398586D02*
X492119Y370430D01*
X477162Y379066D01*
X493417Y407222D01*
X508374Y398586D01*
G37*
G36*
X498752Y416461D02*
X515007Y444617D01*
X529964Y435981D01*
X513709Y407825D01*
X498752Y416461D01*
G37*
G36*
X486377Y411286D02*
X470122Y383130D01*
X455165Y391766D01*
X471420Y419922D01*
X486377Y411286D01*
G37*
G36*
X476755Y429161D02*
X493010Y457317D01*
X507967Y448681D01*
X491712Y420525D01*
X476755Y429161D01*
G37*
G36*
X464380Y423986D02*
X448125Y395830D01*
X433168Y404466D01*
X449423Y432622D01*
X464380Y423986D01*
G37*
G36*
X454758Y441861D02*
X471013Y470017D01*
X485970Y461381D01*
X469715Y433225D01*
X454758Y441861D01*
G37*
G36*
X442383Y436686D02*
X426128Y408530D01*
X411171Y417166D01*
X427426Y445322D01*
X442383Y436686D01*
G37*
G36*
X432761Y454561D02*
X449016Y482717D01*
X463973Y474081D01*
X447718Y445925D01*
X432761Y454561D01*
G37*
G36*
X420386Y449386D02*
X404131Y421230D01*
X389174Y429866D01*
X405429Y458022D01*
X420386Y449386D01*
G37*
G36*
X410764Y467261D02*
X427019Y495417D01*
X441976Y486781D01*
X425721Y458625D01*
X410764Y467261D01*
G37*
D20*
G36*
X395849Y457686D02*
X382133Y433930D01*
X367177Y442566D01*
X380893Y466322D01*
X395849Y457686D01*
G37*
G36*
X391307Y484361D02*
X405023Y508117D01*
X419979Y499481D01*
X406263Y475725D01*
X391307Y484361D01*
G37*
G36*
X373852Y470386D02*
X360136Y446630D01*
X345180Y455266D01*
X358896Y479022D01*
X373852Y470386D01*
G37*
G36*
X397982Y512181D02*
X384266Y488425D01*
X369310Y497061D01*
X383026Y520817D01*
X397982Y512181D01*
G37*
D22*
X382579Y477373D03*
X602550Y350373D03*
X180291Y330200D03*
X488250Y152400D03*
M02*
