G04 EAGLE Gerber RS-274X export*
G75*
%MOMM*%
%FSLAX34Y34*%
%LPD*%
%AMOC8*
5,1,8,0,0,1.08239X$1,22.5*%
G01*
%ADD10C,2.159000*%
%ADD11C,1.676400*%
%ADD12C,1.879600*%
%ADD13R,1.850000X1.100000*%
%ADD14R,1.900000X2.000000*%
%ADD15R,0.850000X0.450000*%
%ADD16R,1.600000X2.500000*%
%ADD17C,1.778000*%
%ADD18C,1.625600*%
%ADD19C,1.669600*%
%ADD20C,0.304800*%
%ADD21C,0.906400*%
%ADD22C,0.756400*%
%ADD23C,0.508000*%
%ADD24C,1.050000*%
%ADD25C,0.203200*%
%ADD26C,0.706400*%
%ADD27C,1.016000*%
%ADD28C,1.500000*%

G36*
X554177Y36340D02*
X554177Y36340D01*
X554324Y36351D01*
X554350Y36359D01*
X554377Y36363D01*
X554516Y36412D01*
X554656Y36457D01*
X554679Y36471D01*
X554705Y36480D01*
X554829Y36560D01*
X554955Y36635D01*
X554975Y36654D01*
X554998Y36669D01*
X555101Y36775D01*
X555206Y36877D01*
X555225Y36904D01*
X555240Y36920D01*
X555265Y36962D01*
X555346Y37078D01*
X721012Y320718D01*
X721030Y320758D01*
X721104Y320903D01*
X721293Y321360D01*
X721380Y321447D01*
X721426Y321504D01*
X721479Y321555D01*
X721569Y321685D01*
X721597Y321720D01*
X721604Y321735D01*
X721618Y321756D01*
X721680Y321862D01*
X722074Y322161D01*
X722105Y322191D01*
X722230Y322297D01*
X722580Y322647D01*
X722693Y322693D01*
X722757Y322729D01*
X722825Y322756D01*
X722958Y322841D01*
X722998Y322863D01*
X723010Y322874D01*
X723031Y322888D01*
X723129Y322962D01*
X723607Y323087D01*
X723648Y323103D01*
X723803Y323153D01*
X724260Y323343D01*
X724383Y323343D01*
X724456Y323351D01*
X724529Y323350D01*
X724684Y323377D01*
X724729Y323383D01*
X724745Y323388D01*
X724770Y323393D01*
X724888Y323424D01*
X725379Y323357D01*
X725422Y323356D01*
X725585Y323343D01*
X1056944Y323343D01*
X1057091Y323360D01*
X1057240Y323372D01*
X1057265Y323380D01*
X1057291Y323383D01*
X1057430Y323433D01*
X1057572Y323478D01*
X1057594Y323491D01*
X1057619Y323500D01*
X1057744Y323581D01*
X1057871Y323657D01*
X1057889Y323675D01*
X1057911Y323689D01*
X1058015Y323796D01*
X1058121Y323899D01*
X1058139Y323925D01*
X1058154Y323940D01*
X1058178Y323981D01*
X1058261Y324100D01*
X1227121Y614288D01*
X1227162Y614384D01*
X1227213Y614475D01*
X1227232Y614543D01*
X1227260Y614608D01*
X1227279Y614710D01*
X1227308Y614811D01*
X1227315Y614904D01*
X1227324Y614950D01*
X1227322Y614988D01*
X1227327Y615055D01*
X1227327Y623173D01*
X1227315Y623281D01*
X1227312Y623391D01*
X1227295Y623454D01*
X1227287Y623519D01*
X1227250Y623622D01*
X1227222Y623728D01*
X1227185Y623805D01*
X1227170Y623847D01*
X1227148Y623881D01*
X1227115Y623948D01*
X1057014Y911619D01*
X1056927Y911734D01*
X1056846Y911851D01*
X1056822Y911872D01*
X1056803Y911897D01*
X1056693Y911988D01*
X1056587Y912084D01*
X1056559Y912100D01*
X1056535Y912120D01*
X1056407Y912184D01*
X1056282Y912253D01*
X1056252Y912261D01*
X1056223Y912275D01*
X1056084Y912309D01*
X1055946Y912348D01*
X1055908Y912351D01*
X1055884Y912356D01*
X1055835Y912357D01*
X1055703Y912367D01*
X726851Y912367D01*
X726808Y912362D01*
X726647Y912353D01*
X726153Y912287D01*
X726038Y912317D01*
X725965Y912327D01*
X725893Y912348D01*
X725738Y912360D01*
X725693Y912367D01*
X725676Y912365D01*
X725650Y912367D01*
X725530Y912367D01*
X725070Y912558D01*
X725028Y912570D01*
X724876Y912623D01*
X724394Y912750D01*
X724300Y912823D01*
X724236Y912861D01*
X724178Y912906D01*
X724040Y912977D01*
X724000Y913001D01*
X723983Y913006D01*
X723960Y913018D01*
X723850Y913063D01*
X723498Y913416D01*
X723463Y913443D01*
X723343Y913551D01*
X722947Y913852D01*
X722887Y913955D01*
X722842Y914014D01*
X722806Y914079D01*
X722706Y914198D01*
X722678Y914234D01*
X722665Y914245D01*
X722648Y914265D01*
X722563Y914350D01*
X722373Y914810D01*
X722351Y914848D01*
X722282Y914994D01*
X554073Y1203711D01*
X553984Y1203830D01*
X553899Y1203951D01*
X553880Y1203969D01*
X553864Y1203990D01*
X553750Y1204085D01*
X553641Y1204184D01*
X553617Y1204197D01*
X553597Y1204214D01*
X553466Y1204281D01*
X553336Y1204353D01*
X553310Y1204360D01*
X553286Y1204372D01*
X553143Y1204407D01*
X553000Y1204448D01*
X552968Y1204450D01*
X552948Y1204455D01*
X552900Y1204456D01*
X552756Y1204467D01*
X219424Y1204467D01*
X219274Y1204450D01*
X219122Y1204437D01*
X219101Y1204430D01*
X219078Y1204427D01*
X218935Y1204376D01*
X218791Y1204329D01*
X218771Y1204318D01*
X218750Y1204310D01*
X218622Y1204227D01*
X218492Y1204149D01*
X218476Y1204133D01*
X218457Y1204121D01*
X218351Y1204011D01*
X218243Y1203906D01*
X218228Y1203883D01*
X218215Y1203870D01*
X218191Y1203830D01*
X218104Y1203704D01*
X51766Y914801D01*
X51726Y914708D01*
X51677Y914620D01*
X51657Y914549D01*
X51628Y914481D01*
X51610Y914381D01*
X51582Y914284D01*
X51574Y914185D01*
X51566Y914138D01*
X51568Y914102D01*
X51563Y914041D01*
X51563Y904586D01*
X51570Y904525D01*
X51570Y904523D01*
X51571Y904513D01*
X51574Y904489D01*
X51575Y904391D01*
X51594Y904316D01*
X51603Y904239D01*
X51619Y904194D01*
X51621Y904178D01*
X51639Y904134D01*
X51659Y904053D01*
X51704Y903958D01*
X51720Y903911D01*
X51739Y903883D01*
X51740Y903880D01*
X51750Y903854D01*
X51755Y903847D01*
X51763Y903831D01*
X210577Y625277D01*
X210625Y625211D01*
X210664Y625140D01*
X210754Y625035D01*
X210783Y624996D01*
X210800Y624981D01*
X210823Y624954D01*
X210887Y624890D01*
X211088Y624404D01*
X211112Y624361D01*
X211172Y624232D01*
X211433Y623775D01*
X211444Y623685D01*
X211464Y623606D01*
X211473Y623526D01*
X211515Y623394D01*
X211527Y623347D01*
X211537Y623327D01*
X211548Y623293D01*
X211583Y623210D01*
X211583Y622683D01*
X211588Y622635D01*
X211595Y622492D01*
X211661Y621970D01*
X211637Y621883D01*
X211624Y621803D01*
X211602Y621724D01*
X211591Y621587D01*
X211584Y621538D01*
X211586Y621516D01*
X211583Y621481D01*
X211583Y616744D01*
X211591Y616669D01*
X211590Y616594D01*
X211617Y616444D01*
X211623Y616398D01*
X211629Y616381D01*
X211634Y616354D01*
X211663Y616242D01*
X211596Y615745D01*
X211595Y615700D01*
X211583Y615542D01*
X211583Y615040D01*
X211538Y614934D01*
X211518Y614861D01*
X211488Y614793D01*
X211456Y614643D01*
X211443Y614598D01*
X211442Y614580D01*
X211436Y614554D01*
X211421Y614439D01*
X211169Y614005D01*
X211151Y613964D01*
X211078Y613823D01*
X210887Y613360D01*
X210805Y613278D01*
X210758Y613219D01*
X210704Y613167D01*
X210617Y613041D01*
X210588Y613005D01*
X210580Y612989D01*
X210565Y612966D01*
X68691Y368811D01*
X68660Y368740D01*
X68620Y368673D01*
X68590Y368581D01*
X68552Y368492D01*
X68537Y368415D01*
X68514Y368341D01*
X68506Y368245D01*
X68488Y368149D01*
X68492Y368071D01*
X68486Y367994D01*
X68500Y367898D01*
X68505Y367801D01*
X68526Y367726D01*
X68537Y367649D01*
X68573Y367559D01*
X68600Y367466D01*
X68637Y367398D01*
X68666Y367325D01*
X68721Y367246D01*
X68768Y367161D01*
X68821Y367103D01*
X68865Y367039D01*
X68937Y366974D01*
X69002Y366902D01*
X69066Y366858D01*
X69124Y366806D01*
X69209Y366759D01*
X69288Y366703D01*
X69361Y366675D01*
X69429Y366637D01*
X69522Y366611D01*
X69612Y366575D01*
X69689Y366564D01*
X69764Y366542D01*
X69910Y366531D01*
X69957Y366524D01*
X69977Y366525D01*
X70008Y366523D01*
X229510Y366523D01*
X231190Y365827D01*
X232528Y364488D01*
X232537Y364471D01*
X232553Y364453D01*
X232565Y364432D01*
X232647Y364341D01*
X232649Y364338D01*
X232653Y364335D01*
X232666Y364320D01*
X232763Y364206D01*
X232782Y364192D01*
X232799Y364174D01*
X232922Y364088D01*
X233043Y363999D01*
X233066Y363989D01*
X233085Y363975D01*
X233225Y363920D01*
X233363Y363861D01*
X233387Y363856D01*
X233409Y363848D01*
X233558Y363826D01*
X233706Y363799D01*
X233731Y363800D01*
X233754Y363797D01*
X233904Y363809D01*
X234054Y363817D01*
X234078Y363824D01*
X234102Y363826D01*
X234245Y363872D01*
X234389Y363913D01*
X234410Y363925D01*
X234433Y363933D01*
X234562Y364010D01*
X234694Y364084D01*
X234716Y364102D01*
X234732Y364112D01*
X234766Y364145D01*
X234784Y364160D01*
X234795Y364168D01*
X234808Y364181D01*
X234880Y364242D01*
X238059Y367422D01*
X242634Y369317D01*
X247586Y369317D01*
X252401Y367322D01*
X252546Y367281D01*
X252689Y367235D01*
X252713Y367233D01*
X252736Y367226D01*
X252887Y367219D01*
X253036Y367207D01*
X253060Y367211D01*
X253084Y367210D01*
X253232Y367236D01*
X253381Y367259D01*
X253403Y367268D01*
X253427Y367272D01*
X253565Y367332D01*
X253705Y367388D01*
X253725Y367401D01*
X253747Y367411D01*
X253868Y367501D01*
X253991Y367586D01*
X254007Y367604D01*
X254027Y367619D01*
X254124Y367734D01*
X254224Y367845D01*
X254236Y367866D01*
X254252Y367885D01*
X254320Y368018D01*
X254393Y368150D01*
X254399Y368174D01*
X254410Y368195D01*
X254447Y368341D01*
X254488Y368486D01*
X254490Y368515D01*
X254495Y368533D01*
X254495Y368580D01*
X254507Y368729D01*
X254507Y391066D01*
X325689Y462248D01*
X325768Y462347D01*
X325852Y462440D01*
X325876Y462483D01*
X325906Y462521D01*
X325960Y462635D01*
X326021Y462745D01*
X326034Y462792D01*
X326055Y462836D01*
X326081Y462959D01*
X326116Y463081D01*
X326121Y463142D01*
X326128Y463176D01*
X326127Y463224D01*
X326135Y463325D01*
X326135Y656815D01*
X326121Y656941D01*
X326114Y657067D01*
X326101Y657114D01*
X326095Y657162D01*
X326053Y657281D01*
X326018Y657402D01*
X325994Y657444D01*
X325978Y657490D01*
X325909Y657596D01*
X325848Y657706D01*
X325808Y657752D01*
X325789Y657782D01*
X325754Y657816D01*
X325689Y657892D01*
X309912Y673669D01*
X309813Y673748D01*
X309720Y673832D01*
X309677Y673856D01*
X309639Y673886D01*
X309525Y673940D01*
X309415Y674001D01*
X309368Y674014D01*
X309324Y674035D01*
X309201Y674061D01*
X309079Y674096D01*
X309018Y674101D01*
X308984Y674108D01*
X308936Y674107D01*
X308835Y674115D01*
X276332Y674115D01*
X276206Y674101D01*
X276080Y674094D01*
X276034Y674081D01*
X275986Y674075D01*
X275867Y674033D01*
X275745Y673998D01*
X275703Y673974D01*
X275657Y673958D01*
X275551Y673889D01*
X275441Y673828D01*
X275395Y673788D01*
X275365Y673769D01*
X275331Y673734D01*
X275255Y673669D01*
X274709Y673123D01*
X266311Y673123D01*
X260373Y679061D01*
X260373Y687459D01*
X266311Y693397D01*
X286967Y693397D01*
X287093Y693411D01*
X287219Y693418D01*
X287266Y693431D01*
X287314Y693437D01*
X287433Y693479D01*
X287554Y693514D01*
X287596Y693538D01*
X287642Y693554D01*
X287748Y693623D01*
X287858Y693684D01*
X287904Y693724D01*
X287934Y693743D01*
X287968Y693778D01*
X288044Y693843D01*
X302829Y708628D01*
X302908Y708727D01*
X302992Y708820D01*
X303016Y708863D01*
X303046Y708901D01*
X303100Y709015D01*
X303161Y709125D01*
X303174Y709172D01*
X303195Y709216D01*
X303221Y709339D01*
X303256Y709461D01*
X303261Y709522D01*
X303268Y709556D01*
X303267Y709604D01*
X303275Y709705D01*
X303275Y721585D01*
X303261Y721711D01*
X303254Y721837D01*
X303241Y721884D01*
X303235Y721932D01*
X303193Y722051D01*
X303158Y722172D01*
X303134Y722214D01*
X303118Y722260D01*
X303049Y722366D01*
X302988Y722476D01*
X302948Y722522D01*
X302929Y722552D01*
X302894Y722586D01*
X302829Y722662D01*
X217202Y808289D01*
X217103Y808368D01*
X217010Y808452D01*
X216967Y808476D01*
X216929Y808506D01*
X216815Y808560D01*
X216705Y808621D01*
X216658Y808634D01*
X216614Y808655D01*
X216491Y808681D01*
X216369Y808716D01*
X216308Y808721D01*
X216274Y808728D01*
X216226Y808727D01*
X216125Y808735D01*
X194797Y808735D01*
X126625Y876907D01*
X126625Y879901D01*
X126614Y880001D01*
X126612Y880101D01*
X126594Y880173D01*
X126585Y880247D01*
X126551Y880342D01*
X126527Y880439D01*
X126493Y880505D01*
X126468Y880575D01*
X126413Y880660D01*
X126367Y880749D01*
X126319Y880806D01*
X126279Y880868D01*
X126207Y880938D01*
X126142Y881015D01*
X126082Y881059D01*
X126028Y881110D01*
X125942Y881162D01*
X125861Y881222D01*
X125793Y881251D01*
X125729Y881289D01*
X125633Y881320D01*
X125541Y881360D01*
X125468Y881373D01*
X125397Y881396D01*
X125297Y881404D01*
X125198Y881421D01*
X125124Y881418D01*
X125050Y881424D01*
X124950Y881409D01*
X124850Y881403D01*
X124779Y881383D01*
X124705Y881372D01*
X124612Y881335D01*
X124515Y881307D01*
X124450Y881271D01*
X124381Y881243D01*
X124299Y881186D01*
X124211Y881137D01*
X124135Y881072D01*
X124095Y881044D01*
X124071Y881018D01*
X124025Y880978D01*
X114095Y871048D01*
X114078Y871028D01*
X114058Y871011D01*
X113970Y870891D01*
X113878Y870775D01*
X113867Y870752D01*
X113851Y870730D01*
X113793Y870594D01*
X113729Y870460D01*
X113724Y870434D01*
X113713Y870410D01*
X113687Y870264D01*
X113656Y870119D01*
X113656Y870093D01*
X113652Y870067D01*
X113659Y869919D01*
X113662Y869771D01*
X113668Y869745D01*
X113670Y869719D01*
X113711Y869577D01*
X113747Y869433D01*
X113759Y869410D01*
X113766Y869384D01*
X113838Y869255D01*
X113906Y869123D01*
X113923Y869103D01*
X113936Y869080D01*
X114095Y868894D01*
X143765Y839224D01*
X143765Y805973D01*
X143779Y805847D01*
X143786Y805721D01*
X143799Y805675D01*
X143805Y805627D01*
X143847Y805508D01*
X143882Y805386D01*
X143906Y805344D01*
X143922Y805298D01*
X143991Y805192D01*
X144052Y805082D01*
X144092Y805036D01*
X144111Y805006D01*
X144146Y804972D01*
X144211Y804896D01*
X145279Y803828D01*
X146281Y801409D01*
X146281Y798791D01*
X145279Y796372D01*
X143428Y794521D01*
X141009Y793519D01*
X138391Y793519D01*
X135972Y794521D01*
X134121Y796372D01*
X133119Y798791D01*
X133119Y801409D01*
X134121Y803828D01*
X135189Y804896D01*
X135268Y804995D01*
X135352Y805089D01*
X135376Y805131D01*
X135406Y805169D01*
X135460Y805283D01*
X135521Y805394D01*
X135534Y805440D01*
X135555Y805484D01*
X135581Y805607D01*
X135616Y805729D01*
X135621Y805790D01*
X135628Y805825D01*
X135627Y805873D01*
X135635Y805973D01*
X135635Y835226D01*
X135621Y835351D01*
X135614Y835477D01*
X135601Y835524D01*
X135595Y835572D01*
X135553Y835691D01*
X135518Y835812D01*
X135494Y835854D01*
X135478Y835900D01*
X135409Y836006D01*
X135348Y836117D01*
X135308Y836163D01*
X135289Y836193D01*
X135254Y836226D01*
X135189Y836303D01*
X89595Y881897D01*
X89595Y913054D01*
X89581Y913180D01*
X89574Y913306D01*
X89561Y913353D01*
X89555Y913401D01*
X89513Y913520D01*
X89478Y913641D01*
X89454Y913683D01*
X89438Y913729D01*
X89369Y913835D01*
X89308Y913945D01*
X89268Y913992D01*
X89249Y914022D01*
X89214Y914055D01*
X89149Y914131D01*
X87002Y916279D01*
X84175Y919106D01*
X84175Y935504D01*
X118596Y969925D01*
X327885Y969925D01*
X328011Y969940D01*
X328137Y969946D01*
X328184Y969960D01*
X328232Y969965D01*
X328351Y970008D01*
X328472Y970043D01*
X328514Y970066D01*
X328560Y970083D01*
X328666Y970151D01*
X328776Y970213D01*
X328822Y970252D01*
X328852Y970272D01*
X328886Y970307D01*
X328962Y970372D01*
X387605Y1029014D01*
X387698Y1029131D01*
X387795Y1029246D01*
X387806Y1029268D01*
X387821Y1029287D01*
X387886Y1029423D01*
X387954Y1029556D01*
X387960Y1029580D01*
X387970Y1029602D01*
X388002Y1029749D01*
X388038Y1029895D01*
X388038Y1029919D01*
X388044Y1029942D01*
X388041Y1030092D01*
X388043Y1030243D01*
X388038Y1030267D01*
X388038Y1030291D01*
X388001Y1030437D01*
X387969Y1030584D01*
X387958Y1030605D01*
X387953Y1030629D01*
X387883Y1030763D01*
X387819Y1030898D01*
X387804Y1030917D01*
X387793Y1030939D01*
X387695Y1031054D01*
X387602Y1031171D01*
X387583Y1031186D01*
X387567Y1031204D01*
X387446Y1031294D01*
X387328Y1031387D01*
X387302Y1031400D01*
X387287Y1031411D01*
X387243Y1031430D01*
X387110Y1031498D01*
X385877Y1032009D01*
X382519Y1035367D01*
X380741Y1039659D01*
X380664Y1039798D01*
X380589Y1039940D01*
X380579Y1039951D01*
X380572Y1039963D01*
X380465Y1040082D01*
X380359Y1040202D01*
X380348Y1040210D01*
X380338Y1040221D01*
X380206Y1040312D01*
X380077Y1040406D01*
X380063Y1040411D01*
X380051Y1040419D01*
X379902Y1040478D01*
X379755Y1040540D01*
X379741Y1040542D01*
X379727Y1040547D01*
X379569Y1040571D01*
X379411Y1040597D01*
X379397Y1040596D01*
X379382Y1040598D01*
X379223Y1040585D01*
X379063Y1040575D01*
X379049Y1040570D01*
X379035Y1040569D01*
X378883Y1040520D01*
X378730Y1040474D01*
X378717Y1040467D01*
X378703Y1040462D01*
X378566Y1040380D01*
X378428Y1040300D01*
X378417Y1040290D01*
X378405Y1040282D01*
X378290Y1040171D01*
X378173Y1040062D01*
X378165Y1040050D01*
X378155Y1040040D01*
X378068Y1039905D01*
X377979Y1039772D01*
X377973Y1039756D01*
X377966Y1039746D01*
X377953Y1039710D01*
X377885Y1039546D01*
X377362Y1037937D01*
X376582Y1036405D01*
X375571Y1035014D01*
X374356Y1033799D01*
X372965Y1032788D01*
X371433Y1032008D01*
X369798Y1031476D01*
X369739Y1031467D01*
X369739Y1041154D01*
X369736Y1041180D01*
X369738Y1041206D01*
X369716Y1041353D01*
X369699Y1041500D01*
X369691Y1041525D01*
X369687Y1041551D01*
X369632Y1041688D01*
X369582Y1041828D01*
X369568Y1041850D01*
X369558Y1041875D01*
X369473Y1041996D01*
X369393Y1042121D01*
X369380Y1042133D01*
X369425Y1042180D01*
X369439Y1042203D01*
X369456Y1042222D01*
X369528Y1042352D01*
X369604Y1042479D01*
X369612Y1042504D01*
X369625Y1042527D01*
X369665Y1042670D01*
X369710Y1042811D01*
X369712Y1042837D01*
X369720Y1042862D01*
X369739Y1043106D01*
X369739Y1052793D01*
X369798Y1052784D01*
X371433Y1052252D01*
X372965Y1051472D01*
X374356Y1050461D01*
X375571Y1049246D01*
X376582Y1047855D01*
X377362Y1046323D01*
X377885Y1044714D01*
X377951Y1044569D01*
X378016Y1044422D01*
X378024Y1044410D01*
X378030Y1044397D01*
X378128Y1044271D01*
X378223Y1044142D01*
X378235Y1044132D01*
X378243Y1044121D01*
X378367Y1044020D01*
X378489Y1043917D01*
X378502Y1043910D01*
X378514Y1043901D01*
X378658Y1043830D01*
X378800Y1043758D01*
X378814Y1043754D01*
X378827Y1043748D01*
X378984Y1043712D01*
X379138Y1043674D01*
X379152Y1043674D01*
X379167Y1043670D01*
X379326Y1043671D01*
X379486Y1043669D01*
X379501Y1043672D01*
X379515Y1043672D01*
X379670Y1043709D01*
X379827Y1043743D01*
X379840Y1043749D01*
X379854Y1043753D01*
X379998Y1043824D01*
X380142Y1043893D01*
X380153Y1043902D01*
X380166Y1043908D01*
X380290Y1044011D01*
X380414Y1044110D01*
X380423Y1044122D01*
X380434Y1044131D01*
X380531Y1044258D01*
X380630Y1044384D01*
X380638Y1044399D01*
X380645Y1044408D01*
X380660Y1044443D01*
X380741Y1044601D01*
X382519Y1048893D01*
X385877Y1052251D01*
X390265Y1054069D01*
X395015Y1054069D01*
X399403Y1052251D01*
X402761Y1048893D01*
X403933Y1046064D01*
X403982Y1045977D01*
X404022Y1045885D01*
X404066Y1045825D01*
X404102Y1045760D01*
X404169Y1045685D01*
X404229Y1045605D01*
X404286Y1045557D01*
X404336Y1045502D01*
X404419Y1045444D01*
X404495Y1045380D01*
X404562Y1045346D01*
X404623Y1045303D01*
X404716Y1045267D01*
X404806Y1045221D01*
X404878Y1045203D01*
X404947Y1045176D01*
X405046Y1045161D01*
X405144Y1045137D01*
X405218Y1045136D01*
X405292Y1045125D01*
X405392Y1045133D01*
X405492Y1045132D01*
X405565Y1045148D01*
X405639Y1045154D01*
X405735Y1045185D01*
X405833Y1045206D01*
X405900Y1045238D01*
X405971Y1045261D01*
X406057Y1045313D01*
X406148Y1045356D01*
X406206Y1045402D01*
X406269Y1045441D01*
X406341Y1045510D01*
X406420Y1045573D01*
X406466Y1045632D01*
X406519Y1045683D01*
X406574Y1045768D01*
X406636Y1045847D01*
X406682Y1045936D01*
X406708Y1045977D01*
X406720Y1046010D01*
X406747Y1046064D01*
X407919Y1048893D01*
X411277Y1052251D01*
X415665Y1054069D01*
X420415Y1054069D01*
X424803Y1052251D01*
X428161Y1048893D01*
X429979Y1044505D01*
X429979Y1039755D01*
X428161Y1035367D01*
X424803Y1032009D01*
X420415Y1030191D01*
X415665Y1030191D01*
X413908Y1030919D01*
X413834Y1030940D01*
X413764Y1030971D01*
X413667Y1030988D01*
X413572Y1031015D01*
X413496Y1031019D01*
X413421Y1031032D01*
X413323Y1031027D01*
X413224Y1031032D01*
X413149Y1031018D01*
X413073Y1031014D01*
X412978Y1030987D01*
X412882Y1030969D01*
X412811Y1030939D01*
X412738Y1030918D01*
X412652Y1030870D01*
X412562Y1030831D01*
X412501Y1030785D01*
X412434Y1030748D01*
X412335Y1030664D01*
X412327Y1030659D01*
X412319Y1030650D01*
X412282Y1030623D01*
X412270Y1030608D01*
X412248Y1030589D01*
X341709Y960051D01*
X338882Y957224D01*
X177414Y957224D01*
X177314Y957212D01*
X177214Y957211D01*
X177142Y957192D01*
X177068Y957184D01*
X176974Y957150D01*
X176876Y957126D01*
X176810Y957092D01*
X176740Y957066D01*
X176656Y957012D01*
X176566Y956966D01*
X176510Y956918D01*
X176447Y956877D01*
X176377Y956805D01*
X176301Y956740D01*
X176257Y956680D01*
X176205Y956627D01*
X176153Y956541D01*
X176094Y956460D01*
X176064Y956392D01*
X176026Y956328D01*
X175995Y956232D01*
X175956Y956140D01*
X175943Y956067D01*
X175920Y955996D01*
X175912Y955896D01*
X175894Y955797D01*
X175898Y955722D01*
X175892Y955648D01*
X175907Y955549D01*
X175912Y955449D01*
X175933Y955377D01*
X175944Y955304D01*
X175981Y955210D01*
X176009Y955114D01*
X176045Y955049D01*
X176072Y954980D01*
X176130Y954897D01*
X176179Y954810D01*
X176244Y954733D01*
X176271Y954694D01*
X176298Y954670D01*
X176337Y954623D01*
X185741Y945220D01*
X185741Y942694D01*
X169813Y926766D01*
X167287Y926766D01*
X161861Y932192D01*
X161822Y932224D01*
X161788Y932261D01*
X161685Y932332D01*
X161588Y932409D01*
X161543Y932430D01*
X161501Y932459D01*
X161385Y932505D01*
X161273Y932558D01*
X161224Y932568D01*
X161177Y932587D01*
X161054Y932605D01*
X160932Y932631D01*
X160882Y932630D01*
X160832Y932638D01*
X160708Y932627D01*
X160584Y932625D01*
X160535Y932613D01*
X160485Y932609D01*
X160366Y932571D01*
X160246Y932540D01*
X160201Y932517D01*
X160153Y932502D01*
X160047Y932438D01*
X159936Y932381D01*
X159898Y932348D01*
X159855Y932322D01*
X159765Y932235D01*
X159671Y932155D01*
X159641Y932114D01*
X159605Y932079D01*
X159537Y931975D01*
X159463Y931874D01*
X159443Y931828D01*
X159416Y931786D01*
X159375Y931669D01*
X159325Y931554D01*
X159317Y931505D01*
X159300Y931457D01*
X159286Y931334D01*
X159264Y931211D01*
X159266Y931161D01*
X159261Y931111D01*
X159275Y930987D01*
X159282Y930863D01*
X159296Y930815D01*
X159301Y930765D01*
X159377Y930532D01*
X159934Y929187D01*
X159934Y926483D01*
X158899Y923984D01*
X157087Y922172D01*
X157071Y922151D01*
X157051Y922134D01*
X156962Y922015D01*
X156870Y921899D01*
X156859Y921875D01*
X156843Y921854D01*
X156785Y921718D01*
X156721Y921584D01*
X156716Y921558D01*
X156705Y921534D01*
X156679Y921388D01*
X156648Y921243D01*
X156648Y921217D01*
X156644Y921191D01*
X156651Y921043D01*
X156654Y920895D01*
X156660Y920869D01*
X156662Y920843D01*
X156703Y920701D01*
X156739Y920557D01*
X156751Y920533D01*
X156758Y920508D01*
X156831Y920379D01*
X156898Y920247D01*
X156915Y920227D01*
X156928Y920204D01*
X157087Y920018D01*
X158328Y918777D01*
X158427Y918698D01*
X158521Y918614D01*
X158563Y918590D01*
X158601Y918560D01*
X158715Y918506D01*
X158826Y918445D01*
X158872Y918432D01*
X158916Y918411D01*
X159039Y918385D01*
X159161Y918350D01*
X159222Y918345D01*
X159256Y918338D01*
X159304Y918339D01*
X159405Y918331D01*
X173405Y918331D01*
X233567Y858169D01*
X233567Y837330D01*
X233581Y837204D01*
X233588Y837078D01*
X233601Y837032D01*
X233607Y836984D01*
X233649Y836865D01*
X233684Y836743D01*
X233708Y836701D01*
X233724Y836656D01*
X233793Y836549D01*
X233854Y836439D01*
X233894Y836393D01*
X233913Y836363D01*
X233948Y836329D01*
X234013Y836253D01*
X261520Y808746D01*
X261638Y808652D01*
X261752Y808555D01*
X261774Y808544D01*
X261793Y808529D01*
X261929Y808465D01*
X262063Y808396D01*
X262086Y808391D01*
X262108Y808380D01*
X262255Y808349D01*
X262401Y808312D01*
X262425Y808312D01*
X262449Y808307D01*
X262599Y808309D01*
X262749Y808307D01*
X262773Y808312D01*
X262797Y808313D01*
X262943Y808349D01*
X263090Y808382D01*
X263112Y808392D01*
X263135Y808398D01*
X263269Y808467D01*
X263405Y808531D01*
X263423Y808546D01*
X263445Y808557D01*
X263560Y808655D01*
X263677Y808749D01*
X263692Y808768D01*
X263710Y808783D01*
X263800Y808904D01*
X263893Y809022D01*
X263906Y809048D01*
X263918Y809064D01*
X263936Y809107D01*
X264004Y809240D01*
X265778Y813522D01*
X269448Y817192D01*
X274244Y819179D01*
X279436Y819179D01*
X284232Y817192D01*
X287902Y813522D01*
X289889Y808726D01*
X289889Y803534D01*
X287902Y798738D01*
X284232Y795068D01*
X279950Y793294D01*
X279819Y793221D01*
X279685Y793152D01*
X279666Y793137D01*
X279645Y793125D01*
X279534Y793024D01*
X279419Y792927D01*
X279405Y792907D01*
X279387Y792891D01*
X279302Y792767D01*
X279212Y792646D01*
X279203Y792624D01*
X279189Y792604D01*
X279134Y792464D01*
X279074Y792326D01*
X279070Y792303D01*
X279061Y792280D01*
X279039Y792131D01*
X279013Y791983D01*
X279014Y791959D01*
X279010Y791935D01*
X279023Y791785D01*
X279031Y791635D01*
X279037Y791612D01*
X279039Y791588D01*
X279086Y791445D01*
X279127Y791300D01*
X279139Y791279D01*
X279146Y791256D01*
X279224Y791127D01*
X279297Y790996D01*
X279316Y790974D01*
X279326Y790958D01*
X279359Y790924D01*
X279416Y790856D01*
X279422Y790848D01*
X279428Y790843D01*
X279456Y790810D01*
X355568Y714698D01*
X358395Y711871D01*
X358395Y410163D01*
X358409Y410038D01*
X358416Y409912D01*
X358429Y409865D01*
X358435Y409817D01*
X358477Y409698D01*
X358512Y409577D01*
X358536Y409535D01*
X358552Y409489D01*
X358621Y409383D01*
X358682Y409272D01*
X358722Y409226D01*
X358741Y409196D01*
X358776Y409163D01*
X358841Y409086D01*
X394608Y373319D01*
X394707Y373240D01*
X394801Y373156D01*
X394843Y373132D01*
X394881Y373102D01*
X394995Y373048D01*
X395106Y372987D01*
X395153Y372974D01*
X395196Y372953D01*
X395320Y372927D01*
X395442Y372892D01*
X395502Y372887D01*
X395537Y372880D01*
X395585Y372881D01*
X395685Y372873D01*
X404139Y372873D01*
X406966Y370046D01*
X411647Y365364D01*
X411668Y365348D01*
X411685Y365328D01*
X411804Y365240D01*
X411920Y365147D01*
X411944Y365136D01*
X411965Y365120D01*
X412101Y365062D01*
X412236Y364998D01*
X412261Y364993D01*
X412285Y364982D01*
X412431Y364956D01*
X412576Y364925D01*
X412602Y364925D01*
X412628Y364921D01*
X412777Y364928D01*
X412925Y364931D01*
X412950Y364937D01*
X412976Y364939D01*
X413119Y364980D01*
X413263Y365016D01*
X413286Y365028D01*
X413311Y365035D01*
X413441Y365108D01*
X413572Y365176D01*
X413592Y365193D01*
X413615Y365205D01*
X413802Y365364D01*
X415859Y367422D01*
X420434Y369317D01*
X425386Y369317D01*
X429961Y367422D01*
X433462Y363921D01*
X434203Y362132D01*
X434251Y362044D01*
X434292Y361952D01*
X434336Y361892D01*
X434372Y361827D01*
X434439Y361753D01*
X434499Y361672D01*
X434556Y361624D01*
X434606Y361569D01*
X434689Y361512D01*
X434765Y361447D01*
X434832Y361413D01*
X434893Y361371D01*
X434986Y361334D01*
X435076Y361288D01*
X435148Y361270D01*
X435217Y361243D01*
X435316Y361228D01*
X435414Y361204D01*
X435488Y361203D01*
X435562Y361192D01*
X435662Y361201D01*
X435762Y361199D01*
X435835Y361215D01*
X435909Y361221D01*
X436005Y361252D01*
X436103Y361273D01*
X436170Y361305D01*
X436241Y361328D01*
X436327Y361380D01*
X436418Y361423D01*
X436476Y361470D01*
X436539Y361508D01*
X436611Y361578D01*
X436690Y361641D01*
X436736Y361699D01*
X436789Y361751D01*
X436844Y361835D01*
X436906Y361914D01*
X436952Y362004D01*
X436978Y362044D01*
X436990Y362078D01*
X437017Y362132D01*
X437758Y363921D01*
X439008Y365171D01*
X439025Y365191D01*
X439045Y365208D01*
X439133Y365328D01*
X439225Y365444D01*
X439236Y365467D01*
X439252Y365488D01*
X439311Y365625D01*
X439374Y365759D01*
X439379Y365784D01*
X439390Y365809D01*
X439416Y365955D01*
X439447Y366099D01*
X439447Y366126D01*
X439451Y366152D01*
X439444Y366300D01*
X439441Y366448D01*
X439435Y366473D01*
X439434Y366500D01*
X439392Y366642D01*
X439356Y366786D01*
X439344Y366809D01*
X439337Y366834D01*
X439265Y366964D01*
X439197Y367096D01*
X439180Y367116D01*
X439167Y367139D01*
X439008Y367325D01*
X416724Y389609D01*
X415223Y391110D01*
X414527Y392790D01*
X414527Y527682D01*
X414513Y527807D01*
X414506Y527933D01*
X414493Y527980D01*
X414487Y528028D01*
X414445Y528147D01*
X414410Y528268D01*
X414386Y528310D01*
X414370Y528356D01*
X414301Y528462D01*
X414240Y528572D01*
X414200Y528619D01*
X414181Y528649D01*
X414146Y528682D01*
X414081Y528759D01*
X413309Y529531D01*
X412269Y532041D01*
X412269Y534759D01*
X413309Y537269D01*
X414182Y538143D01*
X414199Y538163D01*
X414219Y538180D01*
X414307Y538299D01*
X414399Y538416D01*
X414410Y538439D01*
X414426Y538460D01*
X414485Y538596D01*
X414548Y538731D01*
X414554Y538756D01*
X414564Y538780D01*
X414590Y538927D01*
X414621Y539071D01*
X414621Y539097D01*
X414626Y539123D01*
X414618Y539272D01*
X414615Y539420D01*
X414609Y539445D01*
X414608Y539471D01*
X414567Y539614D01*
X414530Y539758D01*
X414518Y539781D01*
X414511Y539806D01*
X414439Y539936D01*
X414371Y540068D01*
X414354Y540088D01*
X414341Y540111D01*
X414182Y540297D01*
X412673Y541806D01*
X411519Y544592D01*
X411519Y547608D01*
X412673Y550394D01*
X414806Y552527D01*
X416675Y553301D01*
X416742Y553338D01*
X416813Y553366D01*
X416893Y553422D01*
X416980Y553470D01*
X417036Y553522D01*
X417099Y553565D01*
X417165Y553638D01*
X417238Y553704D01*
X417281Y553767D01*
X417332Y553824D01*
X417380Y553910D01*
X417436Y553991D01*
X417464Y554062D01*
X417501Y554129D01*
X417528Y554224D01*
X417564Y554315D01*
X417575Y554391D01*
X417596Y554464D01*
X417608Y554613D01*
X417615Y554660D01*
X417613Y554679D01*
X417615Y554708D01*
X417615Y563472D01*
X418466Y565526D01*
X420252Y567313D01*
X420253Y567313D01*
X423287Y570347D01*
X423287Y570348D01*
X425074Y572134D01*
X427128Y572985D01*
X437450Y572985D01*
X437575Y572999D01*
X437702Y573006D01*
X437748Y573019D01*
X437796Y573025D01*
X437915Y573067D01*
X438037Y573102D01*
X438079Y573126D01*
X438124Y573142D01*
X438231Y573211D01*
X438341Y573272D01*
X438387Y573312D01*
X438417Y573331D01*
X438451Y573366D01*
X438527Y573431D01*
X439548Y574451D01*
X439548Y574452D01*
X632048Y766952D01*
X632049Y766952D01*
X717865Y852769D01*
X717944Y852868D01*
X718028Y852962D01*
X718052Y853004D01*
X718082Y853042D01*
X718136Y853156D01*
X718197Y853267D01*
X718210Y853313D01*
X718231Y853357D01*
X718257Y853480D01*
X718292Y853602D01*
X718297Y853663D01*
X718304Y853698D01*
X718303Y853746D01*
X718311Y853846D01*
X718311Y857837D01*
X718297Y857963D01*
X718290Y858089D01*
X718277Y858135D01*
X718271Y858183D01*
X718229Y858302D01*
X718194Y858424D01*
X718170Y858466D01*
X718154Y858511D01*
X718085Y858618D01*
X718024Y858728D01*
X717984Y858774D01*
X717965Y858804D01*
X717930Y858838D01*
X717865Y858914D01*
X717473Y859306D01*
X716319Y862092D01*
X716319Y865108D01*
X717473Y867894D01*
X717865Y868286D01*
X717944Y868385D01*
X718028Y868479D01*
X718052Y868521D01*
X718082Y868559D01*
X718136Y868673D01*
X718197Y868784D01*
X718210Y868830D01*
X718231Y868874D01*
X718257Y868997D01*
X718292Y869119D01*
X718297Y869180D01*
X718304Y869215D01*
X718303Y869263D01*
X718311Y869363D01*
X718311Y873354D01*
X718297Y873480D01*
X718290Y873606D01*
X718277Y873652D01*
X718271Y873700D01*
X718229Y873819D01*
X718194Y873941D01*
X718170Y873983D01*
X718154Y874028D01*
X718085Y874135D01*
X718024Y874245D01*
X717984Y874291D01*
X717965Y874321D01*
X717930Y874355D01*
X717865Y874431D01*
X620431Y971865D01*
X620332Y971944D01*
X620238Y972028D01*
X620196Y972052D01*
X620158Y972082D01*
X620044Y972136D01*
X619933Y972197D01*
X619887Y972210D01*
X619843Y972231D01*
X619720Y972257D01*
X619598Y972292D01*
X619537Y972297D01*
X619502Y972304D01*
X619454Y972303D01*
X619354Y972311D01*
X583632Y972311D01*
X581578Y973162D01*
X579791Y974948D01*
X505592Y1049148D01*
X494657Y1060083D01*
X494641Y1060112D01*
X494613Y1060183D01*
X494556Y1060263D01*
X494509Y1060350D01*
X494457Y1060406D01*
X494414Y1060469D01*
X494341Y1060535D01*
X494275Y1060608D01*
X494212Y1060651D01*
X494155Y1060702D01*
X494069Y1060750D01*
X493988Y1060806D01*
X493917Y1060834D01*
X493850Y1060871D01*
X493755Y1060898D01*
X493664Y1060934D01*
X493588Y1060945D01*
X493514Y1060966D01*
X493366Y1060978D01*
X493319Y1060985D01*
X493300Y1060983D01*
X493271Y1060985D01*
X462998Y1060985D01*
X460944Y1061836D01*
X460745Y1062035D01*
X460646Y1062114D01*
X460552Y1062198D01*
X460510Y1062222D01*
X460472Y1062252D01*
X460358Y1062306D01*
X460247Y1062367D01*
X460201Y1062380D01*
X460157Y1062401D01*
X460034Y1062427D01*
X459912Y1062462D01*
X459851Y1062467D01*
X459816Y1062474D01*
X459768Y1062473D01*
X459668Y1062481D01*
X426133Y1062481D01*
X426007Y1062467D01*
X425881Y1062460D01*
X425835Y1062447D01*
X425787Y1062441D01*
X425668Y1062399D01*
X425546Y1062364D01*
X425504Y1062340D01*
X425459Y1062324D01*
X425352Y1062255D01*
X425242Y1062194D01*
X425196Y1062154D01*
X425166Y1062135D01*
X425132Y1062100D01*
X425056Y1062035D01*
X424664Y1061643D01*
X421878Y1060489D01*
X418862Y1060489D01*
X416076Y1061643D01*
X413943Y1063776D01*
X412789Y1066562D01*
X412789Y1069578D01*
X413943Y1072364D01*
X416076Y1074497D01*
X418862Y1075651D01*
X421878Y1075651D01*
X424664Y1074497D01*
X425056Y1074105D01*
X425155Y1074026D01*
X425249Y1073942D01*
X425291Y1073918D01*
X425329Y1073888D01*
X425443Y1073834D01*
X425554Y1073773D01*
X425600Y1073760D01*
X425644Y1073739D01*
X425767Y1073713D01*
X425889Y1073678D01*
X425950Y1073673D01*
X425985Y1073666D01*
X426033Y1073667D01*
X426133Y1073659D01*
X463726Y1073659D01*
X465780Y1072808D01*
X465979Y1072609D01*
X466078Y1072530D01*
X466172Y1072446D01*
X466214Y1072422D01*
X466252Y1072392D01*
X466366Y1072338D01*
X466477Y1072277D01*
X466523Y1072264D01*
X466567Y1072243D01*
X466690Y1072217D01*
X466812Y1072182D01*
X466873Y1072177D01*
X466908Y1072170D01*
X466956Y1072171D01*
X467056Y1072163D01*
X492671Y1072163D01*
X492797Y1072177D01*
X492923Y1072184D01*
X492970Y1072197D01*
X493018Y1072203D01*
X493137Y1072245D01*
X493258Y1072280D01*
X493300Y1072304D01*
X493346Y1072320D01*
X493452Y1072389D01*
X493562Y1072450D01*
X493609Y1072490D01*
X493639Y1072509D01*
X493672Y1072544D01*
X493749Y1072609D01*
X496452Y1075313D01*
X496453Y1075313D01*
X503048Y1081908D01*
X504362Y1083222D01*
X504455Y1083340D01*
X504552Y1083455D01*
X504563Y1083476D01*
X504578Y1083495D01*
X504643Y1083631D01*
X504711Y1083765D01*
X504717Y1083788D01*
X504727Y1083810D01*
X504759Y1083957D01*
X504795Y1084103D01*
X504796Y1084127D01*
X504801Y1084151D01*
X504798Y1084301D01*
X504800Y1084452D01*
X504795Y1084475D01*
X504795Y1084499D01*
X504758Y1084645D01*
X504726Y1084792D01*
X504716Y1084814D01*
X504710Y1084837D01*
X504641Y1084970D01*
X504576Y1085107D01*
X504561Y1085126D01*
X504550Y1085147D01*
X504453Y1085261D01*
X504359Y1085379D01*
X504340Y1085394D01*
X504324Y1085412D01*
X504203Y1085502D01*
X504085Y1085595D01*
X504059Y1085608D01*
X504044Y1085620D01*
X504001Y1085638D01*
X503868Y1085706D01*
X503706Y1085773D01*
X501573Y1087906D01*
X500419Y1090692D01*
X500419Y1093708D01*
X501573Y1096494D01*
X503706Y1098627D01*
X506492Y1099781D01*
X509508Y1099781D01*
X512294Y1098627D01*
X514210Y1096711D01*
X514309Y1096632D01*
X514403Y1096548D01*
X514445Y1096524D01*
X514483Y1096494D01*
X514597Y1096440D01*
X514708Y1096379D01*
X514754Y1096366D01*
X514798Y1096345D01*
X514921Y1096319D01*
X515043Y1096284D01*
X515104Y1096279D01*
X515139Y1096272D01*
X515187Y1096273D01*
X515287Y1096265D01*
X573184Y1096265D01*
X576011Y1093438D01*
X585438Y1084011D01*
X588265Y1081184D01*
X588265Y1065116D01*
X575194Y1052045D01*
X574091Y1052045D01*
X573991Y1052034D01*
X573890Y1052032D01*
X573818Y1052014D01*
X573744Y1052005D01*
X573650Y1051972D01*
X573552Y1051947D01*
X573486Y1051913D01*
X573416Y1051888D01*
X573332Y1051833D01*
X573243Y1051787D01*
X573186Y1051739D01*
X573123Y1051699D01*
X573054Y1051627D01*
X572977Y1051562D01*
X572933Y1051502D01*
X572881Y1051448D01*
X572830Y1051362D01*
X572770Y1051281D01*
X572741Y1051213D01*
X572702Y1051149D01*
X572672Y1051053D01*
X572632Y1050961D01*
X572619Y1050888D01*
X572596Y1050817D01*
X572588Y1050717D01*
X572570Y1050618D01*
X572574Y1050544D01*
X572568Y1050470D01*
X572583Y1050370D01*
X572588Y1050270D01*
X572609Y1050199D01*
X572620Y1050125D01*
X572657Y1050032D01*
X572685Y1049935D01*
X572721Y1049870D01*
X572749Y1049801D01*
X572806Y1049719D01*
X572855Y1049631D01*
X572920Y1049555D01*
X572948Y1049515D01*
X572974Y1049491D01*
X573013Y1049445D01*
X721138Y901321D01*
X721237Y901242D01*
X721330Y901158D01*
X721373Y901134D01*
X721411Y901104D01*
X721525Y901050D01*
X721635Y900989D01*
X721682Y900976D01*
X721726Y900955D01*
X721849Y900929D01*
X721971Y900894D01*
X722032Y900889D01*
X722066Y900882D01*
X722114Y900883D01*
X722215Y900875D01*
X1034182Y900875D01*
X1041833Y893224D01*
X1041833Y875631D01*
X1041836Y875606D01*
X1041834Y875581D01*
X1041852Y875461D01*
X1041863Y875332D01*
X1041871Y875309D01*
X1041873Y875285D01*
X1041883Y875259D01*
X1041886Y875237D01*
X1041928Y875131D01*
X1041970Y875000D01*
X1041983Y874980D01*
X1041991Y874957D01*
X1042007Y874931D01*
X1042015Y874913D01*
X1042075Y874825D01*
X1042150Y874702D01*
X1042167Y874684D01*
X1042180Y874664D01*
X1042204Y874641D01*
X1042214Y874627D01*
X1042288Y874560D01*
X1042393Y874452D01*
X1042413Y874439D01*
X1042430Y874422D01*
X1042461Y874404D01*
X1042472Y874393D01*
X1042552Y874349D01*
X1042560Y874345D01*
X1042686Y874264D01*
X1042709Y874255D01*
X1042730Y874243D01*
X1042764Y874232D01*
X1042777Y874225D01*
X1042859Y874201D01*
X1042873Y874197D01*
X1043014Y874147D01*
X1043038Y874144D01*
X1043061Y874137D01*
X1043099Y874134D01*
X1043113Y874130D01*
X1043300Y874115D01*
X1043361Y874108D01*
X1043385Y874111D01*
X1043409Y874109D01*
X1043558Y874131D01*
X1043707Y874149D01*
X1043735Y874158D01*
X1043754Y874161D01*
X1043798Y874178D01*
X1043940Y874224D01*
X1045274Y874777D01*
X1050226Y874777D01*
X1054801Y872882D01*
X1058302Y869381D01*
X1060197Y864806D01*
X1060197Y859854D01*
X1058302Y855279D01*
X1054801Y851778D01*
X1053012Y851037D01*
X1052924Y850989D01*
X1052832Y850949D01*
X1052772Y850904D01*
X1052707Y850868D01*
X1052633Y850801D01*
X1052552Y850741D01*
X1052504Y850684D01*
X1052449Y850634D01*
X1052392Y850551D01*
X1052327Y850475D01*
X1052293Y850408D01*
X1052251Y850347D01*
X1052214Y850254D01*
X1052168Y850164D01*
X1052150Y850092D01*
X1052123Y850023D01*
X1052108Y849924D01*
X1052084Y849826D01*
X1052083Y849752D01*
X1052072Y849678D01*
X1052081Y849578D01*
X1052079Y849478D01*
X1052095Y849405D01*
X1052101Y849331D01*
X1052132Y849235D01*
X1052153Y849137D01*
X1052185Y849070D01*
X1052208Y848999D01*
X1052260Y848913D01*
X1052303Y848822D01*
X1052350Y848764D01*
X1052388Y848701D01*
X1052458Y848628D01*
X1052521Y848550D01*
X1052579Y848504D01*
X1052631Y848451D01*
X1052715Y848396D01*
X1052794Y848334D01*
X1052884Y848288D01*
X1052924Y848262D01*
X1052958Y848250D01*
X1053012Y848223D01*
X1054801Y847482D01*
X1058302Y843981D01*
X1060197Y839406D01*
X1060197Y834454D01*
X1058302Y829879D01*
X1054801Y826378D01*
X1052755Y825531D01*
X1052688Y825494D01*
X1052617Y825466D01*
X1052536Y825409D01*
X1052450Y825362D01*
X1052394Y825310D01*
X1052331Y825267D01*
X1052265Y825194D01*
X1052192Y825127D01*
X1052149Y825065D01*
X1052098Y825008D01*
X1052050Y824922D01*
X1051994Y824841D01*
X1051966Y824770D01*
X1051929Y824703D01*
X1051902Y824608D01*
X1051866Y824517D01*
X1051855Y824441D01*
X1051834Y824367D01*
X1051822Y824219D01*
X1051815Y824172D01*
X1051817Y824153D01*
X1051815Y824124D01*
X1051815Y822725D01*
X1048988Y819898D01*
X1045986Y816896D01*
X1043159Y814069D01*
X1013189Y814069D01*
X940756Y886502D01*
X940657Y886581D01*
X940564Y886665D01*
X940521Y886689D01*
X940483Y886719D01*
X940369Y886773D01*
X940259Y886834D01*
X940212Y886847D01*
X940168Y886868D01*
X940045Y886894D01*
X939923Y886929D01*
X939862Y886934D01*
X939828Y886941D01*
X939780Y886940D01*
X939679Y886948D01*
X724833Y886948D01*
X724733Y886937D01*
X724633Y886935D01*
X724561Y886917D01*
X724487Y886908D01*
X724392Y886875D01*
X724295Y886850D01*
X724229Y886816D01*
X724159Y886791D01*
X724074Y886736D01*
X723985Y886690D01*
X723928Y886642D01*
X723866Y886602D01*
X723796Y886530D01*
X723719Y886465D01*
X723675Y886405D01*
X723624Y886351D01*
X723572Y886265D01*
X723512Y886184D01*
X723483Y886116D01*
X723445Y886052D01*
X723414Y885956D01*
X723374Y885864D01*
X723361Y885791D01*
X723338Y885720D01*
X723330Y885620D01*
X723313Y885521D01*
X723316Y885447D01*
X723310Y885373D01*
X723325Y885273D01*
X723331Y885173D01*
X723351Y885102D01*
X723362Y885028D01*
X723399Y884935D01*
X723427Y884838D01*
X723463Y884773D01*
X723491Y884704D01*
X723548Y884622D01*
X723597Y884534D01*
X723662Y884458D01*
X723690Y884418D01*
X723716Y884394D01*
X723756Y884348D01*
X728638Y879466D01*
X729489Y877412D01*
X729489Y869363D01*
X729503Y869237D01*
X729510Y869111D01*
X729523Y869065D01*
X729529Y869017D01*
X729571Y868898D01*
X729606Y868776D01*
X729630Y868734D01*
X729646Y868689D01*
X729715Y868583D01*
X729776Y868472D01*
X729816Y868426D01*
X729835Y868396D01*
X729870Y868362D01*
X729935Y868286D01*
X730327Y867894D01*
X731481Y865108D01*
X731481Y862092D01*
X730327Y859306D01*
X729935Y858914D01*
X729856Y858815D01*
X729772Y858721D01*
X729748Y858679D01*
X729718Y858641D01*
X729664Y858527D01*
X729603Y858416D01*
X729590Y858370D01*
X729569Y858326D01*
X729543Y858203D01*
X729508Y858081D01*
X729503Y858020D01*
X729496Y857985D01*
X729497Y857937D01*
X729489Y857837D01*
X729489Y849788D01*
X728638Y847734D01*
X726852Y845948D01*
X639952Y759049D01*
X639952Y759048D01*
X450535Y569631D01*
X450456Y569532D01*
X450372Y569438D01*
X450348Y569396D01*
X450318Y569358D01*
X450264Y569244D01*
X450203Y569133D01*
X450190Y569087D01*
X450169Y569043D01*
X450143Y568920D01*
X450108Y568798D01*
X450103Y568737D01*
X450096Y568702D01*
X450097Y568654D01*
X450089Y568554D01*
X450089Y439826D01*
X450103Y439700D01*
X450110Y439574D01*
X450123Y439528D01*
X450129Y439480D01*
X450171Y439361D01*
X450206Y439239D01*
X450230Y439197D01*
X450246Y439152D01*
X450315Y439045D01*
X450376Y438935D01*
X450416Y438889D01*
X450435Y438859D01*
X450470Y438825D01*
X450535Y438749D01*
X510377Y378907D01*
X510476Y378828D01*
X510570Y378744D01*
X510612Y378720D01*
X510650Y378690D01*
X510764Y378636D01*
X510875Y378575D01*
X510921Y378562D01*
X510965Y378541D01*
X511088Y378515D01*
X511210Y378480D01*
X511271Y378475D01*
X511306Y378468D01*
X511354Y378469D01*
X511454Y378461D01*
X523308Y378461D01*
X523408Y378472D01*
X523508Y378474D01*
X523580Y378492D01*
X523654Y378501D01*
X523749Y378534D01*
X523846Y378559D01*
X523912Y378593D01*
X523982Y378618D01*
X524067Y378673D01*
X524156Y378719D01*
X524213Y378767D01*
X524275Y378807D01*
X524345Y378879D01*
X524421Y378944D01*
X524466Y379004D01*
X524517Y379058D01*
X524569Y379144D01*
X524628Y379225D01*
X524658Y379293D01*
X524696Y379357D01*
X524727Y379453D01*
X524766Y379545D01*
X524780Y379618D01*
X524802Y379689D01*
X524810Y379789D01*
X524828Y379888D01*
X524824Y379962D01*
X524830Y380036D01*
X524815Y380136D01*
X524810Y380236D01*
X524790Y380307D01*
X524779Y380381D01*
X524742Y380474D01*
X524714Y380571D01*
X524677Y380636D01*
X524650Y380705D01*
X524593Y380787D01*
X524544Y380875D01*
X524478Y380951D01*
X524451Y380991D01*
X524424Y381015D01*
X524385Y381061D01*
X513809Y391637D01*
X512571Y394625D01*
X512571Y447095D01*
X512557Y447221D01*
X512550Y447347D01*
X512537Y447394D01*
X512531Y447442D01*
X512489Y447560D01*
X512454Y447682D01*
X512430Y447724D01*
X512414Y447770D01*
X512345Y447876D01*
X512284Y447986D01*
X512244Y448033D01*
X512225Y448063D01*
X512190Y448096D01*
X512125Y448173D01*
X510148Y450149D01*
X508253Y454724D01*
X508253Y459676D01*
X510148Y464251D01*
X513649Y467752D01*
X518224Y469647D01*
X523176Y469647D01*
X527751Y467752D01*
X531252Y464251D01*
X531993Y462462D01*
X532041Y462374D01*
X532081Y462282D01*
X532126Y462222D01*
X532162Y462157D01*
X532229Y462083D01*
X532289Y462002D01*
X532346Y461954D01*
X532396Y461899D01*
X532479Y461842D01*
X532555Y461777D01*
X532622Y461743D01*
X532683Y461701D01*
X532776Y461664D01*
X532866Y461618D01*
X532938Y461600D01*
X533007Y461573D01*
X533106Y461558D01*
X533204Y461534D01*
X533278Y461533D01*
X533352Y461522D01*
X533452Y461531D01*
X533552Y461529D01*
X533625Y461545D01*
X533699Y461551D01*
X533795Y461582D01*
X533893Y461603D01*
X533960Y461635D01*
X534031Y461658D01*
X534117Y461710D01*
X534208Y461753D01*
X534266Y461800D01*
X534329Y461838D01*
X534402Y461908D01*
X534480Y461971D01*
X534526Y462029D01*
X534579Y462081D01*
X534634Y462165D01*
X534696Y462244D01*
X534742Y462334D01*
X534768Y462374D01*
X534780Y462408D01*
X534807Y462462D01*
X535548Y464251D01*
X539049Y467752D01*
X543624Y469647D01*
X548576Y469647D01*
X553151Y467752D01*
X556652Y464251D01*
X557393Y462462D01*
X557441Y462374D01*
X557481Y462282D01*
X557526Y462222D01*
X557562Y462157D01*
X557629Y462083D01*
X557689Y462002D01*
X557746Y461954D01*
X557796Y461899D01*
X557879Y461842D01*
X557955Y461777D01*
X558022Y461743D01*
X558083Y461701D01*
X558176Y461664D01*
X558266Y461618D01*
X558338Y461600D01*
X558407Y461573D01*
X558506Y461558D01*
X558604Y461534D01*
X558678Y461533D01*
X558752Y461522D01*
X558852Y461531D01*
X558952Y461529D01*
X559025Y461545D01*
X559099Y461551D01*
X559195Y461582D01*
X559293Y461603D01*
X559360Y461635D01*
X559431Y461658D01*
X559517Y461710D01*
X559608Y461753D01*
X559666Y461800D01*
X559729Y461838D01*
X559802Y461908D01*
X559880Y461971D01*
X559926Y462029D01*
X559979Y462081D01*
X560034Y462165D01*
X560096Y462244D01*
X560142Y462334D01*
X560168Y462374D01*
X560180Y462408D01*
X560207Y462462D01*
X560948Y464251D01*
X564449Y467752D01*
X569024Y469647D01*
X573976Y469647D01*
X578551Y467752D01*
X582052Y464251D01*
X583947Y459676D01*
X583947Y454724D01*
X582052Y450149D01*
X578551Y446648D01*
X573976Y444753D01*
X573720Y444753D01*
X573620Y444742D01*
X573520Y444740D01*
X573448Y444722D01*
X573374Y444713D01*
X573279Y444680D01*
X573182Y444655D01*
X573116Y444621D01*
X573046Y444596D01*
X572961Y444541D01*
X572872Y444495D01*
X572815Y444447D01*
X572753Y444407D01*
X572683Y444335D01*
X572607Y444270D01*
X572562Y444210D01*
X572511Y444156D01*
X572459Y444070D01*
X572399Y443989D01*
X572370Y443921D01*
X572332Y443857D01*
X572301Y443761D01*
X572261Y443669D01*
X572248Y443596D01*
X572226Y443525D01*
X572217Y443425D01*
X572200Y443326D01*
X572204Y443252D01*
X572198Y443178D01*
X572212Y443078D01*
X572218Y442978D01*
X572238Y442907D01*
X572249Y442833D01*
X572286Y442740D01*
X572314Y442643D01*
X572351Y442578D01*
X572378Y442509D01*
X572435Y442427D01*
X572484Y442339D01*
X572549Y442263D01*
X572577Y442223D01*
X572603Y442199D01*
X572643Y442153D01*
X629191Y385605D01*
X630429Y382617D01*
X630429Y274120D01*
X630443Y273995D01*
X630450Y273869D01*
X630463Y273822D01*
X630469Y273774D01*
X630511Y273655D01*
X630546Y273534D01*
X630570Y273492D01*
X630586Y273446D01*
X630655Y273340D01*
X630716Y273230D01*
X630756Y273183D01*
X630775Y273153D01*
X630810Y273120D01*
X630875Y273043D01*
X631243Y272675D01*
X632849Y268798D01*
X632849Y264602D01*
X631243Y260725D01*
X628275Y257757D01*
X624398Y256151D01*
X620202Y256151D01*
X616325Y257757D01*
X613357Y260725D01*
X611751Y264602D01*
X611751Y268798D01*
X613357Y272675D01*
X613725Y273043D01*
X613804Y273142D01*
X613888Y273236D01*
X613912Y273278D01*
X613942Y273316D01*
X613996Y273430D01*
X614057Y273541D01*
X614070Y273588D01*
X614091Y273631D01*
X614117Y273755D01*
X614152Y273877D01*
X614157Y273937D01*
X614164Y273972D01*
X614163Y274020D01*
X614171Y274120D01*
X614171Y377002D01*
X614157Y377128D01*
X614150Y377254D01*
X614137Y377300D01*
X614131Y377348D01*
X614089Y377467D01*
X614054Y377589D01*
X614030Y377631D01*
X614014Y377676D01*
X613945Y377783D01*
X613884Y377893D01*
X613844Y377939D01*
X613825Y377969D01*
X613790Y378003D01*
X613725Y378079D01*
X547497Y444307D01*
X547398Y444386D01*
X547304Y444470D01*
X547262Y444494D01*
X547224Y444524D01*
X547110Y444578D01*
X546999Y444639D01*
X546953Y444652D01*
X546909Y444673D01*
X546786Y444699D01*
X546664Y444734D01*
X546603Y444739D01*
X546568Y444746D01*
X546520Y444745D01*
X546420Y444753D01*
X543624Y444753D01*
X539049Y446648D01*
X535548Y450149D01*
X534807Y451938D01*
X534759Y452026D01*
X534718Y452118D01*
X534674Y452178D01*
X534638Y452243D01*
X534571Y452317D01*
X534511Y452398D01*
X534454Y452446D01*
X534404Y452501D01*
X534321Y452558D01*
X534245Y452623D01*
X534178Y452657D01*
X534117Y452699D01*
X534024Y452736D01*
X533934Y452782D01*
X533862Y452800D01*
X533793Y452827D01*
X533694Y452842D01*
X533596Y452866D01*
X533522Y452867D01*
X533448Y452878D01*
X533348Y452869D01*
X533248Y452871D01*
X533175Y452855D01*
X533101Y452849D01*
X533005Y452818D01*
X532907Y452797D01*
X532840Y452765D01*
X532769Y452742D01*
X532683Y452690D01*
X532592Y452647D01*
X532534Y452600D01*
X532471Y452562D01*
X532399Y452492D01*
X532320Y452429D01*
X532274Y452371D01*
X532221Y452319D01*
X532166Y452235D01*
X532104Y452156D01*
X532058Y452066D01*
X532032Y452026D01*
X532020Y451992D01*
X531993Y451938D01*
X531252Y450149D01*
X529275Y448173D01*
X529196Y448074D01*
X529112Y447980D01*
X529088Y447937D01*
X529058Y447900D01*
X529004Y447785D01*
X528943Y447675D01*
X528930Y447628D01*
X528909Y447584D01*
X528883Y447461D01*
X528848Y447339D01*
X528843Y447279D01*
X528836Y447244D01*
X528837Y447196D01*
X528829Y447095D01*
X528829Y400240D01*
X528843Y400114D01*
X528850Y399988D01*
X528863Y399942D01*
X528869Y399894D01*
X528911Y399775D01*
X528946Y399653D01*
X528970Y399611D01*
X528986Y399566D01*
X529055Y399459D01*
X529116Y399349D01*
X529156Y399303D01*
X529175Y399273D01*
X529210Y399239D01*
X529275Y399163D01*
X564845Y363592D01*
X566083Y360605D01*
X566083Y258582D01*
X566097Y258457D01*
X566104Y258331D01*
X566117Y258284D01*
X566123Y258236D01*
X566165Y258117D01*
X566200Y257996D01*
X566224Y257954D01*
X566240Y257908D01*
X566309Y257802D01*
X566370Y257692D01*
X566410Y257645D01*
X566429Y257615D01*
X566464Y257582D01*
X566529Y257505D01*
X568275Y255759D01*
X569977Y251651D01*
X569977Y230949D01*
X568275Y226841D01*
X565131Y223697D01*
X561023Y221995D01*
X556577Y221995D01*
X552469Y223697D01*
X549325Y226841D01*
X547623Y230949D01*
X547623Y251651D01*
X549325Y255759D01*
X549379Y255813D01*
X549458Y255912D01*
X549542Y256006D01*
X549566Y256049D01*
X549596Y256086D01*
X549650Y256201D01*
X549711Y256311D01*
X549724Y256358D01*
X549745Y256401D01*
X549771Y256525D01*
X549806Y256647D01*
X549811Y256707D01*
X549818Y256742D01*
X549817Y256790D01*
X549825Y256890D01*
X549825Y282381D01*
X549808Y282530D01*
X549796Y282680D01*
X549788Y282703D01*
X549785Y282727D01*
X549735Y282868D01*
X549689Y283012D01*
X549676Y283032D01*
X549668Y283055D01*
X549586Y283182D01*
X549509Y283310D01*
X549492Y283328D01*
X549479Y283348D01*
X549371Y283453D01*
X549266Y283560D01*
X549246Y283573D01*
X549228Y283590D01*
X549099Y283667D01*
X548973Y283749D01*
X548950Y283757D01*
X548929Y283769D01*
X548786Y283815D01*
X548644Y283865D01*
X548620Y283868D01*
X548597Y283875D01*
X548448Y283887D01*
X548298Y283904D01*
X548274Y283901D01*
X548250Y283903D01*
X548101Y283881D01*
X547952Y283863D01*
X547924Y283854D01*
X547905Y283852D01*
X547861Y283834D01*
X547760Y283801D01*
X544449Y283801D01*
X541399Y285065D01*
X539065Y287399D01*
X537801Y290449D01*
X537801Y293751D01*
X539065Y296801D01*
X540065Y297801D01*
X540144Y297900D01*
X540228Y297994D01*
X540252Y298036D01*
X540282Y298074D01*
X540336Y298188D01*
X540397Y298299D01*
X540410Y298346D01*
X540431Y298389D01*
X540457Y298513D01*
X540492Y298635D01*
X540497Y298695D01*
X540504Y298730D01*
X540503Y298778D01*
X540511Y298878D01*
X540511Y354964D01*
X540497Y355090D01*
X540490Y355216D01*
X540477Y355263D01*
X540471Y355311D01*
X540429Y355430D01*
X540394Y355551D01*
X540370Y355593D01*
X540354Y355639D01*
X540285Y355745D01*
X540224Y355855D01*
X540184Y355902D01*
X540165Y355932D01*
X540130Y355965D01*
X540065Y356041D01*
X539557Y356550D01*
X539479Y356612D01*
X539406Y356682D01*
X539342Y356720D01*
X539284Y356766D01*
X539193Y356809D01*
X539107Y356861D01*
X539036Y356883D01*
X538969Y356915D01*
X538871Y356936D01*
X538775Y356967D01*
X538701Y356973D01*
X538628Y356988D01*
X538528Y356987D01*
X538428Y356995D01*
X538354Y356984D01*
X538280Y356982D01*
X538183Y356958D01*
X538083Y356943D01*
X538014Y356916D01*
X537942Y356897D01*
X537852Y356851D01*
X537759Y356814D01*
X537698Y356772D01*
X537632Y356738D01*
X537555Y356673D01*
X537473Y356615D01*
X537423Y356560D01*
X537367Y356512D01*
X537307Y356431D01*
X537240Y356357D01*
X537204Y356292D01*
X537159Y356232D01*
X537120Y356140D01*
X537071Y356052D01*
X537051Y355980D01*
X537021Y355912D01*
X537004Y355813D01*
X536976Y355716D01*
X536968Y355616D01*
X536960Y355569D01*
X536962Y355533D01*
X536957Y355472D01*
X536957Y354394D01*
X535062Y349819D01*
X531561Y346318D01*
X526986Y344423D01*
X524190Y344423D01*
X524064Y344409D01*
X523938Y344402D01*
X523892Y344389D01*
X523844Y344383D01*
X523725Y344341D01*
X523603Y344306D01*
X523561Y344282D01*
X523516Y344266D01*
X523409Y344197D01*
X523299Y344136D01*
X523253Y344096D01*
X523223Y344077D01*
X523189Y344042D01*
X523113Y343977D01*
X516575Y337439D01*
X516506Y337353D01*
X516484Y337329D01*
X516478Y337320D01*
X516412Y337246D01*
X516388Y337204D01*
X516358Y337166D01*
X516304Y337052D01*
X516243Y336941D01*
X516230Y336895D01*
X516209Y336851D01*
X516183Y336728D01*
X516148Y336606D01*
X516143Y336545D01*
X516136Y336510D01*
X516137Y336462D01*
X516129Y336362D01*
X516129Y257737D01*
X516143Y257611D01*
X516150Y257485D01*
X516163Y257438D01*
X516169Y257390D01*
X516211Y257271D01*
X516246Y257150D01*
X516270Y257108D01*
X516286Y257062D01*
X516355Y256956D01*
X516416Y256846D01*
X516456Y256799D01*
X516475Y256769D01*
X516510Y256736D01*
X516575Y256659D01*
X517475Y255759D01*
X519177Y251651D01*
X519177Y230949D01*
X517475Y226841D01*
X514331Y223697D01*
X510223Y221995D01*
X505777Y221995D01*
X501669Y223697D01*
X498525Y226841D01*
X496823Y230949D01*
X496823Y251651D01*
X498525Y255759D01*
X499425Y256659D01*
X499504Y256758D01*
X499588Y256852D01*
X499612Y256895D01*
X499642Y256932D01*
X499696Y257047D01*
X499757Y257157D01*
X499770Y257204D01*
X499791Y257248D01*
X499817Y257371D01*
X499852Y257493D01*
X499857Y257553D01*
X499864Y257588D01*
X499863Y257636D01*
X499871Y257737D01*
X499871Y341977D01*
X501109Y344965D01*
X501203Y345059D01*
X501282Y345158D01*
X501366Y345252D01*
X501390Y345294D01*
X501420Y345332D01*
X501474Y345446D01*
X501535Y345557D01*
X501548Y345603D01*
X501569Y345647D01*
X501595Y345770D01*
X501630Y345892D01*
X501635Y345953D01*
X501642Y345988D01*
X501641Y346036D01*
X501649Y346136D01*
X501649Y355854D01*
X501646Y355880D01*
X501648Y355906D01*
X501626Y356053D01*
X501609Y356200D01*
X501601Y356225D01*
X501597Y356251D01*
X501542Y356388D01*
X501492Y356528D01*
X501478Y356550D01*
X501468Y356575D01*
X501383Y356696D01*
X501303Y356821D01*
X501284Y356839D01*
X501269Y356861D01*
X501253Y356875D01*
X501335Y356960D01*
X501349Y356983D01*
X501366Y357002D01*
X501438Y357132D01*
X501514Y357259D01*
X501522Y357284D01*
X501535Y357307D01*
X501575Y357450D01*
X501620Y357591D01*
X501622Y357617D01*
X501630Y357642D01*
X501649Y357886D01*
X501649Y368051D01*
X501736Y368053D01*
X501866Y368047D01*
X501910Y368056D01*
X501956Y368056D01*
X502081Y368088D01*
X502208Y368112D01*
X502250Y368130D01*
X502294Y368141D01*
X502409Y368201D01*
X502527Y368253D01*
X502563Y368280D01*
X502604Y368301D01*
X502702Y368385D01*
X502805Y368462D01*
X502834Y368497D01*
X502869Y368527D01*
X502946Y368631D01*
X503029Y368730D01*
X503049Y368770D01*
X503076Y368807D01*
X503127Y368926D01*
X503186Y369041D01*
X503196Y369085D01*
X503214Y369127D01*
X503237Y369254D01*
X503268Y369380D01*
X503268Y369425D01*
X503276Y369470D01*
X503269Y369599D01*
X503270Y369728D01*
X503260Y369773D01*
X503258Y369818D01*
X503222Y369942D01*
X503194Y370068D01*
X503174Y370109D01*
X503161Y370153D01*
X503098Y370266D01*
X503042Y370382D01*
X503014Y370417D01*
X502991Y370457D01*
X502833Y370644D01*
X441549Y431928D01*
X441548Y431928D01*
X439762Y433714D01*
X439303Y434822D01*
X439279Y434866D01*
X439262Y434913D01*
X439194Y435018D01*
X439134Y435127D01*
X439100Y435164D01*
X439073Y435206D01*
X438983Y435293D01*
X438900Y435385D01*
X438859Y435413D01*
X438822Y435448D01*
X438715Y435512D01*
X438613Y435583D01*
X438566Y435601D01*
X438523Y435627D01*
X438405Y435665D01*
X438289Y435711D01*
X438239Y435718D01*
X438191Y435733D01*
X438067Y435743D01*
X437944Y435762D01*
X437894Y435757D01*
X437844Y435761D01*
X437721Y435743D01*
X437597Y435733D01*
X437549Y435717D01*
X437499Y435710D01*
X437383Y435664D01*
X437265Y435626D01*
X437222Y435600D01*
X437175Y435581D01*
X437073Y435510D01*
X436967Y435446D01*
X436930Y435411D01*
X436889Y435382D01*
X436806Y435290D01*
X436717Y435203D01*
X436689Y435161D01*
X436656Y435123D01*
X436596Y435014D01*
X436528Y434910D01*
X436511Y434862D01*
X436487Y434818D01*
X436453Y434698D01*
X436412Y434581D01*
X436406Y434531D01*
X436392Y434483D01*
X436373Y434239D01*
X436373Y401305D01*
X436387Y401179D01*
X436394Y401053D01*
X436407Y401007D01*
X436413Y400959D01*
X436455Y400840D01*
X436490Y400718D01*
X436514Y400676D01*
X436530Y400631D01*
X436599Y400524D01*
X436660Y400414D01*
X436700Y400368D01*
X436719Y400338D01*
X436754Y400304D01*
X436819Y400228D01*
X468037Y369010D01*
X468097Y368963D01*
X468150Y368908D01*
X468233Y368855D01*
X468310Y368793D01*
X468379Y368761D01*
X468443Y368720D01*
X468536Y368687D01*
X468625Y368645D01*
X468699Y368629D01*
X468772Y368603D01*
X468870Y368592D01*
X468966Y368571D01*
X469042Y368573D01*
X469118Y368564D01*
X469216Y368575D01*
X469314Y368577D01*
X469388Y368596D01*
X469464Y368605D01*
X469606Y368651D01*
X469652Y368662D01*
X469669Y368671D01*
X469697Y368680D01*
X471234Y369317D01*
X476186Y369317D01*
X480761Y367422D01*
X484262Y363921D01*
X485551Y360808D01*
X485629Y360668D01*
X485704Y360527D01*
X485713Y360516D01*
X485720Y360503D01*
X485828Y360385D01*
X485933Y360265D01*
X485945Y360256D01*
X485954Y360245D01*
X486086Y360154D01*
X486216Y360061D01*
X486229Y360055D01*
X486241Y360047D01*
X486390Y359988D01*
X486538Y359927D01*
X486552Y359925D01*
X486565Y359919D01*
X486723Y359896D01*
X486881Y359870D01*
X486896Y359871D01*
X486910Y359868D01*
X487070Y359882D01*
X487229Y359892D01*
X487243Y359896D01*
X487257Y359897D01*
X487410Y359947D01*
X487563Y359993D01*
X487575Y360000D01*
X487589Y360004D01*
X487727Y360087D01*
X487865Y360167D01*
X487875Y360177D01*
X487888Y360184D01*
X488003Y360296D01*
X488119Y360405D01*
X488127Y360417D01*
X488138Y360427D01*
X488224Y360561D01*
X488313Y360694D01*
X488320Y360710D01*
X488326Y360720D01*
X488339Y360757D01*
X488407Y360920D01*
X488517Y361258D01*
X489334Y362861D01*
X490391Y364317D01*
X491663Y365589D01*
X493119Y366646D01*
X494722Y367463D01*
X496433Y368019D01*
X496571Y368041D01*
X496571Y357886D01*
X496574Y357860D01*
X496572Y357834D01*
X496594Y357687D01*
X496611Y357540D01*
X496619Y357515D01*
X496623Y357489D01*
X496678Y357352D01*
X496728Y357212D01*
X496742Y357190D01*
X496752Y357165D01*
X496837Y357044D01*
X496917Y356919D01*
X496936Y356901D01*
X496951Y356879D01*
X496967Y356865D01*
X496885Y356780D01*
X496871Y356757D01*
X496854Y356738D01*
X496782Y356608D01*
X496706Y356481D01*
X496698Y356456D01*
X496685Y356433D01*
X496645Y356290D01*
X496600Y356149D01*
X496597Y356123D01*
X496590Y356098D01*
X496571Y355854D01*
X496571Y345699D01*
X496433Y345721D01*
X494722Y346277D01*
X493119Y347094D01*
X491663Y348151D01*
X490391Y349423D01*
X489334Y350879D01*
X488517Y352482D01*
X488407Y352820D01*
X488341Y352964D01*
X488277Y353112D01*
X488268Y353124D01*
X488262Y353137D01*
X488164Y353263D01*
X488069Y353392D01*
X488058Y353401D01*
X488049Y353412D01*
X487925Y353513D01*
X487803Y353617D01*
X487790Y353623D01*
X487779Y353632D01*
X487634Y353703D01*
X487493Y353775D01*
X487479Y353779D01*
X487466Y353785D01*
X487308Y353821D01*
X487154Y353860D01*
X487140Y353860D01*
X487126Y353863D01*
X486966Y353862D01*
X486806Y353865D01*
X486792Y353862D01*
X486777Y353861D01*
X486622Y353824D01*
X486465Y353790D01*
X486452Y353784D01*
X486438Y353781D01*
X486294Y353709D01*
X486151Y353641D01*
X486140Y353632D01*
X486126Y353625D01*
X486003Y353523D01*
X485878Y353423D01*
X485869Y353412D01*
X485858Y353403D01*
X485761Y353275D01*
X485662Y353150D01*
X485655Y353134D01*
X485647Y353125D01*
X485632Y353090D01*
X485551Y352932D01*
X484262Y349819D01*
X480761Y346318D01*
X476186Y344423D01*
X471234Y344423D01*
X466659Y346318D01*
X463158Y349819D01*
X462417Y351608D01*
X462369Y351696D01*
X462329Y351788D01*
X462284Y351848D01*
X462248Y351913D01*
X462181Y351987D01*
X462121Y352068D01*
X462064Y352116D01*
X462014Y352171D01*
X461931Y352228D01*
X461855Y352293D01*
X461788Y352327D01*
X461727Y352369D01*
X461634Y352406D01*
X461544Y352452D01*
X461472Y352470D01*
X461403Y352497D01*
X461304Y352512D01*
X461206Y352536D01*
X461132Y352537D01*
X461058Y352548D01*
X460958Y352539D01*
X460858Y352541D01*
X460785Y352525D01*
X460711Y352519D01*
X460615Y352488D01*
X460517Y352467D01*
X460450Y352435D01*
X460379Y352412D01*
X460293Y352360D01*
X460202Y352317D01*
X460144Y352270D01*
X460081Y352232D01*
X460009Y352162D01*
X459930Y352099D01*
X459884Y352041D01*
X459831Y351989D01*
X459776Y351905D01*
X459714Y351826D01*
X459668Y351737D01*
X459642Y351696D01*
X459630Y351662D01*
X459603Y351608D01*
X458862Y349819D01*
X455361Y346318D01*
X450786Y344423D01*
X445834Y344423D01*
X441259Y346318D01*
X437758Y349819D01*
X437017Y351608D01*
X436969Y351696D01*
X436929Y351788D01*
X436884Y351848D01*
X436848Y351913D01*
X436781Y351987D01*
X436721Y352068D01*
X436664Y352116D01*
X436614Y352171D01*
X436531Y352228D01*
X436455Y352293D01*
X436388Y352327D01*
X436327Y352369D01*
X436234Y352406D01*
X436144Y352452D01*
X436072Y352470D01*
X436003Y352497D01*
X435904Y352512D01*
X435806Y352536D01*
X435732Y352537D01*
X435658Y352548D01*
X435558Y352539D01*
X435458Y352541D01*
X435385Y352525D01*
X435311Y352519D01*
X435215Y352488D01*
X435117Y352467D01*
X435050Y352435D01*
X434979Y352412D01*
X434893Y352360D01*
X434802Y352317D01*
X434744Y352270D01*
X434681Y352232D01*
X434609Y352162D01*
X434530Y352099D01*
X434484Y352041D01*
X434431Y351989D01*
X434376Y351905D01*
X434314Y351826D01*
X434268Y351737D01*
X434242Y351696D01*
X434230Y351662D01*
X434203Y351608D01*
X433462Y349819D01*
X429961Y346318D01*
X426161Y344744D01*
X426030Y344671D01*
X425896Y344603D01*
X425878Y344587D01*
X425857Y344575D01*
X425745Y344474D01*
X425631Y344377D01*
X425616Y344357D01*
X425598Y344341D01*
X425513Y344217D01*
X425424Y344096D01*
X425414Y344074D01*
X425400Y344054D01*
X425345Y343914D01*
X425286Y343776D01*
X425281Y343753D01*
X425272Y343730D01*
X425251Y343581D01*
X425224Y343433D01*
X425225Y343409D01*
X425222Y343385D01*
X425234Y343235D01*
X425242Y343085D01*
X425249Y343062D01*
X425251Y343038D01*
X425297Y342895D01*
X425338Y342750D01*
X425350Y342729D01*
X425358Y342706D01*
X425435Y342578D01*
X425509Y342446D01*
X425528Y342424D01*
X425537Y342408D01*
X425570Y342374D01*
X425667Y342260D01*
X426975Y340952D01*
X426975Y202786D01*
X424148Y199959D01*
X417776Y193588D01*
X417745Y193548D01*
X417708Y193514D01*
X417637Y193412D01*
X417559Y193315D01*
X417538Y193269D01*
X417509Y193228D01*
X417464Y193112D01*
X417411Y193000D01*
X417400Y192950D01*
X417382Y192904D01*
X417363Y192780D01*
X417337Y192659D01*
X417338Y192609D01*
X417331Y192559D01*
X417341Y192434D01*
X417343Y192310D01*
X417355Y192262D01*
X417360Y192211D01*
X417398Y192093D01*
X417428Y191972D01*
X417451Y191928D01*
X417467Y191880D01*
X417531Y191773D01*
X417588Y191663D01*
X417620Y191624D01*
X417646Y191581D01*
X417733Y191492D01*
X417814Y191397D01*
X417854Y191367D01*
X417889Y191331D01*
X417994Y191264D01*
X418094Y191190D01*
X418140Y191170D01*
X418183Y191143D01*
X418300Y191101D01*
X418414Y191052D01*
X418463Y191043D01*
X418511Y191026D01*
X418635Y191012D01*
X418757Y190990D01*
X418807Y190993D01*
X418857Y190987D01*
X418981Y191002D01*
X419105Y191008D01*
X419153Y191022D01*
X419203Y191028D01*
X419436Y191103D01*
X419440Y191105D01*
X420434Y191517D01*
X425386Y191517D01*
X429961Y189622D01*
X433462Y186121D01*
X434751Y183008D01*
X434829Y182868D01*
X434904Y182727D01*
X434913Y182716D01*
X434920Y182703D01*
X435028Y182585D01*
X435133Y182465D01*
X435145Y182456D01*
X435154Y182445D01*
X435286Y182354D01*
X435416Y182261D01*
X435429Y182255D01*
X435441Y182247D01*
X435590Y182188D01*
X435738Y182127D01*
X435752Y182125D01*
X435765Y182119D01*
X435924Y182096D01*
X436081Y182070D01*
X436096Y182071D01*
X436110Y182068D01*
X436269Y182082D01*
X436429Y182092D01*
X436443Y182096D01*
X436457Y182097D01*
X436609Y182146D01*
X436763Y182193D01*
X436775Y182200D01*
X436789Y182204D01*
X436926Y182287D01*
X437065Y182367D01*
X437075Y182377D01*
X437088Y182384D01*
X437202Y182495D01*
X437319Y182605D01*
X437327Y182617D01*
X437338Y182627D01*
X437424Y182761D01*
X437513Y182894D01*
X437520Y182910D01*
X437526Y182920D01*
X437539Y182957D01*
X437607Y183120D01*
X437717Y183458D01*
X438534Y185061D01*
X439591Y186517D01*
X440863Y187789D01*
X442319Y188846D01*
X443922Y189663D01*
X445633Y190219D01*
X445771Y190241D01*
X445771Y180086D01*
X445774Y180060D01*
X445772Y180034D01*
X445794Y179887D01*
X445811Y179740D01*
X445819Y179715D01*
X445823Y179689D01*
X445878Y179552D01*
X445928Y179412D01*
X445942Y179390D01*
X445952Y179365D01*
X446037Y179244D01*
X446117Y179119D01*
X446136Y179101D01*
X446151Y179079D01*
X446167Y179065D01*
X446085Y178980D01*
X446071Y178957D01*
X446054Y178938D01*
X445982Y178808D01*
X445906Y178681D01*
X445898Y178656D01*
X445885Y178633D01*
X445845Y178490D01*
X445800Y178349D01*
X445797Y178323D01*
X445790Y178298D01*
X445771Y178054D01*
X445771Y167899D01*
X445633Y167921D01*
X443922Y168477D01*
X442319Y169294D01*
X440863Y170351D01*
X439591Y171623D01*
X438534Y173079D01*
X437717Y174682D01*
X437607Y175020D01*
X437541Y175164D01*
X437477Y175312D01*
X437468Y175324D01*
X437462Y175337D01*
X437365Y175462D01*
X437269Y175592D01*
X437258Y175601D01*
X437249Y175612D01*
X437125Y175713D01*
X437003Y175817D01*
X436990Y175823D01*
X436979Y175832D01*
X436836Y175902D01*
X436693Y175976D01*
X436678Y175979D01*
X436666Y175985D01*
X436510Y176021D01*
X436354Y176060D01*
X436340Y176060D01*
X436326Y176063D01*
X436166Y176062D01*
X436006Y176065D01*
X435992Y176062D01*
X435977Y176061D01*
X435822Y176025D01*
X435665Y175990D01*
X435652Y175984D01*
X435638Y175981D01*
X435495Y175909D01*
X435351Y175841D01*
X435339Y175832D01*
X435326Y175825D01*
X435203Y175723D01*
X435078Y175623D01*
X435069Y175612D01*
X435058Y175603D01*
X434961Y175475D01*
X434862Y175350D01*
X434855Y175334D01*
X434848Y175325D01*
X434832Y175290D01*
X434751Y175132D01*
X433462Y172019D01*
X429961Y168518D01*
X428423Y167881D01*
X428356Y167844D01*
X428285Y167816D01*
X428205Y167760D01*
X428118Y167712D01*
X428062Y167661D01*
X427999Y167617D01*
X427933Y167544D01*
X427860Y167478D01*
X427817Y167415D01*
X427766Y167358D01*
X427718Y167272D01*
X427662Y167191D01*
X427634Y167120D01*
X427597Y167053D01*
X427570Y166958D01*
X427534Y166867D01*
X427523Y166791D01*
X427502Y166718D01*
X427490Y166569D01*
X427483Y166522D01*
X427485Y166503D01*
X427483Y166474D01*
X427483Y152385D01*
X427497Y152259D01*
X427504Y152133D01*
X427517Y152087D01*
X427523Y152039D01*
X427565Y151920D01*
X427600Y151798D01*
X427624Y151756D01*
X427640Y151711D01*
X427709Y151604D01*
X427770Y151494D01*
X427810Y151448D01*
X427829Y151418D01*
X427864Y151384D01*
X427929Y151308D01*
X478968Y100269D01*
X479067Y100190D01*
X479161Y100106D01*
X479203Y100082D01*
X479241Y100052D01*
X479355Y99998D01*
X479466Y99937D01*
X479512Y99924D01*
X479556Y99903D01*
X479679Y99877D01*
X479801Y99842D01*
X479862Y99837D01*
X479897Y99830D01*
X479945Y99831D01*
X480045Y99823D01*
X494134Y99823D01*
X494210Y99831D01*
X494286Y99830D01*
X494383Y99851D01*
X494480Y99863D01*
X494552Y99888D01*
X494627Y99905D01*
X494716Y99947D01*
X494808Y99980D01*
X494873Y100022D01*
X494942Y100054D01*
X495019Y100116D01*
X495101Y100169D01*
X495154Y100224D01*
X495214Y100272D01*
X495275Y100349D01*
X495343Y100420D01*
X495383Y100485D01*
X495430Y100545D01*
X495498Y100679D01*
X495522Y100719D01*
X495528Y100737D01*
X495541Y100763D01*
X496178Y102301D01*
X499679Y105802D01*
X504254Y107697D01*
X509206Y107697D01*
X513781Y105802D01*
X517282Y102301D01*
X519177Y97726D01*
X519177Y92774D01*
X517282Y88199D01*
X513781Y84698D01*
X509206Y82803D01*
X504254Y82803D01*
X499679Y84698D01*
X496178Y88199D01*
X495541Y89737D01*
X495504Y89804D01*
X495476Y89875D01*
X495420Y89955D01*
X495372Y90042D01*
X495321Y90098D01*
X495277Y90161D01*
X495204Y90227D01*
X495138Y90300D01*
X495075Y90343D01*
X495018Y90394D01*
X494932Y90442D01*
X494851Y90498D01*
X494780Y90526D01*
X494713Y90563D01*
X494618Y90590D01*
X494527Y90626D01*
X494451Y90637D01*
X494378Y90658D01*
X494229Y90670D01*
X494182Y90677D01*
X494163Y90675D01*
X494134Y90677D01*
X476610Y90677D01*
X474930Y91373D01*
X419033Y147270D01*
X418337Y148950D01*
X418337Y166474D01*
X418329Y166550D01*
X418330Y166626D01*
X418309Y166723D01*
X418297Y166820D01*
X418272Y166892D01*
X418255Y166967D01*
X418213Y167056D01*
X418180Y167148D01*
X418138Y167213D01*
X418106Y167282D01*
X418044Y167359D01*
X417991Y167441D01*
X417936Y167494D01*
X417888Y167554D01*
X417811Y167615D01*
X417740Y167683D01*
X417675Y167723D01*
X417615Y167770D01*
X417481Y167838D01*
X417441Y167862D01*
X417423Y167868D01*
X417397Y167881D01*
X415859Y168518D01*
X412358Y172019D01*
X411617Y173808D01*
X411569Y173896D01*
X411528Y173988D01*
X411484Y174048D01*
X411448Y174113D01*
X411381Y174187D01*
X411321Y174268D01*
X411264Y174316D01*
X411214Y174371D01*
X411131Y174428D01*
X411055Y174493D01*
X410988Y174527D01*
X410927Y174569D01*
X410834Y174606D01*
X410744Y174652D01*
X410672Y174670D01*
X410603Y174697D01*
X410504Y174712D01*
X410406Y174736D01*
X410332Y174737D01*
X410258Y174748D01*
X410158Y174739D01*
X410058Y174741D01*
X409985Y174725D01*
X409911Y174719D01*
X409815Y174688D01*
X409717Y174667D01*
X409650Y174635D01*
X409579Y174612D01*
X409493Y174560D01*
X409402Y174517D01*
X409344Y174470D01*
X409281Y174432D01*
X409209Y174362D01*
X409130Y174299D01*
X409084Y174241D01*
X409031Y174189D01*
X408976Y174105D01*
X408914Y174026D01*
X408868Y173936D01*
X408842Y173896D01*
X408830Y173862D01*
X408803Y173808D01*
X408062Y172019D01*
X404561Y168518D01*
X399986Y166623D01*
X395034Y166623D01*
X390459Y168518D01*
X386958Y172019D01*
X386217Y173808D01*
X386169Y173896D01*
X386128Y173988D01*
X386084Y174048D01*
X386048Y174113D01*
X385981Y174187D01*
X385921Y174268D01*
X385864Y174316D01*
X385814Y174371D01*
X385731Y174428D01*
X385655Y174493D01*
X385588Y174527D01*
X385527Y174569D01*
X385434Y174606D01*
X385344Y174652D01*
X385272Y174670D01*
X385203Y174697D01*
X385104Y174712D01*
X385006Y174736D01*
X384932Y174737D01*
X384858Y174748D01*
X384758Y174739D01*
X384658Y174741D01*
X384585Y174725D01*
X384511Y174719D01*
X384415Y174688D01*
X384317Y174667D01*
X384250Y174635D01*
X384179Y174612D01*
X384093Y174560D01*
X384002Y174517D01*
X383944Y174470D01*
X383881Y174432D01*
X383809Y174362D01*
X383730Y174299D01*
X383684Y174241D01*
X383631Y174189D01*
X383576Y174105D01*
X383514Y174026D01*
X383468Y173936D01*
X383442Y173896D01*
X383430Y173862D01*
X383403Y173808D01*
X382662Y172019D01*
X379161Y168518D01*
X374586Y166623D01*
X369634Y166623D01*
X365059Y168518D01*
X361558Y172019D01*
X360817Y173808D01*
X360769Y173896D01*
X360728Y173988D01*
X360684Y174048D01*
X360648Y174113D01*
X360581Y174187D01*
X360521Y174268D01*
X360464Y174316D01*
X360414Y174371D01*
X360331Y174428D01*
X360255Y174493D01*
X360188Y174527D01*
X360127Y174569D01*
X360034Y174606D01*
X359944Y174652D01*
X359872Y174670D01*
X359803Y174697D01*
X359704Y174712D01*
X359606Y174736D01*
X359532Y174737D01*
X359458Y174748D01*
X359358Y174739D01*
X359258Y174741D01*
X359185Y174725D01*
X359111Y174719D01*
X359015Y174688D01*
X358917Y174667D01*
X358850Y174635D01*
X358779Y174612D01*
X358693Y174560D01*
X358602Y174517D01*
X358544Y174470D01*
X358481Y174432D01*
X358409Y174362D01*
X358330Y174299D01*
X358284Y174241D01*
X358231Y174189D01*
X358176Y174105D01*
X358114Y174026D01*
X358068Y173936D01*
X358042Y173896D01*
X358030Y173862D01*
X358003Y173808D01*
X357262Y172019D01*
X353761Y168518D01*
X349186Y166623D01*
X344234Y166623D01*
X339659Y168518D01*
X336158Y172019D01*
X335417Y173808D01*
X335369Y173896D01*
X335328Y173988D01*
X335284Y174048D01*
X335248Y174113D01*
X335181Y174187D01*
X335121Y174268D01*
X335064Y174316D01*
X335014Y174371D01*
X334931Y174428D01*
X334855Y174493D01*
X334788Y174527D01*
X334727Y174569D01*
X334634Y174606D01*
X334544Y174652D01*
X334472Y174670D01*
X334403Y174697D01*
X334304Y174712D01*
X334206Y174736D01*
X334132Y174737D01*
X334058Y174748D01*
X333958Y174739D01*
X333858Y174741D01*
X333785Y174725D01*
X333711Y174719D01*
X333615Y174688D01*
X333517Y174667D01*
X333450Y174635D01*
X333379Y174612D01*
X333293Y174560D01*
X333202Y174517D01*
X333144Y174470D01*
X333081Y174432D01*
X333009Y174362D01*
X332930Y174299D01*
X332884Y174241D01*
X332831Y174189D01*
X332776Y174105D01*
X332714Y174026D01*
X332668Y173936D01*
X332642Y173896D01*
X332630Y173862D01*
X332603Y173808D01*
X331862Y172019D01*
X328361Y168518D01*
X323786Y166623D01*
X318834Y166623D01*
X314259Y168518D01*
X310758Y172019D01*
X310017Y173808D01*
X309969Y173896D01*
X309928Y173988D01*
X309884Y174048D01*
X309848Y174113D01*
X309781Y174187D01*
X309721Y174268D01*
X309664Y174316D01*
X309614Y174371D01*
X309531Y174428D01*
X309455Y174493D01*
X309388Y174527D01*
X309327Y174569D01*
X309234Y174606D01*
X309144Y174652D01*
X309072Y174670D01*
X309003Y174697D01*
X308904Y174712D01*
X308806Y174736D01*
X308732Y174737D01*
X308658Y174748D01*
X308558Y174739D01*
X308458Y174741D01*
X308385Y174725D01*
X308311Y174719D01*
X308215Y174688D01*
X308117Y174667D01*
X308050Y174635D01*
X307979Y174612D01*
X307893Y174560D01*
X307802Y174517D01*
X307744Y174470D01*
X307681Y174432D01*
X307609Y174362D01*
X307530Y174299D01*
X307484Y174241D01*
X307431Y174189D01*
X307376Y174105D01*
X307314Y174026D01*
X307268Y173936D01*
X307242Y173896D01*
X307230Y173862D01*
X307203Y173808D01*
X306462Y172019D01*
X302961Y168518D01*
X298386Y166623D01*
X293434Y166623D01*
X288859Y168518D01*
X285358Y172019D01*
X284617Y173808D01*
X284569Y173896D01*
X284528Y173988D01*
X284484Y174048D01*
X284448Y174113D01*
X284381Y174187D01*
X284321Y174268D01*
X284264Y174316D01*
X284214Y174371D01*
X284131Y174428D01*
X284055Y174493D01*
X283988Y174527D01*
X283927Y174569D01*
X283834Y174606D01*
X283744Y174652D01*
X283672Y174670D01*
X283603Y174697D01*
X283504Y174712D01*
X283406Y174736D01*
X283332Y174737D01*
X283258Y174748D01*
X283158Y174739D01*
X283058Y174741D01*
X282985Y174725D01*
X282911Y174719D01*
X282815Y174688D01*
X282717Y174667D01*
X282650Y174635D01*
X282579Y174612D01*
X282493Y174560D01*
X282402Y174517D01*
X282344Y174470D01*
X282281Y174432D01*
X282209Y174362D01*
X282130Y174299D01*
X282084Y174241D01*
X282031Y174189D01*
X281976Y174105D01*
X281914Y174026D01*
X281868Y173936D01*
X281842Y173896D01*
X281830Y173862D01*
X281803Y173808D01*
X281062Y172019D01*
X277561Y168518D01*
X272986Y166623D01*
X268034Y166623D01*
X263459Y168518D01*
X259958Y172019D01*
X259217Y173808D01*
X259169Y173896D01*
X259128Y173988D01*
X259084Y174048D01*
X259048Y174113D01*
X258981Y174187D01*
X258921Y174268D01*
X258864Y174316D01*
X258814Y174371D01*
X258731Y174428D01*
X258655Y174493D01*
X258588Y174527D01*
X258527Y174569D01*
X258434Y174606D01*
X258344Y174652D01*
X258272Y174670D01*
X258203Y174697D01*
X258104Y174712D01*
X258006Y174736D01*
X257932Y174737D01*
X257858Y174748D01*
X257758Y174739D01*
X257658Y174741D01*
X257585Y174725D01*
X257511Y174719D01*
X257415Y174688D01*
X257317Y174667D01*
X257250Y174635D01*
X257179Y174612D01*
X257093Y174560D01*
X257002Y174517D01*
X256944Y174470D01*
X256881Y174432D01*
X256809Y174362D01*
X256730Y174299D01*
X256684Y174241D01*
X256631Y174189D01*
X256576Y174105D01*
X256514Y174026D01*
X256468Y173936D01*
X256442Y173896D01*
X256430Y173862D01*
X256403Y173808D01*
X255662Y172019D01*
X252161Y168518D01*
X247586Y166623D01*
X242634Y166623D01*
X238059Y168518D01*
X235773Y170805D01*
X235695Y170867D01*
X235622Y170937D01*
X235558Y170975D01*
X235500Y171021D01*
X235409Y171064D01*
X235323Y171116D01*
X235252Y171138D01*
X235185Y171170D01*
X235087Y171191D01*
X234991Y171222D01*
X234917Y171228D01*
X234844Y171244D01*
X234744Y171242D01*
X234644Y171250D01*
X234570Y171239D01*
X234496Y171238D01*
X234399Y171213D01*
X234299Y171198D01*
X234230Y171171D01*
X234158Y171153D01*
X234069Y171107D01*
X233975Y171069D01*
X233914Y171027D01*
X233848Y170993D01*
X233772Y170928D01*
X233689Y170871D01*
X233639Y170815D01*
X233583Y170767D01*
X233523Y170686D01*
X233456Y170612D01*
X233420Y170547D01*
X233375Y170487D01*
X233336Y170395D01*
X233287Y170307D01*
X233267Y170235D01*
X233237Y170167D01*
X233220Y170068D01*
X233192Y169971D01*
X233184Y169871D01*
X233176Y169824D01*
X233178Y169788D01*
X233173Y169728D01*
X233173Y87990D01*
X232477Y86310D01*
X231190Y85023D01*
X229510Y84327D01*
X192793Y84327D01*
X192710Y84318D01*
X192627Y84318D01*
X192538Y84298D01*
X192447Y84287D01*
X192368Y84259D01*
X192287Y84241D01*
X192205Y84201D01*
X192119Y84170D01*
X192049Y84125D01*
X191974Y84088D01*
X191903Y84030D01*
X191826Y83981D01*
X191768Y83921D01*
X191703Y83868D01*
X191648Y83796D01*
X191584Y83730D01*
X191541Y83658D01*
X191490Y83592D01*
X191452Y83509D01*
X191405Y83431D01*
X191380Y83351D01*
X191345Y83275D01*
X191327Y83186D01*
X191299Y83099D01*
X191292Y83016D01*
X191276Y82934D01*
X191278Y82843D01*
X191271Y82752D01*
X191283Y82669D01*
X191286Y82585D01*
X191309Y82497D01*
X191323Y82407D01*
X191354Y82329D01*
X191375Y82249D01*
X191433Y82129D01*
X191452Y82083D01*
X191465Y82063D01*
X191482Y82029D01*
X218066Y37071D01*
X218153Y36956D01*
X218234Y36839D01*
X218258Y36818D01*
X218277Y36793D01*
X218387Y36701D01*
X218493Y36606D01*
X218521Y36590D01*
X218545Y36570D01*
X218673Y36506D01*
X218798Y36437D01*
X218828Y36429D01*
X218857Y36415D01*
X218996Y36381D01*
X219134Y36342D01*
X219172Y36339D01*
X219196Y36334D01*
X219245Y36333D01*
X219377Y36323D01*
X554031Y36323D01*
X554177Y36340D01*
G37*
%LPC*%
G36*
X363969Y1095080D02*
X363969Y1095080D01*
X351672Y1101451D01*
X341550Y1110905D01*
X334353Y1122739D01*
X330617Y1136075D01*
X330617Y1149925D01*
X334353Y1163261D01*
X341550Y1175095D01*
X351672Y1184549D01*
X363969Y1190920D01*
X377529Y1193738D01*
X391347Y1192793D01*
X404398Y1188155D01*
X415713Y1180168D01*
X424453Y1169424D01*
X429971Y1156721D01*
X431857Y1143000D01*
X429971Y1129279D01*
X424453Y1116575D01*
X415713Y1105832D01*
X404398Y1097845D01*
X391347Y1093207D01*
X377529Y1092262D01*
X363969Y1095080D01*
G37*
%LPD*%
G36*
X359462Y183401D02*
X359462Y183401D01*
X359562Y183399D01*
X359635Y183415D01*
X359709Y183421D01*
X359805Y183452D01*
X359903Y183473D01*
X359970Y183505D01*
X360041Y183528D01*
X360127Y183580D01*
X360218Y183623D01*
X360276Y183670D01*
X360339Y183708D01*
X360412Y183778D01*
X360490Y183841D01*
X360536Y183899D01*
X360589Y183951D01*
X360644Y184035D01*
X360706Y184114D01*
X360752Y184204D01*
X360778Y184244D01*
X360790Y184278D01*
X360817Y184332D01*
X361558Y186121D01*
X365059Y189622D01*
X369634Y191517D01*
X374586Y191517D01*
X376631Y190669D01*
X376705Y190648D01*
X376775Y190618D01*
X376872Y190601D01*
X376966Y190574D01*
X377043Y190570D01*
X377118Y190557D01*
X377216Y190562D01*
X377314Y190557D01*
X377390Y190571D01*
X377466Y190574D01*
X377560Y190602D01*
X377657Y190619D01*
X377727Y190650D01*
X377801Y190671D01*
X377887Y190719D01*
X377977Y190758D01*
X378038Y190804D01*
X378105Y190841D01*
X378219Y190938D01*
X378257Y190966D01*
X378269Y190981D01*
X378291Y191000D01*
X392999Y205708D01*
X393078Y205807D01*
X393162Y205900D01*
X393186Y205943D01*
X393216Y205981D01*
X393270Y206095D01*
X393331Y206205D01*
X393344Y206252D01*
X393365Y206296D01*
X393391Y206419D01*
X393426Y206541D01*
X393431Y206602D01*
X393438Y206636D01*
X393437Y206684D01*
X393445Y206785D01*
X393445Y336954D01*
X393431Y337080D01*
X393424Y337206D01*
X393411Y337252D01*
X393405Y337300D01*
X393363Y337419D01*
X393328Y337541D01*
X393304Y337583D01*
X393288Y337628D01*
X393219Y337735D01*
X393158Y337845D01*
X393118Y337891D01*
X393099Y337921D01*
X393064Y337955D01*
X392999Y338031D01*
X383013Y348017D01*
X382993Y348033D01*
X382976Y348053D01*
X382857Y348141D01*
X382740Y348234D01*
X382717Y348245D01*
X382696Y348260D01*
X382559Y348319D01*
X382425Y348382D01*
X382400Y348388D01*
X382376Y348398D01*
X382229Y348425D01*
X382085Y348456D01*
X382058Y348455D01*
X382033Y348460D01*
X381884Y348452D01*
X381736Y348450D01*
X381711Y348443D01*
X381684Y348442D01*
X381542Y348401D01*
X381398Y348365D01*
X381375Y348353D01*
X381350Y348346D01*
X381220Y348273D01*
X381088Y348205D01*
X381068Y348188D01*
X381045Y348175D01*
X380859Y348017D01*
X379161Y346318D01*
X374586Y344423D01*
X369634Y344423D01*
X365059Y346318D01*
X361558Y349819D01*
X360817Y351608D01*
X360769Y351696D01*
X360729Y351788D01*
X360684Y351848D01*
X360648Y351913D01*
X360581Y351987D01*
X360521Y352068D01*
X360464Y352116D01*
X360414Y352171D01*
X360331Y352228D01*
X360255Y352293D01*
X360188Y352327D01*
X360127Y352369D01*
X360034Y352406D01*
X359944Y352452D01*
X359872Y352470D01*
X359803Y352497D01*
X359704Y352512D01*
X359606Y352536D01*
X359532Y352537D01*
X359458Y352548D01*
X359358Y352539D01*
X359258Y352541D01*
X359185Y352525D01*
X359111Y352519D01*
X359015Y352488D01*
X358917Y352467D01*
X358850Y352435D01*
X358779Y352412D01*
X358693Y352360D01*
X358602Y352317D01*
X358544Y352270D01*
X358481Y352232D01*
X358409Y352162D01*
X358330Y352099D01*
X358284Y352041D01*
X358231Y351989D01*
X358176Y351905D01*
X358114Y351826D01*
X358068Y351737D01*
X358042Y351696D01*
X358030Y351662D01*
X358003Y351608D01*
X357259Y349814D01*
X357245Y349802D01*
X357157Y349682D01*
X357065Y349566D01*
X357054Y349543D01*
X357038Y349522D01*
X356979Y349385D01*
X356916Y349251D01*
X356911Y349226D01*
X356900Y349201D01*
X356874Y349055D01*
X356843Y348911D01*
X356843Y348884D01*
X356839Y348858D01*
X356846Y348710D01*
X356849Y348562D01*
X356855Y348537D01*
X356856Y348510D01*
X356898Y348368D01*
X356934Y348224D01*
X356946Y348201D01*
X356953Y348176D01*
X357025Y348046D01*
X357093Y347914D01*
X357110Y347894D01*
X357123Y347871D01*
X357282Y347685D01*
X379440Y325527D01*
X379539Y325448D01*
X379633Y325364D01*
X379675Y325340D01*
X379713Y325310D01*
X379827Y325256D01*
X379938Y325195D01*
X379984Y325182D01*
X380028Y325161D01*
X380151Y325135D01*
X380273Y325100D01*
X380334Y325095D01*
X380369Y325088D01*
X380417Y325089D01*
X380517Y325081D01*
X382508Y325081D01*
X385294Y323927D01*
X387427Y321794D01*
X388581Y319008D01*
X388581Y315992D01*
X387427Y313206D01*
X385294Y311073D01*
X382508Y309919D01*
X379492Y309919D01*
X376706Y311073D01*
X374573Y313206D01*
X373419Y315992D01*
X373419Y317983D01*
X373405Y318109D01*
X373398Y318235D01*
X373385Y318281D01*
X373379Y318329D01*
X373337Y318448D01*
X373302Y318570D01*
X373278Y318612D01*
X373262Y318657D01*
X373193Y318764D01*
X373132Y318874D01*
X373092Y318920D01*
X373073Y318950D01*
X373038Y318984D01*
X372973Y319060D01*
X353375Y338658D01*
X353297Y338720D01*
X353224Y338790D01*
X353160Y338829D01*
X353102Y338875D01*
X353011Y338918D01*
X352925Y338969D01*
X352854Y338992D01*
X352787Y339024D01*
X352689Y339045D01*
X352593Y339075D01*
X352519Y339081D01*
X352446Y339097D01*
X352346Y339095D01*
X352246Y339103D01*
X352172Y339092D01*
X352098Y339091D01*
X352001Y339067D01*
X351901Y339052D01*
X351832Y339024D01*
X351760Y339006D01*
X351670Y338960D01*
X351577Y338923D01*
X351516Y338881D01*
X351450Y338846D01*
X351373Y338781D01*
X351291Y338724D01*
X351241Y338669D01*
X351185Y338621D01*
X351125Y338540D01*
X351058Y338465D01*
X351022Y338400D01*
X350977Y338340D01*
X350938Y338248D01*
X350889Y338160D01*
X350869Y338089D01*
X350839Y338020D01*
X350822Y337922D01*
X350794Y337825D01*
X350786Y337725D01*
X350778Y337677D01*
X350780Y337642D01*
X350775Y337581D01*
X350775Y202786D01*
X341576Y193588D01*
X341545Y193548D01*
X341508Y193514D01*
X341437Y193412D01*
X341360Y193315D01*
X341338Y193269D01*
X341309Y193228D01*
X341264Y193112D01*
X341211Y193000D01*
X341200Y192950D01*
X341182Y192904D01*
X341163Y192780D01*
X341137Y192659D01*
X341138Y192609D01*
X341131Y192559D01*
X341141Y192435D01*
X341143Y192310D01*
X341155Y192262D01*
X341160Y192211D01*
X341198Y192093D01*
X341228Y191972D01*
X341251Y191928D01*
X341267Y191880D01*
X341331Y191773D01*
X341388Y191663D01*
X341420Y191624D01*
X341446Y191581D01*
X341533Y191492D01*
X341614Y191397D01*
X341654Y191367D01*
X341689Y191331D01*
X341794Y191264D01*
X341894Y191190D01*
X341940Y191170D01*
X341983Y191143D01*
X342100Y191101D01*
X342214Y191052D01*
X342263Y191043D01*
X342311Y191026D01*
X342435Y191012D01*
X342557Y190990D01*
X342607Y190993D01*
X342657Y190987D01*
X342781Y191002D01*
X342905Y191008D01*
X342953Y191022D01*
X343003Y191028D01*
X343236Y191103D01*
X344234Y191517D01*
X349186Y191517D01*
X353761Y189622D01*
X357262Y186121D01*
X358003Y184332D01*
X358051Y184244D01*
X358091Y184152D01*
X358136Y184092D01*
X358172Y184027D01*
X358239Y183953D01*
X358299Y183872D01*
X358356Y183824D01*
X358406Y183769D01*
X358489Y183712D01*
X358565Y183647D01*
X358632Y183613D01*
X358693Y183571D01*
X358786Y183534D01*
X358876Y183488D01*
X358948Y183470D01*
X359017Y183443D01*
X359116Y183428D01*
X359214Y183404D01*
X359288Y183403D01*
X359362Y183392D01*
X359462Y183401D01*
G37*
G36*
X283262Y183401D02*
X283262Y183401D01*
X283362Y183399D01*
X283435Y183415D01*
X283509Y183421D01*
X283605Y183452D01*
X283703Y183473D01*
X283770Y183505D01*
X283841Y183528D01*
X283927Y183580D01*
X284018Y183623D01*
X284076Y183670D01*
X284139Y183708D01*
X284212Y183778D01*
X284290Y183841D01*
X284336Y183899D01*
X284389Y183951D01*
X284444Y184035D01*
X284506Y184114D01*
X284552Y184204D01*
X284578Y184244D01*
X284590Y184278D01*
X284617Y184332D01*
X285358Y186121D01*
X288859Y189622D01*
X293434Y191517D01*
X298386Y191517D01*
X300431Y190669D01*
X300505Y190648D01*
X300575Y190618D01*
X300672Y190601D01*
X300766Y190574D01*
X300843Y190570D01*
X300918Y190557D01*
X301016Y190562D01*
X301114Y190557D01*
X301190Y190571D01*
X301266Y190574D01*
X301360Y190602D01*
X301457Y190619D01*
X301527Y190650D01*
X301601Y190671D01*
X301687Y190719D01*
X301777Y190758D01*
X301838Y190804D01*
X301905Y190841D01*
X302019Y190938D01*
X302057Y190966D01*
X302069Y190981D01*
X302091Y191000D01*
X316799Y205708D01*
X316878Y205807D01*
X316962Y205900D01*
X316986Y205943D01*
X317016Y205981D01*
X317070Y206095D01*
X317131Y206205D01*
X317144Y206252D01*
X317165Y206296D01*
X317191Y206419D01*
X317226Y206541D01*
X317231Y206602D01*
X317238Y206636D01*
X317237Y206684D01*
X317245Y206785D01*
X317245Y323052D01*
X317228Y323200D01*
X317216Y323351D01*
X317208Y323374D01*
X317205Y323398D01*
X317155Y323539D01*
X317109Y323682D01*
X317096Y323703D01*
X317088Y323726D01*
X317006Y323852D01*
X316929Y323981D01*
X316912Y323998D01*
X316899Y324019D01*
X316791Y324123D01*
X316686Y324231D01*
X316666Y324244D01*
X316648Y324261D01*
X316519Y324338D01*
X316393Y324419D01*
X316370Y324427D01*
X316349Y324440D01*
X316206Y324485D01*
X316064Y324536D01*
X316040Y324539D01*
X316017Y324546D01*
X315868Y324558D01*
X315718Y324575D01*
X315694Y324572D01*
X315670Y324574D01*
X315521Y324552D01*
X315372Y324534D01*
X315344Y324525D01*
X315325Y324522D01*
X315281Y324505D01*
X315139Y324459D01*
X312509Y323369D01*
X309791Y323369D01*
X307281Y324409D01*
X305359Y326331D01*
X304319Y328841D01*
X304319Y329933D01*
X304305Y330059D01*
X304298Y330185D01*
X304285Y330231D01*
X304279Y330279D01*
X304237Y330398D01*
X304202Y330520D01*
X304178Y330562D01*
X304162Y330607D01*
X304093Y330714D01*
X304032Y330824D01*
X303992Y330870D01*
X303973Y330900D01*
X303938Y330934D01*
X303873Y331010D01*
X292033Y342850D01*
X291280Y344668D01*
X291272Y344692D01*
X291255Y344767D01*
X291213Y344856D01*
X291180Y344948D01*
X291138Y345013D01*
X291106Y345082D01*
X291044Y345159D01*
X290991Y345241D01*
X290936Y345294D01*
X290888Y345354D01*
X290811Y345415D01*
X290740Y345483D01*
X290675Y345523D01*
X290615Y345570D01*
X290482Y345638D01*
X290441Y345662D01*
X290423Y345668D01*
X290397Y345681D01*
X289635Y345997D01*
X289490Y346038D01*
X289347Y346084D01*
X289323Y346086D01*
X289300Y346093D01*
X289149Y346100D01*
X289000Y346112D01*
X288976Y346108D01*
X288952Y346110D01*
X288804Y346083D01*
X288655Y346060D01*
X288633Y346051D01*
X288609Y346047D01*
X288471Y345987D01*
X288331Y345932D01*
X288311Y345918D01*
X288289Y345908D01*
X288168Y345818D01*
X288045Y345733D01*
X288029Y345715D01*
X288009Y345700D01*
X287912Y345585D01*
X287812Y345474D01*
X287800Y345453D01*
X287784Y345434D01*
X287716Y345301D01*
X287643Y345169D01*
X287637Y345146D01*
X287626Y345124D01*
X287589Y344978D01*
X287548Y344833D01*
X287546Y344804D01*
X287541Y344786D01*
X287541Y344739D01*
X287529Y344590D01*
X287529Y315751D01*
X287543Y315625D01*
X287550Y315499D01*
X287563Y315452D01*
X287569Y315404D01*
X287611Y315285D01*
X287646Y315164D01*
X287670Y315122D01*
X287686Y315076D01*
X287755Y314970D01*
X287816Y314860D01*
X287856Y314814D01*
X287875Y314784D01*
X287910Y314750D01*
X287975Y314674D01*
X302522Y300127D01*
X302621Y300048D01*
X302714Y299964D01*
X302757Y299940D01*
X302795Y299910D01*
X302909Y299856D01*
X303019Y299795D01*
X303066Y299782D01*
X303110Y299761D01*
X303233Y299735D01*
X303355Y299700D01*
X303416Y299695D01*
X303450Y299688D01*
X303498Y299689D01*
X303599Y299681D01*
X306308Y299681D01*
X309094Y298527D01*
X311227Y296394D01*
X312381Y293608D01*
X312381Y290592D01*
X311227Y287806D01*
X309094Y285673D01*
X306308Y284519D01*
X303292Y284519D01*
X300506Y285673D01*
X298373Y287806D01*
X297219Y290592D01*
X297219Y293301D01*
X297205Y293427D01*
X297198Y293553D01*
X297185Y293600D01*
X297179Y293648D01*
X297137Y293767D01*
X297102Y293888D01*
X297078Y293930D01*
X297062Y293976D01*
X296993Y294082D01*
X296932Y294192D01*
X296892Y294238D01*
X296873Y294268D01*
X296838Y294302D01*
X296773Y294378D01*
X279399Y311752D01*
X279399Y344800D01*
X279382Y344949D01*
X279370Y345099D01*
X279362Y345122D01*
X279359Y345146D01*
X279309Y345288D01*
X279263Y345431D01*
X279250Y345452D01*
X279242Y345474D01*
X279160Y345601D01*
X279083Y345730D01*
X279066Y345747D01*
X279053Y345767D01*
X278945Y345872D01*
X278840Y345980D01*
X278820Y345993D01*
X278802Y346009D01*
X278673Y346087D01*
X278547Y346168D01*
X278524Y346176D01*
X278503Y346188D01*
X278360Y346234D01*
X278218Y346284D01*
X278194Y346287D01*
X278171Y346295D01*
X278022Y346307D01*
X277872Y346323D01*
X277848Y346321D01*
X277824Y346322D01*
X277675Y346300D01*
X277526Y346283D01*
X277498Y346274D01*
X277479Y346271D01*
X277435Y346253D01*
X277293Y346207D01*
X272986Y344423D01*
X272288Y344423D01*
X272262Y344420D01*
X272236Y344422D01*
X272089Y344400D01*
X271942Y344383D01*
X271917Y344375D01*
X271891Y344371D01*
X271753Y344316D01*
X271614Y344266D01*
X271592Y344252D01*
X271567Y344242D01*
X271446Y344157D01*
X271321Y344077D01*
X271303Y344058D01*
X271281Y344043D01*
X271182Y343933D01*
X271079Y343826D01*
X271065Y343804D01*
X271048Y343784D01*
X270976Y343654D01*
X270900Y343527D01*
X270892Y343502D01*
X270879Y343479D01*
X270839Y343336D01*
X270794Y343195D01*
X270792Y343169D01*
X270784Y343144D01*
X270765Y342900D01*
X270765Y241169D01*
X270770Y241119D01*
X270768Y241069D01*
X270790Y240946D01*
X270805Y240823D01*
X270822Y240775D01*
X270831Y240726D01*
X270880Y240612D01*
X270922Y240495D01*
X270949Y240452D01*
X270969Y240406D01*
X271044Y240306D01*
X271111Y240202D01*
X271147Y240167D01*
X271177Y240126D01*
X271272Y240046D01*
X271362Y239960D01*
X271405Y239934D01*
X271443Y239901D01*
X271554Y239845D01*
X271661Y239781D01*
X271709Y239766D01*
X271754Y239743D01*
X271874Y239713D01*
X271993Y239675D01*
X272043Y239671D01*
X272092Y239658D01*
X272216Y239657D01*
X272340Y239647D01*
X272390Y239654D01*
X272440Y239653D01*
X272562Y239680D01*
X272685Y239698D01*
X272732Y239717D01*
X272781Y239728D01*
X272893Y239781D01*
X273009Y239827D01*
X273050Y239856D01*
X273096Y239877D01*
X273193Y239955D01*
X273295Y240026D01*
X273329Y240063D01*
X273368Y240095D01*
X273445Y240192D01*
X273528Y240285D01*
X273553Y240329D01*
X273584Y240368D01*
X273695Y240586D01*
X274902Y243498D01*
X280612Y249208D01*
X288072Y252299D01*
X296148Y252299D01*
X303608Y249208D01*
X309318Y243498D01*
X312409Y236038D01*
X312409Y227962D01*
X309318Y220502D01*
X303608Y214792D01*
X296148Y211701D01*
X288072Y211701D01*
X280612Y214792D01*
X274902Y220502D01*
X273695Y223414D01*
X273671Y223458D01*
X273654Y223505D01*
X273586Y223610D01*
X273526Y223719D01*
X273492Y223756D01*
X273465Y223798D01*
X273375Y223885D01*
X273292Y223977D01*
X273250Y224005D01*
X273214Y224040D01*
X273107Y224104D01*
X273005Y224175D01*
X272958Y224193D01*
X272915Y224219D01*
X272797Y224257D01*
X272681Y224303D01*
X272631Y224310D01*
X272583Y224325D01*
X272459Y224335D01*
X272336Y224353D01*
X272286Y224349D01*
X272236Y224353D01*
X272113Y224335D01*
X271989Y224325D01*
X271941Y224309D01*
X271891Y224302D01*
X271776Y224256D01*
X271657Y224217D01*
X271614Y224191D01*
X271567Y224173D01*
X271465Y224102D01*
X271359Y224038D01*
X271322Y224003D01*
X271281Y223974D01*
X271198Y223882D01*
X271109Y223795D01*
X271081Y223753D01*
X271048Y223715D01*
X270988Y223606D01*
X270920Y223502D01*
X270903Y223454D01*
X270879Y223410D01*
X270845Y223290D01*
X270804Y223173D01*
X270798Y223123D01*
X270784Y223075D01*
X270765Y222831D01*
X270765Y193040D01*
X270768Y193014D01*
X270766Y192988D01*
X270788Y192841D01*
X270805Y192694D01*
X270813Y192669D01*
X270817Y192643D01*
X270872Y192505D01*
X270922Y192366D01*
X270936Y192344D01*
X270946Y192319D01*
X271031Y192198D01*
X271111Y192073D01*
X271130Y192055D01*
X271145Y192033D01*
X271255Y191934D01*
X271362Y191831D01*
X271384Y191817D01*
X271404Y191800D01*
X271534Y191728D01*
X271661Y191652D01*
X271686Y191644D01*
X271709Y191631D01*
X271852Y191591D01*
X271993Y191546D01*
X272019Y191544D01*
X272044Y191536D01*
X272288Y191517D01*
X272986Y191517D01*
X277561Y189622D01*
X281062Y186121D01*
X281803Y184332D01*
X281851Y184244D01*
X281891Y184152D01*
X281936Y184092D01*
X281972Y184027D01*
X282039Y183953D01*
X282099Y183872D01*
X282156Y183824D01*
X282206Y183769D01*
X282289Y183712D01*
X282365Y183647D01*
X282432Y183613D01*
X282493Y183571D01*
X282586Y183534D01*
X282676Y183488D01*
X282748Y183470D01*
X282817Y183443D01*
X282916Y183428D01*
X283014Y183404D01*
X283088Y183403D01*
X283162Y183392D01*
X283262Y183401D01*
G37*
G36*
X1039286Y822213D02*
X1039286Y822213D01*
X1039412Y822220D01*
X1039459Y822233D01*
X1039507Y822239D01*
X1039626Y822281D01*
X1039747Y822316D01*
X1039789Y822340D01*
X1039835Y822356D01*
X1039941Y822425D01*
X1040052Y822486D01*
X1040098Y822526D01*
X1040128Y822545D01*
X1040161Y822580D01*
X1040238Y822645D01*
X1041401Y823808D01*
X1041494Y823926D01*
X1041591Y824041D01*
X1041602Y824062D01*
X1041617Y824081D01*
X1041682Y824217D01*
X1041750Y824351D01*
X1041756Y824374D01*
X1041766Y824396D01*
X1041798Y824543D01*
X1041834Y824689D01*
X1041835Y824713D01*
X1041840Y824737D01*
X1041837Y824887D01*
X1041839Y825037D01*
X1041834Y825061D01*
X1041834Y825085D01*
X1041797Y825231D01*
X1041765Y825378D01*
X1041755Y825400D01*
X1041749Y825423D01*
X1041680Y825557D01*
X1041615Y825693D01*
X1041600Y825712D01*
X1041589Y825733D01*
X1041492Y825848D01*
X1041398Y825965D01*
X1041379Y825980D01*
X1041363Y825998D01*
X1041242Y826088D01*
X1041124Y826181D01*
X1041098Y826194D01*
X1041083Y826206D01*
X1041040Y826224D01*
X1040907Y826292D01*
X1040699Y826378D01*
X1037198Y829879D01*
X1035909Y832992D01*
X1035831Y833132D01*
X1035756Y833273D01*
X1035747Y833284D01*
X1035740Y833297D01*
X1035632Y833415D01*
X1035527Y833535D01*
X1035515Y833544D01*
X1035506Y833555D01*
X1035374Y833646D01*
X1035244Y833739D01*
X1035231Y833745D01*
X1035219Y833753D01*
X1035070Y833812D01*
X1034922Y833873D01*
X1034908Y833875D01*
X1034895Y833881D01*
X1034736Y833904D01*
X1034579Y833930D01*
X1034564Y833929D01*
X1034550Y833932D01*
X1034391Y833918D01*
X1034231Y833908D01*
X1034217Y833904D01*
X1034203Y833903D01*
X1034051Y833854D01*
X1033897Y833807D01*
X1033885Y833800D01*
X1033871Y833796D01*
X1033734Y833713D01*
X1033595Y833633D01*
X1033585Y833623D01*
X1033572Y833616D01*
X1033458Y833505D01*
X1033341Y833395D01*
X1033333Y833383D01*
X1033322Y833373D01*
X1033236Y833239D01*
X1033147Y833106D01*
X1033140Y833090D01*
X1033134Y833080D01*
X1033121Y833043D01*
X1033053Y832880D01*
X1032943Y832542D01*
X1032126Y830939D01*
X1031069Y829483D01*
X1029797Y828211D01*
X1028341Y827154D01*
X1026738Y826337D01*
X1025027Y825781D01*
X1024889Y825759D01*
X1024889Y835914D01*
X1024886Y835940D01*
X1024888Y835966D01*
X1024866Y836113D01*
X1024849Y836260D01*
X1024841Y836285D01*
X1024837Y836311D01*
X1024782Y836448D01*
X1024732Y836588D01*
X1024718Y836610D01*
X1024708Y836635D01*
X1024623Y836756D01*
X1024543Y836881D01*
X1024524Y836899D01*
X1024509Y836921D01*
X1024399Y837020D01*
X1024292Y837123D01*
X1024270Y837137D01*
X1024250Y837154D01*
X1024120Y837226D01*
X1023993Y837302D01*
X1023968Y837310D01*
X1023945Y837323D01*
X1023802Y837363D01*
X1023661Y837408D01*
X1023635Y837410D01*
X1023610Y837417D01*
X1023366Y837437D01*
X1022857Y837437D01*
X1022857Y837946D01*
X1022854Y837972D01*
X1022856Y837998D01*
X1022834Y838145D01*
X1022817Y838292D01*
X1022808Y838317D01*
X1022804Y838343D01*
X1022750Y838481D01*
X1022700Y838620D01*
X1022685Y838642D01*
X1022676Y838667D01*
X1022591Y838788D01*
X1022511Y838913D01*
X1022492Y838931D01*
X1022477Y838953D01*
X1022367Y839052D01*
X1022260Y839155D01*
X1022237Y839169D01*
X1022218Y839186D01*
X1022088Y839258D01*
X1021961Y839334D01*
X1021936Y839342D01*
X1021913Y839355D01*
X1021770Y839395D01*
X1021629Y839440D01*
X1021603Y839442D01*
X1021578Y839450D01*
X1021334Y839469D01*
X1011179Y839469D01*
X1011201Y839607D01*
X1011757Y841318D01*
X1012574Y842921D01*
X1013631Y844377D01*
X1014903Y845649D01*
X1016359Y846706D01*
X1017962Y847523D01*
X1018300Y847633D01*
X1018445Y847699D01*
X1018592Y847763D01*
X1018603Y847772D01*
X1018617Y847778D01*
X1018744Y847876D01*
X1018872Y847971D01*
X1018881Y847982D01*
X1018892Y847991D01*
X1018993Y848115D01*
X1019097Y848237D01*
X1019103Y848250D01*
X1019112Y848261D01*
X1019183Y848405D01*
X1019255Y848547D01*
X1019259Y848561D01*
X1019265Y848574D01*
X1019301Y848730D01*
X1019340Y848885D01*
X1019340Y848900D01*
X1019343Y848914D01*
X1019342Y849074D01*
X1019345Y849234D01*
X1019342Y849248D01*
X1019342Y849263D01*
X1019304Y849418D01*
X1019270Y849574D01*
X1019264Y849588D01*
X1019261Y849602D01*
X1019189Y849745D01*
X1019121Y849889D01*
X1019112Y849900D01*
X1019105Y849913D01*
X1019003Y850037D01*
X1018903Y850162D01*
X1018892Y850171D01*
X1018883Y850182D01*
X1018756Y850278D01*
X1018630Y850378D01*
X1018614Y850385D01*
X1018605Y850392D01*
X1018571Y850408D01*
X1018412Y850489D01*
X1015299Y851778D01*
X1011798Y855279D01*
X1009903Y859854D01*
X1009903Y864806D01*
X1011798Y869381D01*
X1015299Y872882D01*
X1019874Y874777D01*
X1024826Y874777D01*
X1029401Y872882D01*
X1031104Y871179D01*
X1031182Y871116D01*
X1031254Y871046D01*
X1031318Y871008D01*
X1031377Y870962D01*
X1031467Y870919D01*
X1031554Y870868D01*
X1031624Y870845D01*
X1031692Y870813D01*
X1031790Y870792D01*
X1031886Y870761D01*
X1031960Y870755D01*
X1032032Y870740D01*
X1032133Y870742D01*
X1032233Y870733D01*
X1032307Y870744D01*
X1032381Y870746D01*
X1032478Y870770D01*
X1032578Y870785D01*
X1032647Y870813D01*
X1032719Y870831D01*
X1032808Y870877D01*
X1032901Y870914D01*
X1032963Y870956D01*
X1033029Y870990D01*
X1033105Y871055D01*
X1033188Y871113D01*
X1033237Y871168D01*
X1033294Y871216D01*
X1033354Y871297D01*
X1033421Y871372D01*
X1033457Y871437D01*
X1033501Y871497D01*
X1033541Y871589D01*
X1033590Y871677D01*
X1033610Y871748D01*
X1033639Y871817D01*
X1033657Y871915D01*
X1033684Y872012D01*
X1033692Y872112D01*
X1033701Y872160D01*
X1033699Y872195D01*
X1033704Y872256D01*
X1033704Y889225D01*
X1033689Y889351D01*
X1033683Y889477D01*
X1033670Y889524D01*
X1033664Y889572D01*
X1033621Y889691D01*
X1033586Y889812D01*
X1033563Y889854D01*
X1033547Y889900D01*
X1033478Y890006D01*
X1033416Y890116D01*
X1033377Y890162D01*
X1033358Y890192D01*
X1033323Y890226D01*
X1033258Y890302D01*
X1031261Y892299D01*
X1031162Y892378D01*
X1031068Y892462D01*
X1031026Y892486D01*
X1030988Y892516D01*
X1030874Y892570D01*
X1030763Y892631D01*
X1030717Y892644D01*
X1030673Y892665D01*
X1030550Y892691D01*
X1030428Y892726D01*
X1030367Y892731D01*
X1030332Y892738D01*
X1030284Y892737D01*
X1030184Y892745D01*
X949688Y892745D01*
X949588Y892734D01*
X949487Y892732D01*
X949415Y892714D01*
X949341Y892705D01*
X949247Y892672D01*
X949149Y892647D01*
X949083Y892613D01*
X949013Y892588D01*
X948929Y892533D01*
X948840Y892487D01*
X948783Y892439D01*
X948720Y892399D01*
X948651Y892327D01*
X948574Y892262D01*
X948530Y892202D01*
X948478Y892148D01*
X948427Y892062D01*
X948367Y891981D01*
X948338Y891913D01*
X948299Y891849D01*
X948269Y891753D01*
X948229Y891661D01*
X948216Y891588D01*
X948193Y891517D01*
X948185Y891417D01*
X948167Y891318D01*
X948171Y891244D01*
X948165Y891170D01*
X948180Y891070D01*
X948185Y890970D01*
X948206Y890899D01*
X948217Y890825D01*
X948254Y890732D01*
X948282Y890635D01*
X948318Y890570D01*
X948346Y890501D01*
X948403Y890419D01*
X948452Y890331D01*
X948517Y890255D01*
X948545Y890215D01*
X948571Y890191D01*
X948610Y890145D01*
X1016111Y822645D01*
X1016210Y822566D01*
X1016303Y822482D01*
X1016346Y822458D01*
X1016384Y822428D01*
X1016498Y822374D01*
X1016608Y822313D01*
X1016655Y822300D01*
X1016699Y822279D01*
X1016822Y822253D01*
X1016944Y822218D01*
X1017005Y822213D01*
X1017039Y822206D01*
X1017087Y822207D01*
X1017188Y822199D01*
X1039161Y822199D01*
X1039286Y822213D01*
G37*
G36*
X326416Y190562D02*
X326416Y190562D01*
X326514Y190557D01*
X326590Y190571D01*
X326666Y190574D01*
X326760Y190602D01*
X326857Y190619D01*
X326927Y190650D01*
X327001Y190671D01*
X327087Y190719D01*
X327177Y190758D01*
X327238Y190804D01*
X327305Y190841D01*
X327419Y190938D01*
X327457Y190966D01*
X327469Y190981D01*
X327491Y191000D01*
X342199Y205708D01*
X342278Y205807D01*
X342362Y205900D01*
X342386Y205943D01*
X342416Y205981D01*
X342470Y206095D01*
X342531Y206205D01*
X342544Y206252D01*
X342565Y206296D01*
X342591Y206419D01*
X342626Y206541D01*
X342631Y206602D01*
X342638Y206636D01*
X342637Y206684D01*
X342645Y206785D01*
X342645Y336954D01*
X342631Y337080D01*
X342624Y337206D01*
X342611Y337252D01*
X342605Y337300D01*
X342563Y337419D01*
X342528Y337541D01*
X342504Y337583D01*
X342488Y337628D01*
X342419Y337735D01*
X342358Y337845D01*
X342318Y337891D01*
X342299Y337921D01*
X342264Y337955D01*
X342199Y338031D01*
X332213Y348017D01*
X332193Y348033D01*
X332176Y348053D01*
X332057Y348141D01*
X331940Y348234D01*
X331917Y348245D01*
X331896Y348260D01*
X331759Y348319D01*
X331625Y348382D01*
X331600Y348388D01*
X331576Y348398D01*
X331429Y348425D01*
X331285Y348456D01*
X331258Y348455D01*
X331233Y348460D01*
X331084Y348452D01*
X330936Y348450D01*
X330911Y348443D01*
X330884Y348442D01*
X330742Y348401D01*
X330598Y348365D01*
X330575Y348353D01*
X330550Y348346D01*
X330420Y348273D01*
X330288Y348205D01*
X330268Y348188D01*
X330245Y348175D01*
X330059Y348017D01*
X328361Y346318D01*
X325069Y344955D01*
X324938Y344882D01*
X324804Y344813D01*
X324786Y344797D01*
X324765Y344786D01*
X324653Y344685D01*
X324539Y344587D01*
X324524Y344568D01*
X324506Y344551D01*
X324421Y344427D01*
X324332Y344307D01*
X324322Y344285D01*
X324308Y344265D01*
X324253Y344125D01*
X324194Y343987D01*
X324189Y343963D01*
X324180Y343940D01*
X324158Y343791D01*
X324132Y343644D01*
X324133Y343620D01*
X324130Y343596D01*
X324142Y343446D01*
X324150Y343296D01*
X324157Y343273D01*
X324159Y343248D01*
X324205Y343105D01*
X324246Y342961D01*
X324258Y342940D01*
X324266Y342917D01*
X324343Y342788D01*
X324417Y342657D01*
X324435Y342634D01*
X324445Y342618D01*
X324478Y342584D01*
X324575Y342470D01*
X325375Y341671D01*
X325375Y202786D01*
X316176Y193588D01*
X316145Y193548D01*
X316108Y193514D01*
X316037Y193412D01*
X315960Y193315D01*
X315938Y193269D01*
X315909Y193228D01*
X315864Y193112D01*
X315811Y193000D01*
X315800Y192950D01*
X315782Y192904D01*
X315763Y192780D01*
X315737Y192659D01*
X315738Y192609D01*
X315731Y192559D01*
X315741Y192435D01*
X315743Y192310D01*
X315755Y192262D01*
X315760Y192211D01*
X315798Y192093D01*
X315828Y191972D01*
X315851Y191928D01*
X315867Y191880D01*
X315931Y191773D01*
X315988Y191663D01*
X316020Y191624D01*
X316046Y191581D01*
X316133Y191492D01*
X316214Y191397D01*
X316254Y191367D01*
X316289Y191331D01*
X316394Y191264D01*
X316494Y191190D01*
X316540Y191170D01*
X316583Y191143D01*
X316700Y191101D01*
X316814Y191052D01*
X316863Y191043D01*
X316911Y191026D01*
X317035Y191012D01*
X317157Y190990D01*
X317207Y190993D01*
X317257Y190987D01*
X317381Y191002D01*
X317505Y191008D01*
X317553Y191022D01*
X317603Y191028D01*
X317836Y191103D01*
X318834Y191517D01*
X323786Y191517D01*
X325831Y190669D01*
X325905Y190648D01*
X325975Y190618D01*
X326072Y190601D01*
X326166Y190574D01*
X326243Y190570D01*
X326318Y190557D01*
X326416Y190562D01*
G37*
G36*
X402616Y190562D02*
X402616Y190562D01*
X402714Y190557D01*
X402790Y190571D01*
X402866Y190574D01*
X402960Y190602D01*
X403057Y190619D01*
X403127Y190650D01*
X403201Y190671D01*
X403287Y190719D01*
X403377Y190758D01*
X403438Y190804D01*
X403505Y190841D01*
X403619Y190938D01*
X403657Y190966D01*
X403669Y190981D01*
X403691Y191000D01*
X418399Y205708D01*
X418478Y205807D01*
X418562Y205900D01*
X418586Y205943D01*
X418616Y205981D01*
X418670Y206095D01*
X418731Y206205D01*
X418744Y206252D01*
X418765Y206296D01*
X418791Y206419D01*
X418826Y206541D01*
X418831Y206602D01*
X418838Y206636D01*
X418837Y206684D01*
X418845Y206785D01*
X418845Y336954D01*
X418831Y337080D01*
X418824Y337206D01*
X418811Y337252D01*
X418805Y337300D01*
X418763Y337419D01*
X418728Y337541D01*
X418704Y337583D01*
X418688Y337628D01*
X418619Y337735D01*
X418558Y337845D01*
X418518Y337891D01*
X418499Y337921D01*
X418464Y337955D01*
X418399Y338031D01*
X408413Y348017D01*
X408393Y348033D01*
X408376Y348053D01*
X408256Y348141D01*
X408140Y348234D01*
X408117Y348245D01*
X408096Y348260D01*
X407960Y348319D01*
X407825Y348382D01*
X407800Y348388D01*
X407776Y348398D01*
X407629Y348425D01*
X407485Y348456D01*
X407458Y348455D01*
X407433Y348460D01*
X407284Y348452D01*
X407136Y348450D01*
X407111Y348443D01*
X407084Y348442D01*
X406942Y348401D01*
X406798Y348365D01*
X406775Y348353D01*
X406750Y348346D01*
X406621Y348273D01*
X406488Y348205D01*
X406468Y348188D01*
X406445Y348175D01*
X406259Y348017D01*
X405054Y346812D01*
X405038Y346791D01*
X405018Y346774D01*
X404930Y346655D01*
X404837Y346539D01*
X404826Y346515D01*
X404810Y346494D01*
X404752Y346358D01*
X404688Y346223D01*
X404683Y346198D01*
X404672Y346174D01*
X404646Y346028D01*
X404615Y345883D01*
X404615Y345857D01*
X404611Y345831D01*
X404618Y345683D01*
X404621Y345534D01*
X404627Y345509D01*
X404629Y345483D01*
X404670Y345340D01*
X404706Y345196D01*
X404718Y345173D01*
X404725Y345148D01*
X404798Y345018D01*
X404866Y344887D01*
X404883Y344867D01*
X404895Y344844D01*
X405054Y344657D01*
X405959Y343753D01*
X406655Y342072D01*
X406655Y314183D01*
X406669Y314057D01*
X406676Y313931D01*
X406689Y313885D01*
X406695Y313837D01*
X406737Y313718D01*
X406772Y313596D01*
X406796Y313554D01*
X406812Y313509D01*
X406881Y313402D01*
X406942Y313292D01*
X406982Y313246D01*
X407001Y313216D01*
X407036Y313182D01*
X407101Y313106D01*
X408130Y312077D01*
X408229Y311998D01*
X408323Y311914D01*
X408365Y311890D01*
X408403Y311860D01*
X408517Y311806D01*
X408628Y311745D01*
X408674Y311732D01*
X408718Y311711D01*
X408841Y311685D01*
X408963Y311650D01*
X409024Y311645D01*
X409059Y311638D01*
X409107Y311639D01*
X409207Y311631D01*
X410299Y311631D01*
X412809Y310591D01*
X414731Y308669D01*
X415771Y306159D01*
X415771Y303441D01*
X414731Y300931D01*
X412809Y299009D01*
X410299Y297969D01*
X407581Y297969D01*
X405071Y299009D01*
X404175Y299905D01*
X404096Y299967D01*
X404024Y300037D01*
X403960Y300075D01*
X403902Y300121D01*
X403811Y300164D01*
X403725Y300216D01*
X403654Y300239D01*
X403587Y300270D01*
X403489Y300291D01*
X403393Y300322D01*
X403319Y300328D01*
X403246Y300344D01*
X403146Y300342D01*
X403046Y300350D01*
X402972Y300339D01*
X402898Y300338D01*
X402801Y300313D01*
X402701Y300298D01*
X402632Y300271D01*
X402560Y300253D01*
X402471Y300207D01*
X402377Y300170D01*
X402316Y300127D01*
X402250Y300093D01*
X402174Y300028D01*
X402091Y299971D01*
X402041Y299916D01*
X401985Y299867D01*
X401925Y299786D01*
X401858Y299712D01*
X401822Y299647D01*
X401777Y299587D01*
X401738Y299495D01*
X401689Y299407D01*
X401669Y299335D01*
X401639Y299267D01*
X401622Y299168D01*
X401594Y299071D01*
X401586Y298971D01*
X401578Y298924D01*
X401580Y298888D01*
X401575Y298828D01*
X401575Y202786D01*
X398748Y199959D01*
X392376Y193588D01*
X392345Y193548D01*
X392308Y193514D01*
X392237Y193412D01*
X392159Y193315D01*
X392138Y193269D01*
X392109Y193228D01*
X392064Y193112D01*
X392011Y193000D01*
X392000Y192950D01*
X391982Y192904D01*
X391963Y192780D01*
X391937Y192659D01*
X391938Y192609D01*
X391931Y192559D01*
X391941Y192434D01*
X391943Y192310D01*
X391955Y192262D01*
X391960Y192211D01*
X391998Y192093D01*
X392028Y191972D01*
X392051Y191928D01*
X392067Y191880D01*
X392131Y191773D01*
X392188Y191663D01*
X392220Y191624D01*
X392246Y191581D01*
X392333Y191492D01*
X392414Y191397D01*
X392454Y191367D01*
X392489Y191331D01*
X392594Y191264D01*
X392694Y191190D01*
X392740Y191170D01*
X392783Y191143D01*
X392900Y191101D01*
X393014Y191052D01*
X393063Y191043D01*
X393111Y191026D01*
X393235Y191012D01*
X393357Y190990D01*
X393407Y190993D01*
X393457Y190987D01*
X393581Y191002D01*
X393705Y191008D01*
X393753Y191022D01*
X393803Y191028D01*
X394036Y191103D01*
X394040Y191105D01*
X395034Y191517D01*
X399986Y191517D01*
X402031Y190669D01*
X402105Y190648D01*
X402175Y190618D01*
X402272Y190601D01*
X402366Y190574D01*
X402443Y190570D01*
X402518Y190557D01*
X402616Y190562D01*
G37*
G36*
X219368Y831717D02*
X219368Y831717D01*
X219394Y831715D01*
X219541Y831737D01*
X219688Y831754D01*
X219713Y831763D01*
X219739Y831767D01*
X219877Y831821D01*
X220016Y831871D01*
X220038Y831886D01*
X220063Y831895D01*
X220184Y831980D01*
X220309Y832060D01*
X220327Y832079D01*
X220349Y832094D01*
X220448Y832204D01*
X220551Y832311D01*
X220565Y832334D01*
X220582Y832353D01*
X220654Y832483D01*
X220730Y832610D01*
X220738Y832635D01*
X220751Y832658D01*
X220791Y832801D01*
X220836Y832942D01*
X220838Y832968D01*
X220846Y832993D01*
X220865Y833237D01*
X220865Y846654D01*
X220851Y846780D01*
X220844Y846906D01*
X220831Y846953D01*
X220825Y847001D01*
X220783Y847120D01*
X220748Y847241D01*
X220724Y847283D01*
X220708Y847329D01*
X220639Y847435D01*
X220578Y847545D01*
X220538Y847591D01*
X220519Y847621D01*
X220484Y847655D01*
X220450Y847695D01*
X220448Y847699D01*
X220445Y847701D01*
X220419Y847731D01*
X180010Y888140D01*
X179990Y888157D01*
X179973Y888177D01*
X179853Y888265D01*
X179737Y888357D01*
X179713Y888368D01*
X179692Y888384D01*
X179556Y888442D01*
X179422Y888506D01*
X179396Y888511D01*
X179372Y888522D01*
X179226Y888548D01*
X179081Y888579D01*
X179055Y888579D01*
X179029Y888584D01*
X178881Y888576D01*
X178733Y888573D01*
X178707Y888567D01*
X178681Y888566D01*
X178539Y888525D01*
X178395Y888488D01*
X178372Y888476D01*
X178346Y888469D01*
X178217Y888397D01*
X178085Y888329D01*
X178065Y888312D01*
X178042Y888299D01*
X177856Y888140D01*
X177025Y887310D01*
X176219Y887310D01*
X176094Y887295D01*
X175968Y887289D01*
X175921Y887275D01*
X175873Y887270D01*
X175754Y887227D01*
X175633Y887192D01*
X175591Y887169D01*
X175545Y887152D01*
X175439Y887084D01*
X175329Y887022D01*
X175282Y886983D01*
X175252Y886963D01*
X175219Y886928D01*
X175142Y886863D01*
X173133Y884855D01*
X166022Y891966D01*
X166002Y891982D01*
X165985Y892002D01*
X165890Y892072D01*
X165852Y892106D01*
X165829Y892119D01*
X165749Y892182D01*
X165726Y892193D01*
X165705Y892209D01*
X165568Y892268D01*
X165434Y892331D01*
X165409Y892337D01*
X165384Y892347D01*
X165238Y892373D01*
X165094Y892405D01*
X165067Y892404D01*
X165041Y892409D01*
X164893Y892401D01*
X164745Y892399D01*
X164720Y892392D01*
X164709Y892392D01*
X164727Y892474D01*
X164727Y892500D01*
X164731Y892526D01*
X164724Y892675D01*
X164721Y892823D01*
X164715Y892848D01*
X164713Y892874D01*
X164672Y893017D01*
X164636Y893161D01*
X164624Y893184D01*
X164617Y893209D01*
X164544Y893339D01*
X164477Y893471D01*
X164460Y893491D01*
X164447Y893513D01*
X164288Y893700D01*
X157177Y900811D01*
X159186Y902820D01*
X159265Y902919D01*
X159349Y903013D01*
X159373Y903055D01*
X159403Y903093D01*
X159457Y903207D01*
X159518Y903318D01*
X159531Y903364D01*
X159552Y903408D01*
X159578Y903531D01*
X159613Y903653D01*
X159617Y903714D01*
X159625Y903748D01*
X159624Y903796D01*
X159632Y903897D01*
X159632Y904703D01*
X162530Y907601D01*
X162593Y907679D01*
X162663Y907752D01*
X162701Y907816D01*
X162747Y907874D01*
X162790Y907965D01*
X162842Y908051D01*
X162864Y908122D01*
X162896Y908189D01*
X162917Y908287D01*
X162948Y908383D01*
X162954Y908457D01*
X162969Y908530D01*
X162968Y908630D01*
X162976Y908730D01*
X162965Y908804D01*
X162963Y908878D01*
X162939Y908975D01*
X162924Y909075D01*
X162897Y909144D01*
X162878Y909216D01*
X162832Y909305D01*
X162795Y909399D01*
X162753Y909460D01*
X162719Y909526D01*
X162654Y909602D01*
X162596Y909685D01*
X162541Y909735D01*
X162493Y909791D01*
X162412Y909851D01*
X162338Y909918D01*
X162273Y909954D01*
X162213Y909999D01*
X162120Y910038D01*
X162033Y910087D01*
X161961Y910107D01*
X161893Y910137D01*
X161794Y910154D01*
X161697Y910182D01*
X161597Y910190D01*
X161550Y910198D01*
X161514Y910196D01*
X161453Y910201D01*
X155406Y910201D01*
X152579Y913028D01*
X142272Y923335D01*
X142272Y925247D01*
X142258Y925373D01*
X142251Y925499D01*
X142238Y925545D01*
X142232Y925594D01*
X142190Y925713D01*
X142155Y925834D01*
X142131Y925876D01*
X142115Y925922D01*
X142046Y926028D01*
X141985Y926138D01*
X141945Y926184D01*
X141926Y926214D01*
X141891Y926248D01*
X141826Y926324D01*
X132988Y935163D01*
X132967Y935179D01*
X132950Y935199D01*
X132831Y935288D01*
X132715Y935380D01*
X132691Y935391D01*
X132670Y935406D01*
X132534Y935465D01*
X132399Y935529D01*
X132374Y935534D01*
X132350Y935544D01*
X132203Y935571D01*
X132059Y935602D01*
X132033Y935601D01*
X132007Y935606D01*
X131858Y935598D01*
X131710Y935596D01*
X131685Y935590D01*
X131659Y935588D01*
X131516Y935547D01*
X131372Y935511D01*
X131349Y935499D01*
X131324Y935492D01*
X131195Y935419D01*
X131063Y935351D01*
X131043Y935334D01*
X131020Y935321D01*
X130833Y935163D01*
X130113Y934443D01*
X124622Y928952D01*
X124606Y928931D01*
X124586Y928914D01*
X124498Y928795D01*
X124405Y928679D01*
X124394Y928655D01*
X124379Y928634D01*
X124320Y928498D01*
X124257Y928364D01*
X124251Y928338D01*
X124241Y928314D01*
X124214Y928168D01*
X124183Y928023D01*
X124184Y927997D01*
X124179Y927971D01*
X124187Y927822D01*
X124189Y927674D01*
X124196Y927649D01*
X124197Y927623D01*
X124238Y927480D01*
X124274Y927336D01*
X124286Y927313D01*
X124293Y927288D01*
X124366Y927159D01*
X124434Y927027D01*
X124451Y927007D01*
X124464Y926984D01*
X124622Y926798D01*
X142883Y908537D01*
X142883Y891631D01*
X142894Y891531D01*
X142896Y891430D01*
X142914Y891358D01*
X142923Y891284D01*
X142956Y891190D01*
X142981Y891092D01*
X143015Y891026D01*
X143040Y890956D01*
X143095Y890872D01*
X143141Y890783D01*
X143189Y890726D01*
X143229Y890663D01*
X143301Y890594D01*
X143366Y890517D01*
X143426Y890473D01*
X143480Y890421D01*
X143566Y890370D01*
X143647Y890310D01*
X143715Y890281D01*
X143779Y890242D01*
X143874Y890212D01*
X143967Y890172D01*
X144040Y890159D01*
X144111Y890136D01*
X144211Y890128D01*
X144310Y890110D01*
X144384Y890114D01*
X144458Y890108D01*
X144557Y890123D01*
X144658Y890128D01*
X144729Y890149D01*
X144803Y890160D01*
X144896Y890197D01*
X144993Y890225D01*
X145058Y890261D01*
X145127Y890289D01*
X145209Y890346D01*
X145297Y890395D01*
X145373Y890460D01*
X145413Y890488D01*
X145437Y890514D01*
X145483Y890553D01*
X149397Y894468D01*
X150203Y894468D01*
X150329Y894482D01*
X150455Y894489D01*
X150501Y894502D01*
X150549Y894508D01*
X150668Y894550D01*
X150790Y894585D01*
X150832Y894609D01*
X150878Y894625D01*
X150984Y894694D01*
X151094Y894755D01*
X151140Y894795D01*
X151170Y894814D01*
X151204Y894849D01*
X151280Y894914D01*
X153289Y896923D01*
X160400Y889812D01*
X160421Y889795D01*
X160438Y889775D01*
X160557Y889687D01*
X160673Y889595D01*
X160697Y889584D01*
X160718Y889568D01*
X160854Y889509D01*
X160988Y889446D01*
X161014Y889441D01*
X161038Y889430D01*
X161184Y889404D01*
X161329Y889373D01*
X161355Y889373D01*
X161381Y889369D01*
X161530Y889376D01*
X161677Y889379D01*
X161703Y889385D01*
X161713Y889386D01*
X161695Y889303D01*
X161696Y889277D01*
X161691Y889251D01*
X161699Y889102D01*
X161701Y888955D01*
X161708Y888929D01*
X161709Y888903D01*
X161750Y888760D01*
X161786Y888617D01*
X161798Y888593D01*
X161806Y888568D01*
X161878Y888439D01*
X161946Y888307D01*
X161963Y888287D01*
X161976Y888264D01*
X162134Y888078D01*
X169245Y880967D01*
X167236Y878958D01*
X167158Y878859D01*
X167073Y878765D01*
X167050Y878723D01*
X167020Y878685D01*
X166966Y878571D01*
X166905Y878460D01*
X166892Y878413D01*
X166871Y878370D01*
X166844Y878246D01*
X166810Y878124D01*
X166805Y878064D01*
X166798Y878029D01*
X166798Y877981D01*
X166790Y877881D01*
X166790Y877075D01*
X165960Y876244D01*
X165943Y876223D01*
X165923Y876206D01*
X165835Y876087D01*
X165743Y875971D01*
X165732Y875947D01*
X165716Y875926D01*
X165657Y875790D01*
X165594Y875656D01*
X165589Y875630D01*
X165578Y875606D01*
X165552Y875460D01*
X165521Y875315D01*
X165521Y875289D01*
X165516Y875263D01*
X165524Y875115D01*
X165527Y874967D01*
X165533Y874941D01*
X165534Y874915D01*
X165575Y874773D01*
X165612Y874629D01*
X165624Y874605D01*
X165631Y874580D01*
X165703Y874451D01*
X165771Y874319D01*
X165788Y874299D01*
X165801Y874276D01*
X165960Y874090D01*
X207889Y832160D01*
X207988Y832082D01*
X208082Y831997D01*
X208125Y831973D01*
X208162Y831943D01*
X208277Y831889D01*
X208387Y831828D01*
X208434Y831815D01*
X208477Y831795D01*
X208601Y831768D01*
X208723Y831734D01*
X208783Y831729D01*
X208818Y831721D01*
X208866Y831722D01*
X208966Y831714D01*
X219342Y831714D01*
X219368Y831717D01*
G37*
G36*
X619831Y987564D02*
X619831Y987564D01*
X619932Y987566D01*
X620004Y987584D01*
X620078Y987593D01*
X620172Y987626D01*
X620270Y987651D01*
X620336Y987685D01*
X620406Y987710D01*
X620490Y987765D01*
X620579Y987811D01*
X620636Y987859D01*
X620699Y987899D01*
X620768Y987971D01*
X620845Y988036D01*
X620889Y988096D01*
X620941Y988150D01*
X620992Y988236D01*
X621052Y988317D01*
X621081Y988385D01*
X621120Y988449D01*
X621150Y988545D01*
X621190Y988637D01*
X621203Y988710D01*
X621226Y988781D01*
X621234Y988881D01*
X621252Y988980D01*
X621248Y989054D01*
X621254Y989128D01*
X621239Y989228D01*
X621234Y989328D01*
X621213Y989399D01*
X621202Y989473D01*
X621165Y989566D01*
X621137Y989663D01*
X621101Y989728D01*
X621073Y989797D01*
X621016Y989879D01*
X620967Y989967D01*
X620902Y990043D01*
X620874Y990083D01*
X620848Y990107D01*
X620809Y990153D01*
X559906Y1051055D01*
X559807Y1051134D01*
X559714Y1051218D01*
X559671Y1051242D01*
X559633Y1051272D01*
X559519Y1051326D01*
X559409Y1051387D01*
X559362Y1051400D01*
X559318Y1051421D01*
X559195Y1051447D01*
X559073Y1051482D01*
X559012Y1051487D01*
X558978Y1051494D01*
X558930Y1051493D01*
X558829Y1051501D01*
X556244Y1051501D01*
X556118Y1051487D01*
X555992Y1051480D01*
X555946Y1051467D01*
X555898Y1051461D01*
X555779Y1051419D01*
X555657Y1051384D01*
X555615Y1051360D01*
X555569Y1051344D01*
X555463Y1051275D01*
X555420Y1051251D01*
X537188Y1051251D01*
X537162Y1051248D01*
X537136Y1051250D01*
X536989Y1051228D01*
X536842Y1051211D01*
X536817Y1051203D01*
X536791Y1051199D01*
X536653Y1051144D01*
X536514Y1051094D01*
X536492Y1051080D01*
X536467Y1051070D01*
X536346Y1050985D01*
X536221Y1050905D01*
X536203Y1050886D01*
X536181Y1050871D01*
X536082Y1050761D01*
X535979Y1050654D01*
X535965Y1050632D01*
X535948Y1050612D01*
X535876Y1050482D01*
X535800Y1050355D01*
X535792Y1050330D01*
X535779Y1050307D01*
X535739Y1050164D01*
X535694Y1050023D01*
X535692Y1049997D01*
X535684Y1049972D01*
X535665Y1049728D01*
X535665Y1045515D01*
X535679Y1045389D01*
X535686Y1045263D01*
X535699Y1045216D01*
X535705Y1045168D01*
X535747Y1045049D01*
X535782Y1044928D01*
X535806Y1044886D01*
X535822Y1044840D01*
X535891Y1044734D01*
X535952Y1044624D01*
X535992Y1044578D01*
X536011Y1044548D01*
X536046Y1044514D01*
X536111Y1044438D01*
X592550Y987999D01*
X592649Y987920D01*
X592742Y987836D01*
X592785Y987812D01*
X592823Y987782D01*
X592937Y987728D01*
X593047Y987667D01*
X593094Y987654D01*
X593138Y987633D01*
X593261Y987607D01*
X593383Y987572D01*
X593444Y987567D01*
X593478Y987560D01*
X593526Y987561D01*
X593627Y987553D01*
X619731Y987553D01*
X619831Y987564D01*
G37*
%LPC*%
G36*
X471234Y166623D02*
X471234Y166623D01*
X466659Y168518D01*
X463158Y172019D01*
X461869Y175132D01*
X461791Y175272D01*
X461716Y175413D01*
X461707Y175424D01*
X461700Y175437D01*
X461592Y175555D01*
X461487Y175675D01*
X461475Y175684D01*
X461466Y175695D01*
X461334Y175786D01*
X461204Y175879D01*
X461191Y175885D01*
X461179Y175893D01*
X461030Y175952D01*
X460882Y176013D01*
X460868Y176015D01*
X460855Y176021D01*
X460696Y176044D01*
X460539Y176070D01*
X460524Y176069D01*
X460510Y176072D01*
X460351Y176058D01*
X460191Y176048D01*
X460177Y176044D01*
X460163Y176043D01*
X460011Y175994D01*
X459857Y175947D01*
X459845Y175940D01*
X459831Y175936D01*
X459694Y175853D01*
X459555Y175773D01*
X459545Y175763D01*
X459532Y175756D01*
X459418Y175645D01*
X459301Y175535D01*
X459293Y175523D01*
X459282Y175513D01*
X459196Y175379D01*
X459107Y175246D01*
X459100Y175230D01*
X459094Y175220D01*
X459081Y175183D01*
X459013Y175020D01*
X458903Y174682D01*
X458086Y173079D01*
X457029Y171623D01*
X455757Y170351D01*
X454301Y169294D01*
X452698Y168477D01*
X450987Y167921D01*
X450849Y167899D01*
X450849Y178054D01*
X450846Y178080D01*
X450848Y178106D01*
X450826Y178253D01*
X450809Y178400D01*
X450801Y178425D01*
X450797Y178451D01*
X450742Y178588D01*
X450692Y178728D01*
X450678Y178750D01*
X450668Y178775D01*
X450583Y178896D01*
X450503Y179021D01*
X450484Y179039D01*
X450469Y179061D01*
X450453Y179075D01*
X450535Y179160D01*
X450549Y179183D01*
X450566Y179202D01*
X450638Y179332D01*
X450714Y179459D01*
X450722Y179484D01*
X450735Y179507D01*
X450775Y179650D01*
X450820Y179791D01*
X450822Y179817D01*
X450830Y179842D01*
X450849Y180086D01*
X450849Y190241D01*
X450987Y190219D01*
X452698Y189663D01*
X454301Y188846D01*
X455757Y187789D01*
X457029Y186517D01*
X458086Y185061D01*
X458903Y183458D01*
X459013Y183120D01*
X459079Y182975D01*
X459143Y182828D01*
X459152Y182817D01*
X459158Y182803D01*
X459256Y182676D01*
X459351Y182548D01*
X459362Y182539D01*
X459371Y182528D01*
X459495Y182427D01*
X459617Y182323D01*
X459630Y182317D01*
X459641Y182308D01*
X459785Y182237D01*
X459927Y182165D01*
X459941Y182161D01*
X459954Y182155D01*
X460110Y182119D01*
X460265Y182080D01*
X460280Y182080D01*
X460294Y182077D01*
X460454Y182078D01*
X460614Y182075D01*
X460628Y182078D01*
X460643Y182078D01*
X460798Y182116D01*
X460954Y182150D01*
X460968Y182156D01*
X460982Y182159D01*
X461125Y182231D01*
X461269Y182299D01*
X461280Y182308D01*
X461293Y182315D01*
X461417Y182417D01*
X461542Y182517D01*
X461551Y182528D01*
X461562Y182537D01*
X461658Y182664D01*
X461758Y182790D01*
X461765Y182806D01*
X461772Y182815D01*
X461788Y182849D01*
X461869Y183008D01*
X463158Y186121D01*
X466659Y189622D01*
X471234Y191517D01*
X476186Y191517D01*
X480761Y189622D01*
X484262Y186121D01*
X485003Y184332D01*
X485051Y184244D01*
X485091Y184152D01*
X485136Y184092D01*
X485172Y184027D01*
X485239Y183953D01*
X485299Y183872D01*
X485356Y183824D01*
X485406Y183769D01*
X485489Y183712D01*
X485565Y183647D01*
X485632Y183613D01*
X485693Y183571D01*
X485786Y183534D01*
X485876Y183488D01*
X485948Y183470D01*
X486017Y183443D01*
X486116Y183428D01*
X486214Y183404D01*
X486288Y183403D01*
X486362Y183392D01*
X486462Y183401D01*
X486562Y183399D01*
X486635Y183415D01*
X486709Y183421D01*
X486805Y183452D01*
X486903Y183473D01*
X486970Y183505D01*
X487041Y183528D01*
X487127Y183580D01*
X487218Y183623D01*
X487276Y183670D01*
X487339Y183708D01*
X487412Y183778D01*
X487490Y183841D01*
X487536Y183899D01*
X487589Y183951D01*
X487644Y184035D01*
X487706Y184114D01*
X487752Y184204D01*
X487778Y184244D01*
X487790Y184278D01*
X487817Y184332D01*
X488558Y186121D01*
X492059Y189622D01*
X496634Y191517D01*
X501586Y191517D01*
X506161Y189622D01*
X509662Y186121D01*
X510403Y184332D01*
X510451Y184244D01*
X510491Y184152D01*
X510536Y184092D01*
X510572Y184027D01*
X510639Y183953D01*
X510699Y183872D01*
X510756Y183824D01*
X510806Y183769D01*
X510889Y183712D01*
X510965Y183647D01*
X511032Y183613D01*
X511093Y183571D01*
X511186Y183534D01*
X511276Y183488D01*
X511348Y183470D01*
X511417Y183443D01*
X511516Y183428D01*
X511614Y183404D01*
X511688Y183403D01*
X511762Y183392D01*
X511862Y183401D01*
X511962Y183399D01*
X512035Y183415D01*
X512109Y183421D01*
X512205Y183452D01*
X512303Y183473D01*
X512370Y183505D01*
X512441Y183528D01*
X512527Y183580D01*
X512618Y183623D01*
X512676Y183670D01*
X512739Y183708D01*
X512812Y183778D01*
X512890Y183841D01*
X512936Y183899D01*
X512989Y183951D01*
X513044Y184035D01*
X513106Y184114D01*
X513152Y184204D01*
X513178Y184244D01*
X513190Y184278D01*
X513217Y184332D01*
X513958Y186121D01*
X517459Y189622D01*
X522034Y191517D01*
X526986Y191517D01*
X531561Y189622D01*
X535062Y186121D01*
X536957Y181546D01*
X536957Y176594D01*
X535062Y172019D01*
X531561Y168518D01*
X526986Y166623D01*
X522034Y166623D01*
X517459Y168518D01*
X513958Y172019D01*
X513217Y173808D01*
X513169Y173896D01*
X513128Y173988D01*
X513084Y174048D01*
X513048Y174113D01*
X512981Y174187D01*
X512921Y174268D01*
X512864Y174316D01*
X512814Y174371D01*
X512731Y174428D01*
X512655Y174493D01*
X512588Y174527D01*
X512527Y174569D01*
X512434Y174606D01*
X512344Y174652D01*
X512272Y174670D01*
X512203Y174697D01*
X512104Y174712D01*
X512006Y174736D01*
X511932Y174737D01*
X511858Y174748D01*
X511758Y174739D01*
X511658Y174741D01*
X511585Y174725D01*
X511511Y174719D01*
X511415Y174688D01*
X511317Y174667D01*
X511250Y174635D01*
X511179Y174612D01*
X511093Y174560D01*
X511002Y174517D01*
X510944Y174470D01*
X510881Y174432D01*
X510809Y174362D01*
X510730Y174299D01*
X510684Y174241D01*
X510631Y174189D01*
X510576Y174105D01*
X510514Y174026D01*
X510468Y173936D01*
X510442Y173896D01*
X510430Y173862D01*
X510403Y173808D01*
X509662Y172019D01*
X506161Y168518D01*
X501586Y166623D01*
X496634Y166623D01*
X492059Y168518D01*
X488558Y172019D01*
X487817Y173808D01*
X487769Y173896D01*
X487728Y173988D01*
X487684Y174048D01*
X487648Y174113D01*
X487581Y174187D01*
X487521Y174268D01*
X487464Y174316D01*
X487414Y174371D01*
X487331Y174428D01*
X487255Y174493D01*
X487188Y174527D01*
X487127Y174569D01*
X487034Y174606D01*
X486944Y174652D01*
X486872Y174670D01*
X486803Y174697D01*
X486704Y174712D01*
X486606Y174736D01*
X486532Y174737D01*
X486458Y174748D01*
X486358Y174739D01*
X486258Y174741D01*
X486185Y174725D01*
X486111Y174719D01*
X486015Y174688D01*
X485917Y174667D01*
X485850Y174635D01*
X485779Y174612D01*
X485693Y174560D01*
X485602Y174517D01*
X485544Y174470D01*
X485481Y174432D01*
X485409Y174362D01*
X485330Y174299D01*
X485284Y174241D01*
X485231Y174189D01*
X485176Y174105D01*
X485114Y174026D01*
X485068Y173936D01*
X485042Y173896D01*
X485030Y173862D01*
X485003Y173808D01*
X484262Y172019D01*
X480761Y168518D01*
X476186Y166623D01*
X471234Y166623D01*
G37*
%LPD*%
%LPC*%
G36*
X448072Y763701D02*
X448072Y763701D01*
X440612Y766792D01*
X434902Y772502D01*
X431811Y779962D01*
X431811Y788038D01*
X434902Y795498D01*
X440612Y801208D01*
X448072Y804299D01*
X456148Y804299D01*
X463608Y801208D01*
X469318Y795498D01*
X472409Y788038D01*
X472409Y779962D01*
X469318Y772502D01*
X463608Y766792D01*
X456148Y763701D01*
X448072Y763701D01*
G37*
%LPD*%
%LPC*%
G36*
X891882Y832781D02*
X891882Y832781D01*
X887821Y834463D01*
X884713Y837571D01*
X883031Y841632D01*
X883031Y846028D01*
X884713Y850089D01*
X887821Y853197D01*
X888472Y853466D01*
X888559Y853515D01*
X888651Y853555D01*
X888711Y853599D01*
X888776Y853635D01*
X888851Y853703D01*
X888931Y853763D01*
X888979Y853819D01*
X889034Y853869D01*
X889091Y853952D01*
X889156Y854029D01*
X889190Y854095D01*
X889233Y854156D01*
X889269Y854250D01*
X889315Y854339D01*
X889333Y854411D01*
X889360Y854480D01*
X889375Y854580D01*
X889399Y854677D01*
X889400Y854751D01*
X889411Y854825D01*
X889403Y854925D01*
X889404Y855026D01*
X889388Y855098D01*
X889382Y855172D01*
X889351Y855268D01*
X889330Y855366D01*
X889298Y855433D01*
X889275Y855504D01*
X889223Y855590D01*
X889180Y855681D01*
X889134Y855739D01*
X889095Y855803D01*
X889025Y855875D01*
X888963Y855953D01*
X888905Y855999D01*
X888853Y856053D01*
X888768Y856107D01*
X888689Y856169D01*
X888600Y856215D01*
X888559Y856241D01*
X888526Y856253D01*
X888472Y856281D01*
X887605Y856640D01*
X884390Y859855D01*
X882649Y864056D01*
X882649Y868604D01*
X884390Y872805D01*
X887605Y876020D01*
X891806Y877761D01*
X896354Y877761D01*
X900555Y876020D01*
X903770Y872805D01*
X905511Y868604D01*
X905511Y864056D01*
X903770Y859855D01*
X900555Y856640D01*
X899688Y856281D01*
X899601Y856232D01*
X899509Y856192D01*
X899449Y856147D01*
X899384Y856111D01*
X899310Y856044D01*
X899229Y855984D01*
X899181Y855927D01*
X899126Y855877D01*
X899069Y855795D01*
X899004Y855718D01*
X898970Y855652D01*
X898928Y855590D01*
X898891Y855497D01*
X898845Y855408D01*
X898827Y855335D01*
X898800Y855266D01*
X898785Y855167D01*
X898761Y855069D01*
X898760Y854995D01*
X898749Y854921D01*
X898757Y854821D01*
X898756Y854721D01*
X898772Y854648D01*
X898778Y854574D01*
X898809Y854479D01*
X898830Y854380D01*
X898862Y854313D01*
X898885Y854242D01*
X898937Y854156D01*
X898980Y854066D01*
X899026Y854008D01*
X899065Y853944D01*
X899135Y853872D01*
X899197Y853793D01*
X899256Y853747D01*
X899307Y853694D01*
X899392Y853640D01*
X899471Y853577D01*
X899560Y853532D01*
X899601Y853506D01*
X899634Y853494D01*
X899688Y853466D01*
X900339Y853197D01*
X903447Y850089D01*
X905129Y846028D01*
X905129Y841632D01*
X903447Y837571D01*
X900339Y834463D01*
X896278Y832781D01*
X891882Y832781D01*
G37*
%LPD*%
%LPC*%
G36*
X895692Y491151D02*
X895692Y491151D01*
X891631Y492833D01*
X888523Y495941D01*
X886841Y500002D01*
X886841Y504398D01*
X888523Y508459D01*
X891631Y511567D01*
X892282Y511836D01*
X892369Y511885D01*
X892461Y511925D01*
X892521Y511969D01*
X892586Y512005D01*
X892661Y512073D01*
X892741Y512133D01*
X892789Y512189D01*
X892844Y512239D01*
X892901Y512322D01*
X892966Y512399D01*
X893000Y512465D01*
X893043Y512526D01*
X893079Y512620D01*
X893125Y512709D01*
X893143Y512781D01*
X893170Y512850D01*
X893185Y512950D01*
X893209Y513047D01*
X893210Y513121D01*
X893221Y513195D01*
X893213Y513295D01*
X893214Y513396D01*
X893198Y513468D01*
X893192Y513542D01*
X893161Y513638D01*
X893140Y513736D01*
X893108Y513803D01*
X893085Y513874D01*
X893033Y513960D01*
X892990Y514051D01*
X892944Y514109D01*
X892905Y514173D01*
X892835Y514245D01*
X892773Y514323D01*
X892715Y514369D01*
X892663Y514423D01*
X892578Y514477D01*
X892499Y514539D01*
X892410Y514585D01*
X892369Y514611D01*
X892336Y514623D01*
X892282Y514651D01*
X891415Y515010D01*
X888200Y518225D01*
X886459Y522426D01*
X886459Y526974D01*
X888200Y531175D01*
X891415Y534390D01*
X895616Y536131D01*
X900164Y536131D01*
X904365Y534390D01*
X907580Y531175D01*
X909321Y526974D01*
X909321Y522426D01*
X907580Y518225D01*
X904365Y515010D01*
X903498Y514651D01*
X903411Y514602D01*
X903319Y514562D01*
X903259Y514517D01*
X903194Y514481D01*
X903120Y514414D01*
X903039Y514354D01*
X902991Y514297D01*
X902936Y514247D01*
X902879Y514165D01*
X902814Y514088D01*
X902780Y514022D01*
X902738Y513960D01*
X902701Y513867D01*
X902655Y513778D01*
X902637Y513705D01*
X902610Y513636D01*
X902595Y513537D01*
X902571Y513439D01*
X902570Y513365D01*
X902559Y513291D01*
X902567Y513191D01*
X902566Y513091D01*
X902582Y513018D01*
X902588Y512944D01*
X902619Y512849D01*
X902640Y512750D01*
X902672Y512683D01*
X902695Y512612D01*
X902747Y512526D01*
X902790Y512436D01*
X902836Y512378D01*
X902875Y512314D01*
X902945Y512242D01*
X903007Y512163D01*
X903066Y512117D01*
X903117Y512064D01*
X903202Y512010D01*
X903281Y511947D01*
X903370Y511902D01*
X903411Y511876D01*
X903444Y511864D01*
X903498Y511836D01*
X904149Y511567D01*
X907257Y508459D01*
X908939Y504398D01*
X908939Y500002D01*
X907257Y495941D01*
X904149Y492833D01*
X900088Y491151D01*
X895692Y491151D01*
G37*
%LPD*%
%LPC*%
G36*
X696302Y656251D02*
X696302Y656251D01*
X692241Y657933D01*
X689133Y661041D01*
X687451Y665102D01*
X687451Y669498D01*
X689133Y673559D01*
X692241Y676667D01*
X692892Y676936D01*
X692979Y676985D01*
X693071Y677025D01*
X693131Y677069D01*
X693196Y677105D01*
X693271Y677173D01*
X693351Y677233D01*
X693399Y677289D01*
X693454Y677339D01*
X693511Y677422D01*
X693576Y677499D01*
X693610Y677565D01*
X693653Y677626D01*
X693689Y677720D01*
X693735Y677809D01*
X693753Y677881D01*
X693780Y677950D01*
X693795Y678050D01*
X693819Y678147D01*
X693820Y678221D01*
X693831Y678295D01*
X693823Y678395D01*
X693824Y678496D01*
X693808Y678568D01*
X693802Y678642D01*
X693771Y678738D01*
X693750Y678836D01*
X693718Y678903D01*
X693695Y678974D01*
X693643Y679060D01*
X693600Y679151D01*
X693554Y679209D01*
X693515Y679273D01*
X693445Y679345D01*
X693383Y679423D01*
X693325Y679469D01*
X693273Y679523D01*
X693188Y679577D01*
X693109Y679639D01*
X693020Y679685D01*
X692979Y679711D01*
X692946Y679723D01*
X692892Y679751D01*
X692025Y680110D01*
X688810Y683325D01*
X687069Y687526D01*
X687069Y692074D01*
X688810Y696275D01*
X692025Y699490D01*
X696226Y701231D01*
X700774Y701231D01*
X704975Y699490D01*
X708190Y696275D01*
X709931Y692074D01*
X709931Y687526D01*
X708190Y683325D01*
X704975Y680110D01*
X704108Y679751D01*
X704021Y679702D01*
X703929Y679662D01*
X703869Y679617D01*
X703804Y679581D01*
X703730Y679514D01*
X703649Y679454D01*
X703601Y679397D01*
X703546Y679347D01*
X703489Y679265D01*
X703424Y679188D01*
X703390Y679122D01*
X703348Y679060D01*
X703311Y678967D01*
X703265Y678878D01*
X703247Y678805D01*
X703220Y678736D01*
X703205Y678637D01*
X703181Y678539D01*
X703180Y678465D01*
X703169Y678391D01*
X703177Y678291D01*
X703176Y678191D01*
X703192Y678118D01*
X703198Y678044D01*
X703229Y677949D01*
X703250Y677850D01*
X703282Y677783D01*
X703305Y677712D01*
X703357Y677626D01*
X703400Y677536D01*
X703446Y677478D01*
X703485Y677414D01*
X703555Y677342D01*
X703617Y677263D01*
X703676Y677217D01*
X703727Y677164D01*
X703812Y677110D01*
X703891Y677047D01*
X703980Y677002D01*
X704021Y676976D01*
X704054Y676964D01*
X704108Y676936D01*
X704759Y676667D01*
X707867Y673559D01*
X709549Y669498D01*
X709549Y665102D01*
X707867Y661041D01*
X704759Y657933D01*
X700698Y656251D01*
X696302Y656251D01*
G37*
%LPD*%
%LPC*%
G36*
X1077302Y656251D02*
X1077302Y656251D01*
X1073241Y657933D01*
X1070133Y661041D01*
X1068451Y665102D01*
X1068451Y669498D01*
X1070133Y673559D01*
X1073241Y676667D01*
X1073892Y676936D01*
X1073979Y676985D01*
X1074071Y677025D01*
X1074131Y677069D01*
X1074196Y677105D01*
X1074271Y677173D01*
X1074351Y677233D01*
X1074399Y677289D01*
X1074454Y677339D01*
X1074511Y677422D01*
X1074576Y677499D01*
X1074610Y677565D01*
X1074653Y677626D01*
X1074689Y677720D01*
X1074735Y677809D01*
X1074753Y677881D01*
X1074780Y677950D01*
X1074795Y678050D01*
X1074819Y678147D01*
X1074820Y678221D01*
X1074831Y678295D01*
X1074823Y678395D01*
X1074824Y678496D01*
X1074808Y678568D01*
X1074802Y678642D01*
X1074771Y678738D01*
X1074750Y678836D01*
X1074718Y678903D01*
X1074695Y678974D01*
X1074643Y679060D01*
X1074600Y679151D01*
X1074554Y679209D01*
X1074515Y679273D01*
X1074445Y679345D01*
X1074383Y679423D01*
X1074325Y679469D01*
X1074273Y679523D01*
X1074188Y679577D01*
X1074109Y679639D01*
X1074020Y679685D01*
X1073979Y679711D01*
X1073946Y679723D01*
X1073892Y679751D01*
X1073025Y680110D01*
X1069810Y683325D01*
X1068069Y687526D01*
X1068069Y692074D01*
X1069810Y696275D01*
X1073025Y699490D01*
X1077226Y701231D01*
X1081774Y701231D01*
X1085975Y699490D01*
X1089190Y696275D01*
X1090931Y692074D01*
X1090931Y687526D01*
X1089190Y683325D01*
X1085975Y680110D01*
X1085108Y679751D01*
X1085021Y679702D01*
X1084929Y679662D01*
X1084869Y679617D01*
X1084804Y679581D01*
X1084730Y679514D01*
X1084649Y679454D01*
X1084601Y679397D01*
X1084546Y679347D01*
X1084489Y679265D01*
X1084424Y679188D01*
X1084390Y679122D01*
X1084348Y679060D01*
X1084311Y678967D01*
X1084265Y678878D01*
X1084247Y678805D01*
X1084220Y678736D01*
X1084205Y678637D01*
X1084181Y678539D01*
X1084180Y678465D01*
X1084169Y678391D01*
X1084177Y678291D01*
X1084176Y678191D01*
X1084192Y678118D01*
X1084198Y678044D01*
X1084229Y677949D01*
X1084250Y677850D01*
X1084282Y677783D01*
X1084305Y677712D01*
X1084357Y677626D01*
X1084400Y677536D01*
X1084446Y677478D01*
X1084485Y677414D01*
X1084555Y677342D01*
X1084617Y677263D01*
X1084676Y677217D01*
X1084727Y677164D01*
X1084812Y677110D01*
X1084891Y677047D01*
X1084980Y677002D01*
X1085021Y676976D01*
X1085054Y676964D01*
X1085108Y676936D01*
X1085759Y676667D01*
X1088867Y673559D01*
X1090549Y669498D01*
X1090549Y665102D01*
X1088867Y661041D01*
X1085759Y657933D01*
X1081698Y656251D01*
X1077302Y656251D01*
G37*
%LPD*%
G36*
X571321Y1060189D02*
X571321Y1060189D01*
X571447Y1060196D01*
X571494Y1060209D01*
X571542Y1060215D01*
X571661Y1060257D01*
X571782Y1060292D01*
X571824Y1060316D01*
X571870Y1060332D01*
X571976Y1060401D01*
X572086Y1060462D01*
X572132Y1060502D01*
X572162Y1060521D01*
X572196Y1060556D01*
X572272Y1060621D01*
X579689Y1068038D01*
X579756Y1068122D01*
X579793Y1068160D01*
X579801Y1068173D01*
X579852Y1068230D01*
X579876Y1068273D01*
X579906Y1068311D01*
X579960Y1068425D01*
X580021Y1068535D01*
X580034Y1068582D01*
X580055Y1068626D01*
X580081Y1068749D01*
X580116Y1068871D01*
X580121Y1068932D01*
X580128Y1068966D01*
X580127Y1069014D01*
X580135Y1069115D01*
X580135Y1077185D01*
X580121Y1077311D01*
X580114Y1077437D01*
X580101Y1077484D01*
X580095Y1077532D01*
X580053Y1077651D01*
X580018Y1077772D01*
X579994Y1077814D01*
X579978Y1077860D01*
X579909Y1077966D01*
X579848Y1078076D01*
X579808Y1078123D01*
X579789Y1078153D01*
X579754Y1078186D01*
X579689Y1078262D01*
X570262Y1087689D01*
X570163Y1087768D01*
X570070Y1087852D01*
X570027Y1087876D01*
X569989Y1087906D01*
X569875Y1087960D01*
X569765Y1088021D01*
X569718Y1088034D01*
X569674Y1088055D01*
X569551Y1088081D01*
X569429Y1088116D01*
X569368Y1088121D01*
X569334Y1088128D01*
X569286Y1088127D01*
X569185Y1088135D01*
X515287Y1088135D01*
X515161Y1088121D01*
X515035Y1088114D01*
X514989Y1088101D01*
X514941Y1088095D01*
X514822Y1088053D01*
X514700Y1088018D01*
X514658Y1087994D01*
X514613Y1087978D01*
X514506Y1087909D01*
X514396Y1087848D01*
X514350Y1087808D01*
X514320Y1087789D01*
X514286Y1087754D01*
X514210Y1087689D01*
X512223Y1085703D01*
X512212Y1085696D01*
X512100Y1085595D01*
X511986Y1085498D01*
X511972Y1085479D01*
X511954Y1085462D01*
X511869Y1085339D01*
X511779Y1085218D01*
X511770Y1085195D01*
X511756Y1085176D01*
X511701Y1085036D01*
X511641Y1084898D01*
X511637Y1084874D01*
X511628Y1084852D01*
X511606Y1084703D01*
X511579Y1084555D01*
X511581Y1084530D01*
X511577Y1084507D01*
X511590Y1084357D01*
X511597Y1084206D01*
X511604Y1084183D01*
X511606Y1084159D01*
X511652Y1084016D01*
X511694Y1083872D01*
X511706Y1083851D01*
X511713Y1083828D01*
X511791Y1083699D01*
X511864Y1083567D01*
X511883Y1083545D01*
X511893Y1083529D01*
X511925Y1083495D01*
X512023Y1083381D01*
X521701Y1073703D01*
X521779Y1073640D01*
X521852Y1073571D01*
X521916Y1073532D01*
X521974Y1073486D01*
X522065Y1073443D01*
X522151Y1073392D01*
X522222Y1073369D01*
X522289Y1073337D01*
X522387Y1073316D01*
X522483Y1073285D01*
X522557Y1073279D01*
X522630Y1073264D01*
X522730Y1073266D01*
X522830Y1073257D01*
X522904Y1073269D01*
X522978Y1073270D01*
X523075Y1073294D01*
X523175Y1073309D01*
X523244Y1073337D01*
X523316Y1073355D01*
X523406Y1073401D01*
X523499Y1073438D01*
X523560Y1073480D01*
X523626Y1073514D01*
X523703Y1073580D01*
X523785Y1073637D01*
X523835Y1073692D01*
X523891Y1073740D01*
X523951Y1073821D01*
X524018Y1073896D01*
X524054Y1073961D01*
X524099Y1074021D01*
X524138Y1074113D01*
X524187Y1074201D01*
X524207Y1074272D01*
X524237Y1074341D01*
X524254Y1074439D01*
X524282Y1074536D01*
X524290Y1074636D01*
X524298Y1074684D01*
X524296Y1074719D01*
X524301Y1074780D01*
X524301Y1080313D01*
X526087Y1082099D01*
X535956Y1082099D01*
X536082Y1082113D01*
X536208Y1082120D01*
X536254Y1082133D01*
X536302Y1082139D01*
X536421Y1082181D01*
X536543Y1082216D01*
X536585Y1082240D01*
X536631Y1082256D01*
X536737Y1082325D01*
X536780Y1082349D01*
X555414Y1082349D01*
X555440Y1082328D01*
X555554Y1082274D01*
X555665Y1082213D01*
X555711Y1082200D01*
X555755Y1082179D01*
X555878Y1082153D01*
X556000Y1082118D01*
X556061Y1082113D01*
X556096Y1082106D01*
X556144Y1082107D01*
X556244Y1082099D01*
X566113Y1082099D01*
X567899Y1080313D01*
X567899Y1073287D01*
X566730Y1072118D01*
X566729Y1072117D01*
X566728Y1072116D01*
X566622Y1071982D01*
X566513Y1071845D01*
X566512Y1071844D01*
X566511Y1071843D01*
X566438Y1071686D01*
X566364Y1071530D01*
X566364Y1071529D01*
X566363Y1071527D01*
X566326Y1071352D01*
X566291Y1071189D01*
X566291Y1071188D01*
X566290Y1071186D01*
X566294Y1071004D01*
X566297Y1070841D01*
X566297Y1070839D01*
X566297Y1070838D01*
X566342Y1070661D01*
X566382Y1070503D01*
X566382Y1070502D01*
X566383Y1070500D01*
X566487Y1070279D01*
X566744Y1069835D01*
X566883Y1069318D01*
X566883Y1068323D01*
X560600Y1068323D01*
X560574Y1068320D01*
X560548Y1068322D01*
X560401Y1068300D01*
X560254Y1068284D01*
X560229Y1068275D01*
X560203Y1068271D01*
X560066Y1068216D01*
X559926Y1068166D01*
X559904Y1068152D01*
X559880Y1068142D01*
X559758Y1068058D01*
X559633Y1067977D01*
X559615Y1067958D01*
X559593Y1067943D01*
X559494Y1067833D01*
X559391Y1067726D01*
X559378Y1067704D01*
X559360Y1067684D01*
X559288Y1067554D01*
X559212Y1067427D01*
X559204Y1067402D01*
X559191Y1067379D01*
X559151Y1067236D01*
X559106Y1067095D01*
X559104Y1067069D01*
X559097Y1067044D01*
X559077Y1066800D01*
X559080Y1066774D01*
X559078Y1066748D01*
X559100Y1066601D01*
X559117Y1066454D01*
X559126Y1066429D01*
X559130Y1066403D01*
X559184Y1066265D01*
X559234Y1066126D01*
X559249Y1066103D01*
X559258Y1066079D01*
X559343Y1065958D01*
X559423Y1065833D01*
X559442Y1065814D01*
X559457Y1065793D01*
X559567Y1065694D01*
X559674Y1065591D01*
X559697Y1065577D01*
X559716Y1065559D01*
X559846Y1065488D01*
X559973Y1065412D01*
X559998Y1065404D01*
X560021Y1065391D01*
X560164Y1065351D01*
X560305Y1065305D01*
X560331Y1065303D01*
X560357Y1065296D01*
X560600Y1065277D01*
X566883Y1065277D01*
X566883Y1064282D01*
X566744Y1063765D01*
X566487Y1063321D01*
X566487Y1063319D01*
X566486Y1063318D01*
X566416Y1063157D01*
X566349Y1063001D01*
X566349Y1063000D01*
X566348Y1062998D01*
X566316Y1062821D01*
X566287Y1062658D01*
X566287Y1062657D01*
X566286Y1062655D01*
X566296Y1062477D01*
X566304Y1062310D01*
X566304Y1062309D01*
X566304Y1062307D01*
X566351Y1062147D01*
X566400Y1061975D01*
X566401Y1061974D01*
X566401Y1061972D01*
X566488Y1061816D01*
X566569Y1061671D01*
X566570Y1061670D01*
X566571Y1061668D01*
X566730Y1061482D01*
X567591Y1060621D01*
X567690Y1060542D01*
X567784Y1060458D01*
X567826Y1060434D01*
X567864Y1060404D01*
X567978Y1060350D01*
X568089Y1060289D01*
X568135Y1060276D01*
X568179Y1060255D01*
X568302Y1060229D01*
X568424Y1060194D01*
X568485Y1060189D01*
X568520Y1060182D01*
X568568Y1060183D01*
X568668Y1060175D01*
X571195Y1060175D01*
X571321Y1060189D01*
G37*
%LPC*%
G36*
X828826Y759986D02*
X828826Y759986D01*
X823738Y762094D01*
X819844Y765988D01*
X817736Y771076D01*
X817736Y776584D01*
X819844Y781672D01*
X823738Y785566D01*
X828826Y787674D01*
X834334Y787674D01*
X839422Y785566D01*
X843316Y781672D01*
X845424Y776584D01*
X845424Y771076D01*
X843316Y765988D01*
X839422Y762094D01*
X834334Y759986D01*
X828826Y759986D01*
G37*
%LPD*%
%LPC*%
G36*
X633246Y633456D02*
X633246Y633456D01*
X628158Y635564D01*
X624264Y639458D01*
X622156Y644546D01*
X622156Y650054D01*
X624264Y655142D01*
X628158Y659036D01*
X633246Y661144D01*
X638754Y661144D01*
X643842Y659036D01*
X647736Y655142D01*
X649844Y650054D01*
X649844Y644546D01*
X647736Y639458D01*
X643842Y635564D01*
X638754Y633456D01*
X633246Y633456D01*
G37*
%LPD*%
%LPC*%
G36*
X957636Y468356D02*
X957636Y468356D01*
X952548Y470464D01*
X948654Y474358D01*
X946546Y479446D01*
X946546Y484954D01*
X948654Y490042D01*
X952548Y493936D01*
X957636Y496044D01*
X963144Y496044D01*
X968232Y493936D01*
X972126Y490042D01*
X974234Y484954D01*
X974234Y479446D01*
X972126Y474358D01*
X968232Y470464D01*
X963144Y468356D01*
X957636Y468356D01*
G37*
%LPD*%
%LPC*%
G36*
X828826Y809986D02*
X828826Y809986D01*
X823738Y812094D01*
X819844Y815988D01*
X817736Y821076D01*
X817736Y826584D01*
X819844Y831672D01*
X823738Y835566D01*
X828826Y837674D01*
X834334Y837674D01*
X839422Y835566D01*
X843316Y831672D01*
X845424Y826584D01*
X845424Y821076D01*
X843316Y815988D01*
X839422Y812094D01*
X834334Y809986D01*
X828826Y809986D01*
G37*
%LPD*%
%LPC*%
G36*
X953826Y809986D02*
X953826Y809986D01*
X948738Y812094D01*
X944844Y815988D01*
X942736Y821076D01*
X942736Y826584D01*
X944844Y831672D01*
X948738Y835566D01*
X953826Y837674D01*
X959334Y837674D01*
X964422Y835566D01*
X968316Y831672D01*
X970424Y826584D01*
X970424Y821076D01*
X968316Y815988D01*
X964422Y812094D01*
X959334Y809986D01*
X953826Y809986D01*
G37*
%LPD*%
%LPC*%
G36*
X832636Y468356D02*
X832636Y468356D01*
X827548Y470464D01*
X823654Y474358D01*
X821546Y479446D01*
X821546Y484954D01*
X823654Y490042D01*
X827548Y493936D01*
X832636Y496044D01*
X838144Y496044D01*
X843232Y493936D01*
X847126Y490042D01*
X849234Y484954D01*
X849234Y479446D01*
X847126Y474358D01*
X843232Y470464D01*
X838144Y468356D01*
X832636Y468356D01*
G37*
%LPD*%
%LPC*%
G36*
X832636Y418356D02*
X832636Y418356D01*
X827548Y420464D01*
X823654Y424358D01*
X821546Y429446D01*
X821546Y434954D01*
X823654Y440042D01*
X827548Y443936D01*
X832636Y446044D01*
X838144Y446044D01*
X843232Y443936D01*
X847126Y440042D01*
X849234Y434954D01*
X849234Y429446D01*
X847126Y424358D01*
X843232Y420464D01*
X838144Y418356D01*
X832636Y418356D01*
G37*
%LPD*%
%LPC*%
G36*
X1014246Y583456D02*
X1014246Y583456D01*
X1009158Y585564D01*
X1005264Y589458D01*
X1003156Y594546D01*
X1003156Y600054D01*
X1005264Y605142D01*
X1009158Y609036D01*
X1014246Y611144D01*
X1019754Y611144D01*
X1024842Y609036D01*
X1028736Y605142D01*
X1030844Y600054D01*
X1030844Y594546D01*
X1028736Y589458D01*
X1024842Y585564D01*
X1019754Y583456D01*
X1014246Y583456D01*
G37*
%LPD*%
%LPC*%
G36*
X633246Y583456D02*
X633246Y583456D01*
X628158Y585564D01*
X624264Y589458D01*
X622156Y594546D01*
X622156Y600054D01*
X624264Y605142D01*
X628158Y609036D01*
X633246Y611144D01*
X638754Y611144D01*
X643842Y609036D01*
X647736Y605142D01*
X649844Y600054D01*
X649844Y594546D01*
X647736Y589458D01*
X643842Y585564D01*
X638754Y583456D01*
X633246Y583456D01*
G37*
%LPD*%
%LPC*%
G36*
X1139246Y633456D02*
X1139246Y633456D01*
X1134158Y635564D01*
X1130264Y639458D01*
X1128156Y644546D01*
X1128156Y650054D01*
X1130264Y655142D01*
X1134158Y659036D01*
X1139246Y661144D01*
X1144754Y661144D01*
X1149842Y659036D01*
X1153736Y655142D01*
X1155844Y650054D01*
X1155844Y644546D01*
X1153736Y639458D01*
X1149842Y635564D01*
X1144754Y633456D01*
X1139246Y633456D01*
G37*
%LPD*%
%LPC*%
G36*
X758246Y633456D02*
X758246Y633456D01*
X753158Y635564D01*
X749264Y639458D01*
X747156Y644546D01*
X747156Y650054D01*
X749264Y655142D01*
X753158Y659036D01*
X758246Y661144D01*
X763754Y661144D01*
X768842Y659036D01*
X772736Y655142D01*
X774844Y650054D01*
X774844Y644546D01*
X772736Y639458D01*
X768842Y635564D01*
X763754Y633456D01*
X758246Y633456D01*
G37*
%LPD*%
%LPC*%
G36*
X1014246Y633456D02*
X1014246Y633456D01*
X1009158Y635564D01*
X1005264Y639458D01*
X1003156Y644546D01*
X1003156Y650054D01*
X1005264Y655142D01*
X1009158Y659036D01*
X1014246Y661144D01*
X1019754Y661144D01*
X1024842Y659036D01*
X1028736Y655142D01*
X1030844Y650054D01*
X1030844Y644546D01*
X1028736Y639458D01*
X1024842Y635564D01*
X1019754Y633456D01*
X1014246Y633456D01*
G37*
%LPD*%
%LPC*%
G36*
X339465Y1030191D02*
X339465Y1030191D01*
X335077Y1032009D01*
X331719Y1035367D01*
X329901Y1039755D01*
X329901Y1044505D01*
X331719Y1048893D01*
X335077Y1052251D01*
X339465Y1054069D01*
X344215Y1054069D01*
X348603Y1052251D01*
X351961Y1048893D01*
X353739Y1044601D01*
X353816Y1044462D01*
X353891Y1044320D01*
X353901Y1044309D01*
X353908Y1044297D01*
X354015Y1044178D01*
X354121Y1044058D01*
X354132Y1044050D01*
X354142Y1044039D01*
X354274Y1043948D01*
X354403Y1043854D01*
X354417Y1043849D01*
X354429Y1043841D01*
X354578Y1043782D01*
X354725Y1043720D01*
X354739Y1043718D01*
X354753Y1043713D01*
X354911Y1043689D01*
X355069Y1043663D01*
X355083Y1043664D01*
X355098Y1043662D01*
X355257Y1043675D01*
X355417Y1043685D01*
X355431Y1043690D01*
X355445Y1043691D01*
X355597Y1043740D01*
X355750Y1043786D01*
X355763Y1043793D01*
X355777Y1043798D01*
X355914Y1043880D01*
X356052Y1043960D01*
X356063Y1043970D01*
X356075Y1043978D01*
X356190Y1044089D01*
X356307Y1044198D01*
X356315Y1044210D01*
X356325Y1044220D01*
X356412Y1044355D01*
X356501Y1044488D01*
X356507Y1044504D01*
X356514Y1044514D01*
X356527Y1044550D01*
X356595Y1044714D01*
X357118Y1046323D01*
X357898Y1047855D01*
X358909Y1049246D01*
X360124Y1050461D01*
X361515Y1051472D01*
X363047Y1052252D01*
X364682Y1052784D01*
X364741Y1052793D01*
X364741Y1043106D01*
X364744Y1043080D01*
X364742Y1043054D01*
X364764Y1042907D01*
X364781Y1042760D01*
X364789Y1042735D01*
X364793Y1042709D01*
X364848Y1042572D01*
X364898Y1042432D01*
X364912Y1042410D01*
X364922Y1042385D01*
X365007Y1042264D01*
X365087Y1042139D01*
X365100Y1042127D01*
X365055Y1042080D01*
X365041Y1042057D01*
X365024Y1042038D01*
X364952Y1041908D01*
X364876Y1041781D01*
X364868Y1041756D01*
X364855Y1041733D01*
X364815Y1041590D01*
X364770Y1041449D01*
X364767Y1041423D01*
X364760Y1041398D01*
X364741Y1041154D01*
X364741Y1031467D01*
X364682Y1031476D01*
X363047Y1032008D01*
X361515Y1032788D01*
X360124Y1033799D01*
X358909Y1035014D01*
X357898Y1036405D01*
X357118Y1037937D01*
X356595Y1039546D01*
X356529Y1039691D01*
X356464Y1039838D01*
X356456Y1039850D01*
X356450Y1039863D01*
X356352Y1039989D01*
X356257Y1040118D01*
X356245Y1040128D01*
X356237Y1040139D01*
X356113Y1040240D01*
X355991Y1040343D01*
X355978Y1040350D01*
X355966Y1040359D01*
X355822Y1040430D01*
X355680Y1040502D01*
X355666Y1040506D01*
X355653Y1040512D01*
X355496Y1040548D01*
X355342Y1040586D01*
X355328Y1040586D01*
X355313Y1040590D01*
X355154Y1040589D01*
X354994Y1040591D01*
X354979Y1040588D01*
X354965Y1040588D01*
X354810Y1040551D01*
X354653Y1040517D01*
X354640Y1040511D01*
X354626Y1040507D01*
X354482Y1040436D01*
X354338Y1040367D01*
X354327Y1040358D01*
X354314Y1040352D01*
X354190Y1040249D01*
X354066Y1040150D01*
X354057Y1040138D01*
X354046Y1040129D01*
X353949Y1040002D01*
X353850Y1039876D01*
X353842Y1039861D01*
X353835Y1039852D01*
X353820Y1039817D01*
X353739Y1039659D01*
X351961Y1035367D01*
X348603Y1032009D01*
X344215Y1030191D01*
X339465Y1030191D01*
G37*
%LPD*%
%LPC*%
G36*
X274244Y1026081D02*
X274244Y1026081D01*
X269448Y1028068D01*
X265778Y1031738D01*
X263791Y1036534D01*
X263791Y1041726D01*
X265778Y1046522D01*
X269448Y1050192D01*
X274244Y1052179D01*
X279436Y1052179D01*
X284232Y1050192D01*
X287902Y1046522D01*
X289889Y1041726D01*
X289889Y1036534D01*
X287902Y1031738D01*
X284232Y1028068D01*
X279436Y1026081D01*
X274244Y1026081D01*
G37*
%LPD*%
%LPC*%
G36*
X481244Y1026081D02*
X481244Y1026081D01*
X476448Y1028068D01*
X472778Y1031738D01*
X470791Y1036534D01*
X470791Y1041726D01*
X472778Y1046522D01*
X476448Y1050192D01*
X481244Y1052179D01*
X486436Y1052179D01*
X491232Y1050192D01*
X494902Y1046522D01*
X496889Y1041726D01*
X496889Y1036534D01*
X494902Y1031738D01*
X491232Y1028068D01*
X486436Y1026081D01*
X481244Y1026081D01*
G37*
%LPD*%
%LPC*%
G36*
X481244Y793081D02*
X481244Y793081D01*
X476448Y795068D01*
X472778Y798738D01*
X470791Y803534D01*
X470791Y808726D01*
X472778Y813522D01*
X476448Y817192D01*
X481244Y819179D01*
X486436Y819179D01*
X491232Y817192D01*
X494902Y813522D01*
X496889Y808726D01*
X496889Y803534D01*
X494902Y798738D01*
X491232Y795068D01*
X486436Y793081D01*
X481244Y793081D01*
G37*
%LPD*%
%LPC*%
G36*
X897850Y391625D02*
X897850Y391625D01*
X897709Y391670D01*
X897683Y391672D01*
X897658Y391680D01*
X897414Y391699D01*
X887662Y391699D01*
X887732Y392139D01*
X888238Y393698D01*
X888982Y395158D01*
X889946Y396485D01*
X891105Y397644D01*
X892432Y398607D01*
X893703Y399256D01*
X893737Y399278D01*
X893775Y399294D01*
X893882Y399374D01*
X893994Y399448D01*
X894022Y399478D01*
X894054Y399502D01*
X894141Y399604D01*
X894233Y399702D01*
X894253Y399737D01*
X894280Y399768D01*
X894341Y399887D01*
X894408Y400003D01*
X894420Y400042D01*
X894438Y400078D01*
X894471Y400208D01*
X894510Y400336D01*
X894513Y400377D01*
X894522Y400417D01*
X894524Y400551D01*
X894533Y400684D01*
X894527Y400724D01*
X894528Y400765D01*
X894499Y400896D01*
X894477Y401028D01*
X894462Y401066D01*
X894453Y401106D01*
X894396Y401226D01*
X894345Y401350D01*
X894321Y401384D01*
X894303Y401420D01*
X894220Y401525D01*
X894142Y401634D01*
X894111Y401661D01*
X894086Y401693D01*
X893981Y401776D01*
X893880Y401864D01*
X893845Y401883D01*
X893813Y401909D01*
X893595Y402020D01*
X891631Y402833D01*
X888523Y405941D01*
X886841Y410002D01*
X886841Y414398D01*
X888523Y418459D01*
X891631Y421567D01*
X895692Y423249D01*
X900088Y423249D01*
X904149Y421567D01*
X907257Y418459D01*
X908939Y414398D01*
X908939Y410002D01*
X907257Y405941D01*
X904149Y402833D01*
X902185Y402020D01*
X902150Y402000D01*
X902111Y401987D01*
X901998Y401916D01*
X901881Y401851D01*
X901850Y401823D01*
X901816Y401802D01*
X901722Y401707D01*
X901622Y401617D01*
X901599Y401583D01*
X901571Y401554D01*
X901500Y401440D01*
X901424Y401330D01*
X901409Y401292D01*
X901388Y401257D01*
X901345Y401130D01*
X901296Y401006D01*
X901290Y400965D01*
X901278Y400927D01*
X901265Y400793D01*
X901246Y400661D01*
X901249Y400620D01*
X901245Y400580D01*
X901263Y400447D01*
X901275Y400314D01*
X901287Y400275D01*
X901293Y400235D01*
X901340Y400110D01*
X901382Y399982D01*
X901403Y399947D01*
X901417Y399909D01*
X901492Y399798D01*
X901561Y399683D01*
X901590Y399654D01*
X901612Y399620D01*
X901711Y399530D01*
X901804Y399433D01*
X901838Y399411D01*
X901868Y399384D01*
X902077Y399256D01*
X903348Y398607D01*
X904675Y397644D01*
X905834Y396485D01*
X906798Y395158D01*
X907542Y393698D01*
X908048Y392139D01*
X908118Y391699D01*
X898366Y391699D01*
X898340Y391696D01*
X898314Y391698D01*
X898167Y391676D01*
X898020Y391659D01*
X897995Y391651D01*
X897969Y391647D01*
X897888Y391614D01*
X897850Y391625D01*
G37*
%LPD*%
%LPC*%
G36*
X894040Y733255D02*
X894040Y733255D01*
X893899Y733300D01*
X893873Y733302D01*
X893848Y733310D01*
X893604Y733329D01*
X883852Y733329D01*
X883922Y733769D01*
X884428Y735328D01*
X885172Y736788D01*
X886136Y738115D01*
X887295Y739274D01*
X888622Y740237D01*
X889893Y740886D01*
X889927Y740908D01*
X889965Y740924D01*
X890072Y741004D01*
X890184Y741078D01*
X890212Y741108D01*
X890244Y741132D01*
X890331Y741234D01*
X890423Y741332D01*
X890443Y741367D01*
X890470Y741398D01*
X890531Y741517D01*
X890598Y741633D01*
X890610Y741672D01*
X890628Y741708D01*
X890661Y741838D01*
X890700Y741966D01*
X890703Y742007D01*
X890712Y742047D01*
X890714Y742181D01*
X890723Y742314D01*
X890717Y742354D01*
X890718Y742395D01*
X890689Y742526D01*
X890667Y742658D01*
X890652Y742696D01*
X890643Y742736D01*
X890586Y742856D01*
X890535Y742980D01*
X890511Y743014D01*
X890493Y743050D01*
X890410Y743155D01*
X890332Y743264D01*
X890301Y743291D01*
X890276Y743323D01*
X890171Y743406D01*
X890070Y743494D01*
X890035Y743513D01*
X890003Y743539D01*
X889785Y743650D01*
X887821Y744463D01*
X884713Y747571D01*
X883031Y751632D01*
X883031Y756028D01*
X884713Y760089D01*
X887821Y763197D01*
X891882Y764879D01*
X896278Y764879D01*
X900339Y763197D01*
X903447Y760089D01*
X905129Y756028D01*
X905129Y751632D01*
X903447Y747571D01*
X900339Y744463D01*
X898375Y743650D01*
X898340Y743630D01*
X898301Y743617D01*
X898188Y743546D01*
X898071Y743481D01*
X898040Y743453D01*
X898006Y743432D01*
X897912Y743337D01*
X897812Y743247D01*
X897789Y743213D01*
X897761Y743184D01*
X897690Y743070D01*
X897614Y742960D01*
X897599Y742922D01*
X897578Y742887D01*
X897535Y742760D01*
X897486Y742636D01*
X897480Y742595D01*
X897468Y742557D01*
X897455Y742423D01*
X897436Y742291D01*
X897439Y742250D01*
X897435Y742210D01*
X897453Y742077D01*
X897465Y741944D01*
X897477Y741905D01*
X897483Y741865D01*
X897530Y741740D01*
X897572Y741612D01*
X897593Y741577D01*
X897607Y741539D01*
X897682Y741428D01*
X897751Y741313D01*
X897780Y741284D01*
X897802Y741250D01*
X897901Y741160D01*
X897994Y741063D01*
X898028Y741041D01*
X898058Y741014D01*
X898267Y740886D01*
X899538Y740237D01*
X900865Y739274D01*
X902024Y738115D01*
X902988Y736788D01*
X903732Y735328D01*
X904238Y733769D01*
X904308Y733329D01*
X894556Y733329D01*
X894530Y733326D01*
X894504Y733328D01*
X894357Y733306D01*
X894210Y733289D01*
X894185Y733281D01*
X894159Y733277D01*
X894078Y733244D01*
X894040Y733255D01*
G37*
%LPD*%
%LPC*%
G36*
X1079460Y556725D02*
X1079460Y556725D01*
X1079319Y556770D01*
X1079293Y556772D01*
X1079268Y556780D01*
X1079024Y556799D01*
X1069272Y556799D01*
X1069342Y557239D01*
X1069848Y558798D01*
X1070592Y560258D01*
X1071556Y561585D01*
X1072715Y562744D01*
X1074042Y563707D01*
X1075313Y564356D01*
X1075347Y564378D01*
X1075385Y564394D01*
X1075492Y564474D01*
X1075604Y564548D01*
X1075632Y564578D01*
X1075664Y564602D01*
X1075751Y564704D01*
X1075843Y564802D01*
X1075863Y564837D01*
X1075890Y564868D01*
X1075951Y564987D01*
X1076018Y565103D01*
X1076030Y565142D01*
X1076048Y565178D01*
X1076081Y565308D01*
X1076120Y565436D01*
X1076123Y565477D01*
X1076132Y565517D01*
X1076134Y565651D01*
X1076143Y565784D01*
X1076137Y565824D01*
X1076138Y565865D01*
X1076109Y565996D01*
X1076087Y566128D01*
X1076072Y566166D01*
X1076063Y566206D01*
X1076006Y566326D01*
X1075955Y566450D01*
X1075931Y566484D01*
X1075913Y566520D01*
X1075830Y566625D01*
X1075752Y566734D01*
X1075721Y566761D01*
X1075696Y566793D01*
X1075591Y566876D01*
X1075490Y566964D01*
X1075455Y566983D01*
X1075423Y567009D01*
X1075205Y567120D01*
X1073241Y567933D01*
X1070133Y571041D01*
X1068451Y575102D01*
X1068451Y579498D01*
X1070133Y583559D01*
X1073241Y586667D01*
X1077302Y588349D01*
X1081698Y588349D01*
X1085759Y586667D01*
X1088867Y583559D01*
X1090549Y579498D01*
X1090549Y575102D01*
X1088867Y571041D01*
X1085759Y567933D01*
X1083795Y567120D01*
X1083760Y567100D01*
X1083721Y567087D01*
X1083608Y567016D01*
X1083491Y566951D01*
X1083460Y566923D01*
X1083426Y566902D01*
X1083332Y566807D01*
X1083232Y566717D01*
X1083209Y566683D01*
X1083181Y566654D01*
X1083110Y566540D01*
X1083034Y566430D01*
X1083019Y566392D01*
X1082998Y566357D01*
X1082955Y566230D01*
X1082906Y566106D01*
X1082900Y566065D01*
X1082888Y566027D01*
X1082875Y565893D01*
X1082856Y565761D01*
X1082859Y565720D01*
X1082855Y565680D01*
X1082873Y565547D01*
X1082885Y565414D01*
X1082897Y565375D01*
X1082903Y565335D01*
X1082950Y565210D01*
X1082992Y565082D01*
X1083013Y565047D01*
X1083027Y565009D01*
X1083102Y564898D01*
X1083171Y564783D01*
X1083200Y564754D01*
X1083222Y564720D01*
X1083321Y564630D01*
X1083414Y564533D01*
X1083448Y564511D01*
X1083478Y564484D01*
X1083687Y564356D01*
X1084958Y563707D01*
X1086285Y562744D01*
X1087444Y561585D01*
X1088408Y560258D01*
X1089152Y558798D01*
X1089658Y557239D01*
X1089728Y556799D01*
X1079976Y556799D01*
X1079950Y556796D01*
X1079924Y556798D01*
X1079777Y556776D01*
X1079630Y556759D01*
X1079605Y556751D01*
X1079579Y556747D01*
X1079498Y556714D01*
X1079460Y556725D01*
G37*
%LPD*%
%LPC*%
G36*
X698460Y556725D02*
X698460Y556725D01*
X698319Y556770D01*
X698293Y556772D01*
X698268Y556780D01*
X698024Y556799D01*
X688272Y556799D01*
X688342Y557239D01*
X688848Y558798D01*
X689592Y560258D01*
X690556Y561585D01*
X691715Y562744D01*
X693042Y563707D01*
X694313Y564356D01*
X694347Y564378D01*
X694385Y564394D01*
X694492Y564474D01*
X694604Y564548D01*
X694632Y564578D01*
X694664Y564602D01*
X694751Y564704D01*
X694843Y564802D01*
X694863Y564837D01*
X694890Y564868D01*
X694951Y564987D01*
X695018Y565103D01*
X695030Y565142D01*
X695048Y565178D01*
X695081Y565308D01*
X695120Y565436D01*
X695123Y565477D01*
X695132Y565517D01*
X695134Y565651D01*
X695143Y565784D01*
X695137Y565824D01*
X695138Y565865D01*
X695109Y565996D01*
X695087Y566128D01*
X695072Y566166D01*
X695063Y566206D01*
X695006Y566326D01*
X694955Y566450D01*
X694931Y566484D01*
X694913Y566520D01*
X694830Y566625D01*
X694752Y566734D01*
X694721Y566761D01*
X694696Y566793D01*
X694591Y566876D01*
X694490Y566964D01*
X694455Y566983D01*
X694423Y567009D01*
X694205Y567120D01*
X692241Y567933D01*
X689133Y571041D01*
X687451Y575102D01*
X687451Y579498D01*
X689133Y583559D01*
X692241Y586667D01*
X696302Y588349D01*
X700698Y588349D01*
X704759Y586667D01*
X707867Y583559D01*
X709549Y579498D01*
X709549Y575102D01*
X707867Y571041D01*
X704759Y567933D01*
X702795Y567120D01*
X702760Y567100D01*
X702721Y567087D01*
X702608Y567016D01*
X702491Y566951D01*
X702460Y566923D01*
X702426Y566902D01*
X702332Y566807D01*
X702232Y566717D01*
X702209Y566683D01*
X702181Y566654D01*
X702110Y566540D01*
X702034Y566430D01*
X702019Y566392D01*
X701998Y566357D01*
X701955Y566230D01*
X701906Y566106D01*
X701900Y566065D01*
X701888Y566027D01*
X701875Y565893D01*
X701856Y565761D01*
X701859Y565720D01*
X701855Y565680D01*
X701873Y565547D01*
X701885Y565414D01*
X701897Y565375D01*
X701903Y565335D01*
X701950Y565210D01*
X701992Y565082D01*
X702013Y565047D01*
X702027Y565009D01*
X702102Y564898D01*
X702171Y564783D01*
X702200Y564754D01*
X702222Y564720D01*
X702321Y564630D01*
X702414Y564533D01*
X702448Y564511D01*
X702478Y564484D01*
X702687Y564356D01*
X703958Y563707D01*
X705285Y562744D01*
X706444Y561585D01*
X707408Y560258D01*
X708152Y558798D01*
X708658Y557239D01*
X708728Y556799D01*
X698976Y556799D01*
X698950Y556796D01*
X698924Y556798D01*
X698777Y556776D01*
X698630Y556759D01*
X698605Y556751D01*
X698579Y556747D01*
X698498Y556714D01*
X698460Y556725D01*
G37*
%LPD*%
%LPC*%
G36*
X239033Y431303D02*
X239033Y431303D01*
X234844Y433038D01*
X231638Y436244D01*
X229903Y440433D01*
X229903Y444967D01*
X231638Y449156D01*
X234844Y452362D01*
X239033Y454097D01*
X243567Y454097D01*
X247756Y452362D01*
X250962Y449156D01*
X252697Y444967D01*
X252697Y440433D01*
X250962Y436244D01*
X247756Y433038D01*
X243567Y431303D01*
X239033Y431303D01*
G37*
%LPD*%
%LPC*%
G36*
X188233Y431303D02*
X188233Y431303D01*
X184044Y433038D01*
X180838Y436244D01*
X179103Y440433D01*
X179103Y444967D01*
X180838Y449156D01*
X184044Y452362D01*
X188233Y454097D01*
X192767Y454097D01*
X196956Y452362D01*
X200162Y449156D01*
X201897Y444967D01*
X201897Y440433D01*
X200162Y436244D01*
X196956Y433038D01*
X192767Y431303D01*
X188233Y431303D01*
G37*
%LPD*%
%LPC*%
G36*
X449942Y137801D02*
X449942Y137801D01*
X445936Y139461D01*
X442871Y142526D01*
X441211Y146532D01*
X441211Y150868D01*
X442871Y154874D01*
X445936Y157939D01*
X449942Y159599D01*
X454278Y159599D01*
X458284Y157939D01*
X461349Y154874D01*
X463009Y150868D01*
X463009Y146532D01*
X461349Y142526D01*
X458284Y139461D01*
X454278Y137801D01*
X449942Y137801D01*
G37*
%LPD*%
%LPC*%
G36*
X220742Y372149D02*
X220742Y372149D01*
X217956Y373303D01*
X215823Y375436D01*
X214669Y378222D01*
X214669Y381238D01*
X215823Y384024D01*
X217956Y386157D01*
X220742Y387311D01*
X223758Y387311D01*
X226544Y386157D01*
X228677Y384024D01*
X229831Y381238D01*
X229831Y378222D01*
X228677Y375436D01*
X226544Y373303D01*
X223758Y372149D01*
X220742Y372149D01*
G37*
%LPD*%
%LPC*%
G36*
X535939Y243839D02*
X535939Y243839D01*
X535939Y259287D01*
X537300Y258844D01*
X538725Y258118D01*
X540019Y257178D01*
X541150Y256047D01*
X542090Y254753D01*
X542816Y253328D01*
X543311Y251807D01*
X543561Y250228D01*
X543561Y243839D01*
X535939Y243839D01*
G37*
%LPD*%
%LPC*%
G36*
X535939Y238761D02*
X535939Y238761D01*
X543561Y238761D01*
X543561Y232372D01*
X543311Y230793D01*
X542816Y229272D01*
X542090Y227847D01*
X541150Y226553D01*
X540019Y225422D01*
X538725Y224482D01*
X537300Y223756D01*
X535939Y223313D01*
X535939Y238761D01*
G37*
%LPD*%
%LPC*%
G36*
X523239Y243839D02*
X523239Y243839D01*
X523239Y250228D01*
X523489Y251807D01*
X523984Y253328D01*
X524710Y254753D01*
X525650Y256047D01*
X526781Y257178D01*
X528075Y258118D01*
X529500Y258844D01*
X530861Y259287D01*
X530861Y243839D01*
X523239Y243839D01*
G37*
%LPD*%
%LPC*%
G36*
X529500Y223756D02*
X529500Y223756D01*
X528075Y224482D01*
X526781Y225422D01*
X525650Y226553D01*
X524710Y227847D01*
X523984Y229272D01*
X523489Y230793D01*
X523239Y232372D01*
X523239Y238761D01*
X530861Y238761D01*
X530861Y223313D01*
X529500Y223756D01*
G37*
%LPD*%
%LPC*%
G36*
X963389Y435199D02*
X963389Y435199D01*
X963389Y444713D01*
X963394Y444712D01*
X965314Y444088D01*
X967113Y443171D01*
X968747Y441984D01*
X970174Y440557D01*
X971361Y438923D01*
X972278Y437124D01*
X972902Y435204D01*
X972903Y435199D01*
X963389Y435199D01*
G37*
%LPD*%
%LPC*%
G36*
X763999Y600299D02*
X763999Y600299D01*
X763999Y609813D01*
X764004Y609812D01*
X765924Y609188D01*
X767723Y608271D01*
X769357Y607084D01*
X770784Y605657D01*
X771971Y604023D01*
X772888Y602224D01*
X773512Y600304D01*
X773513Y600299D01*
X763999Y600299D01*
G37*
%LPD*%
%LPC*%
G36*
X959579Y776829D02*
X959579Y776829D01*
X959579Y786343D01*
X959584Y786342D01*
X961504Y785718D01*
X963303Y784801D01*
X964937Y783614D01*
X966364Y782187D01*
X967551Y780553D01*
X968468Y778754D01*
X969092Y776834D01*
X969093Y776829D01*
X959579Y776829D01*
G37*
%LPD*%
%LPC*%
G36*
X1144999Y600299D02*
X1144999Y600299D01*
X1144999Y609813D01*
X1145004Y609812D01*
X1146924Y609188D01*
X1148723Y608271D01*
X1150357Y607084D01*
X1151784Y605657D01*
X1152971Y604023D01*
X1153888Y602224D01*
X1154512Y600304D01*
X1154513Y600299D01*
X1144999Y600299D01*
G37*
%LPD*%
%LPC*%
G36*
X748487Y600299D02*
X748487Y600299D01*
X748488Y600304D01*
X749112Y602224D01*
X750029Y604023D01*
X751216Y605657D01*
X752643Y607084D01*
X754277Y608271D01*
X756076Y609188D01*
X757996Y609812D01*
X758001Y609813D01*
X758001Y600299D01*
X748487Y600299D01*
G37*
%LPD*%
%LPC*%
G36*
X763999Y594301D02*
X763999Y594301D01*
X773513Y594301D01*
X773512Y594296D01*
X772888Y592376D01*
X771971Y590577D01*
X770784Y588943D01*
X769357Y587516D01*
X767723Y586329D01*
X765924Y585412D01*
X764004Y584788D01*
X763999Y584787D01*
X763999Y594301D01*
G37*
%LPD*%
%LPC*%
G36*
X1129487Y600299D02*
X1129487Y600299D01*
X1129488Y600304D01*
X1130112Y602224D01*
X1131029Y604023D01*
X1132216Y605657D01*
X1133643Y607084D01*
X1135277Y608271D01*
X1137076Y609188D01*
X1138996Y609812D01*
X1139001Y609813D01*
X1139001Y600299D01*
X1129487Y600299D01*
G37*
%LPD*%
%LPC*%
G36*
X959579Y770831D02*
X959579Y770831D01*
X969093Y770831D01*
X969092Y770826D01*
X968468Y768906D01*
X967551Y767107D01*
X966364Y765473D01*
X964937Y764046D01*
X963303Y762859D01*
X961504Y761942D01*
X959584Y761318D01*
X959579Y761317D01*
X959579Y770831D01*
G37*
%LPD*%
%LPC*%
G36*
X1144999Y594301D02*
X1144999Y594301D01*
X1154513Y594301D01*
X1154512Y594296D01*
X1153888Y592376D01*
X1152971Y590577D01*
X1151784Y588943D01*
X1150357Y587516D01*
X1148723Y586329D01*
X1146924Y585412D01*
X1145004Y584788D01*
X1144999Y584787D01*
X1144999Y594301D01*
G37*
%LPD*%
%LPC*%
G36*
X947877Y435199D02*
X947877Y435199D01*
X947878Y435204D01*
X948502Y437124D01*
X949419Y438923D01*
X950606Y440557D01*
X952033Y441984D01*
X953667Y443171D01*
X955466Y444088D01*
X957386Y444712D01*
X957391Y444713D01*
X957391Y435199D01*
X947877Y435199D01*
G37*
%LPD*%
%LPC*%
G36*
X944067Y776829D02*
X944067Y776829D01*
X944068Y776834D01*
X944692Y778754D01*
X945609Y780553D01*
X946796Y782187D01*
X948223Y783614D01*
X949857Y784801D01*
X951656Y785718D01*
X953576Y786342D01*
X953581Y786343D01*
X953581Y776829D01*
X944067Y776829D01*
G37*
%LPD*%
%LPC*%
G36*
X963389Y429201D02*
X963389Y429201D01*
X972903Y429201D01*
X972902Y429196D01*
X972278Y427276D01*
X971361Y425477D01*
X970174Y423843D01*
X968747Y422416D01*
X967113Y421229D01*
X965314Y420312D01*
X963394Y419688D01*
X963389Y419687D01*
X963389Y429201D01*
G37*
%LPD*%
%LPC*%
G36*
X757996Y584788D02*
X757996Y584788D01*
X756076Y585412D01*
X754277Y586329D01*
X752643Y587516D01*
X751216Y588943D01*
X750029Y590577D01*
X749112Y592376D01*
X748488Y594296D01*
X748487Y594301D01*
X758001Y594301D01*
X758001Y584787D01*
X757996Y584788D01*
G37*
%LPD*%
%LPC*%
G36*
X953576Y761318D02*
X953576Y761318D01*
X951656Y761942D01*
X949857Y762859D01*
X948223Y764046D01*
X946796Y765473D01*
X945609Y767107D01*
X944692Y768906D01*
X944068Y770826D01*
X944067Y770831D01*
X953581Y770831D01*
X953581Y761317D01*
X953576Y761318D01*
G37*
%LPD*%
%LPC*%
G36*
X957386Y419688D02*
X957386Y419688D01*
X955466Y420312D01*
X953667Y421229D01*
X952033Y422416D01*
X950606Y423843D01*
X949419Y425477D01*
X948502Y427276D01*
X947878Y429196D01*
X947877Y429201D01*
X957391Y429201D01*
X957391Y419687D01*
X957386Y419688D01*
G37*
%LPD*%
%LPC*%
G36*
X1138996Y584788D02*
X1138996Y584788D01*
X1137076Y585412D01*
X1135277Y586329D01*
X1133643Y587516D01*
X1132216Y588943D01*
X1131029Y590577D01*
X1130112Y592376D01*
X1129488Y594296D01*
X1129487Y594301D01*
X1139001Y594301D01*
X1139001Y584787D01*
X1138996Y584788D01*
G37*
%LPD*%
%LPC*%
G36*
X1019673Y825781D02*
X1019673Y825781D01*
X1017962Y826337D01*
X1016359Y827154D01*
X1014903Y828211D01*
X1013631Y829483D01*
X1012574Y830939D01*
X1011757Y832542D01*
X1011201Y834253D01*
X1011179Y834391D01*
X1019811Y834391D01*
X1019811Y825759D01*
X1019673Y825781D01*
G37*
%LPD*%
%LPC*%
G36*
X700499Y552801D02*
X700499Y552801D01*
X708728Y552801D01*
X708658Y552361D01*
X708152Y550802D01*
X707408Y549342D01*
X706444Y548015D01*
X705285Y546856D01*
X703958Y545892D01*
X702498Y545148D01*
X700939Y544642D01*
X700499Y544572D01*
X700499Y552801D01*
G37*
%LPD*%
%LPC*%
G36*
X1081499Y552801D02*
X1081499Y552801D01*
X1089728Y552801D01*
X1089658Y552361D01*
X1089152Y550802D01*
X1088408Y549342D01*
X1087444Y548015D01*
X1086285Y546856D01*
X1084958Y545892D01*
X1083498Y545148D01*
X1081939Y544642D01*
X1081499Y544572D01*
X1081499Y552801D01*
G37*
%LPD*%
%LPC*%
G36*
X896079Y729331D02*
X896079Y729331D01*
X904308Y729331D01*
X904238Y728891D01*
X903732Y727332D01*
X902988Y725872D01*
X902024Y724545D01*
X900865Y723386D01*
X899538Y722422D01*
X898078Y721678D01*
X896519Y721172D01*
X896079Y721102D01*
X896079Y729331D01*
G37*
%LPD*%
%LPC*%
G36*
X899889Y387701D02*
X899889Y387701D01*
X908118Y387701D01*
X908048Y387261D01*
X907542Y385702D01*
X906798Y384242D01*
X905834Y382915D01*
X904675Y381756D01*
X903348Y380792D01*
X901888Y380048D01*
X900329Y379542D01*
X899889Y379472D01*
X899889Y387701D01*
G37*
%LPD*%
%LPC*%
G36*
X895451Y379542D02*
X895451Y379542D01*
X893892Y380048D01*
X892432Y380792D01*
X891105Y381756D01*
X889946Y382915D01*
X888982Y384242D01*
X888238Y385702D01*
X887732Y387261D01*
X887662Y387701D01*
X895891Y387701D01*
X895891Y379472D01*
X895451Y379542D01*
G37*
%LPD*%
%LPC*%
G36*
X891641Y721172D02*
X891641Y721172D01*
X890082Y721678D01*
X888622Y722422D01*
X887295Y723386D01*
X886136Y724545D01*
X885172Y725872D01*
X884428Y727332D01*
X883922Y728891D01*
X883852Y729331D01*
X892081Y729331D01*
X892081Y721102D01*
X891641Y721172D01*
G37*
%LPD*%
%LPC*%
G36*
X1077061Y544642D02*
X1077061Y544642D01*
X1075502Y545148D01*
X1074042Y545892D01*
X1072715Y546856D01*
X1071556Y548015D01*
X1070592Y549342D01*
X1069848Y550802D01*
X1069342Y552361D01*
X1069272Y552801D01*
X1077501Y552801D01*
X1077501Y544572D01*
X1077061Y544642D01*
G37*
%LPD*%
%LPC*%
G36*
X696061Y544642D02*
X696061Y544642D01*
X694502Y545148D01*
X693042Y545892D01*
X691715Y546856D01*
X690556Y548015D01*
X689592Y549342D01*
X688848Y550802D01*
X688342Y552361D01*
X688272Y552801D01*
X696501Y552801D01*
X696501Y544572D01*
X696061Y544642D01*
G37*
%LPD*%
%LPC*%
G36*
X218549Y445349D02*
X218549Y445349D01*
X218549Y452754D01*
X219885Y452320D01*
X221341Y451578D01*
X222663Y450618D01*
X223818Y449463D01*
X224778Y448141D01*
X225520Y446685D01*
X225954Y445349D01*
X218549Y445349D01*
G37*
%LPD*%
%LPC*%
G36*
X218549Y440051D02*
X218549Y440051D01*
X225954Y440051D01*
X225520Y438715D01*
X224778Y437259D01*
X223818Y435937D01*
X222663Y434782D01*
X221341Y433822D01*
X219885Y433080D01*
X218549Y432646D01*
X218549Y440051D01*
G37*
%LPD*%
%LPC*%
G36*
X205846Y445349D02*
X205846Y445349D01*
X206280Y446685D01*
X207022Y448141D01*
X207982Y449463D01*
X209137Y450618D01*
X210459Y451578D01*
X211915Y452320D01*
X213251Y452754D01*
X213251Y445349D01*
X205846Y445349D01*
G37*
%LPD*%
%LPC*%
G36*
X211915Y433080D02*
X211915Y433080D01*
X210459Y433822D01*
X209137Y434782D01*
X207982Y435937D01*
X207022Y437259D01*
X206280Y438715D01*
X205846Y440051D01*
X213251Y440051D01*
X213251Y432646D01*
X211915Y433080D01*
G37*
%LPD*%
D10*
X831580Y823830D03*
X956580Y823830D03*
X831580Y773830D03*
X956580Y773830D03*
D11*
X894080Y866330D03*
X894080Y731330D03*
D10*
X1017000Y647300D03*
X1142000Y647300D03*
X1017000Y597300D03*
X1142000Y597300D03*
D11*
X1079500Y689800D03*
X1079500Y554800D03*
D12*
X1047750Y862330D03*
X1047750Y836930D03*
X1022350Y836930D03*
X1022350Y862330D03*
D13*
G36*
X128739Y937382D02*
X115659Y950462D01*
X123437Y958240D01*
X136517Y945160D01*
X128739Y937382D01*
G37*
G36*
X175762Y890359D02*
X162682Y903439D01*
X170460Y911217D01*
X183540Y898137D01*
X175762Y890359D01*
G37*
G36*
X108940Y917583D02*
X95860Y930663D01*
X103638Y938441D01*
X116718Y925361D01*
X108940Y917583D01*
G37*
G36*
X118840Y927482D02*
X105760Y940562D01*
X113538Y948340D01*
X126618Y935260D01*
X118840Y927482D01*
G37*
G36*
X155963Y870560D02*
X142883Y883640D01*
X150661Y891418D01*
X163741Y878338D01*
X155963Y870560D01*
G37*
G36*
X165862Y880460D02*
X152782Y893540D01*
X160560Y901318D01*
X173640Y888238D01*
X165862Y880460D01*
G37*
D14*
G36*
X168551Y929816D02*
X155116Y943251D01*
X169257Y957392D01*
X182692Y943957D01*
X168551Y929816D01*
G37*
G36*
X110143Y871408D02*
X96708Y884843D01*
X110849Y898984D01*
X124284Y885549D01*
X110143Y871408D01*
G37*
D10*
X636000Y647300D03*
X761000Y647300D03*
X636000Y597300D03*
X761000Y597300D03*
D11*
X698500Y689800D03*
X698500Y554800D03*
D12*
X520700Y457200D03*
X546100Y457200D03*
X571500Y457200D03*
D15*
X531600Y1076800D03*
X531600Y1066800D03*
X531600Y1056800D03*
X560600Y1056800D03*
X560600Y1066800D03*
X560600Y1076800D03*
D16*
X546100Y1066800D03*
D12*
X524510Y356870D03*
X499110Y356870D03*
X473710Y356870D03*
X448310Y356870D03*
X422910Y356870D03*
X397510Y356870D03*
X372110Y356870D03*
X346710Y356870D03*
X321310Y356870D03*
X295910Y356870D03*
X270510Y356870D03*
X245110Y356870D03*
X245110Y179070D03*
X270510Y179070D03*
X295910Y179070D03*
X321310Y179070D03*
X346710Y179070D03*
X372110Y179070D03*
X397510Y179070D03*
X422910Y179070D03*
X448310Y179070D03*
X473710Y179070D03*
X499110Y179070D03*
X524510Y179070D03*
D17*
X418040Y1042130D03*
X392640Y1042130D03*
X367240Y1042130D03*
X341840Y1042130D03*
D10*
X835390Y482200D03*
X960390Y482200D03*
X835390Y432200D03*
X960390Y432200D03*
D11*
X897890Y524700D03*
X897890Y389700D03*
D18*
X558800Y249428D02*
X558800Y233172D01*
X533400Y233172D02*
X533400Y249428D01*
X508000Y249428D02*
X508000Y233172D01*
D19*
X190500Y442700D03*
X215900Y442700D03*
X241300Y442700D03*
D12*
X506730Y95250D03*
D20*
X177800Y876300D02*
X163211Y890889D01*
X177800Y876300D02*
X177800Y876300D01*
D21*
X177800Y876300D03*
D20*
X560600Y1066800D02*
X571500Y1066800D01*
D21*
X571500Y1066800D03*
D20*
X491236Y221996D02*
X448310Y179070D01*
X531933Y241300D02*
X533400Y241300D01*
X512629Y221996D02*
X491236Y221996D01*
X512629Y221996D02*
X531933Y241300D01*
D22*
X495300Y292100D03*
D20*
X495300Y353060D01*
X499110Y356870D01*
D22*
X467360Y1074420D03*
D21*
X292100Y203200D03*
X330200Y203200D03*
X368300Y203200D03*
X406400Y203200D03*
X596900Y990600D03*
D23*
X531600Y1066800D02*
X520700Y1066800D01*
D21*
X419100Y546100D03*
D23*
X444500Y571500D02*
X635000Y762000D01*
D24*
X546100Y292100D03*
D23*
X546100Y357910D01*
X444500Y436880D02*
X444500Y571500D01*
X444500Y436880D02*
X508508Y372872D01*
X531138Y372872D01*
X546100Y357910D01*
X423204Y562361D02*
X428239Y567396D01*
X440396Y567396D02*
X444500Y571500D01*
X423204Y550204D02*
X419100Y546100D01*
X428239Y567396D02*
X440396Y567396D01*
X423204Y562361D02*
X423204Y550204D01*
X499404Y1070361D02*
X508000Y1078957D01*
X508543Y1054100D02*
X584743Y977900D01*
X622300Y977900D01*
D21*
X723900Y863600D03*
D23*
X723900Y850900D02*
X635000Y762000D01*
X723900Y850900D02*
X723900Y863600D01*
X508543Y1078957D02*
X508000Y1078957D01*
X508543Y1078957D02*
X520700Y1066800D01*
D21*
X420370Y1068070D03*
D23*
X499404Y1063239D02*
X508543Y1054100D01*
X499404Y1063239D02*
X499404Y1070361D01*
X462614Y1068070D02*
X420370Y1068070D01*
X462614Y1068070D02*
X464110Y1066574D01*
X495617Y1066574D01*
X499404Y1070361D01*
X723900Y876300D02*
X723900Y863600D01*
X723900Y876300D02*
X622300Y977900D01*
D22*
X311150Y330200D03*
D20*
X295910Y345440D01*
X295910Y356870D01*
D22*
X292100Y378460D03*
D20*
X292100Y406400D01*
D22*
X292100Y406400D03*
D21*
X381000Y317500D03*
D20*
X346710Y351790D02*
X346710Y356870D01*
X346710Y351790D02*
X381000Y317500D01*
D21*
X508000Y1092200D03*
D25*
X571500Y1092200D01*
X584200Y1079500D01*
X584200Y1066800D01*
X130690Y884805D02*
X130690Y878591D01*
X92811Y931926D02*
X122174Y961289D01*
X92811Y922683D02*
X130690Y884805D01*
X92811Y922683D02*
X92811Y931926D01*
X337199Y961289D02*
X418040Y1042130D01*
X337199Y961289D02*
X122174Y961289D01*
X258064Y184225D02*
X258064Y181864D01*
X254000Y177800D01*
X258064Y184225D02*
X266700Y192861D01*
X252730Y179070D02*
X254000Y177800D01*
X252730Y179070D02*
X245110Y179070D01*
X1037769Y872311D02*
X1037769Y891540D01*
X1032499Y896810D01*
X723900Y896810D01*
X719900Y896810D01*
X196481Y812800D02*
X130690Y878591D01*
X196481Y812800D02*
X218440Y812800D01*
X307340Y723900D01*
X307340Y707390D02*
X306705Y706755D01*
X307340Y707390D02*
X307340Y723900D01*
X258572Y351925D02*
X266700Y343797D01*
X258572Y351925D02*
X258572Y389382D01*
X331470Y462280D01*
X330200Y463550D01*
X330200Y659130D02*
X311150Y678180D01*
X273025Y677188D02*
X267995Y677188D01*
X264438Y680745D01*
X264438Y685775D01*
X267995Y689332D01*
X274017Y678180D02*
X311150Y678180D01*
X274017Y678180D02*
X273025Y677188D01*
X289282Y689332D02*
X306705Y706755D01*
X289282Y689332D02*
X267995Y689332D01*
X266700Y343797D02*
X266700Y192861D01*
X330200Y463550D02*
X330200Y659130D01*
X1037769Y872311D02*
X1047750Y862330D01*
X719900Y896810D02*
X560600Y1056110D01*
D20*
X560600Y1056800D01*
D25*
X573510Y1056110D02*
X584200Y1066800D01*
X573510Y1056110D02*
X560600Y1056110D01*
D21*
X508000Y1066800D03*
D25*
X518000Y1056800D01*
X531600Y1056800D01*
X330200Y965861D02*
X120280Y965861D01*
X88239Y920790D02*
X93660Y915369D01*
X88239Y920790D02*
X88239Y933820D01*
X120280Y965861D01*
X330200Y965861D02*
X392640Y1028301D01*
X392640Y1042130D01*
X591312Y983488D02*
X624615Y983488D01*
X1041475Y818134D02*
X1047750Y824409D01*
X941994Y891013D02*
X717090Y891013D01*
X624615Y983488D01*
X1014873Y818134D02*
X1041475Y818134D01*
X1014873Y818134D02*
X941994Y891013D01*
X531600Y1043200D02*
X531600Y1056800D01*
X531600Y1043200D02*
X591312Y983488D01*
D26*
X266700Y381000D03*
D25*
X335280Y459740D02*
X335280Y660400D01*
D26*
X270510Y683260D03*
X139700Y800100D03*
D25*
X93660Y883580D02*
X93660Y915369D01*
X139700Y837540D02*
X139700Y800100D01*
X139700Y837540D02*
X93660Y883580D01*
X335280Y459740D02*
X266700Y391160D01*
X335280Y660400D02*
X312420Y683260D01*
X270510Y683260D01*
X266700Y391160D02*
X266700Y381000D01*
X1047750Y824409D02*
X1047750Y836930D01*
X146337Y927562D02*
X126088Y947811D01*
X146337Y927562D02*
X146337Y925019D01*
X157090Y914266D01*
X171722Y914266D01*
X229502Y856486D01*
X229502Y835015D01*
X422910Y204470D02*
X397510Y179070D01*
X422910Y204470D02*
X422910Y339269D01*
X409448Y352731D02*
X409448Y361815D01*
X402455Y368808D01*
X393371Y368808D01*
X354330Y407849D01*
X354330Y710187D02*
X229502Y835015D01*
X409448Y352731D02*
X422910Y339269D01*
X354330Y407849D02*
X354330Y710187D01*
X278390Y772421D02*
X223162Y827649D01*
X278390Y772421D02*
X322841Y727970D01*
X397510Y204470D02*
X372110Y179070D01*
X397510Y204470D02*
X397510Y339269D01*
X223162Y827649D02*
X206652Y827649D01*
X322841Y727970D02*
X322841Y711460D01*
X206652Y827649D02*
X153312Y880989D01*
X350520Y660400D02*
X350520Y386259D01*
X384048Y361815D02*
X384048Y352731D01*
X384048Y361815D02*
X377055Y368808D01*
X367971Y368808D01*
X350520Y386259D01*
X384048Y352731D02*
X397510Y339269D01*
X350520Y683781D02*
X322841Y711460D01*
X350520Y683781D02*
X350520Y660400D01*
X125038Y909263D02*
X106289Y928012D01*
X125038Y909263D02*
X129702Y909263D01*
X283464Y355600D02*
X283464Y351715D01*
X135262Y903703D02*
X129702Y909263D01*
X135262Y903703D02*
X135262Y881755D01*
D21*
X304800Y292100D03*
D25*
X283464Y313436D01*
X283464Y351715D01*
X199136Y817880D02*
X135262Y881755D01*
X199136Y817880D02*
X219710Y817880D01*
X312674Y724916D01*
X312674Y703580D01*
X283972Y356108D02*
X283464Y355600D01*
X283972Y356108D02*
X283972Y361815D01*
X294267Y372110D02*
X299974Y372110D01*
X300228Y372364D01*
X294267Y372110D02*
X283972Y361815D01*
X300228Y372364D02*
X330505Y372364D01*
X339344Y381203D01*
X339344Y661626D02*
X315728Y685241D01*
X315728Y700526D02*
X312674Y703580D01*
X315728Y700526D02*
X315728Y685241D01*
X339344Y661626D02*
X339344Y381203D01*
X346710Y669290D02*
X330200Y685800D01*
X334264Y362025D02*
X334264Y351715D01*
X346710Y339269D01*
X334264Y362025D02*
X341719Y369481D01*
D21*
X330200Y685800D03*
D25*
X346710Y374471D02*
X341719Y369481D01*
D21*
X330200Y722630D03*
D25*
X224930Y848969D02*
X173111Y900788D01*
X224930Y848969D02*
X224930Y833122D01*
X330200Y727852D02*
X330200Y722630D01*
X330200Y727852D02*
X224930Y833122D01*
X346710Y669290D02*
X346710Y374471D01*
X346710Y204470D02*
X321310Y179070D01*
X346710Y204470D02*
X346710Y339269D01*
X321310Y204470D02*
X295910Y179070D01*
X116189Y929483D02*
X116189Y937911D01*
X138818Y906853D02*
X138818Y884113D01*
X138818Y906853D02*
X116189Y929483D01*
X138818Y884113D02*
X199971Y822960D01*
X221552Y822960D01*
X309372Y361815D02*
X309372Y351925D01*
X309372Y361815D02*
X316365Y368808D01*
X331978Y368808D02*
X342900Y379730D01*
X309372Y351925D02*
X321310Y339987D01*
X316365Y368808D02*
X331978Y368808D01*
X342900Y379730D02*
X342900Y663099D01*
X319284Y686714D01*
X319284Y725228D01*
X321310Y339987D02*
X321310Y204470D01*
X319284Y725228D02*
X221552Y822960D01*
D21*
X431800Y558800D03*
D20*
X431800Y398780D01*
X473710Y356870D01*
D21*
X222250Y379730D03*
D20*
X448310Y364490D02*
X448310Y356870D01*
X448310Y364490D02*
X419100Y393700D01*
D22*
X419100Y533400D03*
D20*
X419100Y393700D01*
D22*
X408940Y304800D03*
D20*
X402082Y311658D01*
X402082Y341163D01*
X397510Y345735D02*
X397510Y356870D01*
X397510Y345735D02*
X402082Y341163D01*
D27*
X508000Y340360D02*
X524510Y356870D01*
X508000Y340360D02*
X508000Y241300D01*
D28*
X622300Y266700D03*
D27*
X622300Y381000D01*
X546100Y457200D01*
X520700Y457200D02*
X520700Y396242D01*
X557954Y358988D01*
X557954Y242146D02*
X558800Y241300D01*
X557954Y242146D02*
X557954Y358988D01*
D20*
X422910Y149860D02*
X477520Y95250D01*
X506730Y95250D01*
X422910Y149860D02*
X422910Y179070D01*
M02*
