M48
;GenerationSoftware,Autodesk,EAGLE,9.1.0*%
;CreationDate,2018-07-02T22:25:43Z*%
FMAT,2
ICI,OFF
METRIC,TZ,000.000
T15C0.300
T14C0.350
T13C0.500
T12C0.550
T11C0.750
T10C0.800
T9C1.000
T8C1.016
T7C1.050
T6C1.060
T5C1.200
T4C1.570
T3C1.600
T2C2.000
T1C3.450
%
G90
M71
T1
X45211Y78400
X29211Y23200
T2
X27684Y80613
X48384Y80613
X48384Y103913
X27684Y103913
T3
X107950Y57730
X107950Y66730
X89408Y75383
X89408Y84383
X69850Y66730
X69850Y57730
X89789Y50220
X89789Y41220
T4
X45211Y14870
T5
X95658Y77383
X83158Y77383
X95658Y82383
X83158Y82383
X101700Y64730
X114200Y64730
X101700Y59730
X63600Y64730
X76100Y64730
X63600Y59730
X76100Y59730
X83539Y48220
X96039Y48220
X83539Y43220
X96039Y43220
X114200Y59730
T6
X19050Y44270
X21590Y44270
X24130Y44270
T7
X12626Y90096
T8
X50673Y9525
X47371Y35687
X50800Y24130
X53340Y24130
X55880Y24130
X52451Y17907
X49911Y17907
X47371Y17907
X44831Y17907
X42291Y17907
X39751Y17907
X37211Y17907
X34671Y17907
X32131Y17907
X29591Y17907
X27051Y17907
X24511Y17907
X24511Y35687
X27051Y35687
X29591Y35687
X32131Y35687
X34671Y35687
X37211Y35687
X39751Y35687
X104775Y86233
X104775Y83693
X102235Y83693
X102235Y86233
X42291Y35687
X44831Y35687
X49911Y35687
X52451Y35687
X57150Y45720
X54610Y45720
X52070Y45720
T9
X62230Y26670
X34184Y104213
X36724Y104213
X39264Y104213
X41804Y104213
T10
X69850Y68980
X89789Y38970
X89789Y52470
X69850Y55480
X107950Y55480
X107950Y68980
X89408Y73133
X89408Y86633
T11
X15313Y92783
T12
X54610Y29210
T13
X30480Y29210
X38100Y31750
X50800Y109220
X50800Y106680
X33020Y68580
X33020Y72263
X43180Y55880
X42037Y106807
X72390Y86360
X40640Y20320
X36830Y20320
X33020Y20320
X29210Y20320
X41910Y54610
X59690Y99060
X22225Y37973
X57150Y106680
X17780Y87630
T14
X29210Y40640
X29210Y37846
X31115Y33020
X41910Y53340
X40894Y30480
X46736Y107442
X49530Y29210
T15
X26670Y38100
X27051Y68326
X13970Y80010
M30