G04 EAGLE Gerber RS-274X export*
G75*
%MOMM*%
%FSLAX34Y34*%
%LPD*%
%AMOC8*
5,1,8,0,0,1.08239X$1,22.5*%
G01*
%ADD10C,1.803200*%
%ADD11R,1.303200X1.203200*%
%ADD12C,2.082800*%
%ADD13C,0.953200*%
%ADD14C,1.253200*%
%ADD15R,1.503200X3.603200*%
%ADD16R,1.803200X2.003200*%
%ADD17R,2.003200X1.803200*%
%ADD18R,1.803200X1.503200*%
%ADD19C,1.981200*%
%ADD20C,2.203200*%
%ADD21C,1.828800*%
%ADD22C,1.872800*%
%ADD23R,6.553200X7.543200*%
%ADD24C,3.653200*%
%ADD25C,1.773200*%
%ADD26C,1.703200*%

G36*
X1018924Y586270D02*
X1018924Y586270D01*
X1018967Y586282D01*
X1019033Y586289D01*
X1020829Y586771D01*
X1020846Y586779D01*
X1020852Y586780D01*
X1020866Y586788D01*
X1020869Y586790D01*
X1020933Y586809D01*
X1022618Y587594D01*
X1022655Y587620D01*
X1022714Y587650D01*
X1024237Y588716D01*
X1024268Y588748D01*
X1024322Y588787D01*
X1025637Y590102D01*
X1025662Y590139D01*
X1025708Y590187D01*
X1026774Y591710D01*
X1026793Y591751D01*
X1026830Y591806D01*
X1027615Y593491D01*
X1027627Y593534D01*
X1027653Y593595D01*
X1028135Y595391D01*
X1028138Y595436D01*
X1028154Y595500D01*
X1028316Y597353D01*
X1028311Y597401D01*
X1028314Y597478D01*
X1028087Y599532D01*
X1028082Y599550D01*
X1028081Y599556D01*
X1028076Y599569D01*
X1028073Y599578D01*
X1028061Y599653D01*
X1027438Y601624D01*
X1027415Y601666D01*
X1027389Y601738D01*
X1026393Y603549D01*
X1026384Y603559D01*
X1026380Y603569D01*
X1026358Y603593D01*
X1026322Y603651D01*
X1024992Y605233D01*
X1024955Y605263D01*
X1024903Y605320D01*
X1023290Y606611D01*
X1023248Y606634D01*
X1023186Y606679D01*
X1021352Y607631D01*
X1021306Y607645D01*
X1021236Y607677D01*
X1019252Y608253D01*
X1019204Y608258D01*
X1019129Y608276D01*
X1017071Y608454D01*
X1017027Y608450D01*
X1016961Y608454D01*
X1014903Y608276D01*
X1014856Y608264D01*
X1014780Y608253D01*
X1012796Y607677D01*
X1012752Y607656D01*
X1012680Y607631D01*
X1010846Y606679D01*
X1010808Y606650D01*
X1010742Y606611D01*
X1009129Y605320D01*
X1009097Y605283D01*
X1009040Y605233D01*
X1007710Y603651D01*
X1007686Y603609D01*
X1007639Y603549D01*
X1006643Y601738D01*
X1006628Y601692D01*
X1006594Y601624D01*
X1005971Y599653D01*
X1005964Y599606D01*
X1005945Y599532D01*
X1005718Y597478D01*
X1005721Y597430D01*
X1005716Y597353D01*
X1005878Y595500D01*
X1005890Y595457D01*
X1005897Y595391D01*
X1006379Y593595D01*
X1006398Y593555D01*
X1006417Y593491D01*
X1007202Y591806D01*
X1007228Y591769D01*
X1007258Y591710D01*
X1008324Y590187D01*
X1008356Y590156D01*
X1008395Y590102D01*
X1009710Y588787D01*
X1009747Y588762D01*
X1009795Y588716D01*
X1011318Y587650D01*
X1011359Y587631D01*
X1011414Y587594D01*
X1013099Y586809D01*
X1013142Y586797D01*
X1013203Y586771D01*
X1014999Y586289D01*
X1015044Y586286D01*
X1015108Y586270D01*
X1016961Y586108D01*
X1017005Y586112D01*
X1017071Y586108D01*
X1018924Y586270D01*
G37*
G36*
X958472Y812838D02*
X958472Y812838D01*
X958515Y812850D01*
X958581Y812857D01*
X960377Y813339D01*
X960394Y813347D01*
X960400Y813348D01*
X960414Y813356D01*
X960417Y813358D01*
X960481Y813377D01*
X962166Y814162D01*
X962203Y814188D01*
X962262Y814218D01*
X963785Y815284D01*
X963816Y815316D01*
X963870Y815355D01*
X965185Y816670D01*
X965210Y816707D01*
X965256Y816755D01*
X966322Y818278D01*
X966341Y818319D01*
X966378Y818374D01*
X967163Y820059D01*
X967175Y820102D01*
X967201Y820163D01*
X967683Y821959D01*
X967686Y822004D01*
X967702Y822068D01*
X967864Y823921D01*
X967859Y823969D01*
X967862Y824046D01*
X967635Y826100D01*
X967630Y826118D01*
X967629Y826124D01*
X967624Y826137D01*
X967621Y826146D01*
X967609Y826221D01*
X966986Y828192D01*
X966963Y828234D01*
X966937Y828306D01*
X965941Y830117D01*
X965932Y830127D01*
X965928Y830137D01*
X965906Y830161D01*
X965870Y830219D01*
X964540Y831801D01*
X964503Y831831D01*
X964451Y831888D01*
X962838Y833179D01*
X962796Y833202D01*
X962734Y833247D01*
X960900Y834199D01*
X960854Y834213D01*
X960784Y834245D01*
X958800Y834821D01*
X958752Y834826D01*
X958677Y834844D01*
X956619Y835022D01*
X956575Y835018D01*
X956509Y835022D01*
X954451Y834844D01*
X954404Y834832D01*
X954328Y834821D01*
X952344Y834245D01*
X952300Y834224D01*
X952228Y834199D01*
X950394Y833247D01*
X950356Y833218D01*
X950290Y833179D01*
X948677Y831888D01*
X948645Y831851D01*
X948588Y831801D01*
X947258Y830219D01*
X947234Y830177D01*
X947187Y830117D01*
X946191Y828306D01*
X946176Y828260D01*
X946142Y828192D01*
X945519Y826221D01*
X945512Y826174D01*
X945493Y826100D01*
X945266Y824046D01*
X945269Y823998D01*
X945264Y823921D01*
X945426Y822068D01*
X945438Y822025D01*
X945445Y821959D01*
X945927Y820163D01*
X945946Y820123D01*
X945965Y820059D01*
X946750Y818374D01*
X946776Y818337D01*
X946806Y818278D01*
X947872Y816755D01*
X947904Y816724D01*
X947943Y816670D01*
X949258Y815355D01*
X949295Y815330D01*
X949343Y815284D01*
X950866Y814218D01*
X950907Y814199D01*
X950962Y814162D01*
X952647Y813377D01*
X952690Y813365D01*
X952751Y813339D01*
X954547Y812857D01*
X954592Y812854D01*
X954656Y812838D01*
X956509Y812676D01*
X956553Y812680D01*
X956619Y812676D01*
X958472Y812838D01*
G37*
G36*
X833504Y812838D02*
X833504Y812838D01*
X833547Y812850D01*
X833613Y812857D01*
X835409Y813339D01*
X835426Y813347D01*
X835432Y813348D01*
X835446Y813356D01*
X835449Y813358D01*
X835513Y813377D01*
X837198Y814162D01*
X837235Y814188D01*
X837294Y814218D01*
X838817Y815284D01*
X838848Y815316D01*
X838902Y815355D01*
X840217Y816670D01*
X840242Y816707D01*
X840288Y816755D01*
X841354Y818278D01*
X841373Y818319D01*
X841410Y818374D01*
X842195Y820059D01*
X842207Y820102D01*
X842233Y820163D01*
X842715Y821959D01*
X842718Y822004D01*
X842734Y822068D01*
X842896Y823921D01*
X842891Y823969D01*
X842894Y824046D01*
X842667Y826100D01*
X842662Y826118D01*
X842661Y826124D01*
X842656Y826137D01*
X842653Y826146D01*
X842641Y826221D01*
X842018Y828192D01*
X841995Y828234D01*
X841969Y828306D01*
X840973Y830117D01*
X840964Y830127D01*
X840960Y830137D01*
X840938Y830161D01*
X840902Y830219D01*
X839572Y831801D01*
X839535Y831831D01*
X839483Y831888D01*
X837870Y833179D01*
X837828Y833202D01*
X837766Y833247D01*
X835932Y834199D01*
X835886Y834213D01*
X835816Y834245D01*
X833832Y834821D01*
X833784Y834826D01*
X833709Y834844D01*
X831651Y835022D01*
X831607Y835018D01*
X831541Y835022D01*
X829483Y834844D01*
X829436Y834832D01*
X829360Y834821D01*
X827376Y834245D01*
X827332Y834224D01*
X827260Y834199D01*
X825426Y833247D01*
X825388Y833218D01*
X825322Y833179D01*
X823709Y831888D01*
X823677Y831851D01*
X823620Y831801D01*
X822290Y830219D01*
X822266Y830177D01*
X822219Y830117D01*
X821223Y828306D01*
X821208Y828260D01*
X821174Y828192D01*
X820551Y826221D01*
X820544Y826174D01*
X820525Y826100D01*
X820298Y824046D01*
X820301Y823998D01*
X820296Y823921D01*
X820458Y822068D01*
X820470Y822025D01*
X820477Y821959D01*
X820959Y820163D01*
X820978Y820123D01*
X820997Y820059D01*
X821782Y818374D01*
X821808Y818337D01*
X821838Y818278D01*
X822904Y816755D01*
X822936Y816724D01*
X822975Y816670D01*
X824290Y815355D01*
X824327Y815330D01*
X824375Y815284D01*
X825898Y814218D01*
X825939Y814199D01*
X825994Y814162D01*
X827679Y813377D01*
X827722Y813365D01*
X827783Y813339D01*
X829579Y812857D01*
X829624Y812854D01*
X829688Y812838D01*
X831541Y812676D01*
X831585Y812680D01*
X831651Y812676D01*
X833504Y812838D01*
G37*
G36*
X833504Y762800D02*
X833504Y762800D01*
X833547Y762812D01*
X833613Y762819D01*
X835409Y763301D01*
X835426Y763309D01*
X835432Y763310D01*
X835446Y763318D01*
X835449Y763320D01*
X835513Y763339D01*
X837198Y764124D01*
X837235Y764150D01*
X837294Y764180D01*
X838817Y765246D01*
X838848Y765278D01*
X838902Y765317D01*
X840217Y766632D01*
X840242Y766669D01*
X840288Y766717D01*
X841354Y768240D01*
X841373Y768281D01*
X841410Y768336D01*
X842195Y770021D01*
X842207Y770064D01*
X842233Y770125D01*
X842715Y771921D01*
X842718Y771966D01*
X842734Y772030D01*
X842896Y773883D01*
X842891Y773931D01*
X842894Y774008D01*
X842667Y776062D01*
X842662Y776080D01*
X842661Y776086D01*
X842656Y776099D01*
X842653Y776108D01*
X842641Y776183D01*
X842018Y778154D01*
X841995Y778196D01*
X841969Y778268D01*
X840973Y780079D01*
X840964Y780089D01*
X840960Y780099D01*
X840938Y780123D01*
X840902Y780181D01*
X839572Y781763D01*
X839535Y781793D01*
X839483Y781850D01*
X837870Y783141D01*
X837828Y783164D01*
X837766Y783209D01*
X835932Y784161D01*
X835886Y784175D01*
X835816Y784207D01*
X833832Y784783D01*
X833784Y784788D01*
X833709Y784806D01*
X831651Y784984D01*
X831607Y784980D01*
X831541Y784984D01*
X829483Y784806D01*
X829436Y784794D01*
X829360Y784783D01*
X827376Y784207D01*
X827332Y784186D01*
X827260Y784161D01*
X825426Y783209D01*
X825388Y783180D01*
X825322Y783141D01*
X823709Y781850D01*
X823677Y781813D01*
X823620Y781763D01*
X822290Y780181D01*
X822266Y780139D01*
X822219Y780079D01*
X821223Y778268D01*
X821208Y778222D01*
X821174Y778154D01*
X820551Y776183D01*
X820544Y776136D01*
X820525Y776062D01*
X820298Y774008D01*
X820301Y773960D01*
X820296Y773883D01*
X820458Y772030D01*
X820470Y771987D01*
X820477Y771921D01*
X820959Y770125D01*
X820978Y770085D01*
X820997Y770021D01*
X821782Y768336D01*
X821808Y768299D01*
X821838Y768240D01*
X822904Y766717D01*
X822936Y766686D01*
X822975Y766632D01*
X824290Y765317D01*
X824327Y765292D01*
X824375Y765246D01*
X825898Y764180D01*
X825939Y764161D01*
X825994Y764124D01*
X827679Y763339D01*
X827722Y763327D01*
X827783Y763301D01*
X829579Y762819D01*
X829624Y762816D01*
X829688Y762800D01*
X831541Y762638D01*
X831585Y762642D01*
X831651Y762638D01*
X833504Y762800D01*
G37*
G36*
X958472Y762800D02*
X958472Y762800D01*
X958515Y762812D01*
X958581Y762819D01*
X960377Y763301D01*
X960394Y763309D01*
X960400Y763310D01*
X960414Y763318D01*
X960417Y763320D01*
X960481Y763339D01*
X962166Y764124D01*
X962203Y764150D01*
X962262Y764180D01*
X963785Y765246D01*
X963816Y765278D01*
X963870Y765317D01*
X965185Y766632D01*
X965210Y766669D01*
X965256Y766717D01*
X966322Y768240D01*
X966341Y768281D01*
X966378Y768336D01*
X967163Y770021D01*
X967175Y770064D01*
X967201Y770125D01*
X967683Y771921D01*
X967686Y771966D01*
X967702Y772030D01*
X967864Y773883D01*
X967859Y773931D01*
X967862Y774008D01*
X967635Y776062D01*
X967630Y776080D01*
X967629Y776086D01*
X967624Y776099D01*
X967621Y776108D01*
X967609Y776183D01*
X966986Y778154D01*
X966963Y778196D01*
X966937Y778268D01*
X965941Y780079D01*
X965932Y780089D01*
X965928Y780099D01*
X965906Y780123D01*
X965870Y780181D01*
X964540Y781763D01*
X964503Y781793D01*
X964451Y781850D01*
X962838Y783141D01*
X962796Y783164D01*
X962734Y783209D01*
X960900Y784161D01*
X960854Y784175D01*
X960784Y784207D01*
X958800Y784783D01*
X958752Y784788D01*
X958677Y784806D01*
X956619Y784984D01*
X956575Y784980D01*
X956509Y784984D01*
X954451Y784806D01*
X954404Y784794D01*
X954328Y784783D01*
X952344Y784207D01*
X952300Y784186D01*
X952228Y784161D01*
X950394Y783209D01*
X950356Y783180D01*
X950290Y783141D01*
X948677Y781850D01*
X948645Y781813D01*
X948588Y781763D01*
X947258Y780181D01*
X947234Y780139D01*
X947187Y780079D01*
X946191Y778268D01*
X946176Y778222D01*
X946142Y778154D01*
X945519Y776183D01*
X945512Y776136D01*
X945493Y776062D01*
X945266Y774008D01*
X945269Y773960D01*
X945264Y773883D01*
X945426Y772030D01*
X945438Y771987D01*
X945445Y771921D01*
X945927Y770125D01*
X945946Y770085D01*
X945965Y770021D01*
X946750Y768336D01*
X946776Y768299D01*
X946806Y768240D01*
X947872Y766717D01*
X947904Y766686D01*
X947943Y766632D01*
X949258Y765317D01*
X949295Y765292D01*
X949343Y765246D01*
X950866Y764180D01*
X950907Y764161D01*
X950962Y764124D01*
X952647Y763339D01*
X952690Y763327D01*
X952751Y763301D01*
X954547Y762819D01*
X954592Y762816D01*
X954656Y762800D01*
X956509Y762638D01*
X956553Y762642D01*
X956619Y762638D01*
X958472Y762800D01*
G37*
G36*
X837314Y421170D02*
X837314Y421170D01*
X837357Y421182D01*
X837423Y421189D01*
X839219Y421671D01*
X839236Y421679D01*
X839242Y421680D01*
X839256Y421688D01*
X839259Y421690D01*
X839323Y421709D01*
X841008Y422494D01*
X841045Y422520D01*
X841104Y422550D01*
X842627Y423616D01*
X842658Y423648D01*
X842712Y423687D01*
X844027Y425002D01*
X844052Y425039D01*
X844098Y425087D01*
X845164Y426610D01*
X845183Y426651D01*
X845220Y426706D01*
X846005Y428391D01*
X846017Y428434D01*
X846043Y428495D01*
X846525Y430291D01*
X846528Y430336D01*
X846544Y430400D01*
X846706Y432253D01*
X846701Y432301D01*
X846704Y432378D01*
X846477Y434432D01*
X846472Y434450D01*
X846471Y434456D01*
X846466Y434469D01*
X846463Y434478D01*
X846451Y434553D01*
X845828Y436524D01*
X845805Y436566D01*
X845779Y436638D01*
X844783Y438449D01*
X844774Y438459D01*
X844770Y438469D01*
X844748Y438493D01*
X844712Y438551D01*
X843382Y440133D01*
X843345Y440163D01*
X843293Y440220D01*
X841680Y441511D01*
X841638Y441534D01*
X841576Y441579D01*
X839742Y442531D01*
X839696Y442545D01*
X839626Y442577D01*
X837642Y443153D01*
X837594Y443158D01*
X837519Y443176D01*
X835461Y443354D01*
X835417Y443350D01*
X835351Y443354D01*
X833293Y443176D01*
X833246Y443164D01*
X833170Y443153D01*
X831186Y442577D01*
X831142Y442556D01*
X831070Y442531D01*
X829236Y441579D01*
X829198Y441550D01*
X829132Y441511D01*
X827519Y440220D01*
X827487Y440183D01*
X827430Y440133D01*
X826100Y438551D01*
X826076Y438509D01*
X826029Y438449D01*
X825033Y436638D01*
X825018Y436592D01*
X824984Y436524D01*
X824361Y434553D01*
X824354Y434506D01*
X824335Y434432D01*
X824108Y432378D01*
X824111Y432330D01*
X824106Y432253D01*
X824268Y430400D01*
X824280Y430357D01*
X824287Y430291D01*
X824769Y428495D01*
X824788Y428455D01*
X824807Y428391D01*
X825592Y426706D01*
X825618Y426669D01*
X825648Y426610D01*
X826714Y425087D01*
X826746Y425056D01*
X826785Y425002D01*
X828100Y423687D01*
X828137Y423662D01*
X828185Y423616D01*
X829708Y422550D01*
X829749Y422531D01*
X829804Y422494D01*
X831489Y421709D01*
X831532Y421697D01*
X831593Y421671D01*
X833389Y421189D01*
X833434Y421186D01*
X833498Y421170D01*
X835351Y421008D01*
X835395Y421012D01*
X835461Y421008D01*
X837314Y421170D01*
G37*
G36*
X962282Y421170D02*
X962282Y421170D01*
X962325Y421182D01*
X962391Y421189D01*
X964187Y421671D01*
X964204Y421679D01*
X964210Y421680D01*
X964224Y421688D01*
X964227Y421690D01*
X964291Y421709D01*
X965976Y422494D01*
X966013Y422520D01*
X966072Y422550D01*
X967595Y423616D01*
X967626Y423648D01*
X967680Y423687D01*
X968995Y425002D01*
X969020Y425039D01*
X969066Y425087D01*
X970132Y426610D01*
X970151Y426651D01*
X970188Y426706D01*
X970973Y428391D01*
X970985Y428434D01*
X971011Y428495D01*
X971493Y430291D01*
X971496Y430336D01*
X971512Y430400D01*
X971674Y432253D01*
X971669Y432301D01*
X971672Y432378D01*
X971445Y434432D01*
X971440Y434450D01*
X971439Y434456D01*
X971434Y434469D01*
X971431Y434478D01*
X971419Y434553D01*
X970796Y436524D01*
X970773Y436566D01*
X970747Y436638D01*
X969751Y438449D01*
X969742Y438459D01*
X969738Y438469D01*
X969716Y438493D01*
X969680Y438551D01*
X968350Y440133D01*
X968313Y440163D01*
X968261Y440220D01*
X966648Y441511D01*
X966606Y441534D01*
X966544Y441579D01*
X964710Y442531D01*
X964664Y442545D01*
X964594Y442577D01*
X962610Y443153D01*
X962562Y443158D01*
X962487Y443176D01*
X960429Y443354D01*
X960385Y443350D01*
X960319Y443354D01*
X958261Y443176D01*
X958214Y443164D01*
X958138Y443153D01*
X956154Y442577D01*
X956110Y442556D01*
X956038Y442531D01*
X954204Y441579D01*
X954166Y441550D01*
X954100Y441511D01*
X952487Y440220D01*
X952455Y440183D01*
X952398Y440133D01*
X951068Y438551D01*
X951044Y438509D01*
X950997Y438449D01*
X950001Y436638D01*
X949986Y436592D01*
X949952Y436524D01*
X949329Y434553D01*
X949322Y434506D01*
X949303Y434432D01*
X949076Y432378D01*
X949079Y432330D01*
X949074Y432253D01*
X949236Y430400D01*
X949248Y430357D01*
X949255Y430291D01*
X949737Y428495D01*
X949756Y428455D01*
X949775Y428391D01*
X950560Y426706D01*
X950586Y426669D01*
X950616Y426610D01*
X951682Y425087D01*
X951714Y425056D01*
X951753Y425002D01*
X953068Y423687D01*
X953105Y423662D01*
X953153Y423616D01*
X954676Y422550D01*
X954717Y422531D01*
X954772Y422494D01*
X956457Y421709D01*
X956500Y421697D01*
X956561Y421671D01*
X958357Y421189D01*
X958402Y421186D01*
X958466Y421170D01*
X960319Y421008D01*
X960363Y421012D01*
X960429Y421008D01*
X962282Y421170D01*
G37*
G36*
X837314Y471208D02*
X837314Y471208D01*
X837357Y471220D01*
X837423Y471227D01*
X839219Y471709D01*
X839236Y471717D01*
X839242Y471718D01*
X839256Y471726D01*
X839259Y471728D01*
X839323Y471747D01*
X841008Y472532D01*
X841045Y472558D01*
X841104Y472588D01*
X842627Y473654D01*
X842658Y473686D01*
X842712Y473725D01*
X844027Y475040D01*
X844052Y475077D01*
X844098Y475125D01*
X845164Y476648D01*
X845183Y476689D01*
X845220Y476744D01*
X846005Y478429D01*
X846017Y478472D01*
X846043Y478533D01*
X846525Y480329D01*
X846528Y480374D01*
X846544Y480438D01*
X846706Y482291D01*
X846701Y482339D01*
X846704Y482416D01*
X846477Y484470D01*
X846472Y484488D01*
X846471Y484494D01*
X846466Y484507D01*
X846463Y484516D01*
X846451Y484591D01*
X845828Y486562D01*
X845805Y486604D01*
X845779Y486676D01*
X844783Y488487D01*
X844774Y488497D01*
X844770Y488507D01*
X844748Y488531D01*
X844712Y488589D01*
X843382Y490171D01*
X843345Y490201D01*
X843293Y490258D01*
X841680Y491549D01*
X841638Y491572D01*
X841576Y491617D01*
X839742Y492569D01*
X839696Y492583D01*
X839626Y492615D01*
X837642Y493191D01*
X837594Y493196D01*
X837519Y493214D01*
X835461Y493392D01*
X835417Y493388D01*
X835351Y493392D01*
X833293Y493214D01*
X833246Y493202D01*
X833170Y493191D01*
X831186Y492615D01*
X831142Y492594D01*
X831070Y492569D01*
X829236Y491617D01*
X829198Y491588D01*
X829132Y491549D01*
X827519Y490258D01*
X827487Y490221D01*
X827430Y490171D01*
X826100Y488589D01*
X826076Y488547D01*
X826029Y488487D01*
X825033Y486676D01*
X825018Y486630D01*
X824984Y486562D01*
X824361Y484591D01*
X824354Y484544D01*
X824335Y484470D01*
X824108Y482416D01*
X824111Y482368D01*
X824106Y482291D01*
X824268Y480438D01*
X824280Y480395D01*
X824287Y480329D01*
X824769Y478533D01*
X824788Y478493D01*
X824807Y478429D01*
X825592Y476744D01*
X825618Y476707D01*
X825648Y476648D01*
X826714Y475125D01*
X826746Y475094D01*
X826785Y475040D01*
X828100Y473725D01*
X828137Y473700D01*
X828185Y473654D01*
X829708Y472588D01*
X829749Y472569D01*
X829804Y472532D01*
X831489Y471747D01*
X831532Y471735D01*
X831593Y471709D01*
X833389Y471227D01*
X833434Y471224D01*
X833498Y471208D01*
X835351Y471046D01*
X835395Y471050D01*
X835461Y471046D01*
X837314Y471208D01*
G37*
G36*
X762892Y636308D02*
X762892Y636308D01*
X762935Y636320D01*
X763001Y636327D01*
X764797Y636809D01*
X764814Y636817D01*
X764820Y636818D01*
X764834Y636826D01*
X764837Y636828D01*
X764901Y636847D01*
X766586Y637632D01*
X766623Y637658D01*
X766682Y637688D01*
X768205Y638754D01*
X768236Y638786D01*
X768290Y638825D01*
X769605Y640140D01*
X769630Y640177D01*
X769676Y640225D01*
X770742Y641748D01*
X770761Y641789D01*
X770798Y641844D01*
X771583Y643529D01*
X771595Y643572D01*
X771621Y643633D01*
X772103Y645429D01*
X772106Y645474D01*
X772122Y645538D01*
X772284Y647391D01*
X772279Y647439D01*
X772282Y647516D01*
X772055Y649570D01*
X772050Y649588D01*
X772049Y649594D01*
X772044Y649607D01*
X772041Y649616D01*
X772029Y649691D01*
X771406Y651662D01*
X771383Y651704D01*
X771357Y651776D01*
X770361Y653587D01*
X770352Y653597D01*
X770348Y653607D01*
X770326Y653631D01*
X770290Y653689D01*
X768960Y655271D01*
X768923Y655301D01*
X768871Y655358D01*
X767258Y656649D01*
X767216Y656672D01*
X767154Y656717D01*
X765320Y657669D01*
X765274Y657683D01*
X765204Y657715D01*
X763220Y658291D01*
X763172Y658296D01*
X763097Y658314D01*
X761039Y658492D01*
X760995Y658488D01*
X760929Y658492D01*
X758871Y658314D01*
X758824Y658302D01*
X758748Y658291D01*
X756764Y657715D01*
X756720Y657694D01*
X756648Y657669D01*
X754814Y656717D01*
X754776Y656688D01*
X754710Y656649D01*
X753097Y655358D01*
X753065Y655321D01*
X753008Y655271D01*
X751678Y653689D01*
X751654Y653647D01*
X751607Y653587D01*
X750611Y651776D01*
X750596Y651730D01*
X750562Y651662D01*
X749939Y649691D01*
X749932Y649644D01*
X749913Y649570D01*
X749686Y647516D01*
X749689Y647468D01*
X749684Y647391D01*
X749846Y645538D01*
X749858Y645495D01*
X749865Y645429D01*
X750347Y643633D01*
X750366Y643593D01*
X750385Y643529D01*
X751170Y641844D01*
X751196Y641807D01*
X751226Y641748D01*
X752292Y640225D01*
X752324Y640194D01*
X752363Y640140D01*
X753678Y638825D01*
X753715Y638800D01*
X753763Y638754D01*
X755286Y637688D01*
X755327Y637669D01*
X755382Y637632D01*
X757067Y636847D01*
X757110Y636835D01*
X757171Y636809D01*
X758967Y636327D01*
X759012Y636324D01*
X759076Y636308D01*
X760929Y636146D01*
X760973Y636150D01*
X761039Y636146D01*
X762892Y636308D01*
G37*
G36*
X1018924Y636308D02*
X1018924Y636308D01*
X1018967Y636320D01*
X1019033Y636327D01*
X1020829Y636809D01*
X1020846Y636817D01*
X1020852Y636818D01*
X1020866Y636826D01*
X1020869Y636828D01*
X1020933Y636847D01*
X1022618Y637632D01*
X1022655Y637658D01*
X1022714Y637688D01*
X1024237Y638754D01*
X1024268Y638786D01*
X1024322Y638825D01*
X1025637Y640140D01*
X1025662Y640177D01*
X1025708Y640225D01*
X1026774Y641748D01*
X1026793Y641789D01*
X1026830Y641844D01*
X1027615Y643529D01*
X1027627Y643572D01*
X1027653Y643633D01*
X1028135Y645429D01*
X1028138Y645474D01*
X1028154Y645538D01*
X1028316Y647391D01*
X1028311Y647439D01*
X1028314Y647516D01*
X1028087Y649570D01*
X1028082Y649588D01*
X1028081Y649594D01*
X1028076Y649607D01*
X1028073Y649616D01*
X1028061Y649691D01*
X1027438Y651662D01*
X1027415Y651704D01*
X1027389Y651776D01*
X1026393Y653587D01*
X1026384Y653597D01*
X1026380Y653607D01*
X1026358Y653631D01*
X1026322Y653689D01*
X1024992Y655271D01*
X1024955Y655301D01*
X1024903Y655358D01*
X1023290Y656649D01*
X1023248Y656672D01*
X1023186Y656717D01*
X1021352Y657669D01*
X1021306Y657683D01*
X1021236Y657715D01*
X1019252Y658291D01*
X1019204Y658296D01*
X1019129Y658314D01*
X1017071Y658492D01*
X1017027Y658488D01*
X1016961Y658492D01*
X1014903Y658314D01*
X1014856Y658302D01*
X1014780Y658291D01*
X1012796Y657715D01*
X1012752Y657694D01*
X1012680Y657669D01*
X1010846Y656717D01*
X1010808Y656688D01*
X1010742Y656649D01*
X1009129Y655358D01*
X1009097Y655321D01*
X1009040Y655271D01*
X1007710Y653689D01*
X1007686Y653647D01*
X1007639Y653587D01*
X1006643Y651776D01*
X1006628Y651730D01*
X1006594Y651662D01*
X1005971Y649691D01*
X1005964Y649644D01*
X1005945Y649570D01*
X1005718Y647516D01*
X1005721Y647468D01*
X1005716Y647391D01*
X1005878Y645538D01*
X1005890Y645495D01*
X1005897Y645429D01*
X1006379Y643633D01*
X1006398Y643593D01*
X1006417Y643529D01*
X1007202Y641844D01*
X1007228Y641807D01*
X1007258Y641748D01*
X1008324Y640225D01*
X1008356Y640194D01*
X1008395Y640140D01*
X1009710Y638825D01*
X1009747Y638800D01*
X1009795Y638754D01*
X1011318Y637688D01*
X1011359Y637669D01*
X1011414Y637632D01*
X1013099Y636847D01*
X1013142Y636835D01*
X1013203Y636809D01*
X1014999Y636327D01*
X1015044Y636324D01*
X1015108Y636308D01*
X1016961Y636146D01*
X1017005Y636150D01*
X1017071Y636146D01*
X1018924Y636308D01*
G37*
G36*
X1143892Y636308D02*
X1143892Y636308D01*
X1143935Y636320D01*
X1144001Y636327D01*
X1145797Y636809D01*
X1145814Y636817D01*
X1145820Y636818D01*
X1145834Y636826D01*
X1145837Y636828D01*
X1145901Y636847D01*
X1147586Y637632D01*
X1147623Y637658D01*
X1147682Y637688D01*
X1149205Y638754D01*
X1149236Y638786D01*
X1149290Y638825D01*
X1150605Y640140D01*
X1150630Y640177D01*
X1150676Y640225D01*
X1151742Y641748D01*
X1151761Y641789D01*
X1151798Y641844D01*
X1152583Y643529D01*
X1152595Y643572D01*
X1152621Y643633D01*
X1153103Y645429D01*
X1153106Y645474D01*
X1153122Y645538D01*
X1153284Y647391D01*
X1153279Y647439D01*
X1153282Y647516D01*
X1153055Y649570D01*
X1153050Y649588D01*
X1153049Y649594D01*
X1153044Y649607D01*
X1153041Y649616D01*
X1153029Y649691D01*
X1152406Y651662D01*
X1152383Y651704D01*
X1152357Y651776D01*
X1151361Y653587D01*
X1151352Y653597D01*
X1151348Y653607D01*
X1151326Y653631D01*
X1151290Y653689D01*
X1149960Y655271D01*
X1149923Y655301D01*
X1149871Y655358D01*
X1148258Y656649D01*
X1148216Y656672D01*
X1148154Y656717D01*
X1146320Y657669D01*
X1146274Y657683D01*
X1146204Y657715D01*
X1144220Y658291D01*
X1144172Y658296D01*
X1144097Y658314D01*
X1142039Y658492D01*
X1141995Y658488D01*
X1141929Y658492D01*
X1139871Y658314D01*
X1139824Y658302D01*
X1139748Y658291D01*
X1137764Y657715D01*
X1137720Y657694D01*
X1137648Y657669D01*
X1135814Y656717D01*
X1135776Y656688D01*
X1135710Y656649D01*
X1134097Y655358D01*
X1134065Y655321D01*
X1134008Y655271D01*
X1132678Y653689D01*
X1132654Y653647D01*
X1132607Y653587D01*
X1131611Y651776D01*
X1131596Y651730D01*
X1131562Y651662D01*
X1130939Y649691D01*
X1130932Y649644D01*
X1130913Y649570D01*
X1130686Y647516D01*
X1130689Y647468D01*
X1130684Y647391D01*
X1130846Y645538D01*
X1130858Y645495D01*
X1130865Y645429D01*
X1131347Y643633D01*
X1131366Y643593D01*
X1131385Y643529D01*
X1132170Y641844D01*
X1132196Y641807D01*
X1132226Y641748D01*
X1133292Y640225D01*
X1133324Y640194D01*
X1133363Y640140D01*
X1134678Y638825D01*
X1134715Y638800D01*
X1134763Y638754D01*
X1136286Y637688D01*
X1136327Y637669D01*
X1136382Y637632D01*
X1138067Y636847D01*
X1138110Y636835D01*
X1138171Y636809D01*
X1139967Y636327D01*
X1140012Y636324D01*
X1140076Y636308D01*
X1141929Y636146D01*
X1141973Y636150D01*
X1142039Y636146D01*
X1143892Y636308D01*
G37*
G36*
X637924Y636308D02*
X637924Y636308D01*
X637967Y636320D01*
X638033Y636327D01*
X639829Y636809D01*
X639846Y636817D01*
X639852Y636818D01*
X639866Y636826D01*
X639869Y636828D01*
X639933Y636847D01*
X641618Y637632D01*
X641655Y637658D01*
X641714Y637688D01*
X643237Y638754D01*
X643268Y638786D01*
X643322Y638825D01*
X644637Y640140D01*
X644662Y640177D01*
X644708Y640225D01*
X645774Y641748D01*
X645793Y641789D01*
X645830Y641844D01*
X646615Y643529D01*
X646627Y643572D01*
X646653Y643633D01*
X647135Y645429D01*
X647138Y645474D01*
X647154Y645538D01*
X647316Y647391D01*
X647311Y647439D01*
X647314Y647516D01*
X647087Y649570D01*
X647082Y649588D01*
X647081Y649594D01*
X647076Y649607D01*
X647073Y649616D01*
X647061Y649691D01*
X646438Y651662D01*
X646415Y651704D01*
X646389Y651776D01*
X645393Y653587D01*
X645384Y653597D01*
X645380Y653607D01*
X645358Y653631D01*
X645322Y653689D01*
X643992Y655271D01*
X643955Y655301D01*
X643903Y655358D01*
X642290Y656649D01*
X642248Y656672D01*
X642186Y656717D01*
X640352Y657669D01*
X640306Y657683D01*
X640236Y657715D01*
X638252Y658291D01*
X638204Y658296D01*
X638129Y658314D01*
X636071Y658492D01*
X636027Y658488D01*
X635961Y658492D01*
X633903Y658314D01*
X633856Y658302D01*
X633780Y658291D01*
X631796Y657715D01*
X631752Y657694D01*
X631680Y657669D01*
X629846Y656717D01*
X629808Y656688D01*
X629742Y656649D01*
X628129Y655358D01*
X628097Y655321D01*
X628040Y655271D01*
X626710Y653689D01*
X626686Y653647D01*
X626639Y653587D01*
X625643Y651776D01*
X625628Y651730D01*
X625594Y651662D01*
X624971Y649691D01*
X624964Y649644D01*
X624945Y649570D01*
X624718Y647516D01*
X624721Y647468D01*
X624716Y647391D01*
X624878Y645538D01*
X624890Y645495D01*
X624897Y645429D01*
X625379Y643633D01*
X625398Y643593D01*
X625417Y643529D01*
X626202Y641844D01*
X626228Y641807D01*
X626258Y641748D01*
X627324Y640225D01*
X627356Y640194D01*
X627395Y640140D01*
X628710Y638825D01*
X628747Y638800D01*
X628795Y638754D01*
X630318Y637688D01*
X630359Y637669D01*
X630414Y637632D01*
X632099Y636847D01*
X632142Y636835D01*
X632203Y636809D01*
X633999Y636327D01*
X634044Y636324D01*
X634108Y636308D01*
X635961Y636146D01*
X636005Y636150D01*
X636071Y636146D01*
X637924Y636308D01*
G37*
G36*
X962282Y471208D02*
X962282Y471208D01*
X962325Y471220D01*
X962391Y471227D01*
X964187Y471709D01*
X964204Y471717D01*
X964210Y471718D01*
X964224Y471726D01*
X964227Y471728D01*
X964291Y471747D01*
X965976Y472532D01*
X966013Y472558D01*
X966072Y472588D01*
X967595Y473654D01*
X967626Y473686D01*
X967680Y473725D01*
X968995Y475040D01*
X969020Y475077D01*
X969066Y475125D01*
X970132Y476648D01*
X970151Y476689D01*
X970188Y476744D01*
X970973Y478429D01*
X970985Y478472D01*
X971011Y478533D01*
X971493Y480329D01*
X971496Y480374D01*
X971512Y480438D01*
X971674Y482291D01*
X971669Y482339D01*
X971672Y482416D01*
X971445Y484470D01*
X971440Y484488D01*
X971439Y484494D01*
X971434Y484507D01*
X971431Y484516D01*
X971419Y484591D01*
X970796Y486562D01*
X970773Y486604D01*
X970747Y486676D01*
X969751Y488487D01*
X969742Y488497D01*
X969738Y488507D01*
X969716Y488531D01*
X969680Y488589D01*
X968350Y490171D01*
X968313Y490201D01*
X968261Y490258D01*
X966648Y491549D01*
X966606Y491572D01*
X966544Y491617D01*
X964710Y492569D01*
X964664Y492583D01*
X964594Y492615D01*
X962610Y493191D01*
X962562Y493196D01*
X962487Y493214D01*
X960429Y493392D01*
X960385Y493388D01*
X960319Y493392D01*
X958261Y493214D01*
X958214Y493202D01*
X958138Y493191D01*
X956154Y492615D01*
X956110Y492594D01*
X956038Y492569D01*
X954204Y491617D01*
X954166Y491588D01*
X954100Y491549D01*
X952487Y490258D01*
X952455Y490221D01*
X952398Y490171D01*
X951068Y488589D01*
X951044Y488547D01*
X950997Y488487D01*
X950001Y486676D01*
X949986Y486630D01*
X949952Y486562D01*
X949329Y484591D01*
X949322Y484544D01*
X949303Y484470D01*
X949076Y482416D01*
X949079Y482368D01*
X949074Y482291D01*
X949236Y480438D01*
X949248Y480395D01*
X949255Y480329D01*
X949737Y478533D01*
X949756Y478493D01*
X949775Y478429D01*
X950560Y476744D01*
X950586Y476707D01*
X950616Y476648D01*
X951682Y475125D01*
X951714Y475094D01*
X951753Y475040D01*
X953068Y473725D01*
X953105Y473700D01*
X953153Y473654D01*
X954676Y472588D01*
X954717Y472569D01*
X954772Y472532D01*
X956457Y471747D01*
X956500Y471735D01*
X956561Y471709D01*
X958357Y471227D01*
X958402Y471224D01*
X958466Y471208D01*
X960319Y471046D01*
X960363Y471050D01*
X960429Y471046D01*
X962282Y471208D01*
G37*
G36*
X1143892Y586270D02*
X1143892Y586270D01*
X1143935Y586282D01*
X1144001Y586289D01*
X1145797Y586771D01*
X1145814Y586779D01*
X1145820Y586780D01*
X1145834Y586788D01*
X1145837Y586790D01*
X1145901Y586809D01*
X1147586Y587594D01*
X1147623Y587620D01*
X1147682Y587650D01*
X1149205Y588716D01*
X1149236Y588748D01*
X1149290Y588787D01*
X1150605Y590102D01*
X1150630Y590139D01*
X1150676Y590187D01*
X1151742Y591710D01*
X1151761Y591751D01*
X1151798Y591806D01*
X1152583Y593491D01*
X1152595Y593534D01*
X1152621Y593595D01*
X1153103Y595391D01*
X1153106Y595436D01*
X1153122Y595500D01*
X1153284Y597353D01*
X1153279Y597401D01*
X1153282Y597478D01*
X1153055Y599532D01*
X1153050Y599550D01*
X1153049Y599556D01*
X1153044Y599569D01*
X1153041Y599578D01*
X1153029Y599653D01*
X1152406Y601624D01*
X1152383Y601666D01*
X1152357Y601738D01*
X1151361Y603549D01*
X1151352Y603559D01*
X1151348Y603569D01*
X1151326Y603593D01*
X1151290Y603651D01*
X1149960Y605233D01*
X1149923Y605263D01*
X1149871Y605320D01*
X1148258Y606611D01*
X1148216Y606634D01*
X1148154Y606679D01*
X1146320Y607631D01*
X1146274Y607645D01*
X1146204Y607677D01*
X1144220Y608253D01*
X1144172Y608258D01*
X1144097Y608276D01*
X1142039Y608454D01*
X1141995Y608450D01*
X1141929Y608454D01*
X1139871Y608276D01*
X1139824Y608264D01*
X1139748Y608253D01*
X1137764Y607677D01*
X1137720Y607656D01*
X1137648Y607631D01*
X1135814Y606679D01*
X1135776Y606650D01*
X1135710Y606611D01*
X1134097Y605320D01*
X1134065Y605283D01*
X1134008Y605233D01*
X1132678Y603651D01*
X1132654Y603609D01*
X1132607Y603549D01*
X1131611Y601738D01*
X1131596Y601692D01*
X1131562Y601624D01*
X1130939Y599653D01*
X1130932Y599606D01*
X1130913Y599532D01*
X1130686Y597478D01*
X1130689Y597430D01*
X1130684Y597353D01*
X1130846Y595500D01*
X1130858Y595457D01*
X1130865Y595391D01*
X1131347Y593595D01*
X1131366Y593555D01*
X1131385Y593491D01*
X1132170Y591806D01*
X1132196Y591769D01*
X1132226Y591710D01*
X1133292Y590187D01*
X1133324Y590156D01*
X1133363Y590102D01*
X1134678Y588787D01*
X1134715Y588762D01*
X1134763Y588716D01*
X1136286Y587650D01*
X1136327Y587631D01*
X1136382Y587594D01*
X1138067Y586809D01*
X1138110Y586797D01*
X1138171Y586771D01*
X1139967Y586289D01*
X1140012Y586286D01*
X1140076Y586270D01*
X1141929Y586108D01*
X1141973Y586112D01*
X1142039Y586108D01*
X1143892Y586270D01*
G37*
G36*
X762892Y586270D02*
X762892Y586270D01*
X762935Y586282D01*
X763001Y586289D01*
X764797Y586771D01*
X764814Y586779D01*
X764820Y586780D01*
X764834Y586788D01*
X764837Y586790D01*
X764901Y586809D01*
X766586Y587594D01*
X766623Y587620D01*
X766682Y587650D01*
X768205Y588716D01*
X768236Y588748D01*
X768290Y588787D01*
X769605Y590102D01*
X769630Y590139D01*
X769676Y590187D01*
X770742Y591710D01*
X770761Y591751D01*
X770798Y591806D01*
X771583Y593491D01*
X771595Y593534D01*
X771621Y593595D01*
X772103Y595391D01*
X772106Y595436D01*
X772122Y595500D01*
X772284Y597353D01*
X772279Y597401D01*
X772282Y597478D01*
X772055Y599532D01*
X772050Y599550D01*
X772049Y599556D01*
X772044Y599569D01*
X772041Y599578D01*
X772029Y599653D01*
X771406Y601624D01*
X771383Y601666D01*
X771357Y601738D01*
X770361Y603549D01*
X770352Y603559D01*
X770348Y603569D01*
X770326Y603593D01*
X770290Y603651D01*
X768960Y605233D01*
X768923Y605263D01*
X768871Y605320D01*
X767258Y606611D01*
X767216Y606634D01*
X767154Y606679D01*
X765320Y607631D01*
X765274Y607645D01*
X765204Y607677D01*
X763220Y608253D01*
X763172Y608258D01*
X763097Y608276D01*
X761039Y608454D01*
X760995Y608450D01*
X760929Y608454D01*
X758871Y608276D01*
X758824Y608264D01*
X758748Y608253D01*
X756764Y607677D01*
X756720Y607656D01*
X756648Y607631D01*
X754814Y606679D01*
X754776Y606650D01*
X754710Y606611D01*
X753097Y605320D01*
X753065Y605283D01*
X753008Y605233D01*
X751678Y603651D01*
X751654Y603609D01*
X751607Y603549D01*
X750611Y601738D01*
X750596Y601692D01*
X750562Y601624D01*
X749939Y599653D01*
X749932Y599606D01*
X749913Y599532D01*
X749686Y597478D01*
X749689Y597430D01*
X749684Y597353D01*
X749846Y595500D01*
X749858Y595457D01*
X749865Y595391D01*
X750347Y593595D01*
X750366Y593555D01*
X750385Y593491D01*
X751170Y591806D01*
X751196Y591769D01*
X751226Y591710D01*
X752292Y590187D01*
X752324Y590156D01*
X752363Y590102D01*
X753678Y588787D01*
X753715Y588762D01*
X753763Y588716D01*
X755286Y587650D01*
X755327Y587631D01*
X755382Y587594D01*
X757067Y586809D01*
X757110Y586797D01*
X757171Y586771D01*
X758967Y586289D01*
X759012Y586286D01*
X759076Y586270D01*
X760929Y586108D01*
X760973Y586112D01*
X761039Y586108D01*
X762892Y586270D01*
G37*
G36*
X637924Y586270D02*
X637924Y586270D01*
X637967Y586282D01*
X638033Y586289D01*
X639829Y586771D01*
X639846Y586779D01*
X639852Y586780D01*
X639866Y586788D01*
X639869Y586790D01*
X639933Y586809D01*
X641618Y587594D01*
X641655Y587620D01*
X641714Y587650D01*
X643237Y588716D01*
X643268Y588748D01*
X643322Y588787D01*
X644637Y590102D01*
X644662Y590139D01*
X644708Y590187D01*
X645774Y591710D01*
X645793Y591751D01*
X645830Y591806D01*
X646615Y593491D01*
X646627Y593534D01*
X646653Y593595D01*
X647135Y595391D01*
X647138Y595436D01*
X647154Y595500D01*
X647316Y597353D01*
X647311Y597401D01*
X647314Y597478D01*
X647087Y599532D01*
X647082Y599550D01*
X647081Y599556D01*
X647076Y599569D01*
X647073Y599578D01*
X647061Y599653D01*
X646438Y601624D01*
X646415Y601666D01*
X646389Y601738D01*
X645393Y603549D01*
X645384Y603559D01*
X645380Y603569D01*
X645358Y603593D01*
X645322Y603651D01*
X643992Y605233D01*
X643955Y605263D01*
X643903Y605320D01*
X642290Y606611D01*
X642248Y606634D01*
X642186Y606679D01*
X640352Y607631D01*
X640306Y607645D01*
X640236Y607677D01*
X638252Y608253D01*
X638204Y608258D01*
X638129Y608276D01*
X636071Y608454D01*
X636027Y608450D01*
X635961Y608454D01*
X633903Y608276D01*
X633856Y608264D01*
X633780Y608253D01*
X631796Y607677D01*
X631752Y607656D01*
X631680Y607631D01*
X629846Y606679D01*
X629808Y606650D01*
X629742Y606611D01*
X628129Y605320D01*
X628097Y605283D01*
X628040Y605233D01*
X626710Y603651D01*
X626686Y603609D01*
X626639Y603549D01*
X625643Y601738D01*
X625628Y601692D01*
X625594Y601624D01*
X624971Y599653D01*
X624964Y599606D01*
X624945Y599532D01*
X624718Y597478D01*
X624721Y597430D01*
X624716Y597353D01*
X624878Y595500D01*
X624890Y595457D01*
X624897Y595391D01*
X625379Y593595D01*
X625398Y593555D01*
X625417Y593491D01*
X626202Y591806D01*
X626228Y591769D01*
X626258Y591710D01*
X627324Y590187D01*
X627356Y590156D01*
X627395Y590102D01*
X628710Y588787D01*
X628747Y588762D01*
X628795Y588716D01*
X630318Y587650D01*
X630359Y587631D01*
X630414Y587594D01*
X632099Y586809D01*
X632142Y586797D01*
X632203Y586771D01*
X633999Y586289D01*
X634044Y586286D01*
X634108Y586270D01*
X635961Y586108D01*
X636005Y586112D01*
X636071Y586108D01*
X637924Y586270D01*
G37*
G36*
X700165Y545856D02*
X700165Y545856D01*
X700212Y545868D01*
X700288Y545878D01*
X701843Y546324D01*
X701887Y546345D01*
X701959Y546370D01*
X703398Y547111D01*
X703436Y547140D01*
X703502Y547178D01*
X704769Y548186D01*
X704801Y548222D01*
X704858Y548272D01*
X705904Y549507D01*
X705928Y549549D01*
X705975Y549610D01*
X706760Y551025D01*
X706775Y551071D01*
X706809Y551139D01*
X707303Y552681D01*
X707309Y552728D01*
X707329Y552802D01*
X707512Y554410D01*
X707509Y554458D01*
X707514Y554535D01*
X707375Y556197D01*
X707363Y556244D01*
X707353Y556320D01*
X706893Y557923D01*
X706871Y557966D01*
X706847Y558039D01*
X706082Y559521D01*
X706053Y559560D01*
X706015Y559626D01*
X704976Y560931D01*
X704940Y560963D01*
X704889Y561020D01*
X703616Y562098D01*
X703574Y562122D01*
X703513Y562168D01*
X702054Y562977D01*
X702008Y562992D01*
X701940Y563026D01*
X700351Y563534D01*
X700303Y563540D01*
X700229Y563560D01*
X698572Y563748D01*
X698521Y563745D01*
X698428Y563748D01*
X696771Y563560D01*
X696725Y563546D01*
X696649Y563534D01*
X695060Y563026D01*
X695018Y563003D01*
X694946Y562977D01*
X693487Y562168D01*
X693449Y562138D01*
X693384Y562098D01*
X692111Y561020D01*
X692080Y560983D01*
X692024Y560931D01*
X690985Y559626D01*
X690962Y559583D01*
X690918Y559521D01*
X690153Y558039D01*
X690139Y557993D01*
X690107Y557923D01*
X689647Y556320D01*
X689642Y556272D01*
X689625Y556197D01*
X689486Y554535D01*
X689491Y554487D01*
X689488Y554410D01*
X689671Y552802D01*
X689685Y552756D01*
X689697Y552681D01*
X690191Y551139D01*
X690214Y551097D01*
X690240Y551025D01*
X691025Y549610D01*
X691056Y549572D01*
X691096Y549507D01*
X692142Y548272D01*
X692179Y548242D01*
X692231Y548186D01*
X693498Y547178D01*
X693540Y547155D01*
X693602Y547111D01*
X695041Y546370D01*
X695087Y546356D01*
X695157Y546324D01*
X696712Y545878D01*
X696760Y545873D01*
X696835Y545856D01*
X698448Y545722D01*
X698490Y545726D01*
X698552Y545722D01*
X700165Y545856D01*
G37*
G36*
X1081165Y545856D02*
X1081165Y545856D01*
X1081212Y545868D01*
X1081288Y545878D01*
X1082843Y546324D01*
X1082887Y546345D01*
X1082959Y546370D01*
X1084398Y547111D01*
X1084436Y547140D01*
X1084502Y547178D01*
X1085769Y548186D01*
X1085801Y548222D01*
X1085858Y548272D01*
X1086904Y549507D01*
X1086928Y549549D01*
X1086975Y549610D01*
X1087760Y551025D01*
X1087775Y551071D01*
X1087809Y551139D01*
X1088303Y552681D01*
X1088309Y552728D01*
X1088329Y552802D01*
X1088512Y554410D01*
X1088509Y554458D01*
X1088514Y554535D01*
X1088375Y556197D01*
X1088363Y556244D01*
X1088353Y556320D01*
X1087893Y557923D01*
X1087871Y557966D01*
X1087847Y558039D01*
X1087082Y559521D01*
X1087053Y559560D01*
X1087015Y559626D01*
X1085976Y560931D01*
X1085940Y560963D01*
X1085889Y561020D01*
X1084616Y562098D01*
X1084574Y562122D01*
X1084513Y562168D01*
X1083054Y562977D01*
X1083008Y562992D01*
X1082940Y563026D01*
X1081351Y563534D01*
X1081303Y563540D01*
X1081229Y563560D01*
X1079572Y563748D01*
X1079521Y563745D01*
X1079428Y563748D01*
X1077771Y563560D01*
X1077725Y563546D01*
X1077649Y563534D01*
X1076060Y563026D01*
X1076018Y563003D01*
X1075946Y562977D01*
X1074487Y562168D01*
X1074449Y562138D01*
X1074384Y562098D01*
X1073111Y561020D01*
X1073080Y560983D01*
X1073024Y560931D01*
X1071985Y559626D01*
X1071962Y559583D01*
X1071918Y559521D01*
X1071153Y558039D01*
X1071139Y557993D01*
X1071107Y557923D01*
X1070647Y556320D01*
X1070642Y556272D01*
X1070625Y556197D01*
X1070486Y554535D01*
X1070491Y554487D01*
X1070488Y554410D01*
X1070671Y552802D01*
X1070685Y552756D01*
X1070697Y552681D01*
X1071191Y551139D01*
X1071214Y551097D01*
X1071240Y551025D01*
X1072025Y549610D01*
X1072056Y549572D01*
X1072096Y549507D01*
X1073142Y548272D01*
X1073179Y548242D01*
X1073231Y548186D01*
X1074498Y547178D01*
X1074540Y547155D01*
X1074602Y547111D01*
X1076041Y546370D01*
X1076087Y546356D01*
X1076157Y546324D01*
X1077712Y545878D01*
X1077760Y545873D01*
X1077835Y545856D01*
X1079448Y545722D01*
X1079490Y545726D01*
X1079552Y545722D01*
X1081165Y545856D01*
G37*
G36*
X899555Y515884D02*
X899555Y515884D01*
X899602Y515896D01*
X899678Y515906D01*
X901233Y516352D01*
X901277Y516373D01*
X901349Y516398D01*
X902788Y517139D01*
X902826Y517168D01*
X902892Y517206D01*
X904159Y518214D01*
X904191Y518250D01*
X904248Y518300D01*
X905294Y519535D01*
X905318Y519577D01*
X905365Y519638D01*
X906150Y521053D01*
X906165Y521099D01*
X906199Y521167D01*
X906693Y522709D01*
X906699Y522756D01*
X906719Y522830D01*
X906902Y524438D01*
X906899Y524486D01*
X906904Y524563D01*
X906765Y526225D01*
X906753Y526272D01*
X906743Y526348D01*
X906283Y527951D01*
X906261Y527994D01*
X906237Y528067D01*
X905472Y529549D01*
X905443Y529588D01*
X905405Y529654D01*
X904366Y530959D01*
X904330Y530991D01*
X904279Y531048D01*
X903006Y532126D01*
X902964Y532150D01*
X902903Y532196D01*
X901444Y533005D01*
X901398Y533020D01*
X901330Y533054D01*
X899741Y533562D01*
X899693Y533568D01*
X899619Y533588D01*
X897962Y533776D01*
X897911Y533773D01*
X897818Y533776D01*
X896161Y533588D01*
X896115Y533574D01*
X896039Y533562D01*
X894450Y533054D01*
X894408Y533031D01*
X894336Y533005D01*
X892877Y532196D01*
X892839Y532166D01*
X892774Y532126D01*
X891501Y531048D01*
X891470Y531011D01*
X891414Y530959D01*
X890375Y529654D01*
X890352Y529611D01*
X890308Y529549D01*
X889543Y528067D01*
X889529Y528021D01*
X889497Y527951D01*
X889037Y526348D01*
X889032Y526300D01*
X889015Y526225D01*
X888876Y524563D01*
X888881Y524515D01*
X888878Y524438D01*
X889061Y522830D01*
X889075Y522784D01*
X889087Y522709D01*
X889581Y521167D01*
X889604Y521125D01*
X889630Y521053D01*
X890415Y519638D01*
X890446Y519600D01*
X890486Y519535D01*
X891532Y518300D01*
X891569Y518270D01*
X891621Y518214D01*
X892888Y517206D01*
X892930Y517183D01*
X892992Y517139D01*
X894431Y516398D01*
X894477Y516384D01*
X894547Y516352D01*
X896102Y515906D01*
X896150Y515901D01*
X896225Y515884D01*
X897838Y515750D01*
X897880Y515754D01*
X897942Y515750D01*
X899555Y515884D01*
G37*
G36*
X895745Y857514D02*
X895745Y857514D01*
X895792Y857526D01*
X895868Y857536D01*
X897423Y857982D01*
X897467Y858003D01*
X897539Y858028D01*
X898978Y858769D01*
X899016Y858798D01*
X899082Y858836D01*
X900349Y859844D01*
X900381Y859880D01*
X900438Y859930D01*
X901484Y861165D01*
X901508Y861207D01*
X901555Y861268D01*
X902340Y862683D01*
X902355Y862729D01*
X902389Y862797D01*
X902883Y864339D01*
X902889Y864386D01*
X902909Y864460D01*
X903092Y866068D01*
X903089Y866116D01*
X903094Y866193D01*
X902955Y867855D01*
X902943Y867902D01*
X902933Y867978D01*
X902473Y869581D01*
X902451Y869624D01*
X902427Y869697D01*
X901662Y871179D01*
X901633Y871218D01*
X901595Y871284D01*
X900556Y872589D01*
X900520Y872621D01*
X900469Y872678D01*
X899196Y873756D01*
X899154Y873780D01*
X899093Y873826D01*
X897634Y874635D01*
X897588Y874650D01*
X897520Y874684D01*
X895931Y875192D01*
X895883Y875198D01*
X895809Y875218D01*
X894152Y875406D01*
X894101Y875403D01*
X894008Y875406D01*
X892351Y875218D01*
X892305Y875204D01*
X892229Y875192D01*
X890640Y874684D01*
X890598Y874661D01*
X890526Y874635D01*
X889067Y873826D01*
X889029Y873796D01*
X888964Y873756D01*
X887691Y872678D01*
X887660Y872641D01*
X887604Y872589D01*
X886565Y871284D01*
X886542Y871241D01*
X886498Y871179D01*
X885733Y869697D01*
X885719Y869651D01*
X885687Y869581D01*
X885227Y867978D01*
X885222Y867930D01*
X885205Y867855D01*
X885066Y866193D01*
X885071Y866145D01*
X885068Y866068D01*
X885251Y864460D01*
X885265Y864414D01*
X885277Y864339D01*
X885771Y862797D01*
X885794Y862755D01*
X885820Y862683D01*
X886605Y861268D01*
X886636Y861230D01*
X886676Y861165D01*
X887722Y859930D01*
X887759Y859900D01*
X887811Y859844D01*
X889078Y858836D01*
X889120Y858813D01*
X889182Y858769D01*
X890621Y858028D01*
X890667Y858014D01*
X890737Y857982D01*
X892292Y857536D01*
X892340Y857531D01*
X892415Y857514D01*
X894028Y857380D01*
X894070Y857384D01*
X894132Y857380D01*
X895745Y857514D01*
G37*
G36*
X1081165Y680984D02*
X1081165Y680984D01*
X1081212Y680996D01*
X1081288Y681006D01*
X1082843Y681452D01*
X1082887Y681473D01*
X1082959Y681498D01*
X1084398Y682239D01*
X1084436Y682268D01*
X1084502Y682306D01*
X1085769Y683314D01*
X1085801Y683350D01*
X1085858Y683400D01*
X1086904Y684635D01*
X1086928Y684677D01*
X1086975Y684738D01*
X1087760Y686153D01*
X1087775Y686199D01*
X1087809Y686267D01*
X1088303Y687809D01*
X1088309Y687856D01*
X1088329Y687930D01*
X1088512Y689538D01*
X1088509Y689586D01*
X1088514Y689663D01*
X1088375Y691325D01*
X1088363Y691372D01*
X1088353Y691448D01*
X1087893Y693051D01*
X1087871Y693094D01*
X1087847Y693167D01*
X1087082Y694649D01*
X1087053Y694688D01*
X1087015Y694754D01*
X1085976Y696059D01*
X1085940Y696091D01*
X1085889Y696148D01*
X1084616Y697226D01*
X1084574Y697250D01*
X1084513Y697296D01*
X1083054Y698105D01*
X1083008Y698120D01*
X1082940Y698154D01*
X1081351Y698662D01*
X1081303Y698668D01*
X1081229Y698688D01*
X1079572Y698876D01*
X1079521Y698873D01*
X1079428Y698876D01*
X1077771Y698688D01*
X1077725Y698674D01*
X1077649Y698662D01*
X1076060Y698154D01*
X1076018Y698131D01*
X1075946Y698105D01*
X1074487Y697296D01*
X1074449Y697266D01*
X1074384Y697226D01*
X1073111Y696148D01*
X1073080Y696111D01*
X1073024Y696059D01*
X1071985Y694754D01*
X1071962Y694711D01*
X1071918Y694649D01*
X1071153Y693167D01*
X1071139Y693121D01*
X1071107Y693051D01*
X1070647Y691448D01*
X1070642Y691400D01*
X1070625Y691325D01*
X1070486Y689663D01*
X1070491Y689615D01*
X1070488Y689538D01*
X1070671Y687930D01*
X1070685Y687884D01*
X1070697Y687809D01*
X1071191Y686267D01*
X1071214Y686225D01*
X1071240Y686153D01*
X1072025Y684738D01*
X1072056Y684700D01*
X1072096Y684635D01*
X1073142Y683400D01*
X1073179Y683370D01*
X1073231Y683314D01*
X1074498Y682306D01*
X1074540Y682283D01*
X1074602Y682239D01*
X1076041Y681498D01*
X1076087Y681484D01*
X1076157Y681452D01*
X1077712Y681006D01*
X1077760Y681001D01*
X1077835Y680984D01*
X1079448Y680850D01*
X1079490Y680854D01*
X1079552Y680850D01*
X1081165Y680984D01*
G37*
G36*
X700165Y680984D02*
X700165Y680984D01*
X700212Y680996D01*
X700288Y681006D01*
X701843Y681452D01*
X701887Y681473D01*
X701959Y681498D01*
X703398Y682239D01*
X703436Y682268D01*
X703502Y682306D01*
X704769Y683314D01*
X704801Y683350D01*
X704858Y683400D01*
X705904Y684635D01*
X705928Y684677D01*
X705975Y684738D01*
X706760Y686153D01*
X706775Y686199D01*
X706809Y686267D01*
X707303Y687809D01*
X707309Y687856D01*
X707329Y687930D01*
X707512Y689538D01*
X707509Y689586D01*
X707514Y689663D01*
X707375Y691325D01*
X707363Y691372D01*
X707353Y691448D01*
X706893Y693051D01*
X706871Y693094D01*
X706847Y693167D01*
X706082Y694649D01*
X706053Y694688D01*
X706015Y694754D01*
X704976Y696059D01*
X704940Y696091D01*
X704889Y696148D01*
X703616Y697226D01*
X703574Y697250D01*
X703513Y697296D01*
X702054Y698105D01*
X702008Y698120D01*
X701940Y698154D01*
X700351Y698662D01*
X700303Y698668D01*
X700229Y698688D01*
X698572Y698876D01*
X698521Y698873D01*
X698428Y698876D01*
X696771Y698688D01*
X696725Y698674D01*
X696649Y698662D01*
X695060Y698154D01*
X695018Y698131D01*
X694946Y698105D01*
X693487Y697296D01*
X693449Y697266D01*
X693384Y697226D01*
X692111Y696148D01*
X692080Y696111D01*
X692024Y696059D01*
X690985Y694754D01*
X690962Y694711D01*
X690918Y694649D01*
X690153Y693167D01*
X690139Y693121D01*
X690107Y693051D01*
X689647Y691448D01*
X689642Y691400D01*
X689625Y691325D01*
X689486Y689663D01*
X689491Y689615D01*
X689488Y689538D01*
X689671Y687930D01*
X689685Y687884D01*
X689697Y687809D01*
X690191Y686267D01*
X690214Y686225D01*
X690240Y686153D01*
X691025Y684738D01*
X691056Y684700D01*
X691096Y684635D01*
X692142Y683400D01*
X692179Y683370D01*
X692231Y683314D01*
X693498Y682306D01*
X693540Y682283D01*
X693602Y682239D01*
X695041Y681498D01*
X695087Y681484D01*
X695157Y681452D01*
X696712Y681006D01*
X696760Y681001D01*
X696835Y680984D01*
X698448Y680850D01*
X698490Y680854D01*
X698552Y680850D01*
X700165Y680984D01*
G37*
G36*
X895745Y722386D02*
X895745Y722386D01*
X895792Y722398D01*
X895868Y722408D01*
X897423Y722854D01*
X897467Y722875D01*
X897539Y722900D01*
X898978Y723641D01*
X899016Y723670D01*
X899082Y723708D01*
X900349Y724716D01*
X900381Y724752D01*
X900438Y724802D01*
X901484Y726037D01*
X901508Y726079D01*
X901555Y726140D01*
X902340Y727555D01*
X902355Y727601D01*
X902389Y727669D01*
X902883Y729211D01*
X902889Y729258D01*
X902909Y729332D01*
X903092Y730940D01*
X903089Y730988D01*
X903094Y731065D01*
X902955Y732727D01*
X902943Y732774D01*
X902933Y732850D01*
X902473Y734453D01*
X902451Y734496D01*
X902427Y734569D01*
X901662Y736051D01*
X901633Y736090D01*
X901595Y736156D01*
X900556Y737461D01*
X900520Y737493D01*
X900469Y737550D01*
X899196Y738628D01*
X899154Y738652D01*
X899093Y738698D01*
X897634Y739507D01*
X897588Y739522D01*
X897520Y739556D01*
X895931Y740064D01*
X895883Y740070D01*
X895809Y740090D01*
X894152Y740278D01*
X894101Y740275D01*
X894008Y740278D01*
X892351Y740090D01*
X892305Y740076D01*
X892229Y740064D01*
X890640Y739556D01*
X890598Y739533D01*
X890526Y739507D01*
X889067Y738698D01*
X889029Y738668D01*
X888964Y738628D01*
X887691Y737550D01*
X887660Y737513D01*
X887604Y737461D01*
X886565Y736156D01*
X886542Y736113D01*
X886498Y736051D01*
X885733Y734569D01*
X885719Y734523D01*
X885687Y734453D01*
X885227Y732850D01*
X885222Y732802D01*
X885205Y732727D01*
X885066Y731065D01*
X885071Y731017D01*
X885068Y730940D01*
X885251Y729332D01*
X885265Y729286D01*
X885277Y729211D01*
X885771Y727669D01*
X885794Y727627D01*
X885820Y727555D01*
X886605Y726140D01*
X886636Y726102D01*
X886676Y726037D01*
X887722Y724802D01*
X887759Y724772D01*
X887811Y724716D01*
X889078Y723708D01*
X889120Y723685D01*
X889182Y723641D01*
X890621Y722900D01*
X890667Y722886D01*
X890737Y722854D01*
X892292Y722408D01*
X892340Y722403D01*
X892415Y722386D01*
X894028Y722252D01*
X894070Y722256D01*
X894132Y722252D01*
X895745Y722386D01*
G37*
G36*
X899555Y380756D02*
X899555Y380756D01*
X899602Y380768D01*
X899678Y380778D01*
X901233Y381224D01*
X901277Y381245D01*
X901349Y381270D01*
X902788Y382011D01*
X902826Y382040D01*
X902892Y382078D01*
X904159Y383086D01*
X904191Y383122D01*
X904248Y383172D01*
X905294Y384407D01*
X905318Y384449D01*
X905365Y384510D01*
X906150Y385925D01*
X906165Y385971D01*
X906199Y386039D01*
X906693Y387581D01*
X906699Y387628D01*
X906719Y387702D01*
X906902Y389310D01*
X906899Y389358D01*
X906904Y389435D01*
X906765Y391097D01*
X906753Y391144D01*
X906743Y391220D01*
X906283Y392823D01*
X906261Y392866D01*
X906237Y392939D01*
X905472Y394421D01*
X905443Y394460D01*
X905405Y394526D01*
X904366Y395831D01*
X904330Y395863D01*
X904279Y395920D01*
X903006Y396998D01*
X902964Y397022D01*
X902903Y397068D01*
X901444Y397877D01*
X901398Y397892D01*
X901330Y397926D01*
X899741Y398434D01*
X899693Y398440D01*
X899619Y398460D01*
X897962Y398648D01*
X897911Y398645D01*
X897818Y398648D01*
X896161Y398460D01*
X896115Y398446D01*
X896039Y398434D01*
X894450Y397926D01*
X894408Y397903D01*
X894336Y397877D01*
X892877Y397068D01*
X892839Y397038D01*
X892774Y396998D01*
X891501Y395920D01*
X891470Y395883D01*
X891414Y395831D01*
X890375Y394526D01*
X890352Y394483D01*
X890308Y394421D01*
X889543Y392939D01*
X889529Y392893D01*
X889497Y392823D01*
X889037Y391220D01*
X889032Y391172D01*
X889015Y391097D01*
X888876Y389435D01*
X888881Y389387D01*
X888878Y389310D01*
X889061Y387702D01*
X889075Y387656D01*
X889087Y387581D01*
X889581Y386039D01*
X889604Y385997D01*
X889630Y385925D01*
X890415Y384510D01*
X890446Y384472D01*
X890486Y384407D01*
X891532Y383172D01*
X891569Y383142D01*
X891621Y383086D01*
X892888Y382078D01*
X892930Y382055D01*
X892992Y382011D01*
X894431Y381270D01*
X894477Y381256D01*
X894547Y381224D01*
X896102Y380778D01*
X896150Y380773D01*
X896225Y380756D01*
X897838Y380622D01*
X897880Y380626D01*
X897942Y380622D01*
X899555Y380756D01*
G37*
D10*
X894080Y843830D03*
X894080Y753830D03*
D11*
X503800Y1079500D03*
X486800Y1079500D03*
X237100Y482600D03*
X220100Y482600D03*
D10*
X1079500Y667300D03*
X1079500Y577300D03*
D12*
X1047750Y862330D03*
X1047750Y836930D03*
X1022350Y836930D03*
X1022350Y862330D03*
D13*
X153135Y927835D03*
D14*
X126265Y900965D03*
D15*
X147000Y863600D03*
X234000Y863600D03*
D16*
X671800Y749300D03*
X699800Y749300D03*
D17*
X241300Y420400D03*
X241300Y392400D03*
D16*
X1052800Y762000D03*
X1080800Y762000D03*
D17*
X787400Y836900D03*
X787400Y864900D03*
D16*
X862300Y571500D03*
X890300Y571500D03*
D11*
X499500Y1104900D03*
X516500Y1104900D03*
X567300Y1104900D03*
X550300Y1104900D03*
D18*
X203200Y771500D03*
X203200Y752500D03*
D16*
X176500Y393700D03*
X204500Y393700D03*
D10*
X698500Y667300D03*
X698500Y577300D03*
D12*
X520700Y457200D03*
X546100Y457200D03*
X571500Y457200D03*
X524510Y356870D03*
X499110Y356870D03*
X473710Y356870D03*
X448310Y356870D03*
X422910Y356870D03*
X397510Y356870D03*
X372110Y356870D03*
X346710Y356870D03*
X321310Y356870D03*
X295910Y356870D03*
X270510Y356870D03*
X245110Y356870D03*
X245110Y179070D03*
X270510Y179070D03*
X295910Y179070D03*
X321310Y179070D03*
X346710Y179070D03*
X372110Y179070D03*
X397510Y179070D03*
X422910Y179070D03*
X448310Y179070D03*
X473710Y179070D03*
X499110Y179070D03*
X524510Y179070D03*
D19*
X418040Y1042130D03*
X392640Y1042130D03*
X367240Y1042130D03*
X341840Y1042130D03*
D20*
X276840Y806130D03*
X483840Y806130D03*
X483840Y1039130D03*
X276840Y1039130D03*
D10*
X897890Y502200D03*
X897890Y412200D03*
D21*
X558800Y249428D02*
X558800Y233172D01*
X533400Y233172D02*
X533400Y249428D01*
X508000Y249428D02*
X508000Y233172D01*
D22*
X190500Y442700D03*
X215900Y442700D03*
X241300Y442700D03*
D23*
X372110Y938000D03*
X372110Y78000D03*
D24*
X452110Y784000D03*
X292110Y232000D03*
D25*
X452110Y148700D03*
D12*
X506730Y95250D03*
D14*
X546100Y292100D03*
D26*
X622300Y266700D03*
M02*
