G04 EAGLE Gerber X2 export*
G75*
%MOMM*%
%FSLAX34Y34*%
%LPD*%
%AMOC8*
5,1,8,0,0,1.08239X$1,22.5*%
G01*
%ADD10C,2.159000*%
%ADD11C,1.676400*%
%ADD12R,1.100000X1.000000*%
%ADD13R,1.000000X1.100000*%
%ADD14C,1.879600*%
%ADD15R,1.300000X3.400000*%
%ADD16R,1.600000X1.800000*%
%ADD17R,1.800000X1.600000*%
%ADD18R,1.600000X1.300000*%
%ADD19R,1.168400X1.600200*%
%ADD20P,1.539592X8X22.500000*%
%ADD21C,1.778000*%
%ADD22R,8.000000X8.000000*%
%ADD23C,1.625600*%
%ADD24C,0.906400*%
%ADD25C,0.304800*%
%ADD26C,0.406400*%

G36*
X556709Y29990D02*
X556709Y29990D01*
X556858Y30002D01*
X556882Y30010D01*
X556907Y30013D01*
X557047Y30063D01*
X557189Y30108D01*
X557211Y30122D01*
X557235Y30130D01*
X557360Y30211D01*
X557488Y30288D01*
X557507Y30305D01*
X557528Y30319D01*
X557632Y30426D01*
X557739Y30530D01*
X557756Y30555D01*
X557770Y30570D01*
X557795Y30611D01*
X557878Y30731D01*
X724821Y318174D01*
X724839Y318216D01*
X724911Y318356D01*
X725103Y318820D01*
X725185Y318901D01*
X725231Y318960D01*
X725285Y319013D01*
X725372Y319138D01*
X725401Y319174D01*
X725409Y319191D01*
X725425Y319214D01*
X725483Y319313D01*
X725882Y319618D01*
X725914Y319649D01*
X726035Y319752D01*
X726390Y320107D01*
X726496Y320151D01*
X726562Y320187D01*
X726632Y320215D01*
X726760Y320297D01*
X726801Y320320D01*
X726814Y320332D01*
X726837Y320347D01*
X726929Y320417D01*
X727414Y320545D01*
X727456Y320562D01*
X727607Y320611D01*
X728070Y320803D01*
X728185Y320803D01*
X728260Y320811D01*
X728335Y320810D01*
X728486Y320837D01*
X728532Y320843D01*
X728549Y320849D01*
X728576Y320854D01*
X728687Y320883D01*
X729185Y320816D01*
X729229Y320815D01*
X729387Y320803D01*
X1060754Y320803D01*
X1060901Y320820D01*
X1061050Y320832D01*
X1061075Y320840D01*
X1061101Y320843D01*
X1061240Y320893D01*
X1061382Y320938D01*
X1061404Y320951D01*
X1061429Y320960D01*
X1061554Y321041D01*
X1061681Y321117D01*
X1061699Y321135D01*
X1061721Y321149D01*
X1061825Y321256D01*
X1061931Y321359D01*
X1061949Y321385D01*
X1061964Y321400D01*
X1061988Y321441D01*
X1062071Y321560D01*
X1230931Y611748D01*
X1230972Y611844D01*
X1231023Y611935D01*
X1231042Y612003D01*
X1231070Y612068D01*
X1231089Y612170D01*
X1231118Y612271D01*
X1231125Y612364D01*
X1231134Y612410D01*
X1231132Y612448D01*
X1231137Y612515D01*
X1231137Y625704D01*
X1231124Y625815D01*
X1231121Y625926D01*
X1231105Y625987D01*
X1231097Y626050D01*
X1231060Y626155D01*
X1231031Y626263D01*
X1230995Y626337D01*
X1230980Y626378D01*
X1230957Y626414D01*
X1230923Y626483D01*
X1058292Y916703D01*
X1058207Y916815D01*
X1058126Y916931D01*
X1058101Y916953D01*
X1058081Y916980D01*
X1057972Y917070D01*
X1057867Y917164D01*
X1057838Y917181D01*
X1057812Y917202D01*
X1057686Y917265D01*
X1057562Y917333D01*
X1057530Y917342D01*
X1057500Y917357D01*
X1057363Y917389D01*
X1057227Y917428D01*
X1057186Y917431D01*
X1057161Y917437D01*
X1057111Y917437D01*
X1056983Y917447D01*
X728123Y917447D01*
X728080Y917442D01*
X727918Y917433D01*
X727426Y917366D01*
X727309Y917397D01*
X727236Y917408D01*
X727165Y917428D01*
X727009Y917440D01*
X726964Y917447D01*
X726947Y917445D01*
X726921Y917447D01*
X726800Y917447D01*
X726342Y917637D01*
X726300Y917649D01*
X726147Y917703D01*
X725667Y917829D01*
X725570Y917902D01*
X725507Y917940D01*
X725449Y917986D01*
X725310Y918057D01*
X725271Y918080D01*
X725254Y918085D01*
X725231Y918097D01*
X725120Y918143D01*
X724769Y918494D01*
X724735Y918522D01*
X724614Y918630D01*
X724218Y918930D01*
X724158Y919035D01*
X724113Y919094D01*
X724077Y919158D01*
X723976Y919277D01*
X723949Y919314D01*
X723936Y919325D01*
X723919Y919344D01*
X723833Y919430D01*
X723644Y919888D01*
X723622Y919927D01*
X723552Y920073D01*
X556614Y1206252D01*
X556526Y1206370D01*
X556442Y1206491D01*
X556422Y1206509D01*
X556406Y1206531D01*
X556292Y1206626D01*
X556183Y1206724D01*
X556159Y1206737D01*
X556139Y1206755D01*
X556007Y1206821D01*
X555878Y1206893D01*
X555852Y1206900D01*
X555828Y1206912D01*
X555685Y1206947D01*
X555542Y1206988D01*
X555510Y1206990D01*
X555489Y1206995D01*
X555441Y1206996D01*
X555299Y1207007D01*
X214328Y1207007D01*
X214180Y1206990D01*
X214032Y1206978D01*
X214007Y1206970D01*
X213982Y1206967D01*
X213842Y1206917D01*
X213700Y1206872D01*
X213678Y1206859D01*
X213654Y1206850D01*
X213529Y1206769D01*
X213401Y1206693D01*
X213382Y1206675D01*
X213361Y1206661D01*
X213257Y1206554D01*
X213150Y1206450D01*
X213133Y1206425D01*
X213119Y1206410D01*
X213094Y1206369D01*
X213011Y1206249D01*
X42879Y913523D01*
X42837Y913427D01*
X42787Y913336D01*
X42768Y913268D01*
X42740Y913203D01*
X42721Y913101D01*
X42692Y913001D01*
X42685Y912907D01*
X42676Y912861D01*
X42678Y912823D01*
X42673Y912757D01*
X42673Y903366D01*
X42685Y903258D01*
X42688Y903148D01*
X42705Y903085D01*
X42713Y903020D01*
X42749Y902917D01*
X42777Y902811D01*
X42815Y902734D01*
X42830Y902692D01*
X42852Y902658D01*
X42885Y902592D01*
X206744Y625290D01*
X206786Y625235D01*
X206820Y625174D01*
X206930Y625046D01*
X206955Y625012D01*
X206966Y625004D01*
X206979Y624988D01*
X207077Y624890D01*
X207260Y624448D01*
X207279Y624414D01*
X207356Y624256D01*
X207599Y623843D01*
X207619Y623706D01*
X207636Y623639D01*
X207645Y623570D01*
X207697Y623409D01*
X207707Y623369D01*
X207713Y623357D01*
X207720Y623337D01*
X207773Y623210D01*
X207773Y622730D01*
X207777Y622692D01*
X207788Y622516D01*
X207855Y622042D01*
X207821Y621908D01*
X207811Y621839D01*
X207792Y621773D01*
X207779Y621604D01*
X207773Y621563D01*
X207774Y621549D01*
X207773Y621529D01*
X207773Y616733D01*
X207781Y616662D01*
X207780Y616589D01*
X207808Y616431D01*
X207813Y616387D01*
X207818Y616372D01*
X207822Y616348D01*
X207854Y616226D01*
X207787Y615740D01*
X207786Y615697D01*
X207773Y615532D01*
X207773Y615040D01*
X207724Y614924D01*
X207705Y614854D01*
X207676Y614788D01*
X207641Y614632D01*
X207629Y614589D01*
X207628Y614573D01*
X207623Y614549D01*
X207606Y614424D01*
X207357Y614000D01*
X207340Y613961D01*
X207265Y613814D01*
X207077Y613360D01*
X206987Y613271D01*
X206942Y613214D01*
X206890Y613164D01*
X206798Y613033D01*
X206771Y612998D01*
X206764Y612983D01*
X206750Y612963D01*
X42882Y333126D01*
X42839Y333029D01*
X42787Y332936D01*
X42769Y332870D01*
X42741Y332807D01*
X42721Y332703D01*
X42692Y332600D01*
X42685Y332510D01*
X42677Y332465D01*
X42678Y332425D01*
X42673Y332356D01*
X42673Y326782D01*
X42685Y326674D01*
X42688Y326566D01*
X42705Y326501D01*
X42713Y326436D01*
X42749Y326334D01*
X42777Y326229D01*
X42815Y326150D01*
X42830Y326107D01*
X42852Y326073D01*
X42883Y326009D01*
X216802Y30723D01*
X216889Y30608D01*
X216971Y30489D01*
X216994Y30469D01*
X217012Y30445D01*
X217123Y30352D01*
X217230Y30256D01*
X217256Y30241D01*
X217280Y30222D01*
X217409Y30157D01*
X217535Y30087D01*
X217564Y30079D01*
X217591Y30065D01*
X217731Y30032D01*
X217871Y29992D01*
X217907Y29989D01*
X217930Y29984D01*
X217979Y29984D01*
X218114Y29973D01*
X556561Y29973D01*
X556709Y29990D01*
G37*
%LPC*%
G36*
X518224Y63753D02*
X518224Y63753D01*
X513649Y65648D01*
X510148Y69149D01*
X508859Y72262D01*
X508781Y72402D01*
X508706Y72543D01*
X508697Y72554D01*
X508690Y72567D01*
X508582Y72685D01*
X508477Y72805D01*
X508465Y72814D01*
X508456Y72825D01*
X508324Y72916D01*
X508194Y73009D01*
X508181Y73015D01*
X508169Y73023D01*
X508020Y73082D01*
X507872Y73143D01*
X507858Y73145D01*
X507845Y73151D01*
X507686Y73174D01*
X507529Y73200D01*
X507514Y73199D01*
X507500Y73202D01*
X507341Y73188D01*
X507181Y73178D01*
X507167Y73174D01*
X507153Y73173D01*
X507001Y73124D01*
X506847Y73077D01*
X506835Y73070D01*
X506821Y73066D01*
X506684Y72983D01*
X506545Y72903D01*
X506535Y72893D01*
X506522Y72886D01*
X506408Y72775D01*
X506291Y72665D01*
X506283Y72653D01*
X506272Y72643D01*
X506186Y72508D01*
X506097Y72376D01*
X506090Y72360D01*
X506084Y72350D01*
X506071Y72313D01*
X506003Y72150D01*
X505893Y71812D01*
X505076Y70209D01*
X504019Y68753D01*
X502747Y67481D01*
X501291Y66424D01*
X499688Y65607D01*
X497977Y65051D01*
X497839Y65029D01*
X497839Y75184D01*
X497836Y75210D01*
X497838Y75236D01*
X497816Y75383D01*
X497799Y75530D01*
X497791Y75555D01*
X497787Y75581D01*
X497732Y75718D01*
X497682Y75858D01*
X497668Y75880D01*
X497658Y75905D01*
X497573Y76026D01*
X497493Y76151D01*
X497474Y76169D01*
X497459Y76191D01*
X497349Y76290D01*
X497242Y76393D01*
X497220Y76407D01*
X497200Y76424D01*
X497070Y76496D01*
X496943Y76572D01*
X496918Y76580D01*
X496895Y76593D01*
X496752Y76633D01*
X496611Y76678D01*
X496585Y76680D01*
X496560Y76687D01*
X496316Y76707D01*
X495807Y76707D01*
X495807Y77216D01*
X495805Y77233D01*
X495806Y77246D01*
X495805Y77254D01*
X495806Y77268D01*
X495784Y77415D01*
X495767Y77562D01*
X495758Y77587D01*
X495754Y77613D01*
X495700Y77751D01*
X495650Y77890D01*
X495635Y77912D01*
X495626Y77937D01*
X495541Y78058D01*
X495461Y78183D01*
X495442Y78201D01*
X495427Y78223D01*
X495317Y78322D01*
X495210Y78425D01*
X495187Y78439D01*
X495168Y78456D01*
X495038Y78528D01*
X494911Y78604D01*
X494886Y78612D01*
X494863Y78625D01*
X494720Y78665D01*
X494579Y78710D01*
X494553Y78712D01*
X494528Y78720D01*
X494284Y78739D01*
X484129Y78739D01*
X484151Y78877D01*
X484707Y80588D01*
X485524Y82191D01*
X486581Y83647D01*
X487853Y84919D01*
X489309Y85976D01*
X490912Y86793D01*
X491250Y86903D01*
X491394Y86969D01*
X491542Y87033D01*
X491554Y87042D01*
X491567Y87048D01*
X491693Y87146D01*
X491822Y87241D01*
X491831Y87252D01*
X491842Y87261D01*
X491943Y87385D01*
X492047Y87507D01*
X492053Y87520D01*
X492062Y87531D01*
X492133Y87676D01*
X492205Y87817D01*
X492209Y87831D01*
X492215Y87844D01*
X492251Y88002D01*
X492290Y88156D01*
X492290Y88170D01*
X492293Y88184D01*
X492292Y88344D01*
X492295Y88504D01*
X492292Y88518D01*
X492291Y88533D01*
X492254Y88688D01*
X492220Y88845D01*
X492214Y88858D01*
X492211Y88872D01*
X492139Y89016D01*
X492071Y89159D01*
X492062Y89170D01*
X492055Y89184D01*
X491953Y89307D01*
X491853Y89432D01*
X491842Y89441D01*
X491833Y89452D01*
X491705Y89549D01*
X491580Y89648D01*
X491564Y89655D01*
X491555Y89663D01*
X491520Y89678D01*
X491362Y89759D01*
X488249Y91048D01*
X484748Y94549D01*
X482853Y99124D01*
X482853Y104076D01*
X483280Y105105D01*
X483301Y105179D01*
X483331Y105249D01*
X483348Y105346D01*
X483375Y105440D01*
X483379Y105517D01*
X483393Y105592D01*
X483388Y105690D01*
X483392Y105788D01*
X483379Y105864D01*
X483375Y105940D01*
X483347Y106035D01*
X483330Y106131D01*
X483299Y106201D01*
X483278Y106275D01*
X483230Y106361D01*
X483191Y106451D01*
X483145Y106512D01*
X483108Y106579D01*
X483011Y106693D01*
X482983Y106731D01*
X482968Y106743D01*
X482949Y106765D01*
X481336Y108379D01*
X479693Y110022D01*
X478919Y111889D01*
X478919Y113911D01*
X479693Y115778D01*
X527938Y164023D01*
X528000Y164101D01*
X528070Y164174D01*
X528108Y164238D01*
X528154Y164296D01*
X528197Y164387D01*
X528249Y164473D01*
X528271Y164544D01*
X528303Y164611D01*
X528324Y164709D01*
X528355Y164805D01*
X528361Y164879D01*
X528377Y164952D01*
X528375Y165052D01*
X528383Y165152D01*
X528372Y165226D01*
X528371Y165300D01*
X528346Y165397D01*
X528331Y165497D01*
X528304Y165566D01*
X528286Y165638D01*
X528240Y165728D01*
X528203Y165821D01*
X528160Y165882D01*
X528126Y165948D01*
X528061Y166025D01*
X528004Y166107D01*
X527948Y166157D01*
X527900Y166213D01*
X527819Y166273D01*
X527745Y166340D01*
X527680Y166376D01*
X527620Y166421D01*
X527528Y166460D01*
X527440Y166509D01*
X527368Y166529D01*
X527300Y166559D01*
X527201Y166576D01*
X527104Y166604D01*
X527004Y166612D01*
X526957Y166620D01*
X526921Y166618D01*
X526861Y166623D01*
X522034Y166623D01*
X517459Y168518D01*
X513958Y172019D01*
X513217Y173808D01*
X513184Y173868D01*
X513180Y173879D01*
X513171Y173892D01*
X513169Y173896D01*
X513128Y173988D01*
X513084Y174048D01*
X513048Y174113D01*
X512981Y174187D01*
X512921Y174268D01*
X512864Y174316D01*
X512814Y174371D01*
X512731Y174428D01*
X512655Y174493D01*
X512588Y174527D01*
X512527Y174569D01*
X512434Y174606D01*
X512344Y174652D01*
X512272Y174670D01*
X512203Y174697D01*
X512104Y174712D01*
X512006Y174736D01*
X511932Y174737D01*
X511858Y174748D01*
X511758Y174739D01*
X511658Y174741D01*
X511585Y174725D01*
X511511Y174719D01*
X511415Y174688D01*
X511317Y174667D01*
X511250Y174635D01*
X511179Y174612D01*
X511093Y174560D01*
X511002Y174517D01*
X510944Y174470D01*
X510881Y174432D01*
X510809Y174362D01*
X510730Y174299D01*
X510684Y174241D01*
X510631Y174189D01*
X510576Y174105D01*
X510514Y174026D01*
X510468Y173936D01*
X510442Y173896D01*
X510430Y173862D01*
X510403Y173808D01*
X509662Y172019D01*
X506161Y168518D01*
X501586Y166623D01*
X496634Y166623D01*
X492059Y168518D01*
X488558Y172019D01*
X487817Y173808D01*
X487784Y173868D01*
X487780Y173879D01*
X487771Y173892D01*
X487769Y173896D01*
X487728Y173988D01*
X487684Y174048D01*
X487648Y174113D01*
X487581Y174187D01*
X487521Y174268D01*
X487464Y174316D01*
X487414Y174371D01*
X487331Y174428D01*
X487255Y174493D01*
X487188Y174527D01*
X487127Y174569D01*
X487034Y174606D01*
X486944Y174652D01*
X486872Y174670D01*
X486803Y174697D01*
X486704Y174712D01*
X486606Y174736D01*
X486532Y174737D01*
X486458Y174748D01*
X486358Y174739D01*
X486258Y174741D01*
X486185Y174725D01*
X486111Y174719D01*
X486015Y174688D01*
X485917Y174667D01*
X485850Y174635D01*
X485779Y174612D01*
X485693Y174560D01*
X485602Y174517D01*
X485544Y174470D01*
X485481Y174432D01*
X485409Y174362D01*
X485330Y174299D01*
X485284Y174241D01*
X485231Y174189D01*
X485176Y174105D01*
X485114Y174026D01*
X485068Y173936D01*
X485042Y173896D01*
X485030Y173862D01*
X485003Y173808D01*
X484262Y172019D01*
X480761Y168518D01*
X476186Y166623D01*
X471234Y166623D01*
X466659Y168518D01*
X463158Y172019D01*
X461869Y175132D01*
X461791Y175272D01*
X461716Y175413D01*
X461707Y175424D01*
X461700Y175437D01*
X461593Y175555D01*
X461487Y175675D01*
X461475Y175684D01*
X461466Y175695D01*
X461334Y175786D01*
X461204Y175879D01*
X461191Y175885D01*
X461179Y175893D01*
X461030Y175952D01*
X460882Y176013D01*
X460868Y176015D01*
X460855Y176021D01*
X460697Y176044D01*
X460539Y176070D01*
X460524Y176069D01*
X460510Y176072D01*
X460350Y176058D01*
X460191Y176048D01*
X460177Y176044D01*
X460163Y176043D01*
X460010Y175993D01*
X459857Y175947D01*
X459845Y175940D01*
X459831Y175936D01*
X459693Y175853D01*
X459555Y175773D01*
X459545Y175763D01*
X459532Y175756D01*
X459417Y175644D01*
X459301Y175535D01*
X459293Y175523D01*
X459282Y175513D01*
X459196Y175379D01*
X459107Y175246D01*
X459100Y175230D01*
X459094Y175220D01*
X459081Y175183D01*
X459013Y175020D01*
X458903Y174682D01*
X458086Y173079D01*
X457029Y171623D01*
X455757Y170351D01*
X454301Y169294D01*
X452698Y168477D01*
X450987Y167921D01*
X450849Y167899D01*
X450849Y178054D01*
X450846Y178080D01*
X450848Y178106D01*
X450826Y178253D01*
X450809Y178400D01*
X450801Y178425D01*
X450797Y178451D01*
X450742Y178588D01*
X450692Y178728D01*
X450678Y178750D01*
X450668Y178775D01*
X450583Y178896D01*
X450503Y179021D01*
X450484Y179039D01*
X450469Y179061D01*
X450359Y179160D01*
X450252Y179263D01*
X450230Y179277D01*
X450210Y179294D01*
X450080Y179366D01*
X449953Y179442D01*
X449928Y179450D01*
X449905Y179463D01*
X449762Y179503D01*
X449621Y179548D01*
X449595Y179550D01*
X449570Y179557D01*
X449326Y179577D01*
X447294Y179577D01*
X447268Y179574D01*
X447242Y179576D01*
X447095Y179554D01*
X446948Y179537D01*
X446923Y179528D01*
X446897Y179524D01*
X446759Y179470D01*
X446620Y179420D01*
X446598Y179405D01*
X446573Y179396D01*
X446452Y179311D01*
X446327Y179231D01*
X446309Y179212D01*
X446287Y179197D01*
X446188Y179087D01*
X446085Y178980D01*
X446071Y178957D01*
X446054Y178938D01*
X445982Y178808D01*
X445906Y178681D01*
X445898Y178656D01*
X445885Y178633D01*
X445845Y178490D01*
X445800Y178349D01*
X445797Y178323D01*
X445790Y178298D01*
X445771Y178054D01*
X445771Y167899D01*
X445633Y167921D01*
X443922Y168477D01*
X442588Y169156D01*
X442508Y169186D01*
X442431Y169226D01*
X442345Y169247D01*
X442262Y169278D01*
X442176Y169289D01*
X442093Y169310D01*
X442004Y169311D01*
X441916Y169322D01*
X441831Y169313D01*
X441745Y169315D01*
X441658Y169296D01*
X441569Y169287D01*
X441488Y169259D01*
X441404Y169240D01*
X441324Y169202D01*
X441240Y169173D01*
X441167Y169128D01*
X441089Y169091D01*
X441020Y169035D01*
X440945Y168988D01*
X440884Y168927D01*
X440817Y168873D01*
X440762Y168804D01*
X440699Y168741D01*
X440654Y168667D01*
X440601Y168600D01*
X440543Y168486D01*
X440517Y168444D01*
X440508Y168419D01*
X440490Y168382D01*
X439741Y166574D01*
X434390Y161223D01*
X432710Y160527D01*
X424625Y160527D01*
X424499Y160513D01*
X424373Y160506D01*
X424327Y160493D01*
X424279Y160487D01*
X424160Y160445D01*
X424038Y160410D01*
X423996Y160386D01*
X423951Y160370D01*
X423844Y160301D01*
X423734Y160240D01*
X423688Y160200D01*
X423658Y160181D01*
X423624Y160146D01*
X423548Y160081D01*
X413395Y149928D01*
X413316Y149829D01*
X413232Y149735D01*
X413208Y149693D01*
X413178Y149655D01*
X413124Y149541D01*
X413063Y149430D01*
X413050Y149384D01*
X413029Y149340D01*
X413003Y149217D01*
X412968Y149095D01*
X412963Y149034D01*
X412956Y148999D01*
X412957Y148951D01*
X412949Y148851D01*
X412949Y71637D01*
X411163Y69851D01*
X328637Y69851D01*
X326851Y71637D01*
X326851Y154163D01*
X328637Y155949D01*
X405851Y155949D01*
X405977Y155963D01*
X406103Y155970D01*
X406149Y155983D01*
X406197Y155989D01*
X406316Y156031D01*
X406438Y156066D01*
X406480Y156090D01*
X406525Y156106D01*
X406632Y156175D01*
X406742Y156236D01*
X406788Y156276D01*
X406818Y156295D01*
X406852Y156330D01*
X406928Y156395D01*
X416504Y165971D01*
X416598Y166089D01*
X416695Y166204D01*
X416706Y166225D01*
X416721Y166244D01*
X416785Y166380D01*
X416854Y166514D01*
X416860Y166538D01*
X416870Y166559D01*
X416902Y166706D01*
X416938Y166852D01*
X416938Y166877D01*
X416943Y166900D01*
X416941Y167051D01*
X416943Y167201D01*
X416938Y167224D01*
X416937Y167249D01*
X416901Y167394D01*
X416869Y167541D01*
X416858Y167563D01*
X416852Y167587D01*
X416783Y167720D01*
X416719Y167856D01*
X416704Y167875D01*
X416693Y167896D01*
X416595Y168011D01*
X416502Y168128D01*
X416483Y168143D01*
X416467Y168162D01*
X416346Y168251D01*
X416228Y168344D01*
X416202Y168358D01*
X416187Y168369D01*
X416143Y168388D01*
X416010Y168456D01*
X415859Y168518D01*
X412358Y172019D01*
X411617Y173808D01*
X411584Y173868D01*
X411580Y173879D01*
X411571Y173892D01*
X411569Y173896D01*
X411528Y173988D01*
X411484Y174048D01*
X411448Y174113D01*
X411381Y174187D01*
X411321Y174268D01*
X411264Y174316D01*
X411214Y174371D01*
X411131Y174428D01*
X411055Y174493D01*
X410988Y174527D01*
X410927Y174569D01*
X410834Y174606D01*
X410744Y174652D01*
X410672Y174670D01*
X410603Y174697D01*
X410504Y174712D01*
X410406Y174736D01*
X410332Y174737D01*
X410258Y174748D01*
X410158Y174739D01*
X410058Y174741D01*
X409985Y174725D01*
X409911Y174719D01*
X409815Y174688D01*
X409717Y174667D01*
X409650Y174635D01*
X409579Y174612D01*
X409493Y174560D01*
X409402Y174517D01*
X409344Y174470D01*
X409281Y174432D01*
X409209Y174362D01*
X409130Y174299D01*
X409084Y174241D01*
X409031Y174189D01*
X408976Y174105D01*
X408914Y174026D01*
X408868Y173936D01*
X408842Y173896D01*
X408830Y173862D01*
X408803Y173808D01*
X408062Y172019D01*
X404561Y168518D01*
X399986Y166623D01*
X395034Y166623D01*
X390459Y168518D01*
X386958Y172019D01*
X386217Y173808D01*
X386184Y173868D01*
X386180Y173879D01*
X386171Y173892D01*
X386169Y173896D01*
X386128Y173988D01*
X386084Y174048D01*
X386048Y174113D01*
X385981Y174187D01*
X385921Y174268D01*
X385864Y174316D01*
X385814Y174371D01*
X385731Y174428D01*
X385655Y174493D01*
X385588Y174527D01*
X385527Y174569D01*
X385434Y174606D01*
X385344Y174652D01*
X385272Y174670D01*
X385203Y174697D01*
X385104Y174712D01*
X385006Y174736D01*
X384932Y174737D01*
X384858Y174748D01*
X384758Y174739D01*
X384658Y174741D01*
X384585Y174725D01*
X384511Y174719D01*
X384415Y174688D01*
X384317Y174667D01*
X384250Y174635D01*
X384179Y174612D01*
X384093Y174560D01*
X384002Y174517D01*
X383944Y174470D01*
X383881Y174432D01*
X383809Y174362D01*
X383730Y174299D01*
X383684Y174241D01*
X383631Y174189D01*
X383576Y174105D01*
X383514Y174026D01*
X383468Y173936D01*
X383442Y173896D01*
X383430Y173862D01*
X383403Y173808D01*
X382662Y172019D01*
X379161Y168518D01*
X374586Y166623D01*
X369634Y166623D01*
X365059Y168518D01*
X361558Y172019D01*
X360817Y173808D01*
X360784Y173868D01*
X360780Y173879D01*
X360771Y173892D01*
X360769Y173896D01*
X360728Y173988D01*
X360684Y174048D01*
X360648Y174113D01*
X360581Y174187D01*
X360521Y174268D01*
X360464Y174316D01*
X360414Y174371D01*
X360331Y174428D01*
X360255Y174493D01*
X360188Y174527D01*
X360127Y174569D01*
X360034Y174606D01*
X359944Y174652D01*
X359872Y174670D01*
X359803Y174697D01*
X359704Y174712D01*
X359606Y174736D01*
X359532Y174737D01*
X359458Y174748D01*
X359358Y174739D01*
X359258Y174741D01*
X359185Y174725D01*
X359111Y174719D01*
X359015Y174688D01*
X358917Y174667D01*
X358850Y174635D01*
X358779Y174612D01*
X358693Y174560D01*
X358602Y174517D01*
X358544Y174470D01*
X358481Y174432D01*
X358409Y174362D01*
X358330Y174299D01*
X358284Y174241D01*
X358231Y174189D01*
X358176Y174105D01*
X358114Y174026D01*
X358068Y173936D01*
X358042Y173896D01*
X358030Y173862D01*
X358003Y173808D01*
X357262Y172019D01*
X353761Y168518D01*
X349186Y166623D01*
X344234Y166623D01*
X339659Y168518D01*
X336158Y172019D01*
X335417Y173808D01*
X335384Y173868D01*
X335380Y173879D01*
X335371Y173892D01*
X335369Y173896D01*
X335328Y173988D01*
X335284Y174048D01*
X335248Y174113D01*
X335181Y174187D01*
X335121Y174268D01*
X335064Y174316D01*
X335014Y174371D01*
X334931Y174428D01*
X334855Y174493D01*
X334788Y174527D01*
X334727Y174569D01*
X334634Y174606D01*
X334544Y174652D01*
X334472Y174670D01*
X334403Y174697D01*
X334304Y174712D01*
X334206Y174736D01*
X334132Y174737D01*
X334058Y174748D01*
X333958Y174739D01*
X333858Y174741D01*
X333785Y174725D01*
X333711Y174719D01*
X333615Y174688D01*
X333517Y174667D01*
X333450Y174635D01*
X333379Y174612D01*
X333293Y174560D01*
X333202Y174517D01*
X333144Y174470D01*
X333081Y174432D01*
X333009Y174362D01*
X332930Y174299D01*
X332884Y174241D01*
X332831Y174189D01*
X332776Y174105D01*
X332714Y174026D01*
X332668Y173936D01*
X332642Y173896D01*
X332630Y173862D01*
X332603Y173808D01*
X331862Y172019D01*
X328361Y168518D01*
X323786Y166623D01*
X318834Y166623D01*
X314259Y168518D01*
X310758Y172019D01*
X310017Y173808D01*
X309984Y173868D01*
X309980Y173879D01*
X309971Y173892D01*
X309969Y173896D01*
X309928Y173988D01*
X309884Y174048D01*
X309848Y174113D01*
X309781Y174187D01*
X309721Y174268D01*
X309664Y174316D01*
X309614Y174371D01*
X309531Y174428D01*
X309455Y174493D01*
X309388Y174527D01*
X309327Y174569D01*
X309234Y174606D01*
X309144Y174652D01*
X309072Y174670D01*
X309003Y174697D01*
X308904Y174712D01*
X308806Y174736D01*
X308732Y174737D01*
X308658Y174748D01*
X308558Y174739D01*
X308458Y174741D01*
X308385Y174725D01*
X308311Y174719D01*
X308215Y174688D01*
X308117Y174667D01*
X308050Y174635D01*
X307979Y174612D01*
X307893Y174560D01*
X307802Y174517D01*
X307744Y174470D01*
X307681Y174432D01*
X307609Y174362D01*
X307530Y174299D01*
X307484Y174241D01*
X307431Y174189D01*
X307376Y174105D01*
X307314Y174026D01*
X307268Y173936D01*
X307242Y173896D01*
X307230Y173862D01*
X307203Y173808D01*
X306462Y172019D01*
X302961Y168518D01*
X298386Y166623D01*
X293434Y166623D01*
X288859Y168518D01*
X285358Y172019D01*
X284617Y173808D01*
X284584Y173868D01*
X284580Y173879D01*
X284571Y173892D01*
X284569Y173896D01*
X284528Y173988D01*
X284484Y174048D01*
X284448Y174113D01*
X284381Y174187D01*
X284321Y174268D01*
X284264Y174316D01*
X284214Y174371D01*
X284131Y174428D01*
X284055Y174493D01*
X283988Y174527D01*
X283927Y174569D01*
X283834Y174606D01*
X283744Y174652D01*
X283672Y174670D01*
X283603Y174697D01*
X283504Y174712D01*
X283406Y174736D01*
X283332Y174737D01*
X283258Y174748D01*
X283158Y174739D01*
X283058Y174741D01*
X282985Y174725D01*
X282911Y174719D01*
X282815Y174688D01*
X282717Y174667D01*
X282650Y174635D01*
X282579Y174612D01*
X282493Y174560D01*
X282402Y174517D01*
X282344Y174470D01*
X282281Y174432D01*
X282209Y174362D01*
X282130Y174299D01*
X282084Y174241D01*
X282031Y174189D01*
X281976Y174105D01*
X281914Y174026D01*
X281868Y173936D01*
X281842Y173896D01*
X281830Y173862D01*
X281803Y173808D01*
X281062Y172019D01*
X277561Y168518D01*
X275411Y167628D01*
X275301Y167567D01*
X275187Y167512D01*
X275149Y167482D01*
X275107Y167459D01*
X275013Y167374D01*
X274914Y167295D01*
X274884Y167257D01*
X274849Y167225D01*
X274777Y167120D01*
X274698Y167021D01*
X274671Y166967D01*
X274650Y166938D01*
X274633Y166893D01*
X274587Y166804D01*
X274387Y166320D01*
X262027Y153960D01*
X261948Y153861D01*
X261864Y153767D01*
X261840Y153725D01*
X261810Y153687D01*
X261756Y153573D01*
X261695Y153462D01*
X261682Y153416D01*
X261661Y153372D01*
X261635Y153249D01*
X261600Y153127D01*
X261595Y153066D01*
X261588Y153031D01*
X261589Y152983D01*
X261581Y152883D01*
X261581Y150892D01*
X260427Y148106D01*
X258294Y145973D01*
X255508Y144819D01*
X252492Y144819D01*
X249706Y145973D01*
X247573Y148106D01*
X246419Y150892D01*
X246419Y153908D01*
X247573Y156694D01*
X248806Y157927D01*
X248869Y158006D01*
X248938Y158078D01*
X248977Y158142D01*
X249023Y158200D01*
X249066Y158291D01*
X249117Y158377D01*
X249140Y158448D01*
X249172Y158515D01*
X249193Y158613D01*
X249223Y158709D01*
X249229Y158783D01*
X249245Y158856D01*
X249243Y158956D01*
X249251Y159056D01*
X249240Y159130D01*
X249239Y159204D01*
X249215Y159301D01*
X249200Y159401D01*
X249172Y159470D01*
X249154Y159542D01*
X249108Y159631D01*
X249071Y159725D01*
X249029Y159786D01*
X248994Y159852D01*
X248929Y159928D01*
X248872Y160011D01*
X248817Y160061D01*
X248769Y160117D01*
X248688Y160177D01*
X248613Y160244D01*
X248548Y160280D01*
X248488Y160325D01*
X248396Y160364D01*
X248308Y160413D01*
X248237Y160433D01*
X248168Y160463D01*
X248070Y160480D01*
X247973Y160508D01*
X247873Y160516D01*
X247825Y160524D01*
X247790Y160522D01*
X247729Y160527D01*
X209979Y160527D01*
X209853Y160513D01*
X209727Y160506D01*
X209681Y160493D01*
X209633Y160487D01*
X209514Y160445D01*
X209392Y160410D01*
X209350Y160386D01*
X209305Y160370D01*
X209198Y160301D01*
X209088Y160240D01*
X209042Y160200D01*
X209012Y160181D01*
X208978Y160146D01*
X208902Y160081D01*
X207494Y158673D01*
X204708Y157519D01*
X201692Y157519D01*
X198906Y158673D01*
X196773Y160806D01*
X195619Y163592D01*
X195619Y166608D01*
X196773Y169394D01*
X198906Y171527D01*
X201692Y172681D01*
X204708Y172681D01*
X207494Y171527D01*
X208902Y170119D01*
X209001Y170040D01*
X209095Y169956D01*
X209137Y169932D01*
X209175Y169902D01*
X209289Y169848D01*
X209400Y169787D01*
X209446Y169774D01*
X209490Y169753D01*
X209613Y169727D01*
X209735Y169692D01*
X209796Y169687D01*
X209831Y169680D01*
X209879Y169681D01*
X209979Y169673D01*
X233251Y169673D01*
X233399Y169690D01*
X233550Y169702D01*
X233573Y169710D01*
X233597Y169713D01*
X233738Y169763D01*
X233881Y169809D01*
X233902Y169822D01*
X233925Y169830D01*
X234051Y169912D01*
X234180Y169989D01*
X234197Y170006D01*
X234218Y170019D01*
X234322Y170127D01*
X234430Y170232D01*
X234443Y170252D01*
X234460Y170270D01*
X234537Y170399D01*
X234618Y170525D01*
X234626Y170548D01*
X234639Y170569D01*
X234684Y170712D01*
X234735Y170854D01*
X234738Y170878D01*
X234745Y170901D01*
X234757Y171050D01*
X234774Y171200D01*
X234771Y171224D01*
X234773Y171248D01*
X234751Y171397D01*
X234733Y171546D01*
X234724Y171574D01*
X234721Y171593D01*
X234704Y171637D01*
X234658Y171779D01*
X232663Y176594D01*
X232663Y177038D01*
X232660Y177064D01*
X232662Y177090D01*
X232640Y177237D01*
X232623Y177384D01*
X232615Y177409D01*
X232611Y177435D01*
X232556Y177573D01*
X232506Y177712D01*
X232492Y177734D01*
X232482Y177759D01*
X232397Y177880D01*
X232317Y178005D01*
X232298Y178023D01*
X232283Y178045D01*
X232173Y178144D01*
X232066Y178247D01*
X232044Y178261D01*
X232024Y178278D01*
X231894Y178350D01*
X231767Y178426D01*
X231742Y178434D01*
X231719Y178447D01*
X231576Y178487D01*
X231435Y178532D01*
X231409Y178534D01*
X231384Y178542D01*
X231140Y178561D01*
X177408Y178561D01*
X177308Y178550D01*
X177208Y178548D01*
X177135Y178530D01*
X177061Y178521D01*
X176967Y178488D01*
X176870Y178463D01*
X176803Y178429D01*
X176733Y178404D01*
X176649Y178349D01*
X176560Y178303D01*
X176503Y178255D01*
X176441Y178215D01*
X176371Y178143D01*
X176294Y178078D01*
X176250Y178018D01*
X176198Y177964D01*
X176147Y177878D01*
X176087Y177797D01*
X176058Y177729D01*
X176020Y177665D01*
X175989Y177569D01*
X175949Y177477D01*
X175936Y177404D01*
X175913Y177333D01*
X175905Y177233D01*
X175887Y177134D01*
X175891Y177060D01*
X175885Y176986D01*
X175900Y176886D01*
X175905Y176786D01*
X175926Y176715D01*
X175937Y176641D01*
X175974Y176548D01*
X176002Y176451D01*
X176038Y176386D01*
X176066Y176317D01*
X176123Y176235D01*
X176172Y176147D01*
X176237Y176071D01*
X176265Y176031D01*
X176291Y176007D01*
X176331Y175961D01*
X236514Y115778D01*
X237287Y113911D01*
X237287Y111889D01*
X236514Y110022D01*
X235084Y108593D01*
X233217Y107819D01*
X231196Y107819D01*
X229328Y108593D01*
X160031Y177890D01*
X159257Y179758D01*
X159257Y356182D01*
X160031Y358050D01*
X176112Y374131D01*
X177980Y374905D01*
X191889Y374905D01*
X192014Y374919D01*
X192140Y374926D01*
X192187Y374939D01*
X192235Y374945D01*
X192354Y374987D01*
X192475Y375022D01*
X192517Y375046D01*
X192563Y375062D01*
X192669Y375131D01*
X192779Y375192D01*
X192826Y375232D01*
X192856Y375251D01*
X192889Y375286D01*
X192966Y375351D01*
X196666Y379051D01*
X196728Y379129D01*
X196798Y379202D01*
X196836Y379266D01*
X196882Y379324D01*
X196925Y379415D01*
X196977Y379501D01*
X196999Y379572D01*
X197031Y379639D01*
X197052Y379737D01*
X197083Y379833D01*
X197089Y379907D01*
X197105Y379980D01*
X197103Y380080D01*
X197111Y380180D01*
X197100Y380254D01*
X197099Y380328D01*
X197074Y380425D01*
X197059Y380525D01*
X197032Y380594D01*
X197014Y380666D01*
X196968Y380756D01*
X196931Y380849D01*
X196888Y380910D01*
X196854Y380976D01*
X196789Y381052D01*
X196732Y381135D01*
X196676Y381185D01*
X196628Y381241D01*
X196547Y381301D01*
X196473Y381368D01*
X196408Y381404D01*
X196348Y381449D01*
X196256Y381488D01*
X196168Y381537D01*
X196096Y381557D01*
X196028Y381587D01*
X195929Y381604D01*
X195832Y381632D01*
X195732Y381640D01*
X195685Y381648D01*
X195649Y381646D01*
X195589Y381651D01*
X195237Y381651D01*
X193451Y383437D01*
X193451Y403963D01*
X195237Y405749D01*
X213763Y405749D01*
X215077Y404435D01*
X215156Y404372D01*
X215228Y404302D01*
X215292Y404264D01*
X215350Y404218D01*
X215441Y404175D01*
X215527Y404124D01*
X215598Y404101D01*
X215665Y404069D01*
X215763Y404048D01*
X215859Y404017D01*
X215933Y404011D01*
X216006Y403996D01*
X216106Y403997D01*
X216206Y403989D01*
X216280Y404000D01*
X216354Y404002D01*
X216451Y404026D01*
X216551Y404041D01*
X216620Y404069D01*
X216692Y404087D01*
X216781Y404133D01*
X216875Y404170D01*
X216936Y404212D01*
X217002Y404246D01*
X217078Y404311D01*
X217161Y404369D01*
X217211Y404424D01*
X217267Y404472D01*
X217327Y404553D01*
X217394Y404628D01*
X217430Y404693D01*
X217475Y404752D01*
X217514Y404845D01*
X217563Y404933D01*
X217583Y405004D01*
X217613Y405072D01*
X217630Y405171D01*
X217658Y405268D01*
X217666Y405368D01*
X217674Y405415D01*
X217672Y405451D01*
X217677Y405512D01*
X217677Y408925D01*
X217663Y409051D01*
X217656Y409177D01*
X217643Y409223D01*
X217637Y409271D01*
X217595Y409390D01*
X217560Y409512D01*
X217536Y409554D01*
X217520Y409599D01*
X217451Y409706D01*
X217390Y409816D01*
X217350Y409862D01*
X217331Y409892D01*
X217296Y409926D01*
X217231Y410002D01*
X213524Y413709D01*
X212023Y415210D01*
X211327Y416890D01*
X211327Y421372D01*
X211313Y421498D01*
X211306Y421624D01*
X211293Y421671D01*
X211287Y421719D01*
X211245Y421837D01*
X211210Y421959D01*
X211186Y422001D01*
X211170Y422047D01*
X211101Y422153D01*
X211040Y422263D01*
X211000Y422309D01*
X210981Y422339D01*
X210946Y422373D01*
X210881Y422449D01*
X205739Y427591D01*
X205739Y436009D01*
X207819Y438089D01*
X207882Y438167D01*
X207952Y438240D01*
X207990Y438304D01*
X208036Y438362D01*
X208079Y438453D01*
X208131Y438539D01*
X208153Y438610D01*
X208185Y438677D01*
X208206Y438775D01*
X208237Y438871D01*
X208243Y438945D01*
X208258Y439018D01*
X208257Y439118D01*
X208265Y439218D01*
X208254Y439292D01*
X208252Y439366D01*
X208228Y439463D01*
X208213Y439563D01*
X208186Y439632D01*
X208167Y439704D01*
X208121Y439793D01*
X208084Y439887D01*
X208042Y439948D01*
X208008Y440014D01*
X207943Y440090D01*
X207885Y440173D01*
X207830Y440223D01*
X207782Y440279D01*
X207701Y440339D01*
X207627Y440406D01*
X207562Y440442D01*
X207502Y440487D01*
X207409Y440526D01*
X207322Y440575D01*
X207250Y440595D01*
X207182Y440625D01*
X207083Y440642D01*
X206986Y440670D01*
X206886Y440678D01*
X206839Y440686D01*
X206803Y440684D01*
X206742Y440689D01*
X198991Y440689D01*
X193849Y445831D01*
X193750Y445910D01*
X193657Y445994D01*
X193614Y446018D01*
X193576Y446048D01*
X193462Y446102D01*
X193352Y446163D01*
X193305Y446176D01*
X193261Y446197D01*
X193138Y446223D01*
X193016Y446258D01*
X192955Y446263D01*
X192921Y446270D01*
X192873Y446269D01*
X192772Y446277D01*
X186675Y446277D01*
X186549Y446263D01*
X186423Y446256D01*
X186377Y446243D01*
X186329Y446237D01*
X186210Y446195D01*
X186088Y446160D01*
X186046Y446136D01*
X186001Y446120D01*
X185894Y446051D01*
X185784Y445990D01*
X185738Y445950D01*
X185708Y445931D01*
X185674Y445896D01*
X185598Y445831D01*
X180915Y441148D01*
X180867Y441088D01*
X180812Y441035D01*
X180759Y440952D01*
X180698Y440875D01*
X180666Y440806D01*
X180624Y440742D01*
X180591Y440649D01*
X180549Y440560D01*
X180533Y440485D01*
X180508Y440413D01*
X180497Y440315D01*
X180476Y440219D01*
X180477Y440143D01*
X180469Y440067D01*
X180480Y439969D01*
X180482Y439871D01*
X180501Y439797D01*
X180509Y439721D01*
X180555Y439579D01*
X180567Y439533D01*
X180576Y439516D01*
X180585Y439488D01*
X181080Y438291D01*
X181153Y438160D01*
X181222Y438026D01*
X181238Y438008D01*
X181250Y437987D01*
X181351Y437875D01*
X181448Y437761D01*
X181468Y437747D01*
X181484Y437729D01*
X181607Y437643D01*
X181728Y437554D01*
X181751Y437544D01*
X181770Y437530D01*
X181910Y437475D01*
X182048Y437416D01*
X182072Y437412D01*
X182095Y437403D01*
X182243Y437381D01*
X182391Y437354D01*
X182415Y437355D01*
X182439Y437352D01*
X182590Y437364D01*
X182739Y437372D01*
X182762Y437379D01*
X182787Y437381D01*
X182930Y437427D01*
X183074Y437469D01*
X183095Y437480D01*
X183118Y437488D01*
X183247Y437565D01*
X183378Y437639D01*
X183401Y437658D01*
X183417Y437668D01*
X183451Y437700D01*
X183565Y437797D01*
X186712Y440945D01*
X188469Y440945D01*
X188469Y432308D01*
X188472Y432282D01*
X188470Y432256D01*
X188492Y432109D01*
X188509Y431962D01*
X188517Y431937D01*
X188521Y431911D01*
X188564Y431804D01*
X188543Y431728D01*
X188498Y431587D01*
X188495Y431561D01*
X188488Y431536D01*
X188469Y431292D01*
X188469Y422655D01*
X186712Y422655D01*
X183673Y425694D01*
X183595Y425757D01*
X183522Y425827D01*
X183458Y425865D01*
X183400Y425911D01*
X183309Y425954D01*
X183223Y426005D01*
X183152Y426028D01*
X183085Y426060D01*
X182987Y426081D01*
X182891Y426112D01*
X182817Y426118D01*
X182744Y426133D01*
X182644Y426132D01*
X182544Y426140D01*
X182470Y426129D01*
X182396Y426127D01*
X182299Y426103D01*
X182199Y426088D01*
X182130Y426060D01*
X182058Y426042D01*
X181969Y425996D01*
X181875Y425959D01*
X181814Y425917D01*
X181748Y425883D01*
X181672Y425818D01*
X181589Y425760D01*
X181539Y425705D01*
X181483Y425657D01*
X181423Y425576D01*
X181356Y425501D01*
X181320Y425436D01*
X181275Y425377D01*
X181236Y425284D01*
X181187Y425196D01*
X181167Y425125D01*
X181137Y425057D01*
X181120Y424958D01*
X181092Y424861D01*
X181084Y424761D01*
X181076Y424713D01*
X181078Y424678D01*
X181073Y424617D01*
X181073Y407272D01*
X181076Y407246D01*
X181074Y407220D01*
X181096Y407073D01*
X181113Y406926D01*
X181121Y406901D01*
X181125Y406875D01*
X181180Y406737D01*
X181230Y406598D01*
X181244Y406576D01*
X181254Y406551D01*
X181339Y406430D01*
X181419Y406305D01*
X181438Y406287D01*
X181453Y406265D01*
X181563Y406166D01*
X181670Y406063D01*
X181692Y406049D01*
X181712Y406032D01*
X181842Y405960D01*
X181969Y405884D01*
X181994Y405876D01*
X182017Y405863D01*
X182160Y405823D01*
X182301Y405778D01*
X182327Y405776D01*
X182352Y405768D01*
X182596Y405749D01*
X185763Y405749D01*
X187549Y403963D01*
X187549Y383437D01*
X185763Y381651D01*
X167237Y381651D01*
X165451Y383437D01*
X165451Y403963D01*
X167237Y405749D01*
X170404Y405749D01*
X170430Y405752D01*
X170456Y405750D01*
X170603Y405772D01*
X170750Y405789D01*
X170775Y405797D01*
X170801Y405801D01*
X170939Y405856D01*
X171078Y405906D01*
X171100Y405920D01*
X171125Y405930D01*
X171246Y406015D01*
X171371Y406095D01*
X171389Y406114D01*
X171411Y406129D01*
X171510Y406239D01*
X171613Y406346D01*
X171627Y406368D01*
X171644Y406388D01*
X171716Y406518D01*
X171792Y406645D01*
X171800Y406670D01*
X171813Y406693D01*
X171853Y406836D01*
X171898Y406977D01*
X171900Y407003D01*
X171908Y407028D01*
X171927Y407272D01*
X171927Y434204D01*
X171924Y434230D01*
X171926Y434256D01*
X171904Y434403D01*
X171887Y434550D01*
X171879Y434575D01*
X171875Y434601D01*
X171820Y434739D01*
X171770Y434878D01*
X171756Y434900D01*
X171746Y434925D01*
X171661Y435046D01*
X171581Y435171D01*
X171562Y435189D01*
X171547Y435211D01*
X171437Y435310D01*
X171330Y435413D01*
X171308Y435427D01*
X171288Y435444D01*
X171158Y435516D01*
X171031Y435592D01*
X171006Y435600D01*
X170983Y435613D01*
X170840Y435653D01*
X170699Y435698D01*
X170673Y435700D01*
X170648Y435708D01*
X170404Y435727D01*
X161972Y435727D01*
X161946Y435724D01*
X161920Y435726D01*
X161773Y435704D01*
X161626Y435687D01*
X161601Y435679D01*
X161575Y435675D01*
X161437Y435620D01*
X161298Y435570D01*
X161276Y435556D01*
X161251Y435546D01*
X161130Y435461D01*
X161005Y435381D01*
X160987Y435362D01*
X160965Y435347D01*
X160866Y435237D01*
X160763Y435130D01*
X160749Y435108D01*
X160732Y435088D01*
X160660Y434958D01*
X160584Y434831D01*
X160576Y434806D01*
X160563Y434783D01*
X160523Y434640D01*
X160478Y434499D01*
X160476Y434473D01*
X160468Y434448D01*
X160449Y434204D01*
X160449Y433537D01*
X159070Y432159D01*
X159054Y432138D01*
X159034Y432121D01*
X158946Y432002D01*
X158854Y431886D01*
X158842Y431862D01*
X158827Y431841D01*
X158768Y431705D01*
X158705Y431571D01*
X158699Y431545D01*
X158689Y431521D01*
X158663Y431375D01*
X158631Y431230D01*
X158632Y431204D01*
X158627Y431178D01*
X158635Y431029D01*
X158637Y430881D01*
X158644Y430856D01*
X158645Y430830D01*
X158686Y430687D01*
X158722Y430543D01*
X158734Y430520D01*
X158742Y430495D01*
X158814Y430365D01*
X158882Y430234D01*
X158899Y430214D01*
X158912Y430191D01*
X159013Y430072D01*
X159294Y429585D01*
X159433Y429068D01*
X159433Y425799D01*
X153376Y425799D01*
X153350Y425796D01*
X153324Y425798D01*
X153177Y425776D01*
X153030Y425759D01*
X153005Y425751D01*
X152979Y425747D01*
X152842Y425692D01*
X152702Y425642D01*
X152680Y425628D01*
X152655Y425618D01*
X152534Y425533D01*
X152409Y425453D01*
X152397Y425440D01*
X152350Y425485D01*
X152327Y425499D01*
X152308Y425516D01*
X152178Y425588D01*
X152051Y425664D01*
X152026Y425672D01*
X152003Y425685D01*
X151860Y425725D01*
X151719Y425770D01*
X151693Y425772D01*
X151668Y425780D01*
X151424Y425799D01*
X145367Y425799D01*
X145367Y429068D01*
X145506Y429585D01*
X145784Y430066D01*
X145854Y430162D01*
X145946Y430277D01*
X145958Y430301D01*
X145973Y430322D01*
X146032Y430459D01*
X146095Y430593D01*
X146101Y430618D01*
X146111Y430642D01*
X146138Y430789D01*
X146169Y430933D01*
X146168Y430959D01*
X146173Y430985D01*
X146165Y431134D01*
X146163Y431282D01*
X146156Y431307D01*
X146155Y431333D01*
X146114Y431476D01*
X146078Y431620D01*
X146066Y431643D01*
X146058Y431668D01*
X145986Y431798D01*
X145918Y431930D01*
X145901Y431950D01*
X145888Y431972D01*
X145730Y432159D01*
X144351Y433537D01*
X144351Y447063D01*
X146137Y448849D01*
X158663Y448849D01*
X160449Y447063D01*
X160449Y446396D01*
X160452Y446370D01*
X160450Y446344D01*
X160472Y446197D01*
X160489Y446050D01*
X160497Y446025D01*
X160501Y445999D01*
X160556Y445861D01*
X160606Y445722D01*
X160620Y445700D01*
X160630Y445675D01*
X160715Y445554D01*
X160795Y445429D01*
X160814Y445411D01*
X160829Y445389D01*
X160939Y445290D01*
X161046Y445187D01*
X161068Y445173D01*
X161088Y445156D01*
X161218Y445084D01*
X161345Y445008D01*
X161370Y445000D01*
X161393Y444987D01*
X161536Y444947D01*
X161677Y444902D01*
X161703Y444900D01*
X161728Y444892D01*
X161972Y444873D01*
X171075Y444873D01*
X171201Y444887D01*
X171327Y444894D01*
X171373Y444907D01*
X171421Y444913D01*
X171540Y444955D01*
X171662Y444990D01*
X171704Y445014D01*
X171749Y445030D01*
X171856Y445099D01*
X171966Y445160D01*
X172012Y445200D01*
X172042Y445219D01*
X172076Y445254D01*
X172152Y445319D01*
X181560Y454727D01*
X183240Y455423D01*
X192772Y455423D01*
X192898Y455437D01*
X193024Y455444D01*
X193071Y455457D01*
X193119Y455463D01*
X193237Y455505D01*
X193359Y455540D01*
X193401Y455564D01*
X193447Y455580D01*
X193553Y455649D01*
X193663Y455710D01*
X193709Y455750D01*
X193739Y455769D01*
X193773Y455804D01*
X193849Y455869D01*
X198991Y461011D01*
X207409Y461011D01*
X213361Y455059D01*
X213361Y446641D01*
X211281Y444561D01*
X211218Y444483D01*
X211148Y444410D01*
X211110Y444346D01*
X211064Y444288D01*
X211021Y444197D01*
X210969Y444111D01*
X210947Y444040D01*
X210915Y443973D01*
X210894Y443875D01*
X210863Y443779D01*
X210857Y443705D01*
X210842Y443632D01*
X210843Y443532D01*
X210835Y443432D01*
X210846Y443358D01*
X210848Y443284D01*
X210872Y443187D01*
X210887Y443087D01*
X210914Y443018D01*
X210933Y442946D01*
X210979Y442857D01*
X211016Y442763D01*
X211058Y442702D01*
X211092Y442636D01*
X211157Y442560D01*
X211215Y442477D01*
X211270Y442427D01*
X211318Y442371D01*
X211399Y442311D01*
X211473Y442244D01*
X211538Y442208D01*
X211598Y442163D01*
X211691Y442124D01*
X211778Y442075D01*
X211850Y442055D01*
X211918Y442025D01*
X212017Y442008D01*
X212114Y441980D01*
X212214Y441972D01*
X212261Y441964D01*
X212297Y441966D01*
X212358Y441961D01*
X220109Y441961D01*
X226061Y436009D01*
X226061Y427591D01*
X220919Y422449D01*
X220840Y422350D01*
X220756Y422257D01*
X220732Y422214D01*
X220702Y422176D01*
X220648Y422062D01*
X220587Y421952D01*
X220574Y421905D01*
X220553Y421861D01*
X220527Y421738D01*
X220492Y421616D01*
X220487Y421555D01*
X220480Y421521D01*
X220481Y421473D01*
X220473Y421372D01*
X220473Y420325D01*
X220487Y420199D01*
X220494Y420073D01*
X220507Y420027D01*
X220513Y419979D01*
X220555Y419860D01*
X220590Y419738D01*
X220614Y419696D01*
X220630Y419651D01*
X220699Y419544D01*
X220760Y419434D01*
X220800Y419388D01*
X220819Y419358D01*
X220854Y419324D01*
X220919Y419248D01*
X223698Y416469D01*
X223718Y416453D01*
X223735Y416433D01*
X223855Y416344D01*
X223971Y416252D01*
X223995Y416241D01*
X224016Y416225D01*
X224152Y416167D01*
X224286Y416103D01*
X224312Y416098D01*
X224336Y416087D01*
X224482Y416061D01*
X224627Y416030D01*
X224653Y416030D01*
X224679Y416026D01*
X224827Y416033D01*
X224975Y416036D01*
X225001Y416042D01*
X225027Y416044D01*
X225169Y416085D01*
X225313Y416121D01*
X225336Y416133D01*
X225362Y416140D01*
X225491Y416212D01*
X225623Y416281D01*
X225643Y416298D01*
X225666Y416310D01*
X225852Y416469D01*
X228805Y419422D01*
X228884Y419521D01*
X228968Y419615D01*
X228992Y419657D01*
X229022Y419695D01*
X229076Y419809D01*
X229137Y419920D01*
X229150Y419966D01*
X229171Y420010D01*
X229197Y420133D01*
X229232Y420255D01*
X229237Y420316D01*
X229244Y420351D01*
X229243Y420399D01*
X229251Y420499D01*
X229251Y429663D01*
X231037Y431449D01*
X251563Y431449D01*
X253349Y429663D01*
X253349Y411137D01*
X251563Y409351D01*
X232299Y409351D01*
X232173Y409337D01*
X232047Y409330D01*
X232001Y409317D01*
X231953Y409311D01*
X231834Y409269D01*
X231712Y409234D01*
X231670Y409210D01*
X231625Y409194D01*
X231519Y409125D01*
X231408Y409064D01*
X231362Y409024D01*
X231332Y409005D01*
X231298Y408970D01*
X231222Y408905D01*
X227269Y404952D01*
X227190Y404853D01*
X227106Y404759D01*
X227082Y404717D01*
X227052Y404679D01*
X226998Y404565D01*
X226937Y404454D01*
X226924Y404408D01*
X226903Y404364D01*
X226877Y404241D01*
X226842Y404119D01*
X226837Y404058D01*
X226830Y404023D01*
X226831Y403975D01*
X226823Y403875D01*
X226823Y402912D01*
X226834Y402812D01*
X226836Y402712D01*
X226854Y402639D01*
X226863Y402566D01*
X226896Y402471D01*
X226921Y402374D01*
X226955Y402307D01*
X226980Y402237D01*
X227035Y402153D01*
X227081Y402064D01*
X227129Y402007D01*
X227169Y401945D01*
X227241Y401875D01*
X227306Y401798D01*
X227366Y401754D01*
X227420Y401702D01*
X227506Y401651D01*
X227587Y401591D01*
X227655Y401562D01*
X227719Y401524D01*
X227815Y401493D01*
X227907Y401453D01*
X227980Y401440D01*
X228051Y401417D01*
X228151Y401409D01*
X228250Y401392D01*
X228324Y401395D01*
X228398Y401389D01*
X228498Y401404D01*
X228598Y401409D01*
X228669Y401430D01*
X228743Y401441D01*
X228836Y401478D01*
X228933Y401506D01*
X228998Y401542D01*
X229067Y401570D01*
X229149Y401627D01*
X229237Y401676D01*
X229313Y401741D01*
X229353Y401769D01*
X229377Y401795D01*
X229423Y401835D01*
X231037Y403449D01*
X251563Y403449D01*
X253349Y401663D01*
X253349Y401604D01*
X253350Y401595D01*
X253350Y401594D01*
X253351Y401585D01*
X253352Y401578D01*
X253350Y401552D01*
X253372Y401405D01*
X253389Y401258D01*
X253397Y401233D01*
X253401Y401207D01*
X253456Y401069D01*
X253506Y400930D01*
X253520Y400908D01*
X253530Y400883D01*
X253615Y400762D01*
X253695Y400637D01*
X253714Y400619D01*
X253729Y400597D01*
X253839Y400498D01*
X253946Y400395D01*
X253968Y400381D01*
X253988Y400364D01*
X254118Y400292D01*
X254245Y400216D01*
X254270Y400208D01*
X254293Y400195D01*
X254436Y400155D01*
X254577Y400110D01*
X254603Y400108D01*
X254628Y400100D01*
X254872Y400081D01*
X265265Y400081D01*
X265390Y400095D01*
X265516Y400102D01*
X265563Y400115D01*
X265611Y400121D01*
X265730Y400163D01*
X265851Y400198D01*
X265893Y400222D01*
X265939Y400238D01*
X266045Y400307D01*
X266155Y400368D01*
X266202Y400408D01*
X266232Y400427D01*
X266265Y400462D01*
X266342Y400527D01*
X411073Y545258D01*
X411152Y545357D01*
X411236Y545451D01*
X411260Y545494D01*
X411290Y545531D01*
X411344Y545646D01*
X411405Y545756D01*
X411418Y545803D01*
X411439Y545846D01*
X411465Y545970D01*
X411500Y546092D01*
X411505Y546152D01*
X411512Y546187D01*
X411511Y546235D01*
X411519Y546335D01*
X411519Y547608D01*
X412673Y550394D01*
X413906Y551627D01*
X413969Y551706D01*
X414038Y551778D01*
X414077Y551842D01*
X414123Y551900D01*
X414166Y551991D01*
X414217Y552077D01*
X414240Y552148D01*
X414272Y552215D01*
X414293Y552313D01*
X414323Y552409D01*
X414329Y552483D01*
X414345Y552556D01*
X414343Y552656D01*
X414351Y552756D01*
X414340Y552830D01*
X414339Y552904D01*
X414315Y553001D01*
X414300Y553101D01*
X414272Y553170D01*
X414254Y553242D01*
X414208Y553331D01*
X414171Y553425D01*
X414129Y553486D01*
X414094Y553552D01*
X414029Y553628D01*
X413972Y553711D01*
X413917Y553761D01*
X413869Y553817D01*
X413788Y553877D01*
X413713Y553944D01*
X413648Y553980D01*
X413588Y554025D01*
X413496Y554064D01*
X413408Y554113D01*
X413337Y554133D01*
X413268Y554163D01*
X413170Y554180D01*
X413073Y554208D01*
X412973Y554216D01*
X412925Y554224D01*
X412890Y554222D01*
X412829Y554227D01*
X294390Y554227D01*
X292710Y554923D01*
X275523Y572110D01*
X274827Y573790D01*
X274827Y686475D01*
X274813Y686601D01*
X274806Y686727D01*
X274793Y686773D01*
X274787Y686821D01*
X274745Y686940D01*
X274710Y687062D01*
X274686Y687104D01*
X274670Y687149D01*
X274601Y687256D01*
X274540Y687366D01*
X274500Y687412D01*
X274481Y687442D01*
X274446Y687476D01*
X274444Y687479D01*
X274428Y687500D01*
X274414Y687514D01*
X274381Y687552D01*
X255752Y706181D01*
X255653Y706260D01*
X255559Y706344D01*
X255517Y706368D01*
X255479Y706398D01*
X255365Y706452D01*
X255254Y706513D01*
X255208Y706526D01*
X255164Y706547D01*
X255041Y706573D01*
X254919Y706608D01*
X254858Y706613D01*
X254823Y706620D01*
X254775Y706619D01*
X254675Y706627D01*
X243590Y706627D01*
X241910Y707323D01*
X206728Y742505D01*
X206629Y742584D01*
X206535Y742668D01*
X206493Y742692D01*
X206455Y742722D01*
X206341Y742776D01*
X206230Y742837D01*
X206184Y742850D01*
X206140Y742871D01*
X206017Y742897D01*
X205895Y742932D01*
X205834Y742937D01*
X205799Y742944D01*
X205751Y742943D01*
X205651Y742951D01*
X193937Y742951D01*
X192151Y744737D01*
X192151Y760263D01*
X192811Y760923D01*
X192828Y760943D01*
X192848Y760960D01*
X192936Y761080D01*
X193028Y761196D01*
X193039Y761220D01*
X193055Y761241D01*
X193113Y761377D01*
X193177Y761511D01*
X193182Y761537D01*
X193193Y761561D01*
X193219Y761707D01*
X193250Y761852D01*
X193250Y761878D01*
X193254Y761904D01*
X193247Y762052D01*
X193244Y762200D01*
X193238Y762226D01*
X193237Y762252D01*
X193196Y762394D01*
X193159Y762538D01*
X193147Y762562D01*
X193140Y762587D01*
X193068Y762716D01*
X193000Y762848D01*
X192983Y762868D01*
X192970Y762891D01*
X192811Y763077D01*
X192151Y763737D01*
X192151Y779263D01*
X193937Y781049D01*
X197104Y781049D01*
X197130Y781052D01*
X197156Y781050D01*
X197303Y781072D01*
X197450Y781089D01*
X197475Y781097D01*
X197501Y781101D01*
X197639Y781156D01*
X197778Y781206D01*
X197800Y781220D01*
X197825Y781230D01*
X197946Y781315D01*
X198071Y781395D01*
X198089Y781414D01*
X198111Y781429D01*
X198210Y781539D01*
X198313Y781646D01*
X198327Y781668D01*
X198344Y781688D01*
X198416Y781818D01*
X198492Y781945D01*
X198500Y781970D01*
X198513Y781993D01*
X198553Y782136D01*
X198598Y782277D01*
X198600Y782303D01*
X198608Y782328D01*
X198627Y782572D01*
X198627Y835675D01*
X198613Y835801D01*
X198606Y835927D01*
X198593Y835973D01*
X198587Y836021D01*
X198545Y836140D01*
X198510Y836262D01*
X198486Y836304D01*
X198470Y836349D01*
X198401Y836456D01*
X198340Y836566D01*
X198300Y836612D01*
X198281Y836642D01*
X198246Y836676D01*
X198181Y836752D01*
X176352Y858581D01*
X176253Y858660D01*
X176159Y858744D01*
X176117Y858768D01*
X176079Y858798D01*
X175965Y858852D01*
X175854Y858913D01*
X175808Y858926D01*
X175764Y858947D01*
X175641Y858973D01*
X175519Y859008D01*
X175458Y859013D01*
X175423Y859020D01*
X175375Y859019D01*
X175275Y859027D01*
X158072Y859027D01*
X158046Y859024D01*
X158020Y859026D01*
X157873Y859004D01*
X157726Y858987D01*
X157701Y858979D01*
X157675Y858975D01*
X157537Y858920D01*
X157398Y858870D01*
X157376Y858856D01*
X157351Y858846D01*
X157230Y858761D01*
X157105Y858681D01*
X157087Y858662D01*
X157065Y858647D01*
X156966Y858537D01*
X156863Y858430D01*
X156849Y858408D01*
X156832Y858388D01*
X156760Y858258D01*
X156684Y858131D01*
X156676Y858106D01*
X156663Y858083D01*
X156623Y857940D01*
X156578Y857799D01*
X156576Y857773D01*
X156568Y857748D01*
X156549Y857504D01*
X156549Y845337D01*
X154763Y843551D01*
X139237Y843551D01*
X137451Y845337D01*
X137451Y881863D01*
X139237Y883649D01*
X154763Y883649D01*
X156549Y881863D01*
X156549Y869696D01*
X156552Y869670D01*
X156550Y869644D01*
X156572Y869497D01*
X156589Y869350D01*
X156597Y869325D01*
X156601Y869299D01*
X156656Y869161D01*
X156706Y869022D01*
X156720Y869000D01*
X156730Y868975D01*
X156815Y868854D01*
X156895Y868729D01*
X156914Y868711D01*
X156929Y868689D01*
X157039Y868590D01*
X157146Y868487D01*
X157168Y868473D01*
X157188Y868456D01*
X157318Y868384D01*
X157445Y868308D01*
X157470Y868300D01*
X157493Y868287D01*
X157636Y868247D01*
X157777Y868202D01*
X157803Y868200D01*
X157828Y868192D01*
X158072Y868173D01*
X178710Y868173D01*
X180390Y867477D01*
X207077Y840790D01*
X207773Y839110D01*
X207773Y782572D01*
X207776Y782546D01*
X207774Y782520D01*
X207796Y782373D01*
X207813Y782226D01*
X207821Y782201D01*
X207825Y782175D01*
X207880Y782037D01*
X207930Y781898D01*
X207944Y781876D01*
X207954Y781851D01*
X208039Y781730D01*
X208119Y781605D01*
X208138Y781587D01*
X208153Y781565D01*
X208263Y781466D01*
X208370Y781363D01*
X208392Y781349D01*
X208412Y781332D01*
X208542Y781260D01*
X208669Y781184D01*
X208694Y781176D01*
X208717Y781163D01*
X208860Y781123D01*
X209001Y781078D01*
X209027Y781076D01*
X209052Y781068D01*
X209296Y781049D01*
X212463Y781049D01*
X214249Y779263D01*
X214249Y763737D01*
X213589Y763077D01*
X213572Y763057D01*
X213552Y763040D01*
X213464Y762921D01*
X213372Y762804D01*
X213361Y762780D01*
X213345Y762759D01*
X213287Y762623D01*
X213223Y762489D01*
X213218Y762463D01*
X213207Y762439D01*
X213181Y762293D01*
X213150Y762148D01*
X213150Y762122D01*
X213146Y762096D01*
X213153Y761948D01*
X213156Y761800D01*
X213162Y761774D01*
X213163Y761748D01*
X213205Y761606D01*
X213241Y761462D01*
X213253Y761439D01*
X213260Y761413D01*
X213333Y761284D01*
X213400Y761152D01*
X213417Y761132D01*
X213430Y761109D01*
X213589Y760923D01*
X214249Y760263D01*
X214249Y748549D01*
X214263Y748423D01*
X214270Y748297D01*
X214283Y748251D01*
X214289Y748203D01*
X214331Y748084D01*
X214366Y747962D01*
X214390Y747920D01*
X214406Y747875D01*
X214475Y747768D01*
X214536Y747658D01*
X214576Y747612D01*
X214595Y747582D01*
X214630Y747548D01*
X214695Y747472D01*
X245948Y716219D01*
X246047Y716140D01*
X246141Y716056D01*
X246183Y716032D01*
X246221Y716002D01*
X246335Y715948D01*
X246446Y715887D01*
X246492Y715874D01*
X246536Y715853D01*
X246659Y715827D01*
X246781Y715792D01*
X246842Y715787D01*
X246877Y715780D01*
X246925Y715781D01*
X247025Y715773D01*
X258110Y715773D01*
X259790Y715077D01*
X283277Y691590D01*
X283973Y689910D01*
X283973Y577225D01*
X283987Y577099D01*
X283994Y576973D01*
X284007Y576927D01*
X284013Y576879D01*
X284055Y576760D01*
X284090Y576638D01*
X284114Y576596D01*
X284130Y576551D01*
X284199Y576444D01*
X284260Y576334D01*
X284300Y576288D01*
X284319Y576258D01*
X284354Y576224D01*
X284419Y576148D01*
X296748Y563819D01*
X296847Y563740D01*
X296941Y563656D01*
X296983Y563632D01*
X297021Y563602D01*
X297135Y563548D01*
X297246Y563487D01*
X297292Y563474D01*
X297336Y563453D01*
X297459Y563427D01*
X297581Y563392D01*
X297642Y563387D01*
X297677Y563380D01*
X297725Y563381D01*
X297825Y563373D01*
X425021Y563373D01*
X425147Y563387D01*
X425273Y563394D01*
X425319Y563407D01*
X425367Y563413D01*
X425486Y563455D01*
X425608Y563490D01*
X425650Y563514D01*
X425695Y563530D01*
X425802Y563599D01*
X425912Y563660D01*
X425958Y563700D01*
X425988Y563719D01*
X426022Y563754D01*
X426098Y563819D01*
X427506Y565227D01*
X430292Y566381D01*
X433308Y566381D01*
X436094Y565227D01*
X438227Y563094D01*
X439381Y560308D01*
X439381Y557292D01*
X438227Y554506D01*
X436094Y552373D01*
X433308Y551219D01*
X430292Y551219D01*
X427525Y552366D01*
X427428Y552393D01*
X427335Y552430D01*
X427261Y552441D01*
X427189Y552461D01*
X427089Y552466D01*
X426990Y552481D01*
X426916Y552475D01*
X426841Y552478D01*
X426743Y552460D01*
X426642Y552452D01*
X426572Y552429D01*
X426499Y552416D01*
X426407Y552376D01*
X426311Y552345D01*
X426247Y552306D01*
X426179Y552277D01*
X426098Y552217D01*
X426012Y552165D01*
X425959Y552113D01*
X425899Y552069D01*
X425834Y551992D01*
X425762Y551922D01*
X425722Y551860D01*
X425674Y551803D01*
X425628Y551713D01*
X425574Y551629D01*
X425549Y551559D01*
X425515Y551493D01*
X425491Y551395D01*
X425457Y551301D01*
X425449Y551227D01*
X425431Y551154D01*
X425430Y551054D01*
X425418Y550954D01*
X425427Y550880D01*
X425426Y550806D01*
X425447Y550708D01*
X425459Y550608D01*
X425485Y550528D01*
X425485Y550527D01*
X425486Y550525D01*
X425490Y550513D01*
X425500Y550466D01*
X425516Y550433D01*
X425534Y550375D01*
X426681Y547608D01*
X426681Y544592D01*
X425527Y541806D01*
X423394Y539673D01*
X420608Y538519D01*
X419335Y538519D01*
X419210Y538505D01*
X419084Y538498D01*
X419037Y538485D01*
X418989Y538479D01*
X418870Y538437D01*
X418749Y538402D01*
X418707Y538378D01*
X418661Y538362D01*
X418555Y538293D01*
X418445Y538232D01*
X418398Y538192D01*
X418368Y538173D01*
X418335Y538138D01*
X418258Y538073D01*
X272521Y392336D01*
X270878Y390693D01*
X269011Y389919D01*
X254872Y389919D01*
X254846Y389916D01*
X254820Y389918D01*
X254673Y389896D01*
X254526Y389879D01*
X254501Y389871D01*
X254475Y389867D01*
X254337Y389812D01*
X254198Y389762D01*
X254176Y389748D01*
X254151Y389738D01*
X254030Y389653D01*
X253905Y389573D01*
X253887Y389554D01*
X253865Y389539D01*
X253766Y389429D01*
X253663Y389322D01*
X253649Y389300D01*
X253632Y389280D01*
X253560Y389150D01*
X253484Y389023D01*
X253476Y388998D01*
X253463Y388975D01*
X253423Y388832D01*
X253378Y388691D01*
X253376Y388665D01*
X253368Y388640D01*
X253349Y388396D01*
X253349Y383137D01*
X251563Y381351D01*
X238067Y381351D01*
X237942Y381337D01*
X237816Y381330D01*
X237769Y381317D01*
X237721Y381311D01*
X237602Y381269D01*
X237481Y381234D01*
X237439Y381210D01*
X237393Y381194D01*
X237287Y381125D01*
X237177Y381064D01*
X237130Y381024D01*
X237100Y381005D01*
X237067Y380970D01*
X236990Y380905D01*
X235865Y379780D01*
X235786Y379680D01*
X235702Y379587D01*
X235678Y379544D01*
X235648Y379507D01*
X235594Y379392D01*
X235533Y379282D01*
X235520Y379235D01*
X235499Y379192D01*
X235473Y379068D01*
X235438Y378946D01*
X235433Y378886D01*
X235426Y378851D01*
X235427Y378803D01*
X235419Y378703D01*
X235419Y375369D01*
X234645Y373502D01*
X233002Y371859D01*
X233002Y371858D01*
X230122Y368978D01*
X228478Y367335D01*
X226611Y366561D01*
X217889Y366561D01*
X216022Y367335D01*
X211498Y371858D01*
X209855Y373502D01*
X209448Y374484D01*
X209375Y374615D01*
X209306Y374749D01*
X209290Y374768D01*
X209279Y374789D01*
X209178Y374900D01*
X209080Y375015D01*
X209061Y375029D01*
X209044Y375047D01*
X208921Y375132D01*
X208800Y375222D01*
X208778Y375231D01*
X208758Y375245D01*
X208618Y375300D01*
X208480Y375360D01*
X208456Y375364D01*
X208434Y375373D01*
X208285Y375395D01*
X208137Y375421D01*
X208113Y375420D01*
X208089Y375424D01*
X207939Y375411D01*
X207789Y375403D01*
X207766Y375397D01*
X207741Y375395D01*
X207598Y375349D01*
X207454Y375307D01*
X207433Y375295D01*
X207410Y375288D01*
X207281Y375210D01*
X207150Y375137D01*
X207128Y375118D01*
X207111Y375108D01*
X207077Y375075D01*
X206964Y374978D01*
X197502Y365517D01*
X195635Y364743D01*
X181726Y364743D01*
X181600Y364729D01*
X181474Y364722D01*
X181428Y364709D01*
X181380Y364703D01*
X181261Y364661D01*
X181139Y364626D01*
X181097Y364602D01*
X181051Y364586D01*
X180945Y364517D01*
X180835Y364456D01*
X180789Y364416D01*
X180759Y364397D01*
X180725Y364362D01*
X180649Y364297D01*
X176331Y359979D01*
X176268Y359901D01*
X176198Y359828D01*
X176160Y359764D01*
X176114Y359706D01*
X176071Y359615D01*
X176020Y359529D01*
X175997Y359458D01*
X175965Y359391D01*
X175944Y359293D01*
X175913Y359197D01*
X175907Y359123D01*
X175892Y359050D01*
X175893Y358950D01*
X175885Y358850D01*
X175896Y358776D01*
X175898Y358702D01*
X175922Y358605D01*
X175937Y358505D01*
X175965Y358436D01*
X175983Y358364D01*
X176029Y358274D01*
X176066Y358181D01*
X176108Y358120D01*
X176142Y358054D01*
X176207Y357977D01*
X176265Y357895D01*
X176320Y357845D01*
X176368Y357789D01*
X176449Y357729D01*
X176523Y357662D01*
X176589Y357626D01*
X176648Y357581D01*
X176741Y357542D01*
X176829Y357493D01*
X176900Y357473D01*
X176968Y357443D01*
X177067Y357426D01*
X177164Y357398D01*
X177264Y357390D01*
X177311Y357382D01*
X177347Y357384D01*
X177408Y357379D01*
X231140Y357379D01*
X231166Y357382D01*
X231192Y357380D01*
X231339Y357402D01*
X231486Y357419D01*
X231511Y357427D01*
X231537Y357431D01*
X231675Y357486D01*
X231814Y357536D01*
X231836Y357550D01*
X231861Y357560D01*
X231982Y357645D01*
X232107Y357725D01*
X232125Y357744D01*
X232147Y357759D01*
X232246Y357869D01*
X232349Y357976D01*
X232363Y357998D01*
X232380Y358018D01*
X232452Y358148D01*
X232528Y358275D01*
X232536Y358300D01*
X232549Y358323D01*
X232589Y358466D01*
X232634Y358607D01*
X232636Y358633D01*
X232644Y358658D01*
X232663Y358902D01*
X232663Y359346D01*
X234558Y363921D01*
X238059Y367422D01*
X242634Y369317D01*
X247586Y369317D01*
X252161Y367422D01*
X253500Y366082D01*
X253521Y366066D01*
X253538Y366046D01*
X253657Y365958D01*
X253773Y365866D01*
X253797Y365855D01*
X253818Y365839D01*
X253954Y365780D01*
X254088Y365717D01*
X254114Y365711D01*
X254138Y365701D01*
X254284Y365675D01*
X254429Y365643D01*
X254455Y365644D01*
X254481Y365639D01*
X254629Y365647D01*
X254777Y365649D01*
X254803Y365656D01*
X254829Y365657D01*
X254971Y365698D01*
X255115Y365734D01*
X255139Y365746D01*
X255164Y365754D01*
X255293Y365826D01*
X255425Y365894D01*
X255445Y365911D01*
X255468Y365924D01*
X255654Y366082D01*
X299273Y409701D01*
X299352Y409800D01*
X299370Y409821D01*
X299407Y409859D01*
X299412Y409867D01*
X299436Y409894D01*
X299460Y409936D01*
X299490Y409974D01*
X299501Y409997D01*
X299565Y410123D01*
X299586Y410158D01*
X299591Y410174D01*
X299593Y410177D01*
X299605Y410199D01*
X299607Y410207D01*
X300415Y412159D01*
X515681Y627424D01*
X515760Y627523D01*
X515844Y627617D01*
X515868Y627659D01*
X515898Y627697D01*
X515952Y627811D01*
X516013Y627922D01*
X516026Y627969D01*
X516047Y628012D01*
X516073Y628136D01*
X516108Y628258D01*
X516113Y628318D01*
X516120Y628353D01*
X516119Y628401D01*
X516127Y628501D01*
X516127Y822960D01*
X516127Y822962D01*
X516127Y822964D01*
X516107Y823135D01*
X516087Y823306D01*
X516087Y823308D01*
X516086Y823310D01*
X516011Y823543D01*
X515619Y824489D01*
X515619Y826511D01*
X516393Y828378D01*
X597249Y909235D01*
X597297Y909295D01*
X597352Y909348D01*
X597405Y909431D01*
X597466Y909508D01*
X597499Y909577D01*
X597540Y909641D01*
X597573Y909734D01*
X597615Y909823D01*
X597631Y909897D01*
X597657Y909970D01*
X597668Y910068D01*
X597688Y910164D01*
X597687Y910240D01*
X597696Y910316D01*
X597684Y910414D01*
X597682Y910512D01*
X597664Y910586D01*
X597655Y910662D01*
X597609Y910804D01*
X597597Y910850D01*
X597589Y910867D01*
X597580Y910895D01*
X597153Y911924D01*
X597153Y916876D01*
X599048Y921451D01*
X602549Y924952D01*
X605662Y926241D01*
X605802Y926319D01*
X605943Y926394D01*
X605954Y926403D01*
X605967Y926410D01*
X606085Y926518D01*
X606205Y926623D01*
X606214Y926635D01*
X606225Y926644D01*
X606316Y926776D01*
X606409Y926906D01*
X606415Y926919D01*
X606423Y926931D01*
X606482Y927080D01*
X606543Y927228D01*
X606545Y927242D01*
X606551Y927255D01*
X606574Y927413D01*
X606600Y927571D01*
X606599Y927586D01*
X606602Y927600D01*
X606588Y927760D01*
X606578Y927919D01*
X606574Y927933D01*
X606573Y927947D01*
X606523Y928100D01*
X606477Y928253D01*
X606470Y928265D01*
X606466Y928279D01*
X606383Y928417D01*
X606303Y928555D01*
X606293Y928565D01*
X606286Y928578D01*
X606174Y928693D01*
X606065Y928809D01*
X606053Y928817D01*
X606043Y928828D01*
X605909Y928914D01*
X605776Y929003D01*
X605760Y929010D01*
X605750Y929016D01*
X605713Y929029D01*
X605550Y929097D01*
X605212Y929207D01*
X603609Y930024D01*
X602153Y931081D01*
X600881Y932353D01*
X599824Y933809D01*
X599007Y935412D01*
X598451Y937123D01*
X598429Y937261D01*
X608584Y937261D01*
X608610Y937264D01*
X608636Y937262D01*
X608783Y937284D01*
X608930Y937301D01*
X608955Y937309D01*
X608981Y937313D01*
X609118Y937368D01*
X609258Y937418D01*
X609280Y937432D01*
X609305Y937442D01*
X609426Y937527D01*
X609551Y937607D01*
X609569Y937626D01*
X609591Y937641D01*
X609605Y937657D01*
X609690Y937575D01*
X609713Y937561D01*
X609732Y937544D01*
X609862Y937472D01*
X609989Y937396D01*
X610014Y937388D01*
X610037Y937375D01*
X610180Y937335D01*
X610321Y937290D01*
X610347Y937287D01*
X610372Y937280D01*
X610616Y937261D01*
X620771Y937261D01*
X620749Y937123D01*
X620193Y935412D01*
X619376Y933809D01*
X618319Y932353D01*
X617047Y931081D01*
X615591Y930024D01*
X613988Y929207D01*
X613650Y929097D01*
X613506Y929031D01*
X613358Y928967D01*
X613346Y928958D01*
X613333Y928952D01*
X613207Y928854D01*
X613078Y928759D01*
X613069Y928748D01*
X613058Y928739D01*
X612957Y928615D01*
X612853Y928493D01*
X612847Y928480D01*
X612838Y928469D01*
X612767Y928324D01*
X612695Y928183D01*
X612691Y928169D01*
X612685Y928156D01*
X612649Y927998D01*
X612610Y927844D01*
X612610Y927830D01*
X612607Y927816D01*
X612608Y927656D01*
X612605Y927496D01*
X612608Y927482D01*
X612609Y927467D01*
X612646Y927312D01*
X612680Y927155D01*
X612686Y927142D01*
X612689Y927128D01*
X612761Y926984D01*
X612829Y926841D01*
X612838Y926830D01*
X612845Y926816D01*
X612947Y926693D01*
X613047Y926568D01*
X613058Y926559D01*
X613067Y926548D01*
X613195Y926451D01*
X613320Y926352D01*
X613336Y926345D01*
X613345Y926337D01*
X613380Y926322D01*
X613538Y926241D01*
X616651Y924952D01*
X620152Y921451D01*
X622047Y916876D01*
X622047Y911924D01*
X620152Y907349D01*
X616651Y903848D01*
X614862Y903107D01*
X614774Y903059D01*
X614682Y903019D01*
X614622Y902974D01*
X614557Y902938D01*
X614483Y902871D01*
X614402Y902811D01*
X614354Y902754D01*
X614299Y902704D01*
X614242Y902621D01*
X614177Y902545D01*
X614143Y902478D01*
X614101Y902417D01*
X614064Y902324D01*
X614018Y902234D01*
X614000Y902162D01*
X613973Y902093D01*
X613958Y901994D01*
X613934Y901896D01*
X613933Y901822D01*
X613922Y901748D01*
X613931Y901648D01*
X613929Y901548D01*
X613945Y901475D01*
X613951Y901401D01*
X613982Y901305D01*
X614003Y901207D01*
X614035Y901140D01*
X614058Y901069D01*
X614110Y900983D01*
X614153Y900892D01*
X614200Y900834D01*
X614238Y900771D01*
X614308Y900699D01*
X614371Y900620D01*
X614429Y900574D01*
X614481Y900521D01*
X614565Y900466D01*
X614644Y900404D01*
X614733Y900358D01*
X614774Y900332D01*
X614808Y900320D01*
X614862Y900293D01*
X616651Y899552D01*
X620152Y896051D01*
X620789Y894513D01*
X620826Y894446D01*
X620854Y894375D01*
X620910Y894295D01*
X620958Y894208D01*
X621009Y894152D01*
X621053Y894089D01*
X621126Y894023D01*
X621192Y893950D01*
X621255Y893907D01*
X621312Y893856D01*
X621398Y893808D01*
X621479Y893752D01*
X621550Y893724D01*
X621617Y893687D01*
X621712Y893660D01*
X621803Y893624D01*
X621879Y893613D01*
X621952Y893592D01*
X622101Y893580D01*
X622148Y893573D01*
X622167Y893575D01*
X622196Y893573D01*
X661430Y893573D01*
X661556Y893587D01*
X661682Y893594D01*
X661728Y893607D01*
X661776Y893613D01*
X661895Y893655D01*
X662017Y893690D01*
X662059Y893714D01*
X662105Y893730D01*
X662211Y893799D01*
X662321Y893860D01*
X662367Y893900D01*
X662397Y893919D01*
X662431Y893954D01*
X662507Y894019D01*
X663837Y895349D01*
X682363Y895349D01*
X684149Y893563D01*
X684149Y878037D01*
X683489Y877377D01*
X683472Y877357D01*
X683452Y877340D01*
X683364Y877221D01*
X683272Y877104D01*
X683261Y877080D01*
X683245Y877059D01*
X683187Y876923D01*
X683123Y876789D01*
X683118Y876763D01*
X683107Y876739D01*
X683081Y876593D01*
X683050Y876448D01*
X683050Y876422D01*
X683046Y876396D01*
X683053Y876248D01*
X683056Y876100D01*
X683062Y876074D01*
X683063Y876048D01*
X683105Y875906D01*
X683141Y875762D01*
X683153Y875739D01*
X683160Y875713D01*
X683233Y875584D01*
X683300Y875452D01*
X683317Y875432D01*
X683330Y875409D01*
X683489Y875223D01*
X684149Y874563D01*
X684149Y859037D01*
X682363Y857251D01*
X663837Y857251D01*
X662051Y859037D01*
X662051Y869696D01*
X662048Y869722D01*
X662050Y869748D01*
X662028Y869895D01*
X662011Y870042D01*
X662003Y870067D01*
X661999Y870093D01*
X661944Y870231D01*
X661894Y870370D01*
X661880Y870392D01*
X661870Y870417D01*
X661785Y870538D01*
X661705Y870663D01*
X661686Y870681D01*
X661671Y870703D01*
X661561Y870802D01*
X661454Y870905D01*
X661432Y870919D01*
X661412Y870936D01*
X661282Y871008D01*
X661155Y871084D01*
X661130Y871092D01*
X661107Y871105D01*
X660964Y871145D01*
X660823Y871190D01*
X660797Y871192D01*
X660772Y871200D01*
X660528Y871219D01*
X641271Y871219D01*
X641145Y871205D01*
X641019Y871198D01*
X640973Y871185D01*
X640925Y871179D01*
X640806Y871137D01*
X640684Y871102D01*
X640642Y871078D01*
X640597Y871062D01*
X640490Y870993D01*
X640380Y870932D01*
X640334Y870892D01*
X640304Y870873D01*
X640270Y870838D01*
X640194Y870773D01*
X639294Y869873D01*
X636508Y868719D01*
X633492Y868719D01*
X630706Y869873D01*
X628573Y872006D01*
X627419Y874792D01*
X627419Y877808D01*
X628573Y880594D01*
X629806Y881827D01*
X629869Y881906D01*
X629938Y881978D01*
X629977Y882042D01*
X630023Y882100D01*
X630066Y882191D01*
X630117Y882277D01*
X630140Y882348D01*
X630172Y882415D01*
X630193Y882513D01*
X630223Y882609D01*
X630229Y882683D01*
X630245Y882756D01*
X630243Y882856D01*
X630251Y882956D01*
X630240Y883030D01*
X630239Y883104D01*
X630215Y883201D01*
X630200Y883301D01*
X630172Y883370D01*
X630154Y883442D01*
X630108Y883531D01*
X630071Y883625D01*
X630029Y883686D01*
X629994Y883752D01*
X629929Y883828D01*
X629872Y883911D01*
X629817Y883961D01*
X629769Y884017D01*
X629688Y884077D01*
X629613Y884144D01*
X629548Y884180D01*
X629488Y884225D01*
X629396Y884264D01*
X629308Y884313D01*
X629237Y884333D01*
X629168Y884363D01*
X629070Y884380D01*
X628973Y884408D01*
X628873Y884416D01*
X628825Y884424D01*
X628790Y884422D01*
X628729Y884427D01*
X622196Y884427D01*
X622120Y884419D01*
X622044Y884420D01*
X621947Y884399D01*
X621850Y884387D01*
X621778Y884362D01*
X621703Y884345D01*
X621614Y884303D01*
X621522Y884270D01*
X621457Y884228D01*
X621388Y884196D01*
X621311Y884134D01*
X621229Y884081D01*
X621176Y884026D01*
X621116Y883978D01*
X621055Y883901D01*
X620987Y883830D01*
X620947Y883765D01*
X620900Y883705D01*
X620832Y883571D01*
X620808Y883531D01*
X620802Y883513D01*
X620789Y883487D01*
X620152Y881949D01*
X616651Y878448D01*
X612076Y876553D01*
X607124Y876553D01*
X602549Y878448D01*
X599048Y881949D01*
X597153Y886524D01*
X597153Y891091D01*
X597142Y891190D01*
X597140Y891291D01*
X597122Y891363D01*
X597113Y891437D01*
X597080Y891531D01*
X597055Y891629D01*
X597021Y891695D01*
X596996Y891765D01*
X596941Y891849D01*
X596895Y891939D01*
X596847Y891995D01*
X596807Y892058D01*
X596735Y892128D01*
X596670Y892204D01*
X596610Y892248D01*
X596556Y892300D01*
X596470Y892351D01*
X596389Y892411D01*
X596321Y892441D01*
X596257Y892479D01*
X596161Y892509D01*
X596069Y892549D01*
X595996Y892562D01*
X595925Y892585D01*
X595825Y892593D01*
X595726Y892611D01*
X595652Y892607D01*
X595578Y892613D01*
X595478Y892598D01*
X595378Y892593D01*
X595307Y892572D01*
X595233Y892561D01*
X595140Y892524D01*
X595043Y892496D01*
X594978Y892460D01*
X594909Y892433D01*
X594827Y892375D01*
X594739Y892326D01*
X594663Y892261D01*
X594623Y892234D01*
X594599Y892207D01*
X594553Y892168D01*
X525719Y823334D01*
X525640Y823235D01*
X525556Y823141D01*
X525532Y823098D01*
X525502Y823061D01*
X525448Y822946D01*
X525387Y822836D01*
X525374Y822789D01*
X525353Y822746D01*
X525327Y822622D01*
X525292Y822500D01*
X525287Y822440D01*
X525280Y822405D01*
X525281Y822357D01*
X525273Y822257D01*
X525273Y634227D01*
X525284Y634128D01*
X525286Y634027D01*
X525304Y633955D01*
X525313Y633881D01*
X525346Y633787D01*
X525371Y633689D01*
X525405Y633623D01*
X525430Y633553D01*
X525485Y633469D01*
X525531Y633380D01*
X525579Y633323D01*
X525619Y633260D01*
X525691Y633191D01*
X525756Y633114D01*
X525816Y633070D01*
X525870Y633018D01*
X525956Y632967D01*
X526037Y632907D01*
X526105Y632877D01*
X526169Y632839D01*
X526265Y632809D01*
X526357Y632769D01*
X526430Y632756D01*
X526501Y632733D01*
X526601Y632725D01*
X526700Y632707D01*
X526774Y632711D01*
X526848Y632705D01*
X526948Y632720D01*
X527048Y632725D01*
X527119Y632746D01*
X527193Y632757D01*
X527286Y632794D01*
X527383Y632822D01*
X527448Y632858D01*
X527517Y632886D01*
X527599Y632943D01*
X527687Y632992D01*
X527763Y633057D01*
X527803Y633084D01*
X527827Y633111D01*
X527873Y633150D01*
X658447Y763724D01*
X659947Y765225D01*
X661628Y765921D01*
X709323Y765921D01*
X709449Y765935D01*
X709575Y765942D01*
X709621Y765955D01*
X709669Y765961D01*
X709788Y766003D01*
X709910Y766038D01*
X709952Y766062D01*
X709997Y766078D01*
X710104Y766147D01*
X710214Y766208D01*
X710260Y766248D01*
X710290Y766267D01*
X710324Y766302D01*
X710400Y766367D01*
X774905Y830872D01*
X774984Y830971D01*
X775068Y831065D01*
X775092Y831107D01*
X775122Y831145D01*
X775176Y831259D01*
X775237Y831370D01*
X775250Y831416D01*
X775271Y831460D01*
X775297Y831583D01*
X775332Y831705D01*
X775337Y831766D01*
X775344Y831801D01*
X775343Y831849D01*
X775351Y831949D01*
X775351Y846163D01*
X777137Y847949D01*
X797663Y847949D01*
X799449Y846163D01*
X799449Y827637D01*
X797663Y825851D01*
X783449Y825851D01*
X783323Y825837D01*
X783197Y825830D01*
X783151Y825817D01*
X783103Y825811D01*
X782984Y825769D01*
X782862Y825734D01*
X782820Y825710D01*
X782775Y825694D01*
X782668Y825625D01*
X782558Y825564D01*
X782512Y825524D01*
X782482Y825505D01*
X782448Y825470D01*
X782372Y825405D01*
X715939Y758972D01*
X714438Y757471D01*
X712758Y756775D01*
X712372Y756775D01*
X712346Y756772D01*
X712320Y756774D01*
X712173Y756752D01*
X712026Y756735D01*
X712001Y756727D01*
X711975Y756723D01*
X711837Y756668D01*
X711698Y756618D01*
X711676Y756604D01*
X711651Y756594D01*
X711530Y756509D01*
X711405Y756429D01*
X711387Y756410D01*
X711365Y756395D01*
X711266Y756285D01*
X711163Y756178D01*
X711149Y756156D01*
X711132Y756136D01*
X711060Y756006D01*
X710984Y755879D01*
X710976Y755854D01*
X710963Y755831D01*
X710923Y755688D01*
X710878Y755547D01*
X710876Y755521D01*
X710868Y755496D01*
X710849Y755252D01*
X710849Y739037D01*
X709063Y737251D01*
X704596Y737251D01*
X704570Y737248D01*
X704544Y737250D01*
X704397Y737228D01*
X704250Y737211D01*
X704225Y737203D01*
X704199Y737199D01*
X704061Y737144D01*
X703922Y737094D01*
X703900Y737080D01*
X703875Y737070D01*
X703754Y736985D01*
X703629Y736905D01*
X703611Y736886D01*
X703589Y736871D01*
X703490Y736761D01*
X703387Y736654D01*
X703373Y736632D01*
X703356Y736612D01*
X703284Y736482D01*
X703208Y736355D01*
X703200Y736330D01*
X703187Y736307D01*
X703147Y736164D01*
X703102Y736023D01*
X703100Y735997D01*
X703092Y735972D01*
X703073Y735728D01*
X703073Y701296D01*
X703081Y701220D01*
X703080Y701144D01*
X703101Y701048D01*
X703113Y700950D01*
X703138Y700878D01*
X703155Y700803D01*
X703197Y700715D01*
X703230Y700622D01*
X703272Y700558D01*
X703304Y700489D01*
X703366Y700412D01*
X703419Y700329D01*
X703474Y700276D01*
X703522Y700216D01*
X703599Y700155D01*
X703670Y700087D01*
X703735Y700048D01*
X703795Y700000D01*
X703928Y699932D01*
X703969Y699908D01*
X703987Y699902D01*
X704013Y699889D01*
X704975Y699490D01*
X708190Y696275D01*
X709931Y692074D01*
X709931Y687526D01*
X708190Y683325D01*
X704975Y680110D01*
X704108Y679751D01*
X704021Y679702D01*
X703929Y679662D01*
X703869Y679617D01*
X703804Y679581D01*
X703730Y679514D01*
X703649Y679454D01*
X703601Y679397D01*
X703546Y679347D01*
X703489Y679265D01*
X703424Y679188D01*
X703390Y679122D01*
X703348Y679060D01*
X703311Y678967D01*
X703265Y678878D01*
X703247Y678805D01*
X703220Y678736D01*
X703205Y678637D01*
X703181Y678539D01*
X703180Y678465D01*
X703169Y678391D01*
X703177Y678291D01*
X703176Y678191D01*
X703192Y678118D01*
X703198Y678044D01*
X703229Y677949D01*
X703250Y677850D01*
X703282Y677783D01*
X703305Y677712D01*
X703357Y677626D01*
X703400Y677536D01*
X703446Y677478D01*
X703485Y677414D01*
X703555Y677342D01*
X703617Y677263D01*
X703676Y677217D01*
X703727Y677164D01*
X703812Y677110D01*
X703891Y677047D01*
X703980Y677002D01*
X704021Y676976D01*
X704054Y676964D01*
X704108Y676936D01*
X704759Y676667D01*
X707867Y673559D01*
X709549Y669498D01*
X709549Y665102D01*
X707867Y661041D01*
X704759Y657933D01*
X700698Y656251D01*
X696302Y656251D01*
X692241Y657933D01*
X689133Y661041D01*
X687451Y665102D01*
X687451Y669498D01*
X689133Y673559D01*
X692241Y676667D01*
X692892Y676936D01*
X692979Y676985D01*
X693071Y677025D01*
X693131Y677069D01*
X693196Y677105D01*
X693271Y677173D01*
X693351Y677233D01*
X693399Y677289D01*
X693454Y677339D01*
X693511Y677422D01*
X693576Y677499D01*
X693610Y677565D01*
X693653Y677626D01*
X693689Y677720D01*
X693735Y677809D01*
X693753Y677881D01*
X693780Y677950D01*
X693795Y678050D01*
X693819Y678147D01*
X693820Y678221D01*
X693831Y678295D01*
X693823Y678395D01*
X693824Y678496D01*
X693808Y678568D01*
X693802Y678642D01*
X693771Y678738D01*
X693750Y678836D01*
X693718Y678903D01*
X693695Y678974D01*
X693643Y679060D01*
X693600Y679151D01*
X693554Y679209D01*
X693515Y679273D01*
X693445Y679345D01*
X693383Y679423D01*
X693325Y679469D01*
X693273Y679523D01*
X693188Y679577D01*
X693109Y679639D01*
X693020Y679685D01*
X692979Y679711D01*
X692946Y679723D01*
X692892Y679751D01*
X692025Y680110D01*
X688810Y683325D01*
X687069Y687526D01*
X687069Y692074D01*
X688810Y696275D01*
X692025Y699490D01*
X692987Y699889D01*
X693054Y699926D01*
X693125Y699954D01*
X693205Y700010D01*
X693292Y700058D01*
X693348Y700110D01*
X693411Y700153D01*
X693477Y700226D01*
X693550Y700292D01*
X693593Y700355D01*
X693644Y700412D01*
X693692Y700498D01*
X693748Y700579D01*
X693776Y700650D01*
X693813Y700717D01*
X693840Y700812D01*
X693876Y700903D01*
X693887Y700979D01*
X693908Y701052D01*
X693920Y701201D01*
X693927Y701248D01*
X693925Y701267D01*
X693927Y701296D01*
X693927Y735728D01*
X693924Y735754D01*
X693926Y735780D01*
X693904Y735927D01*
X693887Y736074D01*
X693879Y736099D01*
X693875Y736125D01*
X693820Y736263D01*
X693770Y736402D01*
X693756Y736424D01*
X693746Y736449D01*
X693661Y736570D01*
X693581Y736695D01*
X693562Y736713D01*
X693547Y736735D01*
X693437Y736834D01*
X693330Y736937D01*
X693308Y736951D01*
X693288Y736968D01*
X693158Y737040D01*
X693031Y737116D01*
X693006Y737124D01*
X692983Y737137D01*
X692840Y737177D01*
X692699Y737222D01*
X692673Y737224D01*
X692648Y737232D01*
X692404Y737251D01*
X690537Y737251D01*
X688751Y739037D01*
X688751Y755252D01*
X688748Y755278D01*
X688750Y755304D01*
X688728Y755451D01*
X688711Y755598D01*
X688703Y755623D01*
X688699Y755649D01*
X688644Y755787D01*
X688594Y755926D01*
X688580Y755948D01*
X688570Y755973D01*
X688485Y756094D01*
X688405Y756219D01*
X688386Y756237D01*
X688371Y756259D01*
X688261Y756358D01*
X688154Y756461D01*
X688132Y756475D01*
X688112Y756492D01*
X687982Y756564D01*
X687855Y756640D01*
X687830Y756648D01*
X687807Y756661D01*
X687664Y756701D01*
X687523Y756746D01*
X687497Y756748D01*
X687472Y756756D01*
X687228Y756775D01*
X684372Y756775D01*
X684346Y756772D01*
X684320Y756774D01*
X684173Y756752D01*
X684026Y756735D01*
X684001Y756727D01*
X683975Y756723D01*
X683837Y756668D01*
X683698Y756618D01*
X683676Y756604D01*
X683651Y756594D01*
X683530Y756509D01*
X683405Y756429D01*
X683387Y756410D01*
X683365Y756395D01*
X683266Y756285D01*
X683163Y756178D01*
X683149Y756156D01*
X683132Y756136D01*
X683060Y756006D01*
X682984Y755879D01*
X682976Y755854D01*
X682963Y755831D01*
X682923Y755688D01*
X682878Y755547D01*
X682876Y755521D01*
X682868Y755496D01*
X682849Y755252D01*
X682849Y739037D01*
X681063Y737251D01*
X666849Y737251D01*
X666723Y737237D01*
X666597Y737230D01*
X666551Y737217D01*
X666503Y737211D01*
X666384Y737169D01*
X666262Y737134D01*
X666220Y737110D01*
X666175Y737094D01*
X666068Y737025D01*
X665958Y736964D01*
X665912Y736924D01*
X665882Y736905D01*
X665848Y736870D01*
X665772Y736805D01*
X351729Y422762D01*
X351650Y422663D01*
X351566Y422569D01*
X351542Y422527D01*
X351512Y422489D01*
X351458Y422375D01*
X351397Y422264D01*
X351384Y422218D01*
X351363Y422174D01*
X351337Y422051D01*
X351302Y421929D01*
X351297Y421868D01*
X351290Y421833D01*
X351291Y421785D01*
X351283Y421685D01*
X351283Y369466D01*
X351291Y369390D01*
X351290Y369314D01*
X351311Y369217D01*
X351323Y369120D01*
X351348Y369048D01*
X351365Y368973D01*
X351407Y368884D01*
X351440Y368792D01*
X351482Y368727D01*
X351514Y368658D01*
X351576Y368581D01*
X351629Y368499D01*
X351684Y368446D01*
X351732Y368386D01*
X351809Y368325D01*
X351880Y368257D01*
X351945Y368217D01*
X352005Y368170D01*
X352139Y368102D01*
X352179Y368078D01*
X352197Y368072D01*
X352223Y368059D01*
X353761Y367422D01*
X357262Y363921D01*
X358003Y362132D01*
X358052Y362044D01*
X358092Y361952D01*
X358136Y361892D01*
X358172Y361827D01*
X358239Y361753D01*
X358299Y361672D01*
X358356Y361624D01*
X358406Y361569D01*
X358489Y361512D01*
X358565Y361447D01*
X358632Y361413D01*
X358693Y361371D01*
X358786Y361334D01*
X358876Y361288D01*
X358948Y361270D01*
X359017Y361243D01*
X359116Y361228D01*
X359214Y361204D01*
X359288Y361203D01*
X359362Y361192D01*
X359462Y361201D01*
X359562Y361199D01*
X359635Y361215D01*
X359709Y361221D01*
X359805Y361252D01*
X359903Y361273D01*
X359970Y361305D01*
X360041Y361328D01*
X360127Y361380D01*
X360218Y361423D01*
X360276Y361470D01*
X360339Y361508D01*
X360411Y361578D01*
X360490Y361641D01*
X360536Y361699D01*
X360589Y361751D01*
X360644Y361835D01*
X360706Y361914D01*
X360752Y362004D01*
X360778Y362044D01*
X360790Y362078D01*
X360817Y362132D01*
X361558Y363921D01*
X365059Y367422D01*
X369634Y369317D01*
X374586Y369317D01*
X379161Y367422D01*
X382662Y363921D01*
X383403Y362132D01*
X383452Y362044D01*
X383492Y361952D01*
X383536Y361892D01*
X383572Y361827D01*
X383639Y361753D01*
X383699Y361672D01*
X383756Y361624D01*
X383806Y361569D01*
X383889Y361512D01*
X383965Y361447D01*
X384032Y361413D01*
X384093Y361371D01*
X384186Y361334D01*
X384276Y361288D01*
X384348Y361270D01*
X384417Y361243D01*
X384516Y361228D01*
X384614Y361204D01*
X384688Y361203D01*
X384762Y361192D01*
X384862Y361201D01*
X384962Y361199D01*
X385035Y361215D01*
X385109Y361221D01*
X385205Y361252D01*
X385303Y361273D01*
X385370Y361305D01*
X385441Y361328D01*
X385527Y361380D01*
X385618Y361423D01*
X385676Y361470D01*
X385739Y361508D01*
X385811Y361578D01*
X385890Y361641D01*
X385936Y361699D01*
X385989Y361751D01*
X386044Y361835D01*
X386106Y361914D01*
X386152Y362004D01*
X386178Y362044D01*
X386190Y362078D01*
X386217Y362132D01*
X386958Y363921D01*
X390459Y367422D01*
X395034Y369317D01*
X399986Y369317D01*
X401523Y368680D01*
X401597Y368659D01*
X401667Y368629D01*
X401764Y368611D01*
X401858Y368584D01*
X401935Y368581D01*
X402010Y368567D01*
X402108Y368572D01*
X402206Y368567D01*
X402282Y368581D01*
X402358Y368585D01*
X402452Y368612D01*
X402549Y368630D01*
X402619Y368660D01*
X402693Y368681D01*
X402779Y368730D01*
X402869Y368769D01*
X402930Y368814D01*
X402997Y368852D01*
X403111Y368948D01*
X403149Y368977D01*
X403161Y368991D01*
X403183Y369010D01*
X621507Y587334D01*
X623204Y588037D01*
X623227Y588049D01*
X623252Y588057D01*
X623379Y588134D01*
X623509Y588206D01*
X623528Y588224D01*
X623550Y588237D01*
X623657Y588340D01*
X623767Y588440D01*
X623782Y588462D01*
X623800Y588480D01*
X623880Y588604D01*
X623965Y588727D01*
X623975Y588751D01*
X623989Y588773D01*
X624038Y588913D01*
X624093Y589051D01*
X624097Y589077D01*
X624105Y589102D01*
X624122Y589249D01*
X624144Y589396D01*
X624141Y589422D01*
X624144Y589448D01*
X624127Y589595D01*
X624115Y589743D01*
X624107Y589768D01*
X624103Y589794D01*
X624028Y590027D01*
X622156Y594546D01*
X622156Y600054D01*
X624264Y605142D01*
X628158Y609036D01*
X633246Y611144D01*
X638754Y611144D01*
X643842Y609036D01*
X647736Y605142D01*
X649563Y600731D01*
X649636Y600600D01*
X649705Y600466D01*
X649721Y600448D01*
X649732Y600427D01*
X649833Y600316D01*
X649931Y600201D01*
X649950Y600187D01*
X649966Y600169D01*
X650090Y600083D01*
X650211Y599994D01*
X650233Y599984D01*
X650253Y599970D01*
X650393Y599915D01*
X650531Y599856D01*
X650555Y599852D01*
X650577Y599843D01*
X650726Y599821D01*
X650874Y599794D01*
X650898Y599795D01*
X650922Y599792D01*
X651072Y599804D01*
X651222Y599812D01*
X651245Y599819D01*
X651269Y599821D01*
X651413Y599867D01*
X651557Y599909D01*
X651578Y599920D01*
X651601Y599928D01*
X651730Y600005D01*
X651861Y600079D01*
X651883Y600098D01*
X651900Y600107D01*
X651934Y600140D01*
X652047Y600237D01*
X812718Y760908D01*
X812797Y761007D01*
X812881Y761101D01*
X812905Y761143D01*
X812935Y761181D01*
X812989Y761295D01*
X813050Y761406D01*
X813063Y761452D01*
X813084Y761496D01*
X813110Y761619D01*
X813145Y761741D01*
X813150Y761802D01*
X813157Y761837D01*
X813156Y761885D01*
X813164Y761985D01*
X813164Y780474D01*
X813860Y782154D01*
X859413Y827707D01*
X861093Y828403D01*
X942472Y828403D01*
X942548Y828411D01*
X942624Y828410D01*
X942721Y828431D01*
X942818Y828443D01*
X942890Y828468D01*
X942965Y828485D01*
X943054Y828527D01*
X943146Y828560D01*
X943211Y828602D01*
X943280Y828634D01*
X943356Y828696D01*
X943439Y828749D01*
X943492Y828804D01*
X943552Y828852D01*
X943613Y828929D01*
X943681Y829000D01*
X943721Y829065D01*
X943768Y829125D01*
X943836Y829258D01*
X943860Y829299D01*
X943866Y829317D01*
X943879Y829343D01*
X944844Y831672D01*
X948738Y835566D01*
X953826Y837674D01*
X959334Y837674D01*
X964422Y835566D01*
X968316Y831672D01*
X970424Y826584D01*
X970424Y821076D01*
X968316Y815988D01*
X964422Y812094D01*
X959334Y809986D01*
X953826Y809986D01*
X948738Y812094D01*
X944844Y815988D01*
X943879Y818317D01*
X943842Y818384D01*
X943814Y818455D01*
X943758Y818536D01*
X943710Y818622D01*
X943659Y818678D01*
X943615Y818741D01*
X943542Y818807D01*
X943476Y818880D01*
X943413Y818923D01*
X943356Y818974D01*
X943270Y819022D01*
X943189Y819078D01*
X943118Y819106D01*
X943051Y819143D01*
X942956Y819170D01*
X942865Y819206D01*
X942789Y819217D01*
X942716Y819238D01*
X942567Y819250D01*
X942520Y819257D01*
X942501Y819255D01*
X942472Y819257D01*
X864528Y819257D01*
X864402Y819243D01*
X864276Y819236D01*
X864230Y819223D01*
X864182Y819217D01*
X864063Y819175D01*
X863941Y819140D01*
X863899Y819116D01*
X863854Y819100D01*
X863747Y819031D01*
X863637Y818970D01*
X863591Y818930D01*
X863561Y818911D01*
X863527Y818876D01*
X863451Y818811D01*
X834517Y789877D01*
X834424Y789760D01*
X834327Y789645D01*
X834316Y789623D01*
X834301Y789604D01*
X834236Y789469D01*
X834168Y789335D01*
X834162Y789311D01*
X834152Y789289D01*
X834120Y789143D01*
X834084Y788996D01*
X834083Y788972D01*
X834078Y788949D01*
X834081Y788799D01*
X834079Y788648D01*
X834084Y788624D01*
X834084Y788600D01*
X834121Y788454D01*
X834153Y788307D01*
X834163Y788286D01*
X834169Y788262D01*
X834238Y788128D01*
X834303Y787993D01*
X834318Y787974D01*
X834329Y787952D01*
X834427Y787838D01*
X834520Y787720D01*
X834539Y787705D01*
X834555Y787687D01*
X834676Y787597D01*
X834794Y787504D01*
X834820Y787491D01*
X834835Y787480D01*
X834878Y787461D01*
X835011Y787393D01*
X839422Y785566D01*
X843316Y781672D01*
X845424Y776584D01*
X845424Y771076D01*
X843316Y765988D01*
X839422Y762094D01*
X834334Y759986D01*
X828826Y759986D01*
X824416Y761813D01*
X824271Y761855D01*
X824128Y761900D01*
X824104Y761902D01*
X824081Y761909D01*
X823930Y761916D01*
X823781Y761928D01*
X823757Y761925D01*
X823733Y761926D01*
X823585Y761899D01*
X823436Y761876D01*
X823414Y761868D01*
X823390Y761863D01*
X823252Y761803D01*
X823112Y761748D01*
X823092Y761734D01*
X823070Y761724D01*
X822949Y761635D01*
X822826Y761549D01*
X822810Y761531D01*
X822790Y761516D01*
X822693Y761402D01*
X822593Y761290D01*
X822581Y761269D01*
X822565Y761250D01*
X822497Y761117D01*
X822424Y760985D01*
X822418Y760962D01*
X822407Y760940D01*
X822370Y760795D01*
X822329Y760650D01*
X822327Y760620D01*
X822322Y760602D01*
X822322Y760555D01*
X822310Y760406D01*
X822310Y758550D01*
X821614Y756870D01*
X644324Y579580D01*
X642644Y578884D01*
X626622Y578884D01*
X626496Y578870D01*
X626370Y578863D01*
X626324Y578850D01*
X626276Y578844D01*
X626157Y578802D01*
X626035Y578767D01*
X625993Y578743D01*
X625948Y578727D01*
X625841Y578658D01*
X625731Y578597D01*
X625685Y578557D01*
X625655Y578538D01*
X625621Y578503D01*
X625545Y578438D01*
X419003Y371896D01*
X418971Y371856D01*
X418933Y371822D01*
X418863Y371720D01*
X418786Y371623D01*
X418764Y371577D01*
X418735Y371535D01*
X418690Y371420D01*
X418637Y371308D01*
X418626Y371258D01*
X418608Y371211D01*
X418590Y371088D01*
X418564Y370967D01*
X418565Y370916D01*
X418557Y370866D01*
X418567Y370742D01*
X418570Y370618D01*
X418582Y370569D01*
X418586Y370519D01*
X418624Y370401D01*
X418655Y370280D01*
X418678Y370235D01*
X418693Y370187D01*
X418757Y370081D01*
X418814Y369971D01*
X418847Y369932D01*
X418873Y369889D01*
X418960Y369800D01*
X419040Y369705D01*
X419081Y369675D01*
X419116Y369639D01*
X419221Y369572D01*
X419320Y369498D01*
X419367Y369478D01*
X419410Y369451D01*
X419527Y369409D01*
X419640Y369360D01*
X419690Y369351D01*
X419738Y369334D01*
X419861Y369320D01*
X419983Y369298D01*
X420034Y369301D01*
X420084Y369295D01*
X420208Y369310D01*
X420331Y369316D01*
X420333Y369317D01*
X425386Y369317D01*
X429961Y367422D01*
X433462Y363921D01*
X434203Y362132D01*
X434252Y362044D01*
X434292Y361952D01*
X434336Y361892D01*
X434372Y361827D01*
X434439Y361753D01*
X434499Y361672D01*
X434556Y361624D01*
X434606Y361569D01*
X434689Y361512D01*
X434765Y361447D01*
X434832Y361413D01*
X434893Y361371D01*
X434986Y361334D01*
X435076Y361288D01*
X435148Y361270D01*
X435217Y361243D01*
X435316Y361228D01*
X435414Y361204D01*
X435488Y361203D01*
X435562Y361192D01*
X435662Y361201D01*
X435762Y361199D01*
X435835Y361215D01*
X435909Y361221D01*
X436005Y361252D01*
X436103Y361273D01*
X436170Y361305D01*
X436241Y361328D01*
X436327Y361380D01*
X436418Y361423D01*
X436476Y361470D01*
X436539Y361508D01*
X436611Y361578D01*
X436690Y361641D01*
X436736Y361699D01*
X436789Y361751D01*
X436844Y361835D01*
X436906Y361914D01*
X436952Y362004D01*
X436978Y362044D01*
X436990Y362078D01*
X437017Y362132D01*
X437758Y363921D01*
X441259Y367422D01*
X445834Y369317D01*
X450786Y369317D01*
X455361Y367422D01*
X456700Y366082D01*
X456721Y366066D01*
X456738Y366046D01*
X456857Y365958D01*
X456973Y365866D01*
X456997Y365855D01*
X457018Y365839D01*
X457154Y365780D01*
X457288Y365717D01*
X457314Y365711D01*
X457338Y365701D01*
X457484Y365675D01*
X457629Y365643D01*
X457655Y365644D01*
X457681Y365639D01*
X457829Y365647D01*
X457977Y365649D01*
X458003Y365656D01*
X458029Y365657D01*
X458171Y365698D01*
X458315Y365734D01*
X458339Y365746D01*
X458364Y365754D01*
X458493Y365826D01*
X458625Y365894D01*
X458645Y365911D01*
X458668Y365924D01*
X458854Y366082D01*
X684996Y592225D01*
X686677Y592921D01*
X699523Y592921D01*
X699649Y592935D01*
X699775Y592942D01*
X699821Y592955D01*
X699869Y592961D01*
X699988Y593003D01*
X700110Y593038D01*
X700152Y593062D01*
X700197Y593078D01*
X700304Y593147D01*
X700414Y593208D01*
X700460Y593248D01*
X700490Y593267D01*
X700524Y593302D01*
X700600Y593367D01*
X747791Y640558D01*
X747838Y640617D01*
X747893Y640671D01*
X747946Y640753D01*
X748007Y640831D01*
X748040Y640900D01*
X748081Y640964D01*
X748114Y641057D01*
X748156Y641146D01*
X748172Y641220D01*
X748198Y641292D01*
X748209Y641390D01*
X748230Y641486D01*
X748228Y641563D01*
X748237Y641639D01*
X748225Y641737D01*
X748224Y641835D01*
X748205Y641909D01*
X748196Y641985D01*
X748150Y642127D01*
X748139Y642173D01*
X748130Y642190D01*
X748121Y642218D01*
X747156Y644546D01*
X747156Y650054D01*
X749264Y655142D01*
X753158Y659036D01*
X758246Y661144D01*
X763754Y661144D01*
X768842Y659036D01*
X772736Y655142D01*
X774844Y650054D01*
X774844Y644546D01*
X772736Y639458D01*
X768842Y635564D01*
X763754Y633456D01*
X758246Y633456D01*
X755918Y634421D01*
X755844Y634442D01*
X755774Y634472D01*
X755677Y634489D01*
X755582Y634517D01*
X755506Y634520D01*
X755431Y634534D01*
X755333Y634529D01*
X755234Y634534D01*
X755159Y634520D01*
X755083Y634516D01*
X754988Y634489D01*
X754891Y634471D01*
X754821Y634440D01*
X754748Y634419D01*
X754662Y634371D01*
X754572Y634332D01*
X754510Y634286D01*
X754444Y634249D01*
X754330Y634152D01*
X754292Y634124D01*
X754280Y634110D01*
X754258Y634091D01*
X706873Y586706D01*
X706857Y586686D01*
X706837Y586669D01*
X706749Y586549D01*
X706657Y586433D01*
X706645Y586410D01*
X706630Y586389D01*
X706571Y586252D01*
X706508Y586118D01*
X706502Y586093D01*
X706492Y586068D01*
X706465Y585922D01*
X706434Y585778D01*
X706435Y585751D01*
X706430Y585725D01*
X706438Y585577D01*
X706440Y585429D01*
X706447Y585404D01*
X706448Y585377D01*
X706489Y585235D01*
X706525Y585091D01*
X706537Y585068D01*
X706544Y585043D01*
X706617Y584913D01*
X706685Y584781D01*
X706702Y584761D01*
X706715Y584738D01*
X706873Y584552D01*
X707867Y583559D01*
X709549Y579498D01*
X709549Y575102D01*
X707867Y571041D01*
X704759Y567933D01*
X702795Y567120D01*
X702760Y567100D01*
X702721Y567087D01*
X702608Y567016D01*
X702491Y566951D01*
X702460Y566923D01*
X702426Y566902D01*
X702332Y566807D01*
X702232Y566717D01*
X702209Y566683D01*
X702181Y566654D01*
X702110Y566540D01*
X702034Y566430D01*
X702019Y566392D01*
X701998Y566357D01*
X701955Y566230D01*
X701906Y566106D01*
X701900Y566065D01*
X701888Y566027D01*
X701875Y565893D01*
X701856Y565761D01*
X701859Y565720D01*
X701855Y565680D01*
X701873Y565547D01*
X701885Y565414D01*
X701897Y565375D01*
X701903Y565335D01*
X701950Y565210D01*
X701992Y565082D01*
X702013Y565047D01*
X702027Y565009D01*
X702102Y564898D01*
X702171Y564783D01*
X702200Y564754D01*
X702222Y564720D01*
X702321Y564630D01*
X702414Y564533D01*
X702448Y564511D01*
X702478Y564484D01*
X702687Y564356D01*
X703958Y563707D01*
X705285Y562744D01*
X706444Y561585D01*
X707408Y560258D01*
X708152Y558798D01*
X708658Y557239D01*
X708728Y556799D01*
X698976Y556799D01*
X698950Y556796D01*
X698924Y556798D01*
X698777Y556776D01*
X698630Y556759D01*
X698605Y556751D01*
X698579Y556747D01*
X698498Y556714D01*
X698460Y556725D01*
X698319Y556770D01*
X698293Y556772D01*
X698268Y556780D01*
X698024Y556799D01*
X688272Y556799D01*
X688342Y557239D01*
X688848Y558798D01*
X689592Y560258D01*
X690556Y561585D01*
X691715Y562744D01*
X693042Y563707D01*
X694313Y564356D01*
X694347Y564378D01*
X694385Y564394D01*
X694492Y564474D01*
X694604Y564548D01*
X694632Y564578D01*
X694664Y564602D01*
X694751Y564704D01*
X694843Y564802D01*
X694863Y564837D01*
X694890Y564868D01*
X694951Y564987D01*
X695018Y565103D01*
X695030Y565142D01*
X695048Y565178D01*
X695081Y565308D01*
X695120Y565436D01*
X695123Y565477D01*
X695132Y565517D01*
X695134Y565651D01*
X695143Y565784D01*
X695137Y565824D01*
X695138Y565865D01*
X695109Y565996D01*
X695087Y566128D01*
X695072Y566166D01*
X695063Y566206D01*
X695006Y566326D01*
X694955Y566450D01*
X694931Y566484D01*
X694913Y566520D01*
X694830Y566625D01*
X694752Y566734D01*
X694721Y566761D01*
X694696Y566793D01*
X694591Y566876D01*
X694490Y566964D01*
X694455Y566983D01*
X694423Y567009D01*
X694205Y567120D01*
X692241Y567933D01*
X689133Y571041D01*
X687451Y575102D01*
X687451Y578068D01*
X687440Y578168D01*
X687438Y578268D01*
X687420Y578341D01*
X687411Y578415D01*
X687378Y578509D01*
X687353Y578606D01*
X687319Y578673D01*
X687294Y578743D01*
X687239Y578827D01*
X687193Y578916D01*
X687145Y578973D01*
X687105Y579035D01*
X687033Y579105D01*
X686968Y579182D01*
X686908Y579226D01*
X686854Y579278D01*
X686768Y579329D01*
X686687Y579389D01*
X686619Y579418D01*
X686555Y579456D01*
X686459Y579487D01*
X686367Y579527D01*
X686294Y579540D01*
X686223Y579563D01*
X686123Y579571D01*
X686024Y579589D01*
X685950Y579585D01*
X685876Y579591D01*
X685776Y579576D01*
X685676Y579571D01*
X685605Y579550D01*
X685531Y579539D01*
X685438Y579502D01*
X685341Y579474D01*
X685276Y579438D01*
X685207Y579410D01*
X685125Y579353D01*
X685037Y579304D01*
X684961Y579239D01*
X684921Y579211D01*
X684897Y579185D01*
X684851Y579145D01*
X476975Y371270D01*
X476882Y371152D01*
X476784Y371037D01*
X476773Y371015D01*
X476758Y370997D01*
X476694Y370860D01*
X476626Y370727D01*
X476620Y370703D01*
X476609Y370681D01*
X476578Y370534D01*
X476542Y370389D01*
X476541Y370364D01*
X476536Y370341D01*
X476539Y370191D01*
X476536Y370040D01*
X476542Y370016D01*
X476542Y369992D01*
X476579Y369847D01*
X476611Y369700D01*
X476621Y369678D01*
X476627Y369654D01*
X476696Y369520D01*
X476761Y369385D01*
X476776Y369366D01*
X476787Y369344D01*
X476884Y369230D01*
X476978Y369112D01*
X476997Y369097D01*
X477013Y369079D01*
X477134Y368990D01*
X477251Y368897D01*
X477277Y368883D01*
X477293Y368872D01*
X477336Y368853D01*
X477469Y368785D01*
X480761Y367422D01*
X484262Y363921D01*
X485551Y360808D01*
X485629Y360668D01*
X485704Y360527D01*
X485713Y360516D01*
X485720Y360503D01*
X485828Y360385D01*
X485933Y360264D01*
X485945Y360256D01*
X485955Y360245D01*
X486087Y360154D01*
X486216Y360061D01*
X486229Y360055D01*
X486241Y360047D01*
X486390Y359988D01*
X486538Y359927D01*
X486552Y359925D01*
X486565Y359919D01*
X486724Y359896D01*
X486881Y359870D01*
X486896Y359871D01*
X486910Y359868D01*
X487070Y359882D01*
X487229Y359892D01*
X487243Y359896D01*
X487258Y359897D01*
X487410Y359947D01*
X487563Y359993D01*
X487575Y360000D01*
X487589Y360004D01*
X487726Y360087D01*
X487865Y360167D01*
X487875Y360177D01*
X487888Y360184D01*
X488002Y360295D01*
X488119Y360405D01*
X488127Y360417D01*
X488138Y360427D01*
X488224Y360562D01*
X488313Y360695D01*
X488320Y360710D01*
X488326Y360720D01*
X488339Y360757D01*
X488407Y360920D01*
X488517Y361258D01*
X489334Y362861D01*
X490391Y364317D01*
X491663Y365589D01*
X493119Y366646D01*
X494722Y367463D01*
X496433Y368019D01*
X496571Y368041D01*
X496571Y357886D01*
X496574Y357860D01*
X496572Y357834D01*
X496594Y357687D01*
X496611Y357540D01*
X496619Y357515D01*
X496623Y357489D01*
X496678Y357352D01*
X496728Y357212D01*
X496742Y357190D01*
X496752Y357165D01*
X496837Y357044D01*
X496917Y356919D01*
X496936Y356901D01*
X496951Y356879D01*
X497061Y356780D01*
X497168Y356677D01*
X497190Y356663D01*
X497210Y356646D01*
X497340Y356574D01*
X497467Y356498D01*
X497492Y356490D01*
X497515Y356477D01*
X497658Y356437D01*
X497799Y356392D01*
X497825Y356390D01*
X497850Y356383D01*
X498094Y356363D01*
X500126Y356363D01*
X500152Y356366D01*
X500178Y356364D01*
X500325Y356386D01*
X500472Y356403D01*
X500497Y356412D01*
X500523Y356416D01*
X500661Y356470D01*
X500800Y356520D01*
X500822Y356535D01*
X500847Y356544D01*
X500968Y356629D01*
X501093Y356709D01*
X501111Y356728D01*
X501133Y356743D01*
X501232Y356853D01*
X501335Y356960D01*
X501349Y356983D01*
X501366Y357002D01*
X501438Y357132D01*
X501514Y357259D01*
X501522Y357284D01*
X501535Y357307D01*
X501575Y357450D01*
X501620Y357591D01*
X501622Y357617D01*
X501630Y357642D01*
X501649Y357886D01*
X501649Y368041D01*
X501787Y368019D01*
X503498Y367463D01*
X505101Y366646D01*
X506557Y365589D01*
X507829Y364317D01*
X508886Y362861D01*
X509703Y361258D01*
X509813Y360920D01*
X509879Y360776D01*
X509943Y360628D01*
X509952Y360616D01*
X509958Y360603D01*
X510055Y360478D01*
X510151Y360348D01*
X510162Y360339D01*
X510171Y360328D01*
X510295Y360227D01*
X510417Y360123D01*
X510430Y360117D01*
X510441Y360108D01*
X510584Y360038D01*
X510727Y359964D01*
X510742Y359961D01*
X510754Y359955D01*
X510910Y359919D01*
X511066Y359880D01*
X511080Y359880D01*
X511094Y359877D01*
X511254Y359878D01*
X511414Y359875D01*
X511428Y359878D01*
X511443Y359879D01*
X511598Y359915D01*
X511755Y359950D01*
X511768Y359956D01*
X511782Y359959D01*
X511925Y360031D01*
X512069Y360099D01*
X512081Y360108D01*
X512094Y360115D01*
X512217Y360217D01*
X512342Y360317D01*
X512351Y360328D01*
X512362Y360337D01*
X512459Y360465D01*
X512558Y360590D01*
X512565Y360606D01*
X512572Y360615D01*
X512588Y360650D01*
X512669Y360808D01*
X513958Y363921D01*
X517459Y367422D01*
X522034Y369317D01*
X526986Y369317D01*
X531561Y367422D01*
X535062Y363921D01*
X536957Y359346D01*
X536957Y354394D01*
X535593Y351103D01*
X535552Y350958D01*
X535506Y350815D01*
X535504Y350791D01*
X535498Y350768D01*
X535490Y350617D01*
X535478Y350468D01*
X535482Y350444D01*
X535481Y350420D01*
X535508Y350272D01*
X535530Y350123D01*
X535539Y350101D01*
X535543Y350077D01*
X535603Y349939D01*
X535659Y349799D01*
X535673Y349779D01*
X535682Y349757D01*
X535772Y349636D01*
X535858Y349513D01*
X535876Y349497D01*
X535890Y349477D01*
X536005Y349380D01*
X536116Y349280D01*
X536138Y349268D01*
X536156Y349252D01*
X536290Y349184D01*
X536422Y349111D01*
X536445Y349105D01*
X536466Y349094D01*
X536612Y349057D01*
X536757Y349016D01*
X536786Y349014D01*
X536805Y349009D01*
X536852Y349009D01*
X537001Y348997D01*
X632699Y348997D01*
X632825Y349011D01*
X632951Y349018D01*
X632997Y349031D01*
X633045Y349037D01*
X633164Y349079D01*
X633286Y349114D01*
X633328Y349138D01*
X633373Y349154D01*
X633480Y349223D01*
X633590Y349284D01*
X633636Y349324D01*
X633666Y349343D01*
X633700Y349378D01*
X633776Y349443D01*
X850805Y566472D01*
X850884Y566571D01*
X850968Y566665D01*
X850992Y566707D01*
X851022Y566745D01*
X851076Y566859D01*
X851137Y566970D01*
X851150Y567016D01*
X851171Y567060D01*
X851197Y567183D01*
X851232Y567305D01*
X851237Y567366D01*
X851244Y567401D01*
X851243Y567449D01*
X851251Y567549D01*
X851251Y581763D01*
X853037Y583549D01*
X867795Y583549D01*
X867871Y583557D01*
X867948Y583556D01*
X868044Y583577D01*
X868141Y583589D01*
X868213Y583614D01*
X868288Y583631D01*
X868377Y583673D01*
X868470Y583706D01*
X868534Y583748D01*
X868603Y583780D01*
X868680Y583842D01*
X868762Y583895D01*
X868815Y583950D01*
X868875Y583998D01*
X868936Y584075D01*
X869005Y584146D01*
X869044Y584211D01*
X869091Y584271D01*
X869159Y584404D01*
X869183Y584445D01*
X869189Y584463D01*
X869203Y584489D01*
X869471Y585138D01*
X1041305Y756972D01*
X1041384Y757071D01*
X1041468Y757165D01*
X1041492Y757207D01*
X1041522Y757245D01*
X1041576Y757359D01*
X1041637Y757470D01*
X1041650Y757516D01*
X1041671Y757560D01*
X1041697Y757683D01*
X1041732Y757805D01*
X1041737Y757866D01*
X1041744Y757901D01*
X1041743Y757949D01*
X1041751Y758049D01*
X1041751Y772263D01*
X1043537Y774049D01*
X1062063Y774049D01*
X1063849Y772263D01*
X1063849Y751737D01*
X1062063Y749951D01*
X1047849Y749951D01*
X1047723Y749937D01*
X1047597Y749930D01*
X1047551Y749917D01*
X1047503Y749911D01*
X1047384Y749869D01*
X1047262Y749834D01*
X1047220Y749810D01*
X1047175Y749794D01*
X1047068Y749725D01*
X1046958Y749664D01*
X1046912Y749624D01*
X1046882Y749605D01*
X1046848Y749570D01*
X1046772Y749505D01*
X883416Y586149D01*
X883354Y586071D01*
X883284Y585998D01*
X883245Y585934D01*
X883199Y585876D01*
X883156Y585785D01*
X883105Y585699D01*
X883082Y585628D01*
X883050Y585561D01*
X883029Y585463D01*
X882999Y585367D01*
X882993Y585293D01*
X882977Y585220D01*
X882979Y585120D01*
X882971Y585020D01*
X882982Y584946D01*
X882983Y584872D01*
X883007Y584775D01*
X883022Y584675D01*
X883050Y584606D01*
X883068Y584534D01*
X883114Y584444D01*
X883151Y584351D01*
X883193Y584290D01*
X883228Y584224D01*
X883293Y584147D01*
X883350Y584065D01*
X883405Y584015D01*
X883453Y583959D01*
X883534Y583899D01*
X883609Y583832D01*
X883674Y583796D01*
X883734Y583751D01*
X883826Y583712D01*
X883914Y583663D01*
X883985Y583643D01*
X884054Y583613D01*
X884152Y583596D01*
X884249Y583568D01*
X884349Y583560D01*
X884397Y583552D01*
X884432Y583554D01*
X884493Y583549D01*
X899563Y583549D01*
X901349Y581763D01*
X901349Y561237D01*
X899563Y559451D01*
X895096Y559451D01*
X895070Y559448D01*
X895044Y559450D01*
X894897Y559428D01*
X894750Y559411D01*
X894725Y559403D01*
X894699Y559399D01*
X894561Y559344D01*
X894422Y559294D01*
X894400Y559280D01*
X894375Y559270D01*
X894254Y559185D01*
X894129Y559105D01*
X894111Y559086D01*
X894089Y559071D01*
X893990Y558961D01*
X893887Y558854D01*
X893873Y558832D01*
X893856Y558812D01*
X893784Y558682D01*
X893708Y558555D01*
X893700Y558530D01*
X893687Y558507D01*
X893647Y558364D01*
X893602Y558223D01*
X893600Y558197D01*
X893592Y558172D01*
X893573Y557928D01*
X893573Y548625D01*
X893587Y548499D01*
X893594Y548373D01*
X893607Y548327D01*
X893613Y548279D01*
X893655Y548160D01*
X893690Y548038D01*
X893714Y547996D01*
X893730Y547951D01*
X893799Y547844D01*
X893860Y547734D01*
X893900Y547688D01*
X893919Y547658D01*
X893954Y547624D01*
X894019Y547548D01*
X901767Y539800D01*
X902463Y538120D01*
X902463Y536196D01*
X902471Y536120D01*
X902470Y536044D01*
X902491Y535948D01*
X902503Y535850D01*
X902528Y535778D01*
X902545Y535703D01*
X902587Y535615D01*
X902620Y535522D01*
X902662Y535458D01*
X902694Y535389D01*
X902756Y535312D01*
X902809Y535229D01*
X902864Y535176D01*
X902912Y535116D01*
X902989Y535055D01*
X903060Y534987D01*
X903125Y534948D01*
X903185Y534900D01*
X903319Y534832D01*
X903359Y534808D01*
X903377Y534802D01*
X903403Y534789D01*
X904365Y534390D01*
X907580Y531175D01*
X909321Y526974D01*
X909321Y522426D01*
X907580Y518225D01*
X904365Y515010D01*
X903498Y514651D01*
X903411Y514602D01*
X903319Y514562D01*
X903259Y514517D01*
X903194Y514481D01*
X903120Y514414D01*
X903039Y514354D01*
X902991Y514297D01*
X902936Y514247D01*
X902879Y514165D01*
X902814Y514088D01*
X902780Y514022D01*
X902738Y513960D01*
X902701Y513867D01*
X902655Y513778D01*
X902637Y513705D01*
X902610Y513636D01*
X902595Y513537D01*
X902571Y513439D01*
X902570Y513365D01*
X902559Y513291D01*
X902567Y513191D01*
X902566Y513091D01*
X902582Y513018D01*
X902588Y512944D01*
X902619Y512849D01*
X902640Y512750D01*
X902672Y512683D01*
X902695Y512612D01*
X902747Y512526D01*
X902790Y512436D01*
X902836Y512378D01*
X902875Y512314D01*
X902945Y512242D01*
X903007Y512163D01*
X903066Y512117D01*
X903117Y512064D01*
X903202Y512010D01*
X903281Y511947D01*
X903370Y511902D01*
X903411Y511876D01*
X903444Y511864D01*
X903498Y511836D01*
X904149Y511567D01*
X907257Y508459D01*
X908939Y504398D01*
X908939Y500002D01*
X907257Y495941D01*
X904149Y492833D01*
X900088Y491151D01*
X895692Y491151D01*
X891631Y492833D01*
X888523Y495941D01*
X886841Y500002D01*
X886841Y504398D01*
X888523Y508459D01*
X891631Y511567D01*
X892282Y511836D01*
X892369Y511885D01*
X892461Y511925D01*
X892521Y511969D01*
X892586Y512005D01*
X892661Y512073D01*
X892741Y512133D01*
X892789Y512189D01*
X892844Y512239D01*
X892901Y512322D01*
X892966Y512399D01*
X893000Y512465D01*
X893043Y512526D01*
X893079Y512620D01*
X893125Y512709D01*
X893143Y512781D01*
X893170Y512850D01*
X893185Y512950D01*
X893209Y513047D01*
X893210Y513121D01*
X893221Y513195D01*
X893213Y513295D01*
X893214Y513396D01*
X893198Y513468D01*
X893192Y513542D01*
X893161Y513638D01*
X893140Y513736D01*
X893108Y513803D01*
X893085Y513874D01*
X893033Y513960D01*
X892990Y514051D01*
X892944Y514109D01*
X892905Y514173D01*
X892835Y514245D01*
X892773Y514323D01*
X892715Y514369D01*
X892663Y514423D01*
X892578Y514477D01*
X892499Y514539D01*
X892410Y514585D01*
X892369Y514611D01*
X892336Y514623D01*
X892282Y514651D01*
X891415Y515010D01*
X888200Y518225D01*
X886459Y522426D01*
X886459Y526974D01*
X888200Y531175D01*
X891448Y534424D01*
X891573Y534488D01*
X891592Y534504D01*
X891613Y534516D01*
X891724Y534617D01*
X891839Y534714D01*
X891853Y534733D01*
X891871Y534750D01*
X891956Y534873D01*
X892046Y534994D01*
X892055Y535017D01*
X892069Y535036D01*
X892124Y535176D01*
X892184Y535314D01*
X892188Y535338D01*
X892197Y535361D01*
X892219Y535509D01*
X892246Y535657D01*
X892244Y535681D01*
X892248Y535705D01*
X892235Y535855D01*
X892228Y536005D01*
X892221Y536029D01*
X892219Y536053D01*
X892173Y536195D01*
X892131Y536340D01*
X892119Y536361D01*
X892112Y536384D01*
X892035Y536513D01*
X891961Y536644D01*
X891942Y536667D01*
X891932Y536683D01*
X891899Y536717D01*
X891802Y536831D01*
X886624Y542009D01*
X885123Y543510D01*
X884427Y545190D01*
X884427Y557928D01*
X884424Y557954D01*
X884426Y557980D01*
X884404Y558127D01*
X884387Y558274D01*
X884379Y558299D01*
X884375Y558325D01*
X884320Y558463D01*
X884270Y558602D01*
X884256Y558624D01*
X884246Y558649D01*
X884161Y558770D01*
X884081Y558895D01*
X884062Y558913D01*
X884047Y558935D01*
X883938Y559034D01*
X883830Y559137D01*
X883808Y559151D01*
X883788Y559168D01*
X883658Y559240D01*
X883531Y559316D01*
X883506Y559324D01*
X883483Y559337D01*
X883340Y559377D01*
X883199Y559422D01*
X883173Y559424D01*
X883148Y559432D01*
X882904Y559451D01*
X881037Y559451D01*
X880189Y560300D01*
X880071Y560393D01*
X879956Y560490D01*
X879935Y560501D01*
X879916Y560516D01*
X879780Y560581D01*
X879646Y560649D01*
X879622Y560655D01*
X879601Y560665D01*
X879454Y560697D01*
X879308Y560733D01*
X879284Y560734D01*
X879260Y560739D01*
X879110Y560736D01*
X878959Y560738D01*
X878936Y560733D01*
X878911Y560733D01*
X878766Y560696D01*
X878619Y560664D01*
X878597Y560654D01*
X878574Y560648D01*
X878440Y560579D01*
X878304Y560514D01*
X878285Y560499D01*
X878264Y560488D01*
X878149Y560391D01*
X878032Y560297D01*
X878017Y560278D01*
X877998Y560262D01*
X877909Y560141D01*
X877816Y560023D01*
X877802Y559997D01*
X877791Y559982D01*
X877773Y559939D01*
X877704Y559806D01*
X877225Y558647D01*
X644901Y326323D01*
X643220Y325627D01*
X387271Y325627D01*
X387171Y325616D01*
X387071Y325614D01*
X386999Y325596D01*
X386925Y325587D01*
X386830Y325554D01*
X386733Y325529D01*
X386667Y325495D01*
X386597Y325470D01*
X386512Y325415D01*
X386423Y325369D01*
X386366Y325321D01*
X386304Y325281D01*
X386234Y325209D01*
X386158Y325144D01*
X386113Y325084D01*
X386062Y325030D01*
X386010Y324944D01*
X385950Y324863D01*
X385921Y324795D01*
X385883Y324731D01*
X385852Y324636D01*
X385812Y324543D01*
X385799Y324470D01*
X385777Y324399D01*
X385768Y324299D01*
X385751Y324200D01*
X385755Y324126D01*
X385749Y324052D01*
X385763Y323953D01*
X385769Y323852D01*
X385789Y323781D01*
X385800Y323707D01*
X385837Y323614D01*
X385865Y323517D01*
X385902Y323452D01*
X385929Y323383D01*
X385986Y323301D01*
X386035Y323213D01*
X386100Y323137D01*
X386128Y323097D01*
X386154Y323073D01*
X386194Y323027D01*
X386702Y322519D01*
X386801Y322440D01*
X386895Y322356D01*
X386937Y322332D01*
X386975Y322302D01*
X387089Y322248D01*
X387200Y322187D01*
X387246Y322174D01*
X387290Y322153D01*
X387414Y322127D01*
X387535Y322092D01*
X387596Y322087D01*
X387631Y322080D01*
X387679Y322081D01*
X387779Y322073D01*
X645175Y322073D01*
X645301Y322087D01*
X645427Y322094D01*
X645473Y322107D01*
X645521Y322113D01*
X645640Y322155D01*
X645762Y322190D01*
X645804Y322214D01*
X645849Y322230D01*
X645956Y322299D01*
X646066Y322360D01*
X646112Y322400D01*
X646142Y322419D01*
X646176Y322454D01*
X646252Y322519D01*
X695910Y372177D01*
X697590Y372873D01*
X843965Y372873D01*
X844091Y372887D01*
X844217Y372894D01*
X844263Y372907D01*
X844311Y372913D01*
X844430Y372955D01*
X844552Y372990D01*
X844594Y373014D01*
X844639Y373030D01*
X844746Y373099D01*
X844856Y373160D01*
X844902Y373200D01*
X844932Y373219D01*
X844966Y373254D01*
X845042Y373319D01*
X881823Y410100D01*
X881902Y410199D01*
X881986Y410293D01*
X882010Y410335D01*
X882040Y410373D01*
X882094Y410487D01*
X882155Y410598D01*
X882168Y410644D01*
X882189Y410688D01*
X882215Y410811D01*
X882250Y410933D01*
X882255Y410994D01*
X882262Y411029D01*
X882261Y411077D01*
X882269Y411177D01*
X882269Y417686D01*
X882965Y419367D01*
X890723Y427125D01*
X892404Y427821D01*
X898913Y427821D01*
X899039Y427835D01*
X899165Y427842D01*
X899211Y427855D01*
X899259Y427861D01*
X899378Y427903D01*
X899500Y427938D01*
X899542Y427962D01*
X899587Y427978D01*
X899694Y428047D01*
X899804Y428108D01*
X899850Y428148D01*
X899880Y428167D01*
X899914Y428202D01*
X899990Y428267D01*
X947181Y475458D01*
X947228Y475517D01*
X947283Y475571D01*
X947336Y475653D01*
X947397Y475731D01*
X947430Y475800D01*
X947471Y475864D01*
X947504Y475957D01*
X947546Y476046D01*
X947562Y476120D01*
X947588Y476192D01*
X947599Y476290D01*
X947620Y476386D01*
X947618Y476463D01*
X947627Y476539D01*
X947615Y476637D01*
X947614Y476735D01*
X947595Y476809D01*
X947586Y476885D01*
X947540Y477027D01*
X947529Y477073D01*
X947520Y477090D01*
X947511Y477118D01*
X946546Y479446D01*
X946546Y484954D01*
X948654Y490042D01*
X952548Y493936D01*
X957636Y496044D01*
X963144Y496044D01*
X968232Y493936D01*
X970061Y492107D01*
X970082Y492090D01*
X970099Y492070D01*
X970219Y491982D01*
X970334Y491890D01*
X970358Y491879D01*
X970379Y491863D01*
X970515Y491804D01*
X970649Y491741D01*
X970675Y491736D01*
X970699Y491725D01*
X970845Y491699D01*
X970990Y491668D01*
X971016Y491668D01*
X971042Y491664D01*
X971191Y491671D01*
X971339Y491674D01*
X971364Y491680D01*
X971390Y491681D01*
X971533Y491722D01*
X971677Y491759D01*
X971700Y491771D01*
X971725Y491778D01*
X971854Y491850D01*
X971986Y491918D01*
X972006Y491935D01*
X972029Y491948D01*
X972216Y492107D01*
X1072333Y592225D01*
X1074014Y592921D01*
X1080523Y592921D01*
X1080649Y592935D01*
X1080775Y592942D01*
X1080821Y592955D01*
X1080869Y592961D01*
X1080988Y593003D01*
X1081110Y593038D01*
X1081152Y593062D01*
X1081197Y593078D01*
X1081304Y593147D01*
X1081414Y593208D01*
X1081460Y593248D01*
X1081490Y593267D01*
X1081524Y593302D01*
X1081600Y593367D01*
X1128791Y640557D01*
X1128838Y640617D01*
X1128893Y640671D01*
X1128946Y640753D01*
X1129007Y640830D01*
X1129040Y640900D01*
X1129081Y640964D01*
X1129114Y641057D01*
X1129156Y641146D01*
X1129172Y641220D01*
X1129198Y641292D01*
X1129209Y641390D01*
X1129230Y641486D01*
X1129228Y641563D01*
X1129237Y641639D01*
X1129225Y641737D01*
X1129224Y641835D01*
X1129205Y641909D01*
X1129196Y641985D01*
X1129150Y642127D01*
X1129139Y642173D01*
X1129130Y642190D01*
X1129121Y642217D01*
X1128156Y644546D01*
X1128156Y650054D01*
X1130264Y655142D01*
X1134158Y659036D01*
X1139246Y661144D01*
X1144754Y661144D01*
X1149842Y659036D01*
X1153736Y655142D01*
X1155844Y650054D01*
X1155844Y644546D01*
X1153736Y639458D01*
X1149842Y635564D01*
X1144754Y633456D01*
X1139246Y633456D01*
X1136917Y634421D01*
X1136844Y634442D01*
X1136774Y634472D01*
X1136677Y634490D01*
X1136582Y634517D01*
X1136506Y634520D01*
X1136431Y634534D01*
X1136332Y634529D01*
X1136234Y634534D01*
X1136159Y634520D01*
X1136083Y634516D01*
X1135988Y634489D01*
X1135891Y634471D01*
X1135821Y634440D01*
X1135748Y634419D01*
X1135662Y634371D01*
X1135572Y634332D01*
X1135510Y634286D01*
X1135444Y634249D01*
X1135330Y634152D01*
X1135292Y634124D01*
X1135280Y634110D01*
X1135257Y634091D01*
X1087873Y586706D01*
X1087857Y586686D01*
X1087837Y586669D01*
X1087749Y586549D01*
X1087657Y586433D01*
X1087645Y586410D01*
X1087630Y586388D01*
X1087571Y586252D01*
X1087508Y586118D01*
X1087502Y586093D01*
X1087492Y586068D01*
X1087465Y585922D01*
X1087434Y585777D01*
X1087435Y585751D01*
X1087430Y585725D01*
X1087438Y585577D01*
X1087440Y585429D01*
X1087447Y585404D01*
X1087448Y585377D01*
X1087489Y585235D01*
X1087525Y585091D01*
X1087537Y585068D01*
X1087545Y585043D01*
X1087617Y584913D01*
X1087685Y584781D01*
X1087702Y584761D01*
X1087715Y584738D01*
X1087873Y584552D01*
X1088867Y583559D01*
X1090549Y579498D01*
X1090549Y575102D01*
X1088867Y571041D01*
X1085759Y567933D01*
X1083795Y567120D01*
X1083760Y567100D01*
X1083721Y567087D01*
X1083608Y567016D01*
X1083491Y566951D01*
X1083460Y566923D01*
X1083426Y566902D01*
X1083332Y566807D01*
X1083232Y566717D01*
X1083209Y566683D01*
X1083181Y566654D01*
X1083110Y566540D01*
X1083034Y566430D01*
X1083019Y566392D01*
X1082998Y566357D01*
X1082955Y566230D01*
X1082906Y566106D01*
X1082900Y566065D01*
X1082888Y566027D01*
X1082875Y565893D01*
X1082856Y565761D01*
X1082859Y565720D01*
X1082855Y565680D01*
X1082873Y565547D01*
X1082885Y565414D01*
X1082897Y565375D01*
X1082903Y565335D01*
X1082950Y565210D01*
X1082992Y565082D01*
X1083013Y565047D01*
X1083027Y565009D01*
X1083102Y564898D01*
X1083171Y564783D01*
X1083200Y564754D01*
X1083222Y564720D01*
X1083321Y564630D01*
X1083414Y564533D01*
X1083448Y564511D01*
X1083478Y564484D01*
X1083687Y564356D01*
X1084958Y563707D01*
X1086285Y562744D01*
X1087444Y561585D01*
X1088408Y560258D01*
X1089152Y558798D01*
X1089658Y557239D01*
X1089728Y556799D01*
X1079976Y556799D01*
X1079950Y556796D01*
X1079924Y556798D01*
X1079777Y556776D01*
X1079630Y556759D01*
X1079605Y556751D01*
X1079579Y556747D01*
X1079498Y556714D01*
X1079460Y556725D01*
X1079319Y556770D01*
X1079293Y556772D01*
X1079268Y556780D01*
X1079024Y556799D01*
X1069272Y556799D01*
X1069342Y557239D01*
X1069848Y558798D01*
X1070592Y560258D01*
X1071556Y561585D01*
X1072715Y562744D01*
X1074042Y563707D01*
X1075313Y564356D01*
X1075347Y564378D01*
X1075385Y564394D01*
X1075492Y564474D01*
X1075604Y564548D01*
X1075632Y564578D01*
X1075664Y564602D01*
X1075751Y564704D01*
X1075843Y564802D01*
X1075863Y564837D01*
X1075890Y564868D01*
X1075951Y564987D01*
X1076018Y565103D01*
X1076030Y565142D01*
X1076048Y565178D01*
X1076081Y565308D01*
X1076120Y565436D01*
X1076123Y565477D01*
X1076132Y565517D01*
X1076134Y565651D01*
X1076143Y565784D01*
X1076137Y565824D01*
X1076138Y565865D01*
X1076109Y565996D01*
X1076087Y566128D01*
X1076072Y566166D01*
X1076063Y566206D01*
X1076006Y566326D01*
X1075955Y566450D01*
X1075931Y566484D01*
X1075913Y566520D01*
X1075830Y566625D01*
X1075752Y566734D01*
X1075721Y566761D01*
X1075696Y566793D01*
X1075591Y566876D01*
X1075490Y566964D01*
X1075455Y566983D01*
X1075423Y567009D01*
X1075205Y567120D01*
X1073241Y567933D01*
X1070133Y571041D01*
X1069234Y573213D01*
X1069161Y573344D01*
X1069092Y573478D01*
X1069076Y573496D01*
X1069065Y573517D01*
X1068964Y573629D01*
X1068866Y573743D01*
X1068847Y573758D01*
X1068830Y573776D01*
X1068707Y573861D01*
X1068586Y573950D01*
X1068564Y573960D01*
X1068544Y573974D01*
X1068404Y574029D01*
X1068266Y574088D01*
X1068242Y574093D01*
X1068220Y574102D01*
X1068071Y574123D01*
X1067923Y574150D01*
X1067899Y574149D01*
X1067875Y574152D01*
X1067725Y574140D01*
X1067575Y574132D01*
X1067552Y574125D01*
X1067527Y574123D01*
X1067384Y574077D01*
X1067240Y574036D01*
X1067219Y574024D01*
X1067196Y574016D01*
X1067067Y573939D01*
X1066936Y573865D01*
X1066914Y573847D01*
X1066897Y573837D01*
X1066863Y573804D01*
X1066750Y573707D01*
X979252Y486209D01*
X979173Y486110D01*
X979089Y486016D01*
X979065Y485974D01*
X979035Y485936D01*
X978981Y485822D01*
X978920Y485711D01*
X978907Y485665D01*
X978886Y485621D01*
X978860Y485498D01*
X978825Y485376D01*
X978820Y485315D01*
X978813Y485280D01*
X978814Y485232D01*
X978806Y485132D01*
X978806Y472009D01*
X978110Y470328D01*
X954624Y446843D01*
X954554Y446754D01*
X954546Y446746D01*
X954542Y446739D01*
X954522Y446714D01*
X954418Y446586D01*
X954414Y446578D01*
X954408Y446570D01*
X954337Y446421D01*
X954265Y446273D01*
X954263Y446264D01*
X954259Y446255D01*
X954224Y446096D01*
X954187Y445934D01*
X954187Y445924D01*
X954185Y445914D01*
X954188Y445751D01*
X954189Y445585D01*
X954191Y445576D01*
X954191Y445566D01*
X954231Y445406D01*
X954270Y445246D01*
X954274Y445237D01*
X954276Y445228D01*
X954353Y445079D01*
X954425Y444934D01*
X954431Y444927D01*
X954436Y444918D01*
X954543Y444793D01*
X954648Y444666D01*
X954656Y444660D01*
X954662Y444653D01*
X954794Y444555D01*
X954925Y444455D01*
X954934Y444451D01*
X954942Y444446D01*
X955092Y444381D01*
X955244Y444313D01*
X955253Y444311D01*
X955262Y444308D01*
X955423Y444279D01*
X955586Y444247D01*
X955596Y444248D01*
X955605Y444246D01*
X955770Y444254D01*
X955934Y444261D01*
X955945Y444263D01*
X955953Y444264D01*
X955982Y444272D01*
X956172Y444317D01*
X957386Y444712D01*
X957391Y444713D01*
X957391Y435199D01*
X947877Y435199D01*
X947878Y435204D01*
X948273Y436418D01*
X948305Y436579D01*
X948340Y436740D01*
X948340Y436750D01*
X948342Y436760D01*
X948337Y436925D01*
X948334Y437089D01*
X948332Y437098D01*
X948331Y437108D01*
X948289Y437266D01*
X948249Y437427D01*
X948244Y437436D01*
X948242Y437445D01*
X948165Y437590D01*
X948089Y437737D01*
X948083Y437744D01*
X948079Y437753D01*
X947970Y437877D01*
X947863Y438002D01*
X947856Y438008D01*
X947849Y438015D01*
X947716Y438111D01*
X947583Y438209D01*
X947574Y438213D01*
X947566Y438219D01*
X947414Y438282D01*
X947263Y438347D01*
X947254Y438349D01*
X947245Y438353D01*
X947082Y438380D01*
X946920Y438409D01*
X946910Y438408D01*
X946901Y438410D01*
X946736Y438399D01*
X946572Y438391D01*
X946563Y438388D01*
X946553Y438388D01*
X946395Y438340D01*
X946237Y438294D01*
X946229Y438290D01*
X946220Y438287D01*
X946076Y438204D01*
X945933Y438124D01*
X945924Y438117D01*
X945918Y438113D01*
X945895Y438092D01*
X945747Y437966D01*
X906535Y398754D01*
X906094Y398313D01*
X906044Y398249D01*
X905986Y398192D01*
X905935Y398113D01*
X905877Y398040D01*
X905843Y397967D01*
X905799Y397898D01*
X905768Y397809D01*
X905728Y397725D01*
X905711Y397645D01*
X905685Y397569D01*
X905675Y397476D01*
X905655Y397384D01*
X905656Y397303D01*
X905648Y397222D01*
X905659Y397129D01*
X905661Y397036D01*
X905681Y396957D01*
X905691Y396876D01*
X905723Y396788D01*
X905746Y396698D01*
X905783Y396626D01*
X905811Y396549D01*
X905883Y396432D01*
X905906Y396388D01*
X905920Y396371D01*
X905939Y396340D01*
X906798Y395158D01*
X907542Y393698D01*
X908048Y392139D01*
X908118Y391699D01*
X898366Y391699D01*
X898340Y391696D01*
X898314Y391698D01*
X898167Y391676D01*
X898020Y391659D01*
X897995Y391651D01*
X897969Y391647D01*
X897832Y391592D01*
X897692Y391542D01*
X897670Y391528D01*
X897645Y391518D01*
X897524Y391433D01*
X897399Y391353D01*
X897381Y391334D01*
X897359Y391319D01*
X897260Y391209D01*
X897157Y391102D01*
X897143Y391080D01*
X897126Y391060D01*
X897054Y390930D01*
X896978Y390803D01*
X896970Y390778D01*
X896957Y390755D01*
X896930Y390660D01*
X896879Y390640D01*
X896740Y390590D01*
X896718Y390575D01*
X896693Y390566D01*
X896572Y390481D01*
X896447Y390401D01*
X896429Y390382D01*
X896407Y390367D01*
X896308Y390257D01*
X896205Y390150D01*
X896191Y390127D01*
X896174Y390108D01*
X896102Y389978D01*
X896026Y389851D01*
X896018Y389826D01*
X896005Y389803D01*
X895965Y389660D01*
X895920Y389519D01*
X895917Y389493D01*
X895910Y389468D01*
X895891Y389224D01*
X895891Y379472D01*
X895451Y379542D01*
X893892Y380048D01*
X892432Y380792D01*
X891105Y381756D01*
X889946Y382915D01*
X888983Y384241D01*
X888728Y384741D01*
X888678Y384817D01*
X888636Y384898D01*
X888582Y384962D01*
X888535Y385032D01*
X888469Y385094D01*
X888410Y385163D01*
X888343Y385213D01*
X888282Y385271D01*
X888203Y385316D01*
X888130Y385370D01*
X888053Y385403D01*
X887980Y385446D01*
X887893Y385472D01*
X887810Y385508D01*
X887727Y385523D01*
X887647Y385548D01*
X887556Y385554D01*
X887467Y385570D01*
X887383Y385566D01*
X887299Y385571D01*
X887210Y385557D01*
X887119Y385552D01*
X887038Y385529D01*
X886955Y385515D01*
X886871Y385481D01*
X886784Y385455D01*
X886711Y385414D01*
X886633Y385382D01*
X886559Y385330D01*
X886480Y385285D01*
X886390Y385209D01*
X886349Y385180D01*
X886330Y385158D01*
X886294Y385127D01*
X854391Y353224D01*
X852890Y351723D01*
X851210Y351027D01*
X701025Y351027D01*
X700899Y351013D01*
X700773Y351006D01*
X700727Y350993D01*
X700679Y350987D01*
X700560Y350945D01*
X700438Y350910D01*
X700396Y350886D01*
X700351Y350870D01*
X700244Y350801D01*
X700134Y350740D01*
X700088Y350700D01*
X700058Y350681D01*
X700024Y350646D01*
X699948Y350581D01*
X650290Y300923D01*
X648610Y300227D01*
X552371Y300227D01*
X552271Y300216D01*
X552171Y300214D01*
X552099Y300196D01*
X552025Y300187D01*
X551930Y300154D01*
X551833Y300129D01*
X551767Y300095D01*
X551697Y300070D01*
X551612Y300015D01*
X551523Y299969D01*
X551466Y299921D01*
X551404Y299881D01*
X551334Y299809D01*
X551258Y299744D01*
X551213Y299684D01*
X551162Y299630D01*
X551110Y299544D01*
X551050Y299463D01*
X551021Y299395D01*
X550983Y299331D01*
X550952Y299235D01*
X550912Y299143D01*
X550899Y299070D01*
X550877Y298999D01*
X550868Y298899D01*
X550851Y298800D01*
X550855Y298726D01*
X550849Y298652D01*
X550863Y298552D01*
X550869Y298452D01*
X550889Y298381D01*
X550900Y298307D01*
X550937Y298214D01*
X550965Y298117D01*
X551002Y298052D01*
X551029Y297983D01*
X551086Y297901D01*
X551135Y297813D01*
X551201Y297737D01*
X551228Y297697D01*
X551254Y297673D01*
X551294Y297627D01*
X552527Y296394D01*
X553681Y293608D01*
X553681Y290592D01*
X552527Y287806D01*
X551627Y286906D01*
X551557Y286818D01*
X551544Y286805D01*
X551540Y286798D01*
X551464Y286713D01*
X551440Y286671D01*
X551410Y286633D01*
X551356Y286519D01*
X551295Y286408D01*
X551282Y286362D01*
X551261Y286318D01*
X551235Y286195D01*
X551200Y286073D01*
X551195Y286012D01*
X551188Y285977D01*
X551189Y285929D01*
X551181Y285829D01*
X551181Y260649D01*
X551198Y260500D01*
X551210Y260350D01*
X551218Y260327D01*
X551221Y260303D01*
X551271Y260162D01*
X551317Y260018D01*
X551330Y259998D01*
X551338Y259975D01*
X551420Y259848D01*
X551497Y259720D01*
X551514Y259703D01*
X551527Y259682D01*
X551636Y259577D01*
X551740Y259470D01*
X551760Y259457D01*
X551778Y259440D01*
X551907Y259363D01*
X552033Y259282D01*
X552056Y259274D01*
X552077Y259261D01*
X552220Y259215D01*
X552362Y259165D01*
X552386Y259162D01*
X552409Y259155D01*
X552558Y259143D01*
X552708Y259126D01*
X552732Y259129D01*
X552756Y259127D01*
X552905Y259149D01*
X553054Y259167D01*
X553082Y259176D01*
X553101Y259179D01*
X553145Y259196D01*
X553287Y259242D01*
X556577Y260605D01*
X561023Y260605D01*
X565131Y258903D01*
X568275Y255759D01*
X569977Y251651D01*
X569977Y230949D01*
X568275Y226841D01*
X565131Y223697D01*
X561023Y221995D01*
X556577Y221995D01*
X553287Y223358D01*
X553142Y223399D01*
X552999Y223445D01*
X552975Y223447D01*
X552952Y223454D01*
X552801Y223461D01*
X552652Y223473D01*
X552628Y223469D01*
X552604Y223471D01*
X552456Y223444D01*
X552307Y223421D01*
X552285Y223412D01*
X552261Y223408D01*
X552123Y223348D01*
X551983Y223293D01*
X551963Y223279D01*
X551941Y223269D01*
X551820Y223179D01*
X551697Y223094D01*
X551681Y223076D01*
X551661Y223061D01*
X551564Y222946D01*
X551464Y222835D01*
X551452Y222814D01*
X551436Y222795D01*
X551368Y222662D01*
X551295Y222530D01*
X551289Y222507D01*
X551278Y222485D01*
X551241Y222340D01*
X551200Y222194D01*
X551198Y222165D01*
X551193Y222147D01*
X551193Y222100D01*
X551181Y221951D01*
X551181Y173989D01*
X550407Y172122D01*
X494932Y116647D01*
X494870Y116569D01*
X494800Y116496D01*
X494762Y116432D01*
X494716Y116374D01*
X494673Y116283D01*
X494621Y116197D01*
X494599Y116126D01*
X494567Y116059D01*
X494546Y115961D01*
X494515Y115865D01*
X494509Y115791D01*
X494493Y115718D01*
X494495Y115618D01*
X494487Y115518D01*
X494498Y115444D01*
X494499Y115370D01*
X494524Y115273D01*
X494539Y115173D01*
X494566Y115104D01*
X494584Y115032D01*
X494630Y114942D01*
X494667Y114849D01*
X494710Y114788D01*
X494744Y114722D01*
X494809Y114645D01*
X494866Y114563D01*
X494922Y114513D01*
X494970Y114457D01*
X495051Y114397D01*
X495125Y114330D01*
X495190Y114294D01*
X495250Y114249D01*
X495342Y114210D01*
X495430Y114161D01*
X495502Y114141D01*
X495570Y114111D01*
X495669Y114094D01*
X495766Y114066D01*
X495866Y114058D01*
X495913Y114050D01*
X495949Y114052D01*
X496009Y114047D01*
X497776Y114047D01*
X502351Y112152D01*
X505852Y108651D01*
X506593Y106862D01*
X506642Y106774D01*
X506682Y106682D01*
X506726Y106622D01*
X506762Y106557D01*
X506829Y106483D01*
X506889Y106402D01*
X506946Y106354D01*
X506996Y106299D01*
X507079Y106242D01*
X507155Y106177D01*
X507222Y106143D01*
X507283Y106101D01*
X507376Y106064D01*
X507466Y106018D01*
X507538Y106000D01*
X507607Y105973D01*
X507706Y105958D01*
X507804Y105934D01*
X507878Y105933D01*
X507952Y105922D01*
X508052Y105931D01*
X508152Y105929D01*
X508225Y105945D01*
X508299Y105951D01*
X508395Y105982D01*
X508493Y106003D01*
X508560Y106035D01*
X508631Y106058D01*
X508717Y106110D01*
X508808Y106153D01*
X508866Y106200D01*
X508929Y106238D01*
X509001Y106308D01*
X509080Y106371D01*
X509126Y106429D01*
X509179Y106481D01*
X509234Y106565D01*
X509296Y106644D01*
X509342Y106734D01*
X509368Y106774D01*
X509380Y106808D01*
X509407Y106862D01*
X510148Y108651D01*
X513649Y112152D01*
X518224Y114047D01*
X523176Y114047D01*
X527751Y112152D01*
X531252Y108651D01*
X533147Y104076D01*
X533147Y99124D01*
X531252Y94549D01*
X527751Y91048D01*
X525962Y90307D01*
X525874Y90259D01*
X525782Y90219D01*
X525722Y90174D01*
X525657Y90138D01*
X525583Y90071D01*
X525502Y90011D01*
X525454Y89954D01*
X525399Y89904D01*
X525342Y89821D01*
X525277Y89745D01*
X525243Y89678D01*
X525201Y89617D01*
X525164Y89524D01*
X525118Y89434D01*
X525100Y89362D01*
X525073Y89293D01*
X525058Y89194D01*
X525034Y89096D01*
X525033Y89022D01*
X525022Y88948D01*
X525031Y88848D01*
X525029Y88748D01*
X525045Y88675D01*
X525051Y88601D01*
X525082Y88505D01*
X525103Y88407D01*
X525135Y88340D01*
X525158Y88269D01*
X525210Y88183D01*
X525253Y88092D01*
X525300Y88034D01*
X525338Y87971D01*
X525408Y87898D01*
X525471Y87820D01*
X525529Y87774D01*
X525581Y87721D01*
X525665Y87666D01*
X525744Y87604D01*
X525834Y87558D01*
X525874Y87532D01*
X525908Y87520D01*
X525962Y87493D01*
X527751Y86752D01*
X531252Y83251D01*
X533147Y78676D01*
X533147Y73724D01*
X531252Y69149D01*
X527751Y65648D01*
X523176Y63753D01*
X518224Y63753D01*
G37*
%LPD*%
G36*
X460628Y182078D02*
X460628Y182078D01*
X460643Y182079D01*
X460798Y182116D01*
X460955Y182150D01*
X460968Y182156D01*
X460982Y182159D01*
X461126Y182231D01*
X461269Y182299D01*
X461280Y182308D01*
X461294Y182315D01*
X461417Y182417D01*
X461542Y182517D01*
X461551Y182528D01*
X461562Y182537D01*
X461659Y182665D01*
X461758Y182790D01*
X461765Y182806D01*
X461773Y182815D01*
X461788Y182850D01*
X461869Y183008D01*
X463158Y186121D01*
X466659Y189622D01*
X471234Y191517D01*
X476186Y191517D01*
X480761Y189622D01*
X484262Y186121D01*
X485003Y184332D01*
X485051Y184244D01*
X485091Y184152D01*
X485136Y184092D01*
X485172Y184027D01*
X485239Y183953D01*
X485299Y183872D01*
X485356Y183824D01*
X485406Y183769D01*
X485489Y183712D01*
X485565Y183647D01*
X485632Y183613D01*
X485693Y183571D01*
X485786Y183534D01*
X485876Y183488D01*
X485948Y183470D01*
X486017Y183443D01*
X486116Y183428D01*
X486214Y183404D01*
X486288Y183403D01*
X486362Y183392D01*
X486462Y183401D01*
X486562Y183399D01*
X486635Y183415D01*
X486709Y183421D01*
X486805Y183452D01*
X486903Y183473D01*
X486970Y183505D01*
X487041Y183528D01*
X487127Y183580D01*
X487218Y183623D01*
X487276Y183670D01*
X487339Y183708D01*
X487412Y183778D01*
X487490Y183841D01*
X487536Y183899D01*
X487589Y183951D01*
X487644Y184035D01*
X487706Y184114D01*
X487752Y184204D01*
X487778Y184244D01*
X487790Y184278D01*
X487817Y184332D01*
X488558Y186121D01*
X492059Y189622D01*
X496634Y191517D01*
X501586Y191517D01*
X506161Y189622D01*
X509662Y186121D01*
X510403Y184332D01*
X510451Y184244D01*
X510491Y184152D01*
X510536Y184092D01*
X510572Y184027D01*
X510639Y183953D01*
X510699Y183872D01*
X510756Y183824D01*
X510806Y183769D01*
X510889Y183712D01*
X510965Y183647D01*
X511032Y183613D01*
X511093Y183571D01*
X511186Y183534D01*
X511276Y183488D01*
X511348Y183470D01*
X511417Y183443D01*
X511516Y183428D01*
X511614Y183404D01*
X511688Y183403D01*
X511762Y183392D01*
X511862Y183401D01*
X511962Y183399D01*
X512035Y183415D01*
X512109Y183421D01*
X512205Y183452D01*
X512303Y183473D01*
X512370Y183505D01*
X512441Y183528D01*
X512527Y183580D01*
X512618Y183623D01*
X512676Y183670D01*
X512739Y183708D01*
X512812Y183778D01*
X512890Y183841D01*
X512936Y183899D01*
X512989Y183951D01*
X513044Y184035D01*
X513106Y184114D01*
X513152Y184204D01*
X513178Y184244D01*
X513190Y184278D01*
X513217Y184332D01*
X513958Y186121D01*
X517459Y189622D01*
X518489Y190048D01*
X518520Y190066D01*
X518536Y190071D01*
X518561Y190088D01*
X518627Y190114D01*
X518708Y190170D01*
X518794Y190218D01*
X518850Y190269D01*
X518913Y190313D01*
X518979Y190385D01*
X519052Y190452D01*
X519095Y190515D01*
X519146Y190571D01*
X519194Y190657D01*
X519250Y190738D01*
X519278Y190809D01*
X519315Y190876D01*
X519342Y190971D01*
X519378Y191063D01*
X519389Y191138D01*
X519410Y191212D01*
X519422Y191361D01*
X519429Y191407D01*
X519427Y191426D01*
X519429Y191456D01*
X519429Y195321D01*
X520203Y197188D01*
X527873Y204858D01*
X527952Y204957D01*
X528036Y205051D01*
X528060Y205094D01*
X528090Y205131D01*
X528144Y205246D01*
X528205Y205356D01*
X528218Y205403D01*
X528239Y205446D01*
X528265Y205570D01*
X528300Y205692D01*
X528305Y205752D01*
X528312Y205787D01*
X528311Y205835D01*
X528319Y205935D01*
X528319Y213165D01*
X528305Y213290D01*
X528298Y213416D01*
X528285Y213463D01*
X528279Y213511D01*
X528237Y213630D01*
X528202Y213751D01*
X528178Y213793D01*
X528162Y213839D01*
X528093Y213945D01*
X528032Y214055D01*
X527992Y214102D01*
X527973Y214132D01*
X527938Y214165D01*
X527873Y214242D01*
X517452Y224663D01*
X517431Y224679D01*
X517414Y224699D01*
X517295Y224788D01*
X517179Y224880D01*
X517155Y224891D01*
X517134Y224907D01*
X516998Y224965D01*
X516864Y225029D01*
X516838Y225034D01*
X516814Y225045D01*
X516668Y225071D01*
X516523Y225102D01*
X516497Y225102D01*
X516471Y225106D01*
X516322Y225099D01*
X516174Y225096D01*
X516149Y225090D01*
X516123Y225088D01*
X515981Y225047D01*
X515836Y225011D01*
X515813Y224999D01*
X515788Y224992D01*
X515659Y224920D01*
X515527Y224851D01*
X515507Y224834D01*
X515484Y224822D01*
X515297Y224663D01*
X514331Y223697D01*
X510223Y221995D01*
X505777Y221995D01*
X501669Y223697D01*
X498525Y226841D01*
X496823Y230949D01*
X496823Y251651D01*
X498525Y255759D01*
X501669Y258903D01*
X505777Y260605D01*
X510223Y260605D01*
X514331Y258903D01*
X517475Y255759D01*
X519177Y251651D01*
X519177Y237939D01*
X519191Y237814D01*
X519198Y237688D01*
X519211Y237641D01*
X519217Y237593D01*
X519259Y237474D01*
X519294Y237353D01*
X519318Y237311D01*
X519334Y237265D01*
X519403Y237159D01*
X519464Y237049D01*
X519504Y237002D01*
X519523Y236972D01*
X519558Y236939D01*
X519623Y236862D01*
X520639Y235846D01*
X520718Y235784D01*
X520790Y235714D01*
X520854Y235676D01*
X520912Y235630D01*
X521003Y235587D01*
X521089Y235535D01*
X521160Y235513D01*
X521227Y235481D01*
X521325Y235460D01*
X521421Y235429D01*
X521495Y235423D01*
X521568Y235407D01*
X521668Y235409D01*
X521768Y235401D01*
X521842Y235412D01*
X521916Y235413D01*
X522013Y235438D01*
X522113Y235453D01*
X522182Y235480D01*
X522254Y235498D01*
X522343Y235544D01*
X522437Y235581D01*
X522498Y235624D01*
X522564Y235658D01*
X522640Y235723D01*
X522723Y235780D01*
X522773Y235836D01*
X522829Y235884D01*
X522889Y235965D01*
X522956Y236039D01*
X522992Y236104D01*
X523037Y236164D01*
X523076Y236256D01*
X523125Y236344D01*
X523145Y236416D01*
X523175Y236484D01*
X523192Y236583D01*
X523220Y236680D01*
X523228Y236780D01*
X523236Y236827D01*
X523234Y236863D01*
X523239Y236923D01*
X523239Y238761D01*
X532384Y238761D01*
X532410Y238764D01*
X532436Y238762D01*
X532583Y238784D01*
X532730Y238801D01*
X532755Y238809D01*
X532781Y238813D01*
X532918Y238868D01*
X533058Y238918D01*
X533080Y238932D01*
X533105Y238942D01*
X533226Y239027D01*
X533351Y239107D01*
X533369Y239126D01*
X533391Y239141D01*
X533490Y239251D01*
X533593Y239358D01*
X533607Y239380D01*
X533624Y239400D01*
X533696Y239530D01*
X533772Y239657D01*
X533780Y239682D01*
X533793Y239705D01*
X533833Y239848D01*
X533878Y239989D01*
X533880Y240015D01*
X533887Y240040D01*
X533907Y240284D01*
X533907Y240793D01*
X534416Y240793D01*
X534442Y240796D01*
X534468Y240794D01*
X534615Y240816D01*
X534762Y240833D01*
X534787Y240842D01*
X534813Y240846D01*
X534951Y240900D01*
X535090Y240950D01*
X535112Y240965D01*
X535137Y240974D01*
X535258Y241059D01*
X535383Y241139D01*
X535401Y241158D01*
X535423Y241173D01*
X535522Y241283D01*
X535625Y241390D01*
X535639Y241413D01*
X535656Y241432D01*
X535728Y241562D01*
X535804Y241689D01*
X535812Y241714D01*
X535825Y241737D01*
X535865Y241880D01*
X535910Y242021D01*
X535912Y242047D01*
X535920Y242072D01*
X535939Y242316D01*
X535939Y259287D01*
X537300Y258844D01*
X538804Y258078D01*
X538838Y258065D01*
X538869Y258047D01*
X539001Y258005D01*
X539131Y257956D01*
X539167Y257952D01*
X539201Y257941D01*
X539339Y257930D01*
X539477Y257912D01*
X539512Y257916D01*
X539548Y257913D01*
X539685Y257933D01*
X539823Y257947D01*
X539857Y257959D01*
X539893Y257964D01*
X540022Y258016D01*
X540153Y258061D01*
X540183Y258080D01*
X540217Y258093D01*
X540331Y258172D01*
X540448Y258246D01*
X540473Y258272D01*
X540503Y258292D01*
X540596Y258395D01*
X540693Y258494D01*
X540712Y258524D01*
X540736Y258551D01*
X540803Y258672D01*
X540876Y258790D01*
X540888Y258825D01*
X540905Y258856D01*
X540943Y258989D01*
X540987Y259121D01*
X540990Y259157D01*
X541000Y259191D01*
X541019Y259435D01*
X541019Y285829D01*
X541005Y285955D01*
X540998Y286081D01*
X540985Y286127D01*
X540979Y286175D01*
X540937Y286294D01*
X540902Y286416D01*
X540878Y286458D01*
X540862Y286503D01*
X540793Y286610D01*
X540732Y286720D01*
X540692Y286766D01*
X540673Y286796D01*
X540638Y286830D01*
X540573Y286906D01*
X539673Y287806D01*
X538519Y290592D01*
X538519Y293608D01*
X539673Y296394D01*
X540906Y297627D01*
X540969Y297706D01*
X541038Y297778D01*
X541077Y297842D01*
X541123Y297900D01*
X541166Y297991D01*
X541217Y298077D01*
X541240Y298148D01*
X541272Y298215D01*
X541293Y298313D01*
X541323Y298409D01*
X541329Y298483D01*
X541345Y298556D01*
X541343Y298656D01*
X541351Y298756D01*
X541340Y298830D01*
X541339Y298904D01*
X541315Y299001D01*
X541300Y299101D01*
X541272Y299170D01*
X541254Y299242D01*
X541208Y299331D01*
X541171Y299425D01*
X541129Y299486D01*
X541094Y299552D01*
X541029Y299628D01*
X540972Y299711D01*
X540917Y299761D01*
X540869Y299817D01*
X540788Y299877D01*
X540713Y299944D01*
X540648Y299980D01*
X540588Y300025D01*
X540496Y300064D01*
X540408Y300113D01*
X540337Y300133D01*
X540268Y300163D01*
X540170Y300180D01*
X540073Y300208D01*
X539973Y300216D01*
X539925Y300224D01*
X539890Y300222D01*
X539829Y300227D01*
X438579Y300227D01*
X438453Y300213D01*
X438327Y300206D01*
X438281Y300193D01*
X438233Y300187D01*
X438114Y300145D01*
X437992Y300110D01*
X437950Y300086D01*
X437905Y300070D01*
X437798Y300001D01*
X437688Y299940D01*
X437642Y299900D01*
X437612Y299881D01*
X437578Y299846D01*
X437502Y299781D01*
X436094Y298373D01*
X433308Y297219D01*
X430292Y297219D01*
X427506Y298373D01*
X425373Y300506D01*
X424219Y303292D01*
X424219Y306308D01*
X425373Y309094D01*
X426606Y310327D01*
X426669Y310406D01*
X426738Y310478D01*
X426777Y310542D01*
X426823Y310600D01*
X426866Y310691D01*
X426917Y310777D01*
X426940Y310848D01*
X426972Y310915D01*
X426993Y311013D01*
X427023Y311109D01*
X427029Y311183D01*
X427045Y311256D01*
X427043Y311356D01*
X427051Y311456D01*
X427040Y311530D01*
X427039Y311604D01*
X427015Y311701D01*
X427000Y311801D01*
X426972Y311870D01*
X426954Y311942D01*
X426908Y312031D01*
X426871Y312125D01*
X426829Y312186D01*
X426794Y312252D01*
X426729Y312328D01*
X426672Y312411D01*
X426617Y312461D01*
X426569Y312517D01*
X426488Y312577D01*
X426413Y312644D01*
X426348Y312680D01*
X426288Y312725D01*
X426196Y312764D01*
X426108Y312813D01*
X426037Y312833D01*
X425968Y312863D01*
X425870Y312880D01*
X425773Y312908D01*
X425673Y312916D01*
X425625Y312924D01*
X425590Y312922D01*
X425529Y312927D01*
X387779Y312927D01*
X387653Y312913D01*
X387527Y312906D01*
X387481Y312893D01*
X387433Y312887D01*
X387314Y312845D01*
X387192Y312810D01*
X387150Y312786D01*
X387105Y312770D01*
X386998Y312701D01*
X386888Y312640D01*
X386842Y312600D01*
X386812Y312581D01*
X386778Y312546D01*
X386702Y312481D01*
X385294Y311073D01*
X382508Y309919D01*
X379492Y309919D01*
X376706Y311073D01*
X374573Y313206D01*
X373419Y315992D01*
X373419Y319008D01*
X374573Y321794D01*
X375806Y323027D01*
X375869Y323106D01*
X375938Y323178D01*
X375977Y323242D01*
X376023Y323300D01*
X376066Y323391D01*
X376117Y323477D01*
X376140Y323548D01*
X376172Y323615D01*
X376193Y323713D01*
X376223Y323809D01*
X376229Y323883D01*
X376245Y323956D01*
X376243Y324056D01*
X376251Y324156D01*
X376240Y324230D01*
X376239Y324304D01*
X376215Y324401D01*
X376200Y324501D01*
X376172Y324570D01*
X376154Y324642D01*
X376108Y324731D01*
X376071Y324825D01*
X376029Y324886D01*
X375994Y324952D01*
X375929Y325028D01*
X375872Y325111D01*
X375817Y325161D01*
X375769Y325217D01*
X375688Y325277D01*
X375613Y325344D01*
X375548Y325380D01*
X375488Y325425D01*
X375396Y325464D01*
X375308Y325513D01*
X375237Y325533D01*
X375168Y325563D01*
X375070Y325580D01*
X374973Y325608D01*
X374873Y325616D01*
X374825Y325624D01*
X374790Y325622D01*
X374729Y325627D01*
X336979Y325627D01*
X336853Y325613D01*
X336727Y325606D01*
X336681Y325593D01*
X336633Y325587D01*
X336514Y325545D01*
X336392Y325510D01*
X336350Y325486D01*
X336305Y325470D01*
X336198Y325401D01*
X336088Y325340D01*
X336042Y325300D01*
X336012Y325281D01*
X335978Y325246D01*
X335902Y325181D01*
X334494Y323773D01*
X331708Y322619D01*
X328692Y322619D01*
X325906Y323773D01*
X323773Y325906D01*
X322619Y328692D01*
X322619Y331708D01*
X323773Y334494D01*
X325906Y336627D01*
X326616Y336921D01*
X326660Y336945D01*
X326707Y336962D01*
X326812Y337030D01*
X326920Y337090D01*
X326958Y337124D01*
X327000Y337151D01*
X327087Y337241D01*
X327179Y337324D01*
X327207Y337366D01*
X327242Y337402D01*
X327306Y337509D01*
X327377Y337611D01*
X327395Y337658D01*
X327421Y337701D01*
X327459Y337819D01*
X327505Y337935D01*
X327512Y337985D01*
X327527Y338033D01*
X327537Y338157D01*
X327555Y338280D01*
X327551Y338330D01*
X327555Y338380D01*
X327537Y338503D01*
X327527Y338627D01*
X327511Y338675D01*
X327504Y338725D01*
X327458Y338840D01*
X327419Y338959D01*
X327393Y339002D01*
X327375Y339049D01*
X327304Y339151D01*
X327240Y339257D01*
X327205Y339294D01*
X327176Y339335D01*
X327084Y339418D01*
X326997Y339507D01*
X326955Y339535D01*
X326917Y339568D01*
X326808Y339628D01*
X326704Y339696D01*
X326656Y339713D01*
X326612Y339737D01*
X326492Y339771D01*
X326375Y339812D01*
X326325Y339818D01*
X326277Y339832D01*
X326033Y339851D01*
X289845Y339851D01*
X288164Y340547D01*
X286664Y342048D01*
X281054Y347658D01*
X281034Y347674D01*
X281017Y347694D01*
X280897Y347782D01*
X280781Y347874D01*
X280758Y347885D01*
X280736Y347901D01*
X280600Y347960D01*
X280466Y348023D01*
X280440Y348029D01*
X280416Y348039D01*
X280270Y348065D01*
X280125Y348097D01*
X280099Y348096D01*
X280073Y348101D01*
X279925Y348093D01*
X279777Y348091D01*
X279752Y348084D01*
X279725Y348083D01*
X279583Y348042D01*
X279439Y348006D01*
X279416Y347994D01*
X279390Y347986D01*
X279261Y347914D01*
X279129Y347846D01*
X279109Y347829D01*
X279086Y347816D01*
X278900Y347658D01*
X277561Y346318D01*
X274253Y344948D01*
X274230Y344935D01*
X274205Y344927D01*
X274078Y344851D01*
X273948Y344779D01*
X273929Y344761D01*
X273907Y344748D01*
X273800Y344644D01*
X273690Y344545D01*
X273675Y344523D01*
X273657Y344505D01*
X273577Y344380D01*
X273492Y344258D01*
X273482Y344234D01*
X273468Y344212D01*
X273419Y344072D01*
X273364Y343934D01*
X273361Y343908D01*
X273352Y343883D01*
X273335Y343736D01*
X273314Y343589D01*
X273316Y343563D01*
X273313Y343537D01*
X273330Y343390D01*
X273342Y343242D01*
X273351Y343217D01*
X273354Y343191D01*
X273429Y342958D01*
X274225Y341036D01*
X274225Y278309D01*
X274236Y278209D01*
X274238Y278109D01*
X274256Y278037D01*
X274265Y277963D01*
X274298Y277868D01*
X274323Y277771D01*
X274357Y277705D01*
X274382Y277635D01*
X274437Y277550D01*
X274483Y277461D01*
X274531Y277404D01*
X274571Y277342D01*
X274643Y277272D01*
X274708Y277196D01*
X274768Y277151D01*
X274822Y277100D01*
X274908Y277048D01*
X274989Y276988D01*
X275057Y276959D01*
X275121Y276921D01*
X275217Y276890D01*
X275309Y276850D01*
X275382Y276837D01*
X275453Y276815D01*
X275553Y276806D01*
X275652Y276789D01*
X275726Y276793D01*
X275800Y276787D01*
X275900Y276801D01*
X276000Y276807D01*
X276071Y276827D01*
X276145Y276838D01*
X276238Y276875D01*
X276335Y276903D01*
X276400Y276940D01*
X276469Y276967D01*
X276551Y277024D01*
X276639Y277073D01*
X276715Y277139D01*
X276755Y277166D01*
X276779Y277192D01*
X276825Y277232D01*
X278452Y278858D01*
X285912Y281949D01*
X293988Y281949D01*
X298121Y280237D01*
X298266Y280195D01*
X298409Y280150D01*
X298433Y280148D01*
X298456Y280141D01*
X298607Y280134D01*
X298756Y280122D01*
X298780Y280125D01*
X298804Y280124D01*
X298952Y280151D01*
X299101Y280173D01*
X299123Y280182D01*
X299147Y280187D01*
X299285Y280246D01*
X299425Y280302D01*
X299445Y280316D01*
X299467Y280325D01*
X299588Y280415D01*
X299711Y280501D01*
X299727Y280519D01*
X299747Y280533D01*
X299844Y280648D01*
X299944Y280760D01*
X299956Y280781D01*
X299972Y280799D01*
X300040Y280933D01*
X300113Y281065D01*
X300119Y281088D01*
X300130Y281110D01*
X300167Y281255D01*
X300208Y281400D01*
X300210Y281429D01*
X300215Y281448D01*
X300215Y281495D01*
X300227Y281644D01*
X300227Y285321D01*
X300213Y285447D01*
X300206Y285573D01*
X300193Y285619D01*
X300187Y285667D01*
X300145Y285786D01*
X300110Y285908D01*
X300086Y285950D01*
X300070Y285995D01*
X300001Y286102D01*
X299940Y286212D01*
X299900Y286258D01*
X299881Y286288D01*
X299846Y286322D01*
X299781Y286398D01*
X298373Y287806D01*
X297219Y290592D01*
X297219Y293608D01*
X298373Y296394D01*
X300506Y298527D01*
X303292Y299681D01*
X306308Y299681D01*
X309094Y298527D01*
X311227Y296394D01*
X312381Y293608D01*
X312381Y290592D01*
X311227Y287806D01*
X309819Y286398D01*
X309740Y286299D01*
X309656Y286205D01*
X309632Y286163D01*
X309602Y286125D01*
X309548Y286011D01*
X309487Y285900D01*
X309474Y285854D01*
X309453Y285810D01*
X309427Y285687D01*
X309392Y285565D01*
X309387Y285504D01*
X309380Y285469D01*
X309381Y285421D01*
X309373Y285321D01*
X309373Y278031D01*
X309387Y277905D01*
X309394Y277779D01*
X309407Y277733D01*
X309413Y277685D01*
X309455Y277566D01*
X309490Y277444D01*
X309514Y277402D01*
X309530Y277356D01*
X309599Y277250D01*
X309660Y277140D01*
X309700Y277094D01*
X309719Y277064D01*
X309754Y277030D01*
X309819Y276954D01*
X314125Y272648D01*
X314821Y270967D01*
X314821Y252333D01*
X314125Y250652D01*
X311637Y248164D01*
X311621Y248144D01*
X311601Y248127D01*
X311512Y248007D01*
X311420Y247891D01*
X311409Y247868D01*
X311393Y247846D01*
X311335Y247710D01*
X311271Y247576D01*
X311266Y247550D01*
X311255Y247526D01*
X311229Y247380D01*
X311198Y247235D01*
X311198Y247209D01*
X311194Y247183D01*
X311201Y247035D01*
X311204Y246887D01*
X311210Y246862D01*
X311212Y246835D01*
X311253Y246693D01*
X311289Y246549D01*
X311301Y246526D01*
X311308Y246500D01*
X311380Y246371D01*
X311448Y246239D01*
X311465Y246219D01*
X311478Y246196D01*
X311637Y246010D01*
X366437Y191210D01*
X366497Y191163D01*
X366550Y191108D01*
X366633Y191055D01*
X366710Y190993D01*
X366779Y190961D01*
X366843Y190920D01*
X366936Y190887D01*
X367025Y190845D01*
X367099Y190829D01*
X367172Y190803D01*
X367270Y190792D01*
X367366Y190771D01*
X367442Y190773D01*
X367518Y190764D01*
X367616Y190775D01*
X367714Y190777D01*
X367788Y190796D01*
X367864Y190805D01*
X368006Y190851D01*
X368052Y190862D01*
X368069Y190871D01*
X368097Y190880D01*
X369634Y191517D01*
X374586Y191517D01*
X379161Y189622D01*
X382662Y186121D01*
X383403Y184332D01*
X383451Y184244D01*
X383491Y184152D01*
X383536Y184092D01*
X383572Y184027D01*
X383639Y183953D01*
X383699Y183872D01*
X383756Y183824D01*
X383806Y183769D01*
X383889Y183712D01*
X383965Y183647D01*
X384032Y183613D01*
X384093Y183571D01*
X384186Y183534D01*
X384276Y183488D01*
X384348Y183470D01*
X384417Y183443D01*
X384516Y183428D01*
X384614Y183404D01*
X384688Y183403D01*
X384762Y183392D01*
X384862Y183401D01*
X384962Y183399D01*
X385035Y183415D01*
X385109Y183421D01*
X385205Y183452D01*
X385303Y183473D01*
X385370Y183505D01*
X385441Y183528D01*
X385527Y183580D01*
X385618Y183623D01*
X385676Y183670D01*
X385739Y183708D01*
X385811Y183778D01*
X385890Y183841D01*
X385936Y183899D01*
X385989Y183951D01*
X386044Y184035D01*
X386106Y184114D01*
X386152Y184203D01*
X386178Y184244D01*
X386190Y184278D01*
X386217Y184332D01*
X386958Y186121D01*
X390459Y189622D01*
X395034Y191517D01*
X399986Y191517D01*
X404561Y189622D01*
X408062Y186121D01*
X408803Y184332D01*
X408851Y184244D01*
X408891Y184152D01*
X408936Y184092D01*
X408972Y184027D01*
X409039Y183953D01*
X409099Y183872D01*
X409156Y183824D01*
X409206Y183769D01*
X409289Y183712D01*
X409365Y183647D01*
X409432Y183613D01*
X409493Y183571D01*
X409586Y183534D01*
X409676Y183488D01*
X409748Y183470D01*
X409817Y183443D01*
X409916Y183428D01*
X410014Y183404D01*
X410088Y183403D01*
X410162Y183392D01*
X410262Y183401D01*
X410362Y183399D01*
X410435Y183415D01*
X410509Y183421D01*
X410605Y183452D01*
X410703Y183473D01*
X410770Y183505D01*
X410841Y183528D01*
X410927Y183580D01*
X411018Y183623D01*
X411076Y183670D01*
X411139Y183708D01*
X411211Y183778D01*
X411290Y183841D01*
X411336Y183899D01*
X411389Y183951D01*
X411444Y184035D01*
X411506Y184114D01*
X411552Y184203D01*
X411578Y184244D01*
X411590Y184278D01*
X411617Y184332D01*
X412358Y186121D01*
X415859Y189622D01*
X420434Y191517D01*
X425386Y191517D01*
X429961Y189622D01*
X431300Y188282D01*
X431321Y188266D01*
X431338Y188246D01*
X431457Y188158D01*
X431573Y188066D01*
X431597Y188055D01*
X431618Y188039D01*
X431754Y187980D01*
X431888Y187917D01*
X431914Y187911D01*
X431938Y187901D01*
X432084Y187875D01*
X432229Y187843D01*
X432255Y187844D01*
X432281Y187839D01*
X432429Y187847D01*
X432577Y187849D01*
X432603Y187856D01*
X432629Y187857D01*
X432771Y187898D01*
X432915Y187934D01*
X432939Y187946D01*
X432964Y187954D01*
X433093Y188026D01*
X433225Y188094D01*
X433245Y188111D01*
X433268Y188124D01*
X433454Y188282D01*
X450748Y205576D01*
X452248Y207077D01*
X453929Y207773D01*
X488521Y207773D01*
X488647Y207787D01*
X488773Y207794D01*
X488819Y207807D01*
X488867Y207813D01*
X488986Y207855D01*
X489108Y207890D01*
X489150Y207914D01*
X489195Y207930D01*
X489302Y207999D01*
X489412Y208060D01*
X489458Y208100D01*
X489488Y208119D01*
X489522Y208154D01*
X489598Y208219D01*
X491006Y209627D01*
X493792Y210781D01*
X496808Y210781D01*
X499594Y209627D01*
X501727Y207494D01*
X502881Y204708D01*
X502881Y201692D01*
X501727Y198906D01*
X499594Y196773D01*
X496808Y195619D01*
X493792Y195619D01*
X491006Y196773D01*
X489598Y198181D01*
X489499Y198260D01*
X489405Y198344D01*
X489363Y198368D01*
X489325Y198398D01*
X489211Y198452D01*
X489100Y198513D01*
X489054Y198526D01*
X489010Y198547D01*
X488887Y198573D01*
X488765Y198608D01*
X488704Y198613D01*
X488669Y198620D01*
X488621Y198619D01*
X488521Y198627D01*
X457364Y198627D01*
X457238Y198613D01*
X457112Y198606D01*
X457066Y198593D01*
X457018Y198587D01*
X456898Y198545D01*
X456777Y198510D01*
X456735Y198486D01*
X456689Y198470D01*
X456583Y198401D01*
X456473Y198340D01*
X456427Y198300D01*
X456397Y198281D01*
X456363Y198246D01*
X456287Y198181D01*
X450735Y192630D01*
X450713Y192602D01*
X450686Y192578D01*
X450605Y192465D01*
X450519Y192357D01*
X450503Y192324D01*
X450482Y192295D01*
X450429Y192167D01*
X450370Y192042D01*
X450362Y192007D01*
X450348Y191973D01*
X450326Y191836D01*
X450296Y191701D01*
X450297Y191665D01*
X450291Y191630D01*
X450300Y191491D01*
X450302Y191352D01*
X450311Y191318D01*
X450313Y191282D01*
X450354Y191149D01*
X450387Y191014D01*
X450404Y190983D01*
X450414Y190948D01*
X450483Y190828D01*
X450547Y190705D01*
X450570Y190677D01*
X450588Y190646D01*
X450683Y190545D01*
X450773Y190439D01*
X450802Y190418D01*
X450826Y190392D01*
X450942Y190314D01*
X451053Y190232D01*
X451086Y190218D01*
X451116Y190198D01*
X451342Y190104D01*
X452698Y189663D01*
X454301Y188846D01*
X455757Y187789D01*
X457029Y186517D01*
X458086Y185061D01*
X458903Y183458D01*
X459013Y183120D01*
X459079Y182976D01*
X459143Y182828D01*
X459152Y182816D01*
X459158Y182803D01*
X459256Y182677D01*
X459351Y182548D01*
X459362Y182539D01*
X459371Y182528D01*
X459495Y182427D01*
X459617Y182323D01*
X459630Y182317D01*
X459641Y182308D01*
X459786Y182237D01*
X459927Y182165D01*
X459941Y182161D01*
X459954Y182155D01*
X460112Y182119D01*
X460266Y182080D01*
X460280Y182080D01*
X460294Y182077D01*
X460454Y182078D01*
X460614Y182075D01*
X460628Y182078D01*
G37*
%LPC*%
G36*
X412186Y1025619D02*
X412186Y1025619D01*
X410505Y1026315D01*
X409004Y1027816D01*
X403184Y1033636D01*
X403164Y1033652D01*
X403147Y1033672D01*
X403027Y1033761D01*
X402911Y1033853D01*
X402888Y1033864D01*
X402866Y1033880D01*
X402730Y1033938D01*
X402596Y1034002D01*
X402570Y1034007D01*
X402546Y1034018D01*
X402400Y1034044D01*
X402255Y1034075D01*
X402229Y1034075D01*
X402203Y1034079D01*
X402055Y1034072D01*
X401907Y1034069D01*
X401881Y1034063D01*
X401855Y1034061D01*
X401713Y1034020D01*
X401569Y1033984D01*
X401546Y1033972D01*
X401520Y1033965D01*
X401391Y1033892D01*
X401259Y1033824D01*
X401239Y1033807D01*
X401216Y1033795D01*
X401030Y1033636D01*
X399403Y1032009D01*
X395015Y1030191D01*
X390265Y1030191D01*
X385877Y1032009D01*
X382519Y1035367D01*
X380741Y1039659D01*
X380664Y1039798D01*
X380589Y1039940D01*
X380579Y1039951D01*
X380572Y1039963D01*
X380465Y1040082D01*
X380359Y1040202D01*
X380348Y1040210D01*
X380338Y1040221D01*
X380206Y1040312D01*
X380077Y1040406D01*
X380063Y1040411D01*
X380051Y1040419D01*
X379902Y1040478D01*
X379755Y1040540D01*
X379741Y1040542D01*
X379727Y1040547D01*
X379569Y1040571D01*
X379411Y1040597D01*
X379397Y1040596D01*
X379382Y1040598D01*
X379223Y1040585D01*
X379063Y1040575D01*
X379049Y1040570D01*
X379035Y1040569D01*
X378883Y1040520D01*
X378730Y1040474D01*
X378717Y1040467D01*
X378703Y1040462D01*
X378566Y1040380D01*
X378428Y1040300D01*
X378417Y1040290D01*
X378405Y1040282D01*
X378290Y1040171D01*
X378173Y1040062D01*
X378165Y1040050D01*
X378155Y1040040D01*
X378068Y1039905D01*
X377979Y1039772D01*
X377973Y1039756D01*
X377966Y1039746D01*
X377953Y1039710D01*
X377885Y1039546D01*
X377362Y1037937D01*
X376582Y1036405D01*
X375571Y1035014D01*
X374356Y1033799D01*
X372965Y1032788D01*
X371433Y1032008D01*
X369798Y1031476D01*
X369739Y1031467D01*
X369739Y1041154D01*
X369736Y1041180D01*
X369738Y1041206D01*
X369716Y1041353D01*
X369699Y1041500D01*
X369691Y1041525D01*
X369687Y1041551D01*
X369632Y1041688D01*
X369582Y1041828D01*
X369568Y1041850D01*
X369558Y1041875D01*
X369473Y1041996D01*
X369393Y1042121D01*
X369374Y1042139D01*
X369359Y1042161D01*
X369249Y1042260D01*
X369142Y1042363D01*
X369120Y1042377D01*
X369100Y1042394D01*
X368970Y1042466D01*
X368843Y1042542D01*
X368818Y1042550D01*
X368795Y1042563D01*
X368652Y1042603D01*
X368511Y1042648D01*
X368485Y1042650D01*
X368460Y1042657D01*
X368216Y1042677D01*
X366264Y1042677D01*
X366238Y1042674D01*
X366212Y1042676D01*
X366065Y1042654D01*
X365918Y1042637D01*
X365893Y1042628D01*
X365867Y1042624D01*
X365729Y1042570D01*
X365590Y1042520D01*
X365568Y1042505D01*
X365543Y1042496D01*
X365422Y1042411D01*
X365297Y1042331D01*
X365279Y1042312D01*
X365257Y1042297D01*
X365158Y1042187D01*
X365055Y1042080D01*
X365041Y1042057D01*
X365024Y1042038D01*
X364952Y1041908D01*
X364876Y1041781D01*
X364868Y1041756D01*
X364855Y1041733D01*
X364815Y1041590D01*
X364770Y1041449D01*
X364767Y1041423D01*
X364760Y1041398D01*
X364741Y1041154D01*
X364741Y1031467D01*
X364682Y1031476D01*
X363047Y1032008D01*
X361515Y1032788D01*
X360124Y1033799D01*
X358909Y1035014D01*
X357898Y1036405D01*
X357118Y1037937D01*
X356785Y1038959D01*
X356770Y1038992D01*
X356762Y1039027D01*
X356698Y1039150D01*
X356641Y1039276D01*
X356618Y1039305D01*
X356602Y1039337D01*
X356512Y1039442D01*
X356427Y1039552D01*
X356400Y1039575D01*
X356376Y1039602D01*
X356265Y1039684D01*
X356157Y1039772D01*
X356125Y1039788D01*
X356096Y1039809D01*
X355969Y1039864D01*
X355844Y1039925D01*
X355809Y1039933D01*
X355776Y1039947D01*
X355639Y1039972D01*
X355504Y1040003D01*
X355468Y1040002D01*
X355433Y1040009D01*
X355294Y1040002D01*
X355156Y1040001D01*
X355121Y1039993D01*
X355085Y1039991D01*
X354952Y1039953D01*
X354817Y1039920D01*
X354784Y1039904D01*
X354750Y1039894D01*
X354629Y1039827D01*
X354505Y1039765D01*
X354477Y1039742D01*
X354446Y1039724D01*
X354260Y1039566D01*
X353519Y1038825D01*
X353518Y1038823D01*
X353516Y1038822D01*
X353407Y1038684D01*
X353302Y1038552D01*
X353301Y1038550D01*
X353300Y1038549D01*
X353189Y1038331D01*
X351961Y1035367D01*
X348603Y1032009D01*
X344215Y1030191D01*
X339465Y1030191D01*
X335077Y1032009D01*
X331719Y1035367D01*
X329901Y1039755D01*
X329901Y1044505D01*
X331719Y1048893D01*
X335077Y1052251D01*
X339465Y1054069D01*
X344215Y1054069D01*
X348603Y1052251D01*
X349512Y1051342D01*
X349532Y1051326D01*
X349549Y1051306D01*
X349668Y1051218D01*
X349785Y1051126D01*
X349808Y1051114D01*
X349829Y1051099D01*
X349965Y1051040D01*
X350100Y1050977D01*
X350125Y1050971D01*
X350149Y1050961D01*
X350296Y1050935D01*
X350440Y1050903D01*
X350466Y1050904D01*
X350492Y1050899D01*
X350641Y1050907D01*
X350789Y1050909D01*
X350814Y1050916D01*
X350840Y1050917D01*
X350983Y1050958D01*
X351127Y1050994D01*
X351150Y1051006D01*
X351175Y1051014D01*
X351305Y1051086D01*
X351437Y1051154D01*
X351457Y1051171D01*
X351480Y1051184D01*
X351666Y1051342D01*
X359207Y1058883D01*
X361074Y1059657D01*
X429541Y1059657D01*
X429666Y1059671D01*
X429792Y1059678D01*
X429839Y1059691D01*
X429887Y1059697D01*
X430006Y1059739D01*
X430127Y1059774D01*
X430169Y1059798D01*
X430215Y1059814D01*
X430321Y1059883D01*
X430431Y1059944D01*
X430478Y1059984D01*
X430508Y1060003D01*
X430538Y1060034D01*
X430541Y1060036D01*
X430547Y1060043D01*
X430618Y1060103D01*
X474573Y1104058D01*
X474652Y1104157D01*
X474736Y1104251D01*
X474760Y1104294D01*
X474790Y1104331D01*
X474844Y1104446D01*
X474905Y1104556D01*
X474918Y1104603D01*
X474939Y1104646D01*
X474965Y1104770D01*
X475000Y1104892D01*
X475005Y1104952D01*
X475012Y1104987D01*
X475011Y1105035D01*
X475019Y1105135D01*
X475019Y1106408D01*
X476173Y1109194D01*
X477073Y1110094D01*
X477152Y1110193D01*
X477236Y1110287D01*
X477260Y1110329D01*
X477290Y1110367D01*
X477344Y1110481D01*
X477405Y1110592D01*
X477418Y1110638D01*
X477439Y1110682D01*
X477465Y1110805D01*
X477500Y1110927D01*
X477505Y1110988D01*
X477512Y1111023D01*
X477511Y1111071D01*
X477519Y1111171D01*
X477519Y1121744D01*
X477516Y1121770D01*
X477518Y1121796D01*
X477496Y1121943D01*
X477479Y1122090D01*
X477471Y1122115D01*
X477467Y1122141D01*
X477412Y1122279D01*
X477362Y1122418D01*
X477348Y1122440D01*
X477338Y1122465D01*
X477253Y1122586D01*
X477173Y1122711D01*
X477154Y1122729D01*
X477139Y1122751D01*
X477029Y1122850D01*
X476922Y1122953D01*
X476900Y1122967D01*
X476880Y1122984D01*
X476750Y1123056D01*
X476623Y1123132D01*
X476599Y1123140D01*
X476599Y1129324D01*
X476596Y1129350D01*
X476598Y1129376D01*
X476576Y1129523D01*
X476559Y1129670D01*
X476551Y1129695D01*
X476547Y1129721D01*
X476492Y1129858D01*
X476442Y1129998D01*
X476428Y1130020D01*
X476418Y1130045D01*
X476333Y1130166D01*
X476253Y1130291D01*
X476240Y1130303D01*
X476285Y1130350D01*
X476299Y1130373D01*
X476316Y1130392D01*
X476388Y1130522D01*
X476464Y1130649D01*
X476472Y1130674D01*
X476485Y1130697D01*
X476525Y1130840D01*
X476570Y1130981D01*
X476572Y1131007D01*
X476580Y1131032D01*
X476599Y1131276D01*
X476599Y1137333D01*
X479868Y1137333D01*
X480385Y1137194D01*
X480866Y1136916D01*
X480962Y1136846D01*
X481077Y1136754D01*
X481101Y1136742D01*
X481122Y1136727D01*
X481259Y1136668D01*
X481393Y1136605D01*
X481418Y1136599D01*
X481442Y1136589D01*
X481589Y1136562D01*
X481733Y1136531D01*
X481759Y1136532D01*
X481785Y1136527D01*
X481934Y1136535D01*
X482082Y1136537D01*
X482107Y1136544D01*
X482133Y1136545D01*
X482276Y1136586D01*
X482420Y1136622D01*
X482443Y1136634D01*
X482468Y1136642D01*
X482598Y1136714D01*
X482730Y1136782D01*
X482750Y1136799D01*
X482772Y1136812D01*
X482959Y1136970D01*
X484337Y1138349D01*
X484496Y1138349D01*
X484522Y1138352D01*
X484548Y1138350D01*
X484695Y1138372D01*
X484842Y1138389D01*
X484867Y1138397D01*
X484893Y1138401D01*
X485031Y1138456D01*
X485170Y1138506D01*
X485192Y1138520D01*
X485217Y1138530D01*
X485338Y1138615D01*
X485463Y1138695D01*
X485481Y1138714D01*
X485503Y1138729D01*
X485602Y1138839D01*
X485705Y1138946D01*
X485719Y1138968D01*
X485736Y1138988D01*
X485808Y1139118D01*
X485884Y1139245D01*
X485892Y1139270D01*
X485905Y1139293D01*
X485945Y1139435D01*
X485990Y1139577D01*
X485992Y1139603D01*
X486000Y1139628D01*
X486019Y1139872D01*
X486019Y1152511D01*
X486793Y1154378D01*
X505122Y1172707D01*
X506989Y1173481D01*
X521711Y1173481D01*
X523578Y1172707D01*
X537707Y1158578D01*
X538481Y1156711D01*
X538481Y1155573D01*
X538484Y1155547D01*
X538482Y1155521D01*
X538504Y1155374D01*
X538521Y1155227D01*
X538529Y1155202D01*
X538533Y1155176D01*
X538588Y1155038D01*
X538638Y1154899D01*
X538652Y1154877D01*
X538662Y1154852D01*
X538747Y1154731D01*
X538827Y1154606D01*
X538846Y1154588D01*
X538861Y1154566D01*
X538971Y1154467D01*
X539078Y1154364D01*
X539100Y1154350D01*
X539120Y1154333D01*
X539250Y1154261D01*
X539377Y1154185D01*
X539402Y1154177D01*
X539425Y1154164D01*
X539568Y1154124D01*
X539709Y1154079D01*
X539735Y1154077D01*
X539760Y1154069D01*
X540004Y1154050D01*
X555745Y1154050D01*
X557531Y1152264D01*
X557531Y1133736D01*
X555745Y1131950D01*
X554736Y1131950D01*
X554710Y1131947D01*
X554684Y1131949D01*
X554537Y1131927D01*
X554390Y1131910D01*
X554365Y1131902D01*
X554339Y1131898D01*
X554201Y1131843D01*
X554062Y1131793D01*
X554040Y1131779D01*
X554015Y1131769D01*
X553894Y1131684D01*
X553769Y1131604D01*
X553751Y1131585D01*
X553729Y1131570D01*
X553630Y1131460D01*
X553527Y1131353D01*
X553513Y1131331D01*
X553496Y1131311D01*
X553424Y1131181D01*
X553348Y1131054D01*
X553340Y1131029D01*
X553327Y1131006D01*
X553287Y1130863D01*
X553242Y1130722D01*
X553240Y1130696D01*
X553232Y1130671D01*
X553213Y1130427D01*
X553213Y1114472D01*
X553216Y1114446D01*
X553214Y1114420D01*
X553236Y1114273D01*
X553253Y1114126D01*
X553261Y1114101D01*
X553265Y1114075D01*
X553320Y1113937D01*
X553370Y1113798D01*
X553384Y1113776D01*
X553394Y1113751D01*
X553479Y1113630D01*
X553559Y1113505D01*
X553578Y1113487D01*
X553593Y1113465D01*
X553703Y1113366D01*
X553810Y1113263D01*
X553832Y1113249D01*
X553852Y1113232D01*
X553982Y1113160D01*
X554109Y1113084D01*
X554134Y1113076D01*
X554157Y1113063D01*
X554300Y1113023D01*
X554441Y1112978D01*
X554467Y1112976D01*
X554492Y1112968D01*
X554736Y1112949D01*
X557063Y1112949D01*
X557723Y1112289D01*
X557743Y1112272D01*
X557760Y1112252D01*
X557880Y1112164D01*
X557996Y1112072D01*
X558020Y1112061D01*
X558041Y1112045D01*
X558177Y1111987D01*
X558311Y1111923D01*
X558337Y1111918D01*
X558361Y1111907D01*
X558507Y1111881D01*
X558652Y1111850D01*
X558678Y1111850D01*
X558704Y1111846D01*
X558852Y1111853D01*
X559000Y1111856D01*
X559026Y1111862D01*
X559052Y1111863D01*
X559194Y1111904D01*
X559338Y1111941D01*
X559362Y1111953D01*
X559387Y1111960D01*
X559516Y1112032D01*
X559648Y1112100D01*
X559668Y1112117D01*
X559691Y1112130D01*
X559877Y1112289D01*
X560537Y1112949D01*
X574063Y1112949D01*
X575849Y1111163D01*
X575849Y1098637D01*
X574063Y1096851D01*
X566349Y1096851D01*
X566223Y1096837D01*
X566097Y1096830D01*
X566051Y1096817D01*
X566003Y1096811D01*
X565884Y1096769D01*
X565762Y1096734D01*
X565720Y1096710D01*
X565675Y1096694D01*
X565568Y1096625D01*
X565458Y1096564D01*
X565412Y1096524D01*
X565382Y1096505D01*
X565348Y1096470D01*
X565272Y1096405D01*
X557190Y1088323D01*
X555510Y1087627D01*
X523225Y1087627D01*
X523099Y1087613D01*
X522973Y1087606D01*
X522927Y1087593D01*
X522879Y1087587D01*
X522760Y1087545D01*
X522638Y1087510D01*
X522596Y1087486D01*
X522551Y1087470D01*
X522444Y1087401D01*
X522334Y1087340D01*
X522288Y1087300D01*
X522258Y1087281D01*
X522224Y1087246D01*
X522148Y1087181D01*
X513019Y1078052D01*
X512940Y1077953D01*
X512856Y1077859D01*
X512832Y1077817D01*
X512802Y1077779D01*
X512748Y1077665D01*
X512687Y1077554D01*
X512674Y1077508D01*
X512653Y1077464D01*
X512627Y1077341D01*
X512592Y1077219D01*
X512587Y1077158D01*
X512580Y1077123D01*
X512581Y1077075D01*
X512573Y1076975D01*
X512573Y1073579D01*
X512587Y1073453D01*
X512594Y1073327D01*
X512607Y1073281D01*
X512613Y1073233D01*
X512655Y1073114D01*
X512690Y1072992D01*
X512714Y1072950D01*
X512730Y1072905D01*
X512799Y1072798D01*
X512860Y1072688D01*
X512900Y1072642D01*
X512919Y1072612D01*
X512954Y1072578D01*
X513019Y1072502D01*
X514427Y1071094D01*
X515581Y1068308D01*
X515581Y1065292D01*
X514427Y1062506D01*
X512294Y1060373D01*
X509508Y1059219D01*
X506492Y1059219D01*
X503706Y1060373D01*
X502298Y1061781D01*
X502199Y1061860D01*
X502105Y1061944D01*
X502063Y1061968D01*
X502025Y1061998D01*
X501911Y1062052D01*
X501800Y1062113D01*
X501754Y1062126D01*
X501710Y1062147D01*
X501587Y1062173D01*
X501465Y1062208D01*
X501404Y1062213D01*
X501369Y1062220D01*
X501321Y1062219D01*
X501221Y1062227D01*
X472425Y1062227D01*
X472299Y1062213D01*
X472173Y1062206D01*
X472127Y1062193D01*
X472079Y1062187D01*
X471960Y1062145D01*
X471838Y1062110D01*
X471796Y1062086D01*
X471751Y1062070D01*
X471644Y1062001D01*
X471534Y1061940D01*
X471488Y1061900D01*
X471458Y1061881D01*
X471424Y1061846D01*
X471348Y1061781D01*
X435882Y1026315D01*
X434202Y1025619D01*
X412186Y1025619D01*
G37*
%LPD*%
%LPC*%
G36*
X363969Y1095080D02*
X363969Y1095080D01*
X351672Y1101451D01*
X341550Y1110905D01*
X334353Y1122739D01*
X330617Y1136075D01*
X330617Y1149925D01*
X334353Y1163261D01*
X341550Y1175095D01*
X351672Y1184549D01*
X363969Y1190920D01*
X377529Y1193738D01*
X391347Y1192793D01*
X404398Y1188155D01*
X415713Y1180168D01*
X424453Y1169424D01*
X429971Y1156721D01*
X431857Y1143000D01*
X429971Y1129279D01*
X424453Y1116575D01*
X415713Y1105832D01*
X404398Y1097845D01*
X391347Y1093207D01*
X377529Y1092262D01*
X363969Y1095080D01*
G37*
%LPD*%
%LPC*%
G36*
X891882Y832781D02*
X891882Y832781D01*
X887821Y834463D01*
X884713Y837571D01*
X883031Y841632D01*
X883031Y846028D01*
X884713Y850089D01*
X887821Y853197D01*
X888472Y853466D01*
X888559Y853515D01*
X888651Y853555D01*
X888711Y853599D01*
X888776Y853635D01*
X888851Y853703D01*
X888931Y853763D01*
X888979Y853819D01*
X889034Y853869D01*
X889091Y853952D01*
X889156Y854029D01*
X889190Y854095D01*
X889233Y854156D01*
X889269Y854250D01*
X889315Y854339D01*
X889333Y854411D01*
X889360Y854480D01*
X889375Y854580D01*
X889399Y854677D01*
X889400Y854751D01*
X889411Y854825D01*
X889403Y854925D01*
X889404Y855026D01*
X889388Y855098D01*
X889382Y855172D01*
X889351Y855268D01*
X889330Y855366D01*
X889298Y855433D01*
X889275Y855504D01*
X889223Y855590D01*
X889180Y855681D01*
X889134Y855739D01*
X889095Y855803D01*
X889025Y855875D01*
X888963Y855953D01*
X888905Y855999D01*
X888853Y856053D01*
X888768Y856107D01*
X888689Y856169D01*
X888600Y856215D01*
X888559Y856241D01*
X888526Y856253D01*
X888472Y856281D01*
X887605Y856640D01*
X884390Y859855D01*
X883991Y860817D01*
X883954Y860884D01*
X883926Y860955D01*
X883870Y861035D01*
X883822Y861122D01*
X883770Y861178D01*
X883727Y861241D01*
X883654Y861307D01*
X883588Y861380D01*
X883525Y861423D01*
X883468Y861474D01*
X883382Y861522D01*
X883301Y861578D01*
X883230Y861606D01*
X883163Y861643D01*
X883068Y861670D01*
X882977Y861706D01*
X882901Y861717D01*
X882828Y861738D01*
X882679Y861750D01*
X882632Y861757D01*
X882613Y861755D01*
X882584Y861757D01*
X800972Y861757D01*
X800946Y861754D01*
X800920Y861756D01*
X800773Y861734D01*
X800626Y861717D01*
X800601Y861709D01*
X800575Y861705D01*
X800437Y861650D01*
X800298Y861600D01*
X800276Y861586D01*
X800251Y861576D01*
X800130Y861491D01*
X800005Y861411D01*
X799987Y861392D01*
X799965Y861377D01*
X799866Y861267D01*
X799763Y861160D01*
X799749Y861138D01*
X799732Y861118D01*
X799660Y860988D01*
X799584Y860861D01*
X799576Y860836D01*
X799563Y860813D01*
X799523Y860670D01*
X799478Y860529D01*
X799476Y860503D01*
X799468Y860478D01*
X799449Y860234D01*
X799449Y855637D01*
X797663Y853851D01*
X777137Y853851D01*
X775351Y855637D01*
X775351Y874163D01*
X777137Y875949D01*
X797663Y875949D01*
X799449Y874163D01*
X799449Y872426D01*
X799452Y872400D01*
X799450Y872374D01*
X799472Y872227D01*
X799489Y872080D01*
X799497Y872055D01*
X799501Y872029D01*
X799556Y871891D01*
X799606Y871752D01*
X799620Y871730D01*
X799630Y871705D01*
X799715Y871584D01*
X799795Y871459D01*
X799814Y871441D01*
X799829Y871419D01*
X799939Y871320D01*
X800046Y871217D01*
X800068Y871203D01*
X800088Y871186D01*
X800218Y871114D01*
X800345Y871038D01*
X800370Y871030D01*
X800393Y871017D01*
X800536Y870977D01*
X800677Y870932D01*
X800703Y870930D01*
X800728Y870922D01*
X800972Y870903D01*
X882584Y870903D01*
X882660Y870911D01*
X882736Y870910D01*
X882832Y870931D01*
X882930Y870943D01*
X883002Y870968D01*
X883077Y870985D01*
X883165Y871027D01*
X883258Y871060D01*
X883322Y871102D01*
X883391Y871134D01*
X883468Y871196D01*
X883551Y871249D01*
X883604Y871304D01*
X883664Y871352D01*
X883725Y871429D01*
X883793Y871500D01*
X883832Y871565D01*
X883880Y871625D01*
X883948Y871758D01*
X883972Y871799D01*
X883978Y871817D01*
X883991Y871843D01*
X884390Y872805D01*
X887605Y876020D01*
X891806Y877761D01*
X896354Y877761D01*
X900555Y876020D01*
X903770Y872805D01*
X905511Y868604D01*
X905511Y864056D01*
X903770Y859855D01*
X900555Y856640D01*
X899688Y856281D01*
X899601Y856232D01*
X899509Y856192D01*
X899449Y856147D01*
X899384Y856111D01*
X899310Y856044D01*
X899229Y855984D01*
X899181Y855927D01*
X899126Y855877D01*
X899069Y855795D01*
X899004Y855718D01*
X898970Y855652D01*
X898928Y855590D01*
X898891Y855497D01*
X898845Y855408D01*
X898827Y855335D01*
X898800Y855266D01*
X898785Y855167D01*
X898761Y855069D01*
X898760Y854995D01*
X898749Y854921D01*
X898757Y854821D01*
X898756Y854721D01*
X898772Y854648D01*
X898778Y854574D01*
X898809Y854479D01*
X898830Y854380D01*
X898862Y854313D01*
X898885Y854242D01*
X898937Y854156D01*
X898980Y854066D01*
X899026Y854008D01*
X899065Y853944D01*
X899135Y853872D01*
X899197Y853793D01*
X899256Y853747D01*
X899307Y853694D01*
X899392Y853640D01*
X899471Y853577D01*
X899560Y853532D01*
X899601Y853506D01*
X899634Y853494D01*
X899688Y853466D01*
X900339Y853197D01*
X903447Y850089D01*
X905129Y846028D01*
X905129Y841632D01*
X903447Y837571D01*
X900339Y834463D01*
X896278Y832781D01*
X891882Y832781D01*
G37*
%LPD*%
%LPC*%
G36*
X1077302Y656251D02*
X1077302Y656251D01*
X1073241Y657933D01*
X1070133Y661041D01*
X1068451Y665102D01*
X1068451Y669498D01*
X1070133Y673559D01*
X1073241Y676667D01*
X1073892Y676936D01*
X1073979Y676985D01*
X1074071Y677025D01*
X1074131Y677069D01*
X1074196Y677105D01*
X1074271Y677173D01*
X1074351Y677233D01*
X1074399Y677289D01*
X1074454Y677339D01*
X1074511Y677422D01*
X1074576Y677499D01*
X1074610Y677565D01*
X1074653Y677626D01*
X1074689Y677720D01*
X1074735Y677809D01*
X1074753Y677881D01*
X1074780Y677950D01*
X1074795Y678050D01*
X1074819Y678147D01*
X1074820Y678221D01*
X1074831Y678295D01*
X1074823Y678395D01*
X1074824Y678496D01*
X1074808Y678568D01*
X1074802Y678642D01*
X1074771Y678738D01*
X1074750Y678836D01*
X1074718Y678903D01*
X1074695Y678974D01*
X1074643Y679060D01*
X1074600Y679151D01*
X1074554Y679209D01*
X1074515Y679273D01*
X1074445Y679345D01*
X1074383Y679423D01*
X1074325Y679469D01*
X1074273Y679523D01*
X1074188Y679577D01*
X1074109Y679639D01*
X1074020Y679685D01*
X1073979Y679711D01*
X1073946Y679723D01*
X1073892Y679751D01*
X1073025Y680110D01*
X1069810Y683325D01*
X1068069Y687526D01*
X1068069Y692074D01*
X1069810Y696275D01*
X1073025Y699490D01*
X1073987Y699889D01*
X1074054Y699926D01*
X1074125Y699954D01*
X1074205Y700010D01*
X1074292Y700058D01*
X1074348Y700110D01*
X1074411Y700153D01*
X1074477Y700226D01*
X1074550Y700292D01*
X1074593Y700355D01*
X1074644Y700412D01*
X1074692Y700498D01*
X1074748Y700579D01*
X1074776Y700650D01*
X1074813Y700717D01*
X1074840Y700812D01*
X1074876Y700903D01*
X1074887Y700979D01*
X1074908Y701052D01*
X1074920Y701201D01*
X1074927Y701248D01*
X1074925Y701267D01*
X1074927Y701296D01*
X1074927Y748428D01*
X1074924Y748454D01*
X1074926Y748480D01*
X1074904Y748627D01*
X1074887Y748774D01*
X1074879Y748799D01*
X1074875Y748825D01*
X1074820Y748963D01*
X1074770Y749102D01*
X1074756Y749124D01*
X1074746Y749149D01*
X1074661Y749270D01*
X1074581Y749395D01*
X1074562Y749413D01*
X1074547Y749435D01*
X1074437Y749534D01*
X1074330Y749637D01*
X1074308Y749651D01*
X1074288Y749668D01*
X1074158Y749740D01*
X1074031Y749816D01*
X1074006Y749824D01*
X1073983Y749837D01*
X1073840Y749877D01*
X1073699Y749922D01*
X1073673Y749924D01*
X1073648Y749932D01*
X1073404Y749951D01*
X1071537Y749951D01*
X1069751Y751737D01*
X1069751Y772263D01*
X1071537Y774049D01*
X1090063Y774049D01*
X1091849Y772263D01*
X1091849Y751737D01*
X1090063Y749951D01*
X1085596Y749951D01*
X1085570Y749948D01*
X1085544Y749950D01*
X1085397Y749928D01*
X1085250Y749911D01*
X1085225Y749903D01*
X1085199Y749899D01*
X1085061Y749844D01*
X1084922Y749794D01*
X1084900Y749780D01*
X1084875Y749770D01*
X1084754Y749685D01*
X1084629Y749605D01*
X1084611Y749586D01*
X1084589Y749571D01*
X1084490Y749461D01*
X1084387Y749354D01*
X1084373Y749332D01*
X1084356Y749312D01*
X1084284Y749182D01*
X1084208Y749055D01*
X1084200Y749030D01*
X1084187Y749007D01*
X1084147Y748864D01*
X1084102Y748723D01*
X1084100Y748697D01*
X1084092Y748672D01*
X1084073Y748428D01*
X1084073Y701296D01*
X1084081Y701220D01*
X1084080Y701144D01*
X1084101Y701048D01*
X1084113Y700950D01*
X1084138Y700878D01*
X1084155Y700803D01*
X1084197Y700715D01*
X1084230Y700622D01*
X1084272Y700558D01*
X1084304Y700489D01*
X1084366Y700412D01*
X1084419Y700329D01*
X1084474Y700276D01*
X1084522Y700216D01*
X1084599Y700155D01*
X1084670Y700087D01*
X1084735Y700048D01*
X1084795Y700000D01*
X1084928Y699932D01*
X1084969Y699908D01*
X1084987Y699902D01*
X1085013Y699889D01*
X1085975Y699490D01*
X1089190Y696275D01*
X1090931Y692074D01*
X1090931Y687526D01*
X1089190Y683325D01*
X1085975Y680110D01*
X1085108Y679751D01*
X1085021Y679702D01*
X1084929Y679662D01*
X1084869Y679617D01*
X1084804Y679581D01*
X1084730Y679514D01*
X1084649Y679454D01*
X1084601Y679397D01*
X1084546Y679347D01*
X1084489Y679265D01*
X1084424Y679188D01*
X1084390Y679122D01*
X1084348Y679060D01*
X1084311Y678967D01*
X1084265Y678878D01*
X1084247Y678805D01*
X1084220Y678736D01*
X1084205Y678637D01*
X1084181Y678539D01*
X1084180Y678465D01*
X1084169Y678391D01*
X1084177Y678291D01*
X1084176Y678191D01*
X1084192Y678118D01*
X1084198Y678044D01*
X1084229Y677949D01*
X1084250Y677850D01*
X1084282Y677783D01*
X1084305Y677712D01*
X1084357Y677626D01*
X1084400Y677536D01*
X1084446Y677478D01*
X1084485Y677414D01*
X1084555Y677342D01*
X1084617Y677263D01*
X1084676Y677217D01*
X1084727Y677164D01*
X1084812Y677110D01*
X1084891Y677047D01*
X1084980Y677002D01*
X1085021Y676976D01*
X1085054Y676964D01*
X1085108Y676936D01*
X1085759Y676667D01*
X1088867Y673559D01*
X1090549Y669498D01*
X1090549Y665102D01*
X1088867Y661041D01*
X1085759Y657933D01*
X1081698Y656251D01*
X1077302Y656251D01*
G37*
%LPD*%
%LPC*%
G36*
X372947Y965247D02*
X372947Y965247D01*
X372947Y1004233D01*
X410168Y1004233D01*
X410685Y1004094D01*
X411148Y1003827D01*
X411527Y1003448D01*
X411794Y1002985D01*
X411933Y1002468D01*
X411933Y965247D01*
X372947Y965247D01*
G37*
%LPD*%
%LPC*%
G36*
X327867Y965247D02*
X327867Y965247D01*
X327867Y1002468D01*
X328006Y1002985D01*
X328273Y1003448D01*
X328652Y1003827D01*
X329115Y1004094D01*
X329632Y1004233D01*
X366853Y1004233D01*
X366853Y965247D01*
X327867Y965247D01*
G37*
%LPD*%
%LPC*%
G36*
X372947Y959153D02*
X372947Y959153D01*
X411933Y959153D01*
X411933Y921932D01*
X411794Y921415D01*
X411527Y920952D01*
X411148Y920573D01*
X410685Y920306D01*
X410168Y920167D01*
X372947Y920167D01*
X372947Y959153D01*
G37*
%LPD*%
%LPC*%
G36*
X329632Y920167D02*
X329632Y920167D01*
X329115Y920306D01*
X328652Y920573D01*
X328273Y920952D01*
X328006Y921415D01*
X327867Y921932D01*
X327867Y959153D01*
X366853Y959153D01*
X366853Y920167D01*
X329632Y920167D01*
G37*
%LPD*%
%LPC*%
G36*
X445912Y801351D02*
X445912Y801351D01*
X438452Y804442D01*
X432742Y810152D01*
X429651Y817612D01*
X429651Y825688D01*
X432742Y833148D01*
X438452Y838858D01*
X445912Y841949D01*
X453988Y841949D01*
X461448Y838858D01*
X467158Y833148D01*
X470249Y825688D01*
X470249Y817612D01*
X467158Y810152D01*
X461448Y804442D01*
X453988Y801351D01*
X445912Y801351D01*
G37*
%LPD*%
%LPC*%
G36*
X286967Y881951D02*
X286967Y881951D01*
X281454Y884235D01*
X277235Y888454D01*
X274951Y893967D01*
X274951Y899933D01*
X277235Y905446D01*
X281454Y909665D01*
X286967Y911949D01*
X292933Y911949D01*
X298446Y909665D01*
X302665Y905446D01*
X304949Y899933D01*
X304949Y893967D01*
X302665Y888454D01*
X298446Y884235D01*
X292933Y881951D01*
X286967Y881951D01*
G37*
%LPD*%
%LPC*%
G36*
X832636Y418356D02*
X832636Y418356D01*
X827548Y420464D01*
X823654Y424358D01*
X821546Y429446D01*
X821546Y434954D01*
X823654Y440042D01*
X827548Y443936D01*
X832636Y446044D01*
X838144Y446044D01*
X843232Y443936D01*
X847126Y440042D01*
X849234Y434954D01*
X849234Y429446D01*
X847126Y424358D01*
X843232Y420464D01*
X838144Y418356D01*
X832636Y418356D01*
G37*
%LPD*%
%LPC*%
G36*
X828826Y809986D02*
X828826Y809986D01*
X823738Y812094D01*
X819844Y815988D01*
X817736Y821076D01*
X817736Y826584D01*
X819844Y831672D01*
X823738Y835566D01*
X828826Y837674D01*
X834334Y837674D01*
X839422Y835566D01*
X843316Y831672D01*
X845424Y826584D01*
X845424Y821076D01*
X843316Y815988D01*
X839422Y812094D01*
X834334Y809986D01*
X828826Y809986D01*
G37*
%LPD*%
%LPC*%
G36*
X633246Y633456D02*
X633246Y633456D01*
X628158Y635564D01*
X624264Y639458D01*
X622156Y644546D01*
X622156Y650054D01*
X624264Y655142D01*
X628158Y659036D01*
X633246Y661144D01*
X638754Y661144D01*
X643842Y659036D01*
X647736Y655142D01*
X649844Y650054D01*
X649844Y644546D01*
X647736Y639458D01*
X643842Y635564D01*
X638754Y633456D01*
X633246Y633456D01*
G37*
%LPD*%
%LPC*%
G36*
X1014246Y583456D02*
X1014246Y583456D01*
X1009158Y585564D01*
X1005264Y589458D01*
X1003156Y594546D01*
X1003156Y600054D01*
X1005264Y605142D01*
X1009158Y609036D01*
X1014246Y611144D01*
X1019754Y611144D01*
X1024842Y609036D01*
X1028736Y605142D01*
X1030844Y600054D01*
X1030844Y594546D01*
X1028736Y589458D01*
X1024842Y585564D01*
X1019754Y583456D01*
X1014246Y583456D01*
G37*
%LPD*%
%LPC*%
G36*
X1014246Y633456D02*
X1014246Y633456D01*
X1009158Y635564D01*
X1005264Y639458D01*
X1003156Y644546D01*
X1003156Y650054D01*
X1005264Y655142D01*
X1009158Y659036D01*
X1014246Y661144D01*
X1019754Y661144D01*
X1024842Y659036D01*
X1028736Y655142D01*
X1030844Y650054D01*
X1030844Y644546D01*
X1028736Y639458D01*
X1024842Y635564D01*
X1019754Y633456D01*
X1014246Y633456D01*
G37*
%LPD*%
%LPC*%
G36*
X832636Y468356D02*
X832636Y468356D01*
X827548Y470464D01*
X823654Y474358D01*
X821546Y479446D01*
X821546Y484954D01*
X823654Y490042D01*
X827548Y493936D01*
X832636Y496044D01*
X838144Y496044D01*
X843232Y493936D01*
X847126Y490042D01*
X849234Y484954D01*
X849234Y479446D01*
X847126Y474358D01*
X843232Y470464D01*
X838144Y468356D01*
X832636Y468356D01*
G37*
%LPD*%
%LPC*%
G36*
X328692Y678219D02*
X328692Y678219D01*
X325906Y679373D01*
X323773Y681506D01*
X322619Y684292D01*
X322619Y687308D01*
X323773Y690094D01*
X325181Y691502D01*
X325260Y691601D01*
X325312Y691659D01*
X325313Y691660D01*
X325314Y691661D01*
X325344Y691695D01*
X325368Y691737D01*
X325398Y691775D01*
X325452Y691889D01*
X325471Y691923D01*
X325492Y691959D01*
X325494Y691966D01*
X325513Y692000D01*
X325526Y692046D01*
X325547Y692090D01*
X325573Y692211D01*
X325598Y692291D01*
X325600Y692307D01*
X325608Y692335D01*
X325613Y692396D01*
X325620Y692431D01*
X325619Y692479D01*
X325627Y692579D01*
X325627Y715851D01*
X325613Y715977D01*
X325606Y716103D01*
X325593Y716149D01*
X325587Y716197D01*
X325545Y716316D01*
X325510Y716438D01*
X325486Y716480D01*
X325470Y716525D01*
X325401Y716632D01*
X325340Y716742D01*
X325300Y716788D01*
X325281Y716818D01*
X325246Y716852D01*
X325181Y716928D01*
X323773Y718336D01*
X322619Y721122D01*
X322619Y724138D01*
X323773Y726924D01*
X325906Y729057D01*
X328692Y730211D01*
X331708Y730211D01*
X334494Y729057D01*
X336627Y726924D01*
X337781Y724138D01*
X337781Y721122D01*
X336627Y718336D01*
X335219Y716928D01*
X335140Y716829D01*
X335056Y716735D01*
X335032Y716693D01*
X335002Y716655D01*
X334948Y716541D01*
X334887Y716430D01*
X334874Y716384D01*
X334853Y716340D01*
X334827Y716217D01*
X334792Y716095D01*
X334787Y716034D01*
X334780Y715999D01*
X334781Y715951D01*
X334773Y715851D01*
X334773Y692579D01*
X334775Y692556D01*
X334774Y692534D01*
X334788Y692439D01*
X334794Y692327D01*
X334807Y692281D01*
X334813Y692233D01*
X334823Y692203D01*
X334825Y692190D01*
X334853Y692120D01*
X334855Y692114D01*
X334890Y691992D01*
X334914Y691950D01*
X334930Y691905D01*
X334952Y691871D01*
X334954Y691866D01*
X334971Y691842D01*
X334999Y691798D01*
X335060Y691688D01*
X335100Y691642D01*
X335119Y691612D01*
X335154Y691578D01*
X335219Y691502D01*
X336627Y690094D01*
X337781Y687308D01*
X337781Y684292D01*
X336627Y681506D01*
X334494Y679373D01*
X331708Y678219D01*
X328692Y678219D01*
G37*
%LPD*%
%LPC*%
G36*
X274244Y793081D02*
X274244Y793081D01*
X269448Y795068D01*
X265778Y798738D01*
X263791Y803534D01*
X263791Y808726D01*
X265778Y813522D01*
X269448Y817192D01*
X274244Y819179D01*
X279436Y819179D01*
X284232Y817192D01*
X287902Y813522D01*
X289889Y808726D01*
X289889Y803534D01*
X287902Y798738D01*
X284232Y795068D01*
X279436Y793081D01*
X274244Y793081D01*
G37*
%LPD*%
%LPC*%
G36*
X481244Y1026081D02*
X481244Y1026081D01*
X476448Y1028068D01*
X472778Y1031738D01*
X470791Y1036534D01*
X470791Y1041726D01*
X472778Y1046522D01*
X476448Y1050192D01*
X481244Y1052179D01*
X486436Y1052179D01*
X491232Y1050192D01*
X494902Y1046522D01*
X496889Y1041726D01*
X496889Y1036534D01*
X494902Y1031738D01*
X491232Y1028068D01*
X486436Y1026081D01*
X481244Y1026081D01*
G37*
%LPD*%
%LPC*%
G36*
X481244Y793081D02*
X481244Y793081D01*
X476448Y795068D01*
X472778Y798738D01*
X470791Y803534D01*
X470791Y808726D01*
X472778Y813522D01*
X476448Y817192D01*
X481244Y819179D01*
X486436Y819179D01*
X491232Y817192D01*
X494902Y813522D01*
X496889Y808726D01*
X496889Y803534D01*
X494902Y798738D01*
X491232Y795068D01*
X486436Y793081D01*
X481244Y793081D01*
G37*
%LPD*%
%LPC*%
G36*
X274244Y1026081D02*
X274244Y1026081D01*
X269448Y1028068D01*
X265778Y1031738D01*
X263791Y1036534D01*
X263791Y1041726D01*
X265778Y1046522D01*
X269448Y1050192D01*
X274244Y1052179D01*
X279436Y1052179D01*
X284232Y1050192D01*
X287902Y1046522D01*
X289889Y1041726D01*
X289889Y1036534D01*
X287902Y1031738D01*
X284232Y1028068D01*
X279436Y1026081D01*
X274244Y1026081D01*
G37*
%LPD*%
%LPC*%
G36*
X894040Y733255D02*
X894040Y733255D01*
X893899Y733300D01*
X893873Y733302D01*
X893848Y733310D01*
X893604Y733329D01*
X883852Y733329D01*
X883922Y733769D01*
X884428Y735328D01*
X885172Y736788D01*
X886136Y738115D01*
X887295Y739274D01*
X888622Y740237D01*
X889893Y740886D01*
X889927Y740908D01*
X889965Y740924D01*
X890072Y741004D01*
X890184Y741078D01*
X890212Y741108D01*
X890244Y741132D01*
X890331Y741234D01*
X890423Y741332D01*
X890443Y741367D01*
X890470Y741398D01*
X890531Y741517D01*
X890598Y741633D01*
X890610Y741672D01*
X890628Y741708D01*
X890661Y741838D01*
X890700Y741966D01*
X890703Y742007D01*
X890712Y742047D01*
X890714Y742181D01*
X890723Y742314D01*
X890717Y742354D01*
X890718Y742395D01*
X890689Y742526D01*
X890667Y742658D01*
X890652Y742696D01*
X890643Y742736D01*
X890586Y742856D01*
X890535Y742980D01*
X890511Y743014D01*
X890493Y743050D01*
X890410Y743155D01*
X890332Y743264D01*
X890301Y743291D01*
X890276Y743323D01*
X890171Y743406D01*
X890070Y743494D01*
X890035Y743513D01*
X890003Y743539D01*
X889785Y743650D01*
X887821Y744463D01*
X884713Y747571D01*
X883031Y751632D01*
X883031Y756028D01*
X884713Y760089D01*
X887821Y763197D01*
X891882Y764879D01*
X896278Y764879D01*
X900339Y763197D01*
X903447Y760089D01*
X905129Y756028D01*
X905129Y751632D01*
X903447Y747571D01*
X900339Y744463D01*
X898375Y743650D01*
X898340Y743630D01*
X898301Y743617D01*
X898188Y743546D01*
X898071Y743481D01*
X898040Y743453D01*
X898006Y743432D01*
X897912Y743337D01*
X897812Y743247D01*
X897789Y743213D01*
X897761Y743184D01*
X897690Y743070D01*
X897614Y742960D01*
X897599Y742922D01*
X897578Y742887D01*
X897535Y742760D01*
X897486Y742636D01*
X897480Y742595D01*
X897468Y742557D01*
X897455Y742423D01*
X897436Y742291D01*
X897439Y742250D01*
X897435Y742210D01*
X897453Y742077D01*
X897465Y741944D01*
X897477Y741905D01*
X897483Y741865D01*
X897530Y741740D01*
X897572Y741612D01*
X897593Y741577D01*
X897607Y741539D01*
X897682Y741428D01*
X897751Y741313D01*
X897780Y741284D01*
X897802Y741250D01*
X897901Y741160D01*
X897994Y741063D01*
X898028Y741041D01*
X898058Y741014D01*
X898267Y740886D01*
X899538Y740237D01*
X900865Y739274D01*
X902024Y738115D01*
X902988Y736788D01*
X903732Y735328D01*
X904238Y733769D01*
X904308Y733329D01*
X894556Y733329D01*
X894530Y733326D01*
X894504Y733328D01*
X894357Y733306D01*
X894210Y733289D01*
X894185Y733281D01*
X894159Y733277D01*
X894078Y733244D01*
X894040Y733255D01*
G37*
%LPD*%
%LPC*%
G36*
X124614Y892666D02*
X124614Y892666D01*
X121564Y893930D01*
X119230Y896264D01*
X117966Y899314D01*
X117966Y902616D01*
X119230Y905666D01*
X121564Y908000D01*
X124614Y909264D01*
X127916Y909264D01*
X130966Y908000D01*
X133300Y905666D01*
X134564Y902616D01*
X134564Y899314D01*
X133300Y896264D01*
X130966Y893930D01*
X127916Y892666D01*
X124614Y892666D01*
G37*
%LPD*%
%LPC*%
G36*
X151783Y921036D02*
X151783Y921036D01*
X149284Y922071D01*
X147371Y923984D01*
X146336Y926483D01*
X146336Y929187D01*
X147371Y931686D01*
X149284Y933599D01*
X151783Y934634D01*
X154487Y934634D01*
X156986Y933599D01*
X158899Y931686D01*
X159934Y929187D01*
X159934Y926483D01*
X158899Y923984D01*
X156986Y922071D01*
X154487Y921036D01*
X151783Y921036D01*
G37*
%LPD*%
%LPC*%
G36*
X523239Y243839D02*
X523239Y243839D01*
X523239Y250228D01*
X523489Y251807D01*
X523984Y253328D01*
X524710Y254753D01*
X525650Y256047D01*
X526781Y257178D01*
X528075Y258118D01*
X529500Y258844D01*
X530861Y259287D01*
X530861Y243839D01*
X523239Y243839D01*
G37*
%LPD*%
%LPC*%
G36*
X237047Y866647D02*
X237047Y866647D01*
X237047Y882633D01*
X240768Y882633D01*
X241285Y882494D01*
X241748Y882227D01*
X242127Y881848D01*
X242394Y881385D01*
X242533Y880868D01*
X242533Y866647D01*
X237047Y866647D01*
G37*
%LPD*%
%LPC*%
G36*
X237047Y844567D02*
X237047Y844567D01*
X237047Y860553D01*
X242533Y860553D01*
X242533Y846332D01*
X242394Y845815D01*
X242127Y845352D01*
X241748Y844973D01*
X241285Y844706D01*
X240768Y844567D01*
X237047Y844567D01*
G37*
%LPD*%
%LPC*%
G36*
X227232Y844567D02*
X227232Y844567D01*
X226715Y844706D01*
X226252Y844973D01*
X225873Y845352D01*
X225606Y845815D01*
X225467Y846332D01*
X225467Y860553D01*
X230953Y860553D01*
X230953Y844567D01*
X227232Y844567D01*
G37*
%LPD*%
%LPC*%
G36*
X225467Y866647D02*
X225467Y866647D01*
X225467Y880868D01*
X225606Y881385D01*
X225873Y881848D01*
X226252Y882227D01*
X226715Y882494D01*
X227232Y882633D01*
X230953Y882633D01*
X230953Y866647D01*
X225467Y866647D01*
G37*
%LPD*%
%LPC*%
G36*
X959579Y776829D02*
X959579Y776829D01*
X959579Y786343D01*
X959584Y786342D01*
X961504Y785718D01*
X963303Y784801D01*
X964937Y783614D01*
X966364Y782187D01*
X967551Y780553D01*
X968468Y778754D01*
X969092Y776834D01*
X969093Y776829D01*
X959579Y776829D01*
G37*
%LPD*%
%LPC*%
G36*
X963389Y435199D02*
X963389Y435199D01*
X963389Y444713D01*
X963394Y444712D01*
X965314Y444088D01*
X967113Y443171D01*
X968747Y441984D01*
X970174Y440557D01*
X971361Y438923D01*
X972278Y437124D01*
X972902Y435204D01*
X972903Y435199D01*
X963389Y435199D01*
G37*
%LPD*%
%LPC*%
G36*
X763999Y600299D02*
X763999Y600299D01*
X763999Y609813D01*
X764004Y609812D01*
X765924Y609188D01*
X767723Y608271D01*
X769357Y607084D01*
X770784Y605657D01*
X771971Y604023D01*
X772888Y602224D01*
X773512Y600304D01*
X773513Y600299D01*
X763999Y600299D01*
G37*
%LPD*%
%LPC*%
G36*
X1144999Y600299D02*
X1144999Y600299D01*
X1144999Y609813D01*
X1145004Y609812D01*
X1146924Y609188D01*
X1148723Y608271D01*
X1150357Y607084D01*
X1151784Y605657D01*
X1152971Y604023D01*
X1153888Y602224D01*
X1154512Y600304D01*
X1154513Y600299D01*
X1144999Y600299D01*
G37*
%LPD*%
%LPC*%
G36*
X944067Y776829D02*
X944067Y776829D01*
X944068Y776834D01*
X944692Y778754D01*
X945609Y780553D01*
X946796Y782187D01*
X948223Y783614D01*
X949857Y784801D01*
X951656Y785718D01*
X953576Y786342D01*
X953581Y786343D01*
X953581Y776829D01*
X944067Y776829D01*
G37*
%LPD*%
%LPC*%
G36*
X959579Y770831D02*
X959579Y770831D01*
X969093Y770831D01*
X969092Y770826D01*
X968468Y768906D01*
X967551Y767107D01*
X966364Y765473D01*
X964937Y764046D01*
X963303Y762859D01*
X961504Y761942D01*
X959584Y761318D01*
X959579Y761317D01*
X959579Y770831D01*
G37*
%LPD*%
%LPC*%
G36*
X963389Y429201D02*
X963389Y429201D01*
X972903Y429201D01*
X972902Y429196D01*
X972278Y427276D01*
X971361Y425477D01*
X970174Y423843D01*
X968747Y422416D01*
X967113Y421229D01*
X965314Y420312D01*
X963394Y419688D01*
X963389Y419687D01*
X963389Y429201D01*
G37*
%LPD*%
%LPC*%
G36*
X1129487Y600299D02*
X1129487Y600299D01*
X1129488Y600304D01*
X1130112Y602224D01*
X1131029Y604023D01*
X1132216Y605657D01*
X1133643Y607084D01*
X1135277Y608271D01*
X1137076Y609188D01*
X1138996Y609812D01*
X1139001Y609813D01*
X1139001Y600299D01*
X1129487Y600299D01*
G37*
%LPD*%
%LPC*%
G36*
X748487Y600299D02*
X748487Y600299D01*
X748488Y600304D01*
X749112Y602224D01*
X750029Y604023D01*
X751216Y605657D01*
X752643Y607084D01*
X754277Y608271D01*
X756076Y609188D01*
X757996Y609812D01*
X758001Y609813D01*
X758001Y600299D01*
X748487Y600299D01*
G37*
%LPD*%
%LPC*%
G36*
X1144999Y594301D02*
X1144999Y594301D01*
X1154513Y594301D01*
X1154512Y594296D01*
X1153888Y592376D01*
X1152971Y590577D01*
X1151784Y588943D01*
X1150357Y587516D01*
X1148723Y586329D01*
X1146924Y585412D01*
X1145004Y584788D01*
X1144999Y584787D01*
X1144999Y594301D01*
G37*
%LPD*%
%LPC*%
G36*
X763999Y594301D02*
X763999Y594301D01*
X773513Y594301D01*
X773512Y594296D01*
X772888Y592376D01*
X771971Y590577D01*
X770784Y588943D01*
X769357Y587516D01*
X767723Y586329D01*
X765924Y585412D01*
X764004Y584788D01*
X763999Y584787D01*
X763999Y594301D01*
G37*
%LPD*%
%LPC*%
G36*
X953576Y761318D02*
X953576Y761318D01*
X951656Y761942D01*
X949857Y762859D01*
X948223Y764046D01*
X946796Y765473D01*
X945609Y767107D01*
X944692Y768906D01*
X944068Y770826D01*
X944067Y770831D01*
X953581Y770831D01*
X953581Y761317D01*
X953576Y761318D01*
G37*
%LPD*%
%LPC*%
G36*
X957386Y419688D02*
X957386Y419688D01*
X955466Y420312D01*
X953667Y421229D01*
X952033Y422416D01*
X950606Y423843D01*
X949419Y425477D01*
X948502Y427276D01*
X947878Y429196D01*
X947877Y429201D01*
X957391Y429201D01*
X957391Y419687D01*
X957386Y419688D01*
G37*
%LPD*%
%LPC*%
G36*
X757996Y584788D02*
X757996Y584788D01*
X756076Y585412D01*
X754277Y586329D01*
X752643Y587516D01*
X751216Y588943D01*
X750029Y590577D01*
X749112Y592376D01*
X748488Y594296D01*
X748487Y594301D01*
X758001Y594301D01*
X758001Y584787D01*
X757996Y584788D01*
G37*
%LPD*%
%LPC*%
G36*
X1138996Y584788D02*
X1138996Y584788D01*
X1137076Y585412D01*
X1135277Y586329D01*
X1133643Y587516D01*
X1132216Y588943D01*
X1131029Y590577D01*
X1130112Y592376D01*
X1129488Y594296D01*
X1129487Y594301D01*
X1139001Y594301D01*
X1139001Y584787D01*
X1138996Y584788D01*
G37*
%LPD*%
%LPC*%
G36*
X612139Y942339D02*
X612139Y942339D01*
X612139Y950971D01*
X612277Y950949D01*
X613988Y950393D01*
X615591Y949576D01*
X617047Y948519D01*
X618319Y947247D01*
X619376Y945791D01*
X620193Y944188D01*
X620749Y942477D01*
X620771Y942339D01*
X612139Y942339D01*
G37*
%LPD*%
%LPC*%
G36*
X598429Y942339D02*
X598429Y942339D01*
X598451Y942477D01*
X599007Y944188D01*
X599824Y945791D01*
X600881Y947247D01*
X602153Y948519D01*
X603609Y949576D01*
X605212Y950393D01*
X606923Y950949D01*
X607061Y950971D01*
X607061Y942339D01*
X598429Y942339D01*
G37*
%LPD*%
%LPC*%
G36*
X492623Y65051D02*
X492623Y65051D01*
X490912Y65607D01*
X489309Y66424D01*
X487853Y67481D01*
X486581Y68753D01*
X485524Y70209D01*
X484707Y71812D01*
X484151Y73523D01*
X484129Y73661D01*
X492761Y73661D01*
X492761Y65029D01*
X492623Y65051D01*
G37*
%LPD*%
%LPC*%
G36*
X1081499Y552801D02*
X1081499Y552801D01*
X1089728Y552801D01*
X1089658Y552361D01*
X1089152Y550802D01*
X1088408Y549342D01*
X1087444Y548015D01*
X1086285Y546856D01*
X1084958Y545892D01*
X1083498Y545148D01*
X1081939Y544642D01*
X1081499Y544572D01*
X1081499Y552801D01*
G37*
%LPD*%
%LPC*%
G36*
X899889Y387701D02*
X899889Y387701D01*
X908118Y387701D01*
X908048Y387261D01*
X907542Y385702D01*
X906798Y384242D01*
X905834Y382915D01*
X904675Y381756D01*
X903348Y380792D01*
X901888Y380048D01*
X900329Y379542D01*
X899889Y379472D01*
X899889Y387701D01*
G37*
%LPD*%
%LPC*%
G36*
X700499Y552801D02*
X700499Y552801D01*
X708728Y552801D01*
X708658Y552361D01*
X708152Y550802D01*
X707408Y549342D01*
X706444Y548015D01*
X705285Y546856D01*
X703958Y545892D01*
X702498Y545148D01*
X700939Y544642D01*
X700499Y544572D01*
X700499Y552801D01*
G37*
%LPD*%
%LPC*%
G36*
X896079Y729331D02*
X896079Y729331D01*
X904308Y729331D01*
X904238Y728891D01*
X903732Y727332D01*
X902988Y725872D01*
X902024Y724545D01*
X900865Y723386D01*
X899538Y722422D01*
X898078Y721678D01*
X896519Y721172D01*
X896079Y721102D01*
X896079Y729331D01*
G37*
%LPD*%
%LPC*%
G36*
X891641Y721172D02*
X891641Y721172D01*
X890082Y721678D01*
X888622Y722422D01*
X887295Y723386D01*
X886136Y724545D01*
X885172Y725872D01*
X884428Y727332D01*
X883922Y728891D01*
X883852Y729331D01*
X892081Y729331D01*
X892081Y721102D01*
X891641Y721172D01*
G37*
%LPD*%
%LPC*%
G36*
X696061Y544642D02*
X696061Y544642D01*
X694502Y545148D01*
X693042Y545892D01*
X691715Y546856D01*
X690556Y548015D01*
X689592Y549342D01*
X688848Y550802D01*
X688342Y552361D01*
X688272Y552801D01*
X696501Y552801D01*
X696501Y544572D01*
X696061Y544642D01*
G37*
%LPD*%
%LPC*%
G36*
X1077061Y544642D02*
X1077061Y544642D01*
X1075502Y545148D01*
X1074042Y545892D01*
X1072715Y546856D01*
X1071556Y548015D01*
X1070592Y549342D01*
X1069848Y550802D01*
X1069342Y552361D01*
X1069272Y552801D01*
X1077501Y552801D01*
X1077501Y544572D01*
X1077061Y544642D01*
G37*
%LPD*%
%LPC*%
G36*
X192531Y433831D02*
X192531Y433831D01*
X192531Y440945D01*
X194288Y440945D01*
X199645Y435588D01*
X199645Y433831D01*
X192531Y433831D01*
G37*
%LPD*%
%LPC*%
G36*
X192531Y422655D02*
X192531Y422655D01*
X192531Y429769D01*
X199645Y429769D01*
X199645Y428012D01*
X194288Y422655D01*
X192531Y422655D01*
G37*
%LPD*%
%LPC*%
G36*
X154899Y415767D02*
X154899Y415767D01*
X154899Y420801D01*
X159433Y420801D01*
X159433Y417532D01*
X159294Y417015D01*
X159027Y416552D01*
X158648Y416173D01*
X158185Y415906D01*
X157668Y415767D01*
X154899Y415767D01*
G37*
%LPD*%
%LPC*%
G36*
X466567Y1132799D02*
X466567Y1132799D01*
X466567Y1135568D01*
X466706Y1136085D01*
X466973Y1136548D01*
X467352Y1136927D01*
X467815Y1137194D01*
X468332Y1137333D01*
X471601Y1137333D01*
X471601Y1132799D01*
X466567Y1132799D01*
G37*
%LPD*%
%LPC*%
G36*
X468332Y1123267D02*
X468332Y1123267D01*
X467815Y1123406D01*
X467352Y1123673D01*
X466973Y1124052D01*
X466706Y1124515D01*
X466567Y1125032D01*
X466567Y1127801D01*
X471601Y1127801D01*
X471601Y1123267D01*
X468332Y1123267D01*
G37*
%LPD*%
%LPC*%
G36*
X147132Y415767D02*
X147132Y415767D01*
X146615Y415906D01*
X146152Y416173D01*
X145773Y416552D01*
X145506Y417015D01*
X145367Y417532D01*
X145367Y420801D01*
X149901Y420801D01*
X149901Y415767D01*
X147132Y415767D01*
G37*
%LPD*%
%LPC*%
G36*
X369899Y962199D02*
X369899Y962199D01*
X369899Y962201D01*
X369901Y962201D01*
X369901Y962199D01*
X369899Y962199D01*
G37*
%LPD*%
%LPC*%
G36*
X233999Y863599D02*
X233999Y863599D01*
X233999Y863601D01*
X234001Y863601D01*
X234001Y863599D01*
X233999Y863599D01*
G37*
%LPD*%
D10*
X831580Y823830D03*
X956580Y823830D03*
X831580Y773830D03*
X956580Y773830D03*
D11*
X894080Y866330D03*
X894080Y731330D03*
D12*
X491100Y1130300D03*
X474100Y1130300D03*
D13*
X152400Y440300D03*
X152400Y423300D03*
D10*
X1017000Y647300D03*
X1142000Y647300D03*
X1017000Y597300D03*
X1142000Y597300D03*
D11*
X1079500Y689800D03*
X1079500Y554800D03*
D14*
X520700Y101600D03*
X520700Y76200D03*
X495300Y76200D03*
X495300Y101600D03*
D15*
X147000Y863600D03*
X234000Y863600D03*
D16*
X671800Y749300D03*
X699800Y749300D03*
D17*
X241300Y420400D03*
X241300Y392400D03*
D16*
X1052800Y762000D03*
X1080800Y762000D03*
D17*
X787400Y836900D03*
X787400Y864900D03*
D16*
X862300Y571500D03*
X890300Y571500D03*
D12*
X499500Y1104900D03*
X516500Y1104900D03*
X567300Y1104900D03*
X550300Y1104900D03*
D18*
X203200Y771500D03*
X203200Y752500D03*
X673100Y885800D03*
X673100Y866800D03*
D16*
X176500Y393700D03*
X204500Y393700D03*
D10*
X636000Y647300D03*
X761000Y647300D03*
X636000Y597300D03*
X761000Y597300D03*
D11*
X698500Y689800D03*
X698500Y554800D03*
D14*
X609600Y939800D03*
X609600Y914400D03*
X609600Y889000D03*
D19*
X548640Y1143000D03*
X533400Y1143000D03*
X518160Y1143000D03*
D20*
X215900Y431800D03*
X203200Y450850D03*
X190500Y431800D03*
D14*
X524510Y356870D03*
X499110Y356870D03*
X473710Y356870D03*
X448310Y356870D03*
X422910Y356870D03*
X397510Y356870D03*
X372110Y356870D03*
X346710Y356870D03*
X321310Y356870D03*
X295910Y356870D03*
X270510Y356870D03*
X245110Y356870D03*
X245110Y179070D03*
X270510Y179070D03*
X295910Y179070D03*
X321310Y179070D03*
X346710Y179070D03*
X372110Y179070D03*
X397510Y179070D03*
X422910Y179070D03*
X448310Y179070D03*
X473710Y179070D03*
X499110Y179070D03*
X524510Y179070D03*
D21*
X418040Y1042130D03*
X392640Y1042130D03*
X367240Y1042130D03*
X341840Y1042130D03*
D10*
X835390Y482200D03*
X960390Y482200D03*
X835390Y432200D03*
X960390Y432200D03*
D11*
X897890Y524700D03*
X897890Y389700D03*
D22*
X369900Y112900D03*
X369900Y962200D03*
D23*
X558800Y249428D02*
X558800Y233172D01*
X533400Y233172D02*
X533400Y249428D01*
X508000Y249428D02*
X508000Y233172D01*
D24*
X177800Y876300D03*
D25*
X221300Y876300D01*
X234000Y863600D01*
D24*
X571500Y1066800D03*
D26*
X204500Y393700D02*
X204500Y379700D01*
X491100Y1130300D02*
X491100Y1151500D01*
X508000Y1168400D01*
X520700Y1168400D01*
X533400Y1155700D01*
X533400Y1143000D01*
D24*
X482600Y1104900D03*
D26*
X482600Y1121800D01*
X491100Y1130300D01*
X349639Y1042130D02*
X341840Y1042130D01*
X432276Y1054576D02*
X482600Y1104900D01*
X362085Y1054576D02*
X349639Y1042130D01*
X362085Y1054576D02*
X432276Y1054576D01*
D24*
X635000Y876300D03*
D26*
X663071Y876300D01*
X663627Y875744D01*
X664156Y875744D01*
X673100Y866800D01*
X484000Y112900D02*
X495300Y101600D01*
X484000Y112900D02*
X546100Y175000D01*
X164338Y180768D02*
X164338Y355172D01*
X178990Y369824D01*
X164338Y180768D02*
X232206Y112900D01*
X268000Y395000D02*
X419100Y546100D01*
D24*
X419100Y546100D03*
D26*
X194624Y369824D02*
X178990Y369824D01*
X194624Y369824D02*
X204500Y379700D01*
X241300Y392400D02*
X243900Y395000D01*
X268000Y395000D01*
X230338Y376380D02*
X225600Y371642D01*
X218900Y371642D01*
X214162Y376380D01*
X230338Y381438D02*
X241300Y392400D01*
X230338Y381438D02*
X230338Y376380D01*
X214162Y376380D02*
X214162Y384038D01*
X204500Y393700D01*
X546100Y203200D02*
X546100Y175000D01*
D24*
X546100Y292100D03*
D26*
X546100Y203200D01*
X524510Y194310D02*
X524510Y179070D01*
X524510Y194310D02*
X533400Y203200D01*
X546100Y203200D01*
X533400Y215900D02*
X508000Y241300D01*
X533400Y215900D02*
X533400Y203200D01*
D25*
X698500Y689800D02*
X698500Y748000D01*
X699800Y749300D01*
X761000Y647300D02*
X702048Y588348D01*
X456109Y356870D02*
X448310Y356870D01*
X687587Y588348D02*
X702048Y588348D01*
X687587Y588348D02*
X456109Y356870D01*
X346710Y424210D02*
X671800Y749300D01*
X346710Y424210D02*
X346710Y356870D01*
X873348Y582548D02*
X1052800Y762000D01*
X873348Y582548D02*
X873348Y561238D01*
X642311Y330200D01*
X330200Y330200D01*
D24*
X330200Y330200D03*
D25*
X1079500Y689800D02*
X1079500Y760700D01*
X1080800Y762000D01*
X307370Y356870D02*
X295910Y356870D01*
X307370Y356870D02*
X308864Y358364D01*
X711848Y761348D02*
X787400Y836900D01*
X662538Y761348D02*
X308864Y407675D01*
X308864Y358364D01*
X662538Y761348D02*
X711848Y761348D01*
X788830Y866330D02*
X894080Y866330D01*
X788830Y866330D02*
X787400Y864900D01*
X897890Y537210D02*
X897890Y524700D01*
X897890Y537210D02*
X889000Y546100D01*
X889000Y570200D01*
X890300Y571500D01*
X278309Y356870D02*
X270510Y356870D01*
X278309Y356870D02*
X290755Y344424D01*
X635224Y344424D01*
X862300Y571500D01*
X960390Y482200D02*
X901438Y423248D01*
X893314Y423248D01*
X886842Y416776D01*
X886842Y408652D01*
X846490Y368300D01*
X698500Y368300D02*
X647700Y317500D01*
X381000Y317500D01*
X698500Y368300D02*
X846490Y368300D01*
D24*
X381000Y317500D03*
D25*
X499500Y1100700D02*
X499500Y1104900D01*
X499500Y1100700D02*
X508000Y1092200D01*
D24*
X508000Y1092200D03*
D25*
X436730Y1042130D02*
X418040Y1042130D01*
X436730Y1042130D02*
X499500Y1104900D01*
X554600Y1092200D02*
X567300Y1104900D01*
X554600Y1092200D02*
X520700Y1092200D01*
X508000Y1079500D01*
X508000Y1066800D01*
D24*
X508000Y1066800D03*
D25*
X401157Y1042130D02*
X392640Y1042130D01*
X401157Y1042130D02*
X413095Y1030192D01*
X433292Y1030192D01*
X469900Y1066800D01*
X508000Y1066800D01*
D24*
X254000Y152400D03*
D25*
X270510Y168910D01*
X270510Y179070D01*
X256540Y165100D01*
X203200Y165100D01*
D24*
X203200Y165100D03*
D25*
X516500Y1104900D02*
X518160Y1106560D01*
X518160Y1143000D01*
X548640Y1143000D02*
X548640Y1106560D01*
X550300Y1104900D01*
D24*
X304800Y292100D03*
D25*
X304800Y246380D02*
X372110Y179070D01*
X304800Y275506D02*
X304800Y292100D01*
X304800Y275506D02*
X310248Y270058D01*
X310248Y253242D01*
X304800Y247794D01*
X304800Y246380D01*
D24*
X330200Y685800D03*
D25*
X330200Y722630D01*
D24*
X330200Y722630D03*
D25*
X203200Y771500D02*
X203200Y838200D01*
X177800Y863600D01*
X147000Y863600D01*
X295300Y558800D02*
X431800Y558800D01*
D24*
X431800Y558800D03*
D25*
X295300Y558800D02*
X279400Y574700D01*
X279400Y689000D01*
X244500Y711200D02*
X203200Y752500D01*
X257200Y711200D02*
X279400Y689000D01*
X257200Y711200D02*
X244500Y711200D01*
X215900Y431800D02*
X215900Y417800D01*
D24*
X222250Y379730D03*
D25*
X222250Y406400D01*
X222250Y411450D01*
X215900Y417800D01*
X222250Y406400D02*
X236250Y420400D01*
X241300Y420400D01*
X173600Y440300D02*
X152400Y440300D01*
X184150Y450850D02*
X203200Y450850D01*
X184150Y450850D02*
X173600Y440300D01*
X176500Y437400D02*
X176500Y393700D01*
X176500Y437400D02*
X173600Y440300D01*
X1083048Y588348D02*
X1142000Y647300D01*
X1083048Y588348D02*
X1074924Y588348D01*
X893156Y401130D02*
X886460Y394435D01*
X886460Y391760D01*
X850300Y355600D01*
X974233Y487657D02*
X1074924Y588348D01*
X974233Y487657D02*
X974233Y472919D01*
X902444Y401130D01*
X893156Y401130D01*
X698500Y355600D02*
X647700Y304800D01*
X431800Y304800D01*
X698500Y355600D02*
X850300Y355600D01*
D24*
X431800Y304800D03*
D25*
X397510Y356870D02*
X624097Y583457D01*
X641734Y583457D01*
X817737Y779564D02*
X862003Y823830D01*
X817737Y759460D02*
X641734Y583457D01*
X817737Y759460D02*
X817737Y779564D01*
X862003Y823830D02*
X956580Y823830D01*
D26*
X609600Y914400D02*
X520700Y825500D01*
D25*
X520700Y625976D01*
X304292Y409568D01*
X258064Y362025D02*
X258064Y351715D01*
X269652Y253242D02*
X279400Y243494D01*
X304292Y408253D02*
X304292Y409568D01*
X304292Y408253D02*
X258064Y362025D01*
X258064Y351715D02*
X269652Y340127D01*
X269652Y253242D01*
X279400Y195580D02*
X295910Y179070D01*
X279400Y195580D02*
X279400Y243494D01*
X609600Y889000D02*
X669900Y889000D01*
X673100Y885800D01*
X422100Y165100D02*
X369900Y112900D01*
X422100Y165100D02*
X431800Y165100D01*
X435864Y169164D01*
X435864Y184225D01*
X454839Y203200D01*
X495300Y203200D01*
D24*
X495300Y203200D03*
M02*
