M48
;GenerationSoftware,Autodesk,EAGLE,9.0.1*%
;CreationDate,2018-06-19T17:48:18Z*%
FMAT,2
ICI,OFF
METRIC,TZ,000.000
T12C0.500
T11C0.750
T10C0.800
T9C0.813
T8C1.000
T7C1.016
T6C1.050
T5C1.200
T4C1.600
T3C2.000
T2C2.390
T1C3.450
%
G90
M71
T1
X44995Y82165
X28995Y26165
T2
X28995Y89695
T3
X27684Y103913
X48384Y103913
X48384Y80613
X27684Y80613
T4
X89789Y50220
X89408Y84383
X89408Y75383
X107950Y66730
X107950Y57730
X89789Y41220
X69850Y66730
X69850Y57730
T5
X114200Y59730
X101700Y59730
X114200Y64730
X101700Y64730
X95658Y77383
X83158Y77383
X95658Y82383
X83158Y82383
X63600Y64730
X76100Y64730
X63600Y59730
X76100Y59730
X83539Y48220
X96039Y48220
X83539Y43220
X96039Y43220
T6
X12626Y90096
T7
X50800Y24130
X44831Y35687
X53340Y24130
X55880Y24130
X34671Y17907
X32131Y17907
X49530Y7620
X29591Y17907
X27051Y17907
X24511Y17907
X24511Y35687
X27051Y35687
X29591Y35687
X52451Y17907
X32131Y35687
X34671Y35687
X52070Y10160
X52070Y7620
X37211Y35687
X49530Y10160
X49911Y17907
X47371Y17907
X44831Y17907
X42291Y17907
X39751Y35687
X37211Y17907
X60960Y93980
X60960Y91440
X60960Y88900
X42291Y35687
X39751Y17907
X47371Y35687
X52451Y35687
X49911Y35687
T8
X41804Y104213
X39264Y104213
X36724Y104213
X34184Y104213
T9
X19050Y43180
X20320Y45085
X21590Y43180
T10
X69850Y68980
X107950Y55480
X107950Y68980
X89408Y73133
X89408Y86633
X89789Y52470
X89789Y38970
X69850Y55480
T11
X15313Y92783
T12
X49530Y20320
X41910Y54610
X54610Y29210
X33020Y33020
X38100Y31750
X50800Y109220
X50800Y106680
X25400Y15240
X20320Y16510
X30480Y29210
X63500Y87630
X48260Y110490
X57150Y106680
X33020Y68580
X33020Y72263
X43180Y55880
X22225Y37973
X43180Y30480
X17780Y87630
M30