G04 EAGLE Gerber X2 export*
G75*
%MOMM*%
%FSLAX34Y34*%
%LPD*%
%AMOC8*
5,1,8,0,0,1.08239X$1,22.5*%
G01*
%ADD10C,0.254000*%


D10*
X38100Y325120D02*
X214630Y25400D01*
X560070Y25400D01*
X728980Y316230D01*
X1064260Y316230D01*
X1235710Y610870D01*
X1235710Y627380D01*
X1060450Y922020D01*
X727710Y922020D01*
X558800Y1211580D01*
X210820Y1211580D01*
X38100Y914400D01*
X38100Y901700D01*
X203200Y622300D01*
X203200Y615950D01*
X38100Y334010D01*
X38100Y325120D01*
X426791Y1142053D02*
X426791Y1143947D01*
X426712Y1145838D01*
X426556Y1147725D01*
X426322Y1149603D01*
X426010Y1151471D01*
X425622Y1153323D01*
X425157Y1155159D01*
X424617Y1156973D01*
X424002Y1158763D01*
X423314Y1160527D01*
X422554Y1162261D01*
X421722Y1163961D01*
X420821Y1165626D01*
X419852Y1167253D01*
X418817Y1168837D01*
X417717Y1170378D01*
X416554Y1171872D01*
X415330Y1173317D01*
X414048Y1174709D01*
X412709Y1176048D01*
X411317Y1177330D01*
X409872Y1178554D01*
X408378Y1179717D01*
X406837Y1180817D01*
X405253Y1181852D01*
X403626Y1182821D01*
X401961Y1183722D01*
X400261Y1184554D01*
X398527Y1185314D01*
X396763Y1186002D01*
X394973Y1186617D01*
X393159Y1187157D01*
X391323Y1187622D01*
X389471Y1188010D01*
X387603Y1188322D01*
X385725Y1188556D01*
X383838Y1188712D01*
X381947Y1188791D01*
X380053Y1188791D01*
X378162Y1188712D01*
X376275Y1188556D01*
X374397Y1188322D01*
X372530Y1188010D01*
X370677Y1187622D01*
X368842Y1187157D01*
X367027Y1186617D01*
X365237Y1186002D01*
X363473Y1185314D01*
X361739Y1184554D01*
X360039Y1183722D01*
X358374Y1182821D01*
X356747Y1181852D01*
X355163Y1180817D01*
X353622Y1179717D01*
X352128Y1178554D01*
X350683Y1177330D01*
X349291Y1176048D01*
X347952Y1174709D01*
X346670Y1173317D01*
X345446Y1171872D01*
X344283Y1170378D01*
X343183Y1168837D01*
X342148Y1167253D01*
X341179Y1165626D01*
X340278Y1163961D01*
X339447Y1162261D01*
X338686Y1160527D01*
X337998Y1158763D01*
X337383Y1156973D01*
X336843Y1155159D01*
X336378Y1153323D01*
X335990Y1151471D01*
X335678Y1149603D01*
X335444Y1147725D01*
X335288Y1145838D01*
X335210Y1143947D01*
X335210Y1142053D01*
X335288Y1140162D01*
X335444Y1138275D01*
X335678Y1136397D01*
X335990Y1134530D01*
X336378Y1132677D01*
X336843Y1130842D01*
X337383Y1129027D01*
X337998Y1127237D01*
X338686Y1125473D01*
X339447Y1123739D01*
X340278Y1122039D01*
X341179Y1120374D01*
X342148Y1118747D01*
X343183Y1117163D01*
X344283Y1115622D01*
X345446Y1114128D01*
X346670Y1112683D01*
X347952Y1111291D01*
X349291Y1109952D01*
X350683Y1108670D01*
X352128Y1107446D01*
X353622Y1106283D01*
X355163Y1105183D01*
X356747Y1104148D01*
X358374Y1103179D01*
X360039Y1102278D01*
X361739Y1101447D01*
X363473Y1100686D01*
X365237Y1099998D01*
X367027Y1099383D01*
X368842Y1098843D01*
X370677Y1098378D01*
X372530Y1097990D01*
X374397Y1097678D01*
X376275Y1097444D01*
X378162Y1097288D01*
X380053Y1097210D01*
X381947Y1097210D01*
X383838Y1097288D01*
X385725Y1097444D01*
X387603Y1097678D01*
X389471Y1097990D01*
X391323Y1098378D01*
X393159Y1098843D01*
X394973Y1099383D01*
X396763Y1099998D01*
X398527Y1100686D01*
X400261Y1101447D01*
X401961Y1102278D01*
X403626Y1103179D01*
X405253Y1104148D01*
X406837Y1105183D01*
X408378Y1106283D01*
X409872Y1107446D01*
X411317Y1108670D01*
X412709Y1109952D01*
X414048Y1111291D01*
X415330Y1112683D01*
X416554Y1114128D01*
X417717Y1115622D01*
X418817Y1117163D01*
X419852Y1118747D01*
X420821Y1120374D01*
X421722Y1122039D01*
X422554Y1123739D01*
X423314Y1125473D01*
X424002Y1127237D01*
X424617Y1129027D01*
X425157Y1130842D01*
X425622Y1132677D01*
X426010Y1134530D01*
X426322Y1136397D01*
X426556Y1138275D01*
X426712Y1140162D01*
X426791Y1142053D01*
X902080Y843437D02*
X902003Y842655D01*
X901850Y841884D01*
X901621Y841132D01*
X901321Y840405D01*
X900950Y839712D01*
X900513Y839059D01*
X900015Y838451D01*
X899459Y837895D01*
X898851Y837397D01*
X898198Y836960D01*
X897505Y836589D01*
X896778Y836289D01*
X896026Y836060D01*
X895255Y835907D01*
X894473Y835830D01*
X893687Y835830D01*
X892905Y835907D01*
X892134Y836060D01*
X891382Y836289D01*
X890655Y836589D01*
X889962Y836960D01*
X889309Y837397D01*
X888701Y837895D01*
X888145Y838451D01*
X887647Y839059D01*
X887210Y839712D01*
X886839Y840405D01*
X886539Y841132D01*
X886310Y841884D01*
X886157Y842655D01*
X886080Y843437D01*
X886080Y844223D01*
X886157Y845005D01*
X886310Y845776D01*
X886539Y846528D01*
X886839Y847255D01*
X887210Y847948D01*
X887647Y848601D01*
X888145Y849209D01*
X888701Y849765D01*
X889309Y850263D01*
X889962Y850700D01*
X890655Y851071D01*
X891382Y851371D01*
X892134Y851600D01*
X892905Y851753D01*
X893687Y851830D01*
X894473Y851830D01*
X895255Y851753D01*
X896026Y851600D01*
X896778Y851371D01*
X897505Y851071D01*
X898198Y850700D01*
X898851Y850263D01*
X899459Y849765D01*
X900015Y849209D01*
X900513Y848601D01*
X900950Y847948D01*
X901321Y847255D01*
X901621Y846528D01*
X901850Y845776D01*
X902003Y845005D01*
X902080Y844223D01*
X902080Y843437D01*
X902080Y753437D02*
X902003Y752655D01*
X901850Y751884D01*
X901621Y751132D01*
X901321Y750405D01*
X900950Y749712D01*
X900513Y749059D01*
X900015Y748451D01*
X899459Y747895D01*
X898851Y747397D01*
X898198Y746960D01*
X897505Y746589D01*
X896778Y746289D01*
X896026Y746060D01*
X895255Y745907D01*
X894473Y745830D01*
X893687Y745830D01*
X892905Y745907D01*
X892134Y746060D01*
X891382Y746289D01*
X890655Y746589D01*
X889962Y746960D01*
X889309Y747397D01*
X888701Y747895D01*
X888145Y748451D01*
X887647Y749059D01*
X887210Y749712D01*
X886839Y750405D01*
X886539Y751132D01*
X886310Y751884D01*
X886157Y752655D01*
X886080Y753437D01*
X886080Y754223D01*
X886157Y755005D01*
X886310Y755776D01*
X886539Y756528D01*
X886839Y757255D01*
X887210Y757948D01*
X887647Y758601D01*
X888145Y759209D01*
X888701Y759765D01*
X889309Y760263D01*
X889962Y760700D01*
X890655Y761071D01*
X891382Y761371D01*
X892134Y761600D01*
X892905Y761753D01*
X893687Y761830D01*
X894473Y761830D01*
X895255Y761753D01*
X896026Y761600D01*
X896778Y761371D01*
X897505Y761071D01*
X898198Y760700D01*
X898851Y760263D01*
X899459Y759765D01*
X900015Y759209D01*
X900513Y758601D01*
X900950Y757948D01*
X901321Y757255D01*
X901621Y756528D01*
X901850Y755776D01*
X902003Y755005D01*
X902080Y754223D01*
X902080Y753437D01*
X1087500Y666907D02*
X1087423Y666125D01*
X1087270Y665354D01*
X1087041Y664602D01*
X1086741Y663875D01*
X1086370Y663182D01*
X1085933Y662529D01*
X1085435Y661921D01*
X1084879Y661365D01*
X1084271Y660867D01*
X1083618Y660430D01*
X1082925Y660059D01*
X1082198Y659759D01*
X1081446Y659530D01*
X1080675Y659377D01*
X1079893Y659300D01*
X1079107Y659300D01*
X1078325Y659377D01*
X1077554Y659530D01*
X1076802Y659759D01*
X1076075Y660059D01*
X1075382Y660430D01*
X1074729Y660867D01*
X1074121Y661365D01*
X1073565Y661921D01*
X1073067Y662529D01*
X1072630Y663182D01*
X1072259Y663875D01*
X1071959Y664602D01*
X1071730Y665354D01*
X1071577Y666125D01*
X1071500Y666907D01*
X1071500Y667693D01*
X1071577Y668475D01*
X1071730Y669246D01*
X1071959Y669998D01*
X1072259Y670725D01*
X1072630Y671418D01*
X1073067Y672071D01*
X1073565Y672679D01*
X1074121Y673235D01*
X1074729Y673733D01*
X1075382Y674170D01*
X1076075Y674541D01*
X1076802Y674841D01*
X1077554Y675070D01*
X1078325Y675223D01*
X1079107Y675300D01*
X1079893Y675300D01*
X1080675Y675223D01*
X1081446Y675070D01*
X1082198Y674841D01*
X1082925Y674541D01*
X1083618Y674170D01*
X1084271Y673733D01*
X1084879Y673235D01*
X1085435Y672679D01*
X1085933Y672071D01*
X1086370Y671418D01*
X1086741Y670725D01*
X1087041Y669998D01*
X1087270Y669246D01*
X1087423Y668475D01*
X1087500Y667693D01*
X1087500Y666907D01*
X1087500Y576907D02*
X1087423Y576125D01*
X1087270Y575354D01*
X1087041Y574602D01*
X1086741Y573875D01*
X1086370Y573182D01*
X1085933Y572529D01*
X1085435Y571921D01*
X1084879Y571365D01*
X1084271Y570867D01*
X1083618Y570430D01*
X1082925Y570059D01*
X1082198Y569759D01*
X1081446Y569530D01*
X1080675Y569377D01*
X1079893Y569300D01*
X1079107Y569300D01*
X1078325Y569377D01*
X1077554Y569530D01*
X1076802Y569759D01*
X1076075Y570059D01*
X1075382Y570430D01*
X1074729Y570867D01*
X1074121Y571365D01*
X1073565Y571921D01*
X1073067Y572529D01*
X1072630Y573182D01*
X1072259Y573875D01*
X1071959Y574602D01*
X1071730Y575354D01*
X1071577Y576125D01*
X1071500Y576907D01*
X1071500Y577693D01*
X1071577Y578475D01*
X1071730Y579246D01*
X1071959Y579998D01*
X1072259Y580725D01*
X1072630Y581418D01*
X1073067Y582071D01*
X1073565Y582679D01*
X1074121Y583235D01*
X1074729Y583733D01*
X1075382Y584170D01*
X1076075Y584541D01*
X1076802Y584841D01*
X1077554Y585070D01*
X1078325Y585223D01*
X1079107Y585300D01*
X1079893Y585300D01*
X1080675Y585223D01*
X1081446Y585070D01*
X1082198Y584841D01*
X1082925Y584541D01*
X1083618Y584170D01*
X1084271Y583733D01*
X1084879Y583235D01*
X1085435Y582679D01*
X1085933Y582071D01*
X1086370Y581418D01*
X1086741Y580725D01*
X1087041Y579998D01*
X1087270Y579246D01*
X1087423Y578475D01*
X1087500Y577693D01*
X1087500Y576907D01*
X155613Y925010D02*
X155223Y924710D01*
X154797Y924465D01*
X154343Y924276D01*
X153868Y924149D01*
X153381Y924085D01*
X152889Y924085D01*
X152402Y924149D01*
X151927Y924276D01*
X151473Y924465D01*
X151047Y924710D01*
X150657Y925010D01*
X150310Y925357D01*
X150010Y925747D01*
X149765Y926173D01*
X149576Y926627D01*
X149449Y927102D01*
X149385Y927589D01*
X149385Y928081D01*
X149449Y928568D01*
X149576Y929043D01*
X149765Y929497D01*
X150010Y929923D01*
X150310Y930313D01*
X150657Y930660D01*
X151047Y930960D01*
X151473Y931206D01*
X151927Y931394D01*
X152402Y931521D01*
X152889Y931585D01*
X153381Y931585D01*
X153868Y931521D01*
X154343Y931394D01*
X154797Y931206D01*
X155223Y930960D01*
X155613Y930660D01*
X155960Y930313D01*
X156260Y929923D01*
X156506Y929497D01*
X156694Y929043D01*
X156821Y928568D01*
X156885Y928081D01*
X156885Y927589D01*
X156821Y927102D01*
X156694Y926627D01*
X156506Y926173D01*
X156260Y925747D01*
X155960Y925357D01*
X155613Y925010D01*
X129769Y897044D02*
X129308Y896677D01*
X128808Y896363D01*
X128277Y896107D01*
X127721Y895912D01*
X127146Y895781D01*
X126560Y895715D01*
X125970Y895715D01*
X125384Y895781D01*
X124809Y895912D01*
X124253Y896107D01*
X123721Y896363D01*
X123222Y896677D01*
X122761Y897044D01*
X122344Y897461D01*
X121977Y897922D01*
X121663Y898421D01*
X121407Y898953D01*
X121212Y899509D01*
X121081Y900084D01*
X121015Y900670D01*
X121015Y901260D01*
X121081Y901846D01*
X121212Y902421D01*
X121407Y902977D01*
X121663Y903508D01*
X121977Y904008D01*
X122344Y904469D01*
X122761Y904886D01*
X123222Y905253D01*
X123721Y905567D01*
X124253Y905823D01*
X124809Y906018D01*
X125384Y906149D01*
X125970Y906215D01*
X126560Y906215D01*
X127146Y906149D01*
X127721Y906018D01*
X128277Y905823D01*
X128808Y905567D01*
X129308Y905253D01*
X129769Y904886D01*
X130186Y904469D01*
X130553Y904008D01*
X130867Y903508D01*
X131123Y902977D01*
X131318Y902421D01*
X131449Y901846D01*
X131515Y901260D01*
X131515Y900670D01*
X131449Y900084D01*
X131318Y899509D01*
X131123Y898953D01*
X130867Y898421D01*
X130553Y897922D01*
X130186Y897461D01*
X129769Y897044D01*
X706500Y666907D02*
X706423Y666125D01*
X706270Y665354D01*
X706041Y664602D01*
X705741Y663875D01*
X705370Y663182D01*
X704933Y662529D01*
X704435Y661921D01*
X703879Y661365D01*
X703271Y660867D01*
X702618Y660430D01*
X701925Y660059D01*
X701198Y659759D01*
X700446Y659530D01*
X699675Y659377D01*
X698893Y659300D01*
X698107Y659300D01*
X697325Y659377D01*
X696554Y659530D01*
X695802Y659759D01*
X695075Y660059D01*
X694382Y660430D01*
X693729Y660867D01*
X693121Y661365D01*
X692565Y661921D01*
X692067Y662529D01*
X691630Y663182D01*
X691259Y663875D01*
X690959Y664602D01*
X690730Y665354D01*
X690577Y666125D01*
X690500Y666907D01*
X690500Y667693D01*
X690577Y668475D01*
X690730Y669246D01*
X690959Y669998D01*
X691259Y670725D01*
X691630Y671418D01*
X692067Y672071D01*
X692565Y672679D01*
X693121Y673235D01*
X693729Y673733D01*
X694382Y674170D01*
X695075Y674541D01*
X695802Y674841D01*
X696554Y675070D01*
X697325Y675223D01*
X698107Y675300D01*
X698893Y675300D01*
X699675Y675223D01*
X700446Y675070D01*
X701198Y674841D01*
X701925Y674541D01*
X702618Y674170D01*
X703271Y673733D01*
X703879Y673235D01*
X704435Y672679D01*
X704933Y672071D01*
X705370Y671418D01*
X705741Y670725D01*
X706041Y669998D01*
X706270Y669246D01*
X706423Y668475D01*
X706500Y667693D01*
X706500Y666907D01*
X706500Y576907D02*
X706423Y576125D01*
X706270Y575354D01*
X706041Y574602D01*
X705741Y573875D01*
X705370Y573182D01*
X704933Y572529D01*
X704435Y571921D01*
X703879Y571365D01*
X703271Y570867D01*
X702618Y570430D01*
X701925Y570059D01*
X701198Y569759D01*
X700446Y569530D01*
X699675Y569377D01*
X698893Y569300D01*
X698107Y569300D01*
X697325Y569377D01*
X696554Y569530D01*
X695802Y569759D01*
X695075Y570059D01*
X694382Y570430D01*
X693729Y570867D01*
X693121Y571365D01*
X692565Y571921D01*
X692067Y572529D01*
X691630Y573182D01*
X691259Y573875D01*
X690959Y574602D01*
X690730Y575354D01*
X690577Y576125D01*
X690500Y576907D01*
X690500Y577693D01*
X690577Y578475D01*
X690730Y579246D01*
X690959Y579998D01*
X691259Y580725D01*
X691630Y581418D01*
X692067Y582071D01*
X692565Y582679D01*
X693121Y583235D01*
X693729Y583733D01*
X694382Y584170D01*
X695075Y584541D01*
X695802Y584841D01*
X696554Y585070D01*
X697325Y585223D01*
X698107Y585300D01*
X698893Y585300D01*
X699675Y585223D01*
X700446Y585070D01*
X701198Y584841D01*
X701925Y584541D01*
X702618Y584170D01*
X703271Y583733D01*
X703879Y583235D01*
X704435Y582679D01*
X704933Y582071D01*
X705370Y581418D01*
X705741Y580725D01*
X706041Y579998D01*
X706270Y579246D01*
X706423Y578475D01*
X706500Y577693D01*
X706500Y576907D01*
X286840Y805693D02*
X286764Y804824D01*
X286612Y803964D01*
X286386Y803120D01*
X286088Y802300D01*
X285719Y801508D01*
X285282Y800752D01*
X284781Y800037D01*
X284220Y799368D01*
X283602Y798750D01*
X282933Y798189D01*
X282218Y797688D01*
X281462Y797251D01*
X280670Y796882D01*
X279850Y796584D01*
X279006Y796358D01*
X278147Y796206D01*
X277277Y796130D01*
X276403Y796130D01*
X275534Y796206D01*
X274674Y796358D01*
X273830Y796584D01*
X273010Y796882D01*
X272218Y797251D01*
X271462Y797688D01*
X270747Y798189D01*
X270078Y798750D01*
X269460Y799368D01*
X268899Y800037D01*
X268398Y800752D01*
X267961Y801508D01*
X267592Y802300D01*
X267294Y803120D01*
X267068Y803964D01*
X266916Y804824D01*
X266840Y805693D01*
X266840Y806567D01*
X266916Y807437D01*
X267068Y808296D01*
X267294Y809140D01*
X267592Y809960D01*
X267961Y810752D01*
X268398Y811508D01*
X268899Y812223D01*
X269460Y812892D01*
X270078Y813510D01*
X270747Y814071D01*
X271462Y814572D01*
X272218Y815009D01*
X273010Y815378D01*
X273830Y815676D01*
X274674Y815902D01*
X275534Y816054D01*
X276403Y816130D01*
X277277Y816130D01*
X278147Y816054D01*
X279006Y815902D01*
X279850Y815676D01*
X280670Y815378D01*
X281462Y815009D01*
X282218Y814572D01*
X282933Y814071D01*
X283602Y813510D01*
X284220Y812892D01*
X284781Y812223D01*
X285282Y811508D01*
X285719Y810752D01*
X286088Y809960D01*
X286386Y809140D01*
X286612Y808296D01*
X286764Y807437D01*
X286840Y806567D01*
X286840Y805693D01*
X493840Y805693D02*
X493764Y804824D01*
X493612Y803964D01*
X493386Y803120D01*
X493088Y802300D01*
X492719Y801508D01*
X492282Y800752D01*
X491781Y800037D01*
X491220Y799368D01*
X490602Y798750D01*
X489933Y798189D01*
X489218Y797688D01*
X488462Y797251D01*
X487670Y796882D01*
X486850Y796584D01*
X486006Y796358D01*
X485147Y796206D01*
X484277Y796130D01*
X483403Y796130D01*
X482534Y796206D01*
X481674Y796358D01*
X480830Y796584D01*
X480010Y796882D01*
X479218Y797251D01*
X478462Y797688D01*
X477747Y798189D01*
X477078Y798750D01*
X476460Y799368D01*
X475899Y800037D01*
X475398Y800752D01*
X474961Y801508D01*
X474592Y802300D01*
X474294Y803120D01*
X474068Y803964D01*
X473916Y804824D01*
X473840Y805693D01*
X473840Y806567D01*
X473916Y807437D01*
X474068Y808296D01*
X474294Y809140D01*
X474592Y809960D01*
X474961Y810752D01*
X475398Y811508D01*
X475899Y812223D01*
X476460Y812892D01*
X477078Y813510D01*
X477747Y814071D01*
X478462Y814572D01*
X479218Y815009D01*
X480010Y815378D01*
X480830Y815676D01*
X481674Y815902D01*
X482534Y816054D01*
X483403Y816130D01*
X484277Y816130D01*
X485147Y816054D01*
X486006Y815902D01*
X486850Y815676D01*
X487670Y815378D01*
X488462Y815009D01*
X489218Y814572D01*
X489933Y814071D01*
X490602Y813510D01*
X491220Y812892D01*
X491781Y812223D01*
X492282Y811508D01*
X492719Y810752D01*
X493088Y809960D01*
X493386Y809140D01*
X493612Y808296D01*
X493764Y807437D01*
X493840Y806567D01*
X493840Y805693D01*
X493840Y1038693D02*
X493764Y1037824D01*
X493612Y1036964D01*
X493386Y1036120D01*
X493088Y1035300D01*
X492719Y1034508D01*
X492282Y1033752D01*
X491781Y1033037D01*
X491220Y1032368D01*
X490602Y1031750D01*
X489933Y1031189D01*
X489218Y1030688D01*
X488462Y1030251D01*
X487670Y1029882D01*
X486850Y1029584D01*
X486006Y1029358D01*
X485147Y1029206D01*
X484277Y1029130D01*
X483403Y1029130D01*
X482534Y1029206D01*
X481674Y1029358D01*
X480830Y1029584D01*
X480010Y1029882D01*
X479218Y1030251D01*
X478462Y1030688D01*
X477747Y1031189D01*
X477078Y1031750D01*
X476460Y1032368D01*
X475899Y1033037D01*
X475398Y1033752D01*
X474961Y1034508D01*
X474592Y1035300D01*
X474294Y1036120D01*
X474068Y1036964D01*
X473916Y1037824D01*
X473840Y1038693D01*
X473840Y1039567D01*
X473916Y1040437D01*
X474068Y1041296D01*
X474294Y1042140D01*
X474592Y1042960D01*
X474961Y1043752D01*
X475398Y1044508D01*
X475899Y1045223D01*
X476460Y1045892D01*
X477078Y1046510D01*
X477747Y1047071D01*
X478462Y1047572D01*
X479218Y1048009D01*
X480010Y1048378D01*
X480830Y1048676D01*
X481674Y1048902D01*
X482534Y1049054D01*
X483403Y1049130D01*
X484277Y1049130D01*
X485147Y1049054D01*
X486006Y1048902D01*
X486850Y1048676D01*
X487670Y1048378D01*
X488462Y1048009D01*
X489218Y1047572D01*
X489933Y1047071D01*
X490602Y1046510D01*
X491220Y1045892D01*
X491781Y1045223D01*
X492282Y1044508D01*
X492719Y1043752D01*
X493088Y1042960D01*
X493386Y1042140D01*
X493612Y1041296D01*
X493764Y1040437D01*
X493840Y1039567D01*
X493840Y1038693D01*
X286840Y1038693D02*
X286764Y1037824D01*
X286612Y1036964D01*
X286386Y1036120D01*
X286088Y1035300D01*
X285719Y1034508D01*
X285282Y1033752D01*
X284781Y1033037D01*
X284220Y1032368D01*
X283602Y1031750D01*
X282933Y1031189D01*
X282218Y1030688D01*
X281462Y1030251D01*
X280670Y1029882D01*
X279850Y1029584D01*
X279006Y1029358D01*
X278147Y1029206D01*
X277277Y1029130D01*
X276403Y1029130D01*
X275534Y1029206D01*
X274674Y1029358D01*
X273830Y1029584D01*
X273010Y1029882D01*
X272218Y1030251D01*
X271462Y1030688D01*
X270747Y1031189D01*
X270078Y1031750D01*
X269460Y1032368D01*
X268899Y1033037D01*
X268398Y1033752D01*
X267961Y1034508D01*
X267592Y1035300D01*
X267294Y1036120D01*
X267068Y1036964D01*
X266916Y1037824D01*
X266840Y1038693D01*
X266840Y1039567D01*
X266916Y1040437D01*
X267068Y1041296D01*
X267294Y1042140D01*
X267592Y1042960D01*
X267961Y1043752D01*
X268398Y1044508D01*
X268899Y1045223D01*
X269460Y1045892D01*
X270078Y1046510D01*
X270747Y1047071D01*
X271462Y1047572D01*
X272218Y1048009D01*
X273010Y1048378D01*
X273830Y1048676D01*
X274674Y1048902D01*
X275534Y1049054D01*
X276403Y1049130D01*
X277277Y1049130D01*
X278147Y1049054D01*
X279006Y1048902D01*
X279850Y1048676D01*
X280670Y1048378D01*
X281462Y1048009D01*
X282218Y1047572D01*
X282933Y1047071D01*
X283602Y1046510D01*
X284220Y1045892D01*
X284781Y1045223D01*
X285282Y1044508D01*
X285719Y1043752D01*
X286088Y1042960D01*
X286386Y1042140D01*
X286612Y1041296D01*
X286764Y1040437D01*
X286840Y1039567D01*
X286840Y1038693D01*
X905890Y501807D02*
X905813Y501025D01*
X905660Y500254D01*
X905431Y499502D01*
X905131Y498775D01*
X904760Y498082D01*
X904323Y497429D01*
X903825Y496821D01*
X903269Y496265D01*
X902661Y495767D01*
X902008Y495330D01*
X901315Y494959D01*
X900588Y494659D01*
X899836Y494430D01*
X899065Y494277D01*
X898283Y494200D01*
X897497Y494200D01*
X896715Y494277D01*
X895944Y494430D01*
X895192Y494659D01*
X894465Y494959D01*
X893772Y495330D01*
X893119Y495767D01*
X892511Y496265D01*
X891955Y496821D01*
X891457Y497429D01*
X891020Y498082D01*
X890649Y498775D01*
X890349Y499502D01*
X890120Y500254D01*
X889967Y501025D01*
X889890Y501807D01*
X889890Y502593D01*
X889967Y503375D01*
X890120Y504146D01*
X890349Y504898D01*
X890649Y505625D01*
X891020Y506318D01*
X891457Y506971D01*
X891955Y507579D01*
X892511Y508135D01*
X893119Y508633D01*
X893772Y509070D01*
X894465Y509441D01*
X895192Y509741D01*
X895944Y509970D01*
X896715Y510123D01*
X897497Y510200D01*
X898283Y510200D01*
X899065Y510123D01*
X899836Y509970D01*
X900588Y509741D01*
X901315Y509441D01*
X902008Y509070D01*
X902661Y508633D01*
X903269Y508135D01*
X903825Y507579D01*
X904323Y506971D01*
X904760Y506318D01*
X905131Y505625D01*
X905431Y504898D01*
X905660Y504146D01*
X905813Y503375D01*
X905890Y502593D01*
X905890Y501807D01*
X905890Y411807D02*
X905813Y411025D01*
X905660Y410254D01*
X905431Y409502D01*
X905131Y408775D01*
X904760Y408082D01*
X904323Y407429D01*
X903825Y406821D01*
X903269Y406265D01*
X902661Y405767D01*
X902008Y405330D01*
X901315Y404959D01*
X900588Y404659D01*
X899836Y404430D01*
X899065Y404277D01*
X898283Y404200D01*
X897497Y404200D01*
X896715Y404277D01*
X895944Y404430D01*
X895192Y404659D01*
X894465Y404959D01*
X893772Y405330D01*
X893119Y405767D01*
X892511Y406265D01*
X891955Y406821D01*
X891457Y407429D01*
X891020Y408082D01*
X890649Y408775D01*
X890349Y409502D01*
X890120Y410254D01*
X889967Y411025D01*
X889890Y411807D01*
X889890Y412593D01*
X889967Y413375D01*
X890120Y414146D01*
X890349Y414898D01*
X890649Y415625D01*
X891020Y416318D01*
X891457Y416971D01*
X891955Y417579D01*
X892511Y418135D01*
X893119Y418633D01*
X893772Y419070D01*
X894465Y419441D01*
X895192Y419741D01*
X895944Y419970D01*
X896715Y420123D01*
X897497Y420200D01*
X898283Y420200D01*
X899065Y420123D01*
X899836Y419970D01*
X900588Y419741D01*
X901315Y419441D01*
X902008Y419070D01*
X902661Y418633D01*
X903269Y418135D01*
X903825Y417579D01*
X904323Y416971D01*
X904760Y416318D01*
X905131Y415625D01*
X905431Y414898D01*
X905660Y414146D01*
X905813Y413375D01*
X905890Y412593D01*
X905890Y411807D01*
X449385Y838900D02*
X448258Y838826D01*
X447139Y838679D01*
X446031Y838458D01*
X444940Y838166D01*
X443870Y837803D01*
X442827Y837371D01*
X441814Y836871D01*
X440836Y836307D01*
X439897Y835679D01*
X439001Y834992D01*
X438152Y834247D01*
X437353Y833448D01*
X436608Y832599D01*
X435921Y831703D01*
X435293Y830764D01*
X434729Y829786D01*
X434229Y828773D01*
X433797Y827730D01*
X433434Y826660D01*
X433142Y825569D01*
X432921Y824461D01*
X432774Y823342D01*
X432700Y822215D01*
X432700Y821085D01*
X432774Y819958D01*
X432921Y818839D01*
X433142Y817731D01*
X433434Y816640D01*
X433797Y815570D01*
X434229Y814527D01*
X434729Y813514D01*
X435293Y812536D01*
X435921Y811597D01*
X436608Y810701D01*
X437353Y809852D01*
X438152Y809053D01*
X439001Y808308D01*
X439897Y807621D01*
X440836Y806993D01*
X441814Y806429D01*
X442827Y805929D01*
X443870Y805497D01*
X444940Y805134D01*
X446031Y804842D01*
X447139Y804621D01*
X448258Y804474D01*
X449385Y804400D01*
X450515Y804400D01*
X451642Y804474D01*
X452761Y804621D01*
X453869Y804842D01*
X454960Y805134D01*
X456030Y805497D01*
X457073Y805929D01*
X458086Y806429D01*
X459064Y806993D01*
X460003Y807621D01*
X460899Y808308D01*
X461748Y809053D01*
X462547Y809852D01*
X463292Y810701D01*
X463979Y811597D01*
X464607Y812536D01*
X465171Y813514D01*
X465671Y814527D01*
X466103Y815570D01*
X466466Y816640D01*
X466758Y817731D01*
X466979Y818839D01*
X467126Y819958D01*
X467200Y821085D01*
X467200Y822215D01*
X467126Y823342D01*
X466979Y824461D01*
X466758Y825569D01*
X466466Y826660D01*
X466103Y827730D01*
X465671Y828773D01*
X465171Y829786D01*
X464607Y830764D01*
X463979Y831703D01*
X463292Y832599D01*
X462547Y833448D01*
X461748Y834247D01*
X460899Y834992D01*
X460003Y835679D01*
X459064Y836307D01*
X458086Y836871D01*
X457073Y837371D01*
X456030Y837803D01*
X454960Y838166D01*
X453869Y838458D01*
X452761Y838679D01*
X451642Y838826D01*
X450515Y838900D01*
X449385Y838900D01*
X289385Y278900D02*
X288258Y278826D01*
X287139Y278679D01*
X286031Y278458D01*
X284940Y278166D01*
X283870Y277803D01*
X282827Y277371D01*
X281814Y276871D01*
X280836Y276307D01*
X279897Y275679D01*
X279001Y274992D01*
X278152Y274247D01*
X277353Y273448D01*
X276608Y272599D01*
X275921Y271703D01*
X275293Y270764D01*
X274729Y269786D01*
X274229Y268773D01*
X273797Y267730D01*
X273434Y266660D01*
X273142Y265569D01*
X272921Y264461D01*
X272774Y263342D01*
X272700Y262215D01*
X272700Y261085D01*
X272774Y259958D01*
X272921Y258839D01*
X273142Y257731D01*
X273434Y256640D01*
X273797Y255570D01*
X274229Y254527D01*
X274729Y253514D01*
X275293Y252536D01*
X275921Y251597D01*
X276608Y250701D01*
X277353Y249852D01*
X278152Y249053D01*
X279001Y248308D01*
X279897Y247621D01*
X280836Y246993D01*
X281814Y246429D01*
X282827Y245929D01*
X283870Y245497D01*
X284940Y245134D01*
X286031Y244842D01*
X287139Y244621D01*
X288258Y244474D01*
X289385Y244400D01*
X290515Y244400D01*
X291642Y244474D01*
X292761Y244621D01*
X293869Y244842D01*
X294960Y245134D01*
X296030Y245497D01*
X297073Y245929D01*
X298086Y246429D01*
X299064Y246993D01*
X300003Y247621D01*
X300899Y248308D01*
X301748Y249053D01*
X302547Y249852D01*
X303292Y250701D01*
X303979Y251597D01*
X304607Y252536D01*
X305171Y253514D01*
X305671Y254527D01*
X306103Y255570D01*
X306466Y256640D01*
X306758Y257731D01*
X306979Y258839D01*
X307126Y259958D01*
X307200Y261085D01*
X307200Y262215D01*
X307126Y263342D01*
X306979Y264461D01*
X306758Y265569D01*
X306466Y266660D01*
X306103Y267730D01*
X305671Y268773D01*
X305171Y269786D01*
X304607Y270764D01*
X303979Y271703D01*
X303292Y272599D01*
X302547Y273448D01*
X301748Y274247D01*
X300899Y274992D01*
X300003Y275679D01*
X299064Y276307D01*
X298086Y276871D01*
X297073Y277371D01*
X296030Y277803D01*
X294960Y278166D01*
X293869Y278458D01*
X292761Y278679D01*
X291642Y278826D01*
X290515Y278900D01*
X289385Y278900D01*
X289480Y908900D02*
X288544Y908826D01*
X287617Y908679D01*
X286704Y908460D01*
X285811Y908170D01*
X284943Y907811D01*
X284106Y907384D01*
X283306Y906894D01*
X282546Y906342D01*
X281832Y905732D01*
X281168Y905068D01*
X280558Y904354D01*
X280006Y903594D01*
X279516Y902794D01*
X279089Y901957D01*
X278730Y901089D01*
X278440Y900196D01*
X278221Y899283D01*
X278074Y898356D01*
X278000Y897420D01*
X278000Y896480D01*
X278074Y895544D01*
X278221Y894617D01*
X278440Y893704D01*
X278730Y892811D01*
X279089Y891943D01*
X279516Y891106D01*
X280006Y890306D01*
X280558Y889546D01*
X281168Y888832D01*
X281832Y888168D01*
X282546Y887558D01*
X283306Y887006D01*
X284106Y886516D01*
X284943Y886089D01*
X285811Y885730D01*
X286704Y885440D01*
X287617Y885221D01*
X288544Y885074D01*
X289480Y885000D01*
X290420Y885000D01*
X291356Y885074D01*
X292283Y885221D01*
X293196Y885440D01*
X294089Y885730D01*
X294957Y886089D01*
X295794Y886516D01*
X296594Y887006D01*
X297354Y887558D01*
X298068Y888168D01*
X298732Y888832D01*
X299342Y889546D01*
X299894Y890306D01*
X300384Y891106D01*
X300811Y891943D01*
X301170Y892811D01*
X301460Y893704D01*
X301679Y894617D01*
X301826Y895544D01*
X301900Y896480D01*
X301900Y897420D01*
X301826Y898356D01*
X301679Y899283D01*
X301460Y900196D01*
X301170Y901089D01*
X300811Y901957D01*
X300384Y902794D01*
X299894Y903594D01*
X299342Y904354D01*
X298732Y905068D01*
X298068Y905732D01*
X297354Y906342D01*
X296594Y906894D01*
X295794Y907384D01*
X294957Y907811D01*
X294089Y908170D01*
X293196Y908460D01*
X292283Y908679D01*
X291356Y908826D01*
X290420Y908900D01*
X289480Y908900D01*
M02*
