G04 EAGLE Gerber X2 export*
G75*
%MOMM*%
%FSLAX34Y34*%
%LPD*%
%AMOC8*
5,1,8,0,0,1.08239X$1,22.5*%
G01*
%ADD10C,0.660400*%
%ADD11C,0.127000*%
%ADD12C,0.300000*%
%ADD13C,0.101600*%
%ADD14C,0.152400*%
%ADD15C,0.406400*%
%ADD16C,0.508000*%
%ADD17R,1.905000X1.270000*%
%ADD18R,1.778000X0.762000*%
%ADD19R,0.762000X1.270000*%
%ADD20R,0.060000X0.050000*%
%ADD21R,0.060000X0.060000*%
%ADD22R,0.110000X0.050000*%
%ADD23R,0.160000X0.060000*%
%ADD24R,0.160000X0.050000*%
%ADD25R,0.280000X0.050000*%
%ADD26R,0.280000X0.060000*%
%ADD27R,0.380000X0.060000*%
%ADD28R,0.380000X0.050000*%
%ADD29R,0.430000X0.050000*%
%ADD30R,0.480000X0.060000*%
%ADD31R,0.480000X0.050000*%
%ADD32R,0.600000X0.060000*%
%ADD33R,0.600000X0.050000*%
%ADD34R,0.700000X0.060000*%
%ADD35R,0.700000X0.050000*%
%ADD36R,0.760000X0.050000*%
%ADD37R,0.820000X0.060000*%
%ADD38R,0.820000X0.050000*%
%ADD39R,0.870000X0.060000*%
%ADD40R,0.920000X0.050000*%
%ADD41R,0.920000X0.060000*%
%ADD42R,0.980000X0.050000*%
%ADD43R,1.040000X0.060000*%
%ADD44R,1.040000X0.050000*%
%ADD45R,1.090000X0.050000*%
%ADD46R,1.140000X0.060000*%
%ADD47R,1.140000X0.050000*%
%ADD48R,1.190000X0.060000*%
%ADD49R,1.240000X0.050000*%
%ADD50R,1.240000X0.060000*%
%ADD51R,1.300000X0.060000*%
%ADD52R,1.360000X0.050000*%
%ADD53R,1.360000X0.060000*%
%ADD54R,0.050000X0.060000*%
%ADD55R,1.410000X0.060000*%
%ADD56R,0.220000X0.050000*%
%ADD57R,1.460000X0.050000*%
%ADD58R,0.210000X0.050000*%
%ADD59R,0.270000X0.050000*%
%ADD60R,0.320000X0.060000*%
%ADD61R,1.460000X0.060000*%
%ADD62R,0.270000X0.060000*%
%ADD63R,1.580000X0.060000*%
%ADD64R,0.440000X0.060000*%
%ADD65R,0.490000X0.050000*%
%ADD66R,1.580000X0.050000*%
%ADD67R,0.490000X0.060000*%
%ADD68R,0.540000X0.060000*%
%ADD69R,0.550000X0.050000*%
%ADD70R,1.680000X0.050000*%
%ADD71R,0.590000X0.050000*%
%ADD72R,0.650000X0.060000*%
%ADD73R,1.680000X0.060000*%
%ADD74R,0.710000X0.050000*%
%ADD75R,0.760000X0.060000*%
%ADD76R,1.740000X0.050000*%
%ADD77R,0.810000X0.050000*%
%ADD78R,0.860000X0.060000*%
%ADD79R,1.800000X0.060000*%
%ADD80R,0.810000X0.060000*%
%ADD81R,0.870000X0.050000*%
%ADD82R,1.800000X0.050000*%
%ADD83R,0.930000X0.050000*%
%ADD84R,1.850000X0.060000*%
%ADD85R,0.980000X0.060000*%
%ADD86R,1.030000X0.050000*%
%ADD87R,1.850000X0.050000*%
%ADD88R,1.900000X0.060000*%
%ADD89R,1.090000X0.060000*%
%ADD90R,1.900000X0.050000*%
%ADD91R,1.080000X0.050000*%
%ADD92R,1.200000X0.050000*%
%ADD93R,1.950000X0.050000*%
%ADD94R,1.250000X0.050000*%
%ADD95R,1.310000X0.050000*%
%ADD96R,2.000000X0.060000*%
%ADD97R,1.350000X0.060000*%
%ADD98R,2.000000X0.050000*%
%ADD99R,1.420000X0.060000*%
%ADD100R,1.470000X0.050000*%
%ADD101R,2.060000X0.050000*%
%ADD102R,2.120000X0.060000*%
%ADD103R,1.520000X0.060000*%
%ADD104R,1.570000X0.050000*%
%ADD105R,2.120000X0.050000*%
%ADD106R,1.520000X0.050000*%
%ADD107R,1.630000X0.050000*%
%ADD108R,1.740000X0.060000*%
%ADD109R,2.170000X0.060000*%
%ADD110R,2.170000X0.050000*%
%ADD111R,1.690000X0.050000*%
%ADD112R,1.790000X0.060000*%
%ADD113R,2.220000X0.060000*%
%ADD114R,2.220000X0.050000*%
%ADD115R,1.790000X0.050000*%
%ADD116R,2.280000X0.050000*%
%ADD117R,1.960000X0.050000*%
%ADD118R,2.010000X0.060000*%
%ADD119R,2.280000X0.060000*%
%ADD120R,1.960000X0.060000*%
%ADD121R,2.010000X0.050000*%
%ADD122R,2.340000X0.050000*%
%ADD123R,2.340000X0.060000*%
%ADD124R,2.180000X0.050000*%
%ADD125R,2.390000X0.050000*%
%ADD126R,2.390000X0.060000*%
%ADD127R,2.440000X0.050000*%
%ADD128R,2.230000X0.050000*%
%ADD129R,2.440000X0.060000*%
%ADD130R,2.500000X0.050000*%
%ADD131R,2.330000X0.050000*%
%ADD132R,2.550000X0.050000*%
%ADD133R,2.560000X0.060000*%
%ADD134R,2.670000X0.050000*%
%ADD135R,2.610000X0.050000*%
%ADD136R,2.660000X0.060000*%
%ADD137R,2.610000X0.060000*%
%ADD138R,2.720000X0.050000*%
%ADD139R,2.770000X0.050000*%
%ADD140R,1.190000X0.050000*%
%ADD141R,2.820000X0.060000*%
%ADD142R,2.770000X0.060000*%
%ADD143R,2.880000X0.050000*%
%ADD144R,2.880000X0.060000*%
%ADD145R,2.980000X0.050000*%
%ADD146R,2.990000X0.060000*%
%ADD147R,3.100000X0.050000*%
%ADD148R,3.040000X0.050000*%
%ADD149R,3.090000X0.050000*%
%ADD150R,3.150000X0.060000*%
%ADD151R,3.200000X0.050000*%
%ADD152R,3.150000X0.050000*%
%ADD153R,3.260000X0.060000*%
%ADD154R,3.310000X0.050000*%
%ADD155R,3.370000X0.060000*%
%ADD156R,3.320000X0.060000*%
%ADD157R,3.420000X0.050000*%
%ADD158R,3.470000X0.060000*%
%ADD159R,3.480000X0.060000*%
%ADD160R,3.530000X0.050000*%
%ADD161R,3.470000X0.050000*%
%ADD162R,3.580000X0.060000*%
%ADD163R,3.630000X0.050000*%
%ADD164R,3.580000X0.050000*%
%ADD165R,3.690000X0.060000*%
%ADD166R,3.700000X0.050000*%
%ADD167R,3.810000X0.050000*%
%ADD168R,3.750000X0.050000*%
%ADD169R,3.800000X0.060000*%
%ADD170R,3.910000X0.050000*%
%ADD171R,3.860000X0.050000*%
%ADD172R,3.910000X0.060000*%
%ADD173R,3.850000X0.060000*%
%ADD174R,3.960000X0.050000*%
%ADD175R,4.020000X0.060000*%
%ADD176R,3.970000X0.060000*%
%ADD177R,4.080000X0.050000*%
%ADD178R,4.120000X0.060000*%
%ADD179R,4.180000X0.050000*%
%ADD180R,4.240000X0.050000*%
%ADD181R,4.240000X0.060000*%
%ADD182R,4.300000X0.060000*%
%ADD183R,4.350000X0.050000*%
%ADD184R,4.290000X0.050000*%
%ADD185R,4.400000X0.060000*%
%ADD186R,4.450000X0.050000*%
%ADD187R,4.400000X0.050000*%
%ADD188R,8.800000X0.060000*%
%ADD189R,8.740000X0.050000*%
%ADD190R,8.690000X0.050000*%
%ADD191R,8.580000X0.060000*%
%ADD192R,8.520000X0.050000*%
%ADD193R,8.470000X0.060000*%
%ADD194R,8.420000X0.050000*%
%ADD195R,8.320000X0.060000*%
%ADD196R,8.260000X0.050000*%
%ADD197R,8.200000X0.050000*%
%ADD198R,8.100000X0.060000*%
%ADD199R,8.040000X0.050000*%
%ADD200R,7.980000X0.060000*%
%ADD201R,7.930000X0.050000*%
%ADD202R,7.820000X0.060000*%
%ADD203R,7.760000X0.050000*%
%ADD204R,7.710000X0.050000*%
%ADD205R,7.610000X0.060000*%
%ADD206R,7.560000X0.050000*%
%ADD207R,7.440000X0.060000*%
%ADD208R,7.440000X0.050000*%
%ADD209R,7.340000X0.060000*%
%ADD210R,7.280000X0.050000*%
%ADD211R,7.170000X0.050000*%
%ADD212R,7.120000X0.060000*%
%ADD213R,7.060000X0.050000*%
%ADD214R,7.000000X0.060000*%
%ADD215R,0.320000X0.050000*%
%ADD216R,6.900000X0.050000*%
%ADD217R,0.590000X0.060000*%
%ADD218R,6.850000X0.060000*%
%ADD219R,6.800000X0.050000*%
%ADD220R,6.680000X0.060000*%
%ADD221R,6.630000X0.050000*%
%ADD222R,6.580000X0.050000*%
%ADD223R,6.460000X0.060000*%
%ADD224R,2.060000X0.060000*%
%ADD225R,6.410000X0.050000*%
%ADD226R,6.360000X0.060000*%
%ADD227R,2.830000X0.050000*%
%ADD228R,6.240000X0.050000*%
%ADD229R,3.100000X0.060000*%
%ADD230R,6.190000X0.060000*%
%ADD231R,6.140000X0.050000*%
%ADD232R,3.690000X0.050000*%
%ADD233R,6.080000X0.050000*%
%ADD234R,6.020000X0.060000*%
%ADD235R,5.920000X0.050000*%
%ADD236R,4.560000X0.060000*%
%ADD237R,5.870000X0.060000*%
%ADD238R,4.840000X0.050000*%
%ADD239R,5.820000X0.050000*%
%ADD240R,5.110000X0.060000*%
%ADD241R,5.700000X0.060000*%
%ADD242R,5.160000X0.060000*%
%ADD243R,5.430000X0.050000*%
%ADD244R,5.650000X0.050000*%
%ADD245R,5.710000X0.050000*%
%ADD246R,5.600000X0.050000*%
%ADD247R,5.980000X0.060000*%
%ADD248R,5.540000X0.060000*%
%ADD249R,6.030000X0.060000*%
%ADD250R,6.250000X0.050000*%
%ADD251R,5.480000X0.050000*%
%ADD252R,6.300000X0.050000*%
%ADD253R,5.380000X0.060000*%
%ADD254R,6.510000X0.060000*%
%ADD255R,5.380000X0.050000*%
%ADD256R,5.760000X0.060000*%
%ADD257R,5.100000X0.060000*%
%ADD258R,4.510000X0.060000*%
%ADD259R,5.970000X0.050000*%
%ADD260R,4.230000X0.050000*%
%ADD261R,3.640000X0.050000*%
%ADD262R,3.360000X0.050000*%
%ADD263R,3.040000X0.060000*%
%ADD264R,1.950000X0.060000*%
%ADD265R,1.080000X0.060000*%
%ADD266R,7.220000X0.050000*%
%ADD267R,7.500000X0.060000*%
%ADD268R,7.660000X0.060000*%
%ADD269R,7.880000X0.060000*%
%ADD270R,8.640000X0.060000*%
%ADD271R,8.860000X0.060000*%
%ADD272R,4.340000X0.060000*%
%ADD273R,4.300000X0.050000*%
%ADD274R,4.290000X0.060000*%
%ADD275R,4.130000X0.050000*%
%ADD276R,4.070000X0.060000*%
%ADD277R,4.020000X0.050000*%
%ADD278R,3.640000X0.060000*%
%ADD279R,3.530000X0.060000*%
%ADD280R,3.420000X0.060000*%
%ADD281R,3.370000X0.050000*%
%ADD282R,3.310000X0.060000*%
%ADD283R,3.320000X0.050000*%
%ADD284R,3.260000X0.050000*%
%ADD285R,3.210000X0.060000*%
%ADD286R,2.980000X0.060000*%
%ADD287R,2.930000X0.050000*%
%ADD288R,2.710000X0.050000*%
%ADD289R,1.410000X0.050000*%
%ADD290R,2.500000X0.060000*%
%ADD291R,2.230000X0.060000*%
%ADD292R,2.070000X0.050000*%
%ADD293R,1.910000X0.060000*%
%ADD294R,1.840000X0.060000*%
%ADD295R,1.690000X0.060000*%
%ADD296R,1.630000X0.060000*%
%ADD297R,1.530000X0.060000*%
%ADD298R,1.470000X0.060000*%
%ADD299R,1.420000X0.050000*%
%ADD300R,1.350000X0.050000*%
%ADD301R,1.030000X0.060000*%
%ADD302R,0.710000X0.060000*%
%ADD303R,0.650000X0.050000*%
%ADD304R,0.540000X0.050000*%
%ADD305R,0.430000X0.060000*%
%ADD306R,0.440000X0.050000*%
%ADD307R,0.330000X0.050000*%


D10*
X991930Y439081D02*
X991930Y469053D01*
X983605Y469053D01*
X983465Y469051D01*
X983325Y469045D01*
X983185Y469035D01*
X983046Y469022D01*
X982907Y469004D01*
X982768Y468982D01*
X982631Y468957D01*
X982494Y468928D01*
X982357Y468895D01*
X982222Y468858D01*
X982088Y468817D01*
X981955Y468773D01*
X981824Y468725D01*
X981694Y468673D01*
X981565Y468617D01*
X981438Y468558D01*
X981312Y468496D01*
X981189Y468430D01*
X981067Y468360D01*
X980948Y468287D01*
X980830Y468211D01*
X980715Y468132D01*
X980601Y468049D01*
X980491Y467963D01*
X980382Y467874D01*
X980277Y467783D01*
X980173Y467688D01*
X980073Y467590D01*
X979975Y467490D01*
X979881Y467386D01*
X979789Y467281D01*
X979700Y467172D01*
X979614Y467062D01*
X979531Y466948D01*
X979452Y466833D01*
X979376Y466716D01*
X979303Y466596D01*
X979233Y466474D01*
X979167Y466351D01*
X979105Y466225D01*
X979046Y466098D01*
X978990Y465970D01*
X978938Y465839D01*
X978890Y465708D01*
X978846Y465575D01*
X978805Y465441D01*
X978768Y465306D01*
X978735Y465170D01*
X978706Y465033D01*
X978681Y464895D01*
X978659Y464756D01*
X978641Y464617D01*
X978628Y464478D01*
X978618Y464338D01*
X978612Y464198D01*
X978610Y464058D01*
X978609Y464058D02*
X978609Y454067D01*
X978610Y454067D02*
X978612Y453927D01*
X978618Y453787D01*
X978628Y453647D01*
X978641Y453508D01*
X978659Y453369D01*
X978681Y453230D01*
X978706Y453093D01*
X978735Y452956D01*
X978768Y452819D01*
X978805Y452684D01*
X978846Y452550D01*
X978890Y452417D01*
X978938Y452286D01*
X978990Y452155D01*
X979046Y452027D01*
X979105Y451900D01*
X979167Y451774D01*
X979233Y451651D01*
X979303Y451529D01*
X979376Y451409D01*
X979452Y451292D01*
X979531Y451177D01*
X979614Y451063D01*
X979700Y450953D01*
X979789Y450844D01*
X979881Y450739D01*
X979975Y450635D01*
X980073Y450535D01*
X980173Y450437D01*
X980277Y450343D01*
X980382Y450251D01*
X980491Y450162D01*
X980601Y450076D01*
X980715Y449993D01*
X980830Y449914D01*
X980948Y449838D01*
X981067Y449765D01*
X981189Y449695D01*
X981312Y449629D01*
X981438Y449567D01*
X981565Y449508D01*
X981694Y449452D01*
X981824Y449400D01*
X981955Y449352D01*
X982088Y449308D01*
X982222Y449267D01*
X982357Y449230D01*
X982494Y449197D01*
X982631Y449168D01*
X982768Y449143D01*
X982907Y449121D01*
X983046Y449103D01*
X983185Y449090D01*
X983325Y449080D01*
X983465Y449074D01*
X983605Y449072D01*
X991930Y449072D01*
X962515Y460728D02*
X955022Y460728D01*
X962515Y460728D02*
X962668Y460726D01*
X962820Y460720D01*
X962972Y460710D01*
X963124Y460696D01*
X963276Y460678D01*
X963427Y460656D01*
X963577Y460630D01*
X963727Y460601D01*
X963876Y460567D01*
X964023Y460529D01*
X964170Y460488D01*
X964316Y460443D01*
X964460Y460394D01*
X964604Y460341D01*
X964745Y460284D01*
X964885Y460224D01*
X965024Y460160D01*
X965161Y460093D01*
X965296Y460022D01*
X965429Y459947D01*
X965560Y459869D01*
X965689Y459788D01*
X965816Y459703D01*
X965941Y459615D01*
X966063Y459524D01*
X966183Y459429D01*
X966300Y459332D01*
X966415Y459231D01*
X966527Y459127D01*
X966636Y459021D01*
X966742Y458912D01*
X966846Y458800D01*
X966947Y458685D01*
X967044Y458568D01*
X967139Y458448D01*
X967230Y458326D01*
X967318Y458201D01*
X967403Y458074D01*
X967484Y457945D01*
X967562Y457814D01*
X967637Y457681D01*
X967708Y457546D01*
X967775Y457409D01*
X967839Y457270D01*
X967899Y457130D01*
X967956Y456989D01*
X968009Y456845D01*
X968058Y456701D01*
X968103Y456555D01*
X968144Y456408D01*
X968182Y456261D01*
X968216Y456112D01*
X968245Y455962D01*
X968271Y455812D01*
X968293Y455661D01*
X968311Y455509D01*
X968325Y455357D01*
X968335Y455205D01*
X968341Y455053D01*
X968343Y454900D01*
X968341Y454747D01*
X968335Y454595D01*
X968325Y454443D01*
X968311Y454291D01*
X968293Y454139D01*
X968271Y453988D01*
X968245Y453838D01*
X968216Y453688D01*
X968182Y453539D01*
X968144Y453392D01*
X968103Y453245D01*
X968058Y453099D01*
X968009Y452955D01*
X967956Y452811D01*
X967899Y452670D01*
X967839Y452530D01*
X967775Y452391D01*
X967708Y452254D01*
X967637Y452119D01*
X967562Y451986D01*
X967484Y451855D01*
X967403Y451726D01*
X967318Y451599D01*
X967230Y451474D01*
X967139Y451352D01*
X967044Y451232D01*
X966947Y451115D01*
X966846Y451000D01*
X966742Y450888D01*
X966636Y450779D01*
X966527Y450673D01*
X966415Y450569D01*
X966300Y450468D01*
X966183Y450371D01*
X966063Y450276D01*
X965941Y450185D01*
X965816Y450097D01*
X965689Y450012D01*
X965560Y449931D01*
X965429Y449853D01*
X965296Y449778D01*
X965161Y449707D01*
X965024Y449640D01*
X964885Y449576D01*
X964745Y449516D01*
X964604Y449459D01*
X964460Y449406D01*
X964316Y449357D01*
X964170Y449312D01*
X964023Y449271D01*
X963876Y449233D01*
X963727Y449199D01*
X963577Y449170D01*
X963427Y449144D01*
X963276Y449122D01*
X963124Y449104D01*
X962972Y449090D01*
X962820Y449080D01*
X962668Y449074D01*
X962515Y449072D01*
X955022Y449072D01*
X955022Y464058D01*
X955024Y464198D01*
X955030Y464338D01*
X955040Y464478D01*
X955053Y464617D01*
X955071Y464756D01*
X955093Y464895D01*
X955118Y465032D01*
X955147Y465169D01*
X955180Y465306D01*
X955217Y465441D01*
X955258Y465575D01*
X955302Y465708D01*
X955350Y465839D01*
X955402Y465970D01*
X955458Y466098D01*
X955517Y466225D01*
X955579Y466351D01*
X955645Y466474D01*
X955715Y466596D01*
X955788Y466716D01*
X955864Y466833D01*
X955943Y466948D01*
X956026Y467062D01*
X956112Y467172D01*
X956201Y467281D01*
X956293Y467386D01*
X956387Y467490D01*
X956485Y467590D01*
X956585Y467688D01*
X956689Y467782D01*
X956794Y467874D01*
X956903Y467963D01*
X957013Y468049D01*
X957127Y468132D01*
X957242Y468211D01*
X957360Y468287D01*
X957479Y468360D01*
X957601Y468430D01*
X957724Y468496D01*
X957850Y468558D01*
X957977Y468617D01*
X958106Y468673D01*
X958236Y468725D01*
X958367Y468773D01*
X958500Y468817D01*
X958634Y468858D01*
X958769Y468895D01*
X958906Y468928D01*
X959043Y468957D01*
X959180Y468982D01*
X959319Y469004D01*
X959458Y469022D01*
X959597Y469035D01*
X959737Y469045D01*
X959877Y469051D01*
X960017Y469053D01*
X960018Y469053D02*
X966678Y469053D01*
X942515Y469053D02*
X942515Y449072D01*
X942515Y469053D02*
X932525Y469053D01*
X932525Y465723D01*
X926515Y469053D02*
X916524Y469053D01*
X923184Y479044D02*
X923184Y454067D01*
X923182Y453927D01*
X923176Y453787D01*
X923166Y453647D01*
X923153Y453508D01*
X923135Y453369D01*
X923113Y453230D01*
X923088Y453093D01*
X923059Y452956D01*
X923026Y452819D01*
X922989Y452684D01*
X922948Y452550D01*
X922904Y452417D01*
X922856Y452286D01*
X922804Y452155D01*
X922748Y452027D01*
X922689Y451900D01*
X922627Y451774D01*
X922561Y451651D01*
X922491Y451529D01*
X922418Y451409D01*
X922342Y451292D01*
X922263Y451177D01*
X922180Y451063D01*
X922094Y450953D01*
X922005Y450844D01*
X921913Y450739D01*
X921819Y450635D01*
X921721Y450535D01*
X921621Y450437D01*
X921517Y450343D01*
X921412Y450251D01*
X921303Y450162D01*
X921193Y450076D01*
X921079Y449993D01*
X920964Y449914D01*
X920847Y449838D01*
X920727Y449765D01*
X920605Y449695D01*
X920482Y449629D01*
X920356Y449567D01*
X920229Y449508D01*
X920101Y449452D01*
X919970Y449400D01*
X919839Y449352D01*
X919706Y449308D01*
X919572Y449267D01*
X919437Y449230D01*
X919300Y449197D01*
X919163Y449168D01*
X919026Y449143D01*
X918887Y449121D01*
X918748Y449103D01*
X918609Y449090D01*
X918469Y449080D01*
X918329Y449074D01*
X918189Y449072D01*
X916524Y449072D01*
X906725Y449072D02*
X906725Y469053D01*
X907558Y477379D02*
X907558Y479044D01*
X905893Y479044D01*
X905893Y477379D01*
X907558Y477379D01*
X890984Y449072D02*
X884324Y449072D01*
X890984Y449072D02*
X891124Y449074D01*
X891264Y449080D01*
X891404Y449090D01*
X891543Y449103D01*
X891682Y449121D01*
X891821Y449143D01*
X891958Y449168D01*
X892095Y449197D01*
X892232Y449230D01*
X892367Y449267D01*
X892501Y449308D01*
X892634Y449352D01*
X892765Y449400D01*
X892896Y449452D01*
X893024Y449508D01*
X893151Y449567D01*
X893277Y449629D01*
X893400Y449695D01*
X893522Y449765D01*
X893642Y449838D01*
X893759Y449914D01*
X893874Y449993D01*
X893988Y450076D01*
X894098Y450162D01*
X894207Y450251D01*
X894312Y450343D01*
X894416Y450437D01*
X894516Y450535D01*
X894614Y450635D01*
X894708Y450739D01*
X894800Y450844D01*
X894889Y450953D01*
X894975Y451063D01*
X895058Y451177D01*
X895137Y451292D01*
X895213Y451409D01*
X895286Y451529D01*
X895356Y451651D01*
X895422Y451774D01*
X895484Y451900D01*
X895543Y452027D01*
X895599Y452155D01*
X895651Y452286D01*
X895699Y452417D01*
X895743Y452550D01*
X895784Y452684D01*
X895821Y452819D01*
X895854Y452956D01*
X895883Y453093D01*
X895908Y453230D01*
X895930Y453369D01*
X895948Y453508D01*
X895961Y453647D01*
X895971Y453787D01*
X895977Y453927D01*
X895979Y454067D01*
X895979Y464058D01*
X895977Y464198D01*
X895971Y464338D01*
X895961Y464478D01*
X895948Y464617D01*
X895930Y464756D01*
X895908Y464895D01*
X895883Y465032D01*
X895854Y465169D01*
X895821Y465306D01*
X895784Y465441D01*
X895743Y465575D01*
X895699Y465708D01*
X895651Y465839D01*
X895599Y465970D01*
X895543Y466098D01*
X895484Y466225D01*
X895422Y466351D01*
X895356Y466474D01*
X895286Y466596D01*
X895213Y466716D01*
X895137Y466833D01*
X895058Y466948D01*
X894975Y467062D01*
X894889Y467172D01*
X894800Y467281D01*
X894708Y467386D01*
X894614Y467490D01*
X894516Y467590D01*
X894416Y467688D01*
X894312Y467782D01*
X894207Y467874D01*
X894098Y467963D01*
X893988Y468049D01*
X893874Y468132D01*
X893759Y468211D01*
X893642Y468287D01*
X893522Y468360D01*
X893400Y468430D01*
X893277Y468496D01*
X893151Y468558D01*
X893024Y468617D01*
X892896Y468673D01*
X892765Y468725D01*
X892634Y468773D01*
X892501Y468817D01*
X892367Y468858D01*
X892232Y468895D01*
X892095Y468928D01*
X891958Y468957D01*
X891821Y468982D01*
X891682Y469004D01*
X891543Y469022D01*
X891404Y469035D01*
X891264Y469045D01*
X891124Y469051D01*
X890984Y469053D01*
X884324Y469053D01*
X874394Y479044D02*
X874394Y454067D01*
X874392Y453927D01*
X874386Y453787D01*
X874376Y453647D01*
X874363Y453508D01*
X874345Y453369D01*
X874323Y453230D01*
X874298Y453093D01*
X874269Y452956D01*
X874236Y452819D01*
X874199Y452684D01*
X874158Y452550D01*
X874114Y452417D01*
X874066Y452286D01*
X874014Y452155D01*
X873958Y452027D01*
X873899Y451900D01*
X873837Y451774D01*
X873771Y451651D01*
X873701Y451529D01*
X873628Y451409D01*
X873552Y451292D01*
X873473Y451177D01*
X873390Y451063D01*
X873304Y450953D01*
X873215Y450844D01*
X873123Y450739D01*
X873029Y450635D01*
X872931Y450535D01*
X872831Y450437D01*
X872727Y450343D01*
X872622Y450251D01*
X872513Y450162D01*
X872403Y450076D01*
X872289Y449993D01*
X872174Y449914D01*
X872057Y449838D01*
X871937Y449765D01*
X871815Y449695D01*
X871692Y449629D01*
X871566Y449567D01*
X871439Y449508D01*
X871311Y449452D01*
X871180Y449400D01*
X871049Y449352D01*
X870916Y449308D01*
X870782Y449267D01*
X870647Y449230D01*
X870510Y449197D01*
X870373Y449168D01*
X870236Y449143D01*
X870097Y449121D01*
X869958Y449103D01*
X869819Y449090D01*
X869679Y449080D01*
X869539Y449074D01*
X869399Y449072D01*
X855355Y449072D02*
X847030Y449072D01*
X855355Y449072D02*
X855495Y449074D01*
X855635Y449080D01*
X855775Y449090D01*
X855914Y449103D01*
X856053Y449121D01*
X856192Y449143D01*
X856329Y449168D01*
X856466Y449197D01*
X856603Y449230D01*
X856738Y449267D01*
X856872Y449308D01*
X857005Y449352D01*
X857136Y449400D01*
X857267Y449452D01*
X857395Y449508D01*
X857522Y449567D01*
X857648Y449629D01*
X857771Y449695D01*
X857893Y449765D01*
X858013Y449838D01*
X858130Y449914D01*
X858245Y449993D01*
X858359Y450076D01*
X858469Y450162D01*
X858578Y450251D01*
X858683Y450343D01*
X858787Y450437D01*
X858887Y450535D01*
X858985Y450635D01*
X859079Y450739D01*
X859171Y450844D01*
X859260Y450953D01*
X859346Y451063D01*
X859429Y451177D01*
X859508Y451292D01*
X859584Y451409D01*
X859657Y451529D01*
X859727Y451651D01*
X859793Y451774D01*
X859855Y451900D01*
X859914Y452027D01*
X859970Y452155D01*
X860022Y452286D01*
X860070Y452417D01*
X860114Y452550D01*
X860155Y452684D01*
X860192Y452819D01*
X860225Y452956D01*
X860254Y453093D01*
X860279Y453230D01*
X860301Y453369D01*
X860319Y453508D01*
X860332Y453647D01*
X860342Y453787D01*
X860348Y453927D01*
X860350Y454067D01*
X860351Y454067D02*
X860351Y462393D01*
X860350Y462393D02*
X860348Y462555D01*
X860342Y462717D01*
X860332Y462879D01*
X860318Y463041D01*
X860301Y463202D01*
X860279Y463363D01*
X860253Y463523D01*
X860224Y463682D01*
X860191Y463841D01*
X860153Y463999D01*
X860112Y464156D01*
X860068Y464312D01*
X860019Y464466D01*
X859967Y464620D01*
X859911Y464772D01*
X859851Y464923D01*
X859787Y465072D01*
X859720Y465220D01*
X859650Y465366D01*
X859575Y465510D01*
X859498Y465653D01*
X859417Y465793D01*
X859332Y465931D01*
X859244Y466068D01*
X859153Y466202D01*
X859059Y466334D01*
X858961Y466463D01*
X858861Y466591D01*
X858757Y466715D01*
X858650Y466837D01*
X858540Y466957D01*
X858428Y467074D01*
X858313Y467188D01*
X858194Y467299D01*
X858074Y467407D01*
X857950Y467512D01*
X857824Y467614D01*
X857696Y467714D01*
X857565Y467810D01*
X857432Y467902D01*
X857297Y467992D01*
X857159Y468078D01*
X857020Y468161D01*
X856879Y468240D01*
X856735Y468316D01*
X856590Y468388D01*
X856443Y468457D01*
X856295Y468523D01*
X856145Y468584D01*
X855993Y468642D01*
X855840Y468696D01*
X855686Y468747D01*
X855531Y468794D01*
X855375Y468836D01*
X855217Y468876D01*
X855059Y468911D01*
X854900Y468942D01*
X854740Y468970D01*
X854579Y468993D01*
X854418Y469013D01*
X854257Y469029D01*
X854095Y469041D01*
X853933Y469049D01*
X853771Y469053D01*
X853609Y469053D01*
X853447Y469049D01*
X853285Y469041D01*
X853123Y469029D01*
X852962Y469013D01*
X852801Y468993D01*
X852640Y468970D01*
X852480Y468942D01*
X852321Y468911D01*
X852163Y468876D01*
X852005Y468836D01*
X851849Y468794D01*
X851694Y468747D01*
X851540Y468696D01*
X851387Y468642D01*
X851235Y468584D01*
X851085Y468523D01*
X850937Y468457D01*
X850790Y468388D01*
X850645Y468316D01*
X850501Y468240D01*
X850360Y468161D01*
X850221Y468078D01*
X850083Y467992D01*
X849948Y467902D01*
X849815Y467810D01*
X849684Y467714D01*
X849556Y467614D01*
X849430Y467512D01*
X849306Y467407D01*
X849186Y467299D01*
X849067Y467188D01*
X848952Y467074D01*
X848840Y466957D01*
X848730Y466837D01*
X848623Y466715D01*
X848519Y466591D01*
X848419Y466463D01*
X848321Y466334D01*
X848227Y466202D01*
X848136Y466068D01*
X848048Y465931D01*
X847963Y465793D01*
X847882Y465653D01*
X847805Y465510D01*
X847730Y465366D01*
X847660Y465220D01*
X847593Y465072D01*
X847529Y464923D01*
X847469Y464772D01*
X847413Y464620D01*
X847361Y464466D01*
X847312Y464312D01*
X847268Y464156D01*
X847227Y463999D01*
X847189Y463841D01*
X847156Y463682D01*
X847127Y463523D01*
X847101Y463363D01*
X847079Y463202D01*
X847062Y463041D01*
X847048Y462879D01*
X847038Y462717D01*
X847032Y462555D01*
X847030Y462393D01*
X847030Y459063D01*
X860351Y459063D01*
X837149Y450737D02*
X837149Y449072D01*
X837149Y450737D02*
X835484Y450737D01*
X835484Y449072D01*
X837149Y449072D01*
X825344Y449072D02*
X825344Y469053D01*
X826176Y477379D02*
X826176Y479044D01*
X824511Y479044D01*
X824511Y477379D01*
X826176Y477379D01*
X814631Y462393D02*
X814631Y455732D01*
X814630Y462393D02*
X814628Y462555D01*
X814622Y462717D01*
X814612Y462879D01*
X814598Y463041D01*
X814581Y463202D01*
X814559Y463363D01*
X814533Y463523D01*
X814504Y463682D01*
X814471Y463841D01*
X814433Y463999D01*
X814392Y464156D01*
X814348Y464312D01*
X814299Y464466D01*
X814247Y464620D01*
X814191Y464772D01*
X814131Y464923D01*
X814067Y465072D01*
X814000Y465220D01*
X813930Y465366D01*
X813855Y465510D01*
X813778Y465653D01*
X813697Y465793D01*
X813612Y465931D01*
X813524Y466068D01*
X813433Y466202D01*
X813339Y466334D01*
X813241Y466463D01*
X813141Y466591D01*
X813037Y466715D01*
X812930Y466837D01*
X812820Y466957D01*
X812708Y467074D01*
X812593Y467188D01*
X812474Y467299D01*
X812354Y467407D01*
X812230Y467512D01*
X812104Y467614D01*
X811976Y467714D01*
X811845Y467810D01*
X811712Y467902D01*
X811577Y467992D01*
X811439Y468078D01*
X811300Y468161D01*
X811159Y468240D01*
X811015Y468316D01*
X810870Y468388D01*
X810723Y468457D01*
X810575Y468523D01*
X810425Y468584D01*
X810273Y468642D01*
X810120Y468696D01*
X809966Y468747D01*
X809811Y468794D01*
X809655Y468836D01*
X809497Y468876D01*
X809339Y468911D01*
X809180Y468942D01*
X809020Y468970D01*
X808859Y468993D01*
X808698Y469013D01*
X808537Y469029D01*
X808375Y469041D01*
X808213Y469049D01*
X808051Y469053D01*
X807889Y469053D01*
X807727Y469049D01*
X807565Y469041D01*
X807403Y469029D01*
X807242Y469013D01*
X807081Y468993D01*
X806920Y468970D01*
X806760Y468942D01*
X806601Y468911D01*
X806443Y468876D01*
X806285Y468836D01*
X806129Y468794D01*
X805974Y468747D01*
X805820Y468696D01*
X805667Y468642D01*
X805515Y468584D01*
X805365Y468523D01*
X805217Y468457D01*
X805070Y468388D01*
X804925Y468316D01*
X804781Y468240D01*
X804640Y468161D01*
X804501Y468078D01*
X804363Y467992D01*
X804228Y467902D01*
X804095Y467810D01*
X803964Y467714D01*
X803836Y467614D01*
X803710Y467512D01*
X803586Y467407D01*
X803466Y467299D01*
X803347Y467188D01*
X803232Y467074D01*
X803120Y466957D01*
X803010Y466837D01*
X802903Y466715D01*
X802799Y466591D01*
X802699Y466463D01*
X802601Y466334D01*
X802507Y466202D01*
X802416Y466068D01*
X802328Y465931D01*
X802243Y465793D01*
X802162Y465653D01*
X802085Y465510D01*
X802010Y465366D01*
X801940Y465220D01*
X801873Y465072D01*
X801809Y464923D01*
X801749Y464772D01*
X801693Y464620D01*
X801641Y464466D01*
X801592Y464312D01*
X801548Y464156D01*
X801507Y463999D01*
X801469Y463841D01*
X801436Y463682D01*
X801407Y463523D01*
X801381Y463363D01*
X801359Y463202D01*
X801342Y463041D01*
X801328Y462879D01*
X801318Y462717D01*
X801312Y462555D01*
X801310Y462393D01*
X801310Y455732D01*
X801312Y455570D01*
X801318Y455408D01*
X801328Y455246D01*
X801342Y455084D01*
X801359Y454923D01*
X801381Y454762D01*
X801407Y454602D01*
X801436Y454443D01*
X801469Y454284D01*
X801507Y454126D01*
X801548Y453969D01*
X801592Y453813D01*
X801641Y453659D01*
X801693Y453505D01*
X801749Y453353D01*
X801809Y453202D01*
X801873Y453053D01*
X801940Y452905D01*
X802010Y452759D01*
X802085Y452615D01*
X802162Y452472D01*
X802243Y452332D01*
X802328Y452194D01*
X802416Y452057D01*
X802507Y451923D01*
X802601Y451791D01*
X802699Y451662D01*
X802799Y451534D01*
X802903Y451410D01*
X803010Y451288D01*
X803120Y451168D01*
X803232Y451051D01*
X803347Y450937D01*
X803466Y450826D01*
X803586Y450718D01*
X803710Y450613D01*
X803836Y450511D01*
X803964Y450411D01*
X804095Y450315D01*
X804228Y450223D01*
X804363Y450133D01*
X804501Y450047D01*
X804640Y449964D01*
X804781Y449885D01*
X804925Y449809D01*
X805070Y449737D01*
X805217Y449668D01*
X805365Y449602D01*
X805515Y449541D01*
X805667Y449483D01*
X805820Y449429D01*
X805974Y449378D01*
X806129Y449331D01*
X806285Y449289D01*
X806443Y449249D01*
X806601Y449214D01*
X806760Y449183D01*
X806920Y449155D01*
X807081Y449132D01*
X807242Y449112D01*
X807403Y449096D01*
X807565Y449084D01*
X807727Y449076D01*
X807889Y449072D01*
X808051Y449072D01*
X808213Y449076D01*
X808375Y449084D01*
X808537Y449096D01*
X808698Y449112D01*
X808859Y449132D01*
X809020Y449155D01*
X809180Y449183D01*
X809339Y449214D01*
X809497Y449249D01*
X809655Y449289D01*
X809811Y449331D01*
X809966Y449378D01*
X810120Y449429D01*
X810273Y449483D01*
X810425Y449541D01*
X810575Y449602D01*
X810723Y449668D01*
X810870Y449737D01*
X811015Y449809D01*
X811159Y449885D01*
X811300Y449964D01*
X811439Y450047D01*
X811577Y450133D01*
X811712Y450223D01*
X811845Y450315D01*
X811976Y450411D01*
X812104Y450511D01*
X812230Y450613D01*
X812354Y450718D01*
X812474Y450826D01*
X812593Y450937D01*
X812708Y451051D01*
X812820Y451168D01*
X812930Y451288D01*
X813037Y451410D01*
X813141Y451534D01*
X813241Y451662D01*
X813339Y451791D01*
X813433Y451923D01*
X813524Y452057D01*
X813612Y452194D01*
X813697Y452332D01*
X813778Y452472D01*
X813855Y452615D01*
X813930Y452759D01*
X814000Y452905D01*
X814067Y453053D01*
X814131Y453202D01*
X814191Y453353D01*
X814247Y453505D01*
X814299Y453659D01*
X814348Y453813D01*
X814392Y453969D01*
X814433Y454126D01*
X814471Y454284D01*
X814504Y454443D01*
X814533Y454602D01*
X814559Y454762D01*
X814581Y454923D01*
X814598Y455084D01*
X814612Y455246D01*
X814622Y455408D01*
X814628Y455570D01*
X814630Y455732D01*
D11*
X485168Y1138555D02*
X484096Y1138555D01*
X485168Y1138555D02*
X485233Y1138557D01*
X485297Y1138563D01*
X485361Y1138573D01*
X485425Y1138586D01*
X485487Y1138604D01*
X485548Y1138625D01*
X485608Y1138649D01*
X485666Y1138678D01*
X485723Y1138710D01*
X485777Y1138745D01*
X485829Y1138783D01*
X485879Y1138825D01*
X485926Y1138869D01*
X485970Y1138916D01*
X486012Y1138966D01*
X486050Y1139018D01*
X486085Y1139072D01*
X486117Y1139129D01*
X486146Y1139187D01*
X486170Y1139247D01*
X486191Y1139308D01*
X486209Y1139370D01*
X486222Y1139434D01*
X486232Y1139498D01*
X486238Y1139562D01*
X486240Y1139627D01*
X486241Y1139627D02*
X486241Y1142309D01*
X486240Y1142309D02*
X486238Y1142374D01*
X486232Y1142438D01*
X486222Y1142502D01*
X486209Y1142566D01*
X486191Y1142628D01*
X486170Y1142689D01*
X486146Y1142749D01*
X486117Y1142807D01*
X486085Y1142864D01*
X486050Y1142918D01*
X486012Y1142970D01*
X485970Y1143020D01*
X485926Y1143067D01*
X485879Y1143111D01*
X485829Y1143153D01*
X485777Y1143191D01*
X485723Y1143226D01*
X485666Y1143258D01*
X485608Y1143287D01*
X485548Y1143311D01*
X485487Y1143332D01*
X485425Y1143350D01*
X485361Y1143363D01*
X485297Y1143373D01*
X485233Y1143379D01*
X485168Y1143381D01*
X484096Y1143381D01*
X481640Y1142309D02*
X480300Y1143381D01*
X480300Y1138555D01*
X481640Y1138555D02*
X478959Y1138555D01*
X139319Y430304D02*
X139319Y429232D01*
X139321Y429167D01*
X139327Y429103D01*
X139337Y429039D01*
X139350Y428975D01*
X139368Y428913D01*
X139389Y428852D01*
X139413Y428792D01*
X139442Y428734D01*
X139474Y428677D01*
X139509Y428623D01*
X139547Y428571D01*
X139589Y428521D01*
X139633Y428474D01*
X139680Y428430D01*
X139730Y428388D01*
X139782Y428350D01*
X139836Y428315D01*
X139893Y428283D01*
X139951Y428254D01*
X140011Y428230D01*
X140072Y428209D01*
X140134Y428191D01*
X140198Y428178D01*
X140262Y428168D01*
X140326Y428162D01*
X140391Y428160D01*
X140391Y428159D02*
X143073Y428159D01*
X143073Y428160D02*
X143138Y428162D01*
X143202Y428168D01*
X143266Y428178D01*
X143330Y428191D01*
X143392Y428209D01*
X143453Y428230D01*
X143513Y428254D01*
X143571Y428283D01*
X143628Y428315D01*
X143682Y428350D01*
X143734Y428388D01*
X143784Y428430D01*
X143831Y428474D01*
X143875Y428521D01*
X143917Y428571D01*
X143955Y428623D01*
X143990Y428677D01*
X144022Y428734D01*
X144051Y428792D01*
X144075Y428852D01*
X144096Y428913D01*
X144114Y428975D01*
X144127Y429039D01*
X144137Y429103D01*
X144143Y429167D01*
X144145Y429232D01*
X144145Y430304D01*
X144145Y434234D02*
X144143Y434302D01*
X144137Y434369D01*
X144128Y434436D01*
X144115Y434503D01*
X144098Y434568D01*
X144077Y434633D01*
X144053Y434696D01*
X144025Y434758D01*
X143994Y434818D01*
X143960Y434876D01*
X143922Y434932D01*
X143882Y434987D01*
X143838Y435038D01*
X143791Y435087D01*
X143742Y435134D01*
X143691Y435178D01*
X143636Y435218D01*
X143580Y435256D01*
X143522Y435290D01*
X143462Y435321D01*
X143400Y435349D01*
X143337Y435373D01*
X143272Y435394D01*
X143207Y435411D01*
X143140Y435424D01*
X143073Y435433D01*
X143006Y435439D01*
X142938Y435441D01*
X144145Y434234D02*
X144143Y434156D01*
X144137Y434078D01*
X144127Y434001D01*
X144114Y433924D01*
X144096Y433848D01*
X144075Y433773D01*
X144050Y433699D01*
X144021Y433627D01*
X143989Y433556D01*
X143953Y433487D01*
X143914Y433419D01*
X143871Y433354D01*
X143825Y433291D01*
X143776Y433230D01*
X143724Y433172D01*
X143669Y433117D01*
X143612Y433064D01*
X143552Y433015D01*
X143489Y432968D01*
X143424Y432925D01*
X143358Y432885D01*
X143289Y432848D01*
X143218Y432815D01*
X143146Y432785D01*
X143073Y432759D01*
X142000Y435039D02*
X142049Y435088D01*
X142101Y435135D01*
X142156Y435178D01*
X142213Y435219D01*
X142272Y435257D01*
X142333Y435291D01*
X142396Y435322D01*
X142460Y435350D01*
X142526Y435374D01*
X142592Y435394D01*
X142660Y435411D01*
X142729Y435424D01*
X142798Y435433D01*
X142868Y435439D01*
X142938Y435441D01*
X142000Y435039D02*
X139319Y432760D01*
X139319Y435441D01*
X145500Y818600D02*
X145500Y843600D01*
X145500Y818600D02*
X235500Y818600D01*
X235500Y843600D01*
X235500Y883600D02*
X235500Y908600D01*
X145500Y908600D01*
X145500Y883600D01*
D12*
X138000Y838600D02*
X138002Y838677D01*
X138008Y838754D01*
X138018Y838831D01*
X138032Y838907D01*
X138049Y838982D01*
X138071Y839056D01*
X138096Y839129D01*
X138126Y839201D01*
X138158Y839271D01*
X138195Y839339D01*
X138234Y839405D01*
X138277Y839469D01*
X138324Y839531D01*
X138373Y839590D01*
X138426Y839647D01*
X138481Y839701D01*
X138539Y839752D01*
X138600Y839800D01*
X138663Y839845D01*
X138728Y839886D01*
X138795Y839924D01*
X138864Y839959D01*
X138935Y839989D01*
X139007Y840017D01*
X139081Y840040D01*
X139155Y840060D01*
X139231Y840076D01*
X139307Y840088D01*
X139384Y840096D01*
X139461Y840100D01*
X139539Y840100D01*
X139616Y840096D01*
X139693Y840088D01*
X139769Y840076D01*
X139845Y840060D01*
X139919Y840040D01*
X139993Y840017D01*
X140065Y839989D01*
X140136Y839959D01*
X140205Y839924D01*
X140272Y839886D01*
X140337Y839845D01*
X140400Y839800D01*
X140461Y839752D01*
X140519Y839701D01*
X140574Y839647D01*
X140627Y839590D01*
X140676Y839531D01*
X140723Y839469D01*
X140766Y839405D01*
X140805Y839339D01*
X140842Y839271D01*
X140874Y839201D01*
X140904Y839129D01*
X140929Y839056D01*
X140951Y838982D01*
X140968Y838907D01*
X140982Y838831D01*
X140992Y838754D01*
X140998Y838677D01*
X141000Y838600D01*
X140998Y838523D01*
X140992Y838446D01*
X140982Y838369D01*
X140968Y838293D01*
X140951Y838218D01*
X140929Y838144D01*
X140904Y838071D01*
X140874Y837999D01*
X140842Y837929D01*
X140805Y837861D01*
X140766Y837795D01*
X140723Y837731D01*
X140676Y837669D01*
X140627Y837610D01*
X140574Y837553D01*
X140519Y837499D01*
X140461Y837448D01*
X140400Y837400D01*
X140337Y837355D01*
X140272Y837314D01*
X140205Y837276D01*
X140136Y837241D01*
X140065Y837211D01*
X139993Y837183D01*
X139919Y837160D01*
X139845Y837140D01*
X139769Y837124D01*
X139693Y837112D01*
X139616Y837104D01*
X139539Y837100D01*
X139461Y837100D01*
X139384Y837104D01*
X139307Y837112D01*
X139231Y837124D01*
X139155Y837140D01*
X139081Y837160D01*
X139007Y837183D01*
X138935Y837211D01*
X138864Y837241D01*
X138795Y837276D01*
X138728Y837314D01*
X138663Y837355D01*
X138600Y837400D01*
X138539Y837448D01*
X138481Y837499D01*
X138426Y837553D01*
X138373Y837610D01*
X138324Y837669D01*
X138277Y837731D01*
X138234Y837795D01*
X138195Y837861D01*
X138158Y837929D01*
X138126Y837999D01*
X138096Y838071D01*
X138071Y838144D01*
X138049Y838218D01*
X138032Y838293D01*
X138018Y838369D01*
X138008Y838446D01*
X138002Y838523D01*
X138000Y838600D01*
D13*
X191012Y814185D02*
X191012Y802473D01*
X191012Y814185D02*
X187759Y814185D01*
X187647Y814183D01*
X187535Y814177D01*
X187423Y814168D01*
X187311Y814154D01*
X187200Y814137D01*
X187090Y814115D01*
X186981Y814090D01*
X186872Y814062D01*
X186764Y814029D01*
X186658Y813993D01*
X186553Y813953D01*
X186450Y813910D01*
X186348Y813863D01*
X186247Y813812D01*
X186149Y813758D01*
X186052Y813701D01*
X185958Y813641D01*
X185865Y813577D01*
X185775Y813510D01*
X185687Y813440D01*
X185602Y813367D01*
X185519Y813291D01*
X185439Y813212D01*
X185362Y813131D01*
X185287Y813047D01*
X185216Y812960D01*
X185147Y812871D01*
X185082Y812780D01*
X185020Y812686D01*
X184961Y812591D01*
X184905Y812493D01*
X184853Y812394D01*
X184804Y812293D01*
X184759Y812190D01*
X184717Y812086D01*
X184679Y811980D01*
X184645Y811873D01*
X184614Y811765D01*
X184588Y811656D01*
X184564Y811546D01*
X184545Y811435D01*
X184530Y811324D01*
X184518Y811212D01*
X184510Y811100D01*
X184506Y810988D01*
X184506Y810876D01*
X184510Y810764D01*
X184518Y810652D01*
X184530Y810540D01*
X184545Y810429D01*
X184564Y810318D01*
X184588Y810208D01*
X184614Y810099D01*
X184645Y809991D01*
X184679Y809884D01*
X184717Y809778D01*
X184759Y809674D01*
X184804Y809571D01*
X184853Y809470D01*
X184905Y809371D01*
X184961Y809273D01*
X185020Y809178D01*
X185082Y809084D01*
X185147Y808993D01*
X185216Y808904D01*
X185287Y808817D01*
X185362Y808733D01*
X185439Y808652D01*
X185519Y808573D01*
X185602Y808497D01*
X185687Y808424D01*
X185775Y808354D01*
X185865Y808287D01*
X185958Y808223D01*
X186052Y808163D01*
X186149Y808106D01*
X186247Y808052D01*
X186348Y808001D01*
X186450Y807954D01*
X186553Y807911D01*
X186658Y807871D01*
X186764Y807835D01*
X186872Y807802D01*
X186981Y807774D01*
X187090Y807749D01*
X187200Y807727D01*
X187311Y807710D01*
X187423Y807696D01*
X187535Y807687D01*
X187647Y807681D01*
X187759Y807679D01*
X191012Y807679D01*
X179146Y802473D02*
X179146Y814185D01*
X180447Y802473D02*
X177845Y802473D01*
X177845Y814185D02*
X180447Y814185D01*
X172831Y802473D02*
X167626Y802473D01*
X172831Y802473D02*
X172831Y814185D01*
X167626Y814185D01*
X168927Y808980D02*
X172831Y808980D01*
X163690Y814185D02*
X157183Y814185D01*
X163690Y802473D01*
X157183Y802473D01*
X152616Y805727D02*
X152616Y810932D01*
X152614Y811044D01*
X152608Y811156D01*
X152599Y811268D01*
X152585Y811380D01*
X152568Y811491D01*
X152546Y811601D01*
X152521Y811710D01*
X152493Y811819D01*
X152460Y811927D01*
X152424Y812033D01*
X152384Y812138D01*
X152341Y812241D01*
X152294Y812343D01*
X152243Y812444D01*
X152189Y812542D01*
X152132Y812639D01*
X152072Y812733D01*
X152008Y812826D01*
X151941Y812916D01*
X151871Y813004D01*
X151798Y813089D01*
X151722Y813172D01*
X151643Y813252D01*
X151562Y813329D01*
X151478Y813404D01*
X151391Y813475D01*
X151302Y813544D01*
X151211Y813609D01*
X151117Y813671D01*
X151022Y813730D01*
X150924Y813786D01*
X150825Y813838D01*
X150724Y813887D01*
X150621Y813932D01*
X150517Y813974D01*
X150411Y814012D01*
X150304Y814046D01*
X150196Y814077D01*
X150087Y814103D01*
X149977Y814127D01*
X149866Y814146D01*
X149755Y814161D01*
X149643Y814173D01*
X149531Y814181D01*
X149419Y814185D01*
X149307Y814185D01*
X149195Y814181D01*
X149083Y814173D01*
X148971Y814161D01*
X148860Y814146D01*
X148749Y814127D01*
X148639Y814103D01*
X148530Y814077D01*
X148422Y814046D01*
X148315Y814012D01*
X148209Y813974D01*
X148105Y813932D01*
X148002Y813887D01*
X147901Y813838D01*
X147802Y813786D01*
X147704Y813730D01*
X147609Y813671D01*
X147515Y813609D01*
X147424Y813544D01*
X147335Y813475D01*
X147248Y813404D01*
X147164Y813329D01*
X147083Y813252D01*
X147004Y813172D01*
X146928Y813089D01*
X146855Y813004D01*
X146785Y812916D01*
X146718Y812826D01*
X146654Y812733D01*
X146594Y812639D01*
X146537Y812542D01*
X146483Y812444D01*
X146432Y812343D01*
X146385Y812241D01*
X146342Y812138D01*
X146302Y812033D01*
X146266Y811927D01*
X146233Y811819D01*
X146205Y811710D01*
X146180Y811601D01*
X146158Y811491D01*
X146141Y811380D01*
X146127Y811268D01*
X146118Y811156D01*
X146112Y811044D01*
X146110Y810932D01*
X146110Y805727D01*
X146112Y805615D01*
X146118Y805503D01*
X146127Y805391D01*
X146141Y805279D01*
X146158Y805168D01*
X146180Y805058D01*
X146205Y804949D01*
X146233Y804840D01*
X146266Y804732D01*
X146302Y804626D01*
X146342Y804521D01*
X146385Y804418D01*
X146432Y804316D01*
X146483Y804215D01*
X146537Y804117D01*
X146594Y804020D01*
X146654Y803926D01*
X146718Y803833D01*
X146785Y803743D01*
X146855Y803655D01*
X146928Y803570D01*
X147004Y803487D01*
X147083Y803407D01*
X147164Y803330D01*
X147248Y803255D01*
X147335Y803184D01*
X147424Y803115D01*
X147515Y803050D01*
X147609Y802988D01*
X147704Y802929D01*
X147802Y802873D01*
X147901Y802821D01*
X148002Y802772D01*
X148105Y802727D01*
X148209Y802685D01*
X148315Y802647D01*
X148422Y802613D01*
X148530Y802582D01*
X148639Y802556D01*
X148749Y802532D01*
X148860Y802513D01*
X148971Y802498D01*
X149083Y802486D01*
X149195Y802478D01*
X149307Y802474D01*
X149419Y802474D01*
X149531Y802478D01*
X149643Y802486D01*
X149755Y802498D01*
X149866Y802513D01*
X149977Y802532D01*
X150087Y802556D01*
X150196Y802582D01*
X150304Y802613D01*
X150411Y802647D01*
X150517Y802685D01*
X150621Y802727D01*
X150724Y802772D01*
X150825Y802821D01*
X150924Y802873D01*
X151022Y802929D01*
X151117Y802988D01*
X151211Y803050D01*
X151302Y803115D01*
X151391Y803184D01*
X151478Y803255D01*
X151562Y803330D01*
X151643Y803407D01*
X151722Y803487D01*
X151798Y803570D01*
X151871Y803655D01*
X151941Y803743D01*
X152008Y803833D01*
X152072Y803926D01*
X152132Y804020D01*
X152189Y804117D01*
X152243Y804215D01*
X152294Y804316D01*
X152341Y804418D01*
X152384Y804521D01*
X152424Y804626D01*
X152460Y804732D01*
X152493Y804840D01*
X152521Y804949D01*
X152546Y805058D01*
X152568Y805168D01*
X152585Y805279D01*
X152599Y805391D01*
X152608Y805503D01*
X152614Y805615D01*
X152616Y805727D01*
D11*
X689852Y737235D02*
X689852Y732409D01*
X689852Y737235D02*
X688511Y737235D01*
X688440Y737233D01*
X688368Y737227D01*
X688298Y737218D01*
X688228Y737205D01*
X688158Y737188D01*
X688090Y737167D01*
X688023Y737143D01*
X687957Y737115D01*
X687893Y737084D01*
X687830Y737049D01*
X687770Y737011D01*
X687711Y736970D01*
X687655Y736926D01*
X687601Y736879D01*
X687550Y736830D01*
X687502Y736777D01*
X687456Y736722D01*
X687414Y736665D01*
X687374Y736605D01*
X687338Y736544D01*
X687305Y736480D01*
X687276Y736415D01*
X687250Y736349D01*
X687227Y736281D01*
X687208Y736212D01*
X687193Y736142D01*
X687182Y736072D01*
X687174Y736001D01*
X687170Y735930D01*
X687170Y735858D01*
X687174Y735787D01*
X687182Y735716D01*
X687193Y735646D01*
X687208Y735576D01*
X687227Y735507D01*
X687250Y735439D01*
X687276Y735373D01*
X687305Y735308D01*
X687338Y735244D01*
X687374Y735183D01*
X687414Y735123D01*
X687456Y735066D01*
X687502Y735011D01*
X687550Y734958D01*
X687601Y734909D01*
X687655Y734862D01*
X687711Y734818D01*
X687770Y734777D01*
X687830Y734739D01*
X687893Y734704D01*
X687957Y734673D01*
X688023Y734645D01*
X688090Y734621D01*
X688158Y734600D01*
X688228Y734583D01*
X688298Y734570D01*
X688368Y734561D01*
X688440Y734555D01*
X688511Y734553D01*
X688511Y734554D02*
X689852Y734554D01*
X688243Y734554D02*
X687171Y732409D01*
X684429Y736163D02*
X683089Y737235D01*
X683089Y732409D01*
X684429Y732409D02*
X681748Y732409D01*
X229235Y399605D02*
X224409Y399605D01*
X229235Y399605D02*
X229235Y400945D01*
X229233Y401016D01*
X229227Y401088D01*
X229218Y401158D01*
X229205Y401228D01*
X229188Y401298D01*
X229167Y401366D01*
X229143Y401433D01*
X229115Y401499D01*
X229084Y401563D01*
X229049Y401626D01*
X229011Y401686D01*
X228970Y401745D01*
X228926Y401801D01*
X228879Y401855D01*
X228830Y401906D01*
X228777Y401954D01*
X228722Y402000D01*
X228665Y402042D01*
X228605Y402082D01*
X228544Y402118D01*
X228480Y402151D01*
X228415Y402180D01*
X228349Y402206D01*
X228281Y402229D01*
X228212Y402248D01*
X228142Y402263D01*
X228072Y402274D01*
X228001Y402282D01*
X227930Y402286D01*
X227858Y402286D01*
X227787Y402282D01*
X227716Y402274D01*
X227646Y402263D01*
X227576Y402248D01*
X227507Y402229D01*
X227439Y402206D01*
X227373Y402180D01*
X227308Y402151D01*
X227244Y402118D01*
X227183Y402082D01*
X227123Y402042D01*
X227066Y402000D01*
X227011Y401954D01*
X226958Y401906D01*
X226909Y401855D01*
X226862Y401801D01*
X226818Y401745D01*
X226777Y401686D01*
X226739Y401626D01*
X226704Y401563D01*
X226673Y401499D01*
X226645Y401433D01*
X226621Y401366D01*
X226600Y401298D01*
X226583Y401228D01*
X226570Y401158D01*
X226561Y401088D01*
X226555Y401016D01*
X226553Y400945D01*
X226554Y400945D02*
X226554Y399605D01*
X226554Y401214D02*
X224409Y402286D01*
X228163Y405028D02*
X229235Y406368D01*
X224409Y406368D01*
X224409Y405028D02*
X224409Y407709D01*
X226822Y410514D02*
X226942Y410516D01*
X227062Y410521D01*
X227182Y410530D01*
X227302Y410543D01*
X227421Y410559D01*
X227540Y410579D01*
X227658Y410603D01*
X227775Y410630D01*
X227891Y410660D01*
X228006Y410694D01*
X228121Y410732D01*
X228234Y410773D01*
X228345Y410817D01*
X228456Y410865D01*
X228565Y410916D01*
X228622Y410937D01*
X228678Y410963D01*
X228733Y410991D01*
X228785Y411023D01*
X228836Y411059D01*
X228884Y411097D01*
X228930Y411138D01*
X228973Y411182D01*
X229013Y411228D01*
X229050Y411277D01*
X229084Y411329D01*
X229115Y411382D01*
X229143Y411437D01*
X229167Y411493D01*
X229188Y411551D01*
X229205Y411610D01*
X229218Y411670D01*
X229227Y411731D01*
X229233Y411793D01*
X229235Y411854D01*
X229233Y411915D01*
X229227Y411977D01*
X229218Y412038D01*
X229205Y412098D01*
X229188Y412157D01*
X229167Y412215D01*
X229143Y412271D01*
X229115Y412326D01*
X229084Y412379D01*
X229050Y412431D01*
X229013Y412480D01*
X228973Y412526D01*
X228930Y412570D01*
X228884Y412611D01*
X228836Y412649D01*
X228785Y412685D01*
X228733Y412717D01*
X228678Y412745D01*
X228622Y412771D01*
X228565Y412792D01*
X228565Y412793D02*
X228456Y412844D01*
X228345Y412892D01*
X228234Y412936D01*
X228121Y412977D01*
X228006Y413015D01*
X227891Y413049D01*
X227775Y413079D01*
X227658Y413106D01*
X227540Y413130D01*
X227421Y413150D01*
X227302Y413166D01*
X227182Y413179D01*
X227062Y413188D01*
X226942Y413193D01*
X226822Y413195D01*
X226822Y410514D02*
X226702Y410516D01*
X226582Y410521D01*
X226462Y410530D01*
X226342Y410543D01*
X226223Y410559D01*
X226104Y410579D01*
X225986Y410603D01*
X225869Y410630D01*
X225753Y410660D01*
X225638Y410694D01*
X225523Y410732D01*
X225410Y410773D01*
X225299Y410817D01*
X225188Y410865D01*
X225079Y410916D01*
X225022Y410937D01*
X224966Y410963D01*
X224911Y410991D01*
X224859Y411023D01*
X224808Y411059D01*
X224760Y411097D01*
X224714Y411138D01*
X224671Y411182D01*
X224631Y411228D01*
X224594Y411277D01*
X224560Y411329D01*
X224529Y411382D01*
X224501Y411437D01*
X224477Y411493D01*
X224456Y411551D01*
X224439Y411610D01*
X224426Y411670D01*
X224417Y411731D01*
X224411Y411793D01*
X224409Y411854D01*
X225079Y412793D02*
X225188Y412844D01*
X225299Y412892D01*
X225410Y412936D01*
X225523Y412977D01*
X225638Y413015D01*
X225753Y413049D01*
X225869Y413079D01*
X225986Y413106D01*
X226104Y413130D01*
X226223Y413150D01*
X226342Y413166D01*
X226462Y413179D01*
X226582Y413188D01*
X226702Y413193D01*
X226822Y413195D01*
X225079Y412792D02*
X225022Y412771D01*
X224966Y412745D01*
X224911Y412717D01*
X224859Y412685D01*
X224808Y412649D01*
X224760Y412611D01*
X224714Y412570D01*
X224671Y412526D01*
X224631Y412479D01*
X224594Y412431D01*
X224560Y412379D01*
X224529Y412326D01*
X224501Y412271D01*
X224477Y412215D01*
X224456Y412157D01*
X224439Y412098D01*
X224426Y412038D01*
X224417Y411977D01*
X224411Y411915D01*
X224409Y411854D01*
X225481Y410782D02*
X228163Y412927D01*
X1070852Y745109D02*
X1070852Y749935D01*
X1069511Y749935D01*
X1069440Y749933D01*
X1069368Y749927D01*
X1069298Y749918D01*
X1069228Y749905D01*
X1069158Y749888D01*
X1069090Y749867D01*
X1069023Y749843D01*
X1068957Y749815D01*
X1068893Y749784D01*
X1068830Y749749D01*
X1068770Y749711D01*
X1068711Y749670D01*
X1068655Y749626D01*
X1068601Y749579D01*
X1068550Y749530D01*
X1068502Y749477D01*
X1068456Y749422D01*
X1068414Y749365D01*
X1068374Y749305D01*
X1068338Y749244D01*
X1068305Y749180D01*
X1068276Y749115D01*
X1068250Y749049D01*
X1068227Y748981D01*
X1068208Y748912D01*
X1068193Y748842D01*
X1068182Y748772D01*
X1068174Y748701D01*
X1068170Y748630D01*
X1068170Y748558D01*
X1068174Y748487D01*
X1068182Y748416D01*
X1068193Y748346D01*
X1068208Y748276D01*
X1068227Y748207D01*
X1068250Y748139D01*
X1068276Y748073D01*
X1068305Y748008D01*
X1068338Y747944D01*
X1068374Y747883D01*
X1068414Y747823D01*
X1068456Y747766D01*
X1068502Y747711D01*
X1068550Y747658D01*
X1068601Y747609D01*
X1068655Y747562D01*
X1068711Y747518D01*
X1068770Y747477D01*
X1068830Y747439D01*
X1068893Y747404D01*
X1068957Y747373D01*
X1069023Y747345D01*
X1069090Y747321D01*
X1069158Y747300D01*
X1069228Y747283D01*
X1069298Y747270D01*
X1069368Y747261D01*
X1069440Y747255D01*
X1069511Y747253D01*
X1069511Y747254D02*
X1070852Y747254D01*
X1069243Y747254D02*
X1068171Y745109D01*
X1063955Y749935D02*
X1063887Y749933D01*
X1063820Y749927D01*
X1063753Y749918D01*
X1063686Y749905D01*
X1063621Y749888D01*
X1063556Y749867D01*
X1063493Y749843D01*
X1063431Y749815D01*
X1063371Y749784D01*
X1063313Y749750D01*
X1063257Y749712D01*
X1063202Y749672D01*
X1063151Y749628D01*
X1063102Y749581D01*
X1063055Y749532D01*
X1063011Y749481D01*
X1062971Y749426D01*
X1062933Y749370D01*
X1062899Y749312D01*
X1062868Y749252D01*
X1062840Y749190D01*
X1062816Y749127D01*
X1062795Y749062D01*
X1062778Y748997D01*
X1062765Y748930D01*
X1062756Y748863D01*
X1062750Y748796D01*
X1062748Y748728D01*
X1063955Y749935D02*
X1064033Y749933D01*
X1064111Y749927D01*
X1064188Y749917D01*
X1064265Y749904D01*
X1064341Y749886D01*
X1064416Y749865D01*
X1064490Y749840D01*
X1064562Y749811D01*
X1064633Y749779D01*
X1064702Y749743D01*
X1064770Y749704D01*
X1064835Y749661D01*
X1064898Y749615D01*
X1064959Y749566D01*
X1065017Y749514D01*
X1065072Y749459D01*
X1065125Y749402D01*
X1065174Y749342D01*
X1065221Y749279D01*
X1065264Y749214D01*
X1065304Y749148D01*
X1065341Y749079D01*
X1065374Y749008D01*
X1065404Y748936D01*
X1065430Y748862D01*
X1063150Y747790D02*
X1063101Y747839D01*
X1063054Y747891D01*
X1063011Y747946D01*
X1062970Y748003D01*
X1062932Y748062D01*
X1062898Y748123D01*
X1062867Y748186D01*
X1062839Y748250D01*
X1062815Y748316D01*
X1062795Y748382D01*
X1062778Y748450D01*
X1062765Y748519D01*
X1062756Y748588D01*
X1062750Y748658D01*
X1062748Y748728D01*
X1063150Y747790D02*
X1065429Y745109D01*
X1062748Y745109D01*
X804291Y846848D02*
X799465Y846848D01*
X804291Y846848D02*
X804291Y848189D01*
X804289Y848260D01*
X804283Y848332D01*
X804274Y848402D01*
X804261Y848472D01*
X804244Y848542D01*
X804223Y848610D01*
X804199Y848677D01*
X804171Y848743D01*
X804140Y848807D01*
X804105Y848870D01*
X804067Y848930D01*
X804026Y848989D01*
X803982Y849045D01*
X803935Y849099D01*
X803886Y849150D01*
X803833Y849198D01*
X803778Y849244D01*
X803721Y849286D01*
X803661Y849326D01*
X803600Y849362D01*
X803536Y849395D01*
X803471Y849424D01*
X803405Y849450D01*
X803337Y849473D01*
X803268Y849492D01*
X803198Y849507D01*
X803128Y849518D01*
X803057Y849526D01*
X802986Y849530D01*
X802914Y849530D01*
X802843Y849526D01*
X802772Y849518D01*
X802702Y849507D01*
X802632Y849492D01*
X802563Y849473D01*
X802495Y849450D01*
X802429Y849424D01*
X802364Y849395D01*
X802300Y849362D01*
X802239Y849326D01*
X802179Y849286D01*
X802122Y849244D01*
X802067Y849198D01*
X802014Y849150D01*
X801965Y849099D01*
X801918Y849045D01*
X801874Y848989D01*
X801833Y848930D01*
X801795Y848870D01*
X801760Y848807D01*
X801729Y848743D01*
X801701Y848677D01*
X801677Y848610D01*
X801656Y848542D01*
X801639Y848472D01*
X801626Y848402D01*
X801617Y848332D01*
X801611Y848260D01*
X801609Y848189D01*
X801610Y848189D02*
X801610Y846848D01*
X801610Y848457D02*
X799465Y849529D01*
X799465Y852271D02*
X799465Y853611D01*
X799467Y853682D01*
X799473Y853754D01*
X799482Y853824D01*
X799495Y853894D01*
X799512Y853964D01*
X799533Y854032D01*
X799557Y854099D01*
X799585Y854165D01*
X799616Y854229D01*
X799651Y854292D01*
X799689Y854352D01*
X799730Y854411D01*
X799774Y854467D01*
X799821Y854521D01*
X799870Y854572D01*
X799923Y854620D01*
X799978Y854666D01*
X800035Y854708D01*
X800095Y854748D01*
X800156Y854784D01*
X800220Y854817D01*
X800285Y854846D01*
X800351Y854872D01*
X800419Y854895D01*
X800488Y854914D01*
X800558Y854929D01*
X800628Y854940D01*
X800699Y854948D01*
X800770Y854952D01*
X800842Y854952D01*
X800913Y854948D01*
X800984Y854940D01*
X801054Y854929D01*
X801124Y854914D01*
X801193Y854895D01*
X801261Y854872D01*
X801327Y854846D01*
X801392Y854817D01*
X801456Y854784D01*
X801517Y854748D01*
X801577Y854708D01*
X801634Y854666D01*
X801689Y854620D01*
X801742Y854572D01*
X801791Y854521D01*
X801838Y854467D01*
X801882Y854411D01*
X801923Y854352D01*
X801961Y854292D01*
X801996Y854229D01*
X802027Y854165D01*
X802055Y854099D01*
X802079Y854032D01*
X802100Y853964D01*
X802117Y853894D01*
X802130Y853824D01*
X802139Y853754D01*
X802145Y853682D01*
X802147Y853611D01*
X804291Y853879D02*
X804291Y852271D01*
X804291Y853879D02*
X804289Y853944D01*
X804283Y854008D01*
X804273Y854072D01*
X804260Y854136D01*
X804242Y854198D01*
X804221Y854259D01*
X804197Y854319D01*
X804168Y854377D01*
X804136Y854434D01*
X804101Y854488D01*
X804063Y854540D01*
X804021Y854590D01*
X803977Y854637D01*
X803930Y854681D01*
X803880Y854723D01*
X803828Y854761D01*
X803774Y854796D01*
X803717Y854828D01*
X803659Y854857D01*
X803599Y854881D01*
X803538Y854902D01*
X803476Y854920D01*
X803412Y854933D01*
X803348Y854943D01*
X803284Y854949D01*
X803219Y854951D01*
X803154Y854949D01*
X803090Y854943D01*
X803026Y854933D01*
X802962Y854920D01*
X802900Y854902D01*
X802839Y854881D01*
X802779Y854857D01*
X802721Y854828D01*
X802664Y854796D01*
X802610Y854761D01*
X802558Y854723D01*
X802508Y854681D01*
X802461Y854637D01*
X802417Y854590D01*
X802375Y854540D01*
X802337Y854488D01*
X802302Y854434D01*
X802270Y854377D01*
X802241Y854319D01*
X802217Y854259D01*
X802196Y854198D01*
X802178Y854136D01*
X802165Y854072D01*
X802155Y854008D01*
X802149Y853944D01*
X802147Y853879D01*
X802146Y853879D02*
X802146Y852807D01*
X880352Y559435D02*
X880352Y554609D01*
X880352Y559435D02*
X879011Y559435D01*
X878940Y559433D01*
X878868Y559427D01*
X878798Y559418D01*
X878728Y559405D01*
X878658Y559388D01*
X878590Y559367D01*
X878523Y559343D01*
X878457Y559315D01*
X878393Y559284D01*
X878330Y559249D01*
X878270Y559211D01*
X878211Y559170D01*
X878155Y559126D01*
X878101Y559079D01*
X878050Y559030D01*
X878002Y558977D01*
X877956Y558922D01*
X877914Y558865D01*
X877874Y558805D01*
X877838Y558744D01*
X877805Y558680D01*
X877776Y558615D01*
X877750Y558549D01*
X877727Y558481D01*
X877708Y558412D01*
X877693Y558342D01*
X877682Y558272D01*
X877674Y558201D01*
X877670Y558130D01*
X877670Y558058D01*
X877674Y557987D01*
X877682Y557916D01*
X877693Y557846D01*
X877708Y557776D01*
X877727Y557707D01*
X877750Y557639D01*
X877776Y557573D01*
X877805Y557508D01*
X877838Y557444D01*
X877874Y557383D01*
X877914Y557323D01*
X877956Y557266D01*
X878002Y557211D01*
X878050Y557158D01*
X878101Y557109D01*
X878155Y557062D01*
X878211Y557018D01*
X878270Y556977D01*
X878330Y556939D01*
X878393Y556904D01*
X878457Y556873D01*
X878523Y556845D01*
X878590Y556821D01*
X878658Y556800D01*
X878728Y556783D01*
X878798Y556770D01*
X878868Y556761D01*
X878940Y556755D01*
X879011Y556753D01*
X879011Y556754D02*
X880352Y556754D01*
X878743Y556754D02*
X877671Y554609D01*
X874929Y555681D02*
X873857Y559435D01*
X874929Y555681D02*
X872248Y555681D01*
X873052Y556754D02*
X873052Y554609D01*
X512052Y1091819D02*
X512052Y1096645D01*
X510711Y1096645D01*
X510640Y1096643D01*
X510568Y1096637D01*
X510498Y1096628D01*
X510428Y1096615D01*
X510358Y1096598D01*
X510290Y1096577D01*
X510223Y1096553D01*
X510157Y1096525D01*
X510093Y1096494D01*
X510030Y1096459D01*
X509970Y1096421D01*
X509911Y1096380D01*
X509855Y1096336D01*
X509801Y1096289D01*
X509750Y1096240D01*
X509702Y1096187D01*
X509656Y1096132D01*
X509614Y1096075D01*
X509574Y1096015D01*
X509538Y1095954D01*
X509505Y1095890D01*
X509476Y1095825D01*
X509450Y1095759D01*
X509427Y1095691D01*
X509408Y1095622D01*
X509393Y1095552D01*
X509382Y1095482D01*
X509374Y1095411D01*
X509370Y1095340D01*
X509370Y1095268D01*
X509374Y1095197D01*
X509382Y1095126D01*
X509393Y1095056D01*
X509408Y1094986D01*
X509427Y1094917D01*
X509450Y1094849D01*
X509476Y1094783D01*
X509505Y1094718D01*
X509538Y1094654D01*
X509574Y1094593D01*
X509614Y1094533D01*
X509656Y1094476D01*
X509702Y1094421D01*
X509750Y1094368D01*
X509801Y1094319D01*
X509855Y1094272D01*
X509911Y1094228D01*
X509970Y1094187D01*
X510030Y1094149D01*
X510093Y1094114D01*
X510157Y1094083D01*
X510223Y1094055D01*
X510290Y1094031D01*
X510358Y1094010D01*
X510428Y1093993D01*
X510498Y1093980D01*
X510568Y1093971D01*
X510640Y1093965D01*
X510711Y1093963D01*
X510711Y1093964D02*
X512052Y1093964D01*
X510443Y1093964D02*
X509371Y1091819D01*
X506629Y1091819D02*
X505021Y1091819D01*
X504956Y1091821D01*
X504892Y1091827D01*
X504828Y1091837D01*
X504764Y1091850D01*
X504702Y1091868D01*
X504641Y1091889D01*
X504581Y1091913D01*
X504523Y1091942D01*
X504466Y1091974D01*
X504412Y1092009D01*
X504360Y1092047D01*
X504310Y1092089D01*
X504263Y1092133D01*
X504219Y1092180D01*
X504177Y1092230D01*
X504139Y1092282D01*
X504104Y1092336D01*
X504072Y1092393D01*
X504043Y1092451D01*
X504019Y1092511D01*
X503998Y1092572D01*
X503980Y1092634D01*
X503967Y1092698D01*
X503957Y1092762D01*
X503951Y1092826D01*
X503949Y1092891D01*
X503948Y1092891D02*
X503948Y1093428D01*
X503949Y1093428D02*
X503951Y1093493D01*
X503957Y1093557D01*
X503967Y1093621D01*
X503980Y1093685D01*
X503998Y1093747D01*
X504019Y1093808D01*
X504043Y1093868D01*
X504072Y1093926D01*
X504104Y1093983D01*
X504139Y1094037D01*
X504177Y1094089D01*
X504219Y1094139D01*
X504263Y1094186D01*
X504310Y1094230D01*
X504360Y1094272D01*
X504412Y1094310D01*
X504466Y1094345D01*
X504523Y1094377D01*
X504581Y1094406D01*
X504641Y1094430D01*
X504702Y1094451D01*
X504764Y1094469D01*
X504828Y1094482D01*
X504892Y1094492D01*
X504956Y1094498D01*
X505021Y1094500D01*
X506629Y1094500D01*
X506629Y1096645D01*
X503948Y1096645D01*
X562852Y1113155D02*
X562852Y1117981D01*
X561511Y1117981D01*
X561440Y1117979D01*
X561368Y1117973D01*
X561298Y1117964D01*
X561228Y1117951D01*
X561158Y1117934D01*
X561090Y1117913D01*
X561023Y1117889D01*
X560957Y1117861D01*
X560893Y1117830D01*
X560830Y1117795D01*
X560770Y1117757D01*
X560711Y1117716D01*
X560655Y1117672D01*
X560601Y1117625D01*
X560550Y1117576D01*
X560502Y1117523D01*
X560456Y1117468D01*
X560414Y1117411D01*
X560374Y1117351D01*
X560338Y1117290D01*
X560305Y1117226D01*
X560276Y1117161D01*
X560250Y1117095D01*
X560227Y1117027D01*
X560208Y1116958D01*
X560193Y1116888D01*
X560182Y1116818D01*
X560174Y1116747D01*
X560170Y1116676D01*
X560170Y1116604D01*
X560174Y1116533D01*
X560182Y1116462D01*
X560193Y1116392D01*
X560208Y1116322D01*
X560227Y1116253D01*
X560250Y1116185D01*
X560276Y1116119D01*
X560305Y1116054D01*
X560338Y1115990D01*
X560374Y1115929D01*
X560414Y1115869D01*
X560456Y1115812D01*
X560502Y1115757D01*
X560550Y1115704D01*
X560601Y1115655D01*
X560655Y1115608D01*
X560711Y1115564D01*
X560770Y1115523D01*
X560830Y1115485D01*
X560893Y1115450D01*
X560957Y1115419D01*
X561023Y1115391D01*
X561090Y1115367D01*
X561158Y1115346D01*
X561228Y1115329D01*
X561298Y1115316D01*
X561368Y1115307D01*
X561440Y1115301D01*
X561511Y1115299D01*
X561511Y1115300D02*
X562852Y1115300D01*
X561243Y1115300D02*
X560171Y1113155D01*
X557429Y1115836D02*
X555821Y1115836D01*
X555756Y1115834D01*
X555692Y1115828D01*
X555628Y1115818D01*
X555564Y1115805D01*
X555502Y1115787D01*
X555441Y1115766D01*
X555381Y1115742D01*
X555323Y1115713D01*
X555266Y1115681D01*
X555212Y1115646D01*
X555160Y1115608D01*
X555110Y1115566D01*
X555063Y1115522D01*
X555019Y1115475D01*
X554977Y1115425D01*
X554939Y1115373D01*
X554904Y1115319D01*
X554872Y1115262D01*
X554843Y1115204D01*
X554819Y1115144D01*
X554798Y1115083D01*
X554780Y1115021D01*
X554767Y1114957D01*
X554757Y1114893D01*
X554751Y1114829D01*
X554749Y1114764D01*
X554748Y1114764D02*
X554748Y1114496D01*
X554750Y1114425D01*
X554756Y1114353D01*
X554765Y1114283D01*
X554778Y1114213D01*
X554795Y1114143D01*
X554816Y1114075D01*
X554840Y1114008D01*
X554868Y1113942D01*
X554899Y1113878D01*
X554934Y1113815D01*
X554972Y1113755D01*
X555013Y1113696D01*
X555057Y1113640D01*
X555104Y1113586D01*
X555153Y1113535D01*
X555206Y1113487D01*
X555261Y1113441D01*
X555318Y1113399D01*
X555378Y1113359D01*
X555439Y1113323D01*
X555503Y1113290D01*
X555568Y1113261D01*
X555634Y1113235D01*
X555702Y1113212D01*
X555771Y1113193D01*
X555841Y1113178D01*
X555911Y1113167D01*
X555982Y1113159D01*
X556053Y1113155D01*
X556125Y1113155D01*
X556196Y1113159D01*
X556267Y1113167D01*
X556337Y1113178D01*
X556407Y1113193D01*
X556476Y1113212D01*
X556544Y1113235D01*
X556610Y1113261D01*
X556675Y1113290D01*
X556739Y1113323D01*
X556800Y1113359D01*
X556860Y1113399D01*
X556917Y1113441D01*
X556972Y1113487D01*
X557025Y1113535D01*
X557074Y1113586D01*
X557121Y1113640D01*
X557165Y1113696D01*
X557206Y1113755D01*
X557244Y1113815D01*
X557279Y1113878D01*
X557310Y1113942D01*
X557338Y1114008D01*
X557362Y1114075D01*
X557383Y1114143D01*
X557400Y1114213D01*
X557413Y1114283D01*
X557422Y1114353D01*
X557428Y1114425D01*
X557430Y1114496D01*
X557429Y1114496D02*
X557429Y1115836D01*
X557427Y1115927D01*
X557421Y1116018D01*
X557412Y1116108D01*
X557398Y1116199D01*
X557381Y1116288D01*
X557360Y1116376D01*
X557335Y1116464D01*
X557306Y1116551D01*
X557274Y1116636D01*
X557239Y1116720D01*
X557199Y1116802D01*
X557157Y1116882D01*
X557111Y1116961D01*
X557061Y1117037D01*
X557009Y1117111D01*
X556953Y1117184D01*
X556894Y1117253D01*
X556833Y1117320D01*
X556768Y1117385D01*
X556701Y1117446D01*
X556632Y1117505D01*
X556559Y1117561D01*
X556485Y1117613D01*
X556409Y1117663D01*
X556330Y1117709D01*
X556250Y1117751D01*
X556168Y1117791D01*
X556084Y1117826D01*
X555999Y1117858D01*
X555912Y1117887D01*
X555824Y1117912D01*
X555736Y1117933D01*
X555647Y1117950D01*
X555556Y1117964D01*
X555466Y1117973D01*
X555375Y1117979D01*
X555284Y1117981D01*
D13*
X189992Y756345D02*
X178308Y756345D01*
X189992Y756345D02*
X189992Y759590D01*
X189990Y759703D01*
X189984Y759816D01*
X189974Y759929D01*
X189960Y760042D01*
X189943Y760154D01*
X189921Y760265D01*
X189896Y760375D01*
X189866Y760485D01*
X189833Y760593D01*
X189796Y760700D01*
X189756Y760806D01*
X189711Y760910D01*
X189663Y761013D01*
X189612Y761114D01*
X189557Y761213D01*
X189499Y761310D01*
X189437Y761405D01*
X189372Y761498D01*
X189304Y761588D01*
X189233Y761676D01*
X189158Y761762D01*
X189081Y761845D01*
X189001Y761925D01*
X188918Y762002D01*
X188832Y762077D01*
X188744Y762148D01*
X188654Y762216D01*
X188561Y762281D01*
X188466Y762343D01*
X188369Y762401D01*
X188270Y762456D01*
X188169Y762507D01*
X188066Y762555D01*
X187962Y762600D01*
X187856Y762640D01*
X187749Y762677D01*
X187641Y762710D01*
X187531Y762740D01*
X187421Y762765D01*
X187310Y762787D01*
X187198Y762804D01*
X187085Y762818D01*
X186972Y762828D01*
X186859Y762834D01*
X186746Y762836D01*
X186633Y762834D01*
X186520Y762828D01*
X186407Y762818D01*
X186294Y762804D01*
X186182Y762787D01*
X186071Y762765D01*
X185961Y762740D01*
X185851Y762710D01*
X185743Y762677D01*
X185636Y762640D01*
X185530Y762600D01*
X185426Y762555D01*
X185323Y762507D01*
X185222Y762456D01*
X185123Y762401D01*
X185026Y762343D01*
X184931Y762281D01*
X184838Y762216D01*
X184748Y762148D01*
X184660Y762077D01*
X184574Y762002D01*
X184491Y761925D01*
X184411Y761845D01*
X184334Y761762D01*
X184259Y761676D01*
X184188Y761588D01*
X184120Y761498D01*
X184055Y761405D01*
X183993Y761310D01*
X183935Y761213D01*
X183880Y761114D01*
X183829Y761013D01*
X183781Y760910D01*
X183736Y760806D01*
X183696Y760700D01*
X183659Y760593D01*
X183626Y760485D01*
X183596Y760375D01*
X183571Y760265D01*
X183549Y760154D01*
X183532Y760042D01*
X183518Y759929D01*
X183508Y759816D01*
X183502Y759703D01*
X183500Y759590D01*
X183501Y759590D02*
X183501Y756345D01*
X183501Y760239D02*
X178308Y762836D01*
X188694Y767701D02*
X189992Y767701D01*
X189992Y774192D01*
X178308Y770946D01*
X648208Y870645D02*
X659892Y870645D01*
X659892Y873890D01*
X659890Y874003D01*
X659884Y874116D01*
X659874Y874229D01*
X659860Y874342D01*
X659843Y874454D01*
X659821Y874565D01*
X659796Y874675D01*
X659766Y874785D01*
X659733Y874893D01*
X659696Y875000D01*
X659656Y875106D01*
X659611Y875210D01*
X659563Y875313D01*
X659512Y875414D01*
X659457Y875513D01*
X659399Y875610D01*
X659337Y875705D01*
X659272Y875798D01*
X659204Y875888D01*
X659133Y875976D01*
X659058Y876062D01*
X658981Y876145D01*
X658901Y876225D01*
X658818Y876302D01*
X658732Y876377D01*
X658644Y876448D01*
X658554Y876516D01*
X658461Y876581D01*
X658366Y876643D01*
X658269Y876701D01*
X658170Y876756D01*
X658069Y876807D01*
X657966Y876855D01*
X657862Y876900D01*
X657756Y876940D01*
X657649Y876977D01*
X657541Y877010D01*
X657431Y877040D01*
X657321Y877065D01*
X657210Y877087D01*
X657098Y877104D01*
X656985Y877118D01*
X656872Y877128D01*
X656759Y877134D01*
X656646Y877136D01*
X656533Y877134D01*
X656420Y877128D01*
X656307Y877118D01*
X656194Y877104D01*
X656082Y877087D01*
X655971Y877065D01*
X655861Y877040D01*
X655751Y877010D01*
X655643Y876977D01*
X655536Y876940D01*
X655430Y876900D01*
X655326Y876855D01*
X655223Y876807D01*
X655122Y876756D01*
X655023Y876701D01*
X654926Y876643D01*
X654831Y876581D01*
X654738Y876516D01*
X654648Y876448D01*
X654560Y876377D01*
X654474Y876302D01*
X654391Y876225D01*
X654311Y876145D01*
X654234Y876062D01*
X654159Y875976D01*
X654088Y875888D01*
X654020Y875798D01*
X653955Y875705D01*
X653893Y875610D01*
X653835Y875513D01*
X653780Y875414D01*
X653729Y875313D01*
X653681Y875210D01*
X653636Y875106D01*
X653596Y875000D01*
X653559Y874893D01*
X653526Y874785D01*
X653496Y874675D01*
X653471Y874565D01*
X653449Y874454D01*
X653432Y874342D01*
X653418Y874229D01*
X653408Y874116D01*
X653402Y874003D01*
X653400Y873890D01*
X653401Y873890D02*
X653401Y870645D01*
X653401Y874539D02*
X648208Y877136D01*
X651454Y882000D02*
X651567Y882002D01*
X651680Y882008D01*
X651793Y882018D01*
X651906Y882032D01*
X652018Y882049D01*
X652129Y882071D01*
X652239Y882096D01*
X652349Y882126D01*
X652457Y882159D01*
X652564Y882196D01*
X652670Y882236D01*
X652774Y882281D01*
X652877Y882329D01*
X652978Y882380D01*
X653077Y882435D01*
X653174Y882493D01*
X653269Y882555D01*
X653362Y882620D01*
X653452Y882688D01*
X653540Y882759D01*
X653626Y882834D01*
X653709Y882911D01*
X653789Y882991D01*
X653866Y883074D01*
X653941Y883160D01*
X654012Y883248D01*
X654080Y883338D01*
X654145Y883431D01*
X654207Y883526D01*
X654265Y883623D01*
X654320Y883722D01*
X654371Y883823D01*
X654419Y883926D01*
X654464Y884030D01*
X654504Y884136D01*
X654541Y884243D01*
X654574Y884351D01*
X654604Y884461D01*
X654629Y884571D01*
X654651Y884682D01*
X654668Y884794D01*
X654682Y884907D01*
X654692Y885020D01*
X654698Y885133D01*
X654700Y885246D01*
X654698Y885359D01*
X654692Y885472D01*
X654682Y885585D01*
X654668Y885698D01*
X654651Y885810D01*
X654629Y885921D01*
X654604Y886031D01*
X654574Y886141D01*
X654541Y886249D01*
X654504Y886356D01*
X654464Y886462D01*
X654419Y886566D01*
X654371Y886669D01*
X654320Y886770D01*
X654265Y886869D01*
X654207Y886966D01*
X654145Y887061D01*
X654080Y887154D01*
X654012Y887244D01*
X653941Y887332D01*
X653866Y887418D01*
X653789Y887501D01*
X653709Y887581D01*
X653626Y887658D01*
X653540Y887733D01*
X653452Y887804D01*
X653362Y887872D01*
X653269Y887937D01*
X653174Y887999D01*
X653077Y888057D01*
X652978Y888112D01*
X652877Y888163D01*
X652774Y888211D01*
X652670Y888256D01*
X652564Y888296D01*
X652457Y888333D01*
X652349Y888366D01*
X652239Y888396D01*
X652129Y888421D01*
X652018Y888443D01*
X651906Y888460D01*
X651793Y888474D01*
X651680Y888484D01*
X651567Y888490D01*
X651454Y888492D01*
X651341Y888490D01*
X651228Y888484D01*
X651115Y888474D01*
X651002Y888460D01*
X650890Y888443D01*
X650779Y888421D01*
X650669Y888396D01*
X650559Y888366D01*
X650451Y888333D01*
X650344Y888296D01*
X650238Y888256D01*
X650134Y888211D01*
X650031Y888163D01*
X649930Y888112D01*
X649831Y888057D01*
X649734Y887999D01*
X649639Y887937D01*
X649546Y887872D01*
X649456Y887804D01*
X649368Y887733D01*
X649282Y887658D01*
X649199Y887581D01*
X649119Y887501D01*
X649042Y887418D01*
X648967Y887332D01*
X648896Y887244D01*
X648828Y887154D01*
X648763Y887061D01*
X648701Y886966D01*
X648643Y886869D01*
X648588Y886770D01*
X648537Y886669D01*
X648489Y886566D01*
X648444Y886462D01*
X648404Y886356D01*
X648367Y886249D01*
X648334Y886141D01*
X648304Y886031D01*
X648279Y885921D01*
X648257Y885810D01*
X648240Y885698D01*
X648226Y885585D01*
X648216Y885472D01*
X648210Y885359D01*
X648208Y885246D01*
X648210Y885133D01*
X648216Y885020D01*
X648226Y884907D01*
X648240Y884794D01*
X648257Y884682D01*
X648279Y884571D01*
X648304Y884461D01*
X648334Y884351D01*
X648367Y884243D01*
X648404Y884136D01*
X648444Y884030D01*
X648489Y883926D01*
X648537Y883823D01*
X648588Y883722D01*
X648643Y883623D01*
X648701Y883526D01*
X648763Y883431D01*
X648828Y883338D01*
X648896Y883248D01*
X648967Y883160D01*
X649042Y883074D01*
X649119Y882991D01*
X649199Y882911D01*
X649282Y882834D01*
X649368Y882759D01*
X649456Y882688D01*
X649546Y882620D01*
X649639Y882555D01*
X649734Y882493D01*
X649831Y882435D01*
X649930Y882380D01*
X650031Y882329D01*
X650134Y882281D01*
X650238Y882236D01*
X650344Y882196D01*
X650451Y882159D01*
X650559Y882126D01*
X650669Y882096D01*
X650779Y882071D01*
X650890Y882049D01*
X651002Y882032D01*
X651115Y882018D01*
X651228Y882008D01*
X651341Y882002D01*
X651454Y882000D01*
X657296Y882650D02*
X657397Y882652D01*
X657497Y882658D01*
X657597Y882668D01*
X657697Y882681D01*
X657796Y882699D01*
X657895Y882720D01*
X657992Y882745D01*
X658089Y882774D01*
X658184Y882807D01*
X658278Y882843D01*
X658370Y882883D01*
X658461Y882926D01*
X658550Y882973D01*
X658637Y883023D01*
X658723Y883077D01*
X658806Y883134D01*
X658886Y883194D01*
X658965Y883257D01*
X659041Y883324D01*
X659114Y883393D01*
X659184Y883465D01*
X659252Y883539D01*
X659317Y883616D01*
X659378Y883696D01*
X659437Y883778D01*
X659492Y883862D01*
X659544Y883948D01*
X659593Y884036D01*
X659638Y884126D01*
X659680Y884218D01*
X659718Y884311D01*
X659752Y884406D01*
X659783Y884501D01*
X659810Y884598D01*
X659833Y884696D01*
X659853Y884795D01*
X659868Y884895D01*
X659880Y884995D01*
X659888Y885095D01*
X659892Y885196D01*
X659892Y885296D01*
X659888Y885397D01*
X659880Y885497D01*
X659868Y885597D01*
X659853Y885697D01*
X659833Y885796D01*
X659810Y885894D01*
X659783Y885991D01*
X659752Y886086D01*
X659718Y886181D01*
X659680Y886274D01*
X659638Y886366D01*
X659593Y886456D01*
X659544Y886544D01*
X659492Y886630D01*
X659437Y886714D01*
X659378Y886796D01*
X659317Y886876D01*
X659252Y886953D01*
X659184Y887027D01*
X659114Y887099D01*
X659041Y887168D01*
X658965Y887235D01*
X658886Y887298D01*
X658806Y887358D01*
X658723Y887415D01*
X658637Y887469D01*
X658550Y887519D01*
X658461Y887566D01*
X658370Y887609D01*
X658278Y887649D01*
X658184Y887685D01*
X658089Y887718D01*
X657992Y887747D01*
X657895Y887772D01*
X657796Y887793D01*
X657697Y887811D01*
X657597Y887824D01*
X657497Y887834D01*
X657397Y887840D01*
X657296Y887842D01*
X657195Y887840D01*
X657095Y887834D01*
X656995Y887824D01*
X656895Y887811D01*
X656796Y887793D01*
X656697Y887772D01*
X656600Y887747D01*
X656503Y887718D01*
X656408Y887685D01*
X656314Y887649D01*
X656222Y887609D01*
X656131Y887566D01*
X656042Y887519D01*
X655955Y887469D01*
X655869Y887415D01*
X655786Y887358D01*
X655706Y887298D01*
X655627Y887235D01*
X655551Y887168D01*
X655478Y887099D01*
X655408Y887027D01*
X655340Y886953D01*
X655275Y886876D01*
X655214Y886796D01*
X655155Y886714D01*
X655100Y886630D01*
X655048Y886544D01*
X654999Y886456D01*
X654954Y886366D01*
X654912Y886274D01*
X654874Y886181D01*
X654840Y886086D01*
X654809Y885991D01*
X654782Y885894D01*
X654759Y885796D01*
X654739Y885697D01*
X654724Y885597D01*
X654712Y885497D01*
X654704Y885397D01*
X654700Y885296D01*
X654700Y885196D01*
X654704Y885095D01*
X654712Y884995D01*
X654724Y884895D01*
X654739Y884795D01*
X654759Y884696D01*
X654782Y884598D01*
X654809Y884501D01*
X654840Y884406D01*
X654874Y884311D01*
X654912Y884218D01*
X654954Y884126D01*
X654999Y884036D01*
X655048Y883948D01*
X655100Y883862D01*
X655155Y883778D01*
X655214Y883696D01*
X655275Y883616D01*
X655340Y883539D01*
X655408Y883465D01*
X655478Y883393D01*
X655551Y883324D01*
X655627Y883257D01*
X655706Y883194D01*
X655786Y883134D01*
X655869Y883077D01*
X655955Y883023D01*
X656042Y882973D01*
X656131Y882926D01*
X656222Y882883D01*
X656314Y882843D01*
X656408Y882807D01*
X656503Y882774D01*
X656600Y882745D01*
X656697Y882720D01*
X656796Y882699D01*
X656895Y882681D01*
X656995Y882668D01*
X657095Y882658D01*
X657195Y882652D01*
X657296Y882650D01*
D11*
X194552Y381635D02*
X194552Y376809D01*
X194552Y381635D02*
X193211Y381635D01*
X193140Y381633D01*
X193068Y381627D01*
X192998Y381618D01*
X192928Y381605D01*
X192858Y381588D01*
X192790Y381567D01*
X192723Y381543D01*
X192657Y381515D01*
X192593Y381484D01*
X192530Y381449D01*
X192470Y381411D01*
X192411Y381370D01*
X192355Y381326D01*
X192301Y381279D01*
X192250Y381230D01*
X192202Y381177D01*
X192156Y381122D01*
X192114Y381065D01*
X192074Y381005D01*
X192038Y380944D01*
X192005Y380880D01*
X191976Y380815D01*
X191950Y380749D01*
X191927Y380681D01*
X191908Y380612D01*
X191893Y380542D01*
X191882Y380472D01*
X191874Y380401D01*
X191870Y380330D01*
X191870Y380258D01*
X191874Y380187D01*
X191882Y380116D01*
X191893Y380046D01*
X191908Y379976D01*
X191927Y379907D01*
X191950Y379839D01*
X191976Y379773D01*
X192005Y379708D01*
X192038Y379644D01*
X192074Y379583D01*
X192114Y379523D01*
X192156Y379466D01*
X192202Y379411D01*
X192250Y379358D01*
X192301Y379309D01*
X192355Y379262D01*
X192411Y379218D01*
X192470Y379177D01*
X192530Y379139D01*
X192593Y379104D01*
X192657Y379073D01*
X192723Y379045D01*
X192790Y379021D01*
X192858Y379000D01*
X192928Y378983D01*
X192998Y378970D01*
X193068Y378961D01*
X193140Y378955D01*
X193211Y378953D01*
X193211Y378954D02*
X194552Y378954D01*
X192943Y378954D02*
X191871Y376809D01*
X188057Y378954D02*
X186448Y378954D01*
X188057Y378954D02*
X188122Y378956D01*
X188186Y378962D01*
X188250Y378972D01*
X188314Y378985D01*
X188376Y379003D01*
X188437Y379024D01*
X188497Y379048D01*
X188555Y379077D01*
X188612Y379109D01*
X188666Y379144D01*
X188718Y379182D01*
X188768Y379224D01*
X188815Y379268D01*
X188859Y379315D01*
X188901Y379365D01*
X188939Y379417D01*
X188974Y379471D01*
X189006Y379528D01*
X189035Y379586D01*
X189059Y379646D01*
X189080Y379707D01*
X189098Y379769D01*
X189111Y379833D01*
X189121Y379897D01*
X189127Y379961D01*
X189129Y380026D01*
X189129Y380294D01*
X189130Y380294D02*
X189128Y380365D01*
X189122Y380437D01*
X189113Y380507D01*
X189100Y380577D01*
X189083Y380647D01*
X189062Y380715D01*
X189038Y380782D01*
X189010Y380848D01*
X188979Y380912D01*
X188944Y380975D01*
X188906Y381035D01*
X188865Y381094D01*
X188821Y381150D01*
X188774Y381204D01*
X188725Y381255D01*
X188672Y381303D01*
X188617Y381349D01*
X188560Y381391D01*
X188500Y381431D01*
X188439Y381467D01*
X188375Y381500D01*
X188310Y381529D01*
X188244Y381555D01*
X188176Y381578D01*
X188107Y381597D01*
X188037Y381612D01*
X187967Y381623D01*
X187896Y381631D01*
X187825Y381635D01*
X187753Y381635D01*
X187682Y381631D01*
X187611Y381623D01*
X187541Y381612D01*
X187471Y381597D01*
X187402Y381578D01*
X187334Y381555D01*
X187268Y381529D01*
X187203Y381500D01*
X187139Y381467D01*
X187078Y381431D01*
X187018Y381391D01*
X186961Y381349D01*
X186906Y381303D01*
X186853Y381255D01*
X186804Y381204D01*
X186757Y381150D01*
X186713Y381094D01*
X186672Y381035D01*
X186634Y380975D01*
X186599Y380912D01*
X186568Y380848D01*
X186540Y380782D01*
X186516Y380715D01*
X186495Y380647D01*
X186478Y380577D01*
X186465Y380507D01*
X186456Y380437D01*
X186450Y380365D01*
X186448Y380294D01*
X186448Y378954D01*
X186450Y378863D01*
X186456Y378772D01*
X186465Y378682D01*
X186479Y378591D01*
X186496Y378502D01*
X186517Y378414D01*
X186542Y378326D01*
X186571Y378239D01*
X186603Y378154D01*
X186638Y378070D01*
X186678Y377988D01*
X186720Y377908D01*
X186766Y377829D01*
X186816Y377753D01*
X186868Y377679D01*
X186924Y377606D01*
X186983Y377537D01*
X187044Y377470D01*
X187109Y377405D01*
X187176Y377344D01*
X187245Y377285D01*
X187318Y377229D01*
X187392Y377177D01*
X187468Y377127D01*
X187547Y377081D01*
X187627Y377039D01*
X187709Y376999D01*
X187793Y376964D01*
X187878Y376932D01*
X187965Y376903D01*
X188053Y376878D01*
X188141Y376857D01*
X188230Y376840D01*
X188321Y376826D01*
X188411Y376817D01*
X188502Y376811D01*
X188593Y376809D01*
D14*
X511810Y1132840D02*
X554990Y1132840D01*
X511810Y1153160D02*
X511710Y1153158D01*
X511611Y1153152D01*
X511511Y1153142D01*
X511413Y1153129D01*
X511314Y1153111D01*
X511217Y1153090D01*
X511121Y1153065D01*
X511025Y1153036D01*
X510931Y1153003D01*
X510838Y1152967D01*
X510747Y1152927D01*
X510657Y1152883D01*
X510569Y1152836D01*
X510483Y1152786D01*
X510399Y1152732D01*
X510317Y1152675D01*
X510238Y1152615D01*
X510160Y1152551D01*
X510086Y1152485D01*
X510014Y1152416D01*
X509945Y1152344D01*
X509879Y1152270D01*
X509815Y1152192D01*
X509755Y1152113D01*
X509698Y1152031D01*
X509644Y1151947D01*
X509594Y1151861D01*
X509547Y1151773D01*
X509503Y1151683D01*
X509463Y1151592D01*
X509427Y1151499D01*
X509394Y1151405D01*
X509365Y1151309D01*
X509340Y1151213D01*
X509319Y1151116D01*
X509301Y1151017D01*
X509288Y1150919D01*
X509278Y1150819D01*
X509272Y1150720D01*
X509270Y1150620D01*
X554990Y1153160D02*
X555090Y1153158D01*
X555189Y1153152D01*
X555289Y1153142D01*
X555387Y1153129D01*
X555486Y1153111D01*
X555583Y1153090D01*
X555679Y1153065D01*
X555775Y1153036D01*
X555869Y1153003D01*
X555962Y1152967D01*
X556053Y1152927D01*
X556143Y1152883D01*
X556231Y1152836D01*
X556317Y1152786D01*
X556401Y1152732D01*
X556483Y1152675D01*
X556562Y1152615D01*
X556640Y1152551D01*
X556714Y1152485D01*
X556786Y1152416D01*
X556855Y1152344D01*
X556921Y1152270D01*
X556985Y1152192D01*
X557045Y1152113D01*
X557102Y1152031D01*
X557156Y1151947D01*
X557206Y1151861D01*
X557253Y1151773D01*
X557297Y1151683D01*
X557337Y1151592D01*
X557373Y1151499D01*
X557406Y1151405D01*
X557435Y1151309D01*
X557460Y1151213D01*
X557481Y1151116D01*
X557499Y1151017D01*
X557512Y1150919D01*
X557522Y1150819D01*
X557528Y1150720D01*
X557530Y1150620D01*
X557530Y1135380D02*
X557528Y1135280D01*
X557522Y1135181D01*
X557512Y1135081D01*
X557499Y1134983D01*
X557481Y1134884D01*
X557460Y1134787D01*
X557435Y1134691D01*
X557406Y1134595D01*
X557373Y1134501D01*
X557337Y1134408D01*
X557297Y1134317D01*
X557253Y1134227D01*
X557206Y1134139D01*
X557156Y1134053D01*
X557102Y1133969D01*
X557045Y1133887D01*
X556985Y1133808D01*
X556921Y1133730D01*
X556855Y1133656D01*
X556786Y1133584D01*
X556714Y1133515D01*
X556640Y1133449D01*
X556562Y1133385D01*
X556483Y1133325D01*
X556401Y1133268D01*
X556317Y1133214D01*
X556231Y1133164D01*
X556143Y1133117D01*
X556053Y1133073D01*
X555962Y1133033D01*
X555869Y1132997D01*
X555775Y1132964D01*
X555679Y1132935D01*
X555583Y1132910D01*
X555486Y1132889D01*
X555387Y1132871D01*
X555289Y1132858D01*
X555189Y1132848D01*
X555090Y1132842D01*
X554990Y1132840D01*
X511810Y1132840D02*
X511710Y1132842D01*
X511611Y1132848D01*
X511511Y1132858D01*
X511413Y1132871D01*
X511314Y1132889D01*
X511217Y1132910D01*
X511121Y1132935D01*
X511025Y1132964D01*
X510931Y1132997D01*
X510838Y1133033D01*
X510747Y1133073D01*
X510657Y1133117D01*
X510569Y1133164D01*
X510483Y1133214D01*
X510399Y1133268D01*
X510317Y1133325D01*
X510238Y1133385D01*
X510160Y1133449D01*
X510086Y1133515D01*
X510014Y1133584D01*
X509945Y1133656D01*
X509879Y1133730D01*
X509815Y1133808D01*
X509755Y1133887D01*
X509698Y1133969D01*
X509644Y1134053D01*
X509594Y1134139D01*
X509547Y1134227D01*
X509503Y1134317D01*
X509463Y1134408D01*
X509427Y1134501D01*
X509394Y1134595D01*
X509365Y1134691D01*
X509340Y1134787D01*
X509319Y1134884D01*
X509301Y1134983D01*
X509288Y1135081D01*
X509278Y1135181D01*
X509272Y1135280D01*
X509270Y1135380D01*
X509270Y1150620D01*
X557530Y1150620D02*
X557530Y1135380D01*
X554990Y1153160D02*
X511810Y1153160D01*
D11*
X550545Y1158875D02*
X550547Y1158775D01*
X550553Y1158676D01*
X550563Y1158576D01*
X550576Y1158478D01*
X550594Y1158379D01*
X550615Y1158282D01*
X550640Y1158186D01*
X550669Y1158090D01*
X550702Y1157996D01*
X550738Y1157903D01*
X550778Y1157812D01*
X550822Y1157722D01*
X550869Y1157634D01*
X550919Y1157548D01*
X550973Y1157464D01*
X551030Y1157382D01*
X551090Y1157303D01*
X551154Y1157225D01*
X551220Y1157151D01*
X551289Y1157079D01*
X551361Y1157010D01*
X551435Y1156944D01*
X551513Y1156880D01*
X551592Y1156820D01*
X551674Y1156763D01*
X551758Y1156709D01*
X551844Y1156659D01*
X551932Y1156612D01*
X552022Y1156568D01*
X552113Y1156528D01*
X552206Y1156492D01*
X552300Y1156459D01*
X552396Y1156430D01*
X552492Y1156405D01*
X552589Y1156384D01*
X552688Y1156366D01*
X552786Y1156353D01*
X552886Y1156343D01*
X552985Y1156337D01*
X553085Y1156335D01*
X553226Y1156337D01*
X553367Y1156342D01*
X553508Y1156352D01*
X553649Y1156365D01*
X553789Y1156381D01*
X553929Y1156402D01*
X554068Y1156426D01*
X554207Y1156454D01*
X554344Y1156485D01*
X554481Y1156520D01*
X554617Y1156558D01*
X554752Y1156600D01*
X554885Y1156646D01*
X555018Y1156695D01*
X555149Y1156748D01*
X555278Y1156804D01*
X555407Y1156863D01*
X555533Y1156926D01*
X555658Y1156992D01*
X555781Y1157061D01*
X555902Y1157134D01*
X556021Y1157210D01*
X556139Y1157289D01*
X556254Y1157370D01*
X556366Y1157455D01*
X556477Y1157543D01*
X556585Y1157634D01*
X556691Y1157727D01*
X556794Y1157824D01*
X556895Y1157923D01*
X556578Y1165225D02*
X556576Y1165325D01*
X556570Y1165424D01*
X556560Y1165524D01*
X556547Y1165622D01*
X556529Y1165721D01*
X556508Y1165818D01*
X556483Y1165914D01*
X556454Y1166010D01*
X556421Y1166104D01*
X556385Y1166197D01*
X556345Y1166288D01*
X556301Y1166378D01*
X556254Y1166466D01*
X556204Y1166552D01*
X556150Y1166636D01*
X556093Y1166718D01*
X556033Y1166797D01*
X555969Y1166875D01*
X555903Y1166949D01*
X555834Y1167021D01*
X555762Y1167090D01*
X555688Y1167156D01*
X555610Y1167220D01*
X555531Y1167280D01*
X555449Y1167337D01*
X555365Y1167391D01*
X555279Y1167441D01*
X555191Y1167488D01*
X555101Y1167532D01*
X555010Y1167572D01*
X554917Y1167608D01*
X554823Y1167641D01*
X554727Y1167670D01*
X554631Y1167695D01*
X554534Y1167716D01*
X554435Y1167734D01*
X554337Y1167747D01*
X554237Y1167757D01*
X554138Y1167763D01*
X554038Y1167765D01*
X554038Y1167766D02*
X553905Y1167764D01*
X553772Y1167759D01*
X553639Y1167749D01*
X553506Y1167736D01*
X553374Y1167719D01*
X553242Y1167699D01*
X553111Y1167675D01*
X552981Y1167647D01*
X552851Y1167616D01*
X552723Y1167581D01*
X552595Y1167542D01*
X552469Y1167500D01*
X552344Y1167454D01*
X552220Y1167405D01*
X552097Y1167353D01*
X551976Y1167297D01*
X551857Y1167237D01*
X551739Y1167175D01*
X551624Y1167109D01*
X551510Y1167040D01*
X551398Y1166967D01*
X551288Y1166892D01*
X551180Y1166813D01*
X555308Y1163002D02*
X555392Y1163054D01*
X555475Y1163109D01*
X555555Y1163168D01*
X555633Y1163229D01*
X555708Y1163293D01*
X555781Y1163361D01*
X555852Y1163431D01*
X555919Y1163503D01*
X555984Y1163578D01*
X556046Y1163656D01*
X556105Y1163736D01*
X556161Y1163818D01*
X556213Y1163902D01*
X556262Y1163988D01*
X556308Y1164076D01*
X556351Y1164166D01*
X556390Y1164257D01*
X556425Y1164350D01*
X556457Y1164444D01*
X556485Y1164539D01*
X556510Y1164635D01*
X556530Y1164732D01*
X556548Y1164830D01*
X556561Y1164928D01*
X556570Y1165027D01*
X556576Y1165126D01*
X556578Y1165225D01*
X551815Y1161098D02*
X551731Y1161046D01*
X551648Y1160991D01*
X551568Y1160932D01*
X551490Y1160871D01*
X551415Y1160807D01*
X551342Y1160739D01*
X551271Y1160669D01*
X551204Y1160597D01*
X551139Y1160522D01*
X551077Y1160444D01*
X551018Y1160364D01*
X550962Y1160282D01*
X550910Y1160198D01*
X550861Y1160112D01*
X550815Y1160024D01*
X550772Y1159934D01*
X550733Y1159843D01*
X550698Y1159750D01*
X550666Y1159656D01*
X550638Y1159561D01*
X550613Y1159465D01*
X550593Y1159368D01*
X550575Y1159270D01*
X550562Y1159172D01*
X550553Y1159073D01*
X550547Y1158974D01*
X550545Y1158875D01*
X551815Y1161098D02*
X555308Y1163003D01*
X543254Y1158875D02*
X543254Y1167765D01*
X543254Y1158875D02*
X543256Y1158775D01*
X543262Y1158676D01*
X543272Y1158576D01*
X543285Y1158478D01*
X543303Y1158379D01*
X543324Y1158282D01*
X543349Y1158186D01*
X543378Y1158090D01*
X543411Y1157996D01*
X543447Y1157903D01*
X543487Y1157812D01*
X543531Y1157722D01*
X543578Y1157634D01*
X543628Y1157548D01*
X543682Y1157464D01*
X543739Y1157382D01*
X543799Y1157303D01*
X543863Y1157225D01*
X543929Y1157151D01*
X543998Y1157079D01*
X544070Y1157010D01*
X544144Y1156944D01*
X544222Y1156880D01*
X544301Y1156820D01*
X544383Y1156763D01*
X544467Y1156709D01*
X544553Y1156659D01*
X544641Y1156612D01*
X544731Y1156568D01*
X544822Y1156528D01*
X544915Y1156492D01*
X545009Y1156459D01*
X545105Y1156430D01*
X545201Y1156405D01*
X545298Y1156384D01*
X545397Y1156366D01*
X545495Y1156353D01*
X545595Y1156343D01*
X545694Y1156337D01*
X545794Y1156335D01*
X547064Y1156335D01*
X537845Y1165225D02*
X534670Y1167765D01*
X534670Y1156335D01*
X537845Y1156335D02*
X531495Y1156335D01*
X266700Y922900D02*
X266700Y152400D01*
X266700Y922900D02*
X473200Y922900D01*
X473200Y152400D01*
X266700Y152400D01*
D15*
X364207Y163332D02*
X364207Y194489D01*
X348628Y178911D02*
X379786Y178911D01*
X369907Y876932D02*
X369907Y908089D01*
D14*
X482600Y226060D02*
X485140Y223520D01*
X581660Y223520D01*
X584200Y226060D01*
X482600Y226060D02*
X482600Y255270D01*
X584200Y255270D02*
X584200Y226060D01*
D16*
X579628Y229616D03*
D11*
X582295Y218313D02*
X582295Y206883D01*
X583565Y206883D02*
X581025Y206883D01*
X581025Y218313D02*
X583565Y218313D01*
X573823Y206883D02*
X571283Y206883D01*
X573823Y206883D02*
X573923Y206885D01*
X574022Y206891D01*
X574122Y206901D01*
X574220Y206914D01*
X574319Y206932D01*
X574416Y206953D01*
X574512Y206978D01*
X574608Y207007D01*
X574702Y207040D01*
X574795Y207076D01*
X574886Y207116D01*
X574976Y207160D01*
X575064Y207207D01*
X575150Y207257D01*
X575234Y207311D01*
X575316Y207368D01*
X575395Y207428D01*
X575473Y207492D01*
X575547Y207558D01*
X575619Y207627D01*
X575688Y207699D01*
X575754Y207773D01*
X575818Y207851D01*
X575878Y207930D01*
X575935Y208012D01*
X575989Y208096D01*
X576039Y208182D01*
X576086Y208270D01*
X576130Y208360D01*
X576170Y208451D01*
X576206Y208544D01*
X576239Y208638D01*
X576268Y208734D01*
X576293Y208830D01*
X576314Y208927D01*
X576332Y209026D01*
X576345Y209124D01*
X576355Y209224D01*
X576361Y209323D01*
X576363Y209423D01*
X576363Y215773D01*
X576361Y215873D01*
X576355Y215972D01*
X576345Y216072D01*
X576332Y216170D01*
X576314Y216269D01*
X576293Y216366D01*
X576268Y216462D01*
X576239Y216558D01*
X576206Y216652D01*
X576170Y216745D01*
X576130Y216836D01*
X576086Y216926D01*
X576039Y217014D01*
X575989Y217100D01*
X575935Y217184D01*
X575878Y217266D01*
X575818Y217345D01*
X575754Y217423D01*
X575688Y217497D01*
X575619Y217569D01*
X575547Y217638D01*
X575473Y217704D01*
X575395Y217768D01*
X575316Y217828D01*
X575234Y217885D01*
X575150Y217939D01*
X575064Y217989D01*
X574976Y218036D01*
X574886Y218080D01*
X574795Y218120D01*
X574702Y218156D01*
X574608Y218189D01*
X574512Y218218D01*
X574416Y218243D01*
X574319Y218264D01*
X574220Y218282D01*
X574122Y218295D01*
X574022Y218305D01*
X573923Y218311D01*
X573823Y218313D01*
X571283Y218313D01*
X566801Y215773D02*
X563626Y218313D01*
X563626Y206883D01*
X566801Y206883D02*
X560451Y206883D01*
D17*
X577215Y260350D03*
D18*
X558800Y262890D03*
D19*
X546100Y260350D03*
D18*
X533400Y262890D03*
D19*
X520700Y260350D03*
D18*
X508000Y262890D03*
D17*
X489585Y260350D03*
D20*
X889000Y741450D03*
X889000Y740950D03*
D21*
X889000Y740400D03*
D22*
X888750Y739850D03*
D23*
X889000Y739300D03*
D24*
X889000Y738750D03*
D23*
X889000Y738200D03*
D24*
X889000Y737650D03*
D25*
X889000Y737150D03*
D26*
X889000Y736600D03*
D25*
X889000Y736050D03*
D26*
X889000Y735500D03*
D25*
X889000Y734950D03*
D27*
X889000Y734400D03*
D28*
X889000Y733850D03*
D27*
X889000Y733300D03*
D28*
X889000Y732750D03*
D29*
X889250Y732250D03*
D30*
X889000Y731700D03*
D31*
X889000Y731150D03*
D30*
X889000Y730600D03*
D31*
X889000Y730050D03*
D32*
X889000Y729500D03*
D33*
X889000Y728950D03*
X889000Y728450D03*
D32*
X889000Y727900D03*
D33*
X889000Y727350D03*
D34*
X889000Y726800D03*
D35*
X889000Y726250D03*
D34*
X889000Y725700D03*
D35*
X889000Y725150D03*
D36*
X889300Y724650D03*
D37*
X889000Y724100D03*
D38*
X889000Y723550D03*
D37*
X889000Y723000D03*
D38*
X889000Y722450D03*
D39*
X889250Y721900D03*
D40*
X889000Y721350D03*
X889000Y720850D03*
D41*
X889000Y720300D03*
D42*
X889300Y719750D03*
D43*
X889000Y719200D03*
D44*
X889000Y718650D03*
D43*
X889000Y718100D03*
D44*
X889000Y717550D03*
D45*
X889250Y717050D03*
D46*
X889000Y716500D03*
D47*
X889000Y715950D03*
D46*
X889000Y715400D03*
D47*
X889000Y714850D03*
D48*
X889250Y714300D03*
D49*
X889000Y713750D03*
X889000Y713250D03*
D50*
X889000Y712700D03*
D49*
X889000Y712150D03*
D51*
X889300Y711600D03*
D52*
X889000Y711050D03*
D21*
X964500Y710500D03*
D53*
X889000Y710500D03*
D54*
X814050Y710500D03*
D22*
X963650Y709950D03*
D52*
X889000Y709950D03*
D22*
X814350Y709950D03*
D23*
X963400Y709400D03*
D55*
X889250Y709400D03*
D23*
X815100Y709400D03*
D56*
X962600Y708850D03*
D57*
X889000Y708850D03*
D56*
X815400Y708850D03*
D58*
X962050Y708350D03*
D57*
X889000Y708350D03*
D59*
X816250Y708350D03*
D60*
X961500Y707800D03*
D61*
X889000Y707800D03*
D62*
X816750Y707800D03*
D28*
X960700Y707250D03*
D57*
X889000Y707250D03*
D28*
X817300Y707250D03*
D27*
X960200Y706700D03*
D63*
X889000Y706700D03*
D64*
X818100Y706700D03*
D65*
X959650Y706150D03*
D66*
X889000Y706150D03*
D29*
X818650Y706150D03*
D67*
X959050Y705600D03*
D63*
X889000Y705600D03*
D68*
X819200Y705600D03*
D33*
X958500Y705050D03*
D66*
X889000Y705050D03*
D69*
X819750Y705050D03*
D33*
X958000Y704550D03*
D70*
X889000Y704550D03*
D71*
X820550Y704550D03*
D72*
X957150Y704000D03*
D73*
X889000Y704000D03*
D72*
X820850Y704000D03*
D36*
X956600Y703450D03*
D70*
X889000Y703450D03*
D74*
X821650Y703450D03*
D75*
X956100Y702900D03*
D73*
X889000Y702900D03*
D34*
X822200Y702900D03*
D36*
X955500Y702350D03*
D76*
X889300Y702350D03*
D77*
X822750Y702350D03*
D78*
X955000Y701800D03*
D79*
X889000Y701800D03*
D80*
X823250Y701800D03*
D81*
X954450Y701250D03*
D82*
X889000Y701250D03*
D40*
X823800Y701250D03*
D83*
X953650Y700750D03*
D82*
X889000Y700750D03*
D83*
X824350Y700750D03*
D43*
X953100Y700200D03*
D84*
X889250Y700200D03*
D85*
X825200Y700200D03*
D86*
X952550Y699650D03*
D87*
X889250Y699650D03*
D86*
X825450Y699650D03*
D46*
X952000Y699100D03*
D88*
X889000Y699100D03*
D89*
X826250Y699100D03*
D47*
X951500Y698550D03*
D90*
X889000Y698550D03*
D91*
X826800Y698550D03*
D48*
X950650Y698000D03*
D88*
X889000Y698000D03*
D48*
X827350Y698000D03*
D92*
X950100Y697450D03*
D93*
X889250Y697450D03*
D94*
X828150Y697450D03*
D95*
X949550Y696950D03*
D93*
X889250Y696950D03*
D95*
X828450Y696950D03*
D51*
X949000Y696400D03*
D96*
X889000Y696400D03*
D97*
X829250Y696400D03*
D52*
X948200Y695850D03*
D98*
X889000Y695850D03*
D52*
X829800Y695850D03*
D55*
X947950Y695300D03*
D96*
X889000Y695300D03*
D99*
X830600Y695300D03*
D100*
X947150Y694750D03*
D101*
X889300Y694750D03*
D100*
X830850Y694750D03*
D63*
X946600Y694200D03*
D102*
X889000Y694200D03*
D103*
X831700Y694200D03*
D104*
X946050Y693650D03*
D105*
X889000Y693650D03*
D106*
X832200Y693650D03*
D107*
X945250Y693150D03*
D105*
X889000Y693150D03*
D107*
X832750Y693150D03*
D108*
X944700Y692600D03*
D109*
X889250Y692600D03*
D73*
X833600Y692600D03*
D76*
X944100Y692050D03*
D110*
X889250Y692050D03*
D111*
X834150Y692050D03*
D112*
X943350Y691500D03*
D113*
X889000Y691500D03*
D112*
X834650Y691500D03*
D87*
X943050Y690950D03*
D114*
X889000Y690950D03*
D115*
X835250Y690950D03*
D88*
X942200Y690400D03*
D113*
X889000Y690400D03*
D88*
X835800Y690400D03*
D90*
X941700Y689850D03*
D116*
X889300Y689850D03*
D117*
X836600Y689850D03*
D118*
X941150Y689300D03*
D119*
X889300Y689300D03*
D120*
X837100Y689300D03*
D121*
X940650Y688750D03*
D122*
X889000Y688750D03*
D121*
X837350Y688750D03*
D101*
X939800Y688250D03*
D122*
X889000Y688250D03*
D101*
X838200Y688250D03*
D102*
X939500Y687700D03*
D123*
X889000Y687700D03*
D102*
X839000Y687700D03*
D124*
X938700Y687150D03*
D125*
X889250Y687150D03*
D124*
X839300Y687150D03*
D109*
X938150Y686600D03*
D126*
X889250Y686600D03*
D109*
X839850Y686600D03*
D116*
X937600Y686050D03*
D127*
X889000Y686050D03*
D128*
X840650Y686050D03*
D119*
X937100Y685500D03*
D129*
X889000Y685500D03*
D119*
X840900Y685500D03*
D125*
X936550Y684950D03*
D130*
X889300Y684950D03*
D131*
X841750Y684950D03*
D125*
X935950Y684450D03*
X889250Y684450D03*
D127*
X842300Y684450D03*
D129*
X935200Y683900D03*
D113*
X889000Y683900D03*
D129*
X842800Y683900D03*
D132*
X934650Y683350D03*
D101*
X889300Y683350D03*
D130*
X843600Y683350D03*
D133*
X934100Y682800D03*
D88*
X889000Y682800D03*
D133*
X843900Y682800D03*
D134*
X933550Y682250D03*
D70*
X889000Y682250D03*
D135*
X844750Y682250D03*
D136*
X933000Y681700D03*
D63*
X889000Y681700D03*
D137*
X845250Y681700D03*
D138*
X932200Y681150D03*
D52*
X889000Y681150D03*
D138*
X845800Y681150D03*
D139*
X931950Y680650D03*
D140*
X889250Y680650D03*
D139*
X846650Y680650D03*
D141*
X931100Y680100D03*
D43*
X889000Y680100D03*
D142*
X847150Y680100D03*
D143*
X930300Y679550D03*
D38*
X889000Y679550D03*
D143*
X847700Y679550D03*
D144*
X929700Y679000D03*
D34*
X889000Y679000D03*
D144*
X848300Y679000D03*
D145*
X929200Y678450D03*
D31*
X889000Y678450D03*
D145*
X848800Y678450D03*
D146*
X928650Y677900D03*
D27*
X889000Y677900D03*
D146*
X849350Y677900D03*
D147*
X928100Y677350D03*
D24*
X889000Y677350D03*
D148*
X850200Y677350D03*
D149*
X927550Y676850D03*
X850450Y676850D03*
D150*
X926750Y676300D03*
X851250Y676300D03*
D151*
X926500Y675750D03*
D152*
X851750Y675750D03*
D153*
X925700Y675200D03*
X852300Y675200D03*
D154*
X924850Y674650D03*
X853150Y674650D03*
D155*
X924550Y674100D03*
D156*
X853700Y674100D03*
D157*
X923800Y673550D03*
X854200Y673550D03*
X923200Y673050D03*
X854800Y673050D03*
D158*
X922950Y672500D03*
D159*
X855600Y672500D03*
D160*
X922150Y671950D03*
D161*
X856150Y671950D03*
D162*
X921300Y671400D03*
X856700Y671400D03*
D163*
X921050Y670850D03*
D164*
X857200Y670850D03*
D165*
X920250Y670300D03*
X857750Y670300D03*
D166*
X919700Y669750D03*
X858300Y669750D03*
D167*
X919150Y669250D03*
D168*
X859150Y669250D03*
D169*
X918600Y668700D03*
X859400Y668700D03*
D170*
X918050Y668150D03*
D171*
X860200Y668150D03*
D172*
X917550Y667600D03*
D173*
X860750Y667600D03*
D174*
X916700Y667050D03*
X861300Y667050D03*
D175*
X916400Y666500D03*
D176*
X861850Y666500D03*
D177*
X915600Y665950D03*
X862400Y665950D03*
D178*
X914800Y665400D03*
X863200Y665400D03*
D179*
X914500Y664850D03*
X864000Y664850D03*
D180*
X913700Y664350D03*
X864300Y664350D03*
D181*
X913200Y663800D03*
D182*
X865100Y663800D03*
D183*
X912650Y663250D03*
D184*
X865650Y663250D03*
D185*
X911800Y662700D03*
X866200Y662700D03*
D186*
X911550Y662150D03*
D187*
X866700Y662150D03*
D188*
X889300Y661600D03*
D189*
X889000Y661050D03*
D190*
X889250Y660550D03*
D191*
X889300Y660000D03*
D192*
X889000Y659450D03*
D193*
X889250Y658900D03*
D194*
X889000Y658350D03*
D195*
X889000Y657800D03*
D196*
X889300Y657250D03*
D197*
X889000Y656750D03*
D198*
X889000Y656200D03*
D199*
X889300Y655650D03*
D200*
X889000Y655100D03*
D201*
X889250Y654550D03*
D202*
X889300Y654000D03*
D203*
X889000Y653450D03*
D204*
X889250Y652950D03*
D205*
X889250Y652400D03*
D206*
X889000Y651850D03*
D207*
X889000Y651300D03*
D208*
X889000Y650750D03*
D209*
X889000Y650200D03*
D210*
X889300Y649650D03*
D211*
X889250Y649150D03*
D212*
X889000Y648600D03*
D213*
X889300Y648050D03*
D54*
X938950Y647500D03*
D214*
X889000Y647500D03*
D215*
X939800Y646950D03*
D216*
X889000Y646950D03*
D215*
X838200Y646950D03*
D217*
X941150Y646400D03*
D218*
X889250Y646400D03*
D32*
X837400Y646400D03*
D83*
X942250Y645850D03*
D219*
X889000Y645850D03*
D81*
X836050Y645850D03*
D48*
X943050Y645300D03*
D220*
X889000Y645300D03*
D48*
X834950Y645300D03*
D57*
X944400Y644750D03*
D221*
X889250Y644750D03*
D106*
X833900Y644750D03*
D82*
X945500Y644250D03*
D222*
X889000Y644250D03*
D76*
X832800Y644250D03*
D118*
X946550Y643700D03*
D223*
X889000Y643700D03*
D224*
X831700Y643700D03*
D116*
X947400Y643150D03*
D225*
X889250Y643150D03*
D128*
X830850Y643150D03*
D133*
X948200Y642600D03*
D226*
X889000Y642600D03*
D133*
X829800Y642600D03*
D227*
X949550Y642050D03*
D228*
X889000Y642050D03*
D143*
X828700Y642050D03*
D229*
X950400Y641500D03*
D230*
X889250Y641500D03*
D229*
X827600Y641500D03*
D157*
X951500Y640950D03*
D231*
X889000Y640950D03*
D157*
X826500Y640950D03*
D232*
X952850Y640450D03*
D233*
X889300Y640450D03*
D168*
X825450Y640450D03*
D175*
X953900Y639900D03*
D234*
X889000Y639900D03*
D176*
X824350Y639900D03*
D180*
X955000Y639350D03*
D235*
X889000Y639350D03*
D184*
X823250Y639350D03*
D236*
X956100Y638800D03*
D237*
X889250Y638800D03*
D236*
X821900Y638800D03*
D238*
X956900Y638250D03*
D239*
X889000Y638250D03*
D238*
X821100Y638250D03*
D240*
X958250Y637700D03*
D241*
X889000Y637700D03*
D242*
X820000Y637700D03*
D243*
X959350Y637150D03*
D244*
X889250Y637150D03*
D243*
X818650Y637150D03*
D245*
X960150Y636650D03*
D246*
X889000Y636650D03*
D245*
X817850Y636650D03*
D247*
X961500Y636100D03*
D248*
X889300Y636100D03*
D249*
X816750Y636100D03*
D250*
X962350Y635550D03*
D251*
X889000Y635550D03*
D252*
X815400Y635550D03*
D223*
X963400Y635000D03*
D253*
X889000Y635000D03*
D254*
X814850Y635000D03*
D252*
X962600Y634450D03*
D243*
X889250Y634450D03*
D252*
X815400Y634450D03*
D247*
X961500Y633900D03*
D248*
X889300Y633900D03*
D249*
X816750Y633900D03*
D245*
X960150Y633350D03*
D246*
X889000Y633350D03*
D245*
X817850Y633350D03*
D255*
X959100Y632850D03*
D244*
X889250Y632850D03*
D255*
X818900Y632850D03*
D240*
X958250Y632300D03*
D256*
X889300Y632300D03*
D257*
X820300Y632300D03*
D238*
X956900Y631750D03*
D239*
X889000Y631750D03*
D238*
X821100Y631750D03*
D258*
X955850Y631200D03*
D237*
X889250Y631200D03*
D258*
X822150Y631200D03*
D179*
X954700Y630650D03*
D259*
X889250Y630650D03*
D260*
X823550Y630650D03*
D176*
X953650Y630100D03*
D234*
X889000Y630100D03*
D172*
X824650Y630100D03*
D261*
X952600Y629550D03*
D233*
X889300Y629550D03*
D261*
X825400Y629550D03*
D154*
X951450Y629050D03*
D231*
X889000Y629050D03*
D262*
X826800Y629050D03*
D263*
X950100Y628500D03*
D230*
X889250Y628500D03*
D263*
X827900Y628500D03*
D139*
X949250Y627950D03*
D228*
X889000Y627950D03*
D138*
X829000Y627950D03*
D133*
X948200Y627400D03*
D226*
X889000Y627400D03*
D133*
X829800Y627400D03*
D116*
X947400Y626850D03*
D225*
X889250Y626850D03*
D128*
X830850Y626850D03*
D120*
X946300Y626300D03*
D223*
X889000Y626300D03*
D264*
X832250Y626300D03*
D111*
X944950Y625750D03*
D222*
X889000Y625750D03*
D111*
X833050Y625750D03*
D52*
X943900Y625250D03*
D221*
X889250Y625250D03*
D52*
X834100Y625250D03*
D89*
X943050Y624700D03*
D220*
X889000Y624700D03*
D265*
X835500Y624700D03*
D38*
X941700Y624150D03*
D219*
X889000Y624150D03*
D38*
X836300Y624150D03*
D30*
X940600Y623600D03*
D218*
X889250Y623600D03*
D30*
X837400Y623600D03*
D24*
X939500Y623050D03*
D216*
X889000Y623050D03*
D58*
X838750Y623050D03*
D214*
X889000Y622500D03*
D213*
X889300Y621950D03*
D212*
X889000Y621400D03*
D266*
X889000Y620850D03*
D210*
X889300Y620350D03*
D209*
X889000Y619800D03*
D208*
X889000Y619250D03*
D267*
X889300Y618700D03*
D206*
X889000Y618150D03*
D268*
X889000Y617600D03*
D204*
X889250Y617050D03*
D203*
X889000Y616550D03*
D269*
X889000Y616000D03*
D201*
X889250Y615450D03*
D200*
X889000Y614900D03*
D199*
X889300Y614350D03*
D198*
X889000Y613800D03*
D197*
X889000Y613250D03*
D196*
X889300Y612750D03*
D195*
X889000Y612200D03*
D194*
X889000Y611650D03*
D193*
X889250Y611100D03*
D192*
X889000Y610550D03*
D270*
X889000Y610000D03*
D190*
X889250Y609450D03*
D189*
X889000Y608950D03*
D271*
X889000Y608400D03*
D186*
X911550Y607850D03*
D183*
X866450Y607850D03*
D272*
X912100Y607300D03*
X865900Y607300D03*
D273*
X912900Y606750D03*
D180*
X865400Y606750D03*
D274*
X913450Y606200D03*
D181*
X864800Y606200D03*
D179*
X914000Y605650D03*
X864000Y605650D03*
X914500Y605150D03*
D275*
X863750Y605150D03*
D276*
X915050Y604600D03*
X862950Y604600D03*
D277*
X915900Y604050D03*
X862100Y604050D03*
D175*
X916400Y603500D03*
D176*
X861850Y603500D03*
D170*
X916950Y602950D03*
X861050Y602950D03*
D172*
X917550Y602400D03*
X860450Y602400D03*
D171*
X918300Y601850D03*
D167*
X859950Y601850D03*
D169*
X918600Y601300D03*
X859400Y601300D03*
D168*
X919450Y600750D03*
D232*
X858850Y600750D03*
D168*
X919950Y600250D03*
D166*
X858300Y600250D03*
D278*
X920500Y599700D03*
X857500Y599700D03*
D164*
X921300Y599150D03*
X857200Y599150D03*
D279*
X921550Y598600D03*
X856450Y598600D03*
D160*
X922150Y598050D03*
X855850Y598050D03*
D158*
X922950Y597500D03*
D280*
X855300Y597500D03*
D262*
X923500Y596950D03*
D157*
X854800Y596950D03*
D281*
X924050Y596450D03*
X853950Y596450D03*
D282*
X924850Y595900D03*
D156*
X853700Y595900D03*
D283*
X925400Y595350D03*
D284*
X852900Y595350D03*
D285*
X925950Y594800D03*
X852050Y594800D03*
D151*
X926500Y594250D03*
D152*
X851750Y594250D03*
D229*
X927000Y593700D03*
X851000Y593700D03*
D149*
X927550Y593150D03*
D20*
X889000Y593150D03*
D149*
X850450Y593150D03*
D148*
X928400Y592650D03*
D25*
X889000Y592650D03*
D145*
X849900Y592650D03*
D286*
X929200Y592100D03*
D27*
X889000Y592100D03*
D146*
X849350Y592100D03*
D287*
X929450Y591550D03*
D33*
X889000Y591550D03*
D287*
X848550Y591550D03*
D144*
X930300Y591000D03*
D34*
X889000Y591000D03*
D141*
X848000Y591000D03*
D227*
X930550Y590450D03*
D40*
X889000Y590450D03*
D227*
X847450Y590450D03*
D142*
X931350Y589900D03*
D89*
X889250Y589900D03*
D142*
X846650Y589900D03*
D139*
X931950Y589350D03*
D49*
X889000Y589350D03*
D288*
X846350Y589350D03*
D134*
X932450Y588850D03*
D289*
X889250Y588850D03*
D134*
X845550Y588850D03*
D136*
X933000Y588300D03*
D63*
X889000Y588300D03*
D136*
X845000Y588300D03*
D135*
X933850Y587750D03*
D82*
X889000Y587750D03*
D132*
X844450Y587750D03*
D290*
X934400Y587200D03*
D264*
X889250Y587200D03*
D133*
X843900Y587200D03*
D130*
X934900Y586650D03*
D105*
X889000Y586650D03*
D130*
X843100Y586650D03*
D129*
X935700Y586100D03*
D119*
X889300Y586100D03*
D126*
X842550Y586100D03*
D125*
X935950Y585550D03*
D127*
X889000Y585550D03*
D125*
X842050Y585550D03*
D122*
X936800Y585050D03*
D127*
X889000Y585050D03*
D116*
X841500Y585050D03*
D291*
X937350Y584500D03*
D129*
X889000Y584500D03*
D119*
X840900Y584500D03*
D114*
X937900Y583950D03*
D127*
X889000Y583950D03*
D114*
X840100Y583950D03*
D291*
X938450Y583400D03*
D126*
X889250Y583400D03*
D109*
X839850Y583400D03*
D105*
X939000Y582850D03*
D125*
X889250Y582850D03*
D105*
X839000Y582850D03*
D102*
X939500Y582300D03*
D123*
X889000Y582300D03*
D102*
X838500Y582300D03*
D292*
X940350Y581750D03*
D122*
X889000Y581750D03*
D121*
X837950Y581750D03*
X940650Y581250D03*
D122*
X889000Y581250D03*
D121*
X837350Y581250D03*
D120*
X941400Y580700D03*
D119*
X889300Y580700D03*
D293*
X836850Y580700D03*
D93*
X941950Y580150D03*
D114*
X889000Y580150D03*
D90*
X836300Y580150D03*
D294*
X942500Y579600D03*
D113*
X889000Y579600D03*
D294*
X835500Y579600D03*
D115*
X943350Y579050D03*
D114*
X889000Y579050D03*
D115*
X835250Y579050D03*
D108*
X943600Y578500D03*
D113*
X889000Y578500D03*
D108*
X834400Y578500D03*
D70*
X944400Y577950D03*
D110*
X889250Y577950D03*
D76*
X833900Y577950D03*
D295*
X944950Y577400D03*
D102*
X889000Y577400D03*
D296*
X833350Y577400D03*
D66*
X945500Y576850D03*
D105*
X889000Y576850D03*
D107*
X832750Y576850D03*
D104*
X946050Y576350D03*
D105*
X889000Y576350D03*
D104*
X831950Y576350D03*
D297*
X946850Y575800D03*
D224*
X889300Y575800D03*
D298*
X831450Y575800D03*
D299*
X947400Y575250D03*
D101*
X889300Y575250D03*
D100*
X830850Y575250D03*
D55*
X947950Y574700D03*
D96*
X889000Y574700D03*
D55*
X830050Y574700D03*
D300*
X948750Y574150D03*
D98*
X889000Y574150D03*
D52*
X829800Y574150D03*
D51*
X949000Y573600D03*
D96*
X889000Y573600D03*
D51*
X829000Y573600D03*
D94*
X949850Y573050D03*
D93*
X889250Y573050D03*
D94*
X828150Y573050D03*
X950350Y572550D03*
D93*
X889250Y572550D03*
D92*
X827900Y572550D03*
D46*
X950900Y572000D03*
D88*
X889000Y572000D03*
D46*
X827100Y572000D03*
D45*
X951750Y571450D03*
D90*
X889000Y571450D03*
D47*
X826500Y571450D03*
D265*
X952300Y570900D03*
D88*
X889000Y570900D03*
D301*
X825950Y570900D03*
D42*
X952800Y570350D03*
D87*
X889250Y570350D03*
D86*
X825450Y570350D03*
D85*
X953400Y569800D03*
D79*
X889000Y569800D03*
D41*
X824900Y569800D03*
D40*
X954200Y569250D03*
D82*
X889000Y569250D03*
D83*
X824350Y569250D03*
D81*
X954450Y568750D03*
D82*
X889000Y568750D03*
D81*
X823550Y568750D03*
D78*
X955000Y568200D03*
D108*
X889300Y568200D03*
D80*
X823250Y568200D03*
D38*
X955800Y567650D03*
D76*
X889300Y567650D03*
D36*
X822500Y567650D03*
D302*
X956350Y567100D03*
D73*
X889000Y567100D03*
D75*
X821900Y567100D03*
D35*
X956900Y566550D03*
D70*
X889000Y566550D03*
D303*
X821350Y566550D03*
D72*
X957750Y566000D03*
D73*
X889000Y566000D03*
D217*
X820550Y566000D03*
D33*
X958000Y565450D03*
D66*
X889000Y565450D03*
D33*
X820000Y565450D03*
D304*
X958800Y564950D03*
D66*
X889000Y564950D03*
D65*
X819450Y564950D03*
D305*
X959350Y564400D03*
D63*
X889000Y564400D03*
D67*
X818950Y564400D03*
D306*
X959900Y563850D03*
D66*
X889000Y563850D03*
D306*
X818100Y563850D03*
D27*
X960700Y563300D03*
D63*
X889000Y563300D03*
D27*
X817800Y563300D03*
D307*
X960950Y562750D03*
D57*
X889000Y562750D03*
D307*
X817050Y562750D03*
D62*
X961750Y562200D03*
D61*
X889000Y562200D03*
D60*
X816500Y562200D03*
D59*
X962350Y561650D03*
D57*
X889000Y561650D03*
D58*
X815950Y561650D03*
D24*
X962900Y561150D03*
D289*
X889250Y561150D03*
D56*
X815400Y561150D03*
D23*
X963400Y560600D03*
D55*
X889250Y560600D03*
D23*
X814600Y560600D03*
D22*
X964250Y560050D03*
D52*
X889000Y560050D03*
D22*
X814350Y560050D03*
D53*
X889000Y559500D03*
D52*
X889000Y558950D03*
D51*
X889300Y558400D03*
D49*
X889000Y557850D03*
D50*
X889000Y557300D03*
D49*
X889000Y556750D03*
X889000Y556250D03*
D48*
X889250Y555700D03*
D47*
X889000Y555150D03*
D46*
X889000Y554600D03*
D47*
X889000Y554050D03*
D46*
X889000Y553500D03*
D45*
X889250Y552950D03*
D44*
X889000Y552450D03*
D43*
X889000Y551900D03*
D44*
X889000Y551350D03*
D85*
X889300Y550800D03*
D40*
X889000Y550250D03*
D41*
X889000Y549700D03*
D40*
X889000Y549150D03*
X889000Y548650D03*
D39*
X889250Y548100D03*
D38*
X889000Y547550D03*
D37*
X889000Y547000D03*
D38*
X889000Y546450D03*
D37*
X889000Y545900D03*
D36*
X889300Y545350D03*
D35*
X889000Y544850D03*
D34*
X889000Y544300D03*
D35*
X889000Y543750D03*
D34*
X889000Y543200D03*
D33*
X889000Y542650D03*
D32*
X889000Y542100D03*
D33*
X889000Y541550D03*
X889000Y541050D03*
D68*
X889300Y540500D03*
D31*
X889000Y539950D03*
D30*
X889000Y539400D03*
D31*
X889000Y538850D03*
D30*
X889000Y538300D03*
D29*
X889250Y537750D03*
D28*
X889000Y537250D03*
D27*
X889000Y536700D03*
D28*
X889000Y536150D03*
D27*
X889000Y535600D03*
D25*
X889000Y535050D03*
D26*
X889000Y534500D03*
D25*
X889000Y533950D03*
D26*
X889000Y533400D03*
D25*
X889000Y532850D03*
D24*
X889000Y532350D03*
D23*
X889000Y531800D03*
D24*
X889000Y531250D03*
D23*
X889000Y530700D03*
D24*
X889000Y530150D03*
D21*
X889000Y529600D03*
D20*
X889000Y529050D03*
X889000Y528550D03*
M02*
